<?xml version="1.0" encoding="utf-8"?>
<!-- Generator: Adobe Illustrator 25.4.1, SVG Export Plug-In . SVG Version: 6.00 Build 0)  -->
<svg version="1.1" id="Layer_1" xmlns="http://www.w3.org/2000/svg" xmlns:xlink="http://www.w3.org/1999/xlink" x="0px" y="0px"
	 viewBox="0 0 1080 1080" style="enable-background:new 0 0 1080 1080;" xml:space="preserve">
<style type="text/css">
	.st0{fill:#1125a9;}
</style>
<g>
	<path class="st0" d="M516.2,771.4c-111.2,0-222.5,0.1-333.7,0C94.4,771.2,22.7,713.1,3.9,627C-19,522,62.3,416.3,169.7,412.2
		c28.9-1.1,57.8-0.4,86.7-0.4c178.3,0,356.6-0.1,534.9,0c61.8,0,109.5,33.2,127.9,88.6c26.5,79.8-31.7,165.4-115.7,167.4
		c-72.6,1.7-145.4,0.6-218,0.6c-99.2,0-198.4,0-297.6,0c-18.7,0-29.4-8.6-30.2-23.8c-0.8-14.2,8.9-25.7,23.2-27.2
		c4-0.4,8-0.2,12-0.2c167.1,0,334.1,0.1,501.2,0c42,0,73.5-27.1,79.3-67.4c6.2-43.4-27.8-84.4-71.9-86.7c-2-0.1-4-0.1-6-0.1
		c-204.8,0-409.6-0.2-614.4,0.1c-59.8,0.1-111,39.7-125.1,95.6c-21.3,83.9,40,161.1,128.8,161.4c107.6,0.4,215.2,0.1,322.9,0.1
		c112.4,0,224.9,0.2,337.3-0.1c81.5-0.2,150.6-49.6,174.7-124.5C1057.5,478.3,971,360.3,846.1,360c-174.3-0.4-348.6-0.1-522.9-0.1
		c-28.9,0-57.8,0.1-86.7,0c-18.6-0.1-30.2-9.7-30.6-25c-0.4-15.7,11.8-26.1,30.8-26.1c204,0,408-0.3,612,0.1
		c133.3,0.3,237.7,111.3,230.9,244.5c-6.1,119.1-106.8,216.2-226.2,218c-1.6,0-3.2,0.1-4.8,0.1C737.9,771.4,627,771.4,516.2,771.4z"
		/>
</g>
</svg>
