<?xml version="1.0" encoding="utf-8"?>
<!-- Generator: Adobe Illustrator 25.4.1, SVG Export Plug-In . SVG Version: 6.00 Build 0)  -->
<svg version="1.1" id="Layer_1" xmlns="http://www.w3.org/2000/svg" xmlns:xlink="http://www.w3.org/1999/xlink" x="0px" y="0px"
	 viewBox="0 0 20 20" style="enable-background:new 0 0 20 20;" xml:space="preserve">
<style type="text/css">
	.st0{fill:#3EAB6B;}
	.st1{fill:#4FB379;}
	.st2{fill:#68BE8B;}
	.st3{fill:#A5D8BA;}
	.st4{fill:#ADDCC1;}
	.st5{fill:#FEFEFE;}
	.st6{fill:#E8301F;}
</style>
<g>
	<path class="st6" d="M0,10C0,4.4,4.5,0,10,0c5.5,0,10,4.5,10,10c0,5.5-4.5,10-10,10C4.4,20,0,15.5,0,10z"/>
	<path class="st5" d="M7.2,13.8c-0.4,0-0.8-0.2-0.9-0.5c-0.1-0.4-0.1-0.7,0.2-1c0.7-0.7,1.4-1.4,2.1-2.1c0.2-0.2,0.2-0.2,0-0.4
		c-0.7-0.7-1.4-1.4-2-2C6.3,7.5,6.2,7.2,6.3,6.9c0.1-0.3,0.3-0.5,0.7-0.6c0.3-0.1,0.6,0,0.9,0.3c0.7,0.7,1.4,1.4,2.1,2.1
		c0.1,0.1,0.2,0.1,0.3,0c0.7-0.7,1.4-1.4,2.1-2.1c0.5-0.5,1.3-0.3,1.5,0.4c0.1,0.3,0,0.6-0.3,0.9c-0.7,0.7-1.4,1.4-2.1,2.1
		c-0.1,0.1-0.1,0.2,0,0.3c0.7,0.7,1.4,1.4,2.1,2.1c0.2,0.3,0.3,0.6,0.2,0.9c-0.1,0.3-0.3,0.5-0.7,0.6c-0.3,0.1-0.6,0-0.8-0.3
		c-0.7-0.7-1.4-1.4-2.1-2.1c-0.1-0.1-0.2-0.1-0.3,0c-0.7,0.7-1.4,1.4-2.1,2.1C7.6,13.7,7.4,13.8,7.2,13.8z"/>
</g>
</svg>
