<?xml version="1.0" encoding="utf-8"?>
<!-- Generator: Adobe Illustrator 25.4.1, SVG Export Plug-In . SVG Version: 6.00 Build 0)  -->
<svg version="1.1" id="Layer_1" xmlns="http://www.w3.org/2000/svg" xmlns:xlink="http://www.w3.org/1999/xlink" x="0px" y="0px"
	 viewBox="0 0 39.9 39.9" style="enable-background:new 0 0 39.9 39.9;" xml:space="preserve">
<style type="text/css">
	.st0{fill:#3247d5;}
	.st1{fill:#FFFFFF;}
	.st2{fill:#F40000;}
</style>
<g>
	<path class="st0" d="M25.6,23.5c-0.5-0.3-0.9-0.3-1.4-0.2c-0.5,0-0.8-0.2-0.9-0.6c0-0.1-0.1-0.3-0.2-0.4c-0.1-0.3-0.1-0.6,0.2-0.8
		c0.2-0.2,0.4-0.4,0.6-0.7c0.6-0.7,0.6-1.8,0-2.5c-0.7-0.7-1.4-1.5-2.1-2.1c-0.7-0.6-1.7-0.6-2.5,0c-0.2,0.2-0.5,0.4-0.7,0.6
		C18.2,17,18,17,17.7,16.9c-1-0.3-1-0.4-1.1-1.4c0-0.1,0-0.2,0-0.3c-0.1-1-0.8-1.8-1.8-1.8c-1,0-2,0-3,0c-0.6,0-1,0.3-1.4,0.7
		c-0.4,0.5-0.5,1.1-0.4,1.8c0,0.5-0.2,0.7-0.6,0.9c-0.1,0-0.2,0.1-0.3,0.1C8.7,17.1,8.3,17,8,16.6c-0.1-0.2-0.3-0.3-0.5-0.5
		c-0.8-0.6-1.8-0.7-2.6,0c-0.8,0.7-1.5,1.4-2.1,2.2c-0.6,0.7-0.6,1.8,0,2.5c0.2,0.2,0.4,0.4,0.6,0.6c0.2,0.2,0.3,0.4,0.2,0.6
		c-0.2,0.9-0.5,1.2-1.4,1.2c-0.1,0-0.2,0-0.4,0c-0.7,0.1-1.3,0.4-1.6,1.1c-0.1,0.2-0.2,0.3-0.2,0.5c0,1.1,0,2.3,0,3.4
		C0.2,29.4,1,30,2.1,30c0.2,0,0.4,0,0.6,0c0.2,0,0.3,0.1,0.5,0.3C3.7,31,3.6,31.4,3.1,32C3,32,3,32,3,32c-0.9,0.9-1,2.1-0.1,3.1
		c0.6,0.7,1.3,1.3,2,1.9c0.7,0.6,2,0.7,2.8,0c0.2-0.2,0.4-0.4,0.6-0.5c0.2-0.2,0.4-0.3,0.6-0.2c0.9,0.2,1,0.4,1,1.3c0,0,0,0.1,0,0.1
		c0,1.1,0.7,1.9,1.7,2.1c1.1,0,2.3,0,3.4,0c0.2-0.2,0.5-0.2,0.7-0.4c0.7-0.5,0.9-1.2,0.8-2.1c0-0.6,0.1-0.8,0.7-1
		c0.1,0,0.2-0.1,0.2-0.1c0.4-0.2,0.7-0.1,1,0.2c0.2,0.2,0.3,0.4,0.5,0.5c0.7,0.6,1.8,0.6,2.5,0c0.8-0.7,1.5-1.4,2.2-2.2
		c0.7-0.8,0.6-1.8,0-2.6c-0.2-0.2-0.4-0.4-0.6-0.6c-0.2-0.2-0.3-0.4-0.2-0.7c0.3-1,0.5-1.2,1.5-1.2c0.1,0,0.2,0,0.4,0
		c1-0.1,1.8-0.9,1.8-1.9c0-1,0-1.9,0-2.9C26.6,24.4,26.2,23.9,25.6,23.5z M25.3,27.8c0,0.5-0.2,0.8-0.8,0.8c-0.2,0-0.4,0-0.7,0
		c-0.6,0-1.1,0.3-1.5,0.7c-0.4,0.5-0.7,1.1-0.7,1.8c-0.1,0.6,0.2,1.1,0.6,1.5c0.2,0.2,0.4,0.3,0.5,0.5c0.3,0.3,0.3,0.6,0,0.9
		c-0.6,0.6-1.2,1.3-1.9,1.9c-0.3,0.3-0.6,0.3-0.9,0c-0.2-0.2-0.4-0.4-0.7-0.6c-0.5-0.4-1.2-0.6-1.8-0.4c-0.4,0.1-0.7,0.3-1.1,0.4
		c-0.7,0.4-1.1,1-1,1.8c0.1,1.3-0.3,1.3-1.3,1.3c-0.6,0-1.2,0-1.8,0c-0.6,0-0.8-0.2-0.8-0.8c0-0.2,0-0.4,0-0.6c0-0.4-0.1-0.7-0.3-1
		c-0.3-0.7-2.2-1.5-2.9-1.2c-0.5,0.2-0.8,0.4-1.1,0.8c-0.6,0.6-0.8,0.6-1.4,0c-0.5-0.5-1-1-1.5-1.5c-0.4-0.4-0.4-0.7,0-1.1
		c0.4-0.4,0.8-0.7,0.9-1.3c0.4-1.5-0.8-3.2-2.4-3.2c-0.1,0-0.3,0-0.4,0c-0.5,0-0.7-0.3-0.7-0.7c0-0.8,0-1.7,0-2.5
		c0-0.5,0.3-0.7,0.7-0.7c0.1,0,0.2,0,0.3,0c1.7,0.1,2.4-1.1,2.7-2.7c0-0.5-0.2-0.9-0.5-1.3c-0.2-0.2-0.4-0.4-0.6-0.6
		c-0.3-0.3-0.3-0.7,0-1c0.6-0.6,1.2-1.2,1.8-1.8c0.4-0.3,0.7-0.3,1.1,0.1c0.5,0.5,0.9,0.9,1.6,1c1.5,0.2,2.9-1,2.9-2.5
		c0-0.2,0-0.3,0-0.5c0-0.4,0.3-0.7,0.7-0.7c0.9,0,1.7,0,2.6,0c0.5,0,0.7,0.3,0.7,0.7c0,0.3,0,0.7,0,1c0.2,1.1,1,1.5,2,1.8
		c0.7,0.3,1.4,0.1,2-0.4c0.2-0.2,0.4-0.4,0.6-0.5c0.4-0.3,0.7-0.3,1,0c0.6,0.6,1.2,1.2,1.8,1.8c0.3,0.3,0.3,0.7,0,1
		c-0.1,0.2-0.3,0.3-0.4,0.4c-0.6,0.7-0.8,1.4-0.5,2.3c0.1,0.2,0.1,0.3,0.2,0.5c0.4,0.9,1.1,1.3,2,1.4c1.2,0,1.3,0.1,1.3,1.3
		C25.3,26.5,25.3,27.2,25.3,27.8z"/>
	<path class="st0" d="M39.9,16.1c0-1.3-0.8-2.1-2.1-2.1c-0.6,0-1.2,0-1.9,0c-0.4,0-0.6-0.2-0.7-0.5c-0.2-0.6-0.4-1.1-0.7-1.6
		c-0.2-0.4-0.1-0.6,0.2-0.9c0.4-0.4,0.9-0.9,1.3-1.3c0.9-0.9,0.9-2.1,0-3c-0.9-0.9-1.7-1.8-2.6-2.6c-0.9-0.9-2.1-0.9-3,0
		c-0.4,0.4-0.9,0.9-1.3,1.3c-0.3,0.3-0.6,0.3-0.9,0.2c-0.5-0.3-1.1-0.5-1.6-0.7c-0.3-0.1-0.5-0.4-0.5-0.7c0-0.6,0-1.3,0-1.9
		c0-1.2-0.9-2.1-2.1-2.1c-0.6,0-1.2,0-1.9,0c0,0,0,0,0,0c-0.7,0-1.4,0-2,0c-1.1,0-1.9,0.7-2,1.8c-0.1,0.7,0,1.4,0,2.1
		c0,0.4-0.2,0.7-0.6,0.8c-0.5,0.2-1.1,0.4-1.6,0.7c-0.4,0.2-0.7,0.1-0.9-0.2c-0.4-0.4-0.9-0.9-1.3-1.3c-0.9-0.9-2.1-0.9-3,0
		C9.7,4.8,8.8,5.7,7.9,6.6C7,7.5,7,8.7,7.9,9.6c0.6,0.7,1.3,1.3,2,2c0.1,0.1,0.2,0.2,0.3,0.2c0.3,0.2,0.6,0.1,0.8-0.1
		c0.2-0.2,0.3-0.5,0.1-0.8c-0.1-0.1-0.2-0.2-0.3-0.3c-0.6-0.6-1.3-1.2-1.9-1.9c-0.4-0.4-0.4-0.8,0-1.2c0.9-0.9,1.7-1.7,2.6-2.6
		c0.4-0.4,0.7-0.4,1.2,0c0.4,0.4,0.9,0.9,1.3,1.3c0.7,0.7,1.4,0.8,2.3,0.4c0.5-0.2,1-0.4,1.5-0.6c1-0.4,1.4-1,1.4-2.1
		c0-0.6,0-1.2,0-1.8c0-0.6,0.2-0.9,0.8-0.9c1.2,0,2.4,0,3.6,0c0.6,0,0.8,0.2,0.9,0.9c0,0.6,0,1.2,0,1.8c0,1,0.5,1.6,1.4,2
		c0.5,0.2,1,0.4,1.5,0.6c0.9,0.4,1.7,0.3,2.4-0.4c0.4-0.4,0.9-0.9,1.3-1.3c0.4-0.4,0.7-0.4,1.2,0c0.9,0.9,1.7,1.7,2.6,2.6
		c0.4,0.4,0.4,0.7,0,1.2c-0.5,0.5-0.9,0.9-1.4,1.4c-0.6,0.6-0.7,1.4-0.4,2.2c0.2,0.6,0.5,1.1,0.7,1.7c0.3,0.9,1,1.3,1.9,1.3
		c0.6,0,1.2,0,1.8,0c0.7,0,0.9,0.2,0.9,0.9c0,1.2,0,2.4,0,3.5c0,0.6-0.2,0.9-0.9,0.9c-0.6,0-1.2,0-1.8,0c-1,0-1.6,0.5-2,1.4
		c-0.2,0.5-0.4,1-0.6,1.5c-0.4,0.9-0.3,1.7,0.5,2.4c0.4,0.4,0.8,0.8,1.2,1.2c0.5,0.5,0.5,0.8,0,1.3c-0.8,0.8-1.7,1.7-2.5,2.5
		c-0.5,0.5-0.8,0.5-1.3,0c-0.6-0.6-1.2-1.2-1.8-1.8c-0.1-0.1-0.1-0.1-0.2-0.2c-0.3-0.3-0.7-0.3-1,0c-0.3,0.3-0.3,0.7,0,1
		c0.7,0.7,1.4,1.5,2.2,2.2c0.9,0.8,2,0.7,2.8-0.1c0.9-0.9,1.8-1.8,2.7-2.7c0.9-0.9,0.9-2.1,0-3c-0.4-0.4-0.8-0.8-1.2-1.2
		c-0.4-0.4-0.4-0.5-0.2-1c0.2-0.5,0.4-1,0.6-1.5c0.1-0.4,0.4-0.6,0.8-0.6c0.6,0,1.2,0,1.8,0c1.3,0,2.1-0.8,2.1-2.2
		C39.9,18.6,39.9,17.3,39.9,16.1z"/>
	<path class="st0" d="M30.4,16.4c-0.7-4.1-4.3-7-8.5-7.1c-1.4,0-2.8,0.3-4,1c-0.8,0.4-1.5,0.9-2.1,1.5c-0.3,0.3-0.3,0.6-0.1,0.9
		c0.2,0.3,0.5,0.3,0.8,0.2c0.1-0.1,0.3-0.2,0.4-0.3c1.7-1.5,3.7-2.2,5.9-2c4.5,0.5,7.5,5.2,6.1,9.5c-0.4,1.1-1,2.1-1.8,3
		c-0.3,0.3-0.3,0.7,0,1c0.3,0.2,0.7,0.2,1-0.1C30.2,21.9,31,19.3,30.4,16.4z"/>
	<path class="st0" d="M13.3,20.6c-3.1-0.1-5.9,2.6-6,5.7c-0.1,3.4,2.5,6.2,5.9,6.2c3.1,0,6-2,6.1-5.9C19.4,23.4,16.7,20.7,13.3,20.6
		z M13.3,31.3c-2.6,0-4.7-2-4.7-4.6c0-2.6,2-4.7,4.6-4.7c2.6,0,4.6,2.1,4.7,4.7C17.9,29.2,15.9,31.3,13.3,31.3z"/>
</g>
</svg>
