<svg width="22" height="21" viewBox="0 0 22 21" fill="none" xmlns="http://www.w3.org/2000/svg">
<path d="M20.7099 1.28994C20.617 1.19621 20.5064 1.12182 20.3845 1.07105C20.2627 1.02028 20.132 0.994141 19.9999 0.994141C19.8679 0.994141 19.7372 1.02028 19.6154 1.07105C19.4935 1.12182 19.3829 1.19621 19.2899 1.28994L17.1699 3.40994L16.4599 2.70994C16.2726 2.52369 16.0191 2.41915 15.7549 2.41915C15.4908 2.41915 15.2373 2.52369 15.0499 2.70994L13.6399 4.11994L12.9299 3.40994C12.837 3.31621 12.7264 3.24182 12.6045 3.19105C12.4827 3.14028 12.352 3.11414 12.2199 3.11414C12.0879 3.11414 11.9572 3.14028 11.8354 3.19105C11.7135 3.24182 11.6029 3.31621 11.5099 3.40994L3.73994 11.1899L2.99994 10.4899C2.80585 10.3543 2.56991 10.2919 2.33414 10.3139C2.09837 10.3359 1.87806 10.4409 1.71243 10.6101C1.5468 10.7794 1.4466 11.0019 1.42966 11.2381C1.41273 11.4743 1.48015 11.7088 1.61994 11.8999L5.14994 15.4399L3.41994 17.1799L2.70994 16.4599C2.52164 16.2716 2.26624 16.1658 1.99994 16.1658C1.73364 16.1658 1.47824 16.2716 1.28994 16.4599C1.10164 16.6482 0.99585 16.9036 0.99585 17.1699C0.99585 17.4362 1.10164 17.6916 1.28994 17.8799L4.11994 20.7099C4.21338 20.8026 4.3242 20.8759 4.44603 20.9257C4.56787 20.9755 4.69833 21.0007 4.82994 20.9999C4.96155 21.0007 5.09201 20.9755 5.21385 20.9257C5.33569 20.8759 5.4465 20.8026 5.53994 20.7099C5.63367 20.617 5.70806 20.5064 5.75883 20.3845C5.8096 20.2627 5.83574 20.132 5.83574 19.9999C5.83574 19.8679 5.8096 19.7372 5.75883 19.6154C5.70806 19.4935 5.63367 19.3829 5.53994 19.2899L4.82994 18.5899L6.56994 16.8499L10.0999 20.3799C10.1926 20.4744 10.303 20.5496 10.4249 20.6011C10.5468 20.6526 10.6776 20.6794 10.8099 20.6799C11.0077 20.6791 11.2008 20.6197 11.3648 20.5091C11.5288 20.3985 11.6563 20.2418 11.7312 20.0588C11.8061 19.8758 11.8251 19.6746 11.7857 19.4808C11.7463 19.287 11.6504 19.1092 11.5099 18.9699L10.8099 18.2599L18.5899 10.4899C18.6837 10.397 18.7581 10.2864 18.8088 10.1645C18.8596 10.0427 18.8857 9.91195 18.8857 9.77994C18.8857 9.64793 18.8596 9.51722 18.8088 9.39536C18.7581 9.2735 18.6837 9.1629 18.5899 9.06994L17.8799 8.35994L19.2899 6.99994C19.4762 6.81258 19.5807 6.55912 19.5807 6.29494C19.5807 6.03075 19.4762 5.7773 19.2899 5.58994L18.5899 4.87994L20.7099 2.75994C20.8114 2.6663 20.8925 2.55264 20.9479 2.42615C21.0033 2.29965 21.0319 2.16304 21.0319 2.02494C21.0319 1.88684 21.0033 1.75023 20.9479 1.62373C20.8925 1.49723 20.8114 1.38358 20.7099 1.28994ZM6.56994 13.9999L5.14994 12.6099L6.55994 11.1899L7.99994 12.6099L6.56994 13.9999ZM9.38994 16.8299L7.99994 15.4399L9.38994 13.9999L10.8099 15.4199L9.38994 16.8299ZM12.2199 13.9999L7.99994 9.77994L12.2399 5.53994L12.9499 6.23994L16.4799 9.77994L12.2199 13.9999ZM16.4599 6.99994L15.0499 5.53994L15.7599 4.82994L16.4599 5.52994L17.1599 6.22994L16.4599 6.99994Z" fill="white"/>
</svg>
