<?xml version="1.0" encoding="utf-8"?>
<!-- Generator: Adobe Illustrator 25.4.1, SVG Export Plug-In . SVG Version: 6.00 Build 0)  -->
<svg version="1.1" id="Layer_1" xmlns="http://www.w3.org/2000/svg" xmlns:xlink="http://www.w3.org/1999/xlink" x="0px" y="0px"
	 viewBox="0 0 40 40" style="enable-background:new 0 0 40 40;" xml:space="preserve">
<style type="text/css">
	.st0{fill:#3247d5;}
</style>
<g>
	<path class="st0" d="M36.48,5.86c-0.13-0.01-0.27-0.01-0.41-0.01c-2.3,0-4.6-0.01-6.91,0.01c-0.29,0-0.39-0.07-0.38-0.37
		c0.02-0.5,0.01-0.99,0-1.49c-0.04-2.17-1.75-3.91-3.91-3.93c-2.93-0.02-5.87-0.02-8.8,0c-1.9,0.01-3.49,1.4-3.83,3.27
		c-0.13,0.7-0.06,1.41-0.06,2.12c0,0.31-0.07,0.41-0.39,0.4C9.9,5.85,8.01,5.85,6.11,5.85c-0.53,0-1.05-0.02-1.58,0.01
		C3.97,5.89,3.54,6.35,3.52,6.89C3.5,7.41,3.87,7.9,4.39,8c0.19,0.04,0.39,0.04,0.58,0.02c0.3-0.03,0.41,0.07,0.43,0.39
		c0.38,4.84,0.77,9.67,1.16,14.51c0.34,4.31,0.68,8.62,1.03,12.93c0.2,2.55,1.81,4.03,4.35,4.03c2.84,0,5.69,0,8.53,0
		c2.95,0,5.9,0.01,8.85,0c2.11-0.01,3.76-1.49,4-3.59c0.09-0.75,0.13-1.5,0.19-2.25c0.38-4.64,0.76-9.28,1.14-13.92
		c0.3-3.71,0.6-7.42,0.9-11.13c0.02-0.29-0.05-0.63,0.09-0.84c0.17-0.26,0.55-0.08,0.84-0.11c0.57-0.07,1-0.54,0.99-1.1
		C37.46,6.38,37.04,5.92,36.48,5.86z M14.34,5.45c0.03-0.48,0-0.96,0.01-1.45c0.03-0.98,0.78-1.76,1.76-1.76
		c2.92-0.02,5.83-0.01,8.75,0c1,0,1.74,0.79,1.77,1.8c0.01,0.47-0.02,0.94,0.01,1.4c0.02,0.33-0.07,0.43-0.42,0.43
		c-1.91-0.02-3.82-0.01-5.73-0.01c-1.91,0-3.82-0.01-5.73,0.01C14.45,5.86,14.32,5.8,14.34,5.45z M33.48,8.48
		c-0.25,2.78-0.47,5.55-0.7,8.33c-0.26,3.11-0.52,6.22-0.78,9.32c-0.19,2.34-0.38,4.69-0.58,7.03c-0.08,0.93-0.13,1.86-0.24,2.79
		c-0.13,1.14-0.83,1.74-1.97,1.74c-5.07,0-10.14,0-15.21,0c-0.77,0-1.54,0-2.3,0c-1.05-0.01-1.78-0.63-1.88-1.68
		c-0.2-2.02-0.35-4.05-0.52-6.08c-0.23-2.78-0.46-5.56-0.69-8.33c-0.19-2.34-0.38-4.69-0.58-7.03C7.86,12.55,7.7,10.52,7.51,8.5
		C7.48,8.13,7.53,8.01,7.94,8.02c4.18,0.02,8.37,0.01,12.55,0.01s8.37,0,12.55-0.01C33.41,8.02,33.51,8.09,33.48,8.48z"/>
	<path class="st0" d="M15.8,19.02c0-1.11,0-2.23,0-3.34c0-0.48-0.21-0.84-0.65-1.04c-0.41-0.18-0.79-0.11-1.13,0.18
		c-0.31,0.27-0.38,0.62-0.38,1.02c0.01,3.47,0,6.93,0,10.4c0,1.27,0,2.53,0,3.8c0,0.5,0.21,0.87,0.68,1.07
		c0.73,0.32,1.48-0.23,1.49-1.09c0.01-2.37,0-4.73,0-7.1C15.8,21.62,15.8,20.32,15.8,19.02z"/>
	<path class="st0" d="M21.58,17.75c0-0.71,0.01-1.42-0.01-2.12c-0.02-0.63-0.5-1.09-1.09-1.08c-0.58,0.01-1.03,0.46-1.07,1.07
		c-0.01,0.14,0,0.27,0,0.41c0,3.99,0,7.99,0,11.98c0,0.68,0,1.36,0,2.03c0,0.43,0.16,0.76,0.52,0.99c0.35,0.22,0.72,0.23,1.07,0.03
		c0.4-0.23,0.58-0.59,0.58-1.05c0-2.38,0-4.76,0-7.14C21.58,21.16,21.58,19.46,21.58,17.75z"/>
	<path class="st0" d="M27.36,18.89c0-1.07,0-2.14,0-3.21c0-0.48-0.22-0.84-0.66-1.04c-0.41-0.18-0.79-0.11-1.13,0.18
		c-0.31,0.27-0.38,0.62-0.38,1.02c0.01,3.62,0,7.23,0,10.85c0,1.11,0,2.23,0,3.34c0,0.5,0.22,0.87,0.68,1.07
		c0.74,0.32,1.48-0.23,1.48-1.09c0.01-2.38,0-4.76,0-7.14C27.36,21.54,27.36,20.21,27.36,18.89z"/>
</g>
</svg>
