<svg width="40" height="40" viewBox="0 0 40 40" fill="none" xmlns="http://www.w3.org/2000/svg">
<path d="M36.48 5.85993C36.35 5.84993 36.21 5.84993 36.07 5.84993C33.77 5.84993 31.47 5.83993 29.16 5.85993C28.87 5.85993 28.77 5.78993 28.78 5.48993C28.8 4.98993 28.79 4.49993 28.78 3.99993C28.74 1.82993 27.03 0.0899316 24.87 0.0699316C21.94 0.0499316 19 0.0499316 16.07 0.0699316C14.17 0.0799316 12.58 1.46993 12.24 3.33993C12.11 4.03993 12.18 4.74993 12.18 5.45993C12.18 5.76993 12.11 5.86993 11.79 5.85993C9.9 5.84993 8.01 5.84993 6.11 5.84993C5.58 5.84993 5.06 5.82993 4.53 5.85993C3.97 5.88993 3.54 6.34993 3.52 6.88993C3.5 7.40993 3.87 7.89993 4.39 7.99993C4.58 8.03993 4.78 8.03993 4.97 8.01993C5.27 7.98993 5.38 8.08993 5.4 8.40993C5.78 13.2499 6.17 18.0799 6.56 22.9199C6.9 27.2299 7.24 31.5399 7.59 35.8499C7.79 38.3999 9.4 39.8799 11.94 39.8799C14.78 39.8799 17.63 39.8799 20.47 39.8799C23.42 39.8799 26.37 39.8899 29.32 39.8799C31.43 39.8699 33.08 38.3899 33.32 36.2899C33.41 35.5399 33.45 34.7899 33.51 34.0399C33.89 29.3999 34.27 24.7599 34.65 20.1199C34.95 16.4099 35.25 12.6999 35.55 8.98993C35.57 8.69993 35.5 8.35993 35.64 8.14993C35.81 7.88993 36.19 8.06993 36.48 8.03993C37.05 7.96993 37.48 7.49993 37.47 6.93993C37.46 6.37993 37.04 5.91993 36.48 5.85993ZM14.34 5.44993C14.37 4.96993 14.34 4.48993 14.35 3.99993C14.38 3.01993 15.13 2.23993 16.11 2.23993C19.03 2.21993 21.94 2.22993 24.86 2.23993C25.86 2.23993 26.6 3.02993 26.63 4.03993C26.64 4.50993 26.61 4.97993 26.64 5.43993C26.66 5.76993 26.57 5.86993 26.22 5.86993C24.31 5.84993 22.4 5.85993 20.49 5.85993C18.58 5.85993 16.67 5.84993 14.76 5.86993C14.45 5.85993 14.32 5.79993 14.34 5.44993ZM33.48 8.47993C33.23 11.2599 33.01 14.0299 32.78 16.8099C32.52 19.9199 32.26 23.0299 32 26.1299C31.81 28.4699 31.62 30.8199 31.42 33.1599C31.34 34.0899 31.29 35.0199 31.18 35.9499C31.05 37.0899 30.35 37.6899 29.21 37.6899C24.14 37.6899 19.07 37.6899 14 37.6899C13.23 37.6899 12.46 37.6899 11.7 37.6899C10.65 37.6799 9.92 37.0599 9.82 36.0099C9.62 33.9899 9.47 31.9599 9.3 29.9299C9.07 27.1499 8.84 24.3699 8.61 21.5999C8.42 19.2599 8.23 16.9099 8.03 14.5699C7.86 12.5499 7.7 10.5199 7.51 8.49993C7.48 8.12993 7.53 8.00993 7.94 8.01993C12.12 8.03993 16.31 8.02993 20.49 8.02993C24.67 8.02993 28.86 8.02993 33.04 8.01993C33.41 8.01993 33.51 8.08993 33.48 8.47993Z" fill="#7E7E7E"/>
<path d="M15.8 19.0199C15.8 17.9099 15.8 16.7899 15.8 15.6799C15.8 15.1999 15.59 14.8399 15.15 14.6399C14.74 14.4599 14.36 14.5299 14.02 14.8199C13.71 15.0899 13.64 15.4399 13.64 15.8399C13.65 19.3099 13.64 22.7699 13.64 26.2399C13.64 27.5099 13.64 28.7699 13.64 30.0399C13.64 30.5399 13.85 30.9099 14.32 31.1099C15.05 31.4299 15.8 30.8799 15.81 30.0199C15.82 27.6499 15.81 25.2899 15.81 22.9199C15.8 21.6199 15.8 20.3199 15.8 19.0199Z" fill="#7E7E7E"/>
<path d="M21.58 17.75C21.58 17.04 21.59 16.33 21.57 15.63C21.55 15 21.07 14.54 20.48 14.55C19.9 14.56 19.45 15.01 19.41 15.62C19.4 15.76 19.41 15.89 19.41 16.03C19.41 20.02 19.41 24.02 19.41 28.01C19.41 28.69 19.41 29.37 19.41 30.04C19.41 30.47 19.57 30.8 19.93 31.03C20.28 31.25 20.65 31.26 21 31.06C21.4 30.83 21.58 30.47 21.58 30.01C21.58 27.63 21.58 25.25 21.58 22.87C21.58 21.16 21.58 19.46 21.58 17.75Z" fill="#7E7E7E"/>
<path d="M27.36 18.8899C27.36 17.8199 27.36 16.7499 27.36 15.6799C27.36 15.1999 27.14 14.8399 26.7 14.6399C26.29 14.4599 25.91 14.5299 25.57 14.8199C25.26 15.0899 25.19 15.4399 25.19 15.8399C25.2 19.4599 25.19 23.0699 25.19 26.6899C25.19 27.7999 25.19 28.9199 25.19 30.0299C25.19 30.5299 25.41 30.8999 25.87 31.0999C26.61 31.4199 27.35 30.8699 27.35 30.0099C27.36 27.6299 27.35 25.2499 27.35 22.8699C27.36 21.5399 27.36 20.2099 27.36 18.8899Z" fill="#7E7E7E"/>
</svg>
