<svg width="11" height="12" viewBox="0 0 11 12" fill="none" xmlns="http://www.w3.org/2000/svg">
<path d="M4.2 9.6C4.35913 9.6 4.51174 9.53679 4.62426 9.42426C4.73679 9.31174 4.8 9.15913 4.8 9V5.4C4.8 5.24087 4.73679 5.08826 4.62426 4.97574C4.51174 4.86321 4.35913 4.8 4.2 4.8C4.04087 4.8 3.88826 4.86321 3.77574 4.97574C3.66321 5.08826 3.6 5.24087 3.6 5.4V9C3.6 9.15913 3.66321 9.31174 3.77574 9.42426C3.88826 9.53679 4.04087 9.6 4.2 9.6ZM10.2 2.4H7.8V1.8C7.8 1.32261 7.61036 0.864773 7.27279 0.527208C6.93523 0.189642 6.47739 0 6 0H4.8C4.32261 0 3.86477 0.189642 3.52721 0.527208C3.18964 0.864773 3 1.32261 3 1.8V2.4H0.6C0.44087 2.4 0.288258 2.46321 0.175736 2.57574C0.0632141 2.68826 0 2.84087 0 3C0 3.15913 0.0632141 3.31174 0.175736 3.42426C0.288258 3.53679 0.44087 3.6 0.6 3.6H1.2V10.2C1.2 10.6774 1.38964 11.1352 1.72721 11.4728C2.06477 11.8104 2.52261 12 3 12H7.8C8.27739 12 8.73523 11.8104 9.07279 11.4728C9.41036 11.1352 9.6 10.6774 9.6 10.2V3.6H10.2C10.3591 3.6 10.5117 3.53679 10.6243 3.42426C10.7368 3.31174 10.8 3.15913 10.8 3C10.8 2.84087 10.7368 2.68826 10.6243 2.57574C10.5117 2.46321 10.3591 2.4 10.2 2.4ZM4.2 1.8C4.2 1.64087 4.26321 1.48826 4.37574 1.37574C4.48826 1.26321 4.64087 1.2 4.8 1.2H6C6.15913 1.2 6.31174 1.26321 6.42426 1.37574C6.53679 1.48826 6.6 1.64087 6.6 1.8V2.4H4.2V1.8ZM8.4 10.2C8.4 10.3591 8.33679 10.5117 8.22427 10.6243C8.11174 10.7368 7.95913 10.8 7.8 10.8H3C2.84087 10.8 2.68826 10.7368 2.57574 10.6243C2.46321 10.5117 2.4 10.3591 2.4 10.2V3.6H8.4V10.2ZM6.6 9.6C6.75913 9.6 6.91174 9.53679 7.02426 9.42426C7.13679 9.31174 7.2 9.15913 7.2 9V5.4C7.2 5.24087 7.13679 5.08826 7.02426 4.97574C6.91174 4.86321 6.75913 4.8 6.6 4.8C6.44087 4.8 6.28826 4.86321 6.17574 4.97574C6.06321 5.08826 6 5.24087 6 5.4V9C6 9.15913 6.06321 9.31174 6.17574 9.42426C6.28826 9.53679 6.44087 9.6 6.6 9.6Z" fill="#FF0000"/>
</svg>
