<?xml version="1.0" encoding="utf-8"?>
<!-- Generator: Adobe Illustrator 25.4.1, SVG Export Plug-In . SVG Version: 6.00 Build 0)  -->
<svg version="1.1" id="Layer_1" xmlns="http://www.w3.org/2000/svg" xmlns:xlink="http://www.w3.org/1999/xlink" x="0px" y="0px"
	 viewBox="0 0 40 40" style="enable-background:new 0 0 40 40;" xml:space="preserve">
<style type="text/css">
	.st0{fill:#3247d5;}
</style>
<g>
	<path class="st0" d="M6.97,36.2c1.52,0.01,3.04,0.01,4.56,0c0.37,0,0.61-0.27,0.62-0.6c0-0.32-0.26-0.59-0.61-0.62
		c-0.13-0.01-0.26,0-0.38,0c-0.46,0-0.92,0-1.39,0c0.09-0.12,0.18-0.18,0.28-0.23c1.78-0.9,3.55-1.8,5.33-2.69
		c0.32-0.16,0.56-0.37,0.77-0.66c3.2-4.56,6.41-9.11,9.62-13.66c0.36-0.52,0.38-0.85,0.04-1.1c-0.35-0.26-0.68-0.14-1.06,0.4
		c-2.79,3.96-5.58,7.91-8.37,11.87c-0.07,0.11-0.11,0.25-0.28,0.29c-0.31-0.5-0.78-0.78-1.35-0.95c0.09-0.14,0.15-0.23,0.22-0.33
		c2.44-3.47,4.89-6.93,7.33-10.4c1.3-1.84,2.59-3.67,3.88-5.51c0.14-0.2,0.24-0.25,0.44-0.08c0.28,0.22,0.57,0.43,0.88,0.62
		c0.22,0.14,0.26,0.24,0.09,0.47c-0.51,0.69-1,1.39-1.48,2.1c-0.22,0.33-0.16,0.68,0.13,0.88c0.29,0.2,0.63,0.14,0.88-0.16
		c0.06-0.07,0.1-0.15,0.16-0.22c1.06-1.5,2.12-3.01,3.18-4.51c0.88-1.25,1.77-2.5,2.64-3.76c0.57-0.82,0.74-1.7,0.22-2.63
		c-0.23-0.41-0.55-0.73-0.91-1.03c-0.86-0.71-1.8-1.3-2.7-1.96c-0.77-0.56-1.57-1.08-2.51-1.34c-0.26,0-0.51,0-0.77,0
		c-0.84,0.24-1.4,0.82-1.88,1.52C19.12,9.6,13.69,17.32,8.24,25.03c-0.43,0.61-0.79,1.21-0.8,1.98c0,0.15-0.03,0.31-0.05,0.46
		c-0.34,2.67-0.68,5.34-1.02,8.02C6.32,35.89,6.56,36.2,6.97,36.2z M24.61,12.08c-3.57,5.06-7.14,10.13-10.7,15.19
		c-0.05,0.07-0.11,0.14-0.17,0.23c-0.33-0.44-0.72-0.77-1.24-0.93c-0.28-0.09-0.03-0.23,0.02-0.3c0.81-1.16,1.63-2.32,2.44-3.48
		c2.92-4.14,5.85-8.29,8.76-12.44c0.19-0.27,0.32-0.33,0.57-0.1c0.32,0.29,0.92,0.43,0.97,0.79C25.3,11.36,24.85,11.74,24.61,12.08z
		 M25.03,3.37c0.3-0.4,0.57-0.82,0.88-1.21c0.47-0.6,0.87-0.69,1.58-0.38c0.09,0.04,0.19,0.08,0.28,0.13
		c1.38,0.86,2.7,1.79,3.97,2.8c0.35,0.28,0.66,0.62,0.66,1.01c-0.02,0.36-0.1,0.59-0.24,0.79c-0.29,0.42-0.59,0.84-0.87,1.26
		c-0.11,0.17-0.19,0.15-0.33,0.05c-1.95-1.38-3.9-2.76-5.85-4.13C24.95,3.59,24.91,3.53,25.03,3.37z M22.39,7.1
		c0.56-0.78,1.11-1.56,1.66-2.34c0.04-0.06,0.09-0.11,0.14-0.18c0.08,0.06,0.15,0.1,0.21,0.14c1.94,1.37,3.88,2.73,5.82,4.1
		c0.16,0.11,0.17,0.19,0.06,0.35c-0.56,0.78-1.11,1.56-1.66,2.35c-0.1,0.14-0.16,0.18-0.32,0.07c-1.95-1.38-3.9-2.75-5.85-4.12
		C22.3,7.35,22.27,7.27,22.39,7.1z M12.63,20.97c2.89-4.1,5.79-8.2,8.67-12.31c0.19-0.27,0.31-0.33,0.57-0.1
		c0.25,0.22,0.53,0.4,0.81,0.58c0.2,0.12,0.25,0.21,0.09,0.44c-3.8,5.37-7.58,10.75-11.37,16.12c-0.02,0.03-0.05,0.06-0.1,0.12
		c-0.35-0.51-0.79-0.84-1.4-0.98C10.83,23.51,11.73,22.24,12.63,20.97z M8.16,31.25c0.2-1.52,0.38-3.04,0.57-4.56
		c0.05-0.42,0.38-0.67,0.84-0.64c0.44,0.03,0.77,0.39,0.77,0.87c0.01,0.15-0.05,0.3-0.13,0.45c-0.19,0.38-0.14,0.69,0.14,0.88
		c0.28,0.19,0.6,0.14,0.88-0.17c0.25-0.28,0.55-0.41,0.92-0.3c0.34,0.1,0.53,0.34,0.61,0.68c0.05,0.23-0.03,0.42-0.13,0.62
		c-0.19,0.37-0.13,0.69,0.15,0.88c0.28,0.19,0.59,0.13,0.88-0.18c0.32-0.34,0.67-0.42,1.03-0.26c0.34,0.15,0.52,0.49,0.49,0.87
		c-0.02,0.25-0.12,0.43-0.36,0.54c-1.38,0.69-2.76,1.39-4.13,2.09c-0.17,0.09-0.29,0.08-0.45-0.04c-0.63-0.46-1.27-0.91-1.91-1.34
		C8.17,31.54,8.14,31.44,8.16,31.25z M7.96,32.9c0.44,0.3,0.82,0.57,1.25,0.87c-0.49,0.25-0.95,0.48-1.45,0.74
		C7.82,33.96,7.89,33.46,7.96,32.9z"/>
	<path class="st0" d="M32.59,38.4c-8.46,0-16.92,0-25.38,0c-0.37,0-0.7,0.05-0.82,0.47c-0.11,0.38,0.13,0.59,0.41,0.77
		c8.74,0,17.49,0,26.23,0c0.27-0.22,0.49-0.46,0.35-0.84C33.24,38.43,32.93,38.4,32.59,38.4z"/>
	<path class="st0" d="M32.5,34.97c-6.22,0-12.44,0-18.66,0c-0.09,0-0.18,0-0.27,0c-0.4,0.02-0.68,0.28-0.67,0.64
		c0.01,0.34,0.27,0.58,0.66,0.6c0.11,0.01,0.23,0,0.34,0c3.08,0,6.16,0,9.24,0c3.12,0,6.23,0,9.35,0c0.13,0,0.26,0,0.38-0.01
		c0.32-0.03,0.51-0.23,0.54-0.54c0.03-0.34-0.14-0.57-0.46-0.65C32.81,34.96,32.65,34.97,32.5,34.97z"/>
</g>
</svg>
