<svg width="1034" height="383" viewBox="0 0 1034 383" fill="none" xmlns="http://www.w3.org/2000/svg">
<path d="M99.46 372.57V204.24L124.71 187.41V128.5L145.28 117.28V92.96H149.96L153.7 372.57H175.21V76.13L180.82 69.58V372.57H188.3V63.04L193.91 57.43V372.57H202.33V62.1L230.38 82.68L235.99 382.85H0.339996V374.44L99.46 372.57Z" fill="#3247D5"/>
<path d="M334.18 374.44L333.25 360.41L310.8 345.45L311.74 334.23L332.31 348.25L333.25 340.77L309.87 323.94L310.8 315.52L334.18 331.42L335.12 320.2L310.8 299.63V292.15L334.18 309.91L333.25 297.76L310.8 281.86V273.44L335.12 289.34V277.18L311.74 261.29L310.8 251L333.25 268.77L336.05 256.61L310.8 241.65V230.43L334.18 246.32L333.25 234.17L308.93 220.14V207.98L333.25 227.62L335.12 212.66L311.74 199.57V189.75L333.25 205.18L334.18 189.75L290.23 161.23V375.37H265.92V178.99L290.23 161.23L291.16 65.84L204.2 0.380005V45.27L247.21 77.06V379.11H1033.66V371.63L334.18 374.44Z" fill="#3247D5"/>
<path d="M447.162 244.029H420.955V234.437C414.103 242.316 405.71 246.085 396.461 246.085C376.077 246.085 359.805 230.669 359.805 202.578C359.805 175.514 375.735 159.242 396.461 159.242C405.539 159.242 414.274 162.839 420.955 171.061V129.781H447.162V244.029ZM405.025 222.79C410.677 222.79 417.529 219.707 420.955 215.253V189.903C417.529 185.449 410.677 182.537 405.025 182.537C394.576 182.537 386.868 190.245 386.868 202.578C386.868 214.91 394.576 222.79 405.025 222.79ZM479.675 153.932C471.282 153.932 464.602 147.081 464.602 138.688C464.602 130.295 471.282 123.614 479.675 123.614C488.068 123.614 494.749 130.295 494.749 138.688C494.749 147.081 488.068 153.932 479.675 153.932ZM492.864 244.029H466.486V161.298H492.864V244.029ZM546.413 277.602C532.196 277.602 520.377 274.005 509.758 265.269L521.234 246.427C527.571 253.279 536.821 256.019 546.413 256.019C555.149 256.019 567.481 252.422 567.481 237.007V230.669C560.63 238.719 552.408 242.659 542.987 242.659C522.775 242.659 506.503 228.785 506.503 200.865C506.503 173.63 522.262 159.242 542.987 159.242C552.237 159.242 560.801 162.839 567.481 171.061V161.298H593.688V236.664C593.688 270.408 566.967 277.602 546.413 277.602ZM551.723 219.364C557.204 219.364 564.227 216.452 567.481 211.999V189.903C564.227 185.449 557.204 182.537 551.723 182.537C541.274 182.537 533.566 188.875 533.566 200.865C533.566 213.026 541.274 219.364 551.723 219.364ZM626.206 153.932C617.813 153.932 611.133 147.081 611.133 138.688C611.133 130.295 617.813 123.614 626.206 123.614C634.599 123.614 641.279 130.295 641.279 138.688C641.279 147.081 634.599 153.932 626.206 153.932ZM639.395 244.029H613.017V161.298H639.395V244.029ZM688.662 244.029H659.2V129.781H742.96V155.474H688.662V173.288H741.761V198.981H688.662V244.029ZM888.559 244.029H859.098V169.691L830.15 244.029H817.132L788.356 169.691V244.029H758.895V129.781H799.832L823.641 191.787L847.621 129.781H888.559V244.029ZM951.585 246.085C928.461 246.085 912.36 238.891 900.884 227.928L916.471 205.832C924.693 214.054 937.368 220.906 952.955 220.906C963.061 220.906 969.227 216.966 969.227 211.485C969.227 195.898 904.481 208.402 904.481 164.381C904.481 145.197 920.753 128.068 950.043 128.068C968.371 128.068 984.3 133.549 996.462 143.998L980.361 165.066C970.769 157.187 958.265 153.247 946.96 153.247C938.396 153.247 934.627 156.673 934.627 161.469C934.627 176.028 999.202 165.409 999.202 207.888C999.202 230.84 982.245 246.085 951.585 246.085Z" fill="#3247D5"/>
<path d="M376.054 344H372.813V317.955H389.878V320.844H376.054V329.24H389.605V332.129H376.054V344ZM408.887 344H405.959V341.853C404.397 343.571 402.249 344.469 399.711 344.469C396.509 344.469 393.111 342.321 393.111 338.221C393.111 334.004 396.509 332.012 399.711 332.012C402.288 332.012 404.436 332.832 405.959 334.59V331.192C405.959 328.654 403.928 327.209 401.195 327.209C398.93 327.209 397.094 328.029 395.415 329.826L394.049 327.795C396.079 325.686 398.5 324.671 401.585 324.671C405.568 324.671 408.887 326.467 408.887 331.036V344ZM400.765 342.36C402.835 342.36 404.826 341.579 405.959 340.017V336.464C404.826 334.902 402.835 334.121 400.765 334.121C398.032 334.121 396.118 335.839 396.118 338.26C396.118 340.642 398.032 342.36 400.765 342.36ZM423.076 344.469C417.452 344.469 413.665 340.174 413.665 334.551C413.665 328.967 417.452 324.671 423.076 324.671C426.512 324.671 428.542 326.077 429.987 327.951L428.035 329.747C426.785 328.029 425.184 327.287 423.232 327.287C419.21 327.287 416.711 330.372 416.711 334.551C416.711 338.729 419.21 341.853 423.232 341.853C425.184 341.853 426.785 341.072 428.035 339.393L429.987 341.189C428.542 343.063 426.512 344.469 423.076 344.469ZM435.537 322.445C434.483 322.445 433.584 321.586 433.584 320.493C433.584 319.399 434.483 318.501 435.537 318.501C436.63 318.501 437.528 319.399 437.528 320.493C437.528 321.586 436.63 322.445 435.537 322.445ZM437.021 344H434.092V325.14H437.021V344ZM445.792 344H442.863V317.955H445.792V344ZM453.079 322.445C452.024 322.445 451.126 321.586 451.126 320.493C451.126 319.399 452.024 318.501 453.079 318.501C454.172 318.501 455.07 319.399 455.07 320.493C455.07 321.586 454.172 322.445 453.079 322.445ZM454.562 344H451.634V325.14H454.562V344ZM465.169 344.469C462.396 344.469 460.99 342.868 460.99 340.057V327.717H457.866V325.14H460.99V319.985H463.919V325.14H467.746V327.717H463.919V339.432C463.919 340.837 464.544 341.853 465.832 341.853C466.652 341.853 467.433 341.501 467.824 341.072L468.683 343.259C467.941 343.961 466.887 344.469 465.169 344.469ZM470.829 351.381L471.297 348.725C471.727 348.921 472.43 349.038 472.898 349.038C474.187 349.038 475.046 348.608 475.71 347.046L476.959 344.196L469.071 325.14H472.234L478.521 340.603L484.769 325.14H487.971L478.521 347.827C477.389 350.561 475.475 351.615 472.976 351.654C472.352 351.654 471.375 351.537 470.829 351.381ZM526.71 344H523.469V322.562L514.605 344H513.277L504.452 322.562V344H501.211V317.955H505.858L513.941 337.557L522.063 317.955H526.71V344ZM547.39 344H544.462V341.853C542.9 343.571 540.752 344.469 538.214 344.469C535.012 344.469 531.614 342.321 531.614 338.221C531.614 334.004 535.012 332.012 538.214 332.012C540.791 332.012 542.939 332.832 544.462 334.59V331.192C544.462 328.654 542.431 327.209 539.698 327.209C537.433 327.209 535.597 328.029 533.918 329.826L532.552 327.795C534.582 325.686 537.003 324.671 540.088 324.671C544.071 324.671 547.39 326.467 547.39 331.036V344ZM539.268 342.36C541.338 342.36 543.329 341.579 544.462 340.017V336.464C543.329 334.902 541.338 334.121 539.268 334.121C536.535 334.121 534.621 335.839 534.621 338.26C534.621 340.642 536.535 342.36 539.268 342.36ZM568.92 344H565.991V331.661C565.991 328.342 564.312 327.287 561.774 327.287C559.47 327.287 557.283 328.693 556.19 330.216V344H553.261V325.14H556.19V327.873C557.517 326.311 560.095 324.671 562.906 324.671C566.85 324.671 568.92 326.663 568.92 330.763V344ZM589.49 344H586.562V341.853C585 343.571 582.852 344.469 580.314 344.469C577.112 344.469 573.714 342.321 573.714 338.221C573.714 334.004 577.112 332.012 580.314 332.012C582.891 332.012 585.039 332.832 586.562 334.59V331.192C586.562 328.654 584.531 327.209 581.798 327.209C579.533 327.209 577.697 328.029 576.018 329.826L574.652 327.795C576.682 325.686 579.103 324.671 582.188 324.671C586.171 324.671 589.49 326.467 589.49 331.036V344ZM581.368 342.36C583.438 342.36 585.429 341.579 586.562 340.017V336.464C585.429 334.902 583.438 334.121 581.368 334.121C578.635 334.121 576.721 335.839 576.721 338.26C576.721 340.642 578.635 342.36 581.368 342.36ZM602.937 351.654C599.735 351.654 597.548 351.029 595.322 348.843L596.806 346.656C598.368 348.53 600.242 349.233 602.937 349.233C606.061 349.233 608.989 347.71 608.989 343.571V340.877C607.623 342.79 605.319 344.235 602.663 344.235C597.743 344.235 594.268 340.564 594.268 334.472C594.268 328.42 597.704 324.671 602.663 324.671C605.202 324.671 607.466 325.921 608.989 327.99V325.14H611.918V343.454C611.918 349.702 607.544 351.654 602.937 351.654ZM603.366 341.658C605.709 341.658 607.974 340.213 608.989 338.573V330.333C607.974 328.693 605.709 327.287 603.366 327.287C599.578 327.287 597.314 330.294 597.314 334.472C597.314 338.612 599.578 341.658 603.366 341.658ZM626.297 344.469C620.713 344.469 616.691 340.447 616.691 334.551C616.691 329.084 620.595 324.671 625.984 324.671C631.685 324.671 635.044 329.123 635.044 334.785V335.527H619.775C620.01 339.08 622.509 342.048 626.57 342.048C628.718 342.048 630.905 341.189 632.388 339.666L633.794 341.579C631.92 343.454 629.382 344.469 626.297 344.469ZM632.154 333.379C632.115 330.568 630.241 327.092 625.945 327.092C621.923 327.092 619.932 330.489 619.775 333.379H632.154ZM665.482 344H662.553V331.192C662.553 328.81 661.499 327.287 659.078 327.287C657.125 327.287 655.056 328.693 654.079 330.177V344H651.151V331.192C651.151 328.81 650.135 327.287 647.675 327.287C645.762 327.287 643.731 328.693 642.716 330.216V344H639.787V325.14H642.716V327.873C643.497 326.663 646.035 324.671 648.808 324.671C651.697 324.671 653.337 326.233 653.884 328.186C654.938 326.467 657.477 324.671 660.21 324.671C663.646 324.671 665.482 326.584 665.482 330.372V344ZM679.837 344.469C674.253 344.469 670.231 340.447 670.231 334.551C670.231 329.084 674.136 324.671 679.525 324.671C685.226 324.671 688.584 329.123 688.584 334.785V335.527H673.316C673.55 339.08 676.049 342.048 680.11 342.048C682.258 342.048 684.445 341.189 685.929 339.666L687.334 341.579C685.46 343.454 682.922 344.469 679.837 344.469ZM685.694 333.379C685.655 330.568 683.781 327.092 679.486 327.092C675.463 327.092 673.472 330.489 673.316 333.379H685.694ZM708.986 344H706.058V331.661C706.058 328.342 704.379 327.287 701.84 327.287C699.536 327.287 697.35 328.693 696.256 330.216V344H693.328V325.14H696.256V327.873C697.584 326.311 700.161 324.671 702.973 324.671C706.917 324.671 708.986 326.663 708.986 330.763V344ZM719.599 344.469C716.827 344.469 715.421 342.868 715.421 340.057V327.717H712.297V325.14H715.421V319.985H718.35V325.14H722.176V327.717H718.35V339.432C718.35 340.837 718.974 341.853 720.263 341.853C721.083 341.853 721.864 341.501 722.255 341.072L723.114 343.259C722.372 343.961 721.317 344.469 719.599 344.469ZM744.933 344.469C740.403 344.469 737.084 342.751 734.936 340.33L736.85 337.87C738.568 339.783 741.379 341.579 745.05 341.579C749.697 341.579 751.181 339.08 751.181 337.089C751.181 330.372 735.756 334.082 735.756 324.788C735.756 320.493 739.583 317.564 744.698 317.564C748.681 317.564 751.766 318.892 753.953 321.196L752.001 323.578C750.048 321.43 747.315 320.454 744.464 320.454C741.34 320.454 739.114 322.133 739.114 324.593C739.114 330.45 754.539 327.092 754.539 336.815C754.539 340.603 751.962 344.469 744.933 344.469ZM767.501 344.469C761.761 344.469 758.168 340.017 758.168 334.551C758.168 329.084 761.761 324.671 767.501 324.671C773.241 324.671 776.834 329.084 776.834 334.551C776.834 340.017 773.241 344.469 767.501 344.469ZM767.501 341.853C771.523 341.853 773.749 338.416 773.749 334.551C773.749 330.724 771.523 327.287 767.501 327.287C763.479 327.287 761.214 330.724 761.214 334.551C761.214 338.416 763.479 341.853 767.501 341.853ZM785.357 344H782.428V327.717H779.304V325.14H782.428V323.695C782.428 319.829 784.537 317.564 787.895 317.564C789.379 317.564 790.706 317.916 791.878 319.009L790.667 320.922C790.043 320.376 789.301 319.985 788.324 319.985C786.411 319.985 785.357 321.313 785.357 323.695V325.14H789.184V327.717H785.357V344ZM797.431 344.469C794.658 344.469 793.253 342.868 793.253 340.057V327.717H790.129V325.14H793.253V319.985H796.181V325.14H800.008V327.717H796.181V339.432C796.181 340.837 796.806 341.853 798.095 341.853C798.915 341.853 799.696 341.501 800.086 341.072L800.945 343.259C800.203 343.961 799.149 344.469 797.431 344.469ZM823.396 344H820.468L815.548 328.849L810.627 344H807.699L801.685 325.14H804.731L809.339 340.174L814.298 325.14H816.797L821.756 340.174L826.364 325.14H829.41L823.396 344ZM847.544 344H844.615V341.853C843.053 343.571 840.905 344.469 838.367 344.469C835.165 344.469 831.768 342.321 831.768 338.221C831.768 334.004 835.165 332.012 838.367 332.012C840.944 332.012 843.092 332.832 844.615 334.59V331.192C844.615 328.654 842.584 327.209 839.851 327.209C837.586 327.209 835.751 328.029 834.072 329.826L832.705 327.795C834.735 325.686 837.157 324.671 840.241 324.671C844.224 324.671 847.544 326.467 847.544 331.036V344ZM839.421 342.36C841.491 342.36 843.482 341.579 844.615 340.017V336.464C843.482 334.902 841.491 334.121 839.421 334.121C836.688 334.121 834.775 335.839 834.775 338.26C834.775 340.642 836.688 342.36 839.421 342.36ZM856.343 344H853.414V325.14H856.343V328.186C857.866 326.194 860.053 324.749 862.63 324.749V327.756C862.279 327.678 861.927 327.639 861.459 327.639C859.662 327.639 857.202 329.123 856.343 330.646V344ZM874.817 344.469C869.232 344.469 865.21 340.447 865.21 334.551C865.21 329.084 869.115 324.671 874.504 324.671C880.205 324.671 883.564 329.123 883.564 334.785V335.527H868.295C868.53 339.08 871.029 342.048 875.09 342.048C877.238 342.048 879.424 341.189 880.908 339.666L882.314 341.579C880.44 343.454 877.901 344.469 874.817 344.469ZM880.674 333.379C880.635 330.568 878.76 327.092 874.465 327.092C870.443 327.092 868.451 330.489 868.295 333.379H880.674Z" fill="#3247D5"/>
</svg>
