<svg width="22" height="22" viewBox="0 0 22 22" fill="none" xmlns="http://www.w3.org/2000/svg">
<path d="M20.12 15.88C19.6817 15.4453 19.1201 15.1563 18.5116 15.0525C17.9032 14.9487 17.2775 15.0351 16.72 15.3L15.57 14.16C17.9261 11.6176 19.7035 8.59491 20.78 5.29999C20.9842 4.73076 21.0225 4.11518 20.8903 3.52503C20.758 2.93489 20.4607 2.39449 20.0331 1.96685C19.6055 1.5392 19.0651 1.24193 18.4749 1.1097C17.8848 0.977469 17.2692 1.01572 16.7 1.21999C13.405 2.29646 10.3824 4.07388 7.83996 6.42999L6.69996 5.27999C6.93679 4.78309 7.03234 4.2306 6.97615 3.68301C6.91996 3.13542 6.71419 2.61385 6.38137 2.1754C6.04855 1.73695 5.60151 1.39852 5.0892 1.19717C4.57689 0.995815 4.01905 0.939297 3.47676 1.0338C2.93448 1.12831 2.42864 1.3702 2.01465 1.73298C1.60065 2.09577 1.29445 2.56547 1.12956 3.09066C0.964683 3.61584 0.947477 4.17627 1.07983 4.71058C1.21218 5.2449 1.489 5.73249 1.87996 6.11999C2.44203 6.68276 3.20458 6.99929 3.99996 6.99999C4.44356 6.99586 4.88072 6.8934 5.27996 6.69999L6.42996 7.83999C4.07385 10.3824 2.29642 13.4051 1.21996 16.7C1.03247 17.2684 1.0061 17.8777 1.14378 18.4602C1.28146 19.0427 1.57781 19.5757 1.99996 20C2.28582 20.3048 2.62913 20.55 3.01012 20.7216C3.39111 20.8933 3.80227 20.9879 4.21996 21C4.58634 20.9965 4.95023 20.9393 5.29996 20.83C8.59488 19.7535 11.6175 17.9761 14.16 15.62L15.3 16.77C15.0631 17.2669 14.9676 17.8194 15.0238 18.367C15.08 18.9146 15.2857 19.4361 15.6185 19.8746C15.9514 20.313 16.3984 20.6515 16.9107 20.8528C17.423 21.0542 17.9809 21.1107 18.5232 21.0162C19.0654 20.9217 19.5713 20.6798 19.9853 20.317C20.3993 19.9542 20.7055 19.4845 20.8704 18.9593C21.0352 18.4341 21.0524 17.8737 20.9201 17.3394C20.7877 16.8051 20.5109 16.3175 20.12 15.93V15.88ZM4.70996 4.69999C4.52298 4.8883 4.26886 4.99461 4.00349 4.99555C3.73813 4.99649 3.48326 4.89197 3.29496 4.70499C3.10665 4.51802 3.00034 4.26389 2.9994 3.99853C2.99846 3.73317 3.10298 3.4783 3.28996 3.28999C3.47694 3.10169 3.73106 2.99538 3.99642 2.99444C4.26179 2.9935 4.51665 3.09802 4.70496 3.28499C4.89326 3.47197 4.99958 3.72609 5.00051 3.99146C5.00145 4.25682 4.89694 4.51169 4.70996 4.69999ZM17.31 3.12999C17.4618 3.08 17.6202 3.05304 17.78 3.04999C17.9339 3.04874 18.0866 3.07815 18.2291 3.13653C18.3717 3.1949 18.5011 3.28107 18.61 3.38999C18.7729 3.55922 18.884 3.77159 18.9301 4.00197C18.9762 4.23235 18.9553 4.4711 18.87 4.68999C18.3417 6.31379 17.6269 7.87085 16.74 9.32999L12.67 5.25999C14.1291 4.37304 15.6862 3.65827 17.31 3.12999ZM4.68996 18.87C4.47188 18.9573 4.23299 18.9787 4.00288 18.9314C3.77278 18.8842 3.56159 18.7706 3.3955 18.6045C3.2294 18.4384 3.1157 18.2272 3.0685 17.9971C3.0213 17.767 3.04267 17.5281 3.12996 17.31C3.65823 15.6862 4.37301 14.1291 5.25996 12.67L9.32996 16.74C7.87081 17.6269 6.31375 18.3417 4.68996 18.87ZM11 15.59L6.40996 11C6.85559 10.3952 7.33293 9.81436 7.83996 9.25999L12.75 14.17C12.1921 14.6739 11.608 15.1479 11 15.59ZM14.15 12.75L9.24996 7.83999C9.80756 7.33268 10.3917 6.85534 11 6.40999L15.6 11.01C15.1511 11.6151 14.6704 12.1959 14.16 12.75H14.15ZM18.7 18.75C18.6074 18.8432 18.4973 18.9173 18.3761 18.968C18.2549 19.0187 18.1249 19.0451 17.9935 19.0456C17.8621 19.046 17.7319 19.0206 17.6103 18.9707C17.4888 18.9209 17.3782 18.8476 17.285 18.755C17.1917 18.6624 17.1176 18.5524 17.0669 18.4312C17.0162 18.3099 16.9899 18.1799 16.9894 18.0485C16.9889 17.9171 17.0144 17.7869 17.0642 17.6654C17.1141 17.5438 17.1874 17.4332 17.28 17.34C17.4673 17.1537 17.7208 17.0492 17.985 17.0492C18.2491 17.0492 18.5026 17.1537 18.69 17.34C18.8671 17.5229 18.9677 17.7665 18.9715 18.021C18.9752 18.2756 18.8816 18.522 18.71 18.71L18.7 18.75Z" fill="#BEBEBE"/>
</svg>
