<svg width="63" height="55" viewBox="0 0 63 55" fill="none" xmlns="http://www.w3.org/2000/svg">
<path d="M50.7092 5.85106C50.7092 4.29926 51.3257 2.81102 52.423 1.71374C53.5202 0.61645 55.0085 0 56.5603 0C58.1121 0 59.6003 0.61645 60.6976 1.71374C61.7949 2.81102 62.4113 4.29926 62.4113 5.85106V48.7589C62.4113 50.3107 61.7949 51.7989 60.6976 52.8962C59.6003 53.9935 58.1121 54.6099 56.5603 54.6099C55.0085 54.6099 53.5202 53.9935 52.423 52.8962C51.3257 51.7989 50.7092 50.3107 50.7092 48.7589V47.9241C42.2759 43.0833 33.195 40.7351 23.7475 39.7989L25.3273 50.3777C25.4334 50.9412 25.4139 51.5213 25.2703 52.0765C25.1266 52.6317 24.8623 53.1483 24.4961 53.5897C24.13 54.0311 23.671 54.3863 23.1519 54.6301C22.6328 54.8738 22.0664 55.0001 21.4929 55H19.3553C18.5971 54.9999 17.8553 54.7789 17.2208 54.3639C16.5862 53.949 16.0863 53.3581 15.7823 52.6635L8.56596 39.05C8.30332 39.0457 8.04067 39.0418 7.77801 39.0383C5.71206 39.0178 3.73735 38.1843 2.28154 36.7182C0.825743 35.2522 0.00605329 33.2717 0 31.2057L0 23.4043C0.00696192 21.338 0.825272 19.3572 2.27865 17.8885C3.73203 16.4198 5.70416 15.5808 7.77021 15.5521C11.0001 15.5083 14.229 15.4108 17.4557 15.2596C29.3255 14.6589 41.4372 11.9479 50.7092 6.68191V5.85106ZM54.6099 5.85106V48.7589C54.6099 49.2761 54.8154 49.7722 55.1812 50.138C55.5469 50.5037 56.043 50.7092 56.5603 50.7092C57.0775 50.7092 57.5736 50.5037 57.9394 50.138C58.3052 49.7722 58.5106 49.2761 58.5106 48.7589V5.85106C58.5106 5.3338 58.3052 4.83772 57.9394 4.47196C57.5736 4.10619 57.0775 3.90071 56.5603 3.90071C56.043 3.90071 55.5469 4.10619 55.1812 4.47196C54.8154 4.83772 54.6099 5.3338 54.6099 5.85106ZM50.7092 11.117C41.566 15.8174 30.3904 18.3021 19.5035 19.0472V35.5589C20.2057 35.5979 20.9039 35.6447 21.5982 35.6993C31.6152 36.4365 41.4645 38.6014 50.7092 43.4734V11.117ZM15.6028 35.3599V19.25C13.0135 19.3447 10.4233 19.4124 7.83262 19.4528C6.79024 19.4651 5.7943 19.8859 5.05901 20.6249C4.32371 21.3638 3.90779 22.3618 3.90071 23.4043V31.2057C3.90071 33.3511 5.64823 35.1142 7.82482 35.1415C10.4185 35.1715 13.0115 35.2444 15.6028 35.3599ZM13.0401 39.1631L19.3163 51.0096L19.3553 51.1032H21.4929L21.4851 51.0486L19.7571 39.4791C17.5195 39.3441 15.2803 39.2375 13.0401 39.1592V39.1631Z" fill="#D9E7FB"/>
</svg>
