<svg width="19" height="20" viewBox="0 0 19 20" fill="none" xmlns="http://www.w3.org/2000/svg">
<path d="M9.21053 0.78949C4.14474 0.78949 0 4.93423 0 10C0 15.0658 4.14474 19.2105 9.21053 19.2105C14.2763 19.2105 18.4211 15.0658 18.4211 10C18.4211 4.93423 14.2763 0.78949 9.21053 0.78949ZM13.0789 8.43423L8.65789 12.8553C8.28947 13.2237 7.73684 13.2237 7.36842 12.8553L5.3421 10.829C4.97368 10.4605 4.97368 9.90791 5.3421 9.53949C5.71053 9.17107 6.26316 9.17107 6.63158 9.53949L8.01316 10.9211L11.7895 7.14475C12.1579 6.77633 12.7105 6.77633 13.0789 7.14475C13.4474 7.51317 13.4474 8.06581 13.0789 8.43423Z" fill="#0DA300"/>
</svg>
