<svg width="18" height="21" viewBox="0 0 18 21" fill="none" xmlns="http://www.w3.org/2000/svg">
<path d="M15 6.00028H14.65C14.8782 5.53305 14.9979 5.02027 15 4.50028C15.003 3.80361 14.7975 3.12197 14.4098 2.54311C14.0221 1.96425 13.4701 1.51467 12.8247 1.25222C12.1794 0.989775 11.4703 0.926484 10.7886 1.07049C10.107 1.2145 9.48405 1.55922 9 2.06028C8.51595 1.55922 7.89302 1.2145 7.21138 1.07049C6.52975 0.926484 5.82061 0.989775 5.17525 1.25222C4.5299 1.51467 3.97786 1.96425 3.59019 2.54311C3.20252 3.12197 2.99697 3.80361 3 4.50028C3.00213 5.02027 3.12178 5.53305 3.35 6.00028H3C2.20435 6.00028 1.44129 6.31635 0.87868 6.87896C0.316071 7.44157 0 8.20463 0 9.00028V11.0003C0 11.2655 0.105357 11.5199 0.292893 11.7074C0.48043 11.8949 0.734784 12.0003 1 12.0003H2V18.0003C2 18.7959 2.31607 19.559 2.87868 20.1216C3.44129 20.6842 4.20435 21.0003 5 21.0003H13C13.7956 21.0003 14.5587 20.6842 15.1213 20.1216C15.6839 19.559 16 18.7959 16 18.0003V12.0003H17C17.2652 12.0003 17.5196 11.8949 17.7071 11.7074C17.8946 11.5199 18 11.2655 18 11.0003V9.00028C18 8.20463 17.6839 7.44157 17.1213 6.87896C16.5587 6.31635 15.7956 6.00028 15 6.00028ZM8 19.0003H5C4.73478 19.0003 4.48043 18.8949 4.29289 18.7074C4.10536 18.5199 4 18.2655 4 18.0003V12.0003H8V19.0003ZM8 10.0003H2V9.00028C2 8.73506 2.10536 8.48071 2.29289 8.29318C2.48043 8.10564 2.73478 8.00028 3 8.00028H8V10.0003ZM8 6.00028H6.5C6.20333 6.00028 5.91332 5.91231 5.66665 5.74749C5.41997 5.58266 5.22771 5.3484 5.11418 5.07431C5.00065 4.80022 4.97094 4.49862 5.02882 4.20765C5.0867 3.91667 5.22956 3.6494 5.43934 3.43962C5.64912 3.22984 5.91639 3.08698 6.20736 3.0291C6.49834 2.97123 6.79994 3.00093 7.07403 3.11446C7.34811 3.22799 7.58238 3.42025 7.7472 3.66693C7.91203 3.9136 8 4.20361 8 4.50028V6.00028ZM10 4.50028C10 4.20361 10.088 3.9136 10.2528 3.66693C10.4176 3.42025 10.6519 3.22799 10.926 3.11446C11.2001 3.00093 11.5017 2.97123 11.7926 3.0291C12.0836 3.08698 12.3509 3.22984 12.5607 3.43962C12.7704 3.6494 12.9133 3.91667 12.9712 4.20765C13.0291 4.49862 12.9994 4.80022 12.8858 5.07431C12.7723 5.3484 12.58 5.58266 12.3334 5.74749C12.0867 5.91231 11.7967 6.00028 11.5 6.00028H10V4.50028ZM14 18.0003C14 18.2655 13.8946 18.5199 13.7071 18.7074C13.5196 18.8949 13.2652 19.0003 13 19.0003H10V12.0003H14V18.0003ZM16 10.0003H10V8.00028H15C15.2652 8.00028 15.5196 8.10564 15.7071 8.29318C15.8946 8.48071 16 8.73506 16 9.00028V10.0003Z" fill="white"/>
</svg>
