<?xml version="1.0" encoding="utf-8"?>
<!-- Generator: Adobe Illustrator 25.4.1, SVG Export Plug-In . SVG Version: 6.00 Build 0)  -->
<svg version="1.1" id="Layer_1" xmlns="http://www.w3.org/2000/svg" xmlns:xlink="http://www.w3.org/1999/xlink" x="0px" y="0px"
	 viewBox="0 0 20 20" style="enable-background:new 0 0 20 20;" xml:space="preserve">
<style type="text/css">
	.st0{fill:#3EAB6B;}
	.st1{fill:#4FB379;}
	.st2{fill:#68BE8B;}
	.st3{fill:#A5D8BA;}
	.st4{fill:#ADDCC1;}
	.st5{fill:#FEFEFE;}
	.st6{fill:#E8301F;}
</style>
<g>
	<path class="st0" d="M9.9,0C10,0,10,0,10.1,0c0.1,0,0.2,0,0.3,0c0.1,0,0.1,0,0.2,0c0,0,0.1,0,0.1,0c0,0,0.1,0,0.1,0
		c0.3,0,0.6,0,0.9,0.1c0.8,0.1,1.5,0.3,2.1,0.6c0.9,0.4,1.7,0.9,2.5,1.5C17.4,3,18.3,4,18.9,5.2c0.4,0.8,0.8,1.7,1,2.6
		C20,8.2,19.9,8.6,20,9c0,0,0,0.1,0,0.1c0,0,0,0.1,0,0.1c0,0,0,0.1,0,0.1c0,0,0,0.1,0,0.1c0,0.1,0,0.2,0,0.2c0,0.2,0,0.4,0,0.5
		c0,0.1,0,0.2,0,0.2c0,0.1,0,0.2,0,0.3c0,0.3,0,0.5-0.1,0.8c-0.1,0.9-0.4,1.7-0.7,2.5c-0.6,1.3-1.4,2.4-2.5,3.3
		c-1.1,1-2.5,1.8-3.9,2.2c-0.7,0.2-1.4,0.3-2.1,0.3c-0.8,0-1.6,0-2.4-0.1c-0.8-0.1-1.6-0.4-2.4-0.7c-1.3-0.6-2.5-1.4-3.4-2.5
		c-1-1.1-1.7-2.4-2.2-3.9C0.1,12.1,0,11.4,0,10.7c0-0.8,0-1.6,0.1-2.3c0.1-0.9,0.4-1.7,0.7-2.5c0.6-1.3,1.4-2.4,2.5-3.4
		c1.3-1.2,2.9-2,4.7-2.4C8.3,0,8.7,0,9.1,0c0,0,0.1,0,0.1,0c0.1,0,0.1,0,0.2,0c0,0,0.1,0,0.1,0c0.1,0,0.1,0,0.2,0C9.7,0,9.8,0,9.9,0
		z"/>
	<path class="st1" d="M9.9,0C9.8,0,9.7,0.1,9.6,0C9.7,0,9.8,0,9.9,0z"/>
	<path class="st1" d="M10.4,0c-0.1,0.1-0.2,0-0.3,0C10.2,0,10.3,0,10.4,0z"/>
	<path class="st2" d="M20,9.7c0-0.1-0.1-0.2,0-0.2C20,9.6,20,9.6,20,9.7z"/>
	<path class="st2" d="M20,10.5c-0.1-0.1,0-0.2,0-0.2C20,10.3,20,10.4,20,10.5z"/>
	<path class="st3" d="M9.4,0c0,0-0.1,0.1-0.1,0C9.3,0,9.4,0,9.4,0z"/>
	<path class="st3" d="M10.7,0c0,0.1-0.1,0-0.1,0C10.6,0,10.7,0,10.7,0z"/>
	<path class="st4" d="M20,9.4C20,9.3,20,9.3,20,9.4C20,9.3,20,9.3,20,9.4z"/>
	<path class="st5" d="M15.9,7.1c0,0.2-0.1,0.3-0.2,0.4c-1.5,1.5-3.1,3.1-4.6,4.6c-0.8,0.8-1.6,1.6-2.4,2.4c-0.3,0.3-0.4,0.3-0.7,0
		c-1.2-1.2-2.4-2.4-3.6-3.6c-0.3-0.3-0.3-0.4,0-0.7c0.4-0.4,0.8-0.8,1.3-1.3c0.3-0.3,0.4-0.3,0.7,0c0.6,0.6,1.2,1.2,1.8,1.8
		c0.1,0.1,0.2,0.1,0.3,0c1.7-1.7,3.4-3.4,5.1-5.1c0.3-0.3,0.5-0.3,0.8,0c0.4,0.4,0.9,0.9,1.3,1.3C15.8,6.9,15.9,7,15.9,7.1z"/>
</g>
</svg>
