<?xml version="1.0" encoding="utf-8"?>
<!-- Generator: Adobe Illustrator 25.4.1, SVG Export Plug-In . SVG Version: 6.00 Build 0)  -->
<svg version="1.1" id="Layer_1" xmlns="http://www.w3.org/2000/svg" xmlns:xlink="http://www.w3.org/1999/xlink" x="0px" y="0px"
	 viewBox="0 0 148 48" style="enable-background:new 0 0 148 48;" xml:space="preserve">
<g>
	<path style="fill:#3247D5;" d="M57.38,31.53l0.91,1.77h1.19V18.08l-2.09,0.22V31.53z M58.03,30.24c-0.45,0.53-0.89,0.93-1.34,1.19
		c-0.43,0.26-0.97,0.39-1.6,0.39c-0.66,0-1.22-0.17-1.68-0.5c-0.46-0.33-0.81-0.79-1.06-1.36C52.12,29.38,52,28.72,52,27.97
		c0-0.69,0.12-1.31,0.37-1.86s0.6-0.98,1.06-1.3c0.46-0.33,1.02-0.5,1.66-0.5c0.62,0,1.16,0.12,1.62,0.37
		c0.48,0.24,0.94,0.65,1.38,1.21l0.61-1.47c-0.3-0.46-0.68-0.83-1.15-1.1c-0.45-0.27-0.89-0.47-1.34-0.58
		c-0.45-0.13-0.81-0.19-1.1-0.19c-1.05,0-1.97,0.23-2.76,0.69c-0.78,0.45-1.38,1.08-1.81,1.9c-0.43,0.81-0.65,1.76-0.65,2.85
		c0,1.12,0.21,2.1,0.63,2.94c0.42,0.84,1.02,1.49,1.79,1.97c0.79,0.46,1.72,0.69,2.79,0.69c0.3,0,0.67-0.06,1.1-0.19
		c0.45-0.13,0.89-0.33,1.34-0.61c0.45-0.29,0.82-0.64,1.12-1.06L58.03,30.24z M64.38,33.3V22.83h-2.09V33.3H64.38z M63.3,20.95
		c0.36,0,0.67-0.12,0.93-0.37c0.26-0.26,0.39-0.57,0.39-0.93c0-0.37-0.13-0.68-0.39-0.93c-0.26-0.24-0.57-0.37-0.93-0.37
		c-0.36,0-0.66,0.13-0.91,0.39c-0.24,0.24-0.37,0.55-0.37,0.91c0,0.37,0.12,0.68,0.37,0.93C62.64,20.83,62.94,20.95,63.3,20.95z
		 M75.91,22.83h-1.19l-0.91,1.58v9.81c0,0.78-0.28,1.37-0.84,1.77c-0.56,0.4-1.27,0.61-2.14,0.61c-0.63,0-1.17-0.09-1.62-0.26
		c-0.43-0.16-0.9-0.35-1.4-0.58l-0.63,1.49c0.24,0.17,0.53,0.32,0.86,0.45s0.67,0.24,1.02,0.32c0.36,0.09,0.7,0.15,1.02,0.19
		c0.33,0.04,0.61,0.06,0.82,0.06c1.08,0,1.99-0.18,2.72-0.54c0.75-0.35,1.32-0.83,1.71-1.45c0.39-0.61,0.58-1.29,0.58-2.05
		L75.91,22.83L75.91,22.83z M74.46,30.24c-0.45,0.53-0.89,0.93-1.34,1.19c-0.43,0.26-0.97,0.39-1.6,0.39c-0.66,0-1.22-0.17-1.68-0.5
		c-0.46-0.33-0.81-0.79-1.06-1.36c-0.23-0.58-0.35-1.24-0.35-1.99c0-0.69,0.12-1.31,0.37-1.86c0.24-0.55,0.6-0.98,1.06-1.3
		c0.46-0.33,1.02-0.5,1.66-0.5c0.62,0,1.16,0.12,1.62,0.37c0.48,0.24,0.94,0.65,1.38,1.21l0.61-1.47c-0.3-0.46-0.68-0.83-1.15-1.1
		c-0.45-0.27-0.89-0.47-1.34-0.58c-0.45-0.13-0.81-0.19-1.1-0.19c-1.05,0-1.97,0.23-2.76,0.69c-0.78,0.45-1.38,1.08-1.81,1.9
		c-0.43,0.81-0.65,1.76-0.65,2.85c0,1.12,0.21,2.1,0.63,2.94c0.42,0.84,1.02,1.49,1.79,1.97c0.79,0.46,1.72,0.69,2.79,0.69
		c0.3,0,0.67-0.06,1.1-0.19c0.45-0.13,0.89-0.33,1.34-0.61c0.45-0.29,0.82-0.64,1.12-1.06L74.46,30.24z M80.73,33.3V22.83h-2.09
		V33.3H80.73z M79.65,20.95c0.36,0,0.67-0.12,0.93-0.37c0.26-0.26,0.39-0.57,0.39-0.93c0-0.37-0.13-0.68-0.39-0.93
		c-0.26-0.24-0.57-0.37-0.93-0.37c-0.36,0-0.66,0.13-0.91,0.39c-0.24,0.24-0.37,0.55-0.37,0.91c0,0.37,0.12,0.68,0.37,0.93
		C78.99,20.83,79.29,20.95,79.65,20.95z M92.45,33.71c-1.78,0-3.38-0.43-4.78-1.3c-1.4-0.86-2.51-2.05-3.31-3.57
		c-0.79-1.54-1.18-3.27-1.18-5.21c0-1.98,0.4-3.74,1.21-5.27c0.81-1.56,1.91-2.78,3.31-3.69c1.42-0.9,3.03-1.37,4.84-1.41
		c1.8,0,3.41,0.44,4.81,1.33c1.4,0.86,2.51,2.06,3.31,3.6c0.81,1.52,1.21,3.25,1.21,5.18c0,1.98-0.41,3.74-1.24,5.3
		c-0.81,1.54-1.92,2.76-3.34,3.66C95.88,33.21,94.27,33.67,92.45,33.71z M92.42,31.34c1.27,0,2.39-0.34,3.37-1.01
		c0.98-0.69,1.75-1.63,2.3-2.82c0.56-1.21,0.84-2.58,0.84-4.12c0-1.5-0.28-2.83-0.84-4c-0.54-1.17-1.29-2.08-2.25-2.74
		c-0.94-0.67-2.03-1.01-3.25-1.01c-1.27,0-2.39,0.35-3.37,1.04c-0.98,0.67-1.76,1.6-2.33,2.79c-0.56,1.19-0.84,2.55-0.84,4.09
		c0,1.5,0.27,2.83,0.81,4c0.56,1.17,1.31,2.09,2.27,2.76C90.09,31.01,91.19,31.34,92.42,31.34z M103.35,24.53h1.58v8.77H107v-8.77
		h2.61l-0.67-1.58H107v-1.17c0-0.53,0.11-0.97,0.32-1.3c0.23-0.35,0.61-0.52,1.12-0.52c0.16,0,0.33,0.03,0.52,0.09
		c0.2,0.04,0.37,0.09,0.52,0.15l0.52-1.6c-0.12-0.09-0.27-0.17-0.48-0.24s-0.41-0.13-0.63-0.17c-0.22-0.04-0.43-0.06-0.65-0.06
		c-0.69,0-1.29,0.14-1.79,0.43c-0.49,0.29-0.87,0.69-1.15,1.21c-0.26,0.5-0.39,1.11-0.39,1.81v1.36h-1.6L103.35,24.53z
		 M110.35,24.53h1.58v8.77H114v-8.77h2.61l-0.67-1.58H114v-1.17c0-0.53,0.11-0.97,0.32-1.3c0.23-0.35,0.61-0.52,1.12-0.52
		c0.16,0,0.33,0.03,0.52,0.09c0.2,0.04,0.37,0.09,0.52,0.15l0.52-1.6c-0.12-0.09-0.27-0.17-0.48-0.24s-0.41-0.13-0.63-0.17
		c-0.22-0.04-0.43-0.06-0.65-0.06c-0.69,0-1.29,0.14-1.79,0.43c-0.49,0.29-0.87,0.69-1.15,1.21c-0.26,0.5-0.39,1.11-0.39,1.81v1.36
		h-1.6L110.35,24.53z M120.4,33.3V22.83h-2.09V33.3H120.4z M119.32,20.95c0.36,0,0.67-0.12,0.93-0.37c0.26-0.26,0.39-0.57,0.39-0.93
		c0-0.37-0.13-0.68-0.39-0.93c-0.26-0.24-0.57-0.37-0.93-0.37c-0.36,0-0.66,0.13-0.91,0.39c-0.24,0.24-0.37,0.55-0.37,0.91
		c0,0.37,0.12,0.68,0.37,0.93C118.66,20.83,118.96,20.95,119.32,20.95z M130.48,31.1c-0.45,0.22-0.89,0.39-1.34,0.52
		c-0.43,0.13-0.97,0.19-1.6,0.19c-0.66,0-1.22-0.16-1.68-0.48c-0.46-0.33-0.81-0.79-1.06-1.36c-0.23-0.58-0.35-1.22-0.35-1.94
		c0.01-0.69,0.14-1.32,0.39-1.88c0.26-0.56,0.62-1.01,1.08-1.34c0.48-0.33,1.04-0.5,1.68-0.5c0.62,0,1.15,0.07,1.6,0.22
		c0.45,0.14,0.89,0.31,1.34,0.5l0.61-1.47c-0.3-0.22-0.68-0.4-1.12-0.54c-0.45-0.16-0.89-0.27-1.32-0.35
		c-0.43-0.09-0.79-0.13-1.08-0.13c-1.08,0-2.02,0.24-2.81,0.71c-0.79,0.46-1.4,1.1-1.84,1.92c-0.42,0.82-0.63,1.78-0.65,2.87
		c0,1.09,0.21,2.06,0.63,2.89c0.42,0.82,1.02,1.47,1.79,1.94c0.79,0.46,1.72,0.69,2.79,0.69c0.3,0,0.67-0.04,1.1-0.13
		c0.45-0.07,0.89-0.18,1.34-0.32c0.45-0.16,0.82-0.34,1.12-0.54L130.48,31.1z M141.95,28.53v-0.22c0-1.02-0.16-1.97-0.48-2.85
		c-0.3-0.88-0.79-1.58-1.47-2.12c-0.66-0.53-1.54-0.8-2.63-0.8c-1.04,0-1.93,0.24-2.68,0.71c-0.75,0.46-1.32,1.1-1.73,1.92
		c-0.4,0.82-0.61,1.78-0.61,2.87s0.21,2.06,0.63,2.89c0.43,0.82,1.07,1.46,1.92,1.92c0.85,0.46,1.89,0.69,3.13,0.69
		c0.49,0,0.96-0.05,1.4-0.15s0.87-0.24,1.28-0.41c0.4-0.19,0.78-0.38,1.12-0.58l-0.65-1.51c-0.58,0.27-1.09,0.5-1.56,0.67
		c-0.45,0.17-0.98,0.26-1.6,0.26c-0.78,0-1.42-0.14-1.92-0.41c-0.5-0.29-0.89-0.68-1.15-1.19c-0.24-0.5-0.4-1.07-0.45-1.71
		L141.95,28.53L141.95,28.53z M134.56,27.12c0.07-0.58,0.22-1.07,0.43-1.49c0.23-0.42,0.54-0.74,0.93-0.97
		c0.39-0.23,0.85-0.35,1.38-0.35c0.53,0,0.97,0.12,1.32,0.35c0.36,0.23,0.65,0.55,0.86,0.97c0.22,0.42,0.37,0.91,0.45,1.49H134.56z"
		/>
	<path style="fill:#3247D5;" d="M13.96,14.4c-0.2-0.28-0.6-0.35-0.88-0.14c-2.83,2.17-4.95,5.13-6.09,8.51
		c-1.21,3.58-1.26,7.46-0.14,11.07c1.12,3.61,3.34,6.78,6.37,9.06c3.02,2.28,6.68,3.54,10.47,3.62c3.78,0.08,7.49-1.04,10.6-3.2
		s5.46-5.23,6.72-8.8s1.36-7.44,0.3-11.07c-1.01-3.43-3.01-6.47-5.75-8.75c-0.27-0.22-0.67-0.17-0.88,0.1
		c-0.21,0.28-0.16,0.67,0.1,0.9c2.53,2.12,4.38,4.93,5.31,8.11c0.99,3.37,0.9,6.98-0.28,10.29c-1.17,3.32-3.36,6.18-6.25,8.18
		c-2.89,2-6.34,3.04-9.86,2.97c-3.52-0.07-6.92-1.25-9.73-3.36c-2.81-2.11-4.88-5.06-5.92-8.42c-1.04-3.36-0.99-6.96,0.13-10.29
		c1.06-3.13,3.02-5.88,5.63-7.89C14.1,15.07,14.17,14.68,13.96,14.4z"/>
	<path style="fill-rule:evenodd;clip-rule:evenodd;fill:#3247D5;" d="M21.36,1.48L21.36,1.48l-9.32,6.88l0.01,0.02h-0.01v33.34
		l3.29,1.9v-33.6l2.86-2.11v33.81l3.29-2.86V5.47l0.02-0.01l11.63,7.31v21.05l-8.94,0.05v3.23h12.22v-2.98h0.01v-23.1H36.4
		l0.04-0.06L21.36,1.48L21.36,1.48z"/>
	<rect x="24.24" y="17.17" style="fill:#3247D5;" width="3.18" height="3.37"/>
	<rect x="24.24" y="22.11" style="fill:#3247D5;" width="3.18" height="3.37"/>
</g>
</svg>
