<svg width="18" height="19" viewBox="0 0 18 19" fill="none" xmlns="http://www.w3.org/2000/svg">
<path d="M13.158 0.525967C13.2838 0.567748 13.3879 0.657802 13.4474 0.776322C13.5068 0.894842 13.5167 1.03212 13.475 1.15797L12.975 2.65797C12.9331 2.78394 12.8428 2.88812 12.7241 2.94757C12.6054 3.00701 12.468 3.01687 12.342 2.97497C12.216 2.93306 12.1118 2.84283 12.0524 2.72412C11.9929 2.60541 11.9831 2.46794 12.025 2.34197L12.525 0.841967C12.5458 0.779634 12.5786 0.722008 12.6217 0.672385C12.6648 0.622762 12.7172 0.582115 12.776 0.552767C12.8348 0.523419 12.8988 0.505947 12.9643 0.501348C13.0299 0.49675 13.0957 0.505115 13.158 0.525967ZM16.855 2.35397C16.9014 2.30748 16.9382 2.2523 16.9633 2.19159C16.9884 2.13087 17.0013 2.06581 17.0013 2.00011C17.0012 1.93442 16.9882 1.86937 16.963 1.80869C16.9379 1.74801 16.901 1.69289 16.8545 1.64647C16.808 1.60004 16.7528 1.56323 16.6921 1.53813C16.6314 1.51304 16.5663 1.50014 16.5006 1.50019C16.4349 1.50024 16.3699 1.51322 16.3092 1.53841C16.2485 1.56359 16.1934 1.60048 16.147 1.64697L14.147 3.64697C14.0559 3.74127 14.0055 3.86757 14.0066 3.99867C14.0078 4.12977 14.0604 4.25517 14.1531 4.34788C14.2458 4.44058 14.3712 4.49316 14.5023 4.4943C14.6334 4.49544 14.7597 4.44505 14.854 4.35397L16.855 2.35397ZM6.60698 2.64597C6.74648 2.3522 6.95551 2.09688 7.21596 1.90213C7.47641 1.70739 7.78042 1.57909 8.10164 1.52836C8.42287 1.47763 8.75162 1.50599 9.05941 1.611C9.3672 1.71601 9.64474 1.89448 9.86798 2.13097L16.455 9.11097C16.6748 9.34385 16.8355 9.62612 16.9235 9.93402C17.0115 10.2419 17.0243 10.5665 16.9608 10.8804C16.8973 11.1942 16.7594 11.4883 16.5586 11.7378C16.3578 11.9872 16.1 12.1848 15.807 12.314L11.87 14.05C12.0159 14.5705 12.0395 15.1177 11.9387 15.6488C11.838 16.1799 11.6158 16.6805 11.2895 17.1114C10.9631 17.5423 10.5415 17.8919 10.0576 18.1328C9.57364 18.3737 9.04054 18.4994 8.49998 18.5C7.90419 18.5003 7.3182 18.3484 6.79756 18.0588C6.27692 17.7692 5.83888 17.3513 5.52498 16.845L4.32498 17.374C4.04921 17.4954 3.74326 17.531 3.447 17.476C3.15073 17.4211 2.87787 17.2782 2.66398 17.066L1.44198 15.856C1.22101 15.6371 1.07355 15.355 1.01998 15.0486C0.96641 14.7423 1.00939 14.4268 1.14298 14.146L6.60698 2.64597ZM6.45298 16.435C6.78487 16.9088 7.27081 17.2528 7.82797 17.4085C8.38512 17.5641 8.97901 17.5217 9.50841 17.2885C10.0378 17.0553 10.4699 16.6457 10.7312 16.1296C10.9924 15.6134 11.0665 15.0227 10.941 14.458L6.45298 16.435ZM16 5.49997C15.8674 5.49997 15.7402 5.55265 15.6464 5.64641C15.5527 5.74018 15.5 5.86736 15.5 5.99997C15.5 6.13258 15.5527 6.25975 15.6464 6.35352C15.7402 6.44729 15.8674 6.49997 16 6.49997H17.5C17.6326 6.49997 17.7598 6.44729 17.8535 6.35352C17.9473 6.25975 18 6.13258 18 5.99997C18 5.86736 17.9473 5.74018 17.8535 5.64641C17.7598 5.55265 17.6326 5.49997 17.5 5.49997H16Z" fill="#737373"/>
</svg>
