<svg width="20" height="20" viewBox="0 0 20 20" fill="none" xmlns="http://www.w3.org/2000/svg">
<path d="M6.25 1.875C6.25 1.70924 6.31585 1.55027 6.43306 1.43306C6.55027 1.31585 6.70924 1.25 6.875 1.25H11.875C12.0408 1.25 12.1997 1.31585 12.3169 1.43306C12.4342 1.55027 12.5 1.70924 12.5 1.875C12.5 2.04076 12.4342 2.19973 12.3169 2.31694C12.1997 2.43415 12.0408 2.5 11.875 2.5H6.875C6.70924 2.5 6.55027 2.43415 6.43306 2.31694C6.31585 2.19973 6.25 2.04076 6.25 1.875ZM9.375 18.75C11.3641 18.75 13.2718 17.9598 14.6783 16.5533C16.0848 15.1468 16.875 13.2391 16.875 11.25C16.875 9.26088 16.0848 7.35322 14.6783 5.9467C13.2718 4.54018 11.3641 3.75 9.375 3.75C7.38588 3.75 5.47822 4.54018 4.0717 5.9467C2.66518 7.35322 1.875 9.26088 1.875 11.25C1.875 13.2391 2.66518 15.1468 4.0717 16.5533C5.47822 17.9598 7.38588 18.75 9.375 18.75V18.75ZM9.375 6.25C9.54076 6.25 9.69973 6.31585 9.81694 6.43306C9.93415 6.55027 10 6.70924 10 6.875V11.875C10 12.0408 9.93415 12.1997 9.81694 12.3169C9.69973 12.4342 9.54076 12.5 9.375 12.5C9.20924 12.5 9.05027 12.4342 8.93306 12.3169C8.81585 12.1997 8.75 12.0408 8.75 11.875V6.875C8.75 6.70924 8.81585 6.55027 8.93306 6.43306C9.05027 6.31585 9.20924 6.25 9.375 6.25V6.25ZM15.5663 3.3025C15.5086 3.24281 15.4396 3.19519 15.3634 3.16244C15.2871 3.12968 15.2051 3.11244 15.1221 3.11172C15.0391 3.111 14.9568 3.12681 14.88 3.15824C14.8032 3.18966 14.7334 3.23607 14.6748 3.29475C14.6161 3.35344 14.5697 3.42322 14.5382 3.50003C14.5068 3.57684 14.491 3.65914 14.4917 3.74213C14.4924 3.82511 14.5097 3.90713 14.5424 3.98338C14.5752 4.05963 14.6228 4.1286 14.6825 4.18625L16.4363 5.94C16.4939 5.99969 16.5629 6.04731 16.6391 6.08006C16.7154 6.11282 16.7974 6.13006 16.8804 6.13078C16.9634 6.1315 17.0457 6.11569 17.1225 6.08426C17.1993 6.05284 17.2691 6.00643 17.3277 5.94775C17.3864 5.88906 17.4328 5.81928 17.4643 5.74247C17.4957 5.66566 17.5115 5.58336 17.5108 5.50037C17.5101 5.41739 17.4928 5.33537 17.4601 5.25912C17.4273 5.18287 17.3797 5.1139 17.32 5.05625L15.5663 3.3025Z" fill="#737373"/>
</svg>
