<svg width="20" height="20" viewBox="0 0 20 20" fill="none" xmlns="http://www.w3.org/2000/svg">
<path d="M5.625 17.5H7.82125C6.80337 16.2695 6.24757 14.7219 6.25 13.125C6.25 10.8 7.40375 8.74375 9.17125 7.5H2.5V14.375C2.5 15.2038 2.82924 15.9987 3.41529 16.5847C4.00134 17.1708 4.7962 17.5 5.625 17.5ZM17.5 6.25H2.5V5.625C2.5 4.7962 2.82924 4.00134 3.41529 3.41529C4.00134 2.82924 4.7962 2.5 5.625 2.5H14.375C15.2038 2.5 15.9987 2.82924 16.5847 3.41529C17.1708 4.00134 17.5 4.7962 17.5 5.625V6.25ZM18.75 13.125C18.75 13.8637 18.6045 14.5951 18.3218 15.2776C18.0391 15.9601 17.6248 16.5801 17.1025 17.1025C16.5801 17.6248 15.9601 18.0391 15.2776 18.3218C14.5951 18.6045 13.8637 18.75 13.125 18.75C12.3863 18.75 11.6549 18.6045 10.9724 18.3218C10.2899 18.0391 9.66985 17.6248 9.14752 17.1025C8.62519 16.5801 8.21086 15.9601 7.92818 15.2776C7.6455 14.5951 7.5 13.8637 7.5 13.125C7.5 11.6332 8.09263 10.2024 9.14752 9.14752C10.2024 8.09263 11.6332 7.5 13.125 7.5C14.6168 7.5 16.0476 8.09263 17.1025 9.14752C18.1574 10.2024 18.75 11.6332 18.75 13.125ZM16.0675 10.8075C16.0094 10.7493 15.9405 10.7031 15.8645 10.6716C15.7886 10.6401 15.7072 10.6239 15.625 10.6239C15.5428 10.6239 15.4614 10.6401 15.3855 10.6716C15.3095 10.7031 15.2406 10.7493 15.1825 10.8075L11.875 14.1163L11.0675 13.3075C11.0094 13.2494 10.9404 13.2033 10.8645 13.1718C10.7886 13.1404 10.7072 13.1242 10.625 13.1242C10.5428 13.1242 10.4614 13.1404 10.3855 13.1718C10.3096 13.2033 10.2406 13.2494 10.1825 13.3075C10.1244 13.3656 10.0783 13.4346 10.0468 13.5105C10.0154 13.5864 9.99921 13.6678 9.99921 13.75C9.99921 13.8322 10.0154 13.9136 10.0468 13.9895C10.0783 14.0654 10.1244 14.1344 10.1825 14.1925L11.4325 15.4425C11.4906 15.5007 11.5595 15.5469 11.6355 15.5784C11.7114 15.6099 11.7928 15.6261 11.875 15.6261C11.9572 15.6261 12.0386 15.6099 12.1145 15.5784C12.1905 15.5469 12.2594 15.5007 12.3175 15.4425L16.0675 11.6925C16.1257 11.6344 16.1719 11.5655 16.2034 11.4895C16.2349 11.4136 16.2511 11.3322 16.2511 11.25C16.2511 11.1678 16.2349 11.0864 16.2034 11.0105C16.1719 10.9345 16.1257 10.8656 16.0675 10.8075Z" fill="#737373"/>
</svg>
