<svg width="20" height="20" viewBox="0 0 20 20" fill="none" xmlns="http://www.w3.org/2000/svg">
<path d="M6.75 9C7.61195 9 8.4386 8.65759 9.0481 8.0481C9.65759 7.4386 10 6.61195 10 5.75C10 4.88805 9.65759 4.0614 9.0481 3.4519C8.4386 2.84241 7.61195 2.5 6.75 2.5C5.88805 2.5 5.0614 2.84241 4.4519 3.4519C3.84241 4.0614 3.5 4.88805 3.5 5.75C3.5 6.61195 3.84241 7.4386 4.4519 8.0481C5.0614 8.65759 5.88805 9 6.75 9ZM17 6.5C17 7.16304 16.7366 7.79893 16.2678 8.26777C15.7989 8.73661 15.163 9 14.5 9C13.837 9 13.2011 8.73661 12.7322 8.26777C12.2634 7.79893 12 7.16304 12 6.5C12 5.83696 12.2634 5.20107 12.7322 4.73223C13.2011 4.26339 13.837 4 14.5 4C15.163 4 15.7989 4.26339 16.2678 4.73223C16.7366 5.20107 17 5.83696 17 6.5ZM9 14.5C9 12.796 9.775 11.272 10.993 10.263C10.6907 10.09 10.3483 9.9993 10 10H3.5C2.96957 10 2.46086 10.2107 2.08579 10.5858C1.71071 10.9609 1.5 11.4696 1.5 12C1.5 12 1.5 16 6.75 16C7.703 16 8.483 15.868 9.121 15.653C9.04032 15.274 8.99976 14.8875 9 14.5ZM19 14.5C19 15.6935 18.5259 16.8381 17.682 17.682C16.8381 18.5259 15.6935 19 14.5 19C13.3065 19 12.1619 18.5259 11.318 17.682C10.4741 16.8381 10 15.6935 10 14.5C10 13.3065 10.4741 12.1619 11.318 11.318C12.1619 10.4741 13.3065 10 14.5 10C15.6935 10 16.8381 10.4741 17.682 11.318C18.5259 12.1619 19 13.3065 19 14.5ZM14.5 12C14.3674 12 14.2402 12.0527 14.1464 12.1464C14.0527 12.2402 14 12.3674 14 12.5V14.5C14 14.6326 14.0527 14.7598 14.1464 14.8536C14.2402 14.9473 14.3674 15 14.5 15C14.6326 15 14.7598 14.9473 14.8536 14.8536C14.9473 14.7598 15 14.6326 15 14.5V12.5C15 12.3674 14.9473 12.2402 14.8536 12.1464C14.7598 12.0527 14.6326 12 14.5 12ZM14.5 17.125C14.6658 17.125 14.8247 17.0592 14.9419 16.9419C15.0592 16.8247 15.125 16.6658 15.125 16.5C15.125 16.3342 15.0592 16.1753 14.9419 16.0581C14.8247 15.9408 14.6658 15.875 14.5 15.875C14.3342 15.875 14.1753 15.9408 14.0581 16.0581C13.9408 16.1753 13.875 16.3342 13.875 16.5C13.875 16.6658 13.9408 16.8247 14.0581 16.9419C14.1753 17.0592 14.3342 17.125 14.5 17.125Z" fill="#737373"/>
</svg>
