<svg width="20" height="20" viewBox="0 0 20 20" fill="none" xmlns="http://www.w3.org/2000/svg">
<path d="M10.0003 1.66669C5.40533 1.66669 1.66699 5.40502 1.66699 10C1.66699 14.595 5.40533 18.3334 10.0003 18.3334C14.5953 18.3334 18.3337 14.595 18.3337 10C18.3337 5.40502 14.5953 1.66669 10.0003 1.66669ZM10.8337 15H9.16699V13.3334H10.8337V15ZM11.647 10.9292C11.4837 11.0609 11.3262 11.1867 11.2012 11.3117C10.8612 11.6509 10.8345 11.9592 10.8337 11.9725V12.0834H9.16699V11.9442C9.16699 11.8459 9.19116 10.9634 10.022 10.1325C10.1845 9.97002 10.3862 9.80502 10.5978 9.63335C11.2095 9.13752 11.6112 8.77585 11.6112 8.27752C11.6015 7.85654 11.4274 7.45606 11.1262 7.16179C10.825 6.86751 10.4206 6.7028 9.9995 6.70291C9.57841 6.70302 9.17408 6.86794 8.87303 7.16237C8.57198 7.4568 8.39812 7.85737 8.38866 8.27835H6.72199C6.72199 6.47085 8.19283 5.00002 10.0003 5.00002C11.8078 5.00002 13.2787 6.47085 13.2787 8.27835C13.2787 9.60919 12.2962 10.4034 11.647 10.9292V10.9292Z" fill="#737373"/>
</svg>
