<svg width="20" height="20" viewBox="0 0 20 20" fill="none" xmlns="http://www.w3.org/2000/svg">
<path d="M16.667 1.66663H1.66699V6.66663H16.667V1.66663ZM15.0003 4.99996H3.33366V3.33329H15.0003V4.99996ZM13.3337 7.49996C12.242 7.49996 11.217 7.80829 10.342 8.33329H7.08366C6.85033 8.33329 6.66699 8.51663 6.66699 8.74996V9.99996H8.55033C7.86495 10.9762 7.4982 12.1405 7.50033 13.3333C7.50033 13.9166 7.59199 14.475 7.74199 15H4.16699V7.49996H2.50033V16.6666H8.55033C9.60866 18.175 11.3503 19.1666 13.3337 19.1666C16.5587 19.1666 19.167 16.5583 19.167 13.3333C19.167 10.1083 16.5587 7.49996 13.3337 7.49996ZM13.3337 17.5C11.0337 17.5 9.16699 15.6333 9.16699 13.3333C9.16699 11.0333 11.0337 9.16663 13.3337 9.16663C15.6337 9.16663 17.5003 11.0333 17.5003 13.3333C17.5003 15.6333 15.6337 17.5 13.3337 17.5ZM13.7503 13.5416L16.1337 14.95L15.5087 15.9666L12.5003 14.1666V9.99996H13.7503V13.5416Z" fill="#737373"/>
</svg>
