<svg width="25" height="20" viewBox="0 0 25 20" fill="none" xmlns="http://www.w3.org/2000/svg">
<path d="M3.75 3.75V12.5C3.75 13.8789 4.87109 15 6.25 15H22.5C23.8789 15 25 13.8789 25 12.5V3.75C25 2.37109 23.8789 1.25 22.5 1.25H6.25C4.87109 1.25 3.75 2.37109 3.75 3.75ZM6.25 10C7.62891 10 8.75 11.1211 8.75 12.5H6.25V10ZM8.75 3.75C8.75 5.12891 7.62891 6.25 6.25 6.25V3.75H8.75ZM22.5 10V12.5H20C20 11.1211 21.1211 10 22.5 10ZM20 3.75H22.5V6.25C21.1211 6.25 20 5.12891 20 3.75ZM17.5 8.125C17.5 9.85156 16.1016 11.25 14.375 11.25C12.6484 11.25 11.25 9.85156 11.25 8.125C11.25 6.39844 12.6484 5 14.375 5C16.1016 5 17.5 6.39844 17.5 8.125ZM1.875 4.6875C1.875 4.16797 1.45703 3.75 0.9375 3.75C0.417969 3.75 0 4.16797 0 4.6875V14.0625C0 16.6523 2.09766 18.75 4.6875 18.75H20.3125C20.832 18.75 21.25 18.332 21.25 17.8125C21.25 17.293 20.832 16.875 20.3125 16.875H4.6875C3.13281 16.875 1.875 15.6172 1.875 14.0625V4.6875Z" fill="#737373"/>
</svg>
