<svg width="20" height="20" viewBox="0 0 20 20" fill="none" xmlns="http://www.w3.org/2000/svg">
<path d="M14.7917 2.5C15.51 2.5 16.1988 2.78534 16.7067 3.29325C17.2147 3.80116 17.5 4.49004 17.5 5.20833V5.83333H2.5V5.20833C2.5 4.49004 2.78534 3.80116 3.29325 3.29325C3.80116 2.78534 4.49004 2.5 5.20833 2.5H14.7917ZM17.5 7.08333V10.0183C16.46 9.35317 15.2239 9.06324 13.9966 9.19655C12.7693 9.32987 11.6243 9.87843 10.7514 10.7514C9.87843 11.6243 9.32987 12.7693 9.19655 13.9966C9.06324 15.2239 9.35317 16.46 10.0183 17.5H5.20833C4.49004 17.5 3.80116 17.2147 3.29325 16.7067C2.78534 16.1988 2.5 15.51 2.5 14.7917V7.08333H17.5ZM19.1667 14.5833C19.1667 13.3678 18.6838 12.202 17.8242 11.3424C16.9647 10.4829 15.7989 10 14.5833 10C13.3678 10 12.202 10.4829 11.3424 11.3424C10.4829 12.202 10 13.3678 10 14.5833C10 15.7989 10.4829 16.9647 11.3424 17.8242C12.202 18.6838 13.3678 19.1667 14.5833 19.1667C15.7989 19.1667 16.9647 18.6838 17.8242 17.8242C18.6838 16.9647 19.1667 15.7989 19.1667 14.5833ZM14.5833 14.5833H16.25C16.3605 14.5833 16.4665 14.6272 16.5446 14.7054C16.6228 14.7835 16.6667 14.8895 16.6667 15C16.6667 15.1105 16.6228 15.2165 16.5446 15.2946C16.4665 15.3728 16.3605 15.4167 16.25 15.4167H14.1667C14.0562 15.4167 13.9502 15.3728 13.872 15.2946C13.7939 15.2165 13.75 15.1105 13.75 15V12.5C13.75 12.3895 13.7939 12.2835 13.872 12.2054C13.9502 12.1272 14.0562 12.0833 14.1667 12.0833C14.2772 12.0833 14.3832 12.1272 14.4613 12.2054C14.5394 12.2835 14.5833 12.3895 14.5833 12.5V14.5833Z" fill="#737373"/>
</svg>
