<svg width="20" height="20" viewBox="0 0 20 20" fill="none" xmlns="http://www.w3.org/2000/svg">
<g clip-path="url(#clip0_36_1229)">
<path fill-rule="evenodd" clip-rule="evenodd" d="M6.66732 2.08331H12.084L15.834 5.83331V15.4166C15.834 15.6377 15.7462 15.8496 15.5899 16.0059C15.4336 16.1622 15.2217 16.25 15.0007 16.25H6.66732C6.4463 16.25 6.23434 16.1622 6.07806 16.0059C5.92178 15.8496 5.83398 15.6377 5.83398 15.4166V2.91665C5.83398 2.69563 5.92178 2.48367 6.07806 2.32739C6.23434 2.17111 6.4463 2.08331 6.66732 2.08331ZM14.584 5.83331L12.084 3.33331V5.41665C12.084 5.52715 12.1279 5.63313 12.206 5.71127C12.2842 5.78941 12.3901 5.83331 12.5007 5.83331H14.584ZM13.6286 8.87206C13.7067 8.9502 13.7506 9.05616 13.7506 9.16665C13.7506 9.27713 13.7067 9.38309 13.6286 9.46123L10.0007 13.0891L8.0394 11.1279C7.9635 11.0493 7.9215 10.9441 7.92245 10.8348C7.9234 10.7256 7.96722 10.6211 8.04448 10.5438C8.12173 10.4666 8.22624 10.4227 8.33548 10.4218C8.44473 10.4208 8.54998 10.4628 8.62857 10.5387L10.0007 11.9108L13.0394 8.87206C13.1175 8.79395 13.2235 8.75007 13.334 8.75007C13.4445 8.75007 13.5504 8.79395 13.6286 8.87206V8.87206Z" fill="#737373"/>
<path d="M5.00033 4.58331H4.16699V15.8333C4.16699 16.3858 4.38649 16.9158 4.77719 17.3065C5.16789 17.6972 5.69779 17.9166 6.25033 17.9166H14.167V17.0833H6.25033C5.9188 17.0833 5.60086 16.9516 5.36644 16.7172C5.13202 16.4828 5.00033 16.1648 5.00033 15.8333V4.58331Z" fill="#737373"/>
</g>
<defs>
<clipPath id="clip0_36_1229">
<rect width="20" height="20" fill="white"/>
</clipPath>
</defs>
</svg>
