<svg width="17" height="19" viewBox="0 0 17 19" fill="none" xmlns="http://www.w3.org/2000/svg">
<path d="M9.99967 0.666687V5.66669C9.99967 6.10871 10.1753 6.53264 10.4878 6.8452C10.8004 7.15776 11.2243 7.33335 11.6663 7.33335H16.6663V15.6667C16.6663 16.1087 16.4907 16.5326 16.1782 16.8452C15.8656 17.1578 15.4417 17.3334 14.9997 17.3334H9.32467C10.1872 16.4355 10.7141 15.2679 10.8167 14.0272C10.9193 12.7864 10.5913 11.5481 9.88797 10.5208C9.18463 9.49351 8.14888 8.73984 6.95501 8.38666C5.76114 8.03348 4.48205 8.10236 3.33301 8.58169V2.33335C3.33301 1.89133 3.5086 1.4674 3.82116 1.15484C4.13372 0.842282 4.55765 0.666687 4.99967 0.666687H9.99967Z" fill="#737373"/>
<path d="M11.2497 1.08337V5.66671C11.2497 5.77721 11.2936 5.8832 11.3717 5.96134C11.4499 6.03948 11.5558 6.08337 11.6663 6.08337H16.2497L11.2497 1.08337ZM9.99967 13.5834C9.99967 14.1853 9.88112 14.7813 9.65079 15.3373C9.42046 15.8934 9.08285 16.3987 8.65725 16.8243C8.23165 17.2499 7.72638 17.5875 7.17031 17.8178C6.61423 18.0482 6.01823 18.1667 5.41634 18.1667C4.81445 18.1667 4.21845 18.0482 3.66238 17.8178C3.1063 17.5875 2.60104 17.2499 2.17544 16.8243C1.74983 16.3987 1.41223 15.8934 1.18189 15.3373C0.951559 14.7813 0.833008 14.1853 0.833008 13.5834C0.833008 12.3678 1.31589 11.202 2.17544 10.3425C3.03498 9.48293 4.20077 9.00004 5.41634 9.00004C6.63192 9.00004 7.79771 9.48293 8.65725 10.3425C9.51679 11.202 9.99967 12.3678 9.99967 13.5834V13.5834ZM2.91634 13.1667C2.80583 13.1667 2.69985 13.2106 2.62171 13.2887C2.54357 13.3669 2.49967 13.4729 2.49967 13.5834C2.49967 13.6939 2.54357 13.7999 2.62171 13.878C2.69985 13.9561 2.80583 14 2.91634 14H6.91051L5.53801 15.3717C5.45977 15.4499 5.41581 15.5561 5.41581 15.6667C5.41581 15.7774 5.45977 15.8835 5.53801 15.9617C5.61625 16.0399 5.72236 16.0839 5.83301 16.0839C5.94365 16.0839 6.04977 16.0399 6.12801 15.9617L8.21134 13.8784C8.25014 13.8397 8.28093 13.7937 8.30194 13.7431C8.32294 13.6924 8.33375 13.6382 8.33375 13.5834C8.33375 13.5286 8.32294 13.4743 8.30194 13.4237C8.28093 13.3731 8.25014 13.3271 8.21134 13.2884L6.12801 11.205C6.04977 11.1268 5.94365 11.0828 5.83301 11.0828C5.72236 11.0828 5.61625 11.1268 5.53801 11.205C5.45977 11.2833 5.41581 11.3894 5.41581 11.5C5.41581 11.6107 5.45977 11.7168 5.53801 11.795L6.91051 13.1667H2.91634Z" fill="#737373"/>
</svg>
