<svg width="64" height="64" viewBox="0 0 64 64" fill="none" xmlns="http://www.w3.org/2000/svg">
<path d="M37.55 2.77C36.77 1.4 35.82 0.360002 34.25 0.0100021C33.83 0.0100021 33.42 0.0100021 33 0.0100021C32.97 0.0400021 32.95 0.0900021 32.92 0.0900021C30.62 0.670002 29.43 2.39 29.77 4.72C29.82 5.04 29.73 5.22 29.54 5.43C27.82 7.35 26.1 9.28 24.38 11.2C24.17 11.43 23.94 11.65 23.88 11.97C23.76 12.56 23.93 13.04 24.46 13.36C24.96 13.66 25.59 13.57 26.04 13.08C27.12 11.9 28.18 10.69 29.25 9.5C29.85 8.83 30.46 8.16 31.06 7.49C31.12 7.55 31.14 7.56 31.15 7.58C36.24 16.39 41.33 25.21 46.43 34.02C46.65 34.41 46.5 34.44 46.17 34.51C42.87 35.19 39.58 35.88 36.29 36.57C30.98 37.68 25.67 38.77 20.36 39.89C19.97 39.97 19.79 39.92 19.58 39.56C17.43 35.79 15.25 32.03 13.07 28.28C12.9 27.98 12.88 27.8 13.14 27.54C13.84 26.8 14.51 26.03 15.19 25.26C16.27 24.05 17.36 22.85 18.43 21.62C19.08 20.88 18.9 19.86 18.07 19.55C17.45 19.31 16.95 19.53 16.52 20.02C14.64 22.14 12.75 24.24 10.87 26.36C10.63 26.63 10.36 26.84 10.05 27.02C8.23002 28.06 6.40002 29.1 4.60002 30.16C2.46002 31.42 1.04002 33.24 0.36002 35.64C0.24002 36.05 0.26002 36.5 0.0200195 36.87C0.0200195 37.49 0.0200195 38.12 0.0200195 38.74C0.20002 38.93 0.17002 39.15 0.13002 39.38L0.0800195 39.37V39.38C0.0800195 39.8 0.0900195 40.22 0.21002 40.61C1.05002 43.37 2.79002 45.39 5.41002 46.58C7.67002 47.6 10 47.68 12.33 46.81C12.83 46.62 13.13 46.67 13.38 47.17C13.69 47.78 14.05 48.37 14.39 48.96C15.31 50.54 16.91 51.28 18.55 50.83C19.31 50.62 19.35 50.62 19.77 51.34C21.9 55.06 24.05 58.76 26.2 62.47C26.62 63.19 27.12 63.8 28 63.97C28.37 63.97 28.75 63.97 29.12 63.97C29.26 63.78 29.49 63.85 29.67 63.74C31.39 62.74 33.14 61.77 34.84 60.74C35.56 60.3 35.88 59.57 35.87 58.72C35.86 57.64 35.22 56.98 34.37 56.44C33.94 56.16 33.47 55.96 33.19 55.47C31.4 52.33 29.59 49.2 27.76 46.08C27.57 45.76 27.62 45.62 27.9 45.39C29.22 44.32 29.61 42.7 28.9 41.19C28.7 40.76 28.75 40.67 29.21 40.58C35.34 39.32 41.46 38.03 47.58 36.75C47.91 36.68 48.14 36.74 48.41 36.96C50.68 38.82 54.02 37.71 54.75 34.87C55.07 33.61 54.7 32.51 54.07 31.43C48.57 21.89 43.04 12.34 37.55 2.77ZM12.31 43.92C7.85002 46.29 2.51002 43.1 2.51002 37.69C2.60002 35.72 3.53002 33.78 5.58002 32.5C7.20002 31.49 8.88002 30.58 10.52 29.61C10.79 29.45 10.89 29.49 11.04 29.75C13.13 33.38 15.22 37.01 17.33 40.64C17.49 40.92 17.4 41.01 17.17 41.14C15.55 42.06 13.96 43.04 12.31 43.92ZM18.19 48.18C18.03 48.27 17.84 48.31 17.73 48.34C17.28 48.3 16.98 48.13 16.79 47.8C16.33 47.01 15.88 46.22 15.41 45.43C15.28 45.21 15.28 45.1 15.53 44.96C16.87 44.21 18.16 43.38 19.53 42.68C20.26 42.3 21.14 42.29 21.95 42.12C23.21 41.85 24.47 41.6 25.73 41.32C26.01 41.26 26.15 41.31 26.26 41.56C26.35 41.77 26.5 41.95 26.6 42.15C26.89 42.72 26.77 43.21 26.21 43.54C23.55 45.09 20.87 46.64 18.19 48.18ZM30.71 56.19C31.23 57.12 31.83 57.92 32.8 58.41C32.96 58.49 33.1 58.62 33.32 58.79C31.83 59.65 30.41 60.46 29 61.29C28.73 61.45 28.63 61.39 28.49 61.14C26.25 57.23 23.99 53.33 21.74 49.44C21.6 49.21 21.61 49.1 21.86 48.96C22.95 48.35 24.03 47.73 25.09 47.09C25.52 46.83 25.54 47.21 25.65 47.4C27.34 50.32 29.06 53.24 30.71 56.19ZM51.55 35.24C50.9 35.54 50.15 35.35 49.74 34.73C49.4 34.21 49.1 33.66 48.79 33.12C43.39 23.77 37.99 14.41 32.6 5.06C32.44 4.79 32.27 4.53 32.23 4.21C32.1 3.29 32.77 2.49 33.8 2.51C34.33 2.54 34.74 2.9 35.06 3.44C36.77 6.41 38.48 9.38 40.2 12.34C44.13 19.14 48.05 25.93 51.97 32.73C52.12 33 52.29 33.28 52.37 33.57C52.53 34.27 52.18 34.95 51.55 35.24Z" fill="#3247D5"/>
<path d="M63.81 6.52C63.44 5.98 62.92 5.77 62.37 5.96C61.8 6.16 61.48 6.57 61.5 7.18C61.51 7.76 61.84 8.15 62.38 8.33C62.92 8.51 63.48 8.28 63.82 7.75C63.87 7.67 63.93 7.59 63.99 7.5C63.99 7.25 63.99 7 63.99 6.75C63.93 6.68 63.87 6.6 63.81 6.52Z" fill="#3247D5"/>
<path d="M0.0100098 38.75C0.0100098 38.96 0.0100098 39.17 0.0100098 39.37H0.0700098H0.0800098C0.0500098 39.17 0.14001 38.95 0.0100098 38.75Z" fill="#3247D5"/>
<path d="M50.12 13C49.61 13.32 49.42 13.81 49.6 14.4C49.77 14.96 50.17 15.24 50.75 15.27C51.04 15.3 51.28 15.19 51.52 15.05C54.12 13.54 56.73 12.04 59.34 10.54C59.56 10.41 59.76 10.27 59.9 10.05C60.21 9.56001 60.17 8.99001 59.79 8.55001C59.37 8.07001 58.79 7.98001 58.15 8.35001C56.15 9.49001 54.16 10.65 52.16 11.8C51.48 12.2 50.79 12.58 50.12 13Z" fill="#3247D5"/>
<path d="M47.17 10.48C47.8 10.86 48.53 10.64 48.96 9.9C50.2 7.77 51.42 5.63 52.66 3.49C52.8 3.25 52.91 3.01 52.89 2.77C52.88 2.17 52.51 1.67 51.98 1.54C51.41 1.39 50.87 1.63 50.52 2.23C49.27 4.38 48.02 6.53 46.79 8.69C46.38 9.38 46.56 10.11 47.17 10.48Z" fill="#3247D5"/>
<path d="M59.99 17.7C59.06 17.69 58.1199 17.7 57.1899 17.7C56.2299 17.7 55.28 17.7 54.32 17.7C53.92 17.7 53.53 17.75 53.24 18.07C52.89 18.45 52.76 18.89 52.96 19.39C53.19 19.97 53.65 20.2 54.23 20.2C56.16 20.21 58.09 20.21 60.02 20.2C60.89 20.19 61.44 19.7 61.45 18.97C61.47 18.21 60.9 17.71 59.99 17.7Z" fill="#3247D5"/>
<path d="M21.31 17.75C22 17.76 22.58 17.18 22.57 16.49C22.56 15.82 22.02 15.27 21.35 15.26C20.65 15.25 20.09 15.8 20.1 16.51C20.1 17.19 20.63 17.74 21.31 17.75Z" fill="#3247D5"/>
</svg>
