<svg width="51" height="54" viewBox="0 0 51 54" fill="none" xmlns="http://www.w3.org/2000/svg">
<path d="M36.474 0.0779922C36.8515 0.203337 37.1638 0.473498 37.3421 0.829058C37.5205 1.18462 37.5503 1.59646 37.425 1.97399L35.925 6.47399C35.7993 6.85193 35.5286 7.16444 35.1725 7.34279C34.8163 7.52114 34.4039 7.5507 34.026 7.42499C33.6481 7.29928 33.3355 7.02858 33.1572 6.67245C32.9789 6.31632 32.9493 5.90393 33.075 5.52599L34.575 1.02599C34.6373 0.838993 34.7359 0.666116 34.8651 0.517248C34.9944 0.368379 35.1516 0.246436 35.328 0.158393C35.5044 0.0703496 35.6964 0.0179318 35.893 0.00413597C36.0896 -0.00965982 36.2871 0.0154372 36.474 0.0779922ZM47.565 5.56199C47.7043 5.42253 47.8147 5.257 47.89 5.07486C47.9653 4.89271 48.004 4.69752 48.0038 4.50043C48.0037 4.30334 47.9647 4.1082 47.8892 3.92617C47.8136 3.74413 47.703 3.57876 47.5635 3.43949C47.424 3.30023 47.2585 3.18979 47.0764 3.1145C46.8942 3.0392 46.699 3.00052 46.5019 3.00066C46.3048 3.0008 46.1097 3.03976 45.9277 3.11531C45.7456 3.19086 45.5803 3.30153 45.441 3.44099L39.441 9.44099C39.1678 9.7239 39.0166 10.1028 39.02 10.4961C39.0234 10.8894 39.1812 11.2656 39.4593 11.5437C39.7374 11.8218 40.1136 11.9796 40.5069 11.983C40.9002 11.9864 41.2791 11.8352 41.562 11.562L47.565 5.56199ZM16.821 6.43799C17.2395 5.55669 17.8666 4.79073 18.6479 4.20649C19.4293 3.62225 20.3413 3.23736 21.305 3.08517C22.2687 2.93298 23.2549 3.01808 24.1783 3.33309C25.1017 3.64811 25.9343 4.18355 26.604 4.89299L46.365 25.833C47.0244 26.5317 47.5065 27.3784 47.7705 28.3022C48.0346 29.2259 48.073 30.1995 47.8825 31.1411C47.692 32.0828 47.2782 32.9649 46.6758 33.7133C46.0734 34.4618 45.3001 35.0546 44.421 35.442L32.61 40.65C33.0478 42.2115 33.1184 43.8531 32.8163 45.4464C32.5142 47.0397 31.8475 48.5415 30.8685 49.8343C29.8894 51.1271 28.6245 52.1759 27.1728 52.8985C25.721 53.6212 24.1217 53.9982 22.5 54C20.7126 54.001 18.9547 53.5454 17.3927 52.6765C15.8308 51.8076 14.5167 50.5541 13.575 49.035L9.97499 50.622C9.14769 50.9863 8.22985 51.093 7.34105 50.9282C6.45225 50.7634 5.63368 50.3347 4.99199 49.698L1.32599 46.068C0.663105 45.4114 0.220697 44.565 0.0599936 43.6459C-0.10071 42.7269 0.0282378 41.7806 0.428992 40.938L16.821 6.43799ZM16.359 47.805C17.3547 49.2264 18.8125 50.2585 20.484 50.7255C22.1554 51.1924 23.9371 51.0652 25.5253 50.3656C27.1135 49.666 28.4099 48.4372 29.1936 46.8888C29.9773 45.3404 30.1997 43.5681 29.823 41.874L16.359 47.805ZM45 15C44.6022 15 44.2206 15.158 43.9393 15.4393C43.658 15.7206 43.5 16.1022 43.5 16.5C43.5 16.8978 43.658 17.2793 43.9393 17.5607C44.2206 17.842 44.6022 18 45 18H49.5C49.8978 18 50.2794 17.842 50.5607 17.5607C50.842 17.2793 51 16.8978 51 16.5C51 16.1022 50.842 15.7206 50.5607 15.4393C50.2794 15.158 49.8978 15 49.5 15H45Z" fill="white"/>
</svg>
