<svg width="60" height="60" viewBox="0 0 60 60" fill="none" xmlns="http://www.w3.org/2000/svg">
<path d="M56.49 27.09C55.63 26.89 54.82 27.07 53.99 27.38C53.99 26 54 24.69 53.98 23.38C53.98 23.09 54.05 22.96 54.36 23C54.5 23.02 54.65 23 54.8 23C55.3 23.02 55.7 22.86 55.91 22.37C56.12 21.87 55.9 21.49 55.56 21.14C53.14 18.73 50.73 16.31 48.31 13.9C47.07 12.66 46.91 12.67 45.66 13.92C45.13 14.45 44.6 14.98 44 15.59C44 11.08 44 6.72 44 2.37C44 1.32 43.69 1.01 42.62 1.01C39.56 1.01 36.5 1.01 33.44 1.01C32.28 1.01 32 1.3 32 2.45C32 5.8 31.99 9.15 32.01 12.51C32.01 12.92 31.9 13.04 31.5 13.02C30.79 12.99 30.07 12.94 29.38 13.03C28.33 13.17 27.67 12.87 27.36 11.8C27.13 11.01 26.25 10.42 26.31 9.62C26.37 8.81 26.9 8.04 27.22 7.25C27.71 6.04 28.22 4.83 28.7 3.62C28.97 2.94 28.86 2.31 28.36 1.77C27.89 1.26 27.3 1.13 26.65 1.29C26.35 1.36 26.08 1.53 25.8 1.67C24.44 2.34 24.44 2.35 23.52 1.12C23.19 0.679996 22.86 0.269996 22.29 0.129996C21.38 -0.0900038 20.79 0.379996 20.22 0.979996C19.88 1.34 19.52 1.92 19.14 1.94C18.73 1.96 18.53 1.24 18.2 0.879996C18.17 0.849996 18.15 0.809996 18.12 0.779996C17.39 -0.120004 16.29 -0.190004 15.45 0.609996C15 1.06 14.51 1.49 14.1 1.99C13.73 2.44 13.37 2.47 12.86 2.29C12.24 2.07 11.58 1.94 10.95 1.74C10.14 1.49 9.42001 1.57 8.87001 2.27C8.32001 2.96 8.43001 3.68 8.84001 4.42C9.75001 6.05 10.62 7.71 11.52 9.34C11.67 9.61 11.71 9.79 11.45 10.03C10.93 10.51 10.53 11.1 10.15 11.7C7.40001 15.98 6.71001 20.72 7.06001 25.69C7.08001 25.96 7.15001 26.22 7.22001 26.48C7.93001 29.25 10.27 31 13.26 31C25.73 31 38.2 31 50.68 31C50.89 31 51.11 31 51.38 31C50.69 32.38 50.04 33.65 49.41 34.94C49.3 35.17 49.13 35.28 48.92 35.38C47.35 36.05 45.79 36.71 44.23 37.39C43.9 37.53 43.77 37.54 43.6 37.16C42.7 35.08 41.09 34.01 38.82 34.01C34.07 34 29.33 34.01 24.58 34.01C21.37 34.01 18.25 34.56 15.23 35.64C13.43 36.28 11.72 37.12 10.02 38.15C10.02 37.45 10.02 36.84 10.02 36.22C10 34.81 9.20001 34 7.80001 34C5.97001 34 4.14001 34 2.30001 34C0.79001 34 0.0100098 34.79 0.0100098 36.32C0.0100098 40.61 0.0100098 44.9 0.0100098 49.19C0.0100098 52.08 0.0100098 54.98 0.0100098 57.87C0.0100098 59.09 0.82001 59.97 1.99001 59.99C4.01001 60.01 6.03001 60.01 8.05001 59.99C9.14001 59.98 9.96001 59.12 10 58.03C10.02 57.55 10.04 57.07 9.99001 56.59C9.94001 56.1 10.11 55.98 10.59 55.98C17.79 56 25 55.99 32.2 55.99C34.04 55.99 35.86 55.86 37.66 55.49C45.55 53.87 51.56 49.57 55.71 42.68C57.82 39.18 58.83 35.32 59.39 31.32C59.68 29.34 58.45 27.55 56.49 27.09ZM10.77 3.77C11.6 4 12.32 4.19 13.02 4.41C13.8 4.66 14.45 4.47 15.01 3.9C15.45 3.45 15.91 3.03 16.33 2.57C16.6 2.28 16.77 2.21 17.01 2.6C17.2 2.92 17.44 3.21 17.68 3.5C18.42 4.41 19.49 4.5 20.35 3.7C20.85 3.23 21.32 2.73 21.83 2.21C22.21 2.71 22.55 3.18 22.91 3.63C23.56 4.46 24.31 4.62 25.28 4.18C25.67 4.01 26.01 3.73 26.56 3.61C25.82 5.4 25.12 7.11 24.43 8.82C24.34 9.04 24.2 9.02 24.04 9.02C23.27 9.02 22.5 9.02 21.65 9.02C22.02 8.27 22.36 7.56 22.72 6.87C22.87 6.59 22.89 6.44 22.55 6.26C21.14 5.54 21.14 5.52 20.43 6.94C20.16 7.48 19.87 8.01 19.64 8.56C19.49 8.93 19.25 8.97 18.88 9.03C17.92 9.18 17.35 8.83 17.11 7.9C17.07 7.76 16.99 7.64 16.92 7.51C16.68 7.06 16.59 6.31 16.18 6.22C15.79 6.13 15.27 6.61 14.79 6.81C14.52 6.93 14.46 7.05 14.61 7.32C14.89 7.85 15.13 8.4 15.39 8.96C15.3 8.98 15.24 8.99 15.19 9.01C14 9.26 13.32 8.78 12.84 7.65C12.28 6.34 11.5 5.13 10.77 3.77ZM24.24 13.01C23.35 13.02 23 13.36 23 14.26C23 18.92 22.99 23.59 23.02 28.25C23.02 28.87 22.88 29.03 22.25 29.02C19.25 28.98 16.25 29.01 13.26 29C10.69 29 9.02001 27.31 9.01001 24.74C8.99001 22.24 8.95001 19.75 9.75001 17.33C10.44 15.27 11.33 13.32 12.68 11.59C12.99 11.19 13.35 11 13.89 11C17.26 11.03 20.64 11.02 24.01 11C24.46 11 24.75 11.1 24.95 11.51C25.18 11.99 25.46 12.45 25.76 13.01C25.16 13.01 24.7 13.01 24.24 13.01ZM31.5 29.01C29.5 28.99 27.5 28.99 25.5 29.01C25.09 29.01 24.99 28.91 24.99 28.5C25.01 24.17 25.01 19.84 24.99 15.51C24.99 15.1 25.09 14.99 25.5 15C27.5 15.02 29.5 15.02 31.5 15C31.91 15 32.01 15.1 32.01 15.51C31.99 17.67 32 19.84 32 22C32 24.16 31.99 26.33 32.01 28.5C32.01 28.91 31.91 29.02 31.5 29.01ZM7.51001 58C5.84001 57.98 4.18001 57.98 2.51001 58C2.10001 58.01 2.00001 57.9 2.00001 57.49C2.02001 53.97 2.01001 50.45 2.01001 46.93C2.01001 43.47 2.02001 40.02 2.00001 36.56C2.00001 36.09 2.11001 35.97 2.57001 35.98C4.21001 36.01 5.86001 36.01 7.50001 35.98C7.91001 35.97 8.01001 36.09 8.01001 36.49C8.00001 43.49 8.00001 50.48 8.01001 57.48C8.02001 57.9 7.92001 58.01 7.51001 58ZM40.01 28.51C40.02 28.93 39.89 29.02 39.49 29.02C37.82 29 36.16 29 34.49 29.02C34.07 29.03 33.98 28.9 33.98 28.5C34 24.33 34 20.17 34 16.01C34 11.87 34.01 7.72 33.99 3.58C33.99 3.12 34.09 3 34.56 3C36.87 3.03 39.18 3.02 41.49 3C41.89 3 42.01 3.09 42 3.51C41.98 8.07 41.99 12.63 42 17.19C42 17.49 41.91 17.69 41.7 17.89C40.62 18.96 39.55 20.04 38.47 21.11C38.11 21.47 37.85 21.85 38.08 22.38C38.3 22.9 38.74 23.07 39.25 23C39.89 22.91 40.03 23.15 40.01 23.76C39.96 25.34 39.98 26.92 40.01 28.51ZM41.86 20.56C43.43 18.98 45.02 17.42 46.57 15.83C46.88 15.51 47.04 15.45 47.39 15.81C48.97 17.44 50.59 19.03 52.19 20.63C52.29 20.73 52.38 20.83 52.52 20.98C48.8 20.98 45.18 20.98 41.46 20.98C41.63 20.81 41.74 20.68 41.86 20.56ZM46.49 29.01C46.08 29.01 45.96 28.91 45.98 28.5C46.01 27.79 46 27.08 45.98 26.38C45.97 26.08 46.06 25.96 46.36 26C46.38 26 46.4 26 46.42 26C47.98 25.96 47.98 25.96 47.98 27.5C47.99 29.02 47.99 29 46.49 29.01ZM49.99 27.55C49.99 26.76 50 25.97 49.99 25.18C49.98 24.39 49.62 24.02 48.86 24.01C47.61 24 46.36 24 45.11 24.01C44.38 24.01 44 24.39 44 25.13C43.99 26.28 43.98 27.42 44.01 28.57C44.02 28.93 43.9 29.01 43.56 29.01C42 29.03 42 29.04 42 27.49C42 26.16 42.02 24.82 41.99 23.49C41.98 23.07 42.12 22.98 42.51 22.99C44 23.02 45.5 23 47 23C48.5 23 50 23.02 51.5 22.99C51.93 22.98 52 23.12 52 23.51C51.98 25.18 51.97 26.84 52 28.51C52.01 28.94 51.86 29.01 51.48 29.01C49.99 29 49.99 29.02 49.99 27.55ZM53.38 42.68C49.18 48.95 43.35 52.66 35.87 53.76C34.13 54.02 32.38 53.99 30.64 53.99C27.83 53.99 25.02 53.99 22.21 53.99C18.36 53.99 14.51 53.98 10.65 54C10.16 54 9.99001 53.93 9.99001 53.38C10.02 49.28 10.01 45.18 10 41.08C10 40.68 10.11 40.45 10.45 40.23C14.66 37.51 19.25 36.05 24.27 36.01C29.14 35.97 34.01 36 38.88 36C40.64 36 41.98 37.3 41.99 38.98C42 40.69 40.65 41.99 38.85 42C33.78 42 28.7 42.01 23.62 41.98C23.08 41.98 22.98 42.13 22.99 42.63C23.03 44 23 44 24.39 44C29.1 44 33.8 44 38.51 44C41.4 44 43.09 42.74 43.87 39.95C43.96 39.64 44.17 39.59 44.39 39.49C46.29 38.67 48.2 37.84 50.11 37.04C50.54 36.86 50.82 36.59 51.03 36.18C52.03 34.15 53.04 32.13 54.06 30.11C54.55 29.14 55.49 28.77 56.39 29.15C57.07 29.44 57.55 30.18 57.45 30.9C56.87 35.09 55.77 39.11 53.38 42.68Z" fill="#3247D5"/>
<path d="M52.9901 4.5C52.9901 6.06 52.9901 6.05 54.5801 6.02C54.8901 6.01 55.02 5.95 55 5.61C54.97 5.08 54.99 4.55 54.98 4.02C54.32 4.02 53.66 4.02 53 4.02C53 4.18 52.9901 4.34 52.9901 4.5Z" fill="#3247D5"/>
<path d="M4.01004 8.52001C4.01004 6.96001 4.01004 6.97001 2.42004 7.00001C2.11004 7.01001 1.98004 7.07001 2.00004 7.41001C2.04004 7.94001 2.02004 8.47001 2.02004 9.00001C2.68004 9.00001 3.34004 9.00001 4.00004 9.00001C4.00004 8.84001 4.01004 8.68001 4.01004 8.52001Z" fill="#3247D5"/>
<path d="M59.01 7.01001C57.98 7.01001 57.98 7.01001 57.98 8.05001C57.98 9.01001 57.98 9.01001 58.95 9.01001C59.98 9.01001 59.98 9.01001 59.98 7.97001C59.99 7.01001 59.99 7.01001 59.01 7.01001Z" fill="#3247D5"/>
<path d="M0.410024 11.02C0.940024 10.98 1.47002 11 2.00002 11C2.00002 10.34 2.00002 9.68001 2.00002 9.02001C1.84002 9.02001 1.68002 9.01001 1.52002 9.01001C-0.0399759 9.01001 -0.0299759 9.01001 2.41031e-05 10.6C0.0100241 10.91 0.0700242 11.04 0.410024 11.02Z" fill="#3247D5"/>
<path d="M52 10.01C50.99 10.01 50.9901 10.01 50.9901 11C50.9901 12.01 50.99 12.01 51.98 12.01C52.99 12.01 52.9901 12.01 52.9901 11.02C52.9901 10.01 52.99 10.01 52 10.01Z" fill="#3247D5"/>
<path d="M2.01001 11.49C2.01001 13.05 2.01001 13.04 3.60001 13.01C3.91001 13 4.04001 12.95 4.02001 12.61C3.99001 12.08 4.00001 11.55 4.00001 11.02C3.34001 11.02 2.68001 11.02 2.02001 11.02C2.02001 11.18 2.01001 11.34 2.01001 11.49Z" fill="#3247D5"/>
<path d="M4.50002 11.01C6.06002 11.01 6.05002 11.01 6.02002 9.42001C6.01002 9.11001 5.95002 8.98001 5.61002 9.00001C5.08002 9.03001 4.55002 9.01001 4.02002 9.02001C4.02002 9.68001 4.02002 10.34 4.02002 11C4.18002 11 4.34002 11.01 4.50002 11.01Z" fill="#3247D5"/>
<path d="M0.96001 17.01C0.0100098 17.01 0.0100098 17.01 0.0100098 17.94C0.0100098 19.01 0.0100098 19.01 1.06001 19.01C2.01001 19.01 2.01001 19.01 2.01001 18.08C2.01001 17.01 2.01001 17.01 0.96001 17.01Z" fill="#3247D5"/>
<path d="M5.04001 2.01001C6.01001 2.01001 6.01001 2.01001 6.01001 1.05001C6.01001 0.0100098 6.01001 0.0100098 4.98001 0.0100098C4.01001 0.0100098 4.01001 0.0100098 4.01001 0.97001C4.01001 2.01001 4.01001 2.01001 5.04001 2.01001Z" fill="#3247D5"/>
<path d="M54.99 1.53C54.99 -0.0299966 54.99 -0.0199966 53.4 0.0100034C53.09 0.0200034 52.96 0.0800034 52.98 0.420003C53.02 0.940003 53 1.47 53 2C53.66 2 54.32 2 54.98 2C54.98 1.84 54.99 1.68 54.99 1.53Z" fill="#3247D5"/>
<path d="M51.39 4.02001C51.92 3.99001 52.45 4.01001 52.98 4.00001C52.98 3.34001 52.98 2.68001 52.98 2.02001C52.82 2.02001 52.66 2.01001 52.5 2.01001C50.94 2.01001 50.95 2.01001 50.98 3.60001C50.99 3.91001 51.05 4.04001 51.39 4.02001Z" fill="#3247D5"/>
<path d="M55.48 4.01001C57.04 4.01001 57.03 4.01001 57 2.42001C56.99 2.11001 56.93 1.98001 56.59 2.00001C56.06 2.04001 55.53 2.02001 55 2.02001C55 2.68001 55 3.34001 55 4.00001C55.16 4.01001 55.32 4.01001 55.48 4.01001Z" fill="#3247D5"/>
<path d="M55 4.02C55 4.01 55 4.01 55 4C55 4 55.0001 4 54.9901 4C55.0001 4.01 55 4.01 55 4.02Z" fill="#3247D5"/>
<path d="M55 2C54.99 2 54.99 2 54.98 2C54.98 2.01 54.98 2.01 54.98 2.02L55 2Z" fill="#3247D5"/>
<path d="M52.98 2C52.98 2.01 52.98 2.01 52.98 2.02C52.98 2.02 52.98 2.02 52.99 2.02C52.99 2.02 52.99 2.01 52.98 2Z" fill="#3247D5"/>
<path d="M54.98 4.02C54.99 4.02 54.99 4.02 55 4.02L54.98 4C54.98 4.01 54.98 4.01 54.98 4.02Z" fill="#3247D5"/>
<path d="M53 2C52.99 2 52.99 2 52.98 2L53 2.02C53 2.02 53 2.01 53 2Z" fill="#3247D5"/>
<path d="M52.98 4C52.98 4.01 52.98 4.01 52.98 4.02C52.99 4.01 52.99 4.01 52.98 4Z" fill="#3247D5"/>
<path d="M53.0801 3.93C53.6901 3.78 54.2901 3.78 54.9001 3.93C54.9301 3.95 54.95 3.98 54.98 4H54.9901C54.6901 3.34 54.6901 2.68 54.9901 2.02H54.98C54.95 2.04 54.9301 2.07 54.9001 2.09C54.2901 2.24 53.6901 2.24 53.0801 2.09C53.0501 2.07 53.03 2.05 53 2.02H52.9901C53.2901 2.68 53.2901 3.34 52.9901 4H53C53.03 3.98 53.0601 3.96 53.0801 3.93Z" fill="#3247D5"/>
<path d="M52.98 4.02C52.99 4.02 52.99 4.02 53 4.02C53 4.01 53 4.01 53 4L52.98 4.02Z" fill="#3247D5"/>
<path d="M3.91001 10.92C3.94001 10.95 3.97001 10.97 4.00001 11H4.01001C3.71001 10.34 3.71001 9.68 4.01001 9.02H4.00001C3.97001 9.04 3.95001 9.07 3.92001 9.09C3.31001 9.24 2.71001 9.24 2.10001 9.09C2.07001 9.07 2.05001 9.04 2.02001 9.02H2.01001C2.33001 9.64 2.22001 10.27 2.10001 10.91C2.07001 10.94 2.05001 10.97 2.02001 11V11.01C2.64001 10.69 3.27001 10.8 3.91001 10.92Z" fill="#3247D5"/>
<path d="M2 11.02C2.01 11.02 2.01 11.02 2.02 11.02C2.02 11.02 2.02 11.02 2.02 11.01C2.01 11.01 2.01 11.01 2 11.02Z" fill="#3247D5"/>
<path d="M2 11C2 11.01 2 11.01 2 11.02L2.02 11C2.01 11 2.01 11 2 11Z" fill="#3247D5"/>
<path d="M2 9C2 9.01 2 9.01 2 9.02C2 9.02 2 9.02 2.01 9.02C2.01 9.01 2.01 9.01 2 9Z" fill="#3247D5"/>
<path d="M4.02001 11.02C4.02001 11.01 4.02001 11.01 4.02001 11C4.02001 11 4.02001 11 4.01001 11C4.02001 11.01 4.02001 11.01 4.02001 11.02Z" fill="#3247D5"/>
<path d="M4.02 9C4.01 9 4.01 9 4 9C4 9.01 4 9.01 4 9.02L4.02 9Z" fill="#3247D5"/>
<path d="M2.02 9C2.02 9 2.01 9 2 9L2.02 9.02C2.02 9.01 2.02 9.01 2.02 9Z" fill="#3247D5"/>
<path d="M4 11.02C4.01 11.02 4.01 11.02 4.02 11.02L4 11C4 11.01 4 11.01 4 11.02Z" fill="#3247D5"/>
<path d="M17.52 18C18.54 18.02 19.56 18.01 20.58 18.01C20.72 18.01 20.88 18.08 20.99 17.93C21.42 17.34 20.82 16.09 20.07 16.02C19.82 16 19.57 16.01 19.32 16.01C19.14 16.01 18.96 16 19.01 15.76C19.18 14.96 18.68 14.97 18.13 15.01C17.86 15.03 17.59 15.03 17.32 15.01C17.07 14.99 16.96 15.09 17.01 15.33C17.15 15.99 16.8 16.05 16.26 16.03C15.37 15.99 15.02 16.37 15.01 17.26C15.01 18.09 15.01 18.92 15.01 19.76C15.01 20.66 15.35 21.01 16.24 21.02C17.01 21.03 17.78 21.05 18.55 21.01C18.96 20.99 19.02 21.14 19.02 21.5C19.02 21.87 18.97 22.07 18.53 22.03C18.03 21.98 17.53 22.02 17.03 22.02C16.49 22.02 15.95 22.02 15.41 22.02C15.28 22.02 15.12 21.95 15.02 22.12C14.6 22.87 15.24 23.98 16.11 24.01C16.32 24.02 16.53 24.02 16.73 24.01C16.95 23.99 17.05 24.09 17.01 24.3C16.85 25.01 17.25 25.08 17.8 25.02C18.09 24.99 18.38 25 18.67 25.02C18.94 25.04 19.07 24.94 19.01 24.67C18.88 24.04 19.22 23.99 19.73 24C20.67 24.03 21.01 23.67 21.01 22.74C21.01 21.91 21.02 21.08 21.01 20.24C21 19.38 20.65 19.02 19.81 19.01C19.04 19 18.27 18.98 17.5 19.02C17.06 19.04 17.01 18.87 17 18.5C16.97 18.06 17.14 17.99 17.52 18Z" fill="#3247D5"/>
<path d="M37 18.06C37 17.87 36.98 17.68 37 17.5C37.07 17.07 36.8701 17.01 36.4901 16.99C36.0601 16.98 35.9601 17.13 35.9901 17.52C36.0201 17.85 36.0301 18.19 35.9901 18.52C35.9401 18.95 36.12 19.01 36.51 19.03C36.94 19.04 37.06 18.89 37 18.5C36.98 18.35 37 18.2 37 18.06Z" fill="#3247D5"/>
<path d="M39 5.95001C39 6.10001 39 6.24001 39 6.39001C38.99 6.74001 38.92 7.04001 39.5 7.04001C40.08 7.04001 40 6.73001 40 6.39001C40 6.10001 39.97 5.80001 40.01 5.52001C40.05 5.10001 39.9 5.00001 39.49 4.99001C39.08 4.99001 38.93 5.11001 38.99 5.51001C39.01 5.66001 39 5.80001 39 5.95001Z" fill="#3247D5"/>
<path d="M37 5.97C37 5.74 37 5.51 37 5.28C37 5.16 37.01 5.06 36.83 5.01C36.27 4.85 36 5.04 36 5.62C36 5.91 36.02 6.2 35.99 6.49C35.96 6.86 36.03 7.03 36.48 7.03C36.94 7.03 37.07 6.89 37 6.47C36.98 6.3 37 6.13 37 5.97Z" fill="#3247D5"/>
<path d="M39.4901 11.03C39.9601 11.02 40.06 10.86 40 10.45C39.98 10.31 40 10.16 40 10.01C40 9.76 40 9.51 40 9.26C40 9.13 40 9.04 39.82 9C39.25 8.85 39 9.03 39 9.62C39 9.89 39.02 10.16 39 10.43C38.97 10.8 38.9801 11.04 39.4901 11.03Z" fill="#3247D5"/>
<path d="M40 18.04C40 17.87 39.98 17.7 40 17.54C40.07 17.1 39.9 16.98 39.46 16.99C39.07 17 38.94 17.09 38.99 17.48C39.02 17.81 39.01 18.15 38.99 18.48C38.97 18.83 39 19.04 39.46 19.03C39.9 19.02 40.07 18.91 39.99 18.48C39.98 18.33 40 18.18 40 18.04Z" fill="#3247D5"/>
<path d="M36.4901 11.03C36.9601 11.02 37.06 10.86 37 10.45C36.98 10.31 37 10.16 37 10.01C37 9.76 37 9.51 37 9.26C37 9.13 37 9.04 36.82 9C36.25 8.85 36 9.03 36 9.62C36 9.89 36.02 10.16 36 10.43C35.97 10.8 35.9801 11.04 36.4901 11.03Z" fill="#3247D5"/>
<path d="M36.47 12.99C36.1 13.01 35.94 13.07 35.99 13.47C36.03 13.8 36.03 14.14 35.99 14.47C35.94 14.9 36.07 15.03 36.52 15.03C36.98 15.03 37.04 14.85 37 14.49C36.98 14.35 37 14.2 37 14.05C37 13.88 36.98 13.71 37 13.55C37.07 13.12 36.93 12.97 36.47 12.99Z" fill="#3247D5"/>
<path d="M39.47 12.99C39.1 13.01 38.94 13.06 38.99 13.47C39.03 13.8 39.03 14.14 38.99 14.47C38.94 14.9 39.07 15.03 39.52 15.03C39.97 15.03 40.04 14.85 40 14.49C39.98 14.35 40 14.2 40 14.05C40 13.88 39.98 13.71 40 13.55C40.07 13.12 39.93 12.97 39.47 12.99Z" fill="#3247D5"/>
<path d="M4.45003 39C4.43003 39 4.41003 39 4.39003 39C4.10003 38.95 3.99003 39.07 4.00003 39.37C4.02003 40.08 4.03003 40.79 4.00003 41.49C3.98003 41.89 4.09003 42.01 4.51003 42.01C6.01003 42 6.01003 42.02 6.01003 40.5C6.01003 38.96 6.01003 38.96 4.45003 39Z" fill="#3247D5"/>
<path d="M28 18.02C28 17.77 28 17.52 28 17.27C28 17.15 28 17.05 27.83 17C27.26 16.85 27 17.03 27 17.62C27 17.89 27.01 18.16 27 18.43C26.98 18.79 26.97 19.04 27.49 19.03C27.95 19.02 28.07 18.87 28.01 18.46C27.98 18.31 28 18.17 28 18.02Z" fill="#3247D5"/>
<path d="M31 17.96C31 17.73 31 17.5 31 17.27C31 17.15 31 17.05 30.83 17C30.26 16.85 30 17.03 30 17.62C30 17.89 30.01 18.16 30 18.43C29.98 18.79 29.97 19.04 30.49 19.03C30.95 19.02 31.07 18.87 31.01 18.46C30.98 18.29 31 18.12 31 17.96Z" fill="#3247D5"/>
<path d="M27 21.99C27 22.24 27 22.49 27 22.74C27 22.87 27 22.96 27.18 23C27.75 23.15 28 22.98 28 22.38C28 22.11 27.98 21.84 28 21.57C28.03 21.2 28.02 20.97 27.51 20.98C27.04 20.99 26.94 21.15 27 21.56C27.02 21.7 27 21.85 27 21.99Z" fill="#3247D5"/>
<path d="M30.52 23.02C30.97 23.02 31.05 22.85 31 22.48C30.98 22.34 31 22.19 31 22.04C31 21.85 30.97 21.66 31.01 21.48C31.08 21.03 30.86 20.99 30.49 20.99C30.13 20.99 29.95 21.05 30 21.46C30.04 21.79 30.04 22.13 30 22.46C29.95 22.88 30.06 23.02 30.52 23.02Z" fill="#3247D5"/>
<path d="M31 25.95C31 25.72 31 25.49 31 25.26C31 25.13 31.0001 25.04 30.8301 24.99C30.2501 24.85 30 25.02 30 25.62C30 25.89 30.02 26.16 30 26.43C29.97 26.8 29.9801 27.03 30.4901 27.03C30.9601 27.02 31.06 26.86 31 26.46C30.98 26.29 31 26.12 31 25.95Z" fill="#3247D5"/>
<path d="M28 26.03C28 25.86 27.98 25.69 28 25.53C28.07 25.09 27.9 24.97 27.46 24.98C27.07 24.99 26.95 25.08 26.99 25.47C27.02 25.8 27.01 26.14 26.99 26.47C26.97 26.82 27 27.03 27.46 27.02C27.9 27.01 28.07 26.9 27.99 26.47C27.98 26.33 28 26.18 28 26.03Z" fill="#3247D5"/>
</svg>
