<svg width="62" height="62" viewBox="0 0 62 62" fill="none" xmlns="http://www.w3.org/2000/svg">
<path d="M55.1 31.37C54.64 31.03 54.75 30.91 55.12 30.62C60.41 26.44 62.72 20.99 61.74 14.31C60.74 7.57001 55.63 2.09001 49.11 0.510005C42.35 -1.11999 35.45 1.36001 31.36 6.92001C31.04 7.36001 30.92 7.27001 30.64 6.90001C27.22 2.40001 22.64 0.170006 17.02 -0.00999451C16.1 5.49294e-06 15.19 0.0800055 14.28 0.230006C7.6 1.33001 2.06 6.41001 0.520004 12.86C-1.1 19.66 1.36 26.55 6.9 30.63C7.36 30.97 7.26 31.08 6.88 31.38C1.44 35.68 -0.949996 41.31 0.360004 48.11C1.73 55.27 6.22001 59.93 13.34 61.52C20.36 63.09 26.19 60.72 30.65 55.07C30.98 54.65 31.08 54.73 31.37 55.09C35.56 60.41 41.02 62.71 47.73 61.73C54.4 60.75 59.93 55.6 61.49 49.13C63.11 42.36 60.64 35.44 55.1 31.37ZM38.29 3.60001C47.22 -0.909995 58.14 4.56001 59.73 14.45C60.75 20.81 58.41 25.85 53.17 29.57C52.82 29.82 52.55 29.81 52.17 29.63C49.04 28.15 45.75 27.67 42.33 28.23C41.8 28.32 41.6 28.21 41.45 27.66C41.07 26.31 40.37 25.11 39.45 23.95C40.53 23.71 41.26 23.17 41.69 22.26C41.8 22.04 41.94 22 42.16 22C44.05 22.01 45.95 22.01 47.84 22C48.08 22 48.19 22.08 48.31 22.29C49.62 24.6 52.34 24.59 53.67 22.27C53.8 22.04 53.93 22.01 54.15 22C54.65 21.99 55.15 22.05 55.64 21.92C57.01 21.58 57.94 20.45 57.97 19.05C57.99 17.99 57.99 16.93 57.97 15.86C57.95 14.83 57.36 14.1 56.33 13.87C55.32 13.64 54.3 13.44 53.27 13.26C52.93 13.2 52.78 13.06 52.72 12.72C52.58 11.9 52.42 11.08 52.22 10.28C51.89 8.94001 50.74 8.03001 49.36 8.02001C46.45 8.00001 43.51 8.00001 40.58 8.02001C39.21 8.03001 38.07 8.96001 37.74 10.3C37.55 11.11 37.39 11.93 37.25 12.74C37.19 13.06 37.05 13.19 36.74 13.25C35.72 13.44 34.7 13.64 33.68 13.86C32.62 14.09 32 14.82 32.01 15.88C32.03 17.17 31.87 18.46 32.11 19.74C32.15 19.95 32.12 20.06 31.87 20.03C31.64 20.01 31.41 20 31.18 20C30.26 20 30.26 20 30.14 19.12C29.27 12.68 32.5 6.53001 38.29 3.60001ZM46.43 53.99C46.28 53.99 46.14 53.99 45.99 53.99C45.82 53.99 45.66 53.99 45.49 53.99C43.84 53.99 43.84 53.99 43.98 52.3C44 52.06 44.06 51.98 44.3 51.99C45.42 52 46.55 52 47.67 51.99C47.92 51.99 48.02 52.07 47.98 52.31C47.98 52.33 47.98 52.35 47.98 52.37C48.07 53.99 48.07 53.99 46.43 53.99ZM45.93 49.99C43.45 49.99 40.97 49.98 38.5 50C38.09 50 37.99 49.9 37.99 49.49C38 47.99 37.98 47.99 39.5 47.99C44.14 47.99 48.79 48 53.43 47.98C53.9 47.98 54.02 48.09 54.01 48.56C53.98 50 54 50 52.56 50C50.35 49.99 48.14 49.99 45.93 49.99ZM54 45.48C54.01 45.94 53.86 46.01 53.44 46.01C50.94 45.99 48.44 46 45.95 46C43.47 46 41 45.99 38.52 46.01C38.07 46.01 37.98 45.88 37.99 45.46C38.02 43.67 38.02 41.88 37.99 40.09C37.98 39.65 38.18 39.41 38.43 39.08C39.16 38.08 40.1 37.97 41.25 37.98C45.31 38.04 49.37 38.01 53.43 37.99C53.87 37.99 54.03 38.05 54.02 38.55C53.97 40.86 53.98 43.17 54 45.48ZM30.96 40C26.03 39.98 22.01 35.94 22 31C22 26.04 26.04 22 31.01 22C35.97 22 40.01 26.05 40 31.02C39.99 35.98 35.93 40.01 30.96 40ZM19.6 18C17.87 18.02 16.14 18.02 14.42 18C14.02 17.99 14 18.16 14 18.47C14.01 20.16 13.99 21.84 14.02 23.53C14.02 23.91 13.94 24.02 13.55 24.02C12.02 24.02 12.02 24.04 12.02 22.48C12.02 20.48 12.03 18.48 12.01 16.48C12.01 16.1 12.09 15.99 12.48 16C14 16.03 15.52 16.01 17.04 16.01C18.54 16.01 20.04 16.02 21.54 16C21.92 15.99 22.03 16.08 22.03 16.47C22.01 18.82 22.01 21.18 22.03 23.53C22.03 23.9 21.96 24.02 21.56 24.02C20 24.01 20 24.03 20 22.48C20 21.13 19.99 19.77 20.01 18.42C20.01 18.1 19.94 17.99 19.6 18ZM18.01 23.6C18.03 23.95 17.89 24 17.59 24.01C16.01 24.04 16.01 24.05 16.01 22.46C16.01 21.79 16.02 21.13 16 20.46C15.99 20.14 16.04 19.99 16.42 19.99C18 19.97 18 19.95 18 21.54C18 21.71 18 21.87 18 22.04C18 22.56 17.98 23.09 18.01 23.6ZM10.7 14.01C10.46 14.01 10.17 14.07 10.05 13.77C9.93001 13.46 10.19 13.32 10.37 13.16C12.17 11.62 13.97 10.07 15.78 8.53001C16.62 7.82001 17.41 7.82001 18.24 8.53001C20.05 10.07 21.85 11.61 23.65 13.16C23.83 13.32 24.09 13.46 23.97 13.77C23.85 14.07 23.56 14.01 23.32 14.01C21.22 14.01 19.12 14.01 17.01 14.01C14.9 14.01 12.8 14.01 10.7 14.01ZM48.38 19.59C48.2 19.92 48.02 20.01 47.67 20.01C45.88 19.99 44.09 19.99 42.3 20.01C41.95 20.01 41.77 19.92 41.59 19.59C41.04 18.56 40.13 18 38.95 18.01C37.8 18.02 36.89 18.56 36.37 19.58C35.98 20.35 35.36 19.93 34.85 19.96C34.38 19.99 34.02 19.61 34 19.12C33.96 18.1 33.99 17.08 33.97 16.06C33.97 15.74 34.19 15.77 34.39 15.73C35.67 15.48 36.95 15.2 38.24 14.98C38.7 14.9 38.89 14.69 38.96 14.24C39.14 13.18 39.37 12.12 39.58 11.06C39.75 10.22 40.03 10 40.9 9.99001C42.25 9.99001 43.61 9.99001 44.96 9.99001C46.33 9.99001 47.71 9.99001 49.08 9.99001C49.89 9.99001 50.18 10.23 50.34 11.05C50.55 12.11 50.8 13.16 50.96 14.23C51.04 14.74 51.29 14.89 51.75 14.98C53.02 15.21 54.27 15.5 55.54 15.72C55.94 15.8 56 15.94 56 16.26C55.98 17.13 56 18.01 55.99 18.88C55.98 19.61 55.6 19.96 54.87 20C54.23 20.04 53.8 19.93 53.39 19.28C52.18 17.42 49.45 17.62 48.38 19.59ZM51.99 21.02C51.98 21.58 51.49 22.04 50.93 22C50.39 21.97 49.97 21.49 49.99 20.96C50.02 20.42 50.48 19.99 51.02 20.01C51.56 20.02 52 20.48 51.99 21.02ZM39.99 21.05C39.97 21.59 39.5 22.02 38.97 22C38.43 21.98 37.99 21.53 38 20.99C38.01 20.43 38.49 19.97 39.05 20.01C39.59 20.04 40.02 20.51 39.99 21.05ZM2.37 13.99C3.69 7.68001 7.76 3.75001 14.04 2.32001C19.96 0.970005 26.33 3.75001 29.61 8.90001C29.8 9.19001 29.82 9.41001 29.66 9.74001C28.15 12.93 27.64 16.27 28.24 19.76C28.32 20.22 28.2 20.39 27.75 20.52C26.4 20.9 25.19 21.58 24 22.51C24 22.24 24 22.07 24 21.89C24 20.08 24.01 18.27 23.99 16.46C23.99 16.13 24.05 15.97 24.41 15.84C26.15 15.2 26.57 13.1 25.17 11.86C23.26 10.16 21.31 8.50001 19.34 6.86001C17.95 5.71001 16 5.73001 14.62 6.88001C12.69 8.49001 10.78 10.14 8.88 11.8C7.42 13.08 7.81 15.18 9.63 15.86C9.97001 15.99 10.01 16.15 10 16.44C9.99 18.88 9.99 21.31 10 23.75C10 25.2 10.79 26 12.23 26C15.19 26 18.14 26 21.19 26C20.35 27.77 19.91 29.53 20.01 31.39C20.03 31.74 19.8 31.72 19.57 31.76C15.35 32.46 11.46 31.62 8.08 29.02C3.15 25.21 1.09 20.1 2.37 13.99ZM9.03 32.29C9.27 32.14 9.44 32.19 9.65 32.29C12.9 33.85 16.3 34.35 19.85 33.74C20.25 33.67 20.41 33.78 20.49 34.15C20.56 34.45 20.67 34.75 20.78 35.04C20.89 35.33 21.02 35.61 21.17 35.95C15.8 35.95 10.47 35.95 5.06 35.95C6.2 34.45 7.52 33.27 9.03 32.29ZM6.01 54.41C6.01 54.61 6.01 54.81 6.01 55.06C1.77 50.77 0.640005 43.39 4.01 37.6C4.01 39.02 4.02 40.29 4 41.55C4 41.9 4.08 42.06 4.44 42C4.46 42 4.48 42 4.5 42C4.99 42.04 5.66 41.78 5.92 42.11C6.17 42.42 6 43.06 6 43.56C6.01 47.17 6.01 50.79 6.01 54.41ZM6 39.5C6.01 38 5.99 38 7.51 38C11.49 38 15.46 38.01 19.44 37.99C19.9 37.99 20.03 38.09 20.02 38.56C19.99 40 20.01 40 18.57 40C16.72 40 14.86 40 13.01 40C10.84 40 8.68 39.99 6.51 40.01C6.1 40.01 6 39.91 6 39.5ZM8 55.49C8.02 53.32 8.01 51.16 8.01 48.99C8.01 46.82 8.02 44.66 8 42.49C8 42.08 8.11001 41.98 8.51 41.98C11.51 42 14.51 42 17.5 41.98C17.91 41.98 18.01 42.09 18.01 42.49C17.99 44.16 17.99 45.82 18.01 47.49C18.02 47.9 17.9 48.01 17.5 48C16.5 47.97 15.5 48.01 14.5 47.98C14.08 47.97 13.99 48.09 13.99 48.49C14.01 50.8 13.98 53.11 14.01 55.42C14.02 55.89 13.89 56 13.43 55.99C11.79 55.96 10.14 55.96 8.5 55.99C8.09 56.01 8 55.89 8 55.49ZM9.72001 58.02C14.6 58.02 19.42 58.02 24.25 58.02C20.27 60.55 14.11 60.7 9.72001 58.02ZM26.01 55.53C26.02 55.94 25.88 56 25.52 55.99C22.5 55.98 19.48 55.97 16.46 55.99C16.05 55.99 15.99 55.86 16 55.5C16.02 53.81 16.02 52.13 16 50.44C15.99 50.03 16.13 49.97 16.49 49.98C18.01 50 19.53 49.99 21.05 49.99C22.53 49.99 24.01 50 25.48 49.98C25.85 49.98 26.02 50.03 26.01 50.47C25.98 52.16 25.99 53.85 26.01 55.53ZM28.17 54.96C28.15 54.99 28.11 55 28 55.06C28 53.97 28 52.92 28 51.87C28 50.75 27.98 49.62 28.01 48.5C28.02 48.09 27.91 47.99 27.5 47.99C25.17 48.01 22.84 47.99 20.5 48.01C20.09 48.01 19.98 47.91 19.99 47.5C20.01 45.81 20.01 44.13 19.99 42.44C19.99 42.09 20.08 41.94 20.43 42C20.45 42 20.47 42 20.49 42C20.98 41.96 21.63 42.22 21.92 41.89C22.17 41.6 22 40.97 22 40.5C22.01 39.5 22.01 38.5 22.02 37.5C22.02 37.49 22.05 37.48 22.1 37.44C23.19 38.91 24.54 40.07 26.19 40.87C27.75 41.63 29.39 42.02 31.13 41.97C31.57 41.96 31.72 42.04 31.79 42.51C32.51 47.23 31.27 51.37 28.17 54.96ZM47.21 59.83C41.51 60.75 35.37 57.93 32.35 53.03C32.19 52.76 32.19 52.57 32.32 52.3C33.85 49.09 34.36 45.73 33.76 42.22C33.69 41.8 33.74 41.6 34.2 41.48C34.79 41.33 35.36 41.07 36 40.83C36 41.07 36 41.27 36 41.47C36 44.24 36 47.01 36 49.78C36 51.18 36.81 51.98 38.21 51.98C39.33 51.98 40.46 51.99 41.58 51.97C41.9 51.96 42.03 52.05 41.99 52.38C41.94 52.89 42.2 53.55 41.89 53.88C41.61 54.18 40.95 53.98 40.45 53.96C40.06 53.95 39.97 54.05 39.97 54.44C39.97 55.97 39.96 55.97 41.45 55.97C44.78 55.97 48.11 55.96 51.44 55.98C51.88 55.98 52.03 55.88 51.98 55.44C51.92 54.97 52.18 54.32 51.88 54.07C51.6 53.83 50.97 53.95 50.5 53.98C50.05 54.01 49.95 53.87 49.96 53.43C49.98 51.97 49.96 51.97 51.44 51.97C52.27 51.97 53.11 51.98 53.94 51.97C55.1 51.95 55.96 51.11 55.96 49.95C56 46 56 42.02 55.99 38.04C55.99 36.82 55.12 36 53.87 36C49.77 35.99 45.67 36 41.56 36C41.34 36 41.11 36 40.81 36C41.21 35.07 41.57 34.19 41.76 33.26C41.92 32.44 42.04 31.62 41.99 30.78C41.97 30.42 42.05 30.3 42.44 30.23C50.15 28.8 57.92 33.96 59.62 41.66C61.5 50.23 55.91 58.43 47.21 59.83Z" fill="#3247D5"/>
<path d="M32.11 29.95C32.36 30.11 32.79 29.99 33.15 30C33.36 30 33.57 30 33.77 30C33.92 30 33.97 29.94 34 29.79C34.26 28.55 33.65 27.06 32.52 26.47C32.06 26.23 31.98 25.96 31.99 25.51C32.01 23.93 32 23.94 30.38 24C30.09 24.01 29.98 24.07 29.99 24.38C30.01 24.9 30.18 25.59 29.92 25.89C29.62 26.24 28.91 26 28.38 26C28.08 26 27.99 26.08 28 26.38C28.02 27.25 28 28.13 28.01 29C28.04 30.63 29.22 31.87 30.85 32C31.71 32.07 32.01 32.39 32 33.28C32 33.52 32.14 33.83 31.91 33.98C31.28 34.41 30.09 33.8 30.01 33.04C29.97 32.7 30.18 32.23 29.9 32.05C29.64 31.88 29.21 32 28.85 32C28.64 32 28.43 32 28.23 32C28.08 32 28.01 32.05 28 32.21C27.92 33.48 28.11 34.69 29.28 35.39C29.94 35.78 30.13 36.19 30 36.74C30 38 30 38 31.12 38C31.29 38 31.46 37.98 31.62 38C31.92 38.04 32.02 37.93 32.01 37.62C31.99 37.1 31.82 36.41 32.08 36.11C32.38 35.76 33.09 36 33.62 36C33.92 36 34.01 35.92 34 35.62C33.98 34.75 34 33.87 33.99 33C33.96 31.37 32.78 30.13 31.15 30C30.29 29.93 29.99 29.61 30 28.72C30 28.48 29.86 28.17 30.09 28.02C30.72 27.59 31.9 28.19 31.99 28.96C32.04 29.3 31.83 29.77 32.11 29.95Z" fill="#3247D5"/>
<path d="M11.03 44C10.01 44 10.01 44 10.01 45.04C10.01 46 10.01 46 10.99 46C12.01 46 12.01 46 12.01 44.96C12.01 44 12.01 44 11.03 44Z" fill="#3247D5"/>
<path d="M14.98 45.99C16.01 45.99 16.01 45.99 16.01 44.95C16.01 43.99 16.01 43.99 15.04 43.99C14.01 43.99 14.01 43.99 14.01 45.03C14.01 45.99 14.01 45.99 14.98 45.99Z" fill="#3247D5"/>
<path d="M11.08 47.99C10 47.99 10 47.99 10 49.04C10 49.99 10 49.99 10.92 49.99C11.99 49.99 11.99 49.99 11.99 48.94C12.01 47.99 12.01 47.99 11.08 47.99Z" fill="#3247D5"/>
<path d="M11.04 51.99C10 51.99 10 51.99 10 53.02C10 53.99 10 53.99 10.96 53.99C12 53.99 12 53.99 12 52.96C12.01 51.99 12.01 51.99 11.04 51.99Z" fill="#3247D5"/>
<path d="M18.98 51.99C18.01 51.99 18.01 51.99 18.01 52.96C18.01 53.99 18.01 53.99 19.04 53.99C20.01 53.99 20.01 53.99 20.01 53.02C20 51.99 20 51.99 18.98 51.99Z" fill="#3247D5"/>
<path d="M23.07 51.99C22 51.99 22 51.99 22 53.05C22 53.99 22 53.99 22.93 53.99C24 53.99 24 53.99 24 52.93C24 51.99 24 51.99 23.07 51.99Z" fill="#3247D5"/>
</svg>
