<svg width="50" height="50" viewBox="0 0 50 50" fill="none" xmlns="http://www.w3.org/2000/svg">
<path d="M9.875 45.5H16.4637C13.4101 41.8085 11.7427 37.1658 11.75 32.375C11.75 25.4 15.2112 19.2313 20.5138 15.5H0.5V36.125C0.5 38.6114 1.48772 40.996 3.24587 42.7541C5.00403 44.5123 7.3886 45.5 9.875 45.5ZM45.5 11.75H0.5V9.875C0.5 7.3886 1.48772 5.00403 3.24587 3.24587C5.00403 1.48772 7.3886 0.5 9.875 0.5H36.125C38.6114 0.5 40.996 1.48772 42.7541 3.24587C44.5123 5.00403 45.5 7.3886 45.5 9.875V11.75ZM49.25 32.375C49.25 34.5911 48.8135 36.7854 47.9655 38.8328C47.1174 40.8802 45.8744 42.7404 44.3074 44.3074C42.7404 45.8744 40.8802 47.1174 38.8328 47.9655C36.7854 48.8135 34.5911 49.25 32.375 49.25C30.1589 49.25 27.9646 48.8135 25.9172 47.9655C23.8698 47.1174 22.0096 45.8744 20.4426 44.3074C18.8756 42.7404 17.6326 40.8802 16.7845 38.8328C15.9365 36.7854 15.5 34.5911 15.5 32.375C15.5 27.8995 17.2779 23.6072 20.4426 20.4426C23.6072 17.2779 27.8995 15.5 32.375 15.5C36.8505 15.5 41.1427 17.2779 44.3074 20.4426C47.4721 23.6072 49.25 27.8995 49.25 32.375ZM41.2025 25.4225C41.0283 25.2479 40.8214 25.1094 40.5936 25.0148C40.3658 24.9203 40.1216 24.8716 39.875 24.8716C39.6284 24.8716 39.3842 24.9203 39.1564 25.0148C38.9286 25.1094 38.7217 25.2479 38.5475 25.4225L28.625 35.3488L26.2025 32.9225C26.0282 32.7482 25.8212 32.6099 25.5934 32.5155C25.3657 32.4212 25.1215 32.3726 24.875 32.3726C24.6285 32.3726 24.3843 32.4212 24.1566 32.5155C23.9288 32.6099 23.7218 32.7482 23.5475 32.9225C23.3732 33.0968 23.2349 33.3038 23.1405 33.5316C23.0462 33.7593 22.9976 34.0035 22.9976 34.25C22.9976 34.4965 23.0462 34.7407 23.1405 34.9684C23.2349 35.1962 23.3732 35.4032 23.5475 35.5775L27.2975 39.3275C27.4717 39.5021 27.6786 39.6406 27.9064 39.7352C28.1342 39.8297 28.3784 39.8783 28.625 39.8783C28.8716 39.8783 29.1158 39.8297 29.3436 39.7352C29.5714 39.6406 29.7783 39.5021 29.9525 39.3275L41.2025 28.0775C41.3771 27.9033 41.5156 27.6964 41.6102 27.4686C41.7047 27.2408 41.7533 26.9966 41.7533 26.75C41.7533 26.5034 41.7047 26.2592 41.6102 26.0314C41.5156 25.8036 41.3771 25.5967 41.2025 25.4225Z" fill="white"/>
</svg>
