<svg width="48" height="54" viewBox="0 0 48 54" fill="none" xmlns="http://www.w3.org/2000/svg">
<path d="M13.75 2.625C13.75 2.12772 13.9475 1.65081 14.2992 1.29917C14.6508 0.947544 15.1277 0.75 15.625 0.75H30.625C31.1223 0.75 31.5992 0.947544 31.9508 1.29917C32.3025 1.65081 32.5 2.12772 32.5 2.625C32.5 3.12228 32.3025 3.59919 31.9508 3.95083C31.5992 4.30246 31.1223 4.5 30.625 4.5H15.625C15.1277 4.5 14.6508 4.30246 14.2992 3.95083C13.9475 3.59919 13.75 3.12228 13.75 2.625ZM23.125 53.25C29.0924 53.25 34.8153 50.8795 39.0349 46.6599C43.2545 42.4403 45.625 36.7174 45.625 30.75C45.625 24.7826 43.2545 19.0597 39.0349 14.8401C34.8153 10.6205 29.0924 8.25 23.125 8.25C17.1576 8.25 11.4347 10.6205 7.2151 14.8401C2.99553 19.0597 0.625 24.7826 0.625 30.75C0.625 36.7174 2.99553 42.4403 7.2151 46.6599C11.4347 50.8795 17.1576 53.25 23.125 53.25ZM23.125 15.75C23.6223 15.75 24.0992 15.9475 24.4508 16.2992C24.8025 16.6508 25 17.1277 25 17.625V32.625C25 33.1223 24.8025 33.5992 24.4508 33.9508C24.0992 34.3025 23.6223 34.5 23.125 34.5C22.6277 34.5 22.1508 34.3025 21.7992 33.9508C21.4475 33.5992 21.25 33.1223 21.25 32.625V17.625C21.25 17.1277 21.4475 16.6508 21.7992 16.2992C22.1508 15.9475 22.6277 15.75 23.125 15.75ZM41.6988 6.9075C41.5258 6.72842 41.3189 6.58558 41.0901 6.48731C40.8614 6.38904 40.6153 6.33732 40.3664 6.33516C40.1174 6.33299 39.8705 6.38043 39.6401 6.47471C39.4097 6.56899 39.2003 6.70821 39.0243 6.88426C38.8482 7.06031 38.709 7.26966 38.6147 7.50009C38.5204 7.73052 38.473 7.97742 38.4752 8.22638C38.4773 8.47534 38.529 8.72138 38.6273 8.95013C38.7256 9.17889 38.8684 9.38579 39.0475 9.55875L44.3088 14.82C44.4817 14.9991 44.6886 15.1419 44.9174 15.2402C45.1461 15.3385 45.3922 15.3902 45.6411 15.3923C45.8901 15.3945 46.137 15.3471 46.3674 15.2528C46.5978 15.1585 46.8072 15.0193 46.9832 14.8432C47.1593 14.6672 47.2985 14.4578 47.3928 14.2274C47.4871 13.997 47.5345 13.7501 47.5323 13.5011C47.5302 13.2522 47.4785 13.0061 47.3802 12.7774C47.2819 12.5486 47.1391 12.3417 46.96 12.1688L41.6988 6.9075Z" fill="white"/>
</svg>
