<svg width="48" height="46" viewBox="0 0 48 46" fill="none" xmlns="http://www.w3.org/2000/svg">
<path d="M35.5 45.5L28.625 38L31.525 35.1L35.5 39.075L44.475 30.1L47.375 33.625M25 45.5H5.5C2.725 45.5 0.5 43.275 0.5 40.5V5.5C0.5 2.725 2.725 0.5 5.5 0.5H40.5C43.275 0.5 45.5 2.725 45.5 5.5V25C43.975 24.125 42.3 23.5 40.5 23.2V5.5H5.5V40.5H23.2C23.5 42.3 24.125 43.975 25 45.5ZM23 35.5H10.5V30.5H23M29.7 25.5H10.5V20.5H35.5V23.2C33.375 23.55 31.425 24.35 29.7 25.5ZM35.5 15.5H10.5V10.5H35.5" fill="white"/>
</svg>
