<svg width="46" height="51" viewBox="0 0 46 51" fill="none" xmlns="http://www.w3.org/2000/svg">
<path d="M19.5 38.125L37.125 20.5L33.625 17L19.5 31.125L12.375 24L8.875 27.5L19.5 38.125ZM5.5 50.5C4.125 50.5 2.9475 50.0108 1.9675 49.0325C0.989166 48.0525 0.5 46.875 0.5 45.5V10.5C0.5 9.125 0.989166 7.9475 1.9675 6.9675C2.9475 5.98917 4.125 5.5 5.5 5.5H16C16.5417 4 17.4483 2.79167 18.72 1.875C19.99 0.958333 21.4167 0.5 23 0.5C24.5833 0.5 26.0108 0.958333 27.2825 1.875C28.5525 2.79167 29.4583 4 30 5.5H40.5C41.875 5.5 43.0525 5.98917 44.0325 6.9675C45.0108 7.9475 45.5 9.125 45.5 10.5V45.5C45.5 46.875 45.0108 48.0525 44.0325 49.0325C43.0525 50.0108 41.875 50.5 40.5 50.5H5.5ZM23 8.625C23.5417 8.625 23.99 8.4475 24.345 8.0925C24.6983 7.73917 24.875 7.29167 24.875 6.75C24.875 6.20833 24.6983 5.76 24.345 5.405C23.99 5.05167 23.5417 4.875 23 4.875C22.4583 4.875 22.0108 5.05167 21.6575 5.405C21.3025 5.76 21.125 6.20833 21.125 6.75C21.125 7.29167 21.3025 7.73917 21.6575 8.0925C22.0108 8.4475 22.4583 8.625 23 8.625Z" fill="white"/>
</svg>
