<svg width="57" height="60" viewBox="0 0 57 60" fill="none" xmlns="http://www.w3.org/2000/svg">
<path d="M38.25 30H12V26.25H38.25V30ZM12 33.75H38.25V35.3906C37.4492 36.0156 36.7461 36.7188 36.1406 37.5H12V33.75ZM12 41.25H34.1484C33.7578 42.4805 33.5625 43.7305 33.5625 45H12V41.25ZM4.5 56.25H30.2812C29.9688 57.4414 29.8125 58.6914 29.8125 60H0.75V0H33.416L49.5 16.084V33.3984C48.2695 33.0078 47.0195 32.8125 45.75 32.8125V18.75H30.75V3.75H4.5V56.25ZM34.5 15H43.084L34.5 6.41602V15ZM51.1406 50.1855C52.0391 50.6738 52.8496 51.2695 53.5723 51.9727C54.2949 52.6758 54.9102 53.4473 55.418 54.2871C55.9258 55.127 56.3164 56.0352 56.5898 57.0117C56.8633 57.9883 57 58.9844 57 60H53.25C53.25 58.9648 53.0547 57.998 52.6641 57.0996C52.2734 56.2012 51.7363 55.4004 51.0527 54.6973C50.3691 53.9941 49.5781 53.457 48.6797 53.0859C47.7812 52.7148 46.8047 52.5195 45.75 52.5C44.7148 52.5 43.748 52.6953 42.8496 53.0859C41.9512 53.4766 41.1504 54.0137 40.4473 54.6973C39.7441 55.3809 39.207 56.1719 38.8359 57.0703C38.4648 57.9688 38.2695 58.9453 38.25 60H34.5C34.5 58.9844 34.6367 57.998 34.9102 57.041C35.1836 56.084 35.5742 55.1758 36.082 54.3164C36.5898 53.457 37.2051 52.6758 37.9277 51.9727C38.6504 51.2695 39.4609 50.6738 40.3594 50.1855C39.6953 49.502 39.1777 48.7109 38.8066 47.8125C38.4355 46.9141 38.25 45.9766 38.25 45C38.25 43.9648 38.4453 42.998 38.8359 42.0996C39.2266 41.2012 39.7637 40.4004 40.4473 39.6973C41.1309 38.9941 41.9219 38.457 42.8203 38.0859C43.7188 37.7148 44.6953 37.5195 45.75 37.5C46.7852 37.5 47.752 37.6953 48.6504 38.0859C49.5488 38.4766 50.3496 39.0137 51.0527 39.6973C51.7559 40.3809 52.293 41.1719 52.6641 42.0703C53.0352 42.9688 53.2305 43.9453 53.25 45C53.25 45.9766 53.0645 46.9141 52.6934 47.8125C52.3223 48.7109 51.8047 49.502 51.1406 50.1855ZM45.75 48.75C46.2773 48.75 46.7656 48.6523 47.2148 48.457C47.6641 48.2617 48.0547 47.998 48.3867 47.666C48.7188 47.334 48.9922 46.9336 49.207 46.4648C49.4219 45.9961 49.5195 45.5078 49.5 45C49.5 44.4727 49.4023 43.9844 49.207 43.5352C49.0117 43.0859 48.748 42.6953 48.416 42.3633C48.084 42.0312 47.6836 41.7578 47.2148 41.543C46.7461 41.3281 46.2578 41.2305 45.75 41.25C45.2227 41.25 44.7344 41.3477 44.2852 41.543C43.8359 41.7383 43.4453 42.002 43.1133 42.334C42.7812 42.666 42.5078 43.0664 42.293 43.5352C42.0781 44.0039 41.9805 44.4922 42 45C42 45.5273 42.0977 46.0156 42.293 46.4648C42.4883 46.9141 42.752 47.3047 43.084 47.6367C43.416 47.9688 43.8164 48.2422 44.2852 48.457C44.7539 48.6719 45.2422 48.7695 45.75 48.75Z" fill="white"/>
</svg>
