<svg width="64" height="64" viewBox="0 0 64 64" fill="none" xmlns="http://www.w3.org/2000/svg">
<path d="M59.24 0.01C58.99 0.01 58.74 0.01 58.49 0.01C57.56 0.65 56.49 1.03 55.5 1.58C55.34 1.67 55.22 1.58 55.1 1.52C54.11 1.02 53.11 0.51 52.12 0.01C51.91 0.01 51.7 0.01 51.5 0.01C50.55 0.62 49.49 1.04 48.5 1.57C48.37 1.64 48.28 1.62 48.15 1.56C47.14 1.04 46.14 0.53 45.13 0.01C44.92 0.01 44.71 0.01 44.51 0.01C43.52 0.52 42.53 1.02 41.54 1.53C41.41 1.6 41.3 1.65 41.14 1.56C40.15 1.02 39.09 0.61 38.13 0C37.92 0 37.71 0 37.51 0C36.52 0.5 35.52 1.01 34.53 1.52C34.4 1.59 34.29 1.66 34.13 1.57C33.15 1.03 32.08 0.64 31.14 0.01C30.89 0.01 30.64 0.01 30.39 0.01C29.91 0.16 29.72 0.53 29.64 0.99C29.58 1.34 29.57 1.69 29.57 2.05C29.57 5.36 29.57 8.67 29.57 11.98C29.57 12.93 29.56 12.94 28.59 12.94C28.42 12.94 28.26 12.94 28.09 12.94C24.72 12.94 21.35 12.92 17.97 12.95C14.88 12.97 12.28 15.03 11.58 18.02C11.38 18.87 11.33 19.75 11.33 20.62C11.33 22.39 11.34 24.16 11.33 25.93C11.33 26.61 11.26 26.67 10.58 26.69C10.31 26.7 10.04 26.69 9.77003 26.69C8.33003 26.69 6.90003 26.68 5.46003 26.7C4.57003 26.71 4.18003 27.06 4.02003 27.94C3.95003 28.31 3.96003 28.69 3.96003 29.06C3.96003 38.78 3.96003 48.5 3.96003 58.22C3.96003 58.45 3.96003 58.68 3.97003 58.91C4.00003 61.76 5.64003 63.76 8.00003 63.98C12.54 63.98 17.08 63.98 21.62 63.98C22.04 63.67 22.4 63.32 22.19 62.74C21.98 62.17 21.51 62.1 20.97 62.1C18.2 62.11 15.43 62.11 12.55 62.11C13.82 60.32 13.37 58.32 13.43 56.4C13.47 55.03 13.45 53.65 13.43 52.28C13.42 51.51 12.96 51.09 12.31 51.22C11.7 51.35 11.56 51.8 11.56 52.35C11.56 54.43 11.56 56.51 11.56 58.6C11.56 58.95 11.56 59.31 11.53 59.66C11.39 61.08 10.2 62.13 8.78003 62.12C7.39003 62.11 6.24003 61.05 6.10003 59.66C6.07003 59.41 6.07003 59.16 6.07003 58.91C6.07003 49.08 6.07003 39.25 6.06003 29.42C6.06003 28.89 6.16003 28.72 6.73003 28.74C8.14003 28.79 9.56003 28.78 10.98 28.74C11.47 28.73 11.59 28.86 11.59 29.35C11.57 35.31 11.58 41.26 11.58 47.22C11.58 48.25 11.86 48.68 12.53 48.67C13.19 48.66 13.46 48.23 13.46 47.2C13.46 38.1 13.46 29 13.46 19.9C13.46 17.54 14.62 15.84 16.64 15.22C19.26 14.4 22.08 16.19 22.37 18.89C21.04 18.89 19.7 18.89 18.37 18.89C17.64 18.89 17.22 19.23 17.21 19.82C17.21 20.41 17.62 20.76 18.35 20.77C19.56 20.78 20.77 20.79 21.97 20.76C22.35 20.75 22.45 20.85 22.45 21.24C22.45 22.65 22.47 22.64 21.09 22.65C20.15 22.65 19.22 22.64 18.28 22.65C17.6 22.66 17.2 23.02 17.2 23.59C17.21 24.16 17.62 24.51 18.3 24.52C19.51 24.53 20.72 24.54 21.92 24.51C22.3 24.5 22.45 24.57 22.45 25.01C22.44 26.4 22.46 26.4 21.07 26.4C20.13 26.4 19.2 26.39 18.26 26.4C17.59 26.41 17.19 26.79 17.2 27.36C17.22 27.91 17.61 28.26 18.25 28.27C19.5 28.28 20.75 28.29 22 28.26C22.36 28.25 22.44 28.37 22.44 28.71C22.45 30.14 22.47 30.14 21.04 30.14C20.17 30.14 19.29 30.14 18.42 30.14C17.63 30.14 17.2 30.46 17.19 31.06C17.18 31.67 17.61 32.01 18.39 32.01C19.58 32.01 20.76 32.03 21.95 32C22.32 31.99 22.44 32.08 22.44 32.47C22.44 33.88 22.46 33.88 21.02 33.88C20.1 33.88 19.19 33.87 18.27 33.88C17.59 33.89 17.18 34.25 17.19 34.82C17.19 35.38 17.61 35.75 18.28 35.75C19.49 35.76 20.7 35.76 21.9 35.74C22.27 35.73 22.44 35.79 22.43 36.23C22.42 37.62 22.44 37.62 21.05 37.62C20.11 37.62 19.18 37.61 18.24 37.62C17.57 37.63 17.16 38 17.18 38.58C17.19 39.13 17.59 39.49 18.23 39.49C19.48 39.5 20.73 39.51 21.98 39.48C22.33 39.47 22.43 39.57 22.43 39.93C22.44 41.36 22.46 41.36 21.04 41.36C20.12 41.36 19.21 41.35 18.29 41.36C17.6 41.37 17.2 41.71 17.18 42.28C17.17 42.87 17.59 43.23 18.31 43.23C19.54 43.24 20.77 43.24 22 43.23C22.31 43.23 22.42 43.29 22.43 43.63C22.47 45.11 22.48 45.11 21.02 45.11C20.1 45.11 19.19 45.1 18.27 45.11C17.59 45.12 17.18 45.48 17.18 46.04C17.18 46.61 17.59 46.97 18.27 46.98C19.5 46.99 20.73 47 21.96 46.97C22.36 46.96 22.43 47.09 22.43 47.46C22.43 48.86 22.45 48.86 21.06 48.86C20.14 48.86 19.23 48.86 18.31 48.86C17.59 48.86 17.17 49.22 17.18 49.81C17.19 50.38 17.6 50.72 18.29 50.73C19.52 50.74 20.75 50.74 21.98 50.72C22.33 50.71 22.45 50.8 22.43 51.16C22.4 51.78 22.4 52.41 22.55 53.02C23.07 55.15 24.87 56.58 27.09 56.59C31.07 56.6 35.05 56.61 39.02 56.58C39.59 56.58 39.71 56.75 39.68 57.27C39.63 57.93 39.68 58.6 39.67 59.27C39.62 60.98 38.48 62.09 36.76 62.1C33.18 62.11 29.6 62.11 26.01 62.1C25.47 62.1 25 62.17 24.79 62.74C24.58 63.32 24.94 63.67 25.36 63.98C29.44 63.98 33.52 63.98 37.61 63.98C37.66 63.95 37.7 63.9 37.75 63.89C39.97 63.42 41.39 61.8 41.52 59.54C41.57 58.75 41.57 57.96 41.53 57.17C41.5 56.68 41.67 56.59 42.12 56.6C43.58 56.63 45.04 56.61 46.49 56.61C47.02 56.61 47.37 56.33 47.46 55.82C47.54 55.36 47.32 55.02 46.89 54.82C46.65 54.71 46.4 54.75 46.15 54.75C41.28 54.75 36.4 54.75 31.53 54.75C31.31 54.75 31.09 54.75 30.74 54.75C31.69 53.53 31.68 52.2 31.68 50.86C31.67 44.47 31.68 38.07 31.68 31.68C31.68 30.59 31.42 30.15 30.76 30.13C30.1 30.12 29.81 30.58 29.81 31.65C29.81 38.25 29.81 44.85 29.81 51.45C29.81 51.78 29.81 52.12 29.76 52.45C29.55 53.97 27.99 55.03 26.5 54.69C25.08 54.36 24.32 53.3 24.32 51.63C24.32 41.11 24.32 30.6 24.32 20.08C24.32 19.44 24.3 18.79 24.17 18.15C23.92 16.97 23.34 15.97 22.49 15.01C24.82 15.01 27.04 15.03 29.27 15C29.75 14.99 29.84 15.13 29.84 15.59C29.82 19.07 29.83 22.55 29.83 26.02C29.83 27.12 30.09 27.55 30.75 27.56C31.43 27.57 31.7 27.13 31.7 26.05C31.7 18.45 31.7 10.85 31.7 3.25C31.7 3.02 31.7 2.8 31.7 2.48C32.31 2.78 32.86 3 33.37 3.31C33.99 3.68 34.54 3.69 35.17 3.32C35.89 2.9 36.66 2.58 37.39 2.19C37.68 2.04 37.9 2.03 38.19 2.18C39 2.61 39.83 2.98 40.63 3.42C41.1 3.68 41.52 3.66 41.98 3.42C42.77 3 43.59 2.64 44.37 2.22C44.7 2.04 44.95 2.06 45.28 2.23C46.08 2.66 46.92 3.04 47.73 3.46C48.14 3.67 48.51 3.68 48.92 3.47C49.77 3.03 50.63 2.62 51.48 2.18C51.74 2.04 51.96 2.04 52.23 2.18C53 2.59 53.81 2.93 54.56 3.37C55.13 3.7 55.64 3.68 56.2 3.36C56.74 3.05 57.32 2.8 57.95 2.5C57.95 2.77 57.95 2.94 57.95 3.1C57.95 19.26 57.95 35.42 57.95 51.58C57.95 51.73 57.95 51.87 57.95 52.02C57.87 53.67 56.74 54.75 55.09 54.76C53.78 54.77 52.47 54.76 51.15 54.76C50.44 54.76 50.01 55.14 50.02 55.72C50.04 56.28 50.45 56.63 51.14 56.63C52.35 56.64 53.56 56.63 54.76 56.63C57.91 56.63 59.83 54.74 59.83 51.6C59.83 34.88 59.83 18.16 59.84 1.44C59.81 0.84 59.7 0.37 59.24 0.01Z" fill="#3247D5"/>
<path d="M41.86 1.22999C42.72 0.789995 43.55 0.279995 44.49 0.00999451C42.37 0.00999451 40.24 0.00999451 38.12 0.00999451C39.06 0.279995 39.89 0.789995 40.75 1.22999C41.14 1.41999 41.46 1.41999 41.86 1.22999Z" fill="#3247D5"/>
<path d="M48.85 1.22999C49.71 0.789995 50.54 0.279995 51.48 0.00999451C49.36 0.00999451 47.23 0.00999451 45.11 0.00999451C46.05 0.279995 46.88 0.789995 47.74 1.22999C48.14 1.41999 48.46 1.41999 48.85 1.22999Z" fill="#3247D5"/>
<path d="M34.7701 1.20999C35.6601 0.779995 36.4901 0.209995 37.4901 0.00999451C35.3701 0.00999451 33.2401 0.00999451 31.1201 0.00999451C32.0401 0.279995 32.8601 0.779995 33.7101 1.20999C34.0801 1.38999 34.4001 1.37999 34.7701 1.20999Z" fill="#3247D5"/>
<path d="M55.95 1.17999C56.78 0.759995 57.58 0.269994 58.49 0.00999451C56.37 0.00999451 54.24 0.00999451 52.12 0.00999451C53.1 0.199995 53.91 0.759995 54.78 1.17999C55.19 1.37999 55.53 1.38999 55.95 1.17999Z" fill="#3247D5"/>
<path d="M37.55 9.26C36.87 9.27 36.43 9.71 36.49 10.29C36.55 10.82 36.95 11.13 37.61 11.13C40.01 11.13 42.4 11.13 44.8 11.13C45.55 11.13 46.3 11.13 47.05 11.13C48.72 11.13 50.38 11.13 52.05 11.13C52.54 11.13 52.9 10.94 53.06 10.46C53.2 10.06 53.06 9.72 52.75 9.45C52.49 9.23 52.18 9.24 51.86 9.24C48.32 9.24 44.78 9.24 41.24 9.24C40.01 9.25 38.78 9.25 37.55 9.26Z" fill="#3247D5"/>
<path d="M45.6 18.95C44.1 18.94 42.6 18.95 41.11 18.95C39.57 18.95 38.03 18.94 36.49 18.95C35.84 18.96 35.46 19.3 35.45 19.86C35.44 20.41 35.81 20.77 36.45 20.82C36.59 20.83 36.74 20.83 36.89 20.83C39.68 20.83 42.46 20.83 45.25 20.83C45.37 20.83 45.5 20.84 45.62 20.83C46.3 20.79 46.69 20.42 46.66 19.85C46.64 19.29 46.26 18.95 45.6 18.95Z" fill="#3247D5"/>
<path d="M36.51 26.45C35.77 26.46 35.36 26.89 35.46 27.52C35.54 28.05 35.9 28.31 36.61 28.32C38.09 28.33 39.56 28.32 41.04 28.32C42.5 28.32 43.95 28.32 45.41 28.32C46.25 28.32 46.68 27.98 46.66 27.36C46.65 26.76 46.24 26.45 45.43 26.45C43.95 26.45 42.48 26.45 41 26.45C39.5 26.44 38.01 26.43 36.51 26.45Z" fill="#3247D5"/>
<path d="M45.48 33.94C44 33.93 42.53 33.94 41.05 33.94C39.51 33.94 37.97 33.93 36.43 33.95C35.82 33.96 35.45 34.31 35.44 34.84C35.42 35.37 35.77 35.74 36.37 35.8C36.45 35.81 36.54 35.81 36.62 35.81C39.57 35.81 42.53 35.82 45.48 35.81C46.26 35.81 46.68 35.45 46.66 34.84C46.64 34.26 46.24 33.94 45.48 33.94Z" fill="#3247D5"/>
<path d="M45.48 41.44C44 41.43 42.53 41.44 41.05 41.44C39.51 41.44 37.97 41.43 36.43 41.45C35.82 41.46 35.45 41.81 35.44 42.34C35.42 42.87 35.77 43.23 36.37 43.3C36.45 43.31 36.54 43.31 36.62 43.31C39.57 43.31 42.53 43.32 45.48 43.31C46.26 43.31 46.68 42.94 46.66 42.33C46.64 41.75 46.24 41.44 45.48 41.44Z" fill="#3247D5"/>
<path d="M36.37 50.8C36.45 50.81 36.54 50.81 36.62 50.81C39.57 50.81 42.53 50.82 45.48 50.81C46.26 50.81 46.68 50.45 46.66 49.84C46.64 49.26 46.24 48.95 45.48 48.94C44 48.93 42.53 48.94 41.05 48.94C39.51 48.94 37.97 48.93 36.43 48.95C35.82 48.96 35.45 49.31 35.44 49.84C35.43 50.37 35.77 50.73 36.37 50.8Z" fill="#3247D5"/>
<path d="M48.53 13C46.1 13 43.66 13 41.23 13C40.49 13 40.08 13.34 40.07 13.92C40.06 14.53 40.49 14.87 41.27 14.87C42.46 14.87 43.64 14.87 44.83 14.87C46.06 14.87 47.29 14.87 48.51 14.87C49.24 14.87 49.66 14.53 49.67 13.95C49.67 13.37 49.26 13.01 48.53 13Z" fill="#3247D5"/>
<path d="M40.67 22.7C39.98 22.68 39.3 22.7 38.61 22.7C37.88 22.7 37.15 22.69 36.43 22.7C35.82 22.72 35.45 23.06 35.44 23.59C35.42 24.12 35.77 24.53 36.37 24.55C37.82 24.58 39.28 24.58 40.73 24.55C41.33 24.54 41.68 24.13 41.66 23.59C41.65 23.06 41.28 22.72 40.67 22.7Z" fill="#3247D5"/>
<path d="M36.37 32.05C37.82 32.08 39.28 32.08 40.73 32.05C41.33 32.04 41.68 31.63 41.66 31.09C41.64 30.56 41.28 30.21 40.67 30.2C39.96 30.18 39.26 30.2 38.55 30.2C37.84 30.2 37.14 30.19 36.43 30.2C35.82 30.22 35.46 30.56 35.44 31.09C35.43 31.62 35.77 32.03 36.37 32.05Z" fill="#3247D5"/>
<path d="M36.49 39.56C37.86 39.58 39.23 39.58 40.61 39.56C41.29 39.55 41.68 39.16 41.66 38.59C41.64 38.02 41.25 37.7 40.54 37.69C39.88 37.68 39.21 37.69 38.54 37.69C37.87 37.69 37.21 37.68 36.54 37.69C35.83 37.7 35.44 38.02 35.42 38.59C35.42 39.16 35.81 39.55 36.49 39.56Z" fill="#3247D5"/>
<path d="M40.6401 47.05C41.2901 47.04 41.6601 46.66 41.6601 46.11C41.6601 45.54 41.2701 45.2 40.5701 45.19C39.9101 45.18 39.2401 45.19 38.5701 45.19C37.8801 45.19 37.2001 45.18 36.5101 45.19C35.8101 45.2 35.4301 45.55 35.4301 46.12C35.4301 46.67 35.8001 47.04 36.4601 47.05C37.8601 47.07 39.2501 47.07 40.6401 47.05Z" fill="#3247D5"/>
<path d="M44.79 7.38C45.35 7.38 45.91 7.39 46.48 7.38C47.09 7.36 47.5 6.97 47.49 6.43C47.48 5.91 47.09 5.53 46.51 5.52C45.39 5.5 44.26 5.51 43.14 5.52C42.52 5.53 42.12 5.93 42.13 6.47C42.14 7.01 42.55 7.37 43.18 7.39C43.7 7.39 44.25 7.38 44.79 7.38Z" fill="#3247D5"/>
<path d="M53.31 18.96C52.63 18.93 51.94 18.93 51.26 18.96C50.75 18.99 50.47 19.32 50.45 19.82C50.43 20.34 50.7 20.7 51.23 20.77C51.58 20.82 51.93 20.81 52.29 20.82C52.29 20.81 52.29 20.79 52.29 20.78C52.64 20.78 53 20.81 53.35 20.77C53.88 20.71 54.17 20.37 54.16 19.84C54.15 19.33 53.85 18.99 53.31 18.96Z" fill="#3247D5"/>
<path d="M52.28 24.58C52.28 24.57 52.28 24.55 52.28 24.54C52.63 24.54 52.99 24.57 53.34 24.53C53.87 24.47 54.16 24.14 54.16 23.61C54.15 23.08 53.86 22.74 53.32 22.71C52.64 22.68 51.95 22.68 51.27 22.71C50.76 22.74 50.47 23.07 50.45 23.57C50.43 24.09 50.69 24.45 51.23 24.53C51.57 24.58 51.92 24.57 52.28 24.58Z" fill="#3247D5"/>
<path d="M53.28 26.45C52.97 26.43 52.66 26.45 52.35 26.45C52.02 26.45 51.68 26.43 51.35 26.45C50.79 26.49 50.45 26.84 50.44 27.36C50.43 27.87 50.75 28.26 51.32 28.29C51.98 28.33 52.65 28.33 53.31 28.28C53.87 28.24 54.2 27.83 54.16 27.32C54.12 26.8 53.81 26.49 53.28 26.45Z" fill="#3247D5"/>
<path d="M53.37 32.03C53.91 31.97 54.18 31.61 54.16 31.08C54.14 30.55 53.83 30.24 53.29 30.2C52.98 30.18 52.67 30.2 52.36 30.2C52.01 30.2 51.65 30.18 51.3 30.21C50.76 30.25 50.46 30.57 50.45 31.1C50.44 31.63 50.72 31.98 51.26 32.03C51.95 32.1 52.66 32.11 53.37 32.03Z" fill="#3247D5"/>
<path d="M51.18 35.77C51.55 35.83 51.92 35.82 52.3 35.84C52.67 35.82 53.05 35.83 53.42 35.77C53.92 35.69 54.17 35.34 54.16 34.84C54.14 34.34 53.87 34 53.36 33.97C52.66 33.93 51.95 33.93 51.24 33.97C50.73 34 50.46 34.35 50.45 34.85C50.43 35.34 50.68 35.69 51.18 35.77Z" fill="#3247D5"/>
<path d="M53.38 37.72C53.03 37.68 52.68 37.71 52.32 37.71V37.7C51.97 37.7 51.61 37.68 51.26 37.71C50.75 37.75 50.46 38.07 50.44 38.56C50.41 39.05 50.65 39.43 51.15 39.51C51.91 39.62 52.68 39.63 53.44 39.51C53.94 39.43 54.17 39.05 54.14 38.56C54.12 38.08 53.86 37.77 53.38 37.72Z" fill="#3247D5"/>
<path d="M51.19 43.26C51.93 43.36 52.68 43.36 53.42 43.26C53.92 43.19 54.17 42.83 54.15 42.33C54.13 41.83 53.85 41.51 53.35 41.46C53.02 41.43 52.69 41.45 52.35 41.45C51.98 41.45 51.6 41.42 51.23 41.46C50.72 41.51 50.45 41.84 50.44 42.34C50.43 42.84 50.68 43.2 51.19 43.26Z" fill="#3247D5"/>
<path d="M53.36 45.21C53.01 45.17 52.66 45.2 52.3 45.2C51.95 45.2 51.59 45.17 51.24 45.21C50.73 45.26 50.46 45.58 50.44 46.08C50.42 46.58 50.67 46.94 51.17 47.01C51.91 47.11 52.66 47.11 53.4 47.01C53.9 46.94 54.15 46.58 54.14 46.09C54.14 45.59 53.87 45.26 53.36 45.21Z" fill="#3247D5"/>
<path d="M53.38 48.96C53.03 48.92 52.68 48.95 52.32 48.95C52.32 48.95 52.32 48.95 52.32 48.94C51.97 48.94 51.61 48.91 51.26 48.95C50.75 48.99 50.47 49.31 50.44 49.81C50.41 50.3 50.65 50.68 51.15 50.75C51.91 50.86 52.68 50.87 53.44 50.75C53.94 50.67 54.17 50.29 54.14 49.79C54.12 49.33 53.86 49.01 53.38 48.96Z" fill="#3247D5"/>
</svg>
