<svg width="64" height="56" viewBox="0 0 64 56" fill="none" xmlns="http://www.w3.org/2000/svg">
<path d="M60.9 49.99C60.43 49.91 60.36 49.72 60.36 49.31C60.37 39.25 60.37 29.19 60.37 19.14C60.37 18.97 60.37 18.81 60.37 18.59C62.29 18.73 63.6 17.7 63.66 16.04C63.7 15.02 63.21 14.26 62.48 13.6C57.94 9.55 53.41 5.5 48.88 1.45C46.94 -0.290005 44.61 -0.290005 42.64 1.43C39.26 4.39 35.86 7.33999 32.49 10.32C32.12 10.64 31.91 10.67 31.53 10.33C28.13 7.33 24.71 4.34 21.29 1.36C19.41 -0.280004 17.04 -0.260005 15.19 1.39C10.66 5.44 6.11999 9.49 1.57999 13.54C1.19999 13.88 0.859987 14.23 0.639987 14.69C-0.280013 16.52 1.01999 18.67 3.04999 18.6C3.58999 18.58 3.63999 18.75 3.62999 19.19C3.61999 29.23 3.61999 39.26 3.63999 49.3C3.63999 49.79 3.47999 49.91 3.03999 49.99C1.49999 50.27 0.469987 51.78 0.719987 53.32C0.979987 54.9 2.17999 55.86 3.91999 55.86C22.64 55.86 41.36 55.86 60.09 55.86C60.24 55.86 60.38 55.86 60.53 55.85C62.05 55.75 63.23 54.56 63.34 53.01C63.42 51.58 62.38 50.23 60.9 49.99ZM3.37999 16.78C2.95999 16.94 2.58999 16.87 2.29999 16.53C1.98999 16.17 1.99999 15.76 2.24999 15.38C2.39999 15.16 2.59999 14.97 2.79999 14.79C7.31999 10.75 11.83 6.72 16.35 2.68C16.9 2.19 17.52 1.9 18.26 1.89C18.98 1.91 19.58 2.19 20.12 2.66C23.67 5.77 27.23 8.88 30.79 11.99C30.93 12.11 31.07 12.24 31.21 12.36C31.86 12.91 32.14 12.91 32.78 12.35C34.9 10.5 37.01 8.65 39.13 6.8C40.71 5.42 42.29 4.03 43.88 2.65C45.06 1.62 46.42 1.6 47.59 2.64C52.18 6.72 56.75 10.82 61.33 14.91C61.52 15.08 61.7 15.25 61.8 15.48C61.96 15.85 61.96 16.22 61.68 16.53C61.4 16.83 61.07 16.92 60.66 16.79C60.31 16.67 60.04 16.45 59.78 16.22C55.45 12.29 51.12 8.35 46.79 4.42C45.83 3.55 45.66 3.54 44.72 4.4C40.64 8.11 36.55 11.81 32.49 15.54C32.09 15.91 31.88 15.89 31.5 15.53C27.43 11.8 23.35 8.1 19.27 4.39C18.35 3.55 18.18 3.55 17.25 4.39C12.93 8.31 8.61999 12.23 4.30999 16.15C4.01999 16.4 3.74999 16.65 3.37999 16.78ZM43.4 36.5C41.11 36.5 38.82 36.5 36.53 36.5C35.51 36.5 35.26 36.75 35.26 37.8C35.26 41.63 35.25 45.46 35.27 49.29C35.27 49.75 35.19 49.96 34.67 49.91C34.1 49.85 33.31 50.1 32.99 49.81C32.61 49.47 32.88 48.67 32.88 48.08C32.87 38.11 32.88 28.14 32.86 18.17C32.86 17.71 33 17.41 33.34 17.11C37.35 13.48 41.36 9.84 45.35 6.19C45.67 5.9 45.83 5.91 46.14 6.19C50.15 9.85 54.17 13.51 58.2 17.15C58.5 17.42 58.63 17.7 58.63 18.11C58.62 23.29 58.62 28.48 58.62 33.66C58.62 38.86 58.61 44.07 58.63 49.27C58.63 49.78 58.53 49.92 58 49.92C53.77 49.89 49.55 49.89 45.32 49.92C44.78 49.92 44.69 49.77 44.69 49.26C44.71 45.45 44.7 41.64 44.7 37.83C44.71 36.73 44.48 36.5 43.4 36.5ZM37 38.75C36.99 38.35 37.1 38.23 37.51 38.23C39.17 38.25 40.84 38.25 42.5 38.23C42.84 38.23 42.96 38.3 42.96 38.67C42.95 42.25 42.95 45.82 42.96 49.4C42.96 49.78 42.86 49.9 42.47 49.89C40.81 49.87 39.14 49.87 37.48 49.89C37.1 49.89 36.99 49.8 36.99 49.41C37.01 47.64 37 45.87 37 44.11C37.01 42.33 37.02 40.54 37 38.75ZM15.88 36.5C13.59 36.5 11.3 36.5 9.00999 36.5C7.89999 36.5 7.67999 36.73 7.67999 37.87C7.67999 41.68 7.66999 45.49 7.68999 49.3C7.68999 49.78 7.58999 49.97 7.07999 49.91C6.68999 49.87 6.28999 49.87 5.89999 49.91C5.43999 49.96 5.35999 49.78 5.35999 49.36C5.37999 44.86 5.36999 40.37 5.36999 35.87C5.36999 29.96 5.36999 24.05 5.35999 18.13C5.35999 17.73 5.44999 17.44 5.75999 17.16C9.80999 13.51 13.84 9.84 17.87 6.16C18.16 5.89 18.32 5.88 18.62 6.16C22.63 9.83 26.65 13.48 30.68 17.12C31 17.41 31.13 17.69 31.13 18.13C31.11 23.31 31.12 28.5 31.12 33.68C31.12 38.88 31.11 44.09 31.13 49.29C31.13 49.77 31.03 49.91 30.53 49.9C26.26 49.88 21.99 49.88 17.73 49.9C17.18 49.9 17.11 49.73 17.11 49.24C17.13 45.41 17.12 41.58 17.12 37.75C17.12 36.76 16.86 36.5 15.88 36.5ZM15.38 49.36C15.38 49.72 15.35 49.91 14.89 49.9C13.23 49.87 11.56 49.88 9.89999 49.9C9.49999 49.91 9.41999 49.77 9.41999 49.4C9.42999 45.84 9.43999 42.29 9.41999 38.73C9.41999 38.3 9.56999 38.22 9.94999 38.23C11.59 38.25 13.24 38.25 14.88 38.23C15.31 38.22 15.39 38.36 15.38 38.75C15.36 40.52 15.37 42.29 15.37 44.05C15.37 45.83 15.36 47.6 15.38 49.36ZM60.47 54.1C60.26 54.13 60.05 54.11 59.85 54.11C50.54 54.11 41.24 54.11 31.93 54.11C22.67 54.11 13.4 54.11 4.13999 54.11C3.92999 54.11 3.71999 54.12 3.51999 54.1C2.90999 54.02 2.43999 53.52 2.41999 52.93C2.38999 52.34 2.81999 51.81 3.43999 51.69C3.63999 51.65 3.84999 51.65 4.05999 51.65C22.69 51.65 41.32 51.65 59.95 51.65C60.16 51.65 60.37 51.65 60.57 51.69C61.18 51.81 61.61 52.35 61.58 52.93C61.55 53.52 61.08 54.02 60.47 54.1Z" fill="#3247D5"/>
<path d="M19.24 37.62C19.24 39.26 19.24 40.91 19.24 42.55C19.24 44.19 19.24 45.84 19.24 47.48C19.24 48.28 19.54 48.59 20.32 48.59C22.73 48.6 25.15 48.6 27.56 48.59C28.34 48.59 28.64 48.28 28.64 47.48C28.64 44.19 28.64 40.9 28.64 37.62C28.64 36.78 28.36 36.49 27.53 36.49C25.14 36.49 22.74 36.49 20.35 36.49C19.52 36.5 19.24 36.78 19.24 37.62ZM25.36 38.24C25.85 38.29 26.5 38.09 26.8 38.34C27.11 38.6 26.89 39.27 26.89 39.76C26.91 40.69 26.89 41.63 26.89 42.56C26.89 43.83 26.88 45.1 26.9 46.36C26.91 46.74 26.81 46.85 26.42 46.85C24.81 46.86 24.81 46.87 24.81 45.24C24.81 43.08 24.82 40.92 24.8 38.76C24.8 38.33 24.93 38.2 25.36 38.24ZM21.44 38.24C21.95 38.29 22.62 38.08 22.95 38.34C23.29 38.61 23.05 39.31 23.06 39.81C23.08 40.72 23.07 41.64 23.07 42.55C23.07 43.8 23.06 45.04 23.08 46.29C23.09 46.7 23.01 46.87 22.55 46.86C21 46.85 21 46.87 21 45.33C21 43.13 21.01 40.92 20.99 38.72C20.97 38.37 21.03 38.2 21.44 38.24Z" fill="#3247D5"/>
<path d="M14.75 19.64C13.23 19.63 11.71 19.63 10.19 19.64C9.35998 19.64 9.04998 19.95 9.04998 20.77C9.03998 23.79 9.03998 26.8 9.04998 29.82C9.04998 30.63 9.33998 30.92 10.14 30.93C11.7 30.94 13.26 30.94 14.82 30.93C15.61 30.92 15.88 30.63 15.89 29.82C15.89 28.34 15.89 26.87 15.89 25.39C15.89 23.87 15.89 22.35 15.89 20.83C15.89 19.94 15.6 19.64 14.75 19.64ZM13.63 29.19C12.84 29.16 12.05 29.17 11.26 29.19C10.92 29.2 10.79 29.11 10.79 28.74C10.81 26.43 10.81 24.13 10.79 21.82C10.79 21.44 10.94 21.38 11.27 21.38C12.08 21.4 12.89 21.4 13.7 21.38C14.05 21.37 14.16 21.47 14.15 21.83C14.13 22.99 14.14 24.16 14.14 25.32C14.14 26.44 14.12 27.56 14.15 28.69C14.16 29.11 14.02 29.2 13.63 29.19Z" fill="#3247D5"/>
<path d="M20.61 20.76C20.6 22.26 20.61 23.76 20.61 25.25C20.61 26.77 20.61 28.29 20.61 29.81C20.61 30.67 20.87 30.93 21.73 30.93C23.25 30.94 24.77 30.94 26.29 30.93C27.16 30.93 27.43 30.67 27.43 29.83C27.44 26.81 27.44 23.8 27.43 20.78C27.43 19.95 27.13 19.65 26.3 19.65C24.78 19.64 23.26 19.64 21.74 19.65C20.91 19.64 20.61 19.93 20.61 20.76ZM22.36 25.28C22.36 24.16 22.37 23.03 22.35 21.91C22.34 21.52 22.41 21.36 22.85 21.38C23.64 21.42 24.43 21.41 25.22 21.38C25.56 21.37 25.69 21.45 25.69 21.82C25.67 24.13 25.68 26.44 25.69 28.75C25.69 29.06 25.62 29.19 25.28 29.18C24.47 29.16 23.66 29.15 22.85 29.18C22.47 29.19 22.35 29.1 22.36 28.7C22.37 27.57 22.36 26.42 22.36 25.28Z" fill="#3247D5"/>
<path d="M22.01 12.8C22.05 10.68 20.4 8.97 18.28 8.93C16.22 8.89 14.5 10.58 14.48 12.66C14.45 14.75 16.1 16.46 18.17 16.5C20.24 16.53 21.98 14.86 22.01 12.8ZM16.23 12.73C16.22 11.6 17.1 10.7 18.22 10.68C19.33 10.66 20.25 11.57 20.26 12.69C20.27 13.81 19.38 14.73 18.26 14.74C17.16 14.76 16.24 13.85 16.23 12.73Z" fill="#3247D5"/>
<path d="M46.82 37.62C46.81 40.89 46.81 44.15 46.82 47.42C46.82 48.3 47.11 48.59 47.97 48.59C50.34 48.59 52.72 48.59 55.09 48.59C55.95 48.59 56.24 48.29 56.24 47.42C56.24 45.8 56.24 44.17 56.24 42.55C56.24 40.91 56.24 39.26 56.24 37.62C56.24 36.79 55.94 36.49 55.12 36.49C52.73 36.49 50.33 36.49 47.94 36.49C47.1 36.5 46.82 36.78 46.82 37.62ZM52.91 38.24C53.42 38.3 54.1 38.02 54.4 38.35C54.65 38.63 54.49 39.3 54.49 39.79C54.5 40.73 54.49 41.66 54.49 42.6C54.49 43.87 54.48 45.14 54.5 46.41C54.51 46.77 54.39 46.85 54.04 46.86C52.39 46.88 52.39 46.9 52.39 45.23C52.39 43.09 52.4 40.94 52.38 38.8C52.38 38.39 52.44 38.18 52.91 38.24ZM49.08 38.24C49.59 38.31 50.27 38.02 50.57 38.36C50.82 38.65 50.64 39.31 50.65 39.8C50.65 40.73 50.65 41.67 50.65 42.6C50.65 43.87 50.64 45.13 50.66 46.4C50.67 46.75 50.56 46.85 50.21 46.85C48.58 46.88 48.58 46.89 48.58 45.27C48.58 43.11 48.59 40.95 48.57 38.79C48.55 38.39 48.61 38.18 49.08 38.24Z" fill="#3247D5"/>
<path d="M48.11 20.76C48.11 22.26 48.11 23.76 48.11 25.25C48.11 26.75 48.11 28.25 48.11 29.74C48.11 30.64 48.37 30.91 49.24 30.91C50.76 30.92 52.28 30.92 53.8 30.91C54.65 30.91 54.94 30.63 54.95 29.8C54.96 26.78 54.96 23.77 54.95 20.75C54.95 19.93 54.63 19.63 53.8 19.63C52.28 19.62 50.76 19.62 49.24 19.63C48.41 19.64 48.12 19.94 48.11 20.76ZM49.86 25.26C49.86 24.12 49.87 22.97 49.85 21.83C49.84 21.48 49.94 21.37 50.3 21.38C51.11 21.41 51.92 21.4 52.73 21.38C53.06 21.37 53.21 21.43 53.21 21.81C53.19 24.12 53.19 26.42 53.21 28.73C53.21 29.09 53.09 29.19 52.74 29.18C51.95 29.16 51.16 29.15 50.37 29.18C49.98 29.19 49.83 29.1 49.85 28.68C49.88 27.54 49.86 26.4 49.86 25.26Z" fill="#3247D5"/>
<path d="M42.27 19.64C40.75 19.63 39.23 19.63 37.71 19.64C36.88 19.64 36.58 19.93 36.57 20.76C36.56 23.78 36.56 26.79 36.57 29.81C36.57 30.66 36.84 30.92 37.7 30.92C39.22 30.93 40.74 30.93 42.26 30.92C43.14 30.92 43.39 30.66 43.39 29.75C43.39 28.25 43.39 26.75 43.39 25.26C43.39 23.77 43.39 22.26 43.39 20.77C43.39 19.94 43.1 19.64 42.27 19.64ZM41.65 28.76C41.65 29.08 41.57 29.19 41.24 29.18C40.41 29.16 39.58 29.16 38.74 29.18C38.41 29.19 38.31 29.08 38.32 28.76C38.33 26.43 38.33 24.1 38.32 21.77C38.32 21.47 38.41 21.37 38.71 21.38C39.54 21.4 40.38 21.4 41.21 21.38C41.57 21.37 41.66 21.48 41.66 21.83C41.64 22.99 41.65 24.16 41.65 25.33C41.64 26.47 41.63 27.62 41.65 28.76Z" fill="#3247D5"/>
<path d="M49.52 12.75C49.54 10.64 47.85 8.92999 45.75 8.92999C43.71 8.92999 42.01 10.6 41.99 12.64C41.97 14.76 43.64 16.49 45.73 16.49C47.81 16.5 49.5 14.83 49.52 12.75ZM43.74 12.71C43.74 11.58 44.64 10.68 45.75 10.67C46.86 10.66 47.77 11.57 47.77 12.7C47.77 13.82 46.87 14.73 45.76 14.74C44.65 14.75 43.74 13.83 43.74 12.71Z" fill="#3247D5"/>
</svg>
