<svg width="64" height="64" viewBox="0 0 64 64" fill="none" xmlns="http://www.w3.org/2000/svg">
<path d="M62.49 61.32C61.68 61.29 61.68 61.29 61.67 60.45C61.67 60.26 61.67 60.08 61.67 59.89C61.67 50.02 61.67 40.15 61.67 30.29C61.67 28.85 61.15 28.33 59.71 28.33C58.32 28.32 56.92 28.33 55.53 28.33C54.42 28.33 54.42 28.33 54.42 27.24C54.42 22.45 54.41 17.66 54.43 12.88C54.43 12 54.14 11.39 53.33 10.96C50.28 9.34 47.22 7.73 44.18 6.1C40.97 4.39 37.74 2.7 34.53 0.970004C33.8 0.580004 33.08 0.160004 32.24 0.0200043C32.07 0.0200043 31.91 0.0200043 31.74 0.0200043C30.98 0.310004 30.74 0.880004 30.74 1.67C30.76 5.58 30.74 9.5 30.76 13.41C30.76 13.88 30.66 14.03 30.16 14.02C26.29 14 22.41 14.01 18.54 14.01C17.27 14.01 16.86 14.42 16.86 15.7C16.86 19.74 16.86 23.78 16.86 27.82C16.86 28.07 16.86 28.33 16.93 28.56C17.13 29.29 17.94 29.67 18.62 29.35C19.22 29.06 19.37 28.51 19.37 27.89C19.36 24.27 19.37 20.64 19.36 17.02C19.36 16.7 19.35 16.5 19.8 16.5C25.17 16.52 30.54 16.51 35.92 16.5C36.27 16.5 36.38 16.58 36.37 16.94C36.35 18.29 36.34 19.65 36.37 21C36.38 21.42 36.25 21.52 35.85 21.51C34.6 21.48 33.35 21.48 32.1 21.51C31.09 21.53 30.48 22.42 30.88 23.26C31.14 23.81 31.63 24.01 32.21 24.01C33.42 24.01 34.63 24.03 35.83 24C36.29 23.99 36.37 24.14 36.36 24.56C36.33 25.66 36.32 26.77 36.36 27.87C36.38 28.37 36.28 28.55 35.73 28.53C34.55 28.48 33.36 28.52 32.17 28.51C31.58 28.51 31.1 28.72 30.86 29.28C30.49 30.13 31.1 30.98 32.12 31.01C33.37 31.04 34.62 31.03 35.87 31.01C36.24 31 36.37 31.08 36.36 31.48C36.33 32.67 36.33 33.85 36.36 35.04C36.37 35.42 36.27 35.53 35.88 35.52C34.65 35.49 33.42 35.51 32.19 35.51C31.57 35.51 31.08 35.72 30.85 36.32C30.51 37.19 31.13 37.99 32.17 38.01C33.42 38.03 34.67 38.03 35.92 38.01C36.28 38 36.37 38.12 36.36 38.46C36.34 39.67 36.34 40.88 36.36 42.08C36.37 42.45 36.24 42.52 35.9 42.52C34.69 42.5 33.48 42.51 32.28 42.51C31.36 42.51 30.78 42.98 30.75 43.72C30.72 44.47 31.34 45 32.27 45C33.48 45.01 34.69 45.01 35.89 44.99C36.22 44.99 36.36 45.04 36.35 45.42C36.32 46.63 36.32 47.84 36.35 49.04C36.36 49.46 36.19 49.5 35.84 49.5C34.61 49.48 33.38 49.5 32.15 49.49C31.56 49.49 31.08 49.7 30.84 50.26C30.47 51.12 31.08 51.96 32.11 51.98C33.38 52.01 34.65 52 35.92 51.98C36.24 51.98 36.35 52.06 36.34 52.39C36.32 53.6 36.31 54.81 36.34 56.01C36.35 56.4 36.24 56.5 35.85 56.49C34.62 56.46 33.39 56.47 32.16 56.48C31.31 56.49 30.73 57 30.72 57.71C30.71 58.43 31.29 58.95 32.14 58.97C32.87 58.98 33.6 58.97 34.33 58.97C34.97 58.98 35.84 58.74 36.2 59.07C36.61 59.44 36.27 60.32 36.33 60.98C36.37 61.41 36.2 61.49 35.81 61.48C34.06 61.46 32.31 61.44 30.56 61.49C30.01 61.5 29.94 61.33 29.94 60.83C30 53.57 30 46.28 30 38.99C30 37.64 29.61 37.25 28.24 37.25C20.24 37.25 12.25 37.25 4.25 37.25C2.89 37.25 2.5 37.64 2.5 39C2.5 46.25 2.49 53.49 2.51 60.74C2.51 61.35 2.4 61.61 1.75 61.5C0.979998 61.38 0.379998 61.68 -0.0100021 62.37C-0.0100021 62.58 -0.0100021 62.79 -0.0100021 62.99C0.0699979 63.58 0.399998 63.91 0.989998 63.99C21.65 63.99 42.31 63.99 62.97 63.99C63.44 63.8 63.78 63.46 63.97 62.99C63.97 62.82 63.97 62.66 63.97 62.49C63.76 61.63 63.41 61.36 62.49 61.32ZM26.96 61.51C23.38 61.49 19.8 61.5 16.21 61.5C12.65 61.5 9.09 61.49 5.53 61.51C5.09 61.51 5 61.39 5 60.96C5.01 54.07 5.01 47.17 5 40.28C5 39.83 5.12 39.74 5.55 39.74C12.69 39.75 19.84 39.75 26.98 39.74C27.43 39.74 27.52 39.86 27.52 40.29C27.51 47.18 27.5 54.08 27.52 60.97C27.51 61.42 27.39 61.51 26.96 61.51ZM43 30.13C43 40.36 42.99 50.58 43.01 60.81C43.01 61.37 42.88 61.54 42.31 61.51C41.35 61.46 40.39 61.47 39.44 61.51C38.98 61.53 38.86 61.41 38.86 60.94C38.88 57.07 38.87 53.19 38.87 49.32C38.87 38.16 38.87 26.99 38.87 15.83C38.87 14.38 38.5 14.01 37.06 14.01C35.94 14.01 34.81 14 33.69 14.02C33.39 14.02 33.25 13.98 33.25 13.62C33.26 10.23 33.26 6.83 33.26 3.34C36.07 4.83 38.78 6.27 41.49 7.71C44.76 9.44 48.02 11.17 51.29 12.89C51.62 13.06 51.76 13.25 51.76 13.65C51.74 18.42 51.74 23.19 51.76 27.96C51.76 28.46 51.6 28.52 51.16 28.52C48.97 28.5 46.79 28.51 44.6 28.51C43.42 28.51 43 28.93 43 30.13ZM51.14 37.3C51.42 37.84 51.92 38.01 52.5 38.01C54.48 38.01 56.46 38.03 58.43 38C58.91 37.99 59.01 38.12 59 38.58C58.96 39.72 58.97 40.87 59 42.01C59.01 42.43 58.88 42.52 58.48 42.51C56.46 42.49 54.44 42.49 52.42 42.5C51.34 42.51 50.69 43.42 51.14 44.29C51.42 44.84 51.91 45 52.49 45C54.49 45 56.49 45.01 58.49 44.99C58.9 44.99 59.01 45.09 59 45.5C58.97 46.69 58.98 47.87 59 49.06C59.01 49.41 58.9 49.51 58.55 49.51C56.51 49.49 54.47 49.49 52.43 49.51C51.35 49.52 50.7 50.43 51.14 51.29C51.43 51.86 51.95 52.01 52.55 52.01C54.53 52 56.51 52.02 58.48 52C58.87 52 59.01 52.08 59 52.5C58.97 53.69 58.98 54.87 59 56.06C59.01 56.41 58.92 56.52 58.56 56.51C57.52 56.49 56.48 56.5 55.44 56.5C54.52 56.51 53.97 56.99 53.98 57.76C53.99 58.52 54.54 58.99 55.46 59C56.5 59.01 57.54 59.01 58.58 58.99C58.9 58.98 59.02 59.07 59 59.4C58.97 59.92 58.96 60.44 59 60.96C59.03 61.39 58.91 61.51 58.46 61.51C55.17 61.49 51.88 61.5 48.59 61.5C47.76 61.5 46.92 61.47 46.09 61.51C45.62 61.53 45.47 61.42 45.47 60.91C45.49 56.02 45.48 51.12 45.48 46.23C45.48 41.36 45.49 36.49 45.47 31.61C45.47 31.16 45.53 30.98 46.05 30.98C50.17 31.01 54.29 31 58.42 30.98C58.91 30.98 59 31.12 58.98 31.57C58.95 32.69 58.94 33.82 58.98 34.94C59 35.44 58.83 35.51 58.39 35.5C56.39 35.48 54.39 35.48 52.39 35.49C51.34 35.51 50.69 36.43 51.14 37.3Z" fill="black"/>
<path d="M62.99 64C63.99 64 63.99 64 63.99 63C63.91 63.59 63.58 63.92 62.99 64Z" fill="black"/>
<path d="M19.37 33.2C19.37 32.55 18.8 31.98 18.14 31.97C17.47 31.96 16.9 32.5 16.88 33.16C16.86 33.84 17.44 34.43 18.13 34.42C18.8 34.41 19.37 33.85 19.37 33.2Z" fill="black"/>
<path d="M44.24 24.03C44.24 23.59 44.27 23.16 44.23 22.72C44.17 22 43.63 21.5 42.97 21.52C42.33 21.54 41.8 22.02 41.76 22.72C41.72 23.59 41.72 24.47 41.76 25.34C41.79 26.07 42.32 26.56 42.99 26.57C43.66 26.57 44.18 26.08 44.23 25.35C44.27 24.9 44.24 24.46 44.24 24.03Z" fill="black"/>
<path d="M49.24 22.79C49.2 22.03 48.67 21.5 47.98 21.51C47.32 21.52 46.78 22.03 46.76 22.76C46.73 23.61 46.73 24.46 46.76 25.32C46.79 26.06 47.31 26.55 47.98 26.56C48.68 26.57 49.2 26.06 49.24 25.29C49.26 24.88 49.24 24.46 49.24 24.04C49.24 23.62 49.26 23.21 49.24 22.79Z" fill="black"/>
<path d="M42.99 14.14C42.35 14.15 41.83 14.64 41.76 15.32C41.72 15.71 41.75 16.11 41.75 16.51C41.75 16.93 41.72 17.34 41.76 17.76C41.82 18.46 42.33 18.94 42.97 18.96C43.63 18.98 44.19 18.48 44.23 17.75C44.27 16.94 44.27 16.13 44.22 15.32C44.18 14.63 43.62 14.14 42.99 14.14Z" fill="black"/>
<path d="M48 18.96C48.67 18.96 49.18 18.45 49.23 17.72C49.26 17.33 49.23 16.93 49.23 16.53C49.23 16.13 49.26 15.74 49.22 15.34C49.16 14.65 48.65 14.15 48.01 14.14C47.35 14.12 46.79 14.63 46.75 15.35C46.71 16.14 46.71 16.93 46.75 17.72C46.79 18.46 47.33 18.96 48 18.96Z" fill="black"/>
<path d="M49.53 56.5C48.88 56.5 48.3 57.07 48.29 57.73C48.28 58.4 48.9 59.01 49.56 58.99C50.22 58.97 50.76 58.39 50.75 57.73C50.75 57.06 50.19 56.5 49.53 56.5Z" fill="black"/>
<path d="M9.06999 49.35C10.52 49.38 11.98 49.38 13.44 49.35C14.31 49.33 14.76 48.83 14.78 47.96C14.79 47.25 14.78 46.55 14.78 45.84C14.78 45.11 14.79 44.38 14.78 43.66C14.76 42.75 14.3 42.28 13.39 42.27C11.98 42.25 10.56 42.26 9.14999 42.27C8.22999 42.28 7.73999 42.72 7.71999 43.63C7.68999 45.08 7.68999 46.54 7.71999 48C7.71999 48.86 8.19999 49.33 9.06999 49.35ZM11.25 44.76C12.28 44.76 12.28 44.76 12.28 45.79C12.28 45.81 12.28 45.83 12.28 45.85C12.28 46.87 12.28 46.87 11.23 46.87C10.19 46.87 10.19 46.87 10.19 45.84C10.19 44.76 10.19 44.76 11.25 44.76Z" fill="black"/>
<path d="M13.42 51.9C11.96 51.87 10.51 51.87 9.05 51.9C8.21 51.92 7.72 52.38 7.7 53.21C7.67 54.71 7.67 56.2 7.7 57.7C7.72 58.51 8.2 58.97 9.01 58.98C10.49 59.01 11.96 59.01 13.44 58.98C14.27 58.97 14.74 58.47 14.76 57.64C14.78 56.91 14.76 56.18 14.76 55.46C14.76 54.77 14.76 54.09 14.76 53.4C14.76 53.36 14.76 53.32 14.76 53.28C14.74 52.41 14.29 51.92 13.42 51.9ZM11.25 56.5C10.19 56.5 10.19 56.5 10.19 55.43C10.19 54.39 10.19 54.39 11.23 54.39C12.28 54.39 12.28 54.39 12.28 55.47C12.28 56.5 12.28 56.5 11.25 56.5Z" fill="black"/>
<path d="M23.61 51.9C22.16 51.87 20.7 51.87 19.24 51.9C18.35 51.92 17.89 52.43 17.88 53.34C17.87 54.75 17.87 56.17 17.88 57.58C17.89 58.48 18.37 58.97 19.27 58.99C19.98 59.01 20.68 58.99 21.39 58.99C22.1 58.99 22.8 59 23.51 58.99C24.43 58.97 24.94 58.53 24.96 57.64C25 56.16 25 54.69 24.96 53.21C24.94 52.38 24.44 51.92 23.61 51.9ZM21.41 56.5C20.37 56.5 20.37 56.5 20.37 55.48C20.37 55.46 20.37 55.44 20.37 55.42C20.37 54.4 20.37 54.4 21.42 54.4C22.47 54.4 22.47 54.4 22.47 55.43C22.47 56.5 22.47 56.5 21.41 56.5Z" fill="black"/>
<path d="M19.28 49.35C20.71 49.38 22.15 49.38 23.58 49.35C24.45 49.33 24.94 48.86 24.96 47.99C24.99 46.54 24.99 45.08 24.96 43.62C24.94 42.72 24.44 42.26 23.53 42.25C22.12 42.24 20.7 42.23 19.29 42.25C18.36 42.26 17.89 42.75 17.88 43.7C17.87 44.39 17.88 45.07 17.88 45.76C17.88 46.47 17.87 47.17 17.88 47.88C17.89 48.83 18.35 49.34 19.28 49.35ZM20.37 45.81C20.37 44.76 20.37 44.76 21.44 44.76C22.47 44.76 22.47 44.76 22.47 45.81C22.47 46.87 22.47 46.87 21.38 46.87C20.37 46.87 20.37 46.87 20.37 45.88C20.37 45.85 20.37 45.83 20.37 45.81Z" fill="black"/>
</svg>
