<svg width="64" height="56" viewBox="0 0 64 56" fill="none" xmlns="http://www.w3.org/2000/svg">
<path d="M60.9001 49.99C60.43 49.91 60.3601 49.72 60.3601 49.31C60.37 39.25 60.37 29.19 60.37 19.14C60.37 18.97 60.37 18.81 60.37 18.59C62.29 18.73 63.6 17.7 63.66 16.04C63.7001 15.02 63.21 14.26 62.48 13.6C57.94 9.55 53.41 5.5 48.8801 1.45C46.9401 -0.290005 44.6101 -0.290005 42.64 1.43C39.26 4.39 35.8601 7.33999 32.4901 10.32C32.1201 10.64 31.91 10.67 31.53 10.33C28.13 7.33 24.71 4.34 21.29 1.36C19.41 -0.280004 17.04 -0.260005 15.19 1.39C10.66 5.44 6.12005 9.49 1.58005 13.54C1.20005 13.88 0.860048 14.23 0.640048 14.69C-0.279952 16.52 1.02005 18.67 3.05005 18.6C3.59005 18.58 3.64005 18.75 3.63005 19.19C3.62005 29.23 3.62005 39.26 3.64005 49.3C3.64005 49.79 3.48005 49.91 3.04005 49.99C1.50005 50.27 0.470048 51.78 0.720048 53.32C0.980048 54.9 2.18005 55.86 3.92005 55.86C22.64 55.86 41.3601 55.86 60.09 55.86C60.2401 55.86 60.38 55.86 60.53 55.85C62.05 55.75 63.23 54.56 63.34 53.01C63.4201 51.58 62.3801 50.23 60.9001 49.99ZM3.38005 16.78C2.96005 16.94 2.59005 16.87 2.30005 16.53C1.99005 16.17 2.00005 15.76 2.25005 15.38C2.40005 15.16 2.60005 14.97 2.80005 14.79C7.32005 10.75 11.83 6.72 16.35 2.68C16.9 2.19 17.52 1.9 18.26 1.89C18.98 1.91 19.58 2.19 20.12 2.66C23.67 5.77 27.23 8.88 30.79 11.99C30.93 12.11 31.07 12.24 31.21 12.36C31.86 12.91 32.14 12.91 32.78 12.35C34.9 10.5 37.0101 8.65 39.1301 6.8C40.7101 5.42 42.2901 4.03 43.8801 2.65C45.0601 1.62 46.4201 1.6 47.59 2.64C52.18 6.72 56.7501 10.82 61.3301 14.91C61.5201 15.08 61.7001 15.25 61.8 15.48C61.96 15.85 61.96 16.22 61.68 16.53C61.4001 16.83 61.07 16.92 60.66 16.79C60.3101 16.67 60.04 16.45 59.78 16.22C55.4501 12.29 51.12 8.35 46.7901 4.42C45.8301 3.55 45.66 3.54 44.7201 4.4C40.6401 8.11 36.5501 11.81 32.4901 15.54C32.0901 15.91 31.88 15.89 31.5 15.53C27.43 11.8 23.35 8.1 19.27 4.39C18.35 3.55 18.18 3.55 17.25 4.39C12.93 8.31 8.62005 12.23 4.31005 16.15C4.02005 16.4 3.75005 16.65 3.38005 16.78ZM43.4001 36.5C41.1101 36.5 38.82 36.5 36.53 36.5C35.51 36.5 35.26 36.75 35.26 37.8C35.26 41.63 35.25 45.46 35.2701 49.29C35.2701 49.75 35.19 49.96 34.67 49.91C34.1 49.85 33.3101 50.1 32.9901 49.81C32.6101 49.47 32.8801 48.67 32.8801 48.08C32.8701 38.11 32.8801 28.14 32.8601 18.17C32.8601 17.71 33 17.41 33.34 17.11C37.3501 13.48 41.36 9.84 45.35 6.19C45.67 5.9 45.83 5.91 46.14 6.19C50.15 9.85 54.1701 13.51 58.2001 17.15C58.5 17.42 58.6301 17.7 58.6301 18.11C58.6201 23.29 58.62 28.48 58.62 33.66C58.62 38.86 58.6101 44.07 58.6301 49.27C58.6301 49.78 58.53 49.92 58 49.92C53.7701 49.89 49.55 49.89 45.32 49.92C44.78 49.92 44.69 49.77 44.69 49.26C44.71 45.45 44.7001 41.64 44.7001 37.83C44.71 36.73 44.4801 36.5 43.4001 36.5ZM37 38.75C36.9901 38.35 37.1 38.23 37.51 38.23C39.17 38.25 40.84 38.25 42.5 38.23C42.84 38.23 42.96 38.3 42.96 38.67C42.9501 42.25 42.9501 45.82 42.96 49.4C42.96 49.78 42.8601 49.9 42.4701 49.89C40.8101 49.87 39.14 49.87 37.48 49.89C37.1 49.89 36.9901 49.8 36.9901 49.41C37.0101 47.64 37 45.87 37 44.11C37.01 42.33 37.0201 40.54 37 38.75ZM15.88 36.5C13.59 36.5 11.3 36.5 9.01005 36.5C7.90005 36.5 7.68005 36.73 7.68005 37.87C7.68005 41.68 7.67005 45.49 7.69005 49.3C7.69005 49.78 7.59005 49.97 7.08005 49.91C6.69005 49.87 6.29005 49.87 5.90005 49.91C5.44005 49.96 5.36005 49.78 5.36005 49.36C5.38005 44.86 5.37005 40.37 5.37005 35.87C5.37005 29.96 5.37005 24.05 5.36005 18.13C5.36005 17.73 5.45005 17.44 5.76005 17.16C9.81005 13.51 13.84 9.84 17.87 6.16C18.16 5.89 18.32 5.88 18.62 6.16C22.63 9.83 26.65 13.48 30.68 17.12C31 17.41 31.13 17.69 31.13 18.13C31.11 23.31 31.12 28.5 31.12 33.68C31.12 38.88 31.11 44.09 31.13 49.29C31.13 49.77 31.03 49.91 30.53 49.9C26.26 49.88 21.99 49.88 17.73 49.9C17.18 49.9 17.11 49.73 17.11 49.24C17.13 45.41 17.12 41.58 17.12 37.75C17.12 36.76 16.86 36.5 15.88 36.5ZM15.38 49.36C15.38 49.72 15.35 49.91 14.89 49.9C13.23 49.87 11.56 49.88 9.90005 49.9C9.50005 49.91 9.42005 49.77 9.42005 49.4C9.43005 45.84 9.44005 42.29 9.42005 38.73C9.42005 38.3 9.57005 38.22 9.95005 38.23C11.59 38.25 13.24 38.25 14.88 38.23C15.31 38.22 15.39 38.36 15.38 38.75C15.36 40.52 15.37 42.29 15.37 44.05C15.37 45.83 15.36 47.6 15.38 49.36ZM60.4701 54.1C60.2601 54.13 60.05 54.11 59.85 54.11C50.54 54.11 41.24 54.11 31.93 54.11C22.67 54.11 13.4 54.11 4.14005 54.11C3.93005 54.11 3.72005 54.12 3.52005 54.1C2.91005 54.02 2.44005 53.52 2.42005 52.93C2.39005 52.34 2.82005 51.81 3.44005 51.69C3.64005 51.65 3.85005 51.65 4.06005 51.65C22.69 51.65 41.3201 51.65 59.9501 51.65C60.16 51.65 60.37 51.65 60.57 51.69C61.18 51.81 61.6101 52.35 61.5801 52.93C61.5501 53.52 61.0801 54.02 60.4701 54.1Z" fill="white"/>
<path d="M19.24 37.62C19.24 39.26 19.24 40.91 19.24 42.55C19.24 44.19 19.24 45.84 19.24 47.48C19.24 48.28 19.54 48.59 20.32 48.59C22.73 48.6 25.15 48.6 27.56 48.59C28.34 48.59 28.64 48.28 28.64 47.48C28.64 44.19 28.64 40.9 28.64 37.62C28.64 36.78 28.36 36.49 27.53 36.49C25.14 36.49 22.74 36.49 20.35 36.49C19.52 36.5 19.24 36.78 19.24 37.62ZM25.36 38.24C25.85 38.29 26.5 38.09 26.8 38.34C27.11 38.6 26.89 39.27 26.89 39.76C26.91 40.69 26.89 41.63 26.89 42.56C26.89 43.83 26.88 45.1 26.9 46.36C26.91 46.74 26.81 46.85 26.42 46.85C24.81 46.86 24.81 46.87 24.81 45.24C24.81 43.08 24.82 40.92 24.8 38.76C24.8 38.33 24.93 38.2 25.36 38.24ZM21.44 38.24C21.95 38.29 22.62 38.08 22.95 38.34C23.29 38.61 23.05 39.31 23.06 39.81C23.08 40.72 23.07 41.64 23.07 42.55C23.07 43.8 23.06 45.04 23.08 46.29C23.09 46.7 23.01 46.87 22.55 46.86C21 46.85 21 46.87 21 45.33C21 43.13 21.01 40.92 20.99 38.72C20.97 38.37 21.03 38.2 21.44 38.24Z" fill="white"/>
<path d="M14.7501 19.64C13.2301 19.63 11.7101 19.63 10.1901 19.64C9.3601 19.64 9.0501 19.95 9.0501 20.77C9.0401 23.79 9.0401 26.8 9.0501 29.82C9.0501 30.63 9.3401 30.92 10.1401 30.93C11.7001 30.94 13.2601 30.94 14.8201 30.93C15.6101 30.92 15.8801 30.63 15.8901 29.82C15.8901 28.34 15.8901 26.87 15.8901 25.39C15.8901 23.87 15.8901 22.35 15.8901 20.83C15.8901 19.94 15.6001 19.64 14.7501 19.64ZM13.6301 29.19C12.8401 29.16 12.0501 29.17 11.2601 29.19C10.9201 29.2 10.7901 29.11 10.7901 28.74C10.8101 26.43 10.8101 24.13 10.7901 21.82C10.7901 21.44 10.9401 21.38 11.2701 21.38C12.0801 21.4 12.8901 21.4 13.7001 21.38C14.0501 21.37 14.1601 21.47 14.1501 21.83C14.1301 22.99 14.1401 24.16 14.1401 25.32C14.1401 26.44 14.1201 27.56 14.1501 28.69C14.1601 29.11 14.0201 29.2 13.6301 29.19Z" fill="white"/>
<path d="M20.61 20.76C20.6 22.26 20.61 23.76 20.61 25.25C20.61 26.77 20.61 28.29 20.61 29.81C20.61 30.67 20.87 30.93 21.73 30.93C23.25 30.94 24.77 30.94 26.29 30.93C27.16 30.93 27.43 30.67 27.43 29.83C27.44 26.81 27.44 23.8 27.43 20.78C27.43 19.95 27.13 19.65 26.3 19.65C24.78 19.64 23.26 19.64 21.74 19.65C20.91 19.64 20.61 19.93 20.61 20.76ZM22.36 25.28C22.36 24.16 22.37 23.03 22.35 21.91C22.34 21.52 22.41 21.36 22.85 21.38C23.64 21.42 24.43 21.41 25.22 21.38C25.56 21.37 25.69 21.45 25.69 21.82C25.67 24.13 25.68 26.44 25.69 28.75C25.69 29.06 25.62 29.19 25.28 29.18C24.47 29.16 23.66 29.15 22.85 29.18C22.47 29.19 22.35 29.1 22.36 28.7C22.37 27.57 22.36 26.42 22.36 25.28Z" fill="white"/>
<path d="M22.01 12.8C22.05 10.68 20.4 8.97 18.28 8.93C16.22 8.89 14.5 10.58 14.48 12.66C14.45 14.75 16.1 16.46 18.17 16.5C20.24 16.53 21.98 14.86 22.01 12.8ZM16.23 12.73C16.22 11.6 17.1 10.7 18.22 10.68C19.33 10.66 20.25 11.57 20.26 12.69C20.27 13.81 19.38 14.73 18.26 14.74C17.16 14.76 16.24 13.85 16.23 12.73Z" fill="white"/>
<path d="M46.82 37.62C46.81 40.89 46.81 44.15 46.82 47.42C46.82 48.3 47.11 48.59 47.97 48.59C50.34 48.59 52.72 48.59 55.09 48.59C55.95 48.59 56.24 48.29 56.24 47.42C56.24 45.8 56.24 44.17 56.24 42.55C56.24 40.91 56.24 39.26 56.24 37.62C56.24 36.79 55.94 36.49 55.12 36.49C52.73 36.49 50.33 36.49 47.94 36.49C47.1 36.5 46.82 36.78 46.82 37.62ZM52.91 38.24C53.42 38.3 54.1 38.02 54.4 38.35C54.65 38.63 54.49 39.3 54.49 39.79C54.5 40.73 54.49 41.66 54.49 42.6C54.49 43.87 54.48 45.14 54.5 46.41C54.51 46.77 54.39 46.85 54.04 46.86C52.39 46.88 52.39 46.9 52.39 45.23C52.39 43.09 52.4 40.94 52.38 38.8C52.38 38.39 52.44 38.18 52.91 38.24ZM49.08 38.24C49.59 38.31 50.27 38.02 50.57 38.36C50.82 38.65 50.64 39.31 50.65 39.8C50.65 40.73 50.65 41.67 50.65 42.6C50.65 43.87 50.64 45.13 50.66 46.4C50.67 46.75 50.56 46.85 50.21 46.85C48.58 46.88 48.58 46.89 48.58 45.27C48.58 43.11 48.59 40.95 48.57 38.79C48.55 38.39 48.61 38.18 49.08 38.24Z" fill="white"/>
<path d="M48.1101 20.76C48.1101 22.26 48.1101 23.76 48.1101 25.25C48.1101 26.75 48.1101 28.25 48.1101 29.74C48.1101 30.64 48.3701 30.91 49.2401 30.91C50.7601 30.92 52.2801 30.92 53.8001 30.91C54.6501 30.91 54.9401 30.63 54.9501 29.8C54.9601 26.78 54.9601 23.77 54.9501 20.75C54.9501 19.93 54.6301 19.63 53.8001 19.63C52.2801 19.62 50.7601 19.62 49.2401 19.63C48.4101 19.64 48.1201 19.94 48.1101 20.76ZM49.8601 25.26C49.8601 24.12 49.8701 22.97 49.8501 21.83C49.8401 21.48 49.9401 21.37 50.3001 21.38C51.1101 21.41 51.9201 21.4 52.7301 21.38C53.0601 21.37 53.2101 21.43 53.2101 21.81C53.1901 24.12 53.1901 26.42 53.2101 28.73C53.2101 29.09 53.0901 29.19 52.7401 29.18C51.9501 29.16 51.1601 29.15 50.3701 29.18C49.9801 29.19 49.8301 29.1 49.8501 28.68C49.8801 27.54 49.8601 26.4 49.8601 25.26Z" fill="white"/>
<path d="M42.27 19.64C40.75 19.63 39.23 19.63 37.71 19.64C36.88 19.64 36.58 19.93 36.57 20.76C36.56 23.78 36.56 26.79 36.57 29.81C36.57 30.66 36.84 30.92 37.7 30.92C39.22 30.93 40.74 30.93 42.26 30.92C43.14 30.92 43.39 30.66 43.39 29.75C43.39 28.25 43.39 26.75 43.39 25.26C43.39 23.77 43.39 22.26 43.39 20.77C43.39 19.94 43.1 19.64 42.27 19.64ZM41.65 28.76C41.65 29.08 41.57 29.19 41.24 29.18C40.41 29.16 39.58 29.16 38.74 29.18C38.41 29.19 38.31 29.08 38.32 28.76C38.33 26.43 38.33 24.1 38.32 21.77C38.32 21.47 38.41 21.37 38.71 21.38C39.54 21.4 40.38 21.4 41.21 21.38C41.57 21.37 41.66 21.48 41.66 21.83C41.64 22.99 41.65 24.16 41.65 25.33C41.64 26.47 41.63 27.62 41.65 28.76Z" fill="white"/>
<path d="M49.52 12.75C49.54 10.64 47.85 8.92999 45.75 8.92999C43.71 8.92999 42.01 10.6 41.99 12.64C41.97 14.76 43.64 16.49 45.73 16.49C47.81 16.5 49.5 14.83 49.52 12.75ZM43.74 12.71C43.74 11.58 44.64 10.68 45.75 10.67C46.86 10.66 47.77 11.57 47.77 12.7C47.77 13.82 46.87 14.73 45.76 14.74C44.65 14.75 43.74 13.83 43.74 12.71Z" fill="white"/>
</svg>
