<svg width="60" height="64" viewBox="0 0 60 64" fill="none" xmlns="http://www.w3.org/2000/svg">
<path d="M57.98 61.67C57.81 61.66 57.65 61.66 57.48 61.66C56.45 61.65 56.45 61.65 56.44 60.61C56.44 60.46 56.44 60.32 56.44 60.17C56.44 47.07 56.44 33.97 56.44 20.87C56.44 15.89 56.45 10.92 56.44 5.94C56.44 4.6 56.01 4.18 54.68 4.18C48.27 4.18 41.85 4.18 35.44 4.18C34.22 4.18 33.83 4.56 33.81 5.78C33.8 6.9 33.82 8.03 33.8 9.15C33.79 9.84 33.7 9.92 32.91 9.92C32.07 9.92 31.97 9.85 31.96 9.15C31.94 8.03 31.96 6.9 31.95 5.78C31.94 4.55 31.57 4.19 30.33 4.18C29.33 4.17 28.33 4.18 27.33 4.18C26.21 4.18 26.21 4.17 26.2 3.08C26.2 2.5 26.21 1.91 26.2 1.33C26.18 0.49 26.03 0.28 25.26 0C25.05 0 24.84 0 24.64 0C23.99 0.16 23.75 0.63 23.71 1.24C23.67 1.82 23.69 2.41 23.69 2.99C23.69 4.17 23.69 4.17 22.48 4.17C21.46 4.17 20.44 4.15 19.42 4.18C18.47 4.2 18.02 4.64 17.96 5.6C17.94 5.85 17.95 6.1 17.95 6.35C17.95 7.31 17.94 8.27 17.95 9.22C17.96 9.73 17.75 9.93 17.25 9.92C16.63 9.9 16 9.91 15.38 9.92C14.06 9.93 13.71 10.28 13.71 11.59C13.7 14.07 13.71 16.55 13.71 19.02C13.71 19.85 13.66 19.91 12.83 19.91C10.52 19.91 8.21004 19.91 5.90004 19.91C3.94004 19.91 3.60004 20.25 3.60004 22.19C3.60004 34.93 3.60004 47.67 3.60004 60.41C3.60004 60.66 3.60004 60.91 3.59004 61.16C3.58004 61.46 3.43004 61.61 3.13004 61.63C2.78004 61.65 2.42004 61.63 2.07004 61.65C1.37004 61.7 0.890039 62.11 0.800039 62.72C0.710039 63.29 0.990039 63.68 1.68004 63.96C20.59 63.96 39.5 63.96 58.41 63.96C59.1 63.68 59.38 63.29 59.29 62.72C59.15 62.13 58.68 61.73 57.98 61.67ZM20.74 6.49C22.18 6.51 23.61 6.5 25.05 6.5C26.4 6.5 27.76 6.51 29.11 6.49C29.48 6.48 29.66 6.53 29.64 6.98C29.6 7.87 29.62 8.77 29.63 9.66C29.64 9.99 29.54 10.09 29.21 10.08C26.38 10.07 23.55 10.07 20.72 10.08C20.35 10.08 20.26 9.95 20.27 9.61C20.29 8.72 20.29 7.82 20.27 6.93C20.27 6.56 20.41 6.48 20.74 6.49ZM16.71 61.44C16.71 61.72 16.65 61.84 16.33 61.85C15.97 61.86 15.98 61.66 15.99 61.42C16 60.98 16.01 60.55 15.99 60.11C15.95 59.41 15.52 58.97 14.91 58.97C14.29 58.97 13.88 59.39 13.84 60.1C13.82 60.51 13.83 60.93 13.83 61.35C13.83 61.6 13.89 61.84 13.48 61.85C13.08 61.86 13.11 61.64 13.11 61.38C13.12 60.92 13.11 60.46 13.11 60.01C13.11 59.53 13.13 59.05 13.1 58.57C13.09 58.29 13.19 58.22 13.46 58.22C14.42 58.23 15.37 58.24 16.33 58.22C16.65 58.21 16.71 58.34 16.7 58.62C16.7 59.57 16.7 60.51 16.71 61.44ZM23.89 61.23C23.89 61.69 23.81 61.88 23.29 61.86C22.02 61.82 20.75 61.81 19.48 61.86C18.93 61.88 18.83 61.7 18.85 61.2C18.89 59.97 18.87 58.74 18.86 57.52C18.86 56.49 18.49 56.11 17.49 56.1C15.76 56.09 14.03 56.09 12.31 56.1C11.33 56.1 10.97 56.47 10.96 57.46C10.95 58.75 10.94 60.04 10.97 61.33C10.98 61.74 10.86 61.86 10.45 61.85C9.14004 61.82 7.83004 61.81 6.52004 61.85C6.00004 61.87 5.90004 61.71 5.90004 61.23C5.91004 52.44 5.91004 43.66 5.91004 34.87C5.91004 30.91 5.93004 26.96 5.89004 23C5.88004 22.37 6.08004 22.27 6.65004 22.27C12.17 22.29 17.68 22.29 23.2 22.27C23.73 22.27 23.89 22.36 23.89 22.94C23.87 29.31 23.87 35.68 23.87 42.05C23.88 48.44 23.88 54.84 23.89 61.23ZM24.68 20.14C21.97 20.14 19.27 20.13 16.56 20.15C16.1 20.15 15.97 20.05 15.98 19.58C16.01 17.31 16.01 15.04 15.98 12.77C15.97 12.32 16.11 12.23 16.53 12.24C22.15 12.25 27.77 12.26 33.39 12.24C33.87 12.24 33.97 12.37 33.97 12.83C33.95 16.12 33.96 19.41 33.96 22.7C33.96 25.95 33.95 29.19 33.97 32.44C33.97 32.93 33.88 33.12 33.33 33.11C31.08 33.08 28.83 33.09 26.59 33.11C26.16 33.11 26.01 33.01 26.03 32.56C26.07 31.71 26.07 30.85 26.03 30C26.01 29.56 26.18 29.49 26.57 29.5C27.38 29.53 28.19 29.51 29.01 29.51C29.84 29.5 30.35 29.1 30.37 28.44C30.38 27.79 29.88 27.36 29.05 27.35C28.22 27.34 27.38 27.33 26.55 27.35C26.19 27.36 26.02 27.29 26.04 26.88C26.07 25.99 26.07 25.09 26.04 24.2C26.03 23.83 26.16 23.74 26.5 23.75C27.35 23.77 28.21 23.77 29.06 23.75C29.85 23.74 30.34 23.33 30.36 22.69C30.38 22.04 29.87 21.61 29.05 21.6C28.2 21.59 27.34 21.59 26.49 21.6C26.25 21.6 26.08 21.6 26.03 21.26C25.89 20.39 25.57 20.14 24.68 20.14ZM43.37 61.85C37.81 61.83 32.25 61.83 26.69 61.85C26.19 61.85 26.02 61.75 26.02 61.21C26.04 52.76 26.04 44.3 26.02 35.85C26.02 35.39 26.1 35.22 26.62 35.22C32.22 35.24 37.82 35.24 43.42 35.22C43.95 35.22 44.01 35.4 44.01 35.85C43.99 40.08 44 44.3 44 48.53C44 52.76 43.99 56.98 44.01 61.21C44.02 61.74 43.88 61.86 43.37 61.85ZM53.4 61.86C51.21 61.82 49.03 61.82 46.84 61.86C46.29 61.87 46.15 61.73 46.16 61.18C46.18 51.92 46.17 42.65 46.17 33.39C46.17 33.14 46.17 32.89 46.14 32.64C46.07 32.07 45.65 31.64 45.11 31.66C44.55 31.68 44.11 31.97 44.07 32.54C44.03 33.06 43.79 33.15 43.37 33.1C43.21 33.08 43.04 33.09 42.87 33.1C42.31 33.13 41.81 33.19 41.74 32.36C41.7 31.86 41.19 31.63 40.69 31.68C40.17 31.73 39.77 32.03 39.75 32.59C39.73 33.05 39.54 33.13 39.13 33.11C38.34 33.08 37.54 33.05 36.76 33.12C36.16 33.17 36.1 32.93 36.1 32.42C36.12 27.24 36.11 22.05 36.11 16.87C36.11 13.62 36.12 10.37 36.1 7.13C36.1 6.68 36.17 6.5 36.69 6.5C42.29 6.52 47.89 6.52 53.49 6.5C54 6.5 54.09 6.65 54.09 7.13C54.08 16.15 54.08 25.16 54.08 34.18C54.08 43.17 54.07 52.17 54.09 61.16C54.1 61.69 53.98 61.87 53.4 61.86Z" fill="#3247D5"/>
<path d="M48.3601 34.22C48.4101 34.79 48.8201 35.19 49.3501 35.23C49.8601 35.26 50.3901 34.89 50.4501 34.34C50.5101 33.75 50.5101 33.14 50.4501 32.54C50.3901 31.99 49.8501 31.61 49.3501 31.65C48.8201 31.69 48.4101 32.1 48.3601 32.67C48.3401 32.92 48.3601 33.17 48.3601 33.41C48.3501 33.68 48.3301 33.95 48.3601 34.22Z" fill="#3247D5"/>
<path d="M45.15 20.84C45.69 20.81 46.07 20.49 46.13 19.9C46.16 19.63 46.16 19.36 46.17 19.09C46.16 18.8 46.16 18.51 46.13 18.22C46.07 17.64 45.7 17.31 45.15 17.28C44.6 17.24 44.18 17.53 44.07 18.1C43.94 18.73 43.95 19.38 44.07 20.01C44.18 20.59 44.61 20.87 45.15 20.84Z" fill="#3247D5"/>
<path d="M49.3801 46.03C48.8601 46.01 48.4101 46.45 48.3601 47C48.3301 47.27 48.36 47.54 48.35 47.81C48.34 48.08 48.33 48.35 48.35 48.62C48.4 49.18 48.8301 49.61 49.3601 49.61C49.9201 49.61 50.33 49.32 50.43 48.76C50.54 48.15 50.54 47.52 50.43 46.91C50.35 46.33 49.9401 46.04 49.3801 46.03Z" fill="#3247D5"/>
<path d="M39.74 19.89C39.79 20.48 40.18 20.77 40.72 20.84C41.21 20.91 41.7 20.54 41.81 20.02C41.93 19.39 41.93 18.74 41.81 18.11C41.7 17.55 41.29 17.27 40.73 17.28C40.19 17.28 39.79 17.71 39.74 18.28C39.72 18.53 39.74 18.78 39.74 19.02C39.74 19.02 39.74 19.02 39.75 19.02C39.73 19.32 39.71 19.61 39.74 19.89Z" fill="#3247D5"/>
<path d="M50.47 18.25C50.4 17.67 49.91 17.25 49.37 17.27C48.82 17.29 48.38 17.72 48.35 18.32C48.32 18.84 48.32 19.36 48.36 19.87C48.4 20.43 48.85 20.86 49.38 20.85C49.93 20.83 50.33 20.55 50.44 19.99C50.5 19.71 50.48 19.41 50.5 19.13C50.49 19.13 50.48 19.13 50.47 19.13C50.48 18.83 50.51 18.54 50.47 18.25Z" fill="#3247D5"/>
<path d="M40.6501 10.12C40.1301 10.18 39.8301 10.48 39.7501 10.99C39.7101 11.25 39.7201 11.53 39.7101 11.79C39.7201 11.79 39.7301 11.79 39.7401 11.79C39.7401 12.1 39.7101 12.41 39.7501 12.72C39.8101 13.26 40.1401 13.58 40.6801 13.64C41.2201 13.7 41.6401 13.46 41.7801 12.94C41.9601 12.24 41.9701 11.5 41.7701 10.79C41.6201 10.27 41.1901 10.05 40.6501 10.12Z" fill="#3247D5"/>
<path d="M48.3601 11.88C48.3601 12.15 48.3401 12.42 48.3601 12.69C48.4201 13.26 48.7501 13.59 49.3201 13.64C49.8701 13.69 50.3501 13.35 50.4401 12.79C50.5401 12.18 50.5401 11.55 50.4401 10.94C50.3401 10.38 49.8601 10.05 49.3101 10.11C48.7401 10.17 48.4201 10.51 48.3601 11.08C48.3301 11.34 48.3501 11.61 48.3601 11.88Z" fill="#3247D5"/>
<path d="M49.3001 28.01C49.8501 28.07 50.3401 27.75 50.4401 27.19C50.5501 26.56 50.5601 25.91 50.4301 25.28C50.3101 24.73 49.9101 24.44 49.3401 24.48C48.7701 24.52 48.4301 24.85 48.3701 25.42C48.3401 25.69 48.3601 25.96 48.3601 26.23C48.3601 26.5 48.3401 26.77 48.3601 27.04C48.4101 27.6 48.7201 27.95 49.3001 28.01Z" fill="#3247D5"/>
<path d="M49.3301 38.86C48.7601 38.9 48.4201 39.23 48.3601 39.8C48.3301 40.07 48.3501 40.34 48.3501 40.61C48.3501 40.88 48.3301 41.15 48.3501 41.42C48.4001 41.99 48.7201 42.33 49.2901 42.39C49.8501 42.45 50.3301 42.13 50.4301 41.57C50.5401 40.94 50.5601 40.29 50.4201 39.66C50.3101 39.11 49.9101 38.82 49.3301 38.86Z" fill="#3247D5"/>
<path d="M49.3601 53.23C48.8101 53.25 48.4101 53.63 48.3601 54.21C48.3401 54.48 48.3601 54.75 48.3601 55.02C48.3601 55.27 48.3401 55.52 48.3601 55.76C48.4101 56.35 48.7901 56.73 49.3401 56.77C49.9101 56.81 50.4001 56.44 50.4601 55.85C50.5101 55.28 50.5101 54.69 50.4501 54.12C50.3901 53.55 49.9101 53.21 49.3601 53.23Z" fill="#3247D5"/>
<path d="M40.69 24.49C40.12 24.54 39.79 24.88 39.73 25.45C39.7 25.72 39.73 25.99 39.73 26.26C39.73 26.53 39.71 26.8 39.73 27.07C39.79 27.64 40.11 27.98 40.69 28.03C41.26 28.08 41.67 27.81 41.79 27.25C41.93 26.6 41.93 25.93 41.79 25.28C41.67 24.71 41.26 24.44 40.69 24.49Z" fill="#3247D5"/>
<path d="M45.22 10.11C44.68 10.05 44.26 10.28 44.12 10.79C43.93 11.49 43.93 12.23 44.12 12.93C44.26 13.45 44.68 13.68 45.22 13.62C45.73 13.56 46.05 13.26 46.13 12.76C46.18 12.48 46.17 12.18 46.19 11.89C46.17 11.58 46.18 11.27 46.13 10.96C46.05 10.47 45.73 10.17 45.22 10.11Z" fill="#3247D5"/>
<path d="M45.1501 24.49C44.5801 24.46 44.1801 24.74 44.0701 25.3C43.9401 25.95 43.9301 26.62 44.0901 27.27C44.2201 27.8 44.6101 28.05 45.1501 28.02C45.6901 27.99 46.0301 27.69 46.1201 27.15C46.1701 26.87 46.1601 26.57 46.1801 26.32C46.1601 26 46.1701 25.71 46.1301 25.42C46.0601 24.84 45.7201 24.52 45.1501 24.49Z" fill="#3247D5"/>
<path d="M10.6301 34.53C10.0701 34.54 9.6601 34.82 9.5601 35.38C9.4501 36.01 9.4401 36.66 9.5701 37.29C9.6701 37.81 10.1901 38.17 10.6701 38.1C11.2101 38.02 11.5801 37.72 11.6401 37.13C11.6601 36.86 11.6401 36.59 11.6401 36.32C11.6401 36.05 11.6601 35.78 11.6401 35.51C11.5901 34.95 11.1601 34.52 10.6301 34.53Z" fill="#3247D5"/>
<path d="M14.8301 34.54C14.3201 34.58 13.9401 34.88 13.8701 35.43C13.8301 35.72 13.8301 36.01 13.8201 36.28C13.8401 36.59 13.8301 36.88 13.8701 37.17C13.9401 37.75 14.3201 38.07 14.8601 38.1C15.3801 38.13 15.8001 37.87 15.9201 37.33C16.0701 36.66 16.0701 35.97 15.9101 35.3C15.7801 34.75 15.3501 34.5 14.8301 34.54Z" fill="#3247D5"/>
<path d="M20.2601 35.48C20.2101 34.9 19.8201 34.61 19.2801 34.53C18.7901 34.46 18.3001 34.83 18.1901 35.35C18.0701 35.98 18.0701 36.63 18.1901 37.26C18.2901 37.79 18.7801 38.13 19.2701 38.1C19.8101 38.06 20.2101 37.66 20.2601 37.09C20.2801 36.84 20.2601 36.59 20.2601 36.35C20.2601 36.35 20.2601 36.35 20.2501 36.35C20.2701 36.06 20.2901 35.77 20.2601 35.48Z" fill="#3247D5"/>
<path d="M11.64 49.86C11.59 49.28 11.21 48.96 10.66 48.91C10.14 48.87 9.70998 49.13 9.58998 49.66C9.43998 50.33 9.43998 51.02 9.57998 51.69C9.68998 52.22 10.11 52.5 10.64 52.46C11.19 52.42 11.56 52.11 11.63 51.53C11.66 51.26 11.64 50.99 11.64 50.72C11.64 50.44 11.66 50.15 11.64 49.86Z" fill="#3247D5"/>
<path d="M20.26 49.83C20.2 49.28 19.84 48.97 19.32 48.92C18.8 48.86 18.36 49.11 18.23 49.64C18.05 50.33 18.06 51.04 18.22 51.73C18.34 52.26 18.77 52.52 19.3 52.47C19.82 52.43 20.18 52.12 20.26 51.57C20.3 51.28 20.29 50.99 20.3 50.7C20.29 50.7 20.28 50.7 20.26 50.7C20.26 50.41 20.29 50.12 20.26 49.83Z" fill="#3247D5"/>
<path d="M10.67 30.89C11.24 30.85 11.58 30.51 11.64 29.95C11.67 29.68 11.65 29.41 11.65 29.14C11.65 28.87 11.67 28.6 11.65 28.33C11.6 27.76 11.28 27.42 10.71 27.36C10.16 27.3 9.66999 27.62 9.56999 28.18C9.45999 28.81 9.43999 29.46 9.57999 30.09C9.68999 30.64 10.09 30.93 10.67 30.89Z" fill="#3247D5"/>
<path d="M10.6701 41.74C10.1001 41.7 9.69009 41.98 9.57009 42.53C9.44009 43.18 9.43009 43.85 9.58009 44.5C9.71009 45.05 10.1201 45.32 10.6901 45.27C11.2301 45.22 11.5601 44.9 11.6301 44.36C11.6701 44.08 11.6401 43.78 11.6401 43.49C11.6401 43.22 11.6601 42.95 11.6301 42.68C11.5701 42.11 11.2401 41.78 10.6701 41.74Z" fill="#3247D5"/>
<path d="M19.31 45.26C19.88 45.21 20.21 44.87 20.27 44.3C20.3 44.03 20.27 43.76 20.27 43.49C20.27 43.22 20.29 42.95 20.27 42.68C20.21 42.11 19.89 41.77 19.31 41.72C18.74 41.67 18.33 41.95 18.21 42.5C18.07 43.15 18.07 43.82 18.21 44.47C18.33 45.04 18.74 45.31 19.31 45.26Z" fill="#3247D5"/>
<path d="M15.9801 49.93C15.9001 49.3 15.4201 48.87 14.8701 48.9C14.3101 48.93 13.8901 49.34 13.8601 49.96C13.8301 50.5 13.8401 51.04 13.8801 51.57C13.9301 52.12 14.3101 52.42 14.8301 52.47C15.3601 52.51 15.7401 52.25 15.9201 51.73C16.0401 51.39 15.9801 51.03 15.9901 50.68C15.9801 50.43 16.0101 50.18 15.9801 49.93Z" fill="#3247D5"/>
<path d="M19.31 30.89C19.85 30.84 20.18 30.53 20.25 29.99C20.29 29.71 20.26 29.41 20.26 29.12C20.26 29.12 20.26 29.12 20.27 29.12C20.27 28.85 20.29 28.58 20.27 28.31C20.21 27.74 19.88 27.4 19.31 27.36C18.74 27.31 18.33 27.59 18.21 28.14C18.07 28.79 18.07 29.46 18.21 30.11C18.33 30.67 18.74 30.94 19.31 30.89Z" fill="#3247D5"/>
<path d="M14.8601 41.73C14.2901 41.76 13.9501 42.08 13.8701 42.65C13.8301 42.92 13.8401 43.19 13.8201 43.45C13.8301 43.45 13.8501 43.45 13.8601 43.45C13.8601 43.74 13.8401 44.03 13.8701 44.32C13.9301 44.89 14.2701 45.22 14.8401 45.26C15.4101 45.3 15.8101 45.02 15.9301 44.46C16.0701 43.83 16.0601 43.18 15.9401 42.55C15.8201 42 15.4301 41.71 14.8601 41.73Z" fill="#3247D5"/>
<path d="M14.7801 27.36C14.2701 27.42 13.9501 27.71 13.8701 28.22C13.8201 28.5 13.8301 28.8 13.8101 29.09C13.8301 29.4 13.8201 29.71 13.8701 30.02C13.9501 30.53 14.2601 30.83 14.7801 30.89C15.3201 30.95 15.7401 30.72 15.8801 30.2C16.0701 29.5 16.0701 28.76 15.8801 28.06C15.7501 27.54 15.3301 27.31 14.7801 27.36Z" fill="#3247D5"/>
<path d="M40.37 38.27C40.24 37.5 39.37 37.16 38.74 37.6C38.29 37.92 38.26 38.39 38.26 38.88C38.26 45.31 38.26 51.74 38.26 58.17C38.26 58.46 38.26 58.76 38.38 59.03C38.6 59.49 38.98 59.7 39.49 59.63C39.98 59.56 40.28 59.28 40.37 58.8C40.41 58.56 40.41 58.3 40.41 58.05C40.41 54.89 40.41 51.72 40.41 48.56C40.41 45.38 40.41 42.19 40.41 39.01C40.41 38.77 40.42 38.51 40.37 38.27Z" fill="#3247D5"/>
<path d="M30.7401 37.4C30.0701 37.39 29.6501 37.91 29.6401 38.78C29.6401 38.84 29.6401 38.9 29.6401 38.97C29.6401 45.36 29.6401 51.75 29.6401 58.13C29.6401 58.42 29.6301 58.72 29.7501 58.99C29.9601 59.46 30.3201 59.69 30.8401 59.64C31.3601 59.59 31.6801 59.3 31.7701 58.79C31.8101 58.55 31.8101 58.29 31.8101 58.04C31.8101 54.86 31.8101 51.67 31.8101 48.49C31.8101 45.24 31.8101 42 31.8101 38.75C31.7801 37.9 31.3901 37.41 30.7401 37.4Z" fill="#3247D5"/>
<path d="M34.95 37.41C34.43 37.46 34.07 37.76 34 38.32C33.97 38.55 33.97 38.78 33.97 39.01C33.97 42.19 33.97 45.38 33.97 48.56C33.97 51.12 33.97 53.68 33.97 56.24C33.97 57.05 33.96 57.86 33.99 58.67C34.01 59.25 34.36 59.58 34.94 59.64C35.5 59.7 35.94 59.37 36.07 58.8C36.11 58.62 36.12 58.43 36.12 58.24C36.12 51.77 36.12 45.3 36.12 38.83C36.12 38.58 36.12 38.33 36.02 38.09C35.82 37.61 35.44 37.36 34.95 37.41Z" fill="#3247D5"/>
<path d="M30.18 17.46C30.64 16.71 30.14 15.86 29.18 15.84C27.77 15.81 26.35 15.83 24.94 15.83C23.55 15.83 22.16 15.81 20.76 15.84C20.03 15.85 19.62 16.25 19.6 16.88C19.58 17.52 20.02 17.98 20.76 17.99C23.57 18.01 26.37 18 29.18 17.99C29.59 17.98 29.95 17.84 30.18 17.46Z" fill="#3247D5"/>
</svg>
