<svg width="64" height="64" viewBox="0 0 64 64" fill="none" xmlns="http://www.w3.org/2000/svg">
<path d="M62.29 15.14C61.52 14.76 60.69 14.7 59.86 14.7C54.49 14.69 49.12 14.7 43.75 14.7C42.81 14.7 42.79 14.7 42.81 13.77C42.83 12.83 42.57 12 41.96 11.29C40.24 9.31 38.56 7.3 36.83 5.33C36.19 4.6 35.37 4.18 34.36 4.2C33.3 4.22 32.23 4.26 31.18 4.19C29.21 4.07 27.51 5.56 27.57 7.82C27.63 9.9 27.59 11.98 27.58 14.06C27.58 14.75 27.51 14.81 26.83 14.81C25.35 14.82 23.87 14.81 22.4 14.81C21.62 14.81 21.59 14.77 21.57 14.01C21.53 12.51 21.63 11.02 21.46 9.52C21.11 6.49 19.74 4.03 17.36 2.14C15.76 0.87 13.96 0.07 11.89 0C11.06 0 10.22 0 9.39 0C9.15 0.16 8.9 0.06 8.65 0.09C5.9 0.5 3.8 1.98 2.1 4.09C0.89 5.59 0.17 7.32 0 9.26C0 24.42 0 39.58 0 54.74C0.31 57.88 1.92 60.26 4.37 62.12C5.8 63.21 7.44 63.83 9.24 63.99C26.61 63.99 43.98 63.99 61.35 63.99C62.82 63.78 63.66 62.92 63.97 61.49C63.97 46.83 63.97 32.17 63.97 17.5C63.85 16.41 63.29 15.63 62.29 15.14ZM33.88 16.01C32.71 16.01 31.55 15.99 30.38 16.02C29.99 16.03 29.81 15.95 29.86 15.52C29.92 14.99 29.63 14.28 29.98 13.97C30.27 13.71 30.97 13.89 31.48 13.88C32.31 13.87 33.15 13.89 33.98 13.88C34.71 13.87 35.19 13.44 35.19 12.82C35.19 12.2 34.71 11.76 33.98 11.76C32.77 11.75 31.56 11.74 30.36 11.77C29.94 11.78 29.84 11.65 29.85 11.25C29.88 10.04 29.85 8.83 29.86 7.63C29.87 6.84 30.26 6.43 31.05 6.42C32.05 6.4 33.05 6.42 34.05 6.41C34.47 6.41 34.82 6.56 35.09 6.88C36.75 8.83 38.42 10.77 40.08 12.72C40.39 13.09 40.52 13.48 40.51 13.97C40.5 20.26 40.5 26.55 40.5 32.83C40.5 39.1 40.49 45.36 40.51 51.63C40.51 52.14 40.41 52.35 39.88 52.27C39.39 52.2 38.74 52.49 38.45 52.15C38.21 51.87 38.37 51.24 38.37 50.76C38.36 49.84 38.38 48.93 38.36 48.01C38.33 46.19 36.91 44.78 35.15 44.8C33.38 44.82 31.99 46.23 31.98 48.06C31.97 49.29 31.97 50.52 31.98 51.75C31.99 52.12 31.94 52.33 31.49 52.28C30.96 52.21 30.25 52.5 29.94 52.17C29.68 51.89 29.85 51.19 29.85 50.67C29.85 48.53 29.86 46.38 29.84 44.24C29.84 43.87 29.91 43.74 30.31 43.75C31.5 43.78 32.68 43.77 33.87 43.76C34.69 43.76 35.19 43.32 35.17 42.66C35.15 42.02 34.67 41.64 33.87 41.63C32.7 41.63 31.54 41.62 30.37 41.64C29.99 41.65 29.79 41.59 29.84 41.15C29.9 40.62 29.62 39.91 29.95 39.6C30.24 39.34 30.93 39.51 31.45 39.51C32.26 39.5 33.07 39.52 33.89 39.51C34.68 39.5 35.16 39.09 35.17 38.45C35.18 37.81 34.69 37.39 33.91 37.38C32.72 37.37 31.54 37.37 30.35 37.38C30 37.38 29.8 37.35 29.84 36.92C29.89 36.39 29.67 35.68 29.94 35.35C30.22 35 30.95 35.25 31.48 35.24C32.27 35.22 33.06 35.24 33.85 35.23C34.68 35.22 35.18 34.8 35.17 34.14C35.16 33.5 34.69 33.1 33.88 33.1C32.69 33.09 31.51 33.08 30.32 33.11C29.93 33.12 29.8 33.01 29.84 32.62C29.89 32.09 29.62 31.4 29.95 31.05C30.25 30.73 30.94 30.97 31.45 30.96C32.24 30.94 33.03 30.96 33.82 30.95C34.67 30.94 35.16 30.56 35.17 29.9C35.18 29.22 34.67 28.82 33.79 28.81C32.62 28.81 31.46 28.8 30.29 28.82C29.94 28.83 29.8 28.74 29.84 28.38C29.9 27.83 29.61 27.11 29.97 26.77C30.25 26.51 30.96 26.69 31.47 26.68C32.3 26.67 33.14 26.69 33.97 26.68C34.71 26.67 35.18 26.24 35.17 25.61C35.16 24.98 34.69 24.56 33.95 24.55C32.72 24.54 31.49 24.54 30.26 24.55C29.95 24.55 29.84 24.49 29.83 24.15C29.78 22.41 29.77 22.42 31.49 22.42C32.32 22.42 33.16 22.43 33.99 22.42C34.69 22.41 35.15 22 35.16 21.39C35.18 20.76 34.7 20.3 33.98 20.29C32.77 20.28 31.56 20.26 30.36 20.3C29.91 20.31 29.78 20.17 29.83 19.75C29.89 19.24 29.61 18.54 29.94 18.26C30.25 18 30.93 18.17 31.44 18.16C32.25 18.15 33.06 18.16 33.88 18.16C34.67 18.16 35.16 17.76 35.17 17.11C35.21 16.43 34.71 16.01 33.88 16.01ZM34.13 48.11C34.14 47.38 34.58 46.92 35.22 46.93C35.83 46.94 36.24 47.39 36.26 48.09C36.27 48.71 36.26 49.34 36.26 49.96C36.26 50.58 36.24 51.21 36.27 51.83C36.28 52.15 36.21 52.28 35.86 52.25C35.31 52.21 34.59 52.42 34.23 52.14C33.89 51.88 34.14 51.13 34.13 50.6C34.11 49.78 34.12 48.95 34.13 48.11ZM2.14 46.51C2.14 34.58 2.13 22.65 2.14 10.72C2.15 5.81 6.11 2 11.01 2.15C15.61 2.29 19.2 6.09 19.21 10.89C19.22 17.82 19.21 24.76 19.21 31.69C19.21 36.56 19.21 41.43 19.21 46.3C19.21 46.44 19.21 46.58 19.21 46.85C14.77 41.31 6.53 41.37 2.21 46.84C2.07 46.76 2.14 46.62 2.14 46.51ZM60.4 61.86C43.87 61.86 27.33 61.86 10.8 61.86C5.83 61.86 2.01 57.94 2.14 53.01C2.26 48.53 5.97 44.9 10.55 44.79C14.91 44.68 18.76 48.13 19.14 52.47C19.17 52.8 19.18 53.14 19.22 53.47C19.3 54.02 19.63 54.32 20.17 54.37C20.71 54.42 21.15 54.1 21.27 53.57C21.33 53.31 21.33 53.03 21.33 52.76C21.33 41.1 21.34 29.44 21.32 17.78C21.32 17.23 21.42 17.04 22.02 17.06C23.73 17.11 25.43 17.09 27.14 17.07C27.58 17.06 27.74 17.14 27.74 17.64C27.72 29.01 27.73 40.38 27.74 51.75C27.74 52.15 27.66 52.3 27.23 52.27C26.73 52.23 26.23 52.25 25.73 52.26C25.01 52.28 24.52 52.71 24.52 53.33C24.52 53.95 25 54.38 25.73 54.39C27.77 54.4 29.81 54.39 31.85 54.39C40.24 54.39 48.63 54.39 57.03 54.39C57.22 54.39 57.41 54.4 57.59 54.38C58.21 54.34 58.61 53.94 58.62 53.36C58.63 52.78 58.25 52.32 57.64 52.27C57.1 52.23 56.56 52.22 56.02 52.27C55.56 52.31 55.43 52.18 55.44 51.7C55.47 49.53 55.45 47.37 55.45 45.2C55.45 40.93 55.45 36.66 55.45 32.39C55.45 30.09 54.15 28.8 51.85 28.79C49.54 28.79 47.23 28.78 44.92 28.78C44.17 28.78 43.42 28.8 42.64 28.95C42.64 28.74 42.64 28.56 42.64 28.37C42.64 24.81 42.65 21.25 42.63 17.69C42.63 17.21 42.74 17.06 43.24 17.06C48.97 17.08 54.69 17.07 60.42 17.07C61.5 17.07 61.84 17.42 61.84 18.48C61.84 32.45 61.84 46.43 61.84 60.4C61.86 61.52 61.52 61.86 60.4 61.86ZM51.19 47.95C51.11 46.23 49.96 45.01 48.3 44.82C46.83 44.65 45.41 45.59 44.95 47.05C44.82 47.45 44.79 47.86 44.79 48.28C44.79 49.47 44.78 50.65 44.8 51.84C44.8 52.16 44.72 52.25 44.39 52.26C42.66 52.31 42.66 52.32 42.66 50.59C42.66 47.72 42.66 44.85 42.66 41.97C42.66 38.79 42.66 35.6 42.66 32.42C42.66 31.26 42.99 30.93 44.14 30.93C46.72 30.93 49.3 30.93 51.88 30.93C52.99 30.93 53.34 31.28 53.34 32.38C53.34 38.81 53.34 45.24 53.35 51.67C53.35 52.12 53.27 52.32 52.78 52.26C52.27 52.19 51.59 52.48 51.29 52.14C51.04 51.86 51.21 51.19 51.21 50.69C51.2 49.78 51.23 48.87 51.19 47.95ZM49.07 51.85C49.08 52.19 48.95 52.25 48.64 52.26C46.92 52.31 46.92 52.32 46.92 50.59C46.92 50.36 46.92 50.13 46.92 49.9C46.92 49.3 46.9 48.7 46.93 48.09C46.95 47.38 47.37 46.94 47.97 46.93C48.6 46.92 49.04 47.37 49.06 48.11C49.08 49.36 49.05 50.61 49.07 51.85Z" fill="white"/>
<path d="M58.48 56.52C58.4 56.52 58.31 56.52 58.23 56.52C51.4 56.52 44.58 56.52 37.75 56.52C37.5 56.52 37.25 56.5 37.01 56.59C36.49 56.78 36.23 57.16 36.28 57.69C36.33 58.22 36.65 58.56 37.2 58.63C37.41 58.65 37.62 58.65 37.82 58.65C41.21 58.65 44.61 58.65 48 58.65C48.9 58.65 49.79 58.65 50.68 58.65C53.28 58.65 55.88 58.65 58.49 58.65C59.24 58.65 59.71 58.24 59.72 57.62C59.74 56.98 59.24 56.54 58.48 56.52Z" fill="white"/>
<path d="M32.85 56.52C30.14 56.51 27.44 56.51 24.73 56.52C23.94 56.52 23.48 56.94 23.49 57.6C23.5 58.27 23.93 58.64 24.76 58.64C26.11 58.65 27.47 58.64 28.82 58.64C30.17 58.64 31.53 58.65 32.88 58.64C33.68 58.64 34.14 58.23 34.13 57.57C34.12 56.93 33.64 56.52 32.85 56.52Z" fill="white"/>
<path d="M52.25 42.67C52.25 42.05 51.82 41.64 51.12 41.61C50.97 41.6 50.83 41.61 50.68 41.61C50.53 41.61 50.39 41.61 50.24 41.61C49.53 41.63 49.09 42.01 49.07 42.63C49.05 43.28 49.5 43.71 50.23 43.74C50.52 43.75 50.81 43.75 51.1 43.74C51.8 43.71 52.25 43.28 52.25 42.67Z" fill="white"/>
<path d="M45.95 37.36C45.74 37.34 45.53 37.36 45.33 37.36C45.12 37.36 44.91 37.34 44.71 37.36C44.16 37.41 43.84 37.73 43.75 38.26C43.67 38.78 43.97 39.27 44.49 39.4C45.04 39.54 45.61 39.55 46.15 39.4C46.71 39.25 46.96 38.83 46.89 38.26C46.83 37.72 46.5 37.41 45.95 37.36Z" fill="white"/>
<path d="M51.11 37.34C50.96 37.33 50.82 37.34 50.67 37.34C50.52 37.34 50.38 37.34 50.23 37.34C49.51 37.36 49.08 37.74 49.06 38.36C49.04 39.01 49.49 39.44 50.22 39.47C50.53 39.48 50.85 39.49 51.16 39.47C51.81 39.42 52.23 38.99 52.24 38.4C52.25 37.78 51.82 37.37 51.11 37.34Z" fill="white"/>
<path d="M45.73 41.61C45.4 41.6 45.06 41.6 44.73 41.62C44.15 41.66 43.76 42.07 43.73 42.62C43.71 43.16 44.07 43.63 44.63 43.72C44.85 43.76 45.09 43.73 45.31 43.73C45.31 43.74 45.31 43.74 45.31 43.75C45.46 43.75 45.6 43.76 45.75 43.75C46.45 43.72 46.89 43.31 46.9 42.7C46.92 42.04 46.47 41.62 45.73 41.61Z" fill="white"/>
<path d="M44.75 35.19C45.18 35.22 45.63 35.23 46.05 35.16C46.62 35.07 46.9 34.68 46.9 34.1C46.9 33.57 46.53 33.17 45.98 33.1C45.76 33.07 45.52 33.1 45.3 33.1C45.3 33.09 45.3 33.09 45.3 33.08C45.13 33.08 44.97 33.07 44.8 33.08C44.17 33.13 43.76 33.51 43.73 34.08C43.71 34.67 44.11 35.14 44.75 35.19Z" fill="white"/>
<path d="M50.13 35.2C50.5 35.23 50.88 35.23 51.25 35.19C51.87 35.13 52.25 34.69 52.25 34.12C52.24 33.54 51.85 33.14 51.23 33.08C51.04 33.06 50.86 33.08 50.67 33.08C50.67 33.08 50.67 33.08 50.67 33.07C50.5 33.07 50.34 33.06 50.17 33.07C49.5 33.11 49.09 33.51 49.08 34.11C49.07 34.71 49.47 35.15 50.13 35.2Z" fill="white"/>
</svg>
