<svg width="54" height="60" viewBox="0 0 54 60" fill="none" xmlns="http://www.w3.org/2000/svg">
<g clip-path="url(#clip0_14_495)">
<path fill-rule="evenodd" clip-rule="evenodd" d="M30.625 34.0576H48.75C49.9155 34.0576 51.0333 34.5206 51.8574 35.3448C52.6816 36.1689 53.1445 37.2867 53.1445 38.4522V55.6153C53.1445 56.7808 52.6816 57.8985 51.8574 58.7227C51.0333 59.5468 49.9155 60.0098 48.75 60.0098H30.625C29.4595 60.0098 28.3417 59.5468 27.5176 58.7227C26.6935 57.8985 26.2305 56.7808 26.2305 55.6153V38.4375C26.2305 37.272 26.6935 36.1543 27.5176 35.3301C28.3417 34.506 29.4595 34.043 30.625 34.043V34.0576ZM42.3438 17.8272H46.1914C46.6335 17.8236 47.0719 17.9081 47.481 18.0758C47.8902 18.2435 48.2618 18.4909 48.5742 18.8037C49.202 19.4377 49.5531 20.2944 49.5508 21.1865V29.3994H46.6211V21.2012C46.6219 21.0738 46.5728 20.9511 46.4844 20.8594C46.3914 20.7698 46.2668 20.7206 46.1377 20.7227H42.3584V29.3946H39.2774V17.0899H26.4697C26.2648 17.0924 26.0615 17.0543 25.8714 16.9777C25.6814 16.9011 25.5084 16.7875 25.3626 16.6435C25.2168 16.4995 25.101 16.328 25.022 16.1389C24.943 15.9498 24.9023 15.7469 24.9024 15.542V3.07131H3.08595V49.6924H21.3672V52.7735H7.99318V56.6406C7.99242 56.7681 8.04148 56.8907 8.1299 56.9824C8.22163 57.0709 8.34429 57.1199 8.4717 57.1192H21.3574V60.0147H8.49123C7.59907 60.0045 6.74624 59.646 6.11489 59.0155C5.48354 58.3851 5.12374 57.5328 5.11232 56.6406V52.793H2.76369C2.03216 52.7911 1.3307 52.5017 0.810564 51.9873C0.554099 51.731 0.350878 51.4265 0.212606 51.0913C0.0743347 50.7561 0.00374419 50.3968 0.00490022 50.0342V2.75881C0.00360964 2.39616 0.0740869 2.03683 0.212272 1.70154C0.350457 1.36624 0.553619 1.0616 0.810053 0.80517C1.06649 0.548736 1.37113 0.345574 1.70642 0.207389C2.04172 0.0692041 2.40104 -0.00127318 2.76369 1.74092e-05H26.4697C26.6966 -0.000486494 26.9207 0.0501791 27.1253 0.148244C27.3298 0.246309 27.5097 0.389248 27.6514 0.566424L41.2402 13.75C41.5598 13.8407 41.8414 14.0324 42.043 14.2964C42.2446 14.5605 42.3552 14.8827 42.3584 15.2149V17.7979L42.3438 17.8272ZM9.76564 32.6612C9.63523 32.6649 9.50689 32.6947 9.3882 32.7488C9.2695 32.8029 9.16285 32.8803 9.07455 32.9764C8.98625 33.0724 8.91809 33.1851 8.87409 33.308C8.83009 33.4308 8.81115 33.5612 8.81838 33.6914C8.80841 33.8233 8.82532 33.9557 8.86808 34.0809C8.91084 34.206 8.97856 34.3211 9.06713 34.4192C9.1557 34.5174 9.26328 34.5966 9.38335 34.6519C9.50342 34.7073 9.63348 34.7376 9.76564 34.7412H21.3379V32.6612H9.76564ZM9.76564 40.1123C9.6352 40.1173 9.50707 40.1483 9.38882 40.2036C9.27058 40.2589 9.16463 40.3374 9.07723 40.4343C8.98983 40.5313 8.92275 40.6448 8.87997 40.7681C8.83719 40.8915 8.81956 41.0221 8.82814 41.1524C8.81956 41.2826 8.83719 41.4133 8.87997 41.5366C8.92275 41.6599 8.98983 41.7734 9.07723 41.8704C9.16463 41.9674 9.27058 42.0458 9.38882 42.1011C9.50707 42.1564 9.6352 42.1875 9.76564 42.1924H21.3379V40.1123H9.76564ZM9.76564 17.7539C9.63188 17.7536 9.49948 17.7808 9.37666 17.8338C9.25384 17.8868 9.14322 17.9645 9.05166 18.062C8.9601 18.1595 8.88954 18.2748 8.84437 18.4007C8.7992 18.5266 8.78039 18.6605 8.78908 18.794C8.78039 18.9274 8.7992 19.0613 8.84437 19.1872C8.88954 19.3131 8.9601 19.4284 9.05166 19.5259C9.14322 19.6234 9.25384 19.7011 9.37666 19.7541C9.49948 19.8071 9.63188 19.8343 9.76564 19.834H20.4541C20.5841 19.8284 20.7117 19.7969 20.8294 19.7413C20.9471 19.6857 21.0525 19.6072 21.1394 19.5103C21.2262 19.4134 21.2929 19.3001 21.3354 19.1771C21.3778 19.0541 21.3953 18.9238 21.3867 18.794C21.3953 18.6641 21.3778 18.5338 21.3354 18.4108C21.2929 18.2878 21.2262 18.1745 21.1394 18.0776C21.0525 17.9807 20.9471 17.9022 20.8294 17.8466C20.7117 17.791 20.5841 17.7595 20.4541 17.7539H9.76564ZM9.76564 10.3028C9.6352 10.3077 9.50707 10.3387 9.38882 10.394C9.27058 10.4494 9.16463 10.5278 9.07723 10.6248C8.98983 10.7217 8.92275 10.8352 8.87997 10.9586C8.83719 11.0819 8.81956 11.2125 8.82814 11.3428C8.81956 11.473 8.83719 11.6037 8.87997 11.727C8.92275 11.8504 8.98983 11.9639 9.07723 12.0608C9.16463 12.1578 9.27058 12.2362 9.38882 12.2915C9.50707 12.3469 9.6352 12.3779 9.76564 12.3828H15.625C15.755 12.3773 15.8826 12.3458 16.0003 12.2902C16.118 12.2346 16.2234 12.156 16.3103 12.0591C16.3971 11.9622 16.4638 11.849 16.5063 11.7259C16.5487 11.6029 16.5662 11.4727 16.5576 11.3428C16.5662 11.2129 16.5487 11.0827 16.5063 10.9596C16.4638 10.8366 16.3971 10.7233 16.3103 10.6265C16.2234 10.5296 16.118 10.451 16.0003 10.3954C15.8826 10.3398 15.755 10.3083 15.625 10.3028H9.76564ZM9.76564 25.21C9.63188 25.2097 9.49948 25.2369 9.37666 25.2899C9.25384 25.3429 9.14322 25.4206 9.05166 25.5181C8.9601 25.6156 8.88954 25.7309 8.84437 25.8568C8.7992 25.9827 8.78039 26.1165 8.78908 26.25C8.78039 26.3835 8.7992 26.5173 8.84437 26.6433C8.88954 26.7692 8.9601 26.8844 9.05166 26.982C9.14322 27.0795 9.25384 27.1571 9.37666 27.2101C9.49948 27.2631 9.63188 27.2903 9.76564 27.2901H27.832C27.9648 27.2869 28.0956 27.2574 28.2168 27.2032C28.338 27.1491 28.4472 27.0713 28.5381 26.9745C28.629 26.8777 28.6997 26.7638 28.7462 26.6395C28.7926 26.5151 28.8138 26.3827 28.8086 26.25C28.8173 26.1165 28.7985 25.9827 28.7533 25.8568C28.7081 25.7309 28.6376 25.6156 28.546 25.5181C28.4545 25.4206 28.3438 25.3429 28.221 25.2899C28.0982 25.2369 27.9658 25.2097 27.832 25.21H9.76564ZM28.0274 5.40041L37.2266 14.0088H28.0029V5.40041H28.0274ZM45.3662 48.2666C45.5538 48.277 45.741 48.2411 45.9114 48.1618C46.0817 48.0826 46.2299 47.9627 46.3428 47.8125C46.8311 47.0557 46.1572 46.3086 45.6787 45.7813C44.3213 44.292 41.2451 41.5967 40.5762 40.8106C40.4729 40.6795 40.3413 40.5736 40.1911 40.5008C40.041 40.428 39.8763 40.3901 39.7095 40.3901C39.5426 40.3901 39.378 40.428 39.2278 40.5008C39.0777 40.5736 38.9461 40.6795 38.8428 40.8106C38.1494 41.6162 34.9072 44.4776 33.6182 45.9229C33.169 46.4112 32.6416 47.1192 33.0811 47.8125C33.194 47.9627 33.3422 48.0826 33.5125 48.1618C33.6828 48.2411 33.8701 48.277 34.0576 48.2666H36.4697V52.5977C36.471 52.9586 36.615 53.3043 36.8702 53.5596C37.1254 53.8148 37.4711 53.9587 37.8321 53.96H41.6016C41.9633 53.96 42.3103 53.8166 42.5666 53.5613C42.8229 53.3059 42.9675 52.9594 42.9688 52.5977V48.2666H45.3662Z" fill="white"/>
</g>
<defs>
<clipPath id="clip0_14_495">
<rect width="53.1299" height="60" fill="white"/>
</clipPath>
</defs>
</svg>
