<svg width="64" height="64" viewBox="0 0 64 64" fill="none" xmlns="http://www.w3.org/2000/svg">
<g clip-path="url(#clip0_1_1453)">
<path d="M62.72 8.65999C61.82 7.83999 60.74 7.56999 59.56 7.56999C54.3 7.56999 49.03 7.56999 43.77 7.56999C42.83 7.56999 42.82 7.55999 42.82 6.63999C42.82 5.01999 42.83 3.38999 42.81 1.76999C42.8 0.669994 42.41 0.219995 41.38 0.00999451C35.13 0.00999451 28.89 0.00999451 22.64 0.00999451C22.2 0.119995 21.75 0.199995 21.48 0.649994C21.24 1.03999 21.2 1.46999 21.19 1.90999C21.19 3.52999 21.19 5.15999 21.19 6.77999C21.19 7.49999 21.13 7.54999 20.4 7.55999C19.13 7.56999 17.86 7.55999 16.59 7.55999C16.28 7.55999 15.96 7.55999 15.67 7.68999C14.88 8.03999 14.72 9.08999 15.38 9.57999C15.66 9.78999 16 9.80999 16.33 9.81999C17.66 9.82999 18.99 9.81999 20.33 9.82999C21.16 9.82999 21.22 9.89999 21.2 10.72C21.18 11.37 21.11 11.43 20.33 11.43C15.69 11.43 11.04 11.43 6.40003 11.43C4.24003 11.43 3.71003 11.97 3.71003 14.12C3.71003 23.2 3.71003 32.28 3.71003 41.35C3.71003 41.6 3.72003 41.85 3.69003 42.1C3.67003 42.25 3.64003 42.38 3.49003 42.46C2.84003 42.83 2.10003 42.44 2.10003 41.72C2.10003 31.89 2.09003 22.06 2.10003 12.24C2.10003 10.61 2.90003 9.82999 4.52003 9.81999C6.27003 9.80999 8.02003 9.81999 9.77003 9.81999C10.37 9.81999 10.98 9.85999 11.58 9.78999C12.16 9.71999 12.51 9.36999 12.58 8.83999C12.64 8.33999 12.34 7.87999 11.82 7.66999C11.52 7.54999 11.21 7.54999 10.9 7.54999C8.73003 7.54999 6.57003 7.53999 4.40003 7.54999C2.03003 7.55999 0.570029 8.71999 0.0300293 10.99C0.0300293 23.69 0.0300293 36.4 0.0300293 49.1C0.150029 49.74 0.320029 50.34 0.740029 50.86C1.60003 51.9 2.70003 52.45 4.03003 52.53C4.51003 52.56 4.99003 52.54 5.47003 52.54C11.65 52.54 17.83 52.54 24.01 52.54C24.72 52.54 24.74 52.56 24.58 53.24C24.25 54.57 23.92 55.91 23.58 57.24C23.39 58 23.34 58.04 22.57 58.05C21.8 58.06 21.03 58.03 20.26 58.06C18.64 58.11 17.4 59.35 17.35 60.97C17.34 61.37 17.34 61.76 17.35 62.16C17.36 63.28 17.62 63.64 18.66 63.99C27.57 63.99 36.49 63.99 45.4 63.99C46.29 63.76 46.66 63.3 46.7 62.35C46.72 61.93 46.71 61.52 46.71 61.1C46.68 59.35 45.42 58.08 43.66 58.06C42.87 58.05 42.08 58.06 41.29 58.06C40.92 58.06 40.65 57.95 40.55 57.55C40.17 56.04 39.8 54.52 39.41 53.01C39.32 52.66 39.47 52.55 39.79 52.56C39.96 52.56 40.12 52.56 40.29 52.56C46.74 52.56 53.19 52.57 59.64 52.56C61.98 52.56 63.49 51.35 64.02 49.13C64.02 36.47 64.02 23.81 64.02 11.14C63.94 10.12 63.45 9.32999 62.72 8.65999ZM44.05 9.63999C49.21 9.63999 54.37 9.63999 59.54 9.63999C61.27 9.63999 62.12 10.47 62.12 12.19C62.12 17.14 62.12 22.1 62.12 27.05C62.12 32.07 62.11 37.08 62.13 42.1C62.13 42.58 62.03 42.73 61.53 42.72C60.12 42.69 60.12 42.71 60.12 41.29C60.12 32.09 60.12 22.89 60.12 13.69C60.12 12.18 59.58 11.64 58.05 11.64C53.12 11.64 48.18 11.63 43.25 11.65C42.77 11.65 42.62 11.54 42.63 11.04C42.65 9.63999 42.63 9.63999 44.05 9.63999ZM35.39 1.87999C37.01 1.89999 38.64 1.89999 40.26 1.87999C40.67 1.86999 40.77 1.98999 40.77 2.38999C40.75 4.50999 40.76 6.63999 40.76 8.75999C40.76 10.82 40.74 12.88 40.77 14.94C40.78 15.45 40.62 15.55 40.15 15.54C38.55 15.51 36.94 15.52 35.34 15.54C34.95 15.55 34.86 15.43 34.86 15.05C34.87 10.82 34.88 6.59999 34.86 2.36999C34.86 1.94999 35 1.86999 35.39 1.87999ZM28.12 1.88999C29.13 1.88999 29.13 1.88999 29.13 2.93999C29.13 3.89999 29.13 3.89999 28.16 3.89999C27.12 3.89999 27.12 3.89999 27.12 2.88999C27.12 1.88999 27.12 1.88999 28.12 1.88999ZM23.24 2.39999C23.24 2.01999 23.3 1.86999 23.74 1.86999C25.26 1.87999 25.26 1.85999 25.26 3.36999C25.26 3.76999 25.25 4.15999 25.27 4.55999C25.31 5.23999 25.78 5.73999 26.47 5.74999C27.57 5.77999 28.68 5.77999 29.78 5.74999C30.52 5.72999 30.99 5.21999 31.01 4.45999C31.03 3.74999 31.03 3.03999 31.01 2.33999C31 2.00999 31.06 1.87999 31.44 1.86999C33 1.84999 33 1.83999 33 3.42999C33 7.27999 32.99 11.13 33.01 14.98C33.01 15.4 32.94 15.54 32.48 15.54C29.57 15.52 26.65 15.52 23.74 15.54C23.32 15.54 23.23 15.41 23.24 15.02C23.26 12.9 23.25 10.77 23.25 8.64999C23.24 6.56999 23.25 4.47999 23.24 2.39999ZM5.76003 14.1C5.76003 13.64 5.86003 13.51 6.34003 13.51C11.17 13.53 16 13.53 20.83 13.51C21.26 13.51 21.42 13.61 21.38 14.06C21.34 14.54 21.37 15.02 21.37 15.5C21.38 16.77 22.02 17.4 23.3 17.41C25.19 17.42 27.09 17.41 28.98 17.41C32.83 17.41 36.68 17.41 40.54 17.41C42.06 17.41 42.62 16.82 42.64 15.29C42.65 14.72 42.38 13.95 42.76 13.62C43.09 13.34 43.83 13.53 44.39 13.53C48.8 13.53 53.22 13.54 57.63 13.52C58.11 13.52 58.25 13.63 58.25 14.13C58.23 23.46 58.23 32.79 58.25 42.12C58.25 42.6 58.15 42.76 57.64 42.74C56.73 42.7 55.81 42.7 54.89 42.74C54.41 42.76 54.26 42.64 54.26 42.13C54.29 39.74 54.27 37.34 54.27 34.95C54.27 34.74 54.28 34.53 54.24 34.33C54.16 33.88 53.87 33.64 53.43 33.59C52.99 33.55 52.67 33.74 52.48 34.15C52.38 34.38 52.39 34.64 52.39 34.89C52.39 37.31 52.38 39.72 52.4 42.14C52.4 42.57 52.34 42.75 51.84 42.75C44.43 42.73 37.01 42.73 29.6 42.75C29.18 42.75 29.03 42.66 29.03 42.21C29.05 36.71 29.04 31.21 29.03 25.72C29.03 25.31 29.14 25.19 29.55 25.19C36.98 25.2 44.42 25.2 51.85 25.19C52.3 25.19 52.4 25.33 52.39 25.76C52.37 27.11 52.37 28.47 52.38 29.82C52.39 30.55 52.75 30.96 53.34 30.95C53.89 30.94 54.24 30.59 54.24 29.97C54.25 26.89 54.25 23.81 54.24 20.72C54.24 19.96 53.76 19.5 52.99 19.45C52.8 19.44 52.62 19.45 52.43 19.45C45.6 19.45 38.77 19.45 31.94 19.45C25.11 19.45 18.28 19.45 11.45 19.45C10.08 19.45 9.71003 19.82 9.71003 21.18C9.71003 28.14 9.70003 35.09 9.72003 42.05C9.72003 42.62 9.58003 42.8 9.01003 42.77C8.14003 42.72 7.26003 42.72 6.39003 42.77C5.87003 42.8 5.74003 42.65 5.74003 42.13C5.76003 36.26 5.75003 30.39 5.75003 24.51C5.77003 21.01 5.78003 17.55 5.76003 14.1ZM29.04 22.72C29.06 21.28 29.04 21.28 30.46 21.28C37.55 21.28 44.65 21.29 51.74 21.27C52.31 21.27 52.43 21.42 52.41 21.96C52.37 23.29 52.4 23.29 51.03 23.29C47.58 23.29 44.12 23.29 40.67 23.29C36.99 23.29 33.3 23.28 29.62 23.3C29.16 23.31 29.03 23.19 29.04 22.72ZM27.19 42.11C27.19 42.61 27.05 42.73 26.57 42.73C23.07 42.71 19.58 42.71 16.08 42.73C15.57 42.73 15.47 42.57 15.48 42.1C15.5 36.65 15.5 31.2 15.48 25.74C15.48 25.27 15.59 25.15 16.06 25.15C19.58 25.17 23.09 25.17 26.61 25.15C27.09 25.15 27.19 25.29 27.19 25.75C27.17 28.48 27.18 31.2 27.18 33.93C27.18 36.66 27.16 39.39 27.19 42.11ZM25.75 23.3C24.27 23.3 22.8 23.3 21.32 23.3C19.53 23.3 17.74 23.29 15.95 23.31C15.57 23.31 15.46 23.22 15.46 22.83C15.45 21.29 15.44 21.29 16.95 21.29C20.15 21.29 23.36 21.3 26.56 21.28C27.05 21.28 27.19 21.41 27.18 21.9C27.16 23.3 27.19 23.3 25.75 23.3ZM12.21 25.16C13.61 25.19 13.61 25.17 13.61 26.54C13.61 28.99 13.61 31.45 13.61 33.9C13.61 36.65 13.6 39.39 13.62 42.14C13.62 42.61 13.5 42.74 13.03 42.73C11.6 42.71 11.6 42.73 11.6 41.32C11.6 36.14 11.61 30.96 11.59 25.78C11.59 25.29 11.71 25.15 12.21 25.16ZM11.6 22.3C11.6 21.29 11.6 21.29 12.6 21.29C13.61 21.29 13.61 21.29 13.61 22.3C13.61 23.3 13.61 23.3 12.6 23.3C11.6 23.3 11.6 23.3 11.6 22.3ZM43.34 60.11C44.45 60.11 45 60.9 44.64 61.95C44.6 62.08 44.53 62.11 44.42 62.11C44.25 62.11 44.09 62.11 43.92 62.11C36.01 62.11 28.1 62.11 20.2 62.09C19.93 62.09 19.41 62.43 19.37 61.75C19.31 60.65 19.55 60.18 20.24 60.11C20.4 60.09 20.57 60.1 20.74 60.1C23.13 60.1 25.53 60.1 27.92 60.1C28.43 60.1 28.83 59.95 29 59.45C29.21 58.82 28.78 58.25 28.07 58.23C27.22 58.21 26.37 58.23 25.45 58.23C25.83 56.71 26.18 55.24 26.55 53.78C26.91 52.35 26.91 52.35 28.41 52.35C31.12 52.35 33.82 52.37 36.53 52.34C37.01 52.33 37.16 52.51 37.26 52.93C37.64 54.55 38.05 56.16 38.47 57.76C38.57 58.14 38.51 58.26 38.09 58.25C36.36 58.23 34.64 58.24 32.91 58.24C32.13 58.24 31.7 58.58 31.7 59.18C31.71 59.77 32.15 60.11 32.93 60.11C36.39 60.11 39.86 60.11 43.34 60.11ZM62.11 47.93C62.11 49.64 61.26 50.48 59.53 50.48C58.01 50.48 56.49 50.48 54.97 50.48C38.17 50.48 21.37 50.48 4.58003 50.48C2.68003 50.48 1.89003 49.69 1.89003 47.79C1.89003 46.98 1.93003 46.16 1.88003 45.36C1.84003 44.76 1.97003 44.57 2.63003 44.57C8.85003 44.6 15.08 44.59 21.3 44.59C24.88 44.59 28.46 44.59 32.04 44.59C41.84 44.59 51.65 44.59 61.45 44.58C61.99 44.58 62.16 44.69 62.13 45.25C62.07 46.14 62.11 47.04 62.11 47.93Z" fill="#3247D5"/>
<path d="M31.76 29C32 29.05 32.26 29.05 32.5 29.05C35.23 29.05 37.95 29.05 40.68 29.05C43.43 29.05 46.17 29.05 48.92 29.05C49.15 29.05 49.38 29.05 49.6 29.02C50.1 28.94 50.37 28.63 50.37 28.12C50.37 27.61 50.1 27.3 49.61 27.21C49.45 27.18 49.28 27.18 49.11 27.18C43.51 27.18 37.91 27.18 32.31 27.18C32.1 27.18 31.89 27.19 31.69 27.24C31.26 27.37 31.05 27.7 31.06 28.14C31.1 28.59 31.32 28.9 31.76 29Z" fill="#3247D5"/>
<path d="M49.6101 34.98C49.4501 34.95 49.2801 34.95 49.1101 34.95C43.5301 34.95 37.9501 34.95 32.3801 34.95C32.1701 34.95 31.9601 34.95 31.7601 35C31.3201 35.11 31.1001 35.42 31.0801 35.86C31.0701 36.3 31.2701 36.63 31.7001 36.76C31.9301 36.83 32.1901 36.83 32.4401 36.83C35.1901 36.83 37.9301 36.83 40.6801 36.83C43.4501 36.83 46.2201 36.83 48.9801 36.83C49.1901 36.83 49.4001 36.84 49.6001 36.8C50.1001 36.71 50.3701 36.4 50.3701 35.89C50.3801 35.37 50.1101 35.06 49.6101 34.98Z" fill="#3247D5"/>
<path d="M49.2001 38.83C46.3901 38.84 43.5801 38.83 40.7701 38.83C39.7501 38.83 38.7301 38.83 37.7101 38.83C35.8601 38.83 34.0001 38.82 32.1501 38.83C31.4601 38.83 31.0701 39.19 31.0701 39.77C31.0801 40.34 31.4801 40.68 32.1701 40.7C32.2501 40.7 32.3401 40.7 32.4201 40.7C37.9601 40.7 43.4901 40.7 49.0301 40.7C49.2601 40.7 49.4901 40.7 49.7101 40.64C50.2601 40.5 50.5401 39.93 50.3301 39.41C50.1201 38.92 49.6901 38.83 49.2001 38.83Z" fill="#3247D5"/>
<path d="M32.5401 32.95C37.9901 32.95 43.4501 32.95 48.9001 32.95C49.1501 32.95 49.4001 32.95 49.6501 32.9C50.1801 32.8 50.4601 32.37 50.3801 31.85C50.3001 31.33 49.9401 31.08 49.2101 31.08C46.4001 31.08 43.5901 31.08 40.7801 31.08C38.0301 31.08 35.2901 31.08 32.5401 31.08C31.5001 31.08 31.0801 31.35 31.0801 32.01C31.0801 32.66 31.5201 32.95 32.5401 32.95Z" fill="#3247D5"/>
<path d="M24.0301 38.83C22.2201 38.82 20.4201 38.82 18.6101 38.83C17.8601 38.83 17.4801 39.18 17.4901 39.78C17.5001 40.37 17.9001 40.69 18.6501 40.7C19.5401 40.71 20.4301 40.7 21.3301 40.7C22.2301 40.7 23.1101 40.71 24.0101 40.7C24.7601 40.69 25.1501 40.36 25.1601 39.77C25.1601 39.17 24.7801 38.84 24.0301 38.83Z" fill="#3247D5"/>
<path d="M18.62 29.05C19.52 29.06 20.41 29.05 21.31 29.05C22.23 29.05 23.14 29.06 24.06 29.05C24.78 29.04 25.15 28.72 25.16 28.14C25.17 27.54 24.78 27.19 24.04 27.18C22.23 27.17 20.42 27.17 18.61 27.18C17.9 27.18 17.52 27.51 17.51 28.09C17.48 28.7 17.87 29.04 18.62 29.05Z" fill="#3247D5"/>
<path d="M24.07 31.07C23.15 31.06 22.24 31.07 21.32 31.07C20.4 31.07 19.49 31.06 18.57 31.07C17.86 31.08 17.49 31.41 17.49 32C17.49 32.58 17.87 32.93 18.57 32.94C20.4 32.96 22.23 32.96 24.07 32.94C24.78 32.93 25.15 32.58 25.15 32C25.16 31.41 24.79 31.08 24.07 31.07Z" fill="#3247D5"/>
<path d="M24.07 34.95C22.24 34.94 20.41 34.94 18.57 34.95C17.86 34.96 17.49 35.3 17.49 35.89C17.49 36.47 17.87 36.81 18.58 36.82C19.5 36.83 20.41 36.82 21.33 36.82C22.25 36.82 23.16 36.83 24.08 36.82C24.78 36.81 25.16 36.46 25.16 35.88C25.16 35.29 24.79 34.95 24.07 34.95Z" fill="#3247D5"/>
<path d="M37.85 13.52C38.35 13.51 38.75 13.1 38.75 12.6C38.75 12.08 38.31 11.64 37.79 11.66C37.3 11.68 36.88 12.11 36.88 12.6C36.88 13.11 37.32 13.53 37.85 13.52Z" fill="#3247D5"/>
</g>
<defs>
<clipPath id="clip0_1_1453">
<rect width="64" height="64" fill="white"/>
</clipPath>
</defs>
</svg>
