<svg width="64" height="64" viewBox="0 0 64 64" fill="none" xmlns="http://www.w3.org/2000/svg">
<path d="M53.17 31.96C52.71 31.7 52.6 31.42 52.61 30.94C52.62 24.84 52.62 18.74 52.63 12.64C52.63 12.27 52.55 11.98 52.27 11.7C48.92 8.36999 45.56 5.03999 42.25 1.66999C41.63 1.03999 41.03 0.799988 40.14 0.799988C30.35 0.839988 20.57 0.819988 10.78 0.829988C9.98998 0.829988 9.19999 0.879988 8.42999 1.08999C6.06999 1.73999 3.66999 4.04999 3.69999 7.72999C3.75999 15.85 3.71999 23.97 3.71999 32.09C3.71999 40.25 3.70999 48.42 3.71999 56.58C3.72999 60.6 6.49999 63.37 10.5 63.38C22.29 63.39 34.07 63.39 45.86 63.38C49.41 63.38 51.99 61.18 52.55 57.67C52.62 57.25 52.77 57.03 53.13 56.83C62.73 51.31 62.76 37.49 53.17 31.96ZM41.78 3.34999C44.57 6.12999 47.29 8.85999 50.08 11.64C49.71 11.64 49.35 11.64 48.99 11.64C47.33 11.64 45.67 11.65 44 11.64C42.73 11.63 41.82 10.78 41.79 9.50999C41.75 7.47999 41.78 5.43999 41.78 3.34999ZM46.09 61.97C44.55 61.99 43.01 61.97 41.47 61.97C31.14 61.97 20.81 61.97 10.48 61.97C7.71999 61.97 5.65999 60.28 5.19999 57.63C5.13999 57.28 5.13999 56.93 5.13999 56.57C5.13999 40.26 5.13999 23.96 5.13999 7.64999C5.13999 4.39999 7.27998 2.24999 10.53 2.24999C20.28 2.24999 30.02 2.24999 39.77 2.22999C40.32 2.22999 40.4 2.38999 40.39 2.88999C40.36 5.00999 40.37 7.13999 40.38 9.25999C40.38 11.53 41.82 13.02 44.1 13.06C46.29 13.1 48.47 13.07 50.66 13.06C51.01 13.06 51.23 13.07 51.22 13.54C51.2 19.27 51.21 24.99 51.21 30.72C51.21 30.78 51.19 30.83 51.17 30.93C49.93 30.52 48.69 30.19 47.41 30.07C43.73 29.73 40.41 30.68 37.44 32.86C37.12 33.09 36.81 33.21 36.41 33.2C31.37 33.19 26.33 33.19 21.29 33.19C21.1 33.19 20.91 33.19 20.73 33.2C20.31 33.22 20.06 33.48 20.05 33.87C20.04 34.3 20.3 34.56 20.74 34.6C20.91 34.61 21.07 34.61 21.24 34.61C25.8 34.61 30.36 34.61 34.92 34.61C35.06 34.61 35.2 34.61 35.41 34.61C34.94 35.23 34.5 35.78 34.11 36.35C33.36 37.43 32.77 38.6 32.39 39.86C32.27 40.27 32.09 40.39 31.66 40.39C28.18 40.37 24.7 40.38 21.23 40.38C21 40.38 20.77 40.38 20.55 40.44C20.23 40.52 20.06 40.76 20.05 41.08C20.04 41.42 20.22 41.69 20.56 41.77C20.78 41.82 21.01 41.82 21.24 41.82C24.59 41.82 27.95 41.83 31.3 41.81C31.74 41.81 31.9 41.84 31.81 42.37C31.54 43.94 31.61 45.53 31.94 47.09C32.04 47.55 31.93 47.6 31.52 47.6C28.06 47.59 24.61 47.59 21.15 47.59C20.94 47.59 20.72 47.57 20.53 47.63C20.2 47.74 20.02 48 20.05 48.35C20.08 48.68 20.28 48.93 20.64 48.98C20.82 49 21.01 49 21.2 49C24.74 49 28.28 49.01 31.82 48.99C32.3 48.99 32.5 49.14 32.66 49.58C33.01 50.56 33.51 51.47 34.09 52.34C34.66 53.19 35.31 53.96 36.07 54.72C35.83 54.85 35.61 54.8 35.4 54.8C30.69 54.8 25.99 54.8 21.28 54.8C21.09 54.8 20.9 54.8 20.72 54.81C20.3 54.85 20.06 55.1 20.06 55.5C20.06 55.9 20.31 56.15 20.71 56.21C20.89 56.23 21.08 56.22 21.27 56.22C26.6 56.22 31.93 56.22 37.26 56.21C37.69 56.21 38.05 56.31 38.42 56.54C42.21 58.84 46.22 59.33 50.46 58.02C50.65 57.96 50.83 57.81 51.05 57.89C50.66 60.21 48.57 61.93 46.09 61.97ZM46 57.32C38.9 57.34 33.1 51.52 33.08 44.37C33.06 37.25 38.88 31.44 46.01 31.44C53.15 31.45 58.96 37.26 58.95 44.38C58.94 51.51 53.14 57.3 46 57.32Z" fill="#3247D5"/>
<path d="M11.24 13.08C15.11 13.08 18.98 13.08 22.85 13.08C26.76 13.08 30.68 13.08 34.59 13.08C35.58 13.08 35.74 12.91 35.74 11.91C35.74 10.56 35.74 9.19998 35.74 7.84998C35.74 7.04998 35.54 6.84998 34.75 6.84998C26.84 6.84998 18.93 6.84998 11.02 6.84998C10.23 6.84998 10.02 7.05998 10.02 7.83998C10.02 9.16998 10.02 10.5 10.02 11.84C10.03 12.92 10.18 13.08 11.24 13.08ZM12.04 8.24998C15.75 8.26998 19.45 8.25998 23.16 8.25998C26.66 8.25998 30.15 8.27998 33.65 8.23998C34.25 8.22998 34.38 8.41998 34.34 8.95998C34.29 9.61998 34.29 10.29 34.34 10.96C34.38 11.49 34.25 11.66 33.68 11.65C30.06 11.62 26.44 11.63 22.81 11.63C19.21 11.63 15.61 11.62 12.01 11.64C11.59 11.64 11.43 11.57 11.45 11.11C11.49 10.34 11.5 9.56998 11.45 8.79998C11.42 8.29998 11.61 8.24998 12.04 8.24998Z" fill="#3247D5"/>
<path d="M20.63 20.22C20.81 20.26 21 20.24 21.19 20.24C25.19 20.24 29.19 20.24 33.18 20.24C37.16 20.24 41.13 20.24 45.11 20.24C45.3 20.24 45.49 20.26 45.67 20.22C46.03 20.14 46.26 19.92 46.26 19.52C46.26 19.13 46.05 18.9 45.67 18.83C45.49 18.8 45.3 18.81 45.11 18.81C37.13 18.81 29.16 18.81 21.18 18.81C20.99 18.81 20.8 18.81 20.62 18.84C20.24 18.9 20.02 19.16 20.02 19.53C20.03 19.9 20.26 20.14 20.63 20.22Z" fill="#3247D5"/>
<path d="M45.68 26.02C45.5 25.98 45.31 26 45.12 26C37.15 26 29.17 26 21.2 26C21.03 26 20.87 25.99 20.7 26.01C20.29 26.06 20.04 26.31 20.04 26.71C20.04 27.11 20.28 27.37 20.7 27.41C20.91 27.43 21.12 27.43 21.32 27.43C25.28 27.43 29.23 27.43 33.19 27.43C37.13 27.43 41.06 27.43 45 27.43C45.23 27.43 45.46 27.43 45.69 27.4C46.08 27.35 46.28 27.1 46.28 26.72C46.27 26.33 46.05 26.1 45.68 26.02Z" fill="#3247D5"/>
<path d="M15.71 53.15C14.96 53.91 14.21 54.66 13.46 55.4C13.09 55.77 12.76 56.3 12.32 56.41C12.07 56.47 11.65 55.83 11.3 55.51C10.96 55.19 10.59 55.12 10.25 55.46C9.90997 55.8 9.96997 56.18 10.29 56.51C10.79 57.01 11.29 57.51 11.79 58.01C11.94 58.16 12.12 58.26 12.35 58.24C12.6 58.24 12.78 58.09 12.94 57.93C14.21 56.66 15.47 55.4 16.74 54.13C17.09 53.78 17.25 53.38 16.84 52.99C16.44 52.6 16.06 52.8 15.71 53.15Z" fill="#3247D5"/>
<path d="M15.73 31.54C14.93 32.35 14.11 33.16 13.3 33.97C12.99 34.28 12.7 34.77 12.35 34.82C11.98 34.87 11.73 34.29 11.4 34.01C11.37 33.98 11.34 33.95 11.31 33.92C10.98 33.6 10.61 33.51 10.26 33.85C9.89 34.21 9.98 34.6 10.32 34.94C10.79 35.41 11.26 35.88 11.73 36.35C11.9 36.52 12.08 36.65 12.33 36.63C12.61 36.65 12.8 36.47 12.98 36.3C14.23 35.05 15.48 33.8 16.73 32.55C17.08 32.2 17.26 31.81 16.86 31.41C16.48 31.02 16.08 31.18 15.73 31.54Z" fill="#3247D5"/>
<path d="M15.71 45.95C14.86 46.81 14.01 47.66 13.15 48.51C12.33 49.34 12.33 49.33 11.52 48.53C11.39 48.4 11.26 48.25 11.1 48.16C10.63 47.88 10.02 48.23 10.02 48.77C10.03 49.2 11.86 51.02 12.39 51.04C12.59 51.05 12.79 50.88 12.98 50.68C14.21 49.44 15.45 48.21 16.69 46.97C17.14 46.51 17.21 46.09 16.84 45.79C16.43 45.43 16.06 45.59 15.71 45.95Z" fill="#3247D5"/>
<path d="M16.88 24.21C16.58 23.85 16.13 23.94 15.65 24.41C14.72 25.33 13.77 26.24 12.88 27.2C12.46 27.65 12.18 27.73 11.77 27.21C11.51 26.89 11.26 26.48 10.81 26.46C10.46 26.46 10.24 26.59 10.11 26.86C9.95998 27.17 10.04 27.43 10.25 27.66C10.7 28.13 11.15 28.58 11.61 29.03C12.17 29.58 12.47 29.59 13.02 29.05C14.24 27.83 15.46 26.61 16.68 25.4C17.05 25.04 17.27 24.67 16.88 24.21Z" fill="#3247D5"/>
<path d="M15.87 38.6C15.74 38.71 15.63 38.83 15.51 38.95C14.46 40.01 13.4 41.07 12.29 42.18C11.92 41.79 11.6 41.41 11.24 41.07C10.93 40.77 10.55 40.76 10.24 41.07C9.93 41.38 9.95 41.75 10.25 42.07C10.76 42.59 11.27 43.1 11.79 43.61C12.13 43.94 12.5 43.95 12.83 43.61C14.17 42.28 15.51 40.94 16.84 39.6C17.15 39.29 17.16 38.92 16.85 38.6C16.56 38.29 16.2 38.31 15.87 38.6Z" fill="#3247D5"/>
<path d="M11.71 21.92C12.2 22.39 12.49 22.39 12.98 21.9C14.23 20.66 15.48 19.4 16.73 18.16C16.91 17.98 17.06 17.79 17.09 17.49C17.07 17.24 16.96 17 16.69 16.87C16.33 16.69 16.05 16.83 15.79 17.08C15.01 17.86 14.24 18.64 13.45 19.41C13.08 19.77 12.75 20.31 12.31 20.42C12.06 20.48 11.64 19.84 11.3 19.51C10.96 19.19 10.59 19.13 10.25 19.46C9.90996 19.8 9.95996 20.17 10.29 20.5C10.76 20.98 11.23 21.46 11.71 21.92Z" fill="#3247D5"/>
<path d="M52.71 37.3C52.04 36.63 51.78 36.63 51.12 37.29C48.49 39.92 45.84 42.55 43.23 45.2C42.85 45.59 42.67 45.55 42.34 45.18C41.83 44.61 41.27 44.08 40.71 43.54C40.26 43.11 39.93 43.11 39.48 43.55C38.78 44.23 38.09 44.93 37.41 45.62C36.98 46.06 36.97 46.42 37.4 46.85C38.98 48.44 40.57 50.03 42.17 51.62C42.63 52.08 42.95 52.1 43.4 51.65C47.14 47.92 50.88 44.18 54.61 40.44C54.79 40.26 54.93 40.06 54.92 39.79C54.92 39.51 54.75 39.33 54.57 39.15C53.95 38.54 53.33 37.92 52.71 37.3ZM52.45 40.59C49.36 43.68 46.27 46.77 43.18 49.86C43.06 49.98 42.97 50.12 42.86 50.26C42.71 50.13 42.62 50.06 42.53 49.97C41.38 48.82 40.24 47.67 39.08 46.53C38.85 46.3 38.84 46.18 39.07 45.94C40.07 44.89 40.06 44.88 41.07 45.89C41.38 46.2 41.69 46.51 42 46.82C42.68 47.5 42.92 47.5 43.59 46.83C46.18 44.24 48.78 41.66 51.35 39.05C51.79 38.61 52.02 38.53 52.47 39.03C53.18 39.85 53.22 39.82 52.45 40.59Z" fill="#3247D5"/>
</svg>
