<svg width="64" height="64" viewBox="0 0 64 64" fill="none" xmlns="http://www.w3.org/2000/svg">
<path d="M63.61 61.76C63.75 61.47 63.75 61.12 63.99 60.87C63.99 52.16 63.99 43.46 63.99 34.75C63.56 32.52 62.12 31.33 59.81 31.32C59.54 31.32 59.27 31.32 59 31.32C57.53 31.32 57.72 31.37 57.66 30.08C57.57 28.07 56.03 26.52 54.04 26.34C52.14 26.17 50.42 27.45 49.93 29.36C49.82 29.81 49.8 30.27 49.81 30.72C49.82 31.14 49.63 31.32 49.21 31.32C48.52 31.31 47.84 31.31 47.15 31.32C46.72 31.33 46.54 31.13 46.56 30.71C46.57 30.5 46.56 30.29 46.56 30.09C46.56 21.7 46.56 13.32 46.56 4.92999C46.56 4.63999 46.56 4.34999 46.55 4.05999C46.49 2.01999 45.33 0.239989 43.25 0.019989C29.88 0.019989 16.51 0.019989 3.14002 0.019989C1.36002 0.249989 0.34002 1.26999 0.0200195 3.01999C0.0200195 10.35 0.0200195 17.68 0.0200195 25.01C0.0500195 25.03 0.0900195 25.05 0.11002 25.09C0.51002 25.74 1.00002 26 1.58002 25.84C2.19002 25.67 2.51002 25.18 2.52002 24.4C2.52002 21.8 2.52002 19.19 2.52002 16.59C2.52002 15.42 2.54002 14.26 2.51002 13.09C2.50002 12.66 2.56002 12.49 3.07002 12.5C16.46 12.52 29.85 12.52 43.24 12.5C43.75 12.5 43.84 12.66 43.84 13.13C43.83 19.06 43.83 25 43.84 30.93C43.84 31.38 43.76 31.55 43.27 31.52C42.54 31.47 41.81 31.48 41.09 31.52C40.63 31.55 40.51 31.42 40.51 30.95C40.53 27.2 40.52 23.45 40.52 19.71C40.52 18.41 40.13 18.02 38.86 18.02C28.47 18.02 18.08 18.02 7.69002 18.02C6.44002 18.02 6.04002 18.42 6.04002 19.65C6.04002 23.9 6.04002 28.15 6.04002 32.39C6.04002 33.6 6.45002 34.01 7.65002 34.01C13.77 34.01 19.89 34.01 26.02 34.01C26.25 34.01 26.48 34.01 26.77 34.01C26.56 34.71 26.49 35.4 26.54 36.09C26.57 36.52 26.28 36.42 26.05 36.42C22.86 36.42 19.68 36.42 16.49 36.42C16.24 36.42 15.99 36.42 15.75 36.48C15.14 36.62 14.75 37.16 14.8 37.76C14.84 38.34 15.27 38.81 15.87 38.89C16.1 38.92 16.33 38.92 16.56 38.92C19.66 38.92 22.77 38.94 25.87 38.9C26.47 38.89 26.61 39.09 26.56 39.63C26.52 40.06 26.53 40.51 26.56 40.94C26.59 41.32 26.49 41.45 26.09 41.43C25.3 41.4 24.51 41.42 23.72 41.42C18.47 41.42 13.23 41.42 7.98002 41.42C7.71002 41.42 7.43002 41.43 7.18002 41.49C6.60002 41.63 6.24002 42.14 6.27002 42.74C6.30002 43.33 6.72002 43.81 7.31002 43.89C7.56002 43.92 7.81002 43.92 8.06002 43.92C14.02 43.92 19.97 43.93 25.93 43.91C26.44 43.91 26.61 44.01 26.58 44.55C26.53 45.55 26.55 46.55 26.57 47.55C26.58 47.88 26.53 48.02 26.15 48.02C18.67 47.99 11.26 48 3.85002 47.99C2.98002 47.99 2.52002 47.47 2.52002 46.54C2.52002 43.04 2.52002 39.54 2.52002 36.04C2.52002 35.07 1.79002 34.44 0.97002 34.66C0.51002 34.78 0.27002 35.14 0.0300195 35.5C0.0300195 39.5 0.0300195 43.5 0.0300195 47.5C0.16002 48.57 0.67002 49.41 1.58002 50C2.37002 50.52 3.25002 50.69 4.19002 50.69C11.2 50.68 18.21 50.69 25.21 50.69C26.32 50.69 26.32 50.69 26.32 51.77C26.32 54.43 26.32 57.09 26.32 59.76C26.32 62.07 27.42 63.47 29.63 63.99C40 63.99 50.37 63.99 60.74 63.99C61.99 63.63 63.02 62.97 63.61 61.76ZM53.73 29.01C54.47 29 54.98 29.56 54.99 30.4C55 31.19 54.99 31.98 54.99 32.77C54.99 33.56 55 34.35 54.99 35.14C54.98 35.94 54.47 36.49 53.76 36.5C53.04 36.51 52.51 35.96 52.5 35.17C52.49 33.57 52.49 31.97 52.5 30.37C52.5 29.56 53.01 29.01 53.73 29.01ZM43.21 10.01C36.78 9.99999 30.34 9.99999 23.91 9.99999C23.66 9.99999 23.41 9.99999 23.16 9.99999C16.48 9.99999 9.79002 9.98999 3.11002 10.01C2.63002 10.01 2.49002 9.89999 2.50002 9.40999C2.53002 7.59999 2.51002 5.78999 2.51002 3.97999C2.51002 2.98999 2.97002 2.50999 3.95002 2.50999C16.75 2.50999 29.56 2.50999 42.36 2.50999C43.34 2.50999 43.8 2.97999 43.81 3.97999C43.82 5.80999 43.79 7.63999 43.83 9.47999C43.84 10.02 43.6 10.01 43.21 10.01ZM38.01 26.38C38.01 26.65 37.93 26.68 37.69 26.63C35.76 26.24 34.31 26.91 33.38 28.65C33.18 29.02 32.99 28.84 32.78 28.75C30.7 27.87 28.62 26.98 26.4 26.04C30.31 24.39 34.12 22.78 37.99 21.15C38 22.94 38 24.66 38.01 26.38ZM38 32.8C38 33.59 38.01 34.38 38 35.17C37.99 35.96 37.46 36.51 36.74 36.5C36.05 36.49 35.52 35.96 35.51 35.2C35.49 33.56 35.49 31.92 35.51 30.28C35.52 29.54 36.08 29 36.77 29.01C37.46 29.02 37.98 29.55 38 30.31C38.01 31.13 38 31.96 38 32.8ZM13.66 20.52C20.04 20.52 26.42 20.52 32.8 20.52C32.81 20.55 32.82 20.58 32.84 20.61C32.32 20.83 31.81 21.05 31.29 21.27C28.77 22.34 26.25 23.4 23.73 24.47C23.36 24.63 23.05 24.63 22.67 24.46C19.67 23.16 16.65 21.89 13.64 20.61C13.65 20.58 13.65 20.55 13.66 20.52ZM8.55002 21.16C12.34 22.77 16.12 24.38 19.99 26.03C16.11 27.67 12.36 29.25 8.55002 30.86C8.55002 27.61 8.55002 24.43 8.55002 21.16ZM13.56 31.46C15.24 30.75 16.77 30.1 18.31 29.45C19.8 28.82 21.29 28.19 22.78 27.56C23.01 27.46 23.21 27.38 23.48 27.49C26.53 28.8 29.58 30.09 32.78 31.45C26.32 31.46 20.02 31.46 13.56 31.46ZM29 35.63C29 34.57 29.55 34.01 30.6 34C31.25 33.99 31.89 34.03 32.54 33.99C32.95 33.96 33.02 34.12 33.01 34.48C32.99 35 32.97 35.52 33.09 36.03C33.51 37.89 35.2 39.15 37.08 38.98C38.97 38.82 40.44 37.23 40.49 35.31C40.53 34 40.53 34 41.88 34C44.42 34 46.96 34.01 49.5 33.99C49.91 33.99 50.03 34.1 50.01 34.5C49.97 35.12 49.98 35.75 50.16 36.36C50.69 38.08 52.47 39.22 54.22 38.97C56.06 38.71 57.43 37.19 57.49 35.35C57.5 34.92 57.36 34.33 57.58 34.09C57.85 33.8 58.44 34.02 58.89 34C59.26 33.98 59.64 33.99 60.01 34C60.89 34.03 61.47 34.57 61.48 35.44C61.5 37.33 61.47 39.23 61.5 41.12C61.51 41.65 61.17 41.49 60.92 41.49C55.69 41.5 50.47 41.49 45.24 41.49C40.04 41.49 34.83 41.48 29.63 41.5C29.11 41.5 28.98 41.39 28.99 40.86C29.03 39.13 29 37.38 29 35.63ZM47.48 56.37C46.74 56.81 46.41 57.32 46.47 58.18C46.53 59.13 46.47 60.09 46.49 61.05C46.5 61.41 46.38 61.52 46.04 61.49C45.38 61.43 44.53 61.76 44.13 61.35C43.81 61.03 44.04 60.17 44.03 59.55C44.02 59.01 44.01 58.47 44.03 57.93C44.07 57.25 43.77 56.81 43.18 56.47C41.24 55.35 40.49 53.07 41.37 51.09C41.42 50.98 41.49 50.88 41.56 50.76C42.16 52.51 43.29 53.57 45.17 53.63C46.92 53.69 48.1 52.77 48.94 50.77C50.08 52.62 49.44 55.21 47.48 56.37ZM61.49 59.79C61.49 60.97 60.96 61.49 59.77 61.49C56.36 61.49 52.94 61.48 49.53 61.5C49.11 61.5 48.9 61.43 48.98 60.97C49 60.87 48.99 60.76 48.98 60.66C48.82 59.31 49.17 58.31 50.22 57.25C53.24 54.21 52.29 48.96 48.53 46.9C47.44 46.3 46.51 46.85 46.5 48.09C46.49 48.67 46.51 49.26 46.5 49.84C46.48 50.62 45.99 51.13 45.27 51.14C44.53 51.15 44.02 50.63 44 49.82C43.99 49.24 44 48.65 44 48.07C43.99 46.87 43.05 46.32 42 46.88C37.85 49.12 37.31 55.05 41.02 57.99C41.41 58.3 41.57 58.59 41.54 59.07C41.5 59.76 41.52 60.44 41.54 61.13C41.55 61.4 41.46 61.48 41.19 61.48C37.59 61.47 33.99 61.48 30.38 61.46C29.56 61.46 29.02 60.84 29.02 59.98C29.01 58.34 29.02 56.69 29.02 55.05C29.02 51.57 29.03 48.1 29.01 44.62C29.01 44.11 29.11 43.97 29.64 43.97C34.85 44.01 40.07 44 45.3 44C50.51 44 55.71 44.01 60.92 43.99C61.36 43.99 61.51 44.06 61.51 44.55C61.48 49.63 61.49 54.71 61.49 59.79Z" fill="#3247D5"/>
<path d="M0.47002 30.98C0.940019 31.43 1.60002 31.45 2.03002 31.01C2.44002 30.59 2.44002 29.91 2.03002 29.49C1.61002 29.05 0.940019 29.07 0.47002 29.52C0.33002 29.65 0.29002 29.92 0.0200195 29.87C0.0200195 30.12 0.0200195 30.37 0.0200195 30.62C0.29002 30.58 0.33002 30.85 0.47002 30.98Z" fill="#3247D5"/>
<path d="M63.99 60.87C63.64 62.67 62.58 63.73 60.74 63.99C61.72 63.99 62.7 63.98 63.68 64C63.94 64 64 63.95 64 63.68C63.97 62.74 63.99 61.8 63.99 60.87Z" fill="#3247D5"/>
<path d="M38.12 5.01C36.62 5 35.13 5.01 33.63 5.01C32.09 5.01 30.55 5.01 29.01 5.01C28.14 5.01 27.59 5.48 27.58 6.23C27.56 7 28.12 7.51 29.01 7.51C32.05 7.51 35.08 7.51 38.12 7.51C38.99 7.51 39.54 7.03 39.55 6.29C39.57 5.52 39.01 5.02 38.12 5.01Z" fill="#3247D5"/>
<path d="M7.83001 5.00998C7.16001 5.00998 6.61001 5.53998 6.59001 6.21998C6.57001 6.91998 7.12001 7.49998 7.82001 7.50998C8.49001 7.50998 9.04001 6.97998 9.06001 6.29998C9.08001 5.59998 8.53001 5.01998 7.83001 5.00998Z" fill="#3247D5"/>
<path d="M13.37 5.01C12.68 4.98 12.09 5.54 12.08 6.24C12.07 6.94 12.64 7.51 13.33 7.51C14 7.5 14.55 6.95 14.56 6.28C14.57 5.6 14.04 5.04 13.37 5.01Z" fill="#3247D5"/>
<path d="M18.79 5.01C18.1 5.03 17.55 5.62 17.58 6.32C17.61 6.99 18.18 7.52 18.84 7.51C19.53 7.49 20.08 6.9 20.05 6.2C20.02 5.53 19.46 5 18.79 5.01Z" fill="#3247D5"/>
</svg>
