<svg width="64" height="64" viewBox="0 0 64 64" fill="none" xmlns="http://www.w3.org/2000/svg">
<path d="M61.16 53.27C61.04 53.2 60.89 53.16 60.77 53.08C60.3 52.79 59.84 52.48 59.84 51.85C59.85 51.25 60.29 50.95 60.74 50.67C60.81 50.63 60.89 50.6 60.96 50.56C61.58 50.23 61.76 49.87 61.6 49.18C61.36 48.16 60.98 47.2 60.45 46.3C59.83 45.25 59.75 45.21 58.57 45.49C57.23 45.81 56.55 45.12 56.9 43.77C56.93 43.65 56.97 43.53 57.02 43.41C57.2 42.98 57.05 42.59 56.71 42.36C55.56 41.55 54.3 40.93 52.9 40.76C52.42 40.7 52.36 40.61 52.36 40.18C52.37 34.97 52.37 29.77 52.37 24.56C52.37 19.4 52.38 14.23 52.37 9.07C52.37 6.74 50.87 5.25 48.55 5.24C47.24 5.24 45.93 5.21 44.61 5.25C44.09 5.28 44 5.11 44 4.64C43.99 2.58 42.42 1 40.44 0.99C38.46 0.99 36.89 2.55 36.87 4.62C36.86 5.08 36.72 5.16 36.3 5.15C34.7 5.13 33.09 5.12 31.49 5.15C31 5.16 30.84 5.08 30.82 4.53C30.73 2.08 28.41 0.41 26.17 1.14C24.68 1.62 23.71 2.97 23.65 4.65C23.64 4.88 23.75 5.14 23.32 5.14C21.61 5.12 19.9 5.13 18.2 5.14C17.92 5.14 17.84 5.05 17.86 4.78C17.88 4.23 17.79 3.7 17.57 3.2C16.91 1.64 15.22 0.71 13.62 1.03C11.96 1.35 10.72 2.81 10.69 4.59C10.68 5.08 10.53 5.16 10.09 5.15C8.68998 5.13 7.29998 5.14 5.89998 5.15C4.35998 5.16 3.09998 6.07 2.56998 7.51C2.34998 8.09 2.34998 8.7 2.34998 9.3C2.34998 22.69 2.34998 36.08 2.34998 49.47C2.34998 49.7 2.35998 49.93 2.35998 50.16C2.35998 52.3 4.10998 54.87 7.13998 54.79C9.77998 54.72 12.43 54.77 15.07 54.77C23.02 54.77 30.98 54.78 38.93 54.76C39.41 54.76 39.62 54.89 39.75 55.35C39.99 56.19 40.38 56.97 40.83 57.72C41.19 58.32 41.49 58.44 42.18 58.23C42.77 58.05 43.38 57.88 43.89 58.36C44.41 58.85 44.24 59.47 44.07 60.06C44.05 60.14 44.01 60.22 44 60.3C43.9 60.78 44.02 61.15 44.47 61.41C45.38 61.92 46.29 62.4 47.29 62.72C48.59 63.13 48.68 63.09 49.37 61.94C49.43 61.83 49.5 61.73 49.58 61.63C50.16 60.94 50.84 60.92 51.43 61.6C51.58 61.77 51.69 61.97 51.8 62.17C52.19 62.9 52.51 63.06 53.32 62.84C54.31 62.58 55.25 62.2 56.14 61.69C57.14 61.11 57.18 60.99 56.91 59.85C56.87 59.67 56.84 59.48 56.83 59.29C56.8 58.51 57.22 58.08 57.99 58.08C58.35 58.08 58.69 58.18 59.02 58.29C59.45 58.44 59.83 58.34 60.06 57.96C60.75 56.82 61.34 55.64 61.64 54.32C61.74 53.83 61.56 53.51 61.16 53.27ZM40.54 2.92C41.48 2.93 42.22 3.8 42.18 4.82C42.17 5.1 42.07 5.17 41.81 5.16C41.35 5.14 40.9 5.16 40.44 5.16C40.07 5.16 39.69 5.14 39.32 5.17C39 5.17 38.86 5.1 38.87 4.72C38.89 3.73 39.63 2.91 40.54 2.92ZM25.63 4.36C25.75 3.48 26.65 2.8 27.51 2.94C28.44 3.1 29.05 3.98 28.9 4.91C28.86 5.16 28.73 5.14 28.56 5.14C28.1 5.14 27.65 5.14 27.19 5.14C26.9 5.14 26.61 5.14 26.32 5.14C25.52 5.14 25.52 5.14 25.63 4.36ZM12.51 4.59C12.58 3.61 13.42 2.83 14.31 2.93C15.25 3.04 15.93 3.94 15.81 4.89C15.78 5.12 15.69 5.15 15.5 5.15C15.04 5.14 14.59 5.15 14.13 5.15C13.76 5.15 13.38 5.11 13.01 5.16C12.53 5.21 12.48 4.98 12.51 4.59ZM4.26998 9.08C4.27998 7.8 4.91998 7.18 6.19998 7.17C9.23998 7.17 12.28 7.18 15.32 7.16C15.79 7.16 15.93 7.27 15.9 7.75C15.83 8.69 15.31 9.29 14.36 9.39C13.95 9.44 13.58 9.52 13.38 9.94C13.02 10.72 13.59 11.43 14.51 11.35C16.42 11.19 17.82 9.7 17.84 7.72C17.85 7.2 17.98 7.08 18.49 7.08C21.8 7.11 25.11 7.11 28.42 7.08C28.96 7.08 29.04 7.27 28.99 7.72C28.91 8.54 28.37 9.14 27.55 9.29C27.45 9.31 27.34 9.32 27.24 9.34C26.66 9.46 26.33 9.86 26.38 10.38C26.43 10.92 26.86 11.27 27.47 11.26C29.16 11.25 30.73 9.78 30.89 8.04C30.98 7.1 30.98 7.1 31.94 7.1C35.17 7.1 38.39 7.12 41.62 7.08C42.23 7.07 42.31 7.29 42.25 7.79C42.17 8.51 41.65 9.13 40.94 9.28C40.82 9.31 40.69 9.31 40.57 9.34C39.95 9.46 39.59 9.87 39.65 10.4C39.71 10.95 40.17 11.3 40.82 11.27C42.59 11.2 44.12 9.66 44.19 7.8C44.21 7.23 44.35 7.08 44.91 7.1C46.2 7.14 47.49 7.11 48.78 7.12C49.94 7.13 50.58 7.76 50.6 8.94C50.62 10.42 50.58 11.9 50.62 13.37C50.63 13.88 50.5 14.02 49.98 14.02C42.44 14 34.91 14.01 27.37 14.01C19.9 14.01 12.42 14 4.94998 14.02C4.42998 14.02 4.22998 13.94 4.25998 13.35C4.29998 11.92 4.25998 10.5 4.26998 9.08ZM44.07 43.57C44.09 43.65 44.11 43.73 44.13 43.81C44.46 45.16 43.79 45.82 42.43 45.49C41.34 45.22 41.17 45.29 40.63 46.24C40.1 47.16 39.69 48.13 39.43 49.17C39.24 49.95 39.35 50.23 40.06 50.57C40.33 50.7 40.58 50.84 40.78 51.05C41.09 51.38 41.33 51.75 41.11 52.22C40.9 52.68 40.59 52.95 40.01 52.95C32.18 52.93 24.35 52.94 16.53 52.94C13.41 52.94 10.28 52.9 7.15998 52.96C5.36998 52.99 4.37998 51.68 4.26998 50.24C4.24998 50.01 4.25998 49.78 4.25998 49.55C4.25998 38.6 4.25998 27.65 4.24998 16.7C4.24998 16.13 4.38998 15.99 4.94998 15.99C12.44 16.01 19.94 16 27.43 16C34.9 16 42.38 16.01 49.85 15.99C50.34 15.99 50.51 16.07 50.5 16.61C50.48 25.02 50.49 33.43 50.48 41.84C50.48 42.03 50.59 42.32 50.39 42.41C50.18 42.5 49.97 42.31 49.79 42.16C49.52 41.93 49.34 41.63 49.17 41.31C48.85 40.68 48.48 40.53 47.79 40.7C46.67 40.98 45.62 41.4 44.64 42.01C43.97 42.45 43.84 42.79 44.07 43.57ZM50.55 57.29C47.52 57.32 45.01 54.86 44.99 51.83C44.97 48.76 47.44 46.26 50.5 46.25C53.55 46.24 56 48.69 56.02 51.75C56.04 54.8 53.62 57.26 50.55 57.29Z" fill="#3247D5"/>
<path d="M14.19 40.52C12.24 40.51 10.28 40.51 8.32999 40.52C7.54999 40.52 7.17999 40.88 7.17999 41.67C7.16999 43.85 7.16999 46.04 7.17999 48.22C7.17999 49.03 7.51999 49.35 8.32999 49.35C10.31 49.36 12.28 49.36 14.26 49.35C15.11 49.35 15.41 49.04 15.41 48.17C15.42 47.13 15.41 46.09 15.41 45.05C15.41 43.95 15.42 42.85 15.41 41.74C15.41 40.92 15.03 40.53 14.19 40.52Z" fill="#3247D5"/>
<path d="M8.31999 27.74C10.3 27.75 12.28 27.75 14.25 27.74C15.05 27.74 15.4 27.39 15.41 26.6C15.42 25.52 15.41 24.43 15.41 23.35C15.41 22.27 15.42 21.18 15.41 20.1C15.4 19.27 15.07 18.91 14.25 18.9C12.27 18.88 10.29 18.89 8.31999 18.9C7.55999 18.9 7.18999 19.26 7.18999 20.01C7.16999 22.22 7.16999 24.42 7.18999 26.63C7.18999 27.39 7.56999 27.74 8.31999 27.74Z" fill="#3247D5"/>
<path d="M8.28999 38.49C10.29 38.5 12.28 38.5 14.28 38.49C15.1 38.49 15.4 38.18 15.41 37.36C15.42 36.3 15.41 35.24 15.41 34.18C15.41 33.08 15.42 31.98 15.41 30.87C15.4 30.07 15.04 29.67 14.23 29.67C12.26 29.65 10.28 29.66 8.30999 29.67C7.54999 29.67 7.18999 30.02 7.17999 30.78C7.16999 32.98 7.16999 35.19 7.17999 37.39C7.18999 38.17 7.51999 38.49 8.28999 38.49Z" fill="#3247D5"/>
<path d="M46.45 29.67C44.45 29.65 42.45 29.65 40.46 29.67C39.77 29.68 39.38 30.08 39.37 30.77C39.36 32.98 39.36 35.18 39.37 37.39C39.37 38.13 39.74 38.49 40.49 38.49C42.45 38.5 44.4 38.5 46.36 38.49C47.15 38.49 47.49 38.13 47.5 37.34C47.51 36.26 47.5 35.18 47.5 34.09C47.5 32.99 47.51 31.88 47.5 30.78C47.49 30.06 47.16 29.68 46.45 29.67Z" fill="#3247D5"/>
<path d="M24.89 18.9C23 18.89 21.11 18.89 19.21 18.9C18.32 18.9 17.96 19.27 17.95 20.15C17.94 21.21 17.95 22.27 17.95 23.33C17.95 24.39 17.94 25.45 17.95 26.51C17.96 27.36 18.33 27.73 19.17 27.73C21.06 27.74 22.95 27.74 24.85 27.73C25.72 27.73 26.1 27.34 26.1 26.47C26.11 24.35 26.11 22.23 26.1 20.11C26.09 19.23 25.77 18.91 24.89 18.9Z" fill="#3247D5"/>
<path d="M29.86 38.5C31.79 38.51 33.73 38.51 35.66 38.5C36.48 38.5 36.8499 38.14 36.8499 37.33C36.8599 35.19 36.8599 33.05 36.8499 30.9C36.8499 30.06 36.46 29.67 35.63 29.67C33.72 29.66 31.8 29.66 29.89 29.67C29.08 29.67 28.7199 30.05 28.7099 30.86C28.6999 31.94 28.7099 33.02 28.7099 34.1C28.7099 35.18 28.6999 36.26 28.7099 37.34C28.7199 38.15 29.07 38.49 29.86 38.5Z" fill="#3247D5"/>
<path d="M24.91 40.52C23 40.51 21.08 40.51 19.17 40.52C18.33 40.52 17.96 40.9 17.95 41.75C17.94 42.79 17.95 43.83 17.95 44.87C17.95 45.99 17.94 47.12 17.95 48.24C17.96 48.99 18.32 49.35 19.07 49.35C21.03 49.36 22.98 49.36 24.94 49.35C25.71 49.35 26.09 48.98 26.09 48.2C26.1 46.04 26.1 43.87 26.09 41.71C26.09 40.88 25.73 40.53 24.91 40.52Z" fill="#3247D5"/>
<path d="M29.93 27.74C31.83 27.75 33.72 27.75 35.62 27.74C36.46 27.74 36.85 27.35 36.86 26.52C36.87 25.46 36.86 24.4 36.86 23.33C36.86 22.26 36.86 21.21 36.86 20.14C36.85 19.24 36.51 18.9 35.6 18.89C33.73 18.88 31.85 18.88 29.98 18.89C29.09 18.89 28.72 19.25 28.72 20.13C28.71 22.25 28.71 24.38 28.72 26.5C28.72 27.37 29.09 27.74 29.93 27.74Z" fill="#3247D5"/>
<path d="M46.4 18.91C44.44 18.9 42.49 18.9 40.53 18.91C39.76 18.91 39.37 19.31 39.36 20.06C39.35 22.24 39.35 24.43 39.36 26.61C39.36 27.33 39.76 27.74 40.48 27.74C42.44 27.75 44.39 27.75 46.35 27.74C47.1 27.74 47.49 27.33 47.49 26.57C47.5 25.49 47.49 24.41 47.49 23.33C47.49 22.23 47.5 21.13 47.49 20.02C47.49 19.24 47.18 18.91 46.4 18.91Z" fill="#3247D5"/>
<path d="M24.92 29.67C23.01 29.66 21.09 29.66 19.18 29.67C18.34 29.67 17.96 30.05 17.95 30.89C17.94 31.93 17.95 32.97 17.95 34.01C17.95 35.11 17.94 36.22 17.95 37.32C17.96 38.15 18.3 38.5 19.13 38.5C21.04 38.51 22.96 38.51 24.87 38.5C25.73 38.5 26.09 38.15 26.1 37.3C26.11 35.16 26.11 33.01 26.1 30.87C26.09 30.03 25.74 29.68 24.92 29.67Z" fill="#3247D5"/>
<path d="M35.45 42.02C34.29 43.18 33.11 44.33 31.97 45.52C31.67 45.83 31.51 45.8 31.24 45.51C30.87 45.09 30.45 44.71 30.05 44.31C29.84 44.1 29.6 43.95 29.28 43.93C28.88 43.95 28.56 44.14 28.4 44.51C28.24 44.88 28.29 45.25 28.59 45.55C29.37 46.33 30.14 47.12 30.93 47.89C31.38 48.32 31.88 48.29 32.36 47.82C33.85 46.34 35.34 44.85 36.82 43.36C37.34 42.84 37.36 42.31 36.91 41.88C36.5 41.47 35.95 41.52 35.45 42.02Z" fill="#3247D5"/>
</svg>
