<svg width="64" height="64" viewBox="0 0 64 64" fill="none" xmlns="http://www.w3.org/2000/svg">
<g clip-path="url(#clip0_1_1526)">
<path d="M60.5201 23.13C60.0001 23.28 59.8601 23.74 59.7501 24.18C59.4601 25.32 58.9901 26.38 58.3101 27.35C56.0501 30.56 52.6101 31.99 48.7201 31.34C45.9501 30.88 43.8201 29.36 42.3001 26.99C42.0101 26.53 42.0701 26.3 42.4901 25.98C44.6401 24.35 45.1101 21.48 43.6101 19.24C43.3401 18.84 43.3401 18.56 43.6201 18.18C44.3301 17.22 44.7401 16.13 44.7701 14.93C44.7801 14.38 45.0001 14.04 45.4501 13.77C47.1401 12.73 48.9701 12.33 50.9401 12.41C53.6401 12.52 55.8301 13.66 57.6101 15.62C58.7101 16.83 59.3901 18.27 59.8001 19.85C59.9901 20.6 60.5601 20.92 61.2001 20.75C61.7701 20.6 62.0801 19.99 61.9101 19.29C60.4701 13.38 55.0101 9.46 48.7001 10.29C47.3901 10.46 46.1601 10.91 44.9801 11.52C44.2801 11.88 44.2801 11.87 43.8901 11.23C43.6701 10.87 43.4401 10.52 43.1301 10.25C42.6601 9.85 42.5501 9.36 42.5201 8.76C42.4201 6.93 41.6701 5.38 40.2501 4.2C38.6201 2.84 36.7501 2.44 34.6901 2.91C34.3401 2.99 34.1001 2.93 33.8801 2.63C32.8001 1.12 31.4101 0.129999 29.4901 0.0299988C28.9501 0.0299988 28.4101 0.0299988 27.8701 0.0299988C25.9401 0.139999 24.5101 1.11 23.4201 2.65C23.1501 3.03 22.8301 2.93 22.4801 2.86C18.4601 2.06 14.9201 4.89 14.8301 8.99C14.8201 9.44 14.7001 9.8 14.3701 10.1C12.2101 12.06 11.9501 15.77 13.6601 18.11C13.9701 18.54 14.0001 18.87 13.7001 19.33C13.0301 20.37 12.6701 21.51 12.9101 22.77C13.3401 25.05 14.7801 26.5 17.0701 26.93C17.5001 27.01 17.7901 27.19 17.9501 27.61C18.4301 28.84 19.2001 29.85 20.1601 30.75C21.0801 31.61 21.0401 31.6 20.3801 32.72C20.0401 33.31 19.6101 33.49 18.9601 33.48C17.1501 33.45 15.3401 33.46 13.5301 33.47C9.55006 33.5 6.23006 36.78 6.21006 40.76C6.18006 47.46 6.20006 54.17 6.21006 60.87C6.21006 62.55 6.94006 63.52 8.50006 64C23.4901 64 38.4901 64 53.4801 64C53.9501 63.87 54.4501 63.87 54.9001 63.59C56.1601 62.8 56.7301 61.62 56.7601 60.18C56.8001 58.06 56.8001 55.93 56.7601 53.81C56.7401 52.8 56.4601 51.82 55.6601 51.17C54.9101 50.56 54.6401 49.86 54.7701 48.95C54.7801 48.85 54.7701 48.74 54.7701 48.64C54.7401 47.58 54.0801 46.9 53.0101 46.85C52.6101 46.83 52.2201 46.82 51.8201 46.85C51.3001 46.89 51.1301 46.66 51.1401 46.15C51.1601 44.53 51.1501 42.9 51.1501 41.28C51.1501 40.57 51.0701 39.86 50.9101 39.18C50.1201 35.83 47.1401 33.49 43.6901 33.48C42.1301 33.48 40.5601 33.39 39.0101 33.51C37.8301 33.6 37.0901 33.24 36.6001 32.16C36.3101 31.51 36.2301 31.49 36.8201 31.03C37.9201 30.18 38.7101 29.11 39.2801 27.85C39.3901 27.61 39.4201 27.24 39.7101 27.22C40.0301 27.19 40.0701 27.57 40.2001 27.79C42.5001 31.81 46.9001 34.25 51.9601 33.63C55.3901 33.2 58.1401 31.48 60.1301 28.63C61.0001 27.39 61.5801 26.01 61.9301 24.54C62.1501 23.59 61.4101 22.88 60.5201 23.13ZM17.0801 24.86C15.8601 24.58 14.8801 23.31 14.9001 22C14.9101 20.68 15.8901 19.47 17.1401 19.18C17.5101 19.09 17.5001 19.26 17.5001 19.52C17.4901 20.35 17.5001 21.19 17.5001 22.02C17.5001 22.85 17.4801 23.69 17.5101 24.52C17.5201 24.89 17.3901 24.93 17.0801 24.86ZM19.9201 37.35C20.9101 35.77 21.8801 34.17 22.8601 32.58C22.9601 32.41 23.0201 32.16 23.3101 32.34C23.5901 32.52 23.3101 32.65 23.2701 32.79C23.1901 33.05 23.0701 33.29 23.0001 33.55C22.8801 33.97 22.8501 34.41 22.2501 34.53C21.9201 34.6 21.8001 35 21.8301 35.36C21.8601 35.75 22.0501 36.04 22.4301 36.15C22.7301 36.24 22.8301 36.39 22.9101 36.69C23.2501 38.09 24.0101 39.24 25.1901 40.08C25.4601 40.28 25.5801 40.47 25.5601 40.79C25.5401 41.1 25.5601 41.41 25.5501 41.73C25.5401 42.75 25.5201 43.65 24.8101 44.61C24.0901 45.58 23.3101 46.46 22.4501 47.38C21.5701 45.94 20.7301 44.55 19.8701 43.18C19.7101 42.92 19.7501 42.8 19.9901 42.64C20.6801 42.17 21.3501 41.69 22.0201 41.2C22.7801 40.65 22.7801 39.99 22.0401 39.44C21.3901 38.96 20.7401 38.47 20.0501 38.04C19.7101 37.82 19.7301 37.65 19.9201 37.35ZM28.8201 31.23C30.6501 31.27 32.3101 32.64 32.5901 34.36C30.0801 34.36 27.5701 34.36 25.0601 34.36C24.8201 34.36 24.7301 34.32 24.7901 34.05C25.1301 32.49 26.9701 31.19 28.8201 31.23ZM27.2201 27.71C26.3801 27.7 26.0301 27.22 26.1901 26.39C26.2501 26.1 26.4301 26.15 26.6001 26.15C27.3101 26.15 28.0101 26.15 28.7201 26.15C29.3001 26.15 29.8901 26.13 30.4701 26.16C30.6901 26.17 31.0801 25.95 31.1301 26.37C31.1801 26.83 31.2701 27.36 30.7001 27.62C30.5401 27.69 30.3401 27.71 30.1501 27.71C29.1801 27.72 28.2001 27.72 27.2201 27.71ZM30.9001 53.48C31.2101 53.73 31.3901 54.01 31.2501 54.39C31.1101 54.77 30.7801 54.88 30.3901 54.87C29.6001 54.86 28.8101 54.87 28.0201 54.87C26.8301 54.86 26.0701 54.12 26.0501 52.93C26.0301 51.87 26.0501 50.81 26.0501 49.75C26.0501 48.75 26.0401 47.75 26.0501 46.76C26.0601 45.44 26.7901 44.72 28.1001 44.71C28.8701 44.7 29.6401 44.71 30.4101 44.71C30.7901 44.71 31.1301 44.78 31.2601 45.19C31.3901 45.58 31.2001 45.85 30.9001 46.1C30.3101 46.58 30.3201 47.17 30.9001 47.67C31.4701 48.16 31.4601 48.51 30.8701 49.03C30.3301 49.5 30.3401 50.08 30.8801 50.57C31.4601 51.09 31.4701 51.42 30.8901 51.93C30.3101 52.41 30.3001 52.99 30.9001 53.48ZM29.9401 57.99C29.9701 58.61 29.8101 58.87 29.1801 58.74C29.1001 58.72 29.0101 58.74 28.9301 58.74C27.3801 58.74 27.3901 58.74 27.4201 57.18C27.4301 56.83 27.5101 56.69 27.8701 56.74C28.1401 56.77 28.4101 56.75 28.6801 56.75C29.9201 56.74 29.8801 56.74 29.9401 57.99ZM27.4101 41.62C27.4101 41.2 27.4901 41.08 27.9301 41.18C28.4601 41.3 29.0101 41.29 29.5401 41.16C29.8601 41.08 29.9201 41.2 29.9301 41.5C29.9901 42.82 30.0001 42.82 28.6001 42.82C27.4001 42.82 27.4201 42.82 27.4101 41.62ZM28.5101 39.37C26.7201 39.31 25.0601 37.95 24.7701 36.28C24.8301 36.27 24.8801 36.24 24.9401 36.24C27.4701 36.24 30.0101 36.24 32.5901 36.24C32.1401 38.16 30.4601 39.43 28.5101 39.37ZM17.0201 62.12C14.4801 62.12 11.9401 62.12 9.40006 62.12C8.64006 62.12 8.28006 61.78 8.28006 61.02C8.28006 54.25 8.25006 47.48 8.29006 40.72C8.31006 37.83 10.6401 35.57 13.5301 35.52C15.2701 35.49 17.0201 35.51 18.8601 35.51C18.5801 35.97 18.3601 36.32 18.1501 36.68C17.4001 37.91 17.5301 38.54 18.6801 39.36C19.1201 39.67 19.5601 39.99 20.0301 40.32C19.4801 40.72 18.9501 41.09 18.4401 41.47C17.6201 42.07 17.4601 42.81 18.0001 43.69C18.9201 45.22 19.8501 46.75 20.8001 48.26C21.0301 48.62 21.0401 48.83 20.7201 49.14C19.0101 50.81 17.3201 52.52 15.6301 54.21C15.5401 54.3 15.4401 54.39 15.2501 54.57C15.2501 54.25 15.2501 54.05 15.2501 53.85C15.2501 50.6 15.2501 47.35 15.2501 44.1C15.2501 43.83 15.2801 43.56 15.1501 43.3C14.9501 42.9 14.6301 42.7 14.1901 42.76C13.7601 42.82 13.4701 43.08 13.3901 43.52C13.3601 43.68 13.3701 43.85 13.3701 44.02C13.3701 48.18 13.3701 52.35 13.3701 56.51C13.3701 57.01 13.3901 57.49 13.9301 57.71C14.4901 57.94 14.8701 57.62 15.2401 57.25C18.0301 54.45 20.8301 51.65 23.6301 48.85C23.7701 48.71 23.8601 48.51 23.9801 48.34C24.0501 48.38 24.1101 48.42 24.1801 48.46C24.1801 49.55 24.1801 50.64 24.1801 51.73C24.1801 52.73 24.0901 53.74 24.5901 54.66C24.7001 54.87 24.5601 54.97 24.4501 55.08C22.1801 57.35 19.9101 59.61 17.6501 61.89C17.4501 62.09 17.2501 62.12 17.0201 62.12ZM33.3901 62.12C29.0001 62.11 24.6101 62.11 20.2101 62.1C20.2001 62.1 20.1901 62.07 20.2001 62.08C21.9601 60.32 23.7201 58.56 25.4901 56.79C25.6001 57.38 25.5201 58.01 25.5301 58.63C25.5501 60.04 26.1001 60.6 27.4901 60.6C28.3601 60.6 29.2401 60.61 30.1101 60.6C31.1201 60.59 31.7301 59.99 31.7701 58.97C31.7901 58.58 31.8001 58.18 31.7701 57.78C31.7101 57 31.7501 56.3 32.5101 55.78C32.9501 55.48 33.1501 54.9 33.1301 54.34C33.1101 53.84 33.3101 53.47 33.7101 52.99C33.7101 55.99 33.7101 58.86 33.7101 61.73C33.7301 61.99 33.6901 62.12 33.3901 62.12ZM54.7201 53.82C54.7201 53.86 54.7201 53.9 54.7201 53.94C54.7201 54.96 54.7201 55.98 54.7201 57C54.7201 58.04 54.7301 59.08 54.7201 60.12C54.7101 61.34 53.9401 62.1 52.7201 62.11C51.9501 62.12 51.1801 62.1 50.4101 62.11C50.0001 62.12 49.6401 62.02 49.5001 61.61C49.3701 61.23 49.5601 60.96 49.8701 60.71C50.4701 60.24 50.4501 59.64 49.8701 59.14C49.3101 58.66 49.3101 58.3 49.8501 57.82C50.4601 57.28 50.4601 56.74 49.8401 56.21C49.3201 55.77 49.3201 55.37 49.8301 54.93C50.4701 54.37 50.4801 53.85 49.8101 53.28C49.5201 53.04 49.3801 52.76 49.5001 52.41C49.6101 52.07 49.9001 51.94 50.2401 51.94C51.1601 51.94 52.0701 51.91 52.9901 51.95C54.0001 52 54.6801 52.77 54.7201 53.82ZM39.0101 35.5C40.5301 35.49 42.0501 35.49 43.5701 35.5C46.7101 35.52 48.9901 37.7 49.0701 40.83C49.1201 42.74 49.0701 44.66 49.0901 46.58C49.0901 46.9 49.0101 47.04 48.6801 47.01C48.3701 46.98 48.0601 47 47.7401 47.01C47.0801 47.03 46.6601 47.41 46.6701 47.97C46.6801 48.51 47.0901 48.88 47.7301 48.88C49.2501 48.89 50.7701 48.9 52.2901 48.87C52.7301 48.86 52.8201 49.02 52.7801 49.4C52.7401 49.72 52.9301 50.14 52.3101 50.09C51.6701 50.04 51.0201 50.07 50.3701 50.08C48.2301 50.11 47.0501 51.9 47.8901 53.86C47.9901 54.09 47.9601 54.23 47.8701 54.43C47.5001 55.19 47.4901 55.96 47.8601 56.71C47.9701 56.93 47.9901 57.1 47.8701 57.34C47.4801 58.11 47.5001 58.9 47.8701 59.68C47.9201 59.79 48.0501 59.89 47.9701 60.02C47.6101 60.62 47.5601 61.26 47.6201 61.95C47.6501 62.31 47.3001 62.12 47.1501 62.12C44.5101 62.13 41.8601 62.13 39.2201 62.13C38.1601 62.13 37.1001 62.12 36.0301 62.14C35.6701 62.15 35.5801 62.04 35.5801 61.69C35.5901 57.57 35.6001 53.45 35.5801 49.32C35.5801 48.88 35.7701 48.88 36.1001 48.88C38.4101 48.89 40.7201 48.88 43.0301 48.89C43.5401 48.89 43.9401 48.74 44.1101 48.23C44.3201 47.58 43.8601 47.02 43.1001 47.01C41.4101 47 39.7301 47.01 38.0401 47.01C37.8401 47.01 37.6401 47.01 37.3401 47.01C38.0501 45.86 38.6901 44.82 39.3301 43.77C39.9101 42.81 39.7501 42.06 38.8301 41.4C38.3401 41.05 37.8501 40.7 37.3201 40.33C37.8601 39.94 38.3701 39.59 38.8701 39.22C39.7401 38.58 39.8901 37.83 39.3301 36.89C39.0801 36.46 38.8101 36.04 38.5501 35.62C38.6901 35.41 38.8701 35.5 39.0101 35.5ZM37.4501 37.38C37.6301 37.66 37.6401 37.81 37.3301 38.02C36.6401 38.48 35.9701 38.97 35.3001 39.46C34.5801 39.99 34.5801 40.65 35.3001 41.18C35.9501 41.66 36.6101 42.14 37.2801 42.58C37.5801 42.78 37.6601 42.92 37.4501 43.26C36.7301 44.38 36.0501 45.52 35.3601 46.66C35.2201 46.89 35.0501 47.01 34.8001 47.1C34.1201 47.33 33.7601 47.82 33.7201 48.54C33.6701 49.5 33.6701 49.5 33.0601 50.34C32.7601 50.02 32.7501 49.71 32.9601 49.3C33.2301 48.79 33.2801 48.17 33.0601 47.66C32.8001 47.08 32.9101 46.61 33.0701 46.04C33.3601 44.99 33.0401 44.05 32.1501 43.39C31.8601 43.17 31.7401 42.95 31.7801 42.62C31.7901 42.5 31.8001 42.37 31.7801 42.25C31.6401 41.11 31.8301 40.18 32.8901 39.43C33.7601 38.81 34.1901 37.77 34.4401 36.72C34.5101 36.44 34.5801 36.26 34.9001 36.17C35.3301 36.05 35.5301 35.72 35.5101 35.27C35.5001 34.84 35.2701 34.53 34.8801 34.44C34.5601 34.37 34.5101 34.21 34.4501 33.95C34.3501 33.55 34.1701 33.17 34.0501 32.78C34.0101 32.64 33.7401 32.49 34.0601 32.34C34.3301 32.21 34.3801 32.43 34.4701 32.57C34.5801 32.74 34.6901 32.92 34.8001 33.1C35.6901 34.51 36.5601 35.95 37.4501 37.38ZM37.2301 11.97C36.3801 11.69 35.5001 11.74 34.6301 11.8C34.1101 11.84 33.8201 12.21 33.8101 12.74C33.8001 13.24 34.1801 13.61 34.7301 13.64C35.1701 13.66 35.6001 13.63 36.0401 13.65C37.1901 13.69 37.9901 14.5 37.9901 15.65C38.0001 18.61 38.0201 21.56 37.9801 24.52C37.9401 27.46 35.8901 29.95 33.0301 30.66C32.7001 30.74 32.4501 30.73 32.1701 30.5C31.7501 30.15 31.2701 29.91 30.7601 29.73C30.6201 29.75 30.4701 29.66 30.5101 29.56C30.5601 29.44 30.7501 29.48 30.8801 29.51C32.2601 29.16 32.9901 28.24 33.0201 26.83C33.0601 24.58 32.7501 24.27 30.4901 24.27C29.0301 24.27 27.5701 24.27 26.1201 24.27C24.8901 24.27 24.3401 24.83 24.3301 26.07C24.3201 26.59 24.2901 27.12 24.4201 27.62C24.6801 28.62 25.4301 29.26 26.7701 29.6C26.0901 29.94 25.4601 30.22 24.9301 30.67C24.7801 30.8 24.6101 30.72 24.4601 30.68C21.5701 30.07 19.4301 27.49 19.3901 24.52C19.3601 21.58 19.3801 18.65 19.3801 15.71C19.3801 14.44 20.1601 13.64 21.4401 13.64C24.2701 13.63 27.1001 13.64 29.9401 13.64C30.1301 13.64 30.3201 13.65 30.5001 13.63C30.9401 13.57 31.2201 13.31 31.2801 12.87C31.3501 12.4 31.1601 12.06 30.7301 11.86C30.5101 11.76 30.2801 11.77 30.0601 11.77C27.2301 11.77 24.4001 11.76 21.5601 11.77C19.0901 11.78 17.5201 13.36 17.5101 15.84C17.5101 17.23 17.5001 17.21 16.1501 17.55C15.8201 17.63 15.7401 17.42 15.6101 17.27C14.0301 15.45 14.3201 12.6 16.2701 11.12C16.8001 10.71 17.0001 10.3 16.9101 9.6C16.6901 7.92 17.3001 6.52 18.6901 5.54C20.0601 4.57 21.5401 4.5 23.0701 5.2C23.9201 5.59 24.3101 5.44 24.6901 4.6C25.4601 2.88 26.7901 1.91 28.6801 1.92C30.5701 1.92 31.9001 2.87 32.6701 4.6C33.0301 5.41 33.4701 5.6 34.2401 5.23C35.8301 4.48 37.3601 4.56 38.7701 5.62C40.1701 6.67 40.7201 8.12 40.4201 9.85C40.3201 10.45 40.6401 10.77 41.0601 11.09C42.9701 12.54 43.3401 15.16 41.9301 17.09C41.6501 17.47 41.3801 17.76 40.8801 17.44C40.5801 17.25 40.0601 17.48 39.9101 17.1C39.7801 16.8 39.8801 16.4 39.8801 16.05C39.8701 13.94 38.9501 12.53 37.2301 11.97ZM40.3801 24.83C39.9801 24.96 39.8301 24.91 39.8501 24.44C39.8901 23.63 39.8601 22.82 39.8601 22.01C39.8601 21.2 39.8901 20.39 39.8501 19.58C39.8301 19.13 39.9801 19.12 40.3401 19.24C41.5601 19.62 42.4301 20.74 42.4401 22.03C42.4701 23.28 41.6001 24.44 40.3801 24.83Z" fill="white"/>
<path d="M30.77 29.73C30.81 29.66 30.85 29.59 30.89 29.51C30.81 29.57 30.69 29.6 30.77 29.73Z" fill="white"/>
<path d="M45.79 9.55C47.85 8.52 49.89 7.46 51.94 6.4C52.4 6.16 52.64 5.76 52.64 5.13C52.65 4.89 52.52 4.59 52.28 4.34C51.28 3.34 50.3 2.32 49.28 1.34C48.61 0.700004 47.66 0.840004 47.22 1.66C46.14 3.69 45.1 5.75 44.06 7.8C43.79 8.34 43.88 8.86 44.3 9.29C44.73 9.73 45.26 9.82 45.79 9.55ZM48.49 3.25C49.11 3.89 49.7 4.5 50.32 5.13C49.1 5.76 47.84 6.4 46.5 7.09C47.21 5.74 47.85 4.5 48.49 3.25Z" fill="white"/>
<path d="M55.79 21.93C55.78 21.35 55.37 21.01 54.63 21.01C51.82 21.01 49.01 21.01 46.2 21.01C45.48 21.01 45.05 21.37 45.06 21.96C45.07 22.54 45.49 22.88 46.22 22.88C47.61 22.88 49.01 22.88 50.4 22.88C51.81 22.88 53.23 22.88 54.64 22.88C55.38 22.87 55.8 22.52 55.79 21.93Z" fill="white"/>
<path d="M47.11 18.82C49.33 18.83 51.55 18.83 53.78 18.82C54.51 18.82 54.91 18.44 54.88 17.84C54.86 17.27 54.48 16.96 53.76 16.96C52.66 16.95 51.56 16.96 50.46 16.96C49.36 16.96 48.26 16.96 47.16 16.96C46.39 16.96 46.01 17.27 46 17.87C45.97 18.46 46.36 18.82 47.11 18.82Z" fill="white"/>
<path d="M53.77 25.08C52.65 25.07 51.53 25.08 50.41 25.08C49.29 25.08 48.17 25.07 47.05 25.08C46.38 25.09 46.01 25.41 46 25.97C45.98 26.55 46.35 26.94 47.04 26.94C49.3 26.96 51.57 26.96 53.83 26.94C54.52 26.94 54.9 26.56 54.89 25.98C54.86 25.4 54.48 25.08 53.77 25.08Z" fill="white"/>
<path d="M5.58 6.60999C7.65 7.70999 9.73 8.77999 11.84 9.80999C12.7 10.23 13.64 9.58999 13.65 8.54999C13.63 8.46999 13.63 8.27999 13.54 8.11999C12.48 6.02999 11.43 3.92999 10.33 1.85999C9.93 1.10999 8.97 0.959993 8.35 1.53999C7.29 2.53999 6.26 3.56999 5.26 4.62999C4.69 5.25999 4.83 6.20999 5.58 6.60999ZM9.11 3.52999C9.73 4.72999 10.36 5.94999 11.06 7.32999C9.68 6.61999 8.46 5.99999 7.22 5.35999C7.87 4.72999 8.48 4.13999 9.11 3.52999Z" fill="white"/>
<path d="M11.35 12.91C11.36 12.3 10.98 11.84 10.23 11.59C8.18002 10.92 6.13002 10.26 4.07002 9.61001C2.97002 9.26001 2.20002 9.81001 2.17002 10.95C2.15002 11.59 2.17002 12.24 2.17002 12.89C2.17002 13.51 2.16002 14.14 2.17002 14.76C2.19002 16 2.94002 16.55 4.11002 16.19C6.15002 15.54 8.18002 14.89 10.21 14.23C10.96 13.98 11.34 13.52 11.35 12.91ZM4.58002 14.07C4.10002 14.24 4.01002 14.11 4.04002 13.66C4.07002 13.08 4.06002 12.5 4.04002 11.91C4.03002 11.65 4.13002 11.57 4.37002 11.65C5.58002 12.05 6.80002 12.44 8.20002 12.9C6.86002 13.33 5.71002 13.67 4.58002 14.07Z" fill="white"/>
<path d="M28.7701 21.22C28.4901 21.05 28.5001 20.88 28.6801 20.63C28.9801 20.23 29.2601 19.82 29.4901 19.38C29.8201 18.74 29.3601 18 28.6101 18.02C28.3201 18.04 28.0601 18.19 27.8801 18.46C27.3901 19.18 26.9101 19.91 26.4401 20.64C26.1401 21.11 26.2201 21.56 26.6401 21.92C27.1201 22.32 27.6001 22.72 28.1001 23.08C28.5401 23.4 29.0601 23.33 29.3801 22.94C29.7201 22.53 29.6701 22.01 29.2401 21.61C29.1001 21.47 28.9401 21.33 28.7701 21.22Z" fill="white"/>
<path d="M24.36 17.86C24.31 17.33 23.9 16.98 23.39 17.01C22.86 17.05 22.54 17.35 22.51 17.88C22.47 18.48 22.48 19.08 22.51 19.69C22.53 20.22 22.95 20.61 23.44 20.58C23.96 20.55 24.29 20.26 24.36 19.74C24.4 19.43 24.37 19.12 24.37 18.81C24.37 18.48 24.39 18.16 24.36 17.86Z" fill="white"/>
<path d="M33 17.93C32.98 18.49 32.98 19.05 33 19.61C33.02 20.17 33.36 20.53 33.87 20.56C34.39 20.59 34.81 20.22 34.86 19.66C34.89 19.37 34.86 19.08 34.87 18.79C34.87 18.5 34.89 18.21 34.87 17.92C34.82 17.35 34.42 16.99 33.89 17.01C33.38 17.02 33.02 17.39 33 17.93Z" fill="white"/>
</g>
<defs>
<clipPath id="clip0_1_1526">
<rect width="64" height="64" fill="white"/>
</clipPath>
</defs>
</svg>
