<svg width="64" height="64" viewBox="0 0 64 64" fill="none" xmlns="http://www.w3.org/2000/svg">
<g clip-path="url(#clip0_1_764)">
<path d="M60.52 23.13C60 23.28 59.86 23.74 59.75 24.18C59.46 25.32 58.99 26.38 58.31 27.35C56.05 30.56 52.61 31.99 48.72 31.34C45.95 30.88 43.82 29.36 42.3 26.99C42.01 26.53 42.07 26.3 42.49 25.98C44.64 24.35 45.11 21.48 43.61 19.24C43.34 18.84 43.34 18.56 43.62 18.18C44.33 17.22 44.74 16.13 44.77 14.93C44.78 14.38 45 14.04 45.45 13.77C47.14 12.73 48.97 12.33 50.94 12.41C53.64 12.52 55.83 13.66 57.61 15.62C58.71 16.83 59.39 18.27 59.8 19.85C59.99 20.6 60.56 20.92 61.2 20.75C61.77 20.6 62.08 19.99 61.91 19.29C60.47 13.38 55.01 9.46 48.7 10.29C47.39 10.46 46.16 10.91 44.98 11.52C44.28 11.88 44.28 11.87 43.89 11.23C43.67 10.87 43.44 10.52 43.13 10.25C42.66 9.85 42.55 9.36 42.52 8.76C42.42 6.93 41.67 5.38 40.25 4.2C38.62 2.84 36.75 2.44 34.69 2.91C34.34 2.99 34.1 2.93 33.88 2.63C32.8 1.12 31.41 0.129999 29.49 0.0299988C28.95 0.0299988 28.41 0.0299988 27.87 0.0299988C25.94 0.139999 24.51 1.11 23.42 2.65C23.15 3.03 22.83 2.93 22.48 2.86C18.46 2.06 14.92 4.89 14.83 8.99C14.82 9.44 14.7 9.8 14.37 10.1C12.21 12.06 11.95 15.77 13.66 18.11C13.97 18.54 14 18.87 13.7 19.33C13.03 20.37 12.67 21.51 12.91 22.77C13.34 25.05 14.78 26.5 17.07 26.93C17.5 27.01 17.79 27.19 17.95 27.61C18.43 28.84 19.2 29.85 20.16 30.75C21.08 31.61 21.04 31.6 20.38 32.72C20.04 33.31 19.61 33.49 18.96 33.48C17.15 33.45 15.34 33.46 13.53 33.47C9.55 33.5 6.23 36.78 6.21 40.76C6.18 47.46 6.2 54.17 6.21 60.87C6.21 62.55 6.94 63.52 8.5 64C23.49 64 38.49 64 53.48 64C53.95 63.87 54.45 63.87 54.9 63.59C56.16 62.8 56.73 61.62 56.76 60.18C56.8 58.06 56.8 55.93 56.76 53.81C56.74 52.8 56.46 51.82 55.66 51.17C54.91 50.56 54.64 49.86 54.77 48.95C54.78 48.85 54.77 48.74 54.77 48.64C54.74 47.58 54.08 46.9 53.01 46.85C52.61 46.83 52.22 46.82 51.82 46.85C51.3 46.89 51.13 46.66 51.14 46.15C51.16 44.53 51.15 42.9 51.15 41.28C51.15 40.57 51.07 39.86 50.91 39.18C50.12 35.83 47.14 33.49 43.69 33.48C42.13 33.48 40.56 33.39 39.01 33.51C37.83 33.6 37.09 33.24 36.6 32.16C36.31 31.51 36.23 31.49 36.82 31.03C37.92 30.18 38.71 29.11 39.28 27.85C39.39 27.61 39.42 27.24 39.71 27.22C40.03 27.19 40.07 27.57 40.2 27.79C42.5 31.81 46.9 34.25 51.96 33.63C55.39 33.2 58.14 31.48 60.13 28.63C61 27.39 61.58 26.01 61.93 24.54C62.15 23.59 61.41 22.88 60.52 23.13ZM17.08 24.86C15.86 24.58 14.88 23.31 14.9 22C14.91 20.68 15.89 19.47 17.14 19.18C17.51 19.09 17.5 19.26 17.5 19.52C17.49 20.35 17.5 21.19 17.5 22.02C17.5 22.85 17.48 23.69 17.51 24.52C17.52 24.89 17.39 24.93 17.08 24.86ZM19.92 37.35C20.91 35.77 21.88 34.17 22.86 32.58C22.96 32.41 23.02 32.16 23.31 32.34C23.59 32.52 23.31 32.65 23.27 32.79C23.19 33.05 23.07 33.29 23 33.55C22.88 33.97 22.85 34.41 22.25 34.53C21.92 34.6 21.8 35 21.83 35.36C21.86 35.75 22.05 36.04 22.43 36.15C22.73 36.24 22.83 36.39 22.91 36.69C23.25 38.09 24.01 39.24 25.19 40.08C25.46 40.28 25.58 40.47 25.56 40.79C25.54 41.1 25.56 41.41 25.55 41.73C25.54 42.75 25.52 43.65 24.81 44.61C24.09 45.58 23.31 46.46 22.45 47.38C21.57 45.94 20.73 44.55 19.87 43.18C19.71 42.92 19.75 42.8 19.99 42.64C20.68 42.17 21.35 41.69 22.02 41.2C22.78 40.65 22.78 39.99 22.04 39.44C21.39 38.96 20.74 38.47 20.05 38.04C19.71 37.82 19.73 37.65 19.92 37.35ZM28.82 31.23C30.65 31.27 32.31 32.64 32.59 34.36C30.08 34.36 27.57 34.36 25.06 34.36C24.82 34.36 24.73 34.32 24.79 34.05C25.13 32.49 26.97 31.19 28.82 31.23ZM27.22 27.71C26.38 27.7 26.03 27.22 26.19 26.39C26.25 26.1 26.43 26.15 26.6 26.15C27.31 26.15 28.01 26.15 28.72 26.15C29.3 26.15 29.89 26.13 30.47 26.16C30.69 26.17 31.08 25.95 31.13 26.37C31.18 26.83 31.27 27.36 30.7 27.62C30.54 27.69 30.34 27.71 30.15 27.71C29.18 27.72 28.2 27.72 27.22 27.71ZM30.9 53.48C31.21 53.73 31.39 54.01 31.25 54.39C31.11 54.77 30.78 54.88 30.39 54.87C29.6 54.86 28.81 54.87 28.02 54.87C26.83 54.86 26.07 54.12 26.05 52.93C26.03 51.87 26.05 50.81 26.05 49.75C26.05 48.75 26.04 47.75 26.05 46.76C26.06 45.44 26.79 44.72 28.1 44.71C28.87 44.7 29.64 44.71 30.41 44.71C30.79 44.71 31.13 44.78 31.26 45.19C31.39 45.58 31.2 45.85 30.9 46.1C30.31 46.58 30.32 47.17 30.9 47.67C31.47 48.16 31.46 48.51 30.87 49.03C30.33 49.5 30.34 50.08 30.88 50.57C31.46 51.09 31.47 51.42 30.89 51.93C30.31 52.41 30.3 52.99 30.9 53.48ZM29.94 57.99C29.97 58.61 29.81 58.87 29.18 58.74C29.1 58.72 29.01 58.74 28.93 58.74C27.38 58.74 27.39 58.74 27.42 57.18C27.43 56.83 27.51 56.69 27.87 56.74C28.14 56.77 28.41 56.75 28.68 56.75C29.92 56.74 29.88 56.74 29.94 57.99ZM27.41 41.62C27.41 41.2 27.49 41.08 27.93 41.18C28.46 41.3 29.01 41.29 29.54 41.16C29.86 41.08 29.92 41.2 29.93 41.5C29.99 42.82 30 42.82 28.6 42.82C27.4 42.82 27.42 42.82 27.41 41.62ZM28.51 39.37C26.72 39.31 25.06 37.95 24.77 36.28C24.83 36.27 24.88 36.24 24.94 36.24C27.47 36.24 30.01 36.24 32.59 36.24C32.14 38.16 30.46 39.43 28.51 39.37ZM17.02 62.12C14.48 62.12 11.94 62.12 9.4 62.12C8.64 62.12 8.28 61.78 8.28 61.02C8.28 54.25 8.25 47.48 8.29 40.72C8.31 37.83 10.64 35.57 13.53 35.52C15.27 35.49 17.02 35.51 18.86 35.51C18.58 35.97 18.36 36.32 18.15 36.68C17.4 37.91 17.53 38.54 18.68 39.36C19.12 39.67 19.56 39.99 20.03 40.32C19.48 40.72 18.95 41.09 18.44 41.47C17.62 42.07 17.46 42.81 18 43.69C18.92 45.22 19.85 46.75 20.8 48.26C21.03 48.62 21.04 48.83 20.72 49.14C19.01 50.81 17.32 52.52 15.63 54.21C15.54 54.3 15.44 54.39 15.25 54.57C15.25 54.25 15.25 54.05 15.25 53.85C15.25 50.6 15.25 47.35 15.25 44.1C15.25 43.83 15.28 43.56 15.15 43.3C14.95 42.9 14.63 42.7 14.19 42.76C13.76 42.82 13.47 43.08 13.39 43.52C13.36 43.68 13.37 43.85 13.37 44.02C13.37 48.18 13.37 52.35 13.37 56.51C13.37 57.01 13.39 57.49 13.93 57.71C14.49 57.94 14.87 57.62 15.24 57.25C18.03 54.45 20.83 51.65 23.63 48.85C23.77 48.71 23.86 48.51 23.98 48.34C24.05 48.38 24.11 48.42 24.18 48.46C24.18 49.55 24.18 50.64 24.18 51.73C24.18 52.73 24.09 53.74 24.59 54.66C24.7 54.87 24.56 54.97 24.45 55.08C22.18 57.35 19.91 59.61 17.65 61.89C17.45 62.09 17.25 62.12 17.02 62.12ZM33.39 62.12C29 62.11 24.61 62.11 20.21 62.1C20.2 62.1 20.19 62.07 20.2 62.08C21.96 60.32 23.72 58.56 25.49 56.79C25.6 57.38 25.52 58.01 25.53 58.63C25.55 60.04 26.1 60.6 27.49 60.6C28.36 60.6 29.24 60.61 30.11 60.6C31.12 60.59 31.73 59.99 31.77 58.97C31.79 58.58 31.8 58.18 31.77 57.78C31.71 57 31.75 56.3 32.51 55.78C32.95 55.48 33.15 54.9 33.13 54.34C33.11 53.84 33.31 53.47 33.71 52.99C33.71 55.99 33.71 58.86 33.71 61.73C33.73 61.99 33.69 62.12 33.39 62.12ZM54.72 53.82C54.72 53.86 54.72 53.9 54.72 53.94C54.72 54.96 54.72 55.98 54.72 57C54.72 58.04 54.73 59.08 54.72 60.12C54.71 61.34 53.94 62.1 52.72 62.11C51.95 62.12 51.18 62.1 50.41 62.11C50 62.12 49.64 62.02 49.5 61.61C49.37 61.23 49.56 60.96 49.87 60.71C50.47 60.24 50.45 59.64 49.87 59.14C49.31 58.66 49.31 58.3 49.85 57.82C50.46 57.28 50.46 56.74 49.84 56.21C49.32 55.77 49.32 55.37 49.83 54.93C50.47 54.37 50.48 53.85 49.81 53.28C49.52 53.04 49.38 52.76 49.5 52.41C49.61 52.07 49.9 51.94 50.24 51.94C51.16 51.94 52.07 51.91 52.99 51.95C54 52 54.68 52.77 54.72 53.82ZM39.01 35.5C40.53 35.49 42.05 35.49 43.57 35.5C46.71 35.52 48.99 37.7 49.07 40.83C49.12 42.74 49.07 44.66 49.09 46.58C49.09 46.9 49.01 47.04 48.68 47.01C48.37 46.98 48.06 47 47.74 47.01C47.08 47.03 46.66 47.41 46.67 47.97C46.68 48.51 47.09 48.88 47.73 48.88C49.25 48.89 50.77 48.9 52.29 48.87C52.73 48.86 52.82 49.02 52.78 49.4C52.74 49.72 52.93 50.14 52.31 50.09C51.67 50.04 51.02 50.07 50.37 50.08C48.23 50.11 47.05 51.9 47.89 53.86C47.99 54.09 47.96 54.23 47.87 54.43C47.5 55.19 47.49 55.96 47.86 56.71C47.97 56.93 47.99 57.1 47.87 57.34C47.48 58.11 47.5 58.9 47.87 59.68C47.92 59.79 48.05 59.89 47.97 60.02C47.61 60.62 47.56 61.26 47.62 61.95C47.65 62.31 47.3 62.12 47.15 62.12C44.51 62.13 41.86 62.13 39.22 62.13C38.16 62.13 37.1 62.12 36.03 62.14C35.67 62.15 35.58 62.04 35.58 61.69C35.59 57.57 35.6 53.45 35.58 49.32C35.58 48.88 35.77 48.88 36.1 48.88C38.41 48.89 40.72 48.88 43.03 48.89C43.54 48.89 43.94 48.74 44.11 48.23C44.32 47.58 43.86 47.02 43.1 47.01C41.41 47 39.73 47.01 38.04 47.01C37.84 47.01 37.64 47.01 37.34 47.01C38.05 45.86 38.69 44.82 39.33 43.77C39.91 42.81 39.75 42.06 38.83 41.4C38.34 41.05 37.85 40.7 37.32 40.33C37.86 39.94 38.37 39.59 38.87 39.22C39.74 38.58 39.89 37.83 39.33 36.89C39.08 36.46 38.81 36.04 38.55 35.62C38.69 35.41 38.87 35.5 39.01 35.5ZM37.45 37.38C37.63 37.66 37.64 37.81 37.33 38.02C36.64 38.48 35.97 38.97 35.3 39.46C34.58 39.99 34.58 40.65 35.3 41.18C35.95 41.66 36.61 42.14 37.28 42.58C37.58 42.78 37.66 42.92 37.45 43.26C36.73 44.38 36.05 45.52 35.36 46.66C35.22 46.89 35.05 47.01 34.8 47.1C34.12 47.33 33.76 47.82 33.72 48.54C33.67 49.5 33.67 49.5 33.06 50.34C32.76 50.02 32.75 49.71 32.96 49.3C33.23 48.79 33.28 48.17 33.06 47.66C32.8 47.08 32.91 46.61 33.07 46.04C33.36 44.99 33.04 44.05 32.15 43.39C31.86 43.17 31.74 42.95 31.78 42.62C31.79 42.5 31.8 42.37 31.78 42.25C31.64 41.11 31.83 40.18 32.89 39.43C33.76 38.81 34.19 37.77 34.44 36.72C34.51 36.44 34.58 36.26 34.9 36.17C35.33 36.05 35.53 35.72 35.51 35.27C35.5 34.84 35.27 34.53 34.88 34.44C34.56 34.37 34.51 34.21 34.45 33.95C34.35 33.55 34.17 33.17 34.05 32.78C34.01 32.64 33.74 32.49 34.06 32.34C34.33 32.21 34.38 32.43 34.47 32.57C34.58 32.74 34.69 32.92 34.8 33.1C35.69 34.51 36.56 35.95 37.45 37.38ZM37.23 11.97C36.38 11.69 35.5 11.74 34.63 11.8C34.11 11.84 33.82 12.21 33.81 12.74C33.8 13.24 34.18 13.61 34.73 13.64C35.17 13.66 35.6 13.63 36.04 13.65C37.19 13.69 37.99 14.5 37.99 15.65C38 18.61 38.02 21.56 37.98 24.52C37.94 27.46 35.89 29.95 33.03 30.66C32.7 30.74 32.45 30.73 32.17 30.5C31.75 30.15 31.27 29.91 30.76 29.73C30.62 29.75 30.47 29.66 30.51 29.56C30.56 29.44 30.75 29.48 30.88 29.51C32.26 29.16 32.99 28.24 33.02 26.83C33.06 24.58 32.75 24.27 30.49 24.27C29.03 24.27 27.57 24.27 26.12 24.27C24.89 24.27 24.34 24.83 24.33 26.07C24.32 26.59 24.29 27.12 24.42 27.62C24.68 28.62 25.43 29.26 26.77 29.6C26.09 29.94 25.46 30.22 24.93 30.67C24.78 30.8 24.61 30.72 24.46 30.68C21.57 30.07 19.43 27.49 19.39 24.52C19.36 21.58 19.38 18.65 19.38 15.71C19.38 14.44 20.16 13.64 21.44 13.64C24.27 13.63 27.1 13.64 29.94 13.64C30.13 13.64 30.32 13.65 30.5 13.63C30.94 13.57 31.22 13.31 31.28 12.87C31.35 12.4 31.16 12.06 30.73 11.86C30.51 11.76 30.28 11.77 30.06 11.77C27.23 11.77 24.4 11.76 21.56 11.77C19.09 11.78 17.52 13.36 17.51 15.84C17.51 17.23 17.5 17.21 16.15 17.55C15.82 17.63 15.74 17.42 15.61 17.27C14.03 15.45 14.32 12.6 16.27 11.12C16.8 10.71 17 10.3 16.91 9.6C16.69 7.92 17.3 6.52 18.69 5.54C20.06 4.57 21.54 4.5 23.07 5.2C23.92 5.59 24.31 5.44 24.69 4.6C25.46 2.88 26.79 1.91 28.68 1.92C30.57 1.92 31.9 2.87 32.67 4.6C33.03 5.41 33.47 5.6 34.24 5.23C35.83 4.48 37.36 4.56 38.77 5.62C40.17 6.67 40.72 8.12 40.42 9.85C40.32 10.45 40.64 10.77 41.06 11.09C42.97 12.54 43.34 15.16 41.93 17.09C41.65 17.47 41.38 17.76 40.88 17.44C40.58 17.25 40.06 17.48 39.91 17.1C39.78 16.8 39.88 16.4 39.88 16.05C39.87 13.94 38.95 12.53 37.23 11.97ZM40.38 24.83C39.98 24.96 39.83 24.91 39.85 24.44C39.89 23.63 39.86 22.82 39.86 22.01C39.86 21.2 39.89 20.39 39.85 19.58C39.83 19.13 39.98 19.12 40.34 19.24C41.56 19.62 42.43 20.74 42.44 22.03C42.47 23.28 41.6 24.44 40.38 24.83Z" fill="#3247D5"/>
<path d="M30.77 29.73C30.81 29.66 30.85 29.59 30.89 29.51C30.81 29.57 30.69 29.6 30.77 29.73Z" fill="#3247D5"/>
<path d="M45.79 9.55C47.85 8.52 49.89 7.46 51.94 6.4C52.4 6.16 52.64 5.76 52.64 5.13C52.65 4.89 52.52 4.59 52.28 4.34C51.28 3.34 50.3 2.32 49.28 1.34C48.61 0.700004 47.66 0.840004 47.22 1.66C46.14 3.69 45.1 5.75 44.06 7.8C43.79 8.34 43.88 8.86 44.3 9.29C44.73 9.73 45.26 9.82 45.79 9.55ZM48.49 3.25C49.11 3.89 49.7 4.5 50.32 5.13C49.1 5.76 47.84 6.4 46.5 7.09C47.21 5.74 47.85 4.5 48.49 3.25Z" fill="#3247D5"/>
<path d="M55.79 21.93C55.78 21.35 55.37 21.01 54.63 21.01C51.82 21.01 49.01 21.01 46.2 21.01C45.48 21.01 45.05 21.37 45.06 21.96C45.07 22.54 45.49 22.88 46.22 22.88C47.61 22.88 49.01 22.88 50.4 22.88C51.81 22.88 53.23 22.88 54.64 22.88C55.38 22.87 55.8 22.52 55.79 21.93Z" fill="#3247D5"/>
<path d="M47.11 18.82C49.33 18.83 51.55 18.83 53.78 18.82C54.51 18.82 54.91 18.44 54.88 17.84C54.86 17.27 54.48 16.96 53.76 16.96C52.66 16.95 51.56 16.96 50.46 16.96C49.36 16.96 48.26 16.96 47.16 16.96C46.39 16.96 46.01 17.27 46 17.87C45.97 18.46 46.36 18.82 47.11 18.82Z" fill="#3247D5"/>
<path d="M53.77 25.08C52.65 25.07 51.53 25.08 50.41 25.08C49.29 25.08 48.17 25.07 47.05 25.08C46.38 25.09 46.01 25.41 46 25.97C45.98 26.55 46.35 26.94 47.04 26.94C49.3 26.96 51.57 26.96 53.83 26.94C54.52 26.94 54.9 26.56 54.89 25.98C54.86 25.4 54.48 25.08 53.77 25.08Z" fill="#3247D5"/>
<path d="M5.58 6.60999C7.65 7.70999 9.73 8.77999 11.84 9.80999C12.7 10.23 13.64 9.58999 13.65 8.54999C13.63 8.46999 13.63 8.27999 13.54 8.11999C12.48 6.02999 11.43 3.92999 10.33 1.85999C9.93 1.10999 8.97 0.959993 8.35 1.53999C7.29 2.53999 6.26 3.56999 5.26 4.62999C4.69 5.25999 4.83 6.20999 5.58 6.60999ZM9.11 3.52999C9.73 4.72999 10.36 5.94999 11.06 7.32999C9.68 6.61999 8.46 5.99999 7.22 5.35999C7.87 4.72999 8.48 4.13999 9.11 3.52999Z" fill="#3247D5"/>
<path d="M11.35 12.91C11.36 12.3 10.98 11.84 10.23 11.59C8.17999 10.92 6.12999 10.26 4.06999 9.61001C2.96999 9.26001 2.19999 9.81001 2.16999 10.95C2.14999 11.59 2.16999 12.24 2.16999 12.89C2.16999 13.51 2.15999 14.14 2.16999 14.76C2.18999 16 2.93999 16.55 4.10999 16.19C6.14999 15.54 8.17999 14.89 10.21 14.23C10.96 13.98 11.34 13.52 11.35 12.91ZM4.57999 14.07C4.09999 14.24 4.00999 14.11 4.03999 13.66C4.06999 13.08 4.05999 12.5 4.03999 11.91C4.02999 11.65 4.12999 11.57 4.36999 11.65C5.57999 12.05 6.79999 12.44 8.19999 12.9C6.85999 13.33 5.70999 13.67 4.57999 14.07Z" fill="#3247D5"/>
<path d="M28.77 21.22C28.49 21.05 28.5 20.88 28.68 20.63C28.98 20.23 29.26 19.82 29.49 19.38C29.82 18.74 29.36 18 28.61 18.02C28.32 18.04 28.06 18.19 27.88 18.46C27.39 19.18 26.91 19.91 26.44 20.64C26.14 21.11 26.22 21.56 26.64 21.92C27.12 22.32 27.6 22.72 28.1 23.08C28.54 23.4 29.06 23.33 29.38 22.94C29.72 22.53 29.67 22.01 29.24 21.61C29.1 21.47 28.94 21.33 28.77 21.22Z" fill="#3247D5"/>
<path d="M24.36 17.86C24.31 17.33 23.9 16.98 23.39 17.01C22.86 17.05 22.54 17.35 22.51 17.88C22.47 18.48 22.48 19.08 22.51 19.69C22.53 20.22 22.95 20.61 23.44 20.58C23.96 20.55 24.29 20.26 24.36 19.74C24.4 19.43 24.37 19.12 24.37 18.81C24.37 18.48 24.39 18.16 24.36 17.86Z" fill="#3247D5"/>
<path d="M33 17.93C32.98 18.49 32.98 19.05 33 19.61C33.02 20.17 33.36 20.53 33.87 20.56C34.39 20.59 34.81 20.22 34.86 19.66C34.89 19.37 34.86 19.08 34.87 18.79C34.87 18.5 34.89 18.21 34.87 17.92C34.82 17.35 34.42 16.99 33.89 17.01C33.38 17.02 33.02 17.39 33 17.93Z" fill="#3247D5"/>
</g>
<defs>
<clipPath id="clip0_1_764">
<rect width="64" height="64" fill="white"/>
</clipPath>
</defs>
</svg>
