<svg width="56" height="60" viewBox="0 0 56 60" fill="none" xmlns="http://www.w3.org/2000/svg">
<path d="M55.35 23.7C55.38 21.05 53.42 19.26 50.98 19.32C47.75 19.4 44.52 19.33 41.3 19.35C40.79 19.35 40.64 19.24 40.64 18.71C40.66 13.3 40.65 7.88 40.65 2.47C40.65 1.07 40.24 0.660004 38.82 0.660004C26.72 0.660004 14.62 0.660004 2.51997 0.660004C1.09997 0.660004 0.659973 1.09 0.659973 2.53C0.659973 10.86 0.659973 19.19 0.659973 27.52C0.659973 28.02 0.659973 28.52 0.659973 29.02C0.659973 36.77 0.659973 44.51 0.659973 52.26C0.659973 56.47 3.50997 59.32 7.69997 59.33C9.02997 59.33 10.37 59.33 11.7 59.33C22.55 59.33 33.4 59.33 44.25 59.33C48.49 59.33 51.32 56.48 51.33 52.23C51.33 50.77 51.33 49.31 51.33 47.86C51.33 46.41 50.91 45.99 49.49 45.99C46.72 45.99 43.95 45.98 41.18 46C40.73 46 40.61 45.88 40.64 45.44C40.68 44.94 40.68 44.44 40.64 43.94C40.6 43.45 40.75 43.31 41.25 43.32C44.48 43.34 47.71 43.33 50.93 43.33C53.66 43.33 55.33 41.67 55.33 38.94C55.33 33.87 55.3 28.78 55.35 23.7ZM11.35 47.74C11.35 49.36 11.37 50.99 11.34 52.61C11.3 54.67 9.88997 56.32 7.98997 56.6C6.04997 56.89 4.23997 55.81 3.57997 54C3.36997 53.42 3.34997 52.82 3.34997 52.22C3.34997 44.27 3.34997 36.31 3.34997 28.36C3.34997 20.24 3.34997 12.12 3.33997 4C3.33997 3.5 3.41997 3.34 3.96997 3.34C15.11 3.36 26.25 3.36 37.39 3.34C37.85 3.34 38.01 3.42 38.01 3.93C37.99 8.86 37.99 13.8 38.01 18.73C38.01 19.21 37.9 19.35 37.4 19.35C34.26 19.32 31.11 19.33 27.97 19.34C27.59 19.34 27.29 19.35 27.23 18.84C27.19 18.53 26.91 18.31 26.66 18.12C25 16.87 23.33 15.62 21.67 14.38C20.93 13.83 20.46 13.84 19.7 14.41C18.07 15.63 16.45 16.87 14.8 18.07C14.26 18.46 13.99 18.94 14.02 19.6C14.04 19.95 14.01 20.31 14.03 20.66C14.08 21.28 14.37 21.74 14.99 21.9C15.33 21.99 15.39 22.14 15.38 22.45C15.36 23.57 15.37 24.7 15.37 25.82C15.38 26.77 15.88 27.29 16.83 27.31C17.93 27.33 19.04 27.33 20.14 27.31C20.56 27.3 20.72 27.39 20.71 27.85C20.68 29.27 20.68 30.68 20.71 32.1C20.72 32.55 20.57 32.64 20.15 32.64C16.05 32.63 11.95 32.63 7.83997 32.63C6.64997 32.63 6.02997 33.08 6.00997 33.94C5.98997 34.83 6.62997 35.31 7.83997 35.31C11.92 35.31 16 35.32 20.08 35.3C20.54 35.3 20.7 35.4 20.66 35.88C20.61 36.4 20.62 36.92 20.66 37.44C20.7 37.89 20.54 37.98 20.11 37.98C15.98 37.99 11.83 38 7.68997 38C7.39997 38 7.10997 37.98 6.82997 38.11C6.26997 38.36 5.92997 38.93 6.01997 39.52C6.10997 40.12 6.57997 40.58 7.18997 40.64C7.41997 40.66 7.64997 40.66 7.87997 40.66C12 40.66 16.13 40.67 20.25 40.65C20.69 40.65 20.93 40.73 21.16 41.17C21.94 42.68 23.26 43.35 24.94 43.35C29.1 43.35 33.27 43.36 37.43 43.34C37.88 43.34 38.06 43.42 38.02 43.91C37.97 44.49 38 45.08 38.01 45.66C38.02 45.92 37.95 46.05 37.67 46.01C37.55 45.99 37.42 46.01 37.3 46.01C29.24 46.01 21.18 46.01 13.13 46.01C11.76 45.99 11.35 46.4 11.35 47.74ZM20.66 24.34C20.69 24.65 20.51 24.66 20.28 24.66C19.66 24.65 19.03 24.64 18.41 24.67C18.07 24.68 18 24.57 18 24.25C18.02 23.11 18 21.96 18.01 20.82C18.01 20.47 17.98 20.11 17.73 19.89C17.31 19.54 17.49 19.38 17.82 19.14C18.68 18.52 19.52 17.88 20.37 17.24C20.53 17.12 20.66 16.98 20.9 17.17C21.85 17.91 22.81 18.62 23.85 19.4C21.64 20.14 20.67 21.5 20.66 23.73C20.66 23.93 20.64 24.14 20.66 24.34ZM47.97 48.64C48.5 48.64 48.69 48.74 48.66 49.31C48.61 50.43 48.66 51.56 48.64 52.68C48.59 54.95 46.94 56.63 44.68 56.64C34.13 56.66 23.57 56.65 13.02 56.65C12.94 56.65 12.87 56.64 12.68 56.62C14.29 54.59 13.99 52.26 14 49.99C14.01 48.66 14 48.66 15.31 48.66C26.2 48.65 37.08 48.65 47.97 48.64ZM52.65 38.95C52.65 40.24 52.23 40.66 50.92 40.66C42.3 40.66 33.68 40.66 25.06 40.66C23.76 40.66 23.35 40.25 23.35 38.94C23.35 35.28 23.36 31.61 23.34 27.95C23.34 27.45 23.48 27.34 23.96 27.34C28.64 27.36 33.33 27.35 38.01 27.35C42.69 27.35 47.38 27.36 52.06 27.34C52.57 27.34 52.66 27.49 52.66 27.96C52.64 31.62 52.65 35.28 52.65 38.95ZM52.65 24.47C52.59 24.68 52.47 24.66 52.33 24.66C51.91 24.66 51.5 24.66 51.08 24.66C46.71 24.66 42.34 24.66 37.97 24.66C33.29 24.66 28.6 24.65 23.92 24.67C23.46 24.67 23.27 24.57 23.34 24.09C23.38 23.82 23.34 23.55 23.36 23.28C23.41 22.55 23.9 22.05 24.64 22C24.83 21.99 25.01 22 25.2 22C33.73 22 42.27 22 50.8 22C52.34 22 53.07 22.99 52.65 24.47Z" fill="#3247D5"/>
<path d="M48.5499 30C46.8499 29.99 45.1399 29.99 43.4399 30C42.5999 30.01 42.0099 30.55 41.9999 31.31C41.9899 32.07 42.5599 32.63 43.4099 32.65C44.2599 32.67 45.1099 32.65 45.9699 32.65C46.8399 32.65 47.7199 32.66 48.5899 32.65C49.4399 32.63 50.0099 32.08 49.9999 31.32C49.9799 30.56 49.3899 30.01 48.5499 30Z" fill="#3247D5"/>
<path d="M48.82 34.02C47.82 33.97 46.82 33.97 45.82 34.02C45.15 34.05 44.64 34.69 44.65 35.34C44.66 36.03 45.19 36.59 45.91 36.63C46.37 36.66 46.83 36.63 47.28 36.63C47.76 36.63 48.24 36.65 48.72 36.62C49.44 36.58 49.97 36.02 49.98 35.32C49.99 34.68 49.5 34.05 48.82 34.02Z" fill="#3247D5"/>
</svg>
