<svg width="64" height="64" viewBox="0 0 64 64" fill="none" xmlns="http://www.w3.org/2000/svg">
<path d="M63.87 35.54C59.9 25.6 55.95 15.65 51.99 5.7C51.5 4.49 51 4.27 49.76 4.76C33.71 11.15 17.65 17.55 1.60002 23.93C0.92002 24.2 0.39002 24.63 0.0200195 25.25C0.0200195 36.37 0.0200195 47.49 0.0200195 58.61C0.30002 59.42 0.60002 59.64 1.48002 59.68C1.69002 59.69 1.90002 59.69 2.10002 59.69C19.12 59.69 36.15 59.69 53.17 59.69C53.44 59.69 53.71 59.7 53.98 59.67C54.9 59.59 55.37 59.1 55.42 58.19C55.44 57.92 55.43 57.65 55.43 57.38C55.43 52.07 55.43 46.77 55.43 41.46C55.43 40.58 55.45 40.56 56.27 40.22C58.45 39.33 60.65 38.5 62.83 37.62C63.37 37.4 63.83 37.11 63.98 36.5C63.98 36.25 63.98 36 63.98 35.75C63.95 35.68 63.9 35.62 63.87 35.54ZM52.76 56.39C52.76 56.87 52.65 57 52.16 57C35.82 56.99 19.47 56.98 3.13002 57C2.58002 57 2.51002 56.82 2.51002 56.34C2.52002 46.72 2.53002 37.1 2.51002 27.48C2.51002 26.96 2.63002 26.83 3.15002 26.84C11.33 26.86 19.51 26.85 27.7 26.85C35.84 26.85 43.98 26.86 52.12 26.84C52.63 26.84 52.77 26.94 52.77 27.47C52.75 37.11 52.75 46.75 52.76 56.39ZM21.25 24.24C23 23.54 24.74 22.84 26.49 22.14C31.48 20.15 36.47 18.17 41.45 16.17C41.86 16 42.09 16.06 42.41 16.36C44.14 17.98 46.19 18.9 48.57 19.02C49.08 19.05 49.28 19.24 49.45 19.68C49.97 21.06 50.53 22.42 51.07 23.79C51.14 23.96 51.27 24.11 51.21 24.34C41.23 24.34 31.26 24.34 21.28 24.34C21.26 24.3 21.26 24.27 21.25 24.24ZM60.66 35.58C59.03 36.2 57.41 36.85 55.8 37.51C55.36 37.69 55.25 37.64 55.25 37.15C55.27 33.42 55.26 29.7 55.26 25.97C55.26 24.92 55.16 24.76 54.16 24.37C53.89 24.26 53.87 24.03 53.79 23.83C52.93 21.72 52.09 19.59 51.22 17.48C50.89 16.67 50.55 16.49 49.67 16.53C47.15 16.64 45.08 15.74 43.44 13.84C42.9 13.22 42.51 13.09 41.73 13.4C36.75 15.36 31.78 17.34 26.8 19.32C23.27 20.72 19.75 22.13 16.22 23.53C16.01 23.61 15.72 23.66 15.61 23.82C15.19 24.49 14.56 24.35 13.95 24.35C11.85 24.35 9.76002 24.35 7.66002 24.35C7.66002 24.31 7.65002 24.27 7.65002 24.23C9.86002 23.35 12.08 22.47 14.29 21.59C25.99 16.93 37.69 12.28 49.39 7.61C49.79 7.45 49.95 7.46 50.13 7.91C53.7 16.92 57.29 25.92 60.88 34.92C61.05 35.25 61.08 35.42 60.66 35.58Z" fill="#3247D5"/>
<path d="M49.12 35.25C46.78 34.42 45.18 32.84 44.36 30.49C44.06 29.63 43.76 29.38 42.86 29.38C33.47 29.37 24.08 29.37 14.69 29.36C13.94 29.36 13.19 29.36 12.44 29.37C11.52 29.39 11.22 29.61 10.92 30.46C10.09 32.83 8.49005 34.43 6.12005 35.25C5.34005 35.52 5.06005 35.83 5.06005 36.66C5.04005 40.18 5.05005 43.69 5.05005 47.21C5.05005 47.9 5.40005 48.32 6.05005 48.54C8.51005 49.36 10.13 51.02 10.97 53.46C11.23 54.21 11.56 54.45 12.36 54.45C17.46 54.46 22.56 54.45 27.66 54.45C32.74 54.45 37.82 54.45 42.9 54.45C43.74 54.45 44.05 54.23 44.32 53.43C45.13 51.03 46.73 49.4 49.13 48.57C49.95 48.29 50.21 47.96 50.22 47.11C50.23 43.65 50.23 40.2 50.22 36.74C50.22 35.85 49.97 35.55 49.12 35.25ZM47.75 45.97C47.75 46.3 47.67 46.48 47.34 46.62C45.07 47.64 43.42 49.31 42.38 51.57C42.24 51.88 42.08 51.99 41.74 51.99C32.35 51.98 22.96 51.98 13.58 51.99C13.22 51.99 13.04 51.88 12.89 51.54C11.88 49.31 10.24 47.69 8.03005 46.65C7.69005 46.49 7.53005 46.33 7.53005 45.93C7.55005 43.24 7.55005 40.56 7.53005 37.87C7.53005 37.52 7.64005 37.37 7.95005 37.23C10.21 36.19 11.88 34.54 12.9 32.27C13.07 31.89 13.3 31.88 13.62 31.88C18.3 31.88 22.99 31.88 27.67 31.88C32.33 31.88 37 31.89 41.66 31.87C42.07 31.87 42.25 31.99 42.43 32.37C43.47 34.58 45.11 36.2 47.33 37.22C47.63 37.36 47.76 37.5 47.76 37.85C47.73 40.56 47.73 43.26 47.75 45.97Z" fill="#3247D5"/>
<path d="M27.71 34.38C23.55 34.35 20.13 37.71 20.11 41.86C20.09 46.03 23.43 49.42 27.6 49.46C31.73 49.5 35.15 46.1 35.16 41.94C35.18 37.81 31.84 34.41 27.71 34.38ZM27.62 46.94C24.85 46.92 22.62 44.69 22.62 41.93C22.62 39.15 24.88 36.88 27.65 36.89C30.41 36.9 32.64 39.14 32.64 41.9C32.66 44.7 30.4 46.96 27.62 46.94Z" fill="#3247D5"/>
<path d="M13.79 40.03C12.78 40.06 11.94 40.91 11.95 41.93C11.95 42.97 12.82 43.82 13.87 43.8C14.89 43.78 15.72 42.93 15.72 41.92C15.71 40.88 14.81 40 13.79 40.03ZM13.79 42.53C13.42 42.51 13.22 42.28 13.22 41.93C13.22 41.53 13.46 41.3 13.84 41.31C14.22 41.32 14.43 41.56 14.45 41.95C14.39 42.32 14.19 42.55 13.79 42.53Z" fill="#3247D5"/>
<path d="M41.45 40.03C40.41 40.03 39.57 40.9 39.59 41.96C39.61 42.98 40.45 43.8 41.47 43.8C42.49 43.79 43.34 42.96 43.35 41.95C43.36 40.92 42.47 40.02 41.45 40.03ZM41.45 42.53C41.09 42.53 40.87 42.33 40.84 41.96C40.82 41.56 41.05 41.32 41.42 41.3C41.8 41.28 42.02 41.53 42.08 41.92C42.04 42.28 41.86 42.53 41.45 42.53Z" fill="#3247D5"/>
</svg>
