<svg width="56" height="64" viewBox="0 0 56 64" fill="none" xmlns="http://www.w3.org/2000/svg">
<path d="M49.27 45.29C48.75 45.1 48.65 44.86 48.65 44.36C48.67 38.18 48.66 31.99 48.66 25.81C48.66 24.82 48.4 24.4 47.76 24.38C47.1 24.36 46.79 24.81 46.79 25.81C46.79 31.91 46.79 38.01 46.8 44.11C46.8 44.56 46.74 44.69 46.23 44.67C41.13 44.42 36.55 48.52 36.27 53.58C36.24 54.09 36.08 54.17 35.62 54.17C26.42 54.16 17.21 54.16 8.00999 54.16C7.16999 54.16 7.14999 54.13 7.14999 53.28C7.14999 36.43 7.14999 19.59 7.14999 2.74001C7.14999 1.89001 7.15999 1.88001 8.02999 1.88001C20.65 1.88001 33.27 1.88001 45.89 1.88001C46.79 1.88001 46.79 1.88001 46.79 2.78001C46.79 8.65001 46.79 14.52 46.79 20.4C46.79 20.59 46.78 20.78 46.8 20.96C46.86 21.56 47.22 21.91 47.76 21.9C48.31 21.89 48.63 21.55 48.67 20.92C48.68 20.73 48.67 20.55 48.67 20.36C48.67 14.55 48.64 8.74001 48.69 2.93001C48.7 1.55001 48.3 0.56001 47 0.0100098C33.67 0.0100098 20.34 0.0100098 7.00999 0.0100098C5.67999 0.52001 5.15999 1.51001 5.26999 2.90001C5.29999 3.35001 5.23999 3.81001 5.27999 4.27001C5.31999 4.72001 5.20999 4.91001 4.70999 4.87001C4.16999 4.82001 3.62999 4.85001 3.08999 4.85001C1.28999 4.85001 0.449988 5.68001 0.449988 7.47001C0.449988 16.19 0.449988 24.92 0.449988 33.64C0.449988 33.81 0.439988 33.97 0.459988 34.14C0.529988 34.7 0.889988 35.03 1.40999 35.01C1.94999 34.99 2.24999 34.68 2.29999 34.15C2.31999 33.92 2.31999 33.69 2.31999 33.46C2.31999 24.9 2.31999 16.34 2.31999 7.78001C2.31999 7.61001 2.32999 7.45001 2.31999 7.28001C2.29999 6.87001 2.50999 6.71001 2.92999 6.72001C3.46999 6.74001 4.01999 6.77001 4.54999 6.71001C5.15999 6.64001 5.28999 6.84001 5.28999 7.44001C5.26999 22.71 5.26999 37.98 5.26999 53.24C5.26999 55.25 6.05999 56.04 8.05999 56.04C17.24 56.04 26.43 56.04 35.61 56.04C35.76 56.04 35.9 56.05 36.05 56.04C36.27 56.02 36.41 56.1 36.45 56.32C36.61 57.24 36.99 58.09 37.41 58.99C37.14 58.99 36.94 58.99 36.73 58.99C25.57 58.99 14.41 58.99 3.24999 58.99C2.32999 58.99 2.31999 58.99 2.31999 58.05C2.31999 51.68 2.31999 45.31 2.31999 38.93C2.31999 37.92 2.01999 37.47 1.35999 37.49C0.719988 37.5 0.439988 37.93 0.439988 38.91C0.439988 45.32 0.469988 51.74 0.419988 58.15C0.409988 59.95 1.52999 60.89 3.11999 60.88C14.8 60.84 26.48 60.86 38.17 60.85C38.6 60.85 38.9 60.96 39.2 61.26C40.16 62.23 41.31 62.94 42.61 63.39C43.27 63.61 43.94 63.78 44.61 63.97C44.73 63.97 44.86 63.97 44.98 63.97C45.23 63.76 45.48 63.79 45.73 63.97C45.81 63.97 45.9 63.97 45.98 63.97C46.19 63.79 46.4 63.78 46.6 63.97C46.73 63.97 46.85 63.97 46.97 63.97C47.02 63.85 47.14 63.87 47.24 63.86C51.47 63.3 54.95 59.78 55.46 55.57C56.01 51.1 53.44 46.8 49.27 45.29ZM46.12 62.11C41.76 62.19 38.2 58.81 38.12 54.51C38.04 50.18 41.44 46.62 45.76 46.53C50.06 46.44 53.61 49.91 53.69 54.3C53.75 58.43 50.27 62.03 46.12 62.11Z" fill="#3247D5"/>
<path d="M44.99 63.99C45.24 63.99 45.49 63.99 45.74 63.99C45.49 63.89 45.24 63.89 44.99 63.99Z" fill="#3247D5"/>
<path d="M45.99 63.99C46.2 63.99 46.41 63.99 46.61 63.99C46.41 63.89 46.2 63.89 45.99 63.99Z" fill="#3247D5"/>
<path d="M41.98 6.26C41.8 6.24 41.61 6.25 41.42 6.25C36.61 6.25 31.8 6.25 27 6.25C22.17 6.25 17.34 6.25 12.51 6.25C12.32 6.25 12.13 6.23 11.95 6.26C11.46 6.33 11.15 6.61 11.12 7.12C11.08 7.66 11.38 7.98 11.88 8.11C12.04 8.15 12.21 8.13 12.38 8.13C22.12 8.13 31.86 8.13 41.6 8.13C41.75 8.13 41.9 8.14 42.04 8.12C42.56 8.02 42.87 7.69 42.85 7.17C42.83 6.65 42.51 6.33 41.98 6.26Z" fill="#3247D5"/>
<path d="M35.81 12.53C36.02 12.53 36.23 12.54 36.43 12.52C36.97 12.47 37.27 12.16 37.29 11.63C37.31 11.1 37.01 10.78 36.49 10.67C36.31 10.63 36.12 10.65 35.93 10.65C29.96 10.65 23.98 10.65 18.01 10.65C17.76 10.65 17.51 10.62 17.27 10.72C16.83 10.89 16.6 11.22 16.64 11.69C16.69 12.15 16.96 12.45 17.44 12.51C17.65 12.54 17.86 12.53 18.06 12.53C21.04 12.53 24.01 12.53 26.99 12.53C29.94 12.53 32.87 12.53 35.81 12.53Z" fill="#3247D5"/>
<path d="M41.98 36C42.41 35.93 42.69 35.66 42.75 35.22C42.81 34.75 42.61 34.42 42.17 34.23C41.95 34.13 41.72 34.15 41.49 34.15C35.64 34.15 29.79 34.15 23.94 34.15C23.73 34.15 23.52 34.16 23.33 34.22C22.88 34.37 22.66 34.71 22.7 35.18C22.74 35.65 23.02 35.94 23.49 36.01C23.69 36.04 23.91 36.03 24.11 36.03C26.96 36.03 29.82 36.03 32.67 36.03C35.56 36.03 38.46 36.03 41.35 36.03C41.56 36.01 41.78 36.03 41.98 36Z" fill="#3247D5"/>
<path d="M36.79 44C36.77 43.41 36.38 43.1 35.62 43.1C33.66 43.1 31.71 43.1 29.75 43.1C27.79 43.1 25.84 43.1 23.88 43.1C23.1 43.1 22.67 43.45 22.69 44.05C22.71 44.62 23.14 44.97 23.87 44.97C27.78 44.97 31.7 44.97 35.61 44.97C36.38 44.97 36.81 44.61 36.79 44Z" fill="#3247D5"/>
<path d="M35.63 26.16C35.65 25.54 35.25 25.21 34.44 25.21C32.69 25.2 30.94 25.21 29.2 25.21C27.41 25.21 25.62 25.21 23.83 25.21C23.09 25.21 22.68 25.56 22.68 26.14C22.69 26.71 23.11 27.07 23.84 27.08C27.38 27.09 30.91 27.09 34.45 27.08C35.22 27.08 35.61 26.76 35.63 26.16Z" fill="#3247D5"/>
<path d="M41.61 16.26C38.07 16.26 34.54 16.26 31 16.26C30.26 16.26 29.84 16.59 29.83 17.17C29.81 17.78 30.23 18.13 31.01 18.13C32.76 18.13 34.5 18.13 36.25 18.13C38.04 18.13 39.83 18.13 41.62 18.13C42.35 18.13 42.76 17.78 42.76 17.19C42.76 16.61 42.34 16.26 41.61 16.26Z" fill="#3247D5"/>
<path d="M28.93 29.62C27.24 29.62 25.56 29.62 23.87 29.62C23.09 29.62 22.66 29.97 22.68 30.57C22.69 31.14 23.13 31.49 23.86 31.49C27.25 31.49 30.64 31.49 34.03 31.49C34.79 31.49 35.24 31.12 35.23 30.53C35.22 29.96 34.78 29.62 34.05 29.62C32.35 29.62 30.64 29.62 28.93 29.62Z" fill="#3247D5"/>
<path d="M34.06 20.66C30.67 20.65 27.28 20.65 23.89 20.66C23.12 20.66 22.68 21.03 22.69 21.62C22.7 22.2 23.11 22.53 23.86 22.53C25.54 22.53 27.23 22.53 28.91 22.53C30.66 22.53 32.4 22.52 34.15 22.53C34.64 22.53 35 22.37 35.17 21.89C35.41 21.23 34.91 20.67 34.06 20.66Z" fill="#3247D5"/>
<path d="M13.71 22.7C13.91 22.87 14.13 22.97 14.42 22.99C14.66 22.95 14.91 22.86 15.1 22.64C16.57 20.89 18.05 19.14 19.51 17.38C19.89 16.92 19.81 16.39 19.39 16.05C18.96 15.7 18.41 15.8 17.98 16.31C16.84 17.66 15.7 19.01 14.58 20.38C14.36 20.65 14.22 20.7 13.95 20.45C13.57 20.09 13.17 19.77 12.76 19.44C12.24 19.02 11.69 19.04 11.33 19.48C10.99 19.89 11.06 20.43 11.54 20.85C12.24 21.47 12.98 22.08 13.71 22.7Z" fill="#3247D5"/>
<path d="M19.68 25.45C19.43 24.68 18.57 24.54 18.01 25.2C16.87 26.53 15.74 27.86 14.65 29.22C14.33 29.62 14.13 29.6 13.8 29.27C13.48 28.95 13.11 28.67 12.75 28.38C12.23 27.96 11.66 27.97 11.31 28.4C10.96 28.82 11.05 29.39 11.55 29.82C12.24 30.42 12.94 31.01 13.65 31.59C14.21 32.05 14.71 32.03 15.17 31.49C16.59 29.81 18 28.11 19.42 26.42C19.6 26.21 19.72 25.97 19.73 25.66C19.72 25.61 19.71 25.53 19.68 25.45Z" fill="#3247D5"/>
<path d="M13.74 40.6C14.25 41.01 14.7 40.95 15.16 40.44C15.68 39.85 16.18 39.23 16.69 38.63C17.6 37.55 18.52 36.47 19.41 35.38C19.94 34.73 19.73 33.9 19.01 33.75C18.55 33.65 18.22 33.87 17.93 34.22C16.82 35.57 15.68 36.89 14.57 38.24C14.32 38.54 14.16 38.57 13.89 38.3C13.53 37.95 13.14 37.65 12.76 37.32C12.55 37.15 12.33 37 11.95 37C11.63 37.01 11.32 37.22 11.17 37.6C11.02 38 11.11 38.38 11.46 38.67C12.21 39.32 12.96 39.98 13.74 40.6Z" fill="#3247D5"/>
<path d="M13.65 49.48C13.86 49.66 14.09 49.79 14.43 49.79C14.66 49.79 14.9 49.69 15.09 49.47C16.56 47.72 18.04 45.97 19.49 44.2C19.87 43.74 19.79 43.21 19.37 42.87C18.92 42.51 18.41 42.59 17.96 43.13C16.83 44.47 15.71 45.8 14.6 47.16C14.36 47.45 14.2 47.57 13.89 47.24C13.54 46.88 13.14 46.58 12.75 46.27C12.23 45.85 11.67 45.86 11.31 46.29C10.96 46.72 11.05 47.27 11.55 47.71C12.25 48.3 12.96 48.89 13.65 49.48Z" fill="#3247D5"/>
<path d="M23.8 47.5C23.12 47.5 22.7 47.86 22.69 48.41C22.68 49 23.1 49.36 23.82 49.37C25.15 49.38 26.48 49.37 27.81 49.37C29.16 49.37 30.51 49.38 31.86 49.37C32.53 49.37 32.95 48.99 32.94 48.43C32.94 47.87 32.51 47.5 31.84 47.5C29.16 47.5 26.48 47.5 23.8 47.5Z" fill="#3247D5"/>
<path d="M31.72 40.43C32.55 40.43 33.38 40.44 34.22 40.43C34.81 40.42 35.21 40.05 35.23 39.55C35.26 39.03 34.85 38.59 34.24 38.58C32.58 38.56 30.91 38.56 29.25 38.58C28.6 38.59 28.24 38.98 28.25 39.53C28.26 40.09 28.63 40.42 29.29 40.44C30.1 40.44 30.91 40.43 31.72 40.43Z" fill="#3247D5"/>
<path d="M23.64 18.13C24.08 18.15 24.51 18.13 24.95 18.13C25.39 18.13 25.82 18.14 26.26 18.13C26.84 18.11 27.23 17.75 27.25 17.23C27.27 16.69 26.87 16.27 26.27 16.26C25.4 16.24 24.53 16.24 23.66 16.26C23.09 16.27 22.69 16.67 22.69 17.19C22.68 17.71 23.07 18.1 23.64 18.13Z" fill="#3247D5"/>
<path d="M41.85 25.22C41.4 25.2 40.94 25.21 40.48 25.21C40.48 25.21 40.48 25.21 40.48 25.2C40.09 25.2 39.69 25.2 39.3 25.2C39.26 25.2 39.22 25.2 39.18 25.2C38.57 25.24 38.22 25.57 38.22 26.12C38.22 26.63 38.54 27.03 39.1 27.05C40.03 27.09 40.97 27.09 41.9 27.05C42.46 27.03 42.78 26.62 42.77 26.11C42.75 25.6 42.41 25.25 41.85 25.22Z" fill="#3247D5"/>
<path d="M25.75 40.43C25.79 40.43 25.83 40.43 25.87 40.43C26.43 40.37 26.77 40.04 26.77 39.52C26.77 38.98 26.48 38.63 25.96 38.6C25.14 38.56 24.3 38.56 23.48 38.61C22.95 38.64 22.68 39.04 22.7 39.56C22.72 40.05 23.01 40.38 23.51 40.42C23.9 40.45 24.3 40.43 24.69 40.43V40.44C25.04 40.43 25.39 40.43 25.75 40.43Z" fill="#3247D5"/>
<path d="M47.72 51.6C47.09 52.37 46.47 53.15 45.84 53.93C45.55 54.28 45.31 54.84 44.95 54.93C44.51 55.04 44.23 54.42 43.86 54.15C43.34 53.76 42.78 53.75 42.42 54.18C42.08 54.59 42.14 55.12 42.61 55.55C43.18 56.07 43.76 56.57 44.34 57.08C44.53 57.25 44.75 57.36 45.08 57.37C45.37 57.35 45.63 57.17 45.84 56.9C46.94 55.52 48.06 54.15 49.16 52.77C49.61 52.21 49.57 51.65 49.1 51.3C48.69 50.96 48.16 51.06 47.72 51.6Z" fill="#3247D5"/>
</svg>
