<svg width="60" height="57" viewBox="0 0 60 57" fill="none" xmlns="http://www.w3.org/2000/svg">
<path d="M55.8368 0.211121H4.16262C1.86719 0.211121 0 2.07794 0 4.37387V36.9295C0 39.2248 1.86719 41.092 4.16262 41.092H36.0356C35.5412 39.8264 35.2365 38.4339 35.1601 36.9659L4.10258 36.9295L4.16262 4.31358L55.8974 4.37387V36.9295C55.8974 36.9636 55.8693 36.9897 55.8369 36.9897L53.9719 36.9874C53.894 38.4477 53.5915 39.8321 53.099 41.0919H55.8369C58.1331 41.0919 60.0001 39.2246 60.0001 36.9294V4.37387C60 2.07794 58.1331 0.211121 55.8368 0.211121Z" fill="white"/>
<path d="M44.9997 49C48.8663 49 52 45.8662 52 41.9998C52 38.1339 48.8664 35 44.9997 35C41.1335 35 38 38.1339 38 41.9998C38 45.8662 41.1336 49 44.9997 49Z" fill="white"/>
<path d="M9.91582 13.472H28.2051C29.339 13.472 30.2566 12.5549 30.2566 11.421C30.2566 10.2873 29.3389 9.36963 28.2051 9.36963H9.91582C8.78211 9.36963 7.86496 10.2873 7.86496 11.421C7.86496 12.5549 8.78198 13.472 9.91582 13.472Z" fill="white"/>
<path d="M50.7692 20.6521C50.7692 19.5182 49.8515 18.6003 48.7177 18.6003H9.91582C8.78211 18.6003 7.86496 19.5182 7.86496 20.6521C7.86496 21.7858 8.78198 22.7029 9.91582 22.7029H48.7177C49.8515 22.7029 50.7692 21.786 50.7692 20.6521Z" fill="white"/>
<path d="M9.91582 27.8312C8.78211 27.8312 7.86496 28.7488 7.86496 29.882C7.86496 31.016 8.78198 31.9336 9.91582 31.9336H28.2051C29.339 31.9336 30.2566 31.016 30.2566 29.882C30.2566 28.7487 29.3389 27.8312 28.2051 27.8312H9.91582Z" fill="white"/>
<path d="M50.4806 48C50.473 48.0069 47.7716 50.275 44 49.9542L48.6901 56.8612C48.7472 56.9469 48.8675 57 48.9967 57C49.0048 57 49.0123 57 49.0217 57C49.1592 56.9919 49.2769 56.9252 49.3207 56.828L50.5039 54.1835C50.532 54.1209 50.5954 54.0678 50.6769 54.0372C50.7245 54.0208 50.7777 54.0126 50.8274 54.0126C50.8655 54.0126 50.9038 54.0166 50.942 54.0262L54.5443 54.9474C54.582 54.9569 54.62 54.9612 54.6583 54.9612C54.7555 54.9612 54.847 54.9317 54.9136 54.878C55.0069 54.8018 55.0257 54.6935 54.9648 54.6034L50.4806 48Z" fill="white"/>
<path d="M38.3669 48.0124C38.3614 48.0084 38.3537 48.0042 38.3462 48L34.0335 54.6029C33.9751 54.6945 33.9938 54.8028 34.0836 54.8791C34.1475 54.9329 34.2372 54.9623 34.3308 54.9623C34.3676 54.9623 34.4036 54.958 34.4386 54.9485L37.9032 54.0272C37.9399 54.0176 37.9768 54.0136 38.013 54.0136C38.0625 54.0136 38.1119 54.0217 38.1577 54.0382C38.2367 54.0687 38.297 54.1217 38.3247 54.1856L39.4625 56.8294C39.5048 56.9254 39.618 56.9934 39.7501 57C39.7573 57 39.7663 57 39.7736 57C39.8984 57 40.0135 56.9471 40.0691 56.8627L43 52.3737L41.1261 49.5036C41.1187 49.5007 39.4852 49.0053 38.3669 48.0124Z" fill="white"/>
</svg>
