<svg width="62" height="62" viewBox="0 0 62 62" fill="none" xmlns="http://www.w3.org/2000/svg">
<path d="M60.1099 58.87C58.2499 53.63 57.5899 48.17 57.1299 42.67C57.0799 42.08 56.9799 41.88 56.3299 41.88C47.6699 41.91 39.0099 41.9 30.3599 41.9C29.5899 41.9 29.5799 41.9 29.6499 42.67C29.9199 45.9 30.2799 49.13 30.9099 52.31C31.4599 55.14 32.1299 57.95 33.3699 60.58C33.5499 60.97 33.7699 61.11 34.2099 61.11C40.3499 61.09 46.4899 61.1 52.6299 61.1C55.4199 61.1 58.2099 61.1 61.0599 61.1C60.7199 60.32 60.3799 59.61 60.1099 58.87ZM47.2199 51.98C48.1699 52.85 49.0599 53.78 49.9599 54.71C50.4999 55.27 50.4299 56.01 49.8199 56.35C49.3299 56.63 48.8999 56.49 48.5299 56.11C47.5899 55.17 46.6299 54.24 45.7199 53.28C45.4299 52.97 45.2699 53.01 44.9999 53.29C44.1099 54.22 43.1899 55.12 42.2699 56.03C41.7099 56.59 41.1299 56.64 40.6899 56.2C40.2399 55.76 40.2899 55.17 40.8399 54.62C41.7499 53.7 42.6499 52.78 43.5799 51.89C43.9099 51.58 43.8699 51.41 43.5699 51.12C42.6399 50.23 41.7399 49.31 40.8299 48.39C40.2999 47.85 40.2499 47.3 40.6699 46.86C41.1099 46.39 41.6899 46.43 42.2499 46.98C43.1799 47.9 44.1199 48.82 45.0299 49.76C45.2899 50.03 45.4299 50.06 45.7099 49.77C46.6499 48.8 47.6099 47.85 48.5699 46.9C48.9099 46.56 49.3099 46.43 49.7599 46.64C50.1399 46.81 50.2999 47.13 50.3499 47.52C50.3299 47.88 50.1599 48.16 49.9199 48.4C49.0299 49.28 48.1699 50.18 47.2599 51.04C46.8699 51.38 46.7899 51.58 47.2199 51.98Z" fill="white"/>
<path d="M29.8699 34.66C30.2599 34.6 30.6699 34.59 31.0499 34.64C31.6999 34.73 31.9099 34.52 31.9799 33.85C32.0499 33.2 31.8799 33.12 31.2999 33.12C22.2199 33.14 13.1399 33.13 4.0599 33.14C3.5399 33.14 3.4099 33.01 3.4099 32.49C3.4299 26.6 3.4199 20.7 3.4199 14.81C3.4199 13.88 3.4399 13.85 4.3499 13.85C6.6199 13.85 8.8899 13.85 11.1599 13.85C11.3999 13.85 11.6399 13.9 11.8299 13.63C12.3699 12.87 12.9399 12.14 13.5799 11.3C10.3499 11.3 7.2499 11.29 4.1499 11.3C2.1499 11.31 0.899902 12.58 0.899902 14.6C0.899902 21.37 0.899902 28.14 0.899902 34.9C0.899902 36.99 2.1499 38.23 4.2399 38.23C7.4499 38.23 10.6499 38.24 13.8599 38.22C14.3399 38.22 14.4399 38.35 14.4299 38.81C14.3999 40.02 14.3999 41.23 14.4299 42.43C14.4399 42.89 14.3599 43.08 13.8299 43.07C12.3699 43.04 10.9099 43.03 9.4599 43.1C8.0299 43.17 7.2399 44.09 7.2399 45.5C7.2399 45.85 7.2699 46.21 7.2299 46.56C7.1699 47.09 7.3699 47.2 7.8799 47.2C14.3999 47.18 20.9199 47.19 27.4299 47.19C27.5299 47.19 27.6399 47.18 27.7399 47.19C27.9999 47.21 28.1099 47.14 28.0699 46.84C27.9399 45.72 27.8199 44.61 27.7299 43.49C27.6999 43.14 27.5499 43.01 27.2199 43.06C26.9199 43.1 26.8299 42.96 26.8299 42.67C26.8399 41.32 26.8299 39.96 26.8399 38.61C26.8399 38.46 26.7699 38.21 27.0399 38.25C27.7499 38.36 27.6099 37.88 27.6099 37.48C27.6099 35.95 28.4699 34.87 29.8699 34.66Z" fill="white"/>
<path d="M16.82 10.67C15.03 12.7 13.22 14.72 12.03 17.18C10.88 19.55 10.83 21.98 12.14 24.3C13.92 27.45 16.79 28.78 20 28.96C21.35 28.97 22.41 28.89 23.44 28.62C28.87 27.16 32.04 21.52 28.61 16.06C27.41 14.15 25.98 12.43 24.48 10.75C24.29 10.54 24.17 10.5 23.93 10.68C23.43 11.05 22.85 11.17 22.23 11.17C21.17 11.16 20.11 11.16 19.05 11.17C18.41 11.18 17.81 11.05 17.29 10.67C17.11 10.53 17 10.46 16.82 10.67ZM19.59 14.41C19.72 14.02 19.89 13.81 20.33 13.89C20.51 13.92 20.71 13.92 20.89 13.89C21.31 13.83 21.52 13.98 21.65 14.4C21.86 15.08 23.24 15.64 23.88 15.31C24.23 15.13 24.48 15.15 24.73 15.47C24.87 15.65 25.03 15.82 25.21 15.95C25.5 16.17 25.5 16.38 25.35 16.7C25 17.45 25.52 18.77 26.29 19.01C26.94 19.2 26.67 19.68 26.72 20.05C26.9 20.67 26.64 21 26.05 21.12C25.79 21.17 25.68 21.33 25.61 21.58C25.54 21.84 25.45 22.1 25.31 22.33C25.1 22.65 25.09 22.94 25.29 23.25C25.52 23.59 25.49 23.85 25.16 24.15C24.67 24.6 24.3 25.16 23.51 24.58C23.22 24.36 22.93 24.81 22.61 24.87C22.03 24.97 21.63 25.27 21.52 25.88C21.48 26.13 21.31 26.15 21.11 26.14C20.88 26.13 20.65 26.11 20.42 26.14C19.93 26.21 19.63 26.06 19.54 25.55C19.48 25.23 19.28 25.09 18.96 24.99C18.32 24.79 17.72 24.27 17.01 24.85C16.87 24.96 16.74 24.82 16.64 24.72C16.45 24.53 16.28 24.31 16.06 24.15C15.71 23.89 15.65 23.6 15.9 23.25C16.14 22.92 16.04 22.63 15.88 22.28C15.61 21.68 15.46 21.01 14.66 20.9C14.46 20.87 14.48 20.71 14.48 20.57C14.48 20.28 14.51 19.98 14.47 19.7C14.42 19.29 14.58 19.08 14.96 19.01C15.34 18.93 15.51 18.69 15.65 18.32C15.88 17.68 16.28 17.1 15.75 16.43C15.64 16.29 15.8 16.17 15.9 16.07C16.08 15.89 16.27 15.73 16.43 15.54C16.7 15.21 16.95 15.12 17.37 15.34C17.99 15.64 19.38 15.05 19.59 14.41Z" fill="white"/>
<path d="M30.25 39.91C38.81 39.89 47.37 39.9 55.92 39.9C56.11 39.9 56.3 39.88 56.48 39.9C56.92 39.96 57.12 39.84 57.08 39.34C57.03 38.78 57.07 38.22 57.07 37.65C57.07 36.8 56.9 36.64 56.04 36.64C55.08 36.64 54.11 36.64 53.13 36.64C53.51 34.75 53.32 32.98 52.62 31.75C52.21 31.03 51.66 30.49 50.76 30.49C49.86 30.49 49.3 31.04 48.9 31.76C48.38 32.71 48.18 33.75 48.21 34.83C48.22 35.4 48.59 35.79 49.12 35.84C49.62 35.89 50.08 35.53 50.18 34.98C50.23 34.74 50.21 34.48 50.23 34.23C50.3 33.66 50.37 33.09 50.79 32.57C51.39 33.77 51.42 34.94 51.17 36.16C51.09 36.53 50.94 36.66 50.54 36.65C49.12 36.62 47.71 36.62 46.29 36.65C45.79 36.66 45.68 36.56 45.77 36.04C46.02 34.6 45.9 33.17 45.22 31.85C44.82 31.07 44.26 30.48 43.3 30.49C42.34 30.5 41.79 31.11 41.39 31.88C40.95 32.72 40.78 33.64 40.75 34.59C40.72 35.34 41.13 35.84 41.74 35.84C42.34 35.85 42.7 35.41 42.75 34.66C42.8 33.95 42.87 33.25 43.28 32.63C43.34 32.68 43.41 32.7 43.43 32.75C43.99 33.94 43.98 35.16 43.65 36.4C43.57 36.7 43.36 36.64 43.16 36.64C41.89 36.64 40.62 36.62 39.35 36.65C38.89 36.66 38.81 36.55 38.89 36.1C39.15 34.55 39.05 33.02 38.23 31.63C37.32 30.08 35.61 30.08 34.67 31.61C34.12 32.5 33.94 33.5 33.88 34.53C33.84 35.3 34.2 35.79 34.82 35.84C35.43 35.88 35.83 35.43 35.88 34.66C35.93 33.96 35.99 33.25 36.4 32.66C36.56 32.7 36.6 32.83 36.65 32.94C37.07 33.96 37.06 35 36.87 36.07C36.79 36.51 36.64 36.68 36.15 36.67C34.26 36.64 32.36 36.65 30.47 36.66C29.77 36.66 29.59 36.84 29.59 37.55C29.59 38.13 29.63 38.72 29.58 39.3C29.54 39.82 29.75 39.91 30.25 39.91ZM51.66 37.32C52.21 37.31 52.65 37.74 52.67 38.28C52.69 38.83 52.27 39.28 51.72 39.3C51.15 39.33 50.68 38.88 50.68 38.31C50.68 37.76 51.12 37.33 51.66 37.32ZM44.32 37.32C44.86 37.31 45.32 37.75 45.34 38.28C45.36 38.81 44.92 39.27 44.38 39.3C43.83 39.33 43.38 38.92 43.35 38.37C43.32 37.79 43.75 37.32 44.32 37.32ZM37.17 37.32C37.71 37.34 38.14 37.8 38.12 38.34C38.11 38.88 37.66 39.31 37.11 39.3C36.57 39.29 36.12 38.84 36.12 38.31C36.13 37.75 36.61 37.3 37.17 37.32Z" fill="white"/>
<path d="M30.0799 13.87C32.3299 13.85 34.5799 13.86 36.8299 13.86C37.8099 13.86 37.8099 13.87 37.8099 14.82C37.8099 18.96 37.8299 23.11 37.7899 27.25C37.7799 28.15 37.8099 28.87 38.7899 29.29C39.3299 29.53 39.6699 30.09 39.9899 30.62C40.0899 30.78 40.1199 31 40.3499 31.12C40.3499 25.47 40.3699 19.85 40.3399 14.23C40.3299 12.63 39.0799 11.36 37.4799 11.33C34.2599 11.27 31.0299 11.31 27.6799 11.31C28.2599 12.08 28.7799 12.75 29.2699 13.44C29.4799 13.75 29.7099 13.87 30.0799 13.87Z" fill="white"/>
<path d="M17.44 5.79001C17.52 5.88001 17.61 5.85001 17.72 5.82001C19.41 5.32001 21.16 5.44001 22.85 5.68001C23.68 5.80001 24.1 5.59001 24.55 5.06001C24.6 5.00001 24.67 4.94001 24.73 4.88001C25.39 4.20001 25.51 3.49001 25.08 2.87001C24.65 2.26001 24 2.13001 23.14 2.48001C22.6 2.70001 22.21 2.58001 22.04 2.05001C21.8 1.33001 21.36 0.890008 20.6 0.900008C19.87 0.910008 19.44 1.34001 19.22 2.04001C19.05 2.57001 18.65 2.71001 18.13 2.48001C17.88 2.37001 17.64 2.24001 17.36 2.26001C16.29 2.25001 15.58 3.39001 16.1 4.33001C16.42 4.92001 16.99 5.30001 17.44 5.79001Z" fill="white"/>
<path d="M20.5798 9.14001C21.1598 9.14001 21.7398 9.15001 22.3198 9.14001C22.8098 9.13001 23.1198 8.9 23.1398 8.4C23.1698 7.9 22.8798 7.6 22.3998 7.59C21.2198 7.56 20.0298 7.56 18.8498 7.59C18.3698 7.6 18.0698 7.89001 18.0898 8.39001C18.1098 8.88001 18.4098 9.14 18.8998 9.15C19.4598 9.15 20.0198 9.14001 20.5798 9.14001Z" fill="white"/>
<path d="M29.6099 60.61C29.6099 61.03 29.7999 61.31 30.2099 61.33C30.8599 61.36 31.5099 61.34 32.2099 61.34C31.1799 59.62 30.1999 57.97 29.6099 56.12C29.6099 57.62 29.6099 59.12 29.6099 60.61Z" fill="white"/>
<path d="M20.62 22.89C22.23 22.89 23.51 21.6 23.5 20C23.49 18.4 22.19 17.12 20.59 17.13C19.02 17.14 17.75 18.42 17.74 19.99C17.74 21.61 19.01 22.89 20.62 22.89Z" fill="white"/>
</svg>
