<svg width="64" height="50" viewBox="0 0 64 50" fill="none" xmlns="http://www.w3.org/2000/svg">
<path d="M0.38001 36.45C0.61001 37.66 0.92001 38.85 1.43001 39.97C3.72001 44.94 7.54001 48.02 12.95 48.91C17.65 49.68 21.85 48.44 25.44 45.26C25.84 44.9 26.27 44.57 26.6 44.13C26.9 43.73 27.26 43.69 27.69 43.95C29.2 44.83 30.73 45.67 32.22 46.58C32.87 46.98 33.48 47.2 34.17 46.69C34.42 46.51 34.67 46.57 34.89 46.8C35.55 47.49 36.38 47.71 37.32 47.71C45.14 47.69 52.97 47.69 60.79 47.71C62.05 47.71 63.09 47.42 63.68 46.19C63.73 46.08 63.81 45.97 63.97 46C63.97 45.63 63.97 45.25 63.97 44.88C63.7 44.15 63.31 43.47 62.92 42.8C59.88 37.55 56.86 32.29 53.82 27.05C53.6 26.67 53.51 26.3 53.51 25.87C53.52 21.58 53.51 17.29 53.53 13C53.53 12.51 53.38 12.21 52.94 11.96C46.59 8.3 40.24 4.64 33.9 0.960001C33.47 0.710001 33.14 0.7 32.7 0.95C26.34 4.64 19.97 8.32 13.6 11.98C13.19 12.22 13.01 12.49 13.02 12.97C13.04 14.76 13.02 16.55 13.04 18.34C13.04 18.7 12.93 18.82 12.57 18.9C6.32001 20.26 2.30001 24.02 0.49001 30.16C0.29001 30.85 0.29001 31.58 0.0100098 32.25C0.0100098 32.37 0.0100098 32.5 0.0100098 32.62C0.25001 32.87 0.16001 33.12 0.0100098 33.37C0.0100098 34.16 0.0100098 34.95 0.0100098 35.74C0.41001 35.83 0.33001 36.2 0.38001 36.45ZM32.78 45.62C32.78 45.68 32.77 45.74 32.75 45.91C31.13 44.97 29.57 44.07 28.01 43.18C27.65 42.98 27.89 42.83 28 42.66C29.32 40.7 30.2 38.57 30.52 36.23C31.16 31.6 29.95 27.5 26.94 23.95C26.63 23.58 26.5 23.24 26.52 22.78C26.55 22.12 26.53 21.46 26.53 20.7C26.93 20.92 27.25 21.1 27.57 21.28C29.17 22.2 30.77 23.13 32.37 24.04C32.65 24.2 32.79 24.36 32.79 24.71C32.78 31.67 32.78 38.64 32.78 45.62ZM62.5 44.06C62.59 44.22 62.69 44.38 62.76 44.55C63.32 45.8 62.69 46.85 61.32 46.87C59.43 46.9 57.53 46.88 55.64 46.88C53.48 46.88 51.31 46.88 49.15 46.88C45.22 46.88 41.28 46.88 37.35 46.88C36.98 46.88 36.6 46.89 36.24 46.75C35.48 46.45 35.14 45.79 35.32 45C35.4 44.67 35.55 44.38 35.72 44.09C39.65 37.27 43.59 30.46 47.52 23.64C47.63 23.44 47.75 23.25 47.9 23.07C48.61 22.22 49.65 22.22 50.35 23.08C50.52 23.29 50.65 23.53 50.79 23.76C54.7 30.53 58.6 37.29 62.5 44.06ZM52.5 13.52C52.5 17.23 52.5 20.88 52.5 24.71C52.11 24.04 51.81 23.51 51.49 22.98C50.23 20.91 47.98 20.89 46.76 22.99C42.74 29.9 38.76 36.83 34.76 43.76C34.48 44.25 34.27 44.78 34.27 45.35C34.27 45.66 34.15 45.81 33.78 45.86C33.78 45.65 33.78 45.46 33.78 45.26C33.78 38.45 33.78 31.65 33.77 24.84C33.77 24.47 33.85 24.25 34.19 24.05C40.22 20.58 46.25 17.11 52.27 13.63C52.33 13.59 52.38 13.57 52.5 13.52ZM46.26 9.24C48.15 10.37 50.06 11.45 52.04 12.59C50.87 13.27 49.74 13.92 48.61 14.57C43.66 17.43 38.71 20.28 33.77 23.14C33.43 23.34 33.18 23.37 32.82 23.15C30.93 22.03 29.01 20.94 27.04 19.8C29.83 18.19 32.53 16.63 35.22 15.07C38.58 13.13 41.95 11.19 45.31 9.24C45.65 9.06 45.9 9.02 46.26 9.24ZM41.48 6.48C42.54 7.13 43.63 7.73 44.8 8.41C38.62 11.98 32.53 15.51 26.42 19C25.75 19.38 25.43 19.79 25.52 20.56C25.59 21.15 25.53 21.75 25.53 22.46C24.34 21.49 23.17 20.68 21.87 20.08C21.72 20.01 21.66 19.9 21.67 19.73C21.68 19.52 21.71 19.31 21.67 19.11C21.42 17.76 22 17.04 23.2 16.38C28.98 13.15 34.7 9.8 40.42 6.48C40.82 6.24 41.1 6.25 41.48 6.48ZM32.97 1.95C33.22 1.8 33.4 1.83 33.64 1.96C35.7 3.16 37.77 4.35 39.84 5.54C39.79 5.77 39.58 5.79 39.43 5.88C33.5 9.31 27.57 12.73 21.64 16.16C21.32 16.35 21.09 16.38 20.75 16.18C18.71 14.98 16.66 13.81 14.54 12.59C20.75 9.01 26.87 5.49 32.97 1.95ZM14.03 13.56C14.28 13.52 14.41 13.67 14.57 13.76C16.46 14.84 18.34 15.94 20.24 17.02C20.57 17.21 20.72 17.42 20.69 17.8C20.66 18.23 20.67 18.67 20.69 19.11C20.7 19.43 20.66 19.56 20.28 19.43C18.41 18.78 16.48 18.54 14.51 18.64C14.24 18.65 14.03 18.69 14.04 18.29C14.04 16.72 14.03 15.14 14.03 13.56ZM15.46 19.63C23.32 19.68 29.74 26.15 29.71 34C29.67 41.91 23.22 48.34 15.34 48.32C7.38001 48.3 0.96001 41.81 1.01001 33.84C1.06001 25.96 7.55001 19.58 15.46 19.63Z" fill="white"/>
<path d="M0.0100098 32.63C0.0100098 32.88 0.0100098 33.13 0.0100098 33.38C0.11001 33.13 0.11001 32.88 0.0100098 32.63Z" fill="white"/>
<path d="M15.3 45.65C21.78 45.68 27.01 40.49 27.05 34.01C27.09 27.59 21.86 22.3 15.45 22.26C8.99001 22.23 3.69001 27.45 3.65001 33.89C3.61001 40.34 8.84001 45.63 15.3 45.65ZM15.55 43.86C15.55 43.98 15.53 44.13 15.36 44.12C15.2 44.12 15.15 43.99 15.15 43.86C15.15 43.09 15.15 42.32 15.15 41.55C15.15 41.41 15.22 41.29 15.36 41.28C15.52 41.27 15.55 41.42 15.55 41.54C15.56 41.93 15.55 42.33 15.55 42.73C15.55 43.11 15.55 43.48 15.55 43.86ZM15.34 23.81C15.54 23.8 15.54 23.98 15.54 24.13C15.55 24.5 15.54 24.88 15.54 25.25C15.54 25.62 15.54 26 15.54 26.37C15.54 26.49 15.52 26.64 15.35 26.64C15.2 26.64 15.14 26.52 15.14 26.39C15.14 25.62 15.14 24.85 15.14 24.09C15.15 23.94 15.22 23.81 15.34 23.81ZM5.46001 34.16C5.32001 34.16 5.19001 34.11 5.20001 33.96C5.21001 33.83 5.32001 33.76 5.47001 33.76C6.24001 33.76 7.00001 33.76 7.77001 33.76C7.91001 33.76 8.02001 33.82 8.02001 33.97C8.02001 34.14 7.88001 34.15 7.75001 34.15C7.36001 34.16 6.96001 34.15 6.57001 34.15C6.20001 34.16 5.83001 34.16 5.46001 34.16ZM8.06001 35.12C8.65001 35.09 9.05001 34.55 9.04001 33.95C9.03001 33.34 8.60001 32.81 7.96001 32.79C6.91001 32.76 5.85001 32.69 4.80001 32.85C4.91001 28.32 9.28001 23.64 14.24 23.39C14.07 24.4 14.15 25.41 14.16 26.42C14.17 27.18 14.68 27.66 15.37 27.65C16.06 27.64 16.54 27.16 16.54 26.39C16.54 25.4 16.63 24.4 16.45 23.37C21.51 23.72 25.7 28.2 25.95 32.87C24.88 32.66 23.81 32.76 22.74 32.78C22.12 32.8 21.66 33.37 21.66 33.96C21.66 34.58 22.14 35.12 22.8 35.13C23.85 35.15 24.9 35.21 25.95 35.08C25.71 39.73 21.49 44.22 16.46 44.56C16.63 43.47 16.57 42.38 16.52 41.29C16.49 40.7 15.95 40.27 15.38 40.27C14.81 40.26 14.24 40.68 14.21 41.27C14.14 42.36 14.07 43.46 14.28 44.55C9.41001 44.32 4.99001 39.78 4.81001 35.07C5.88001 35.23 6.97001 35.18 8.06001 35.12ZM25.51 33.96C25.52 34.13 25.37 34.15 25.25 34.15C24.48 34.15 23.71 34.15 22.95 34.15C22.82 34.15 22.68 34.12 22.68 33.96C22.69 33.83 22.8 33.76 22.94 33.76C23.33 33.76 23.73 33.76 24.12 33.76C24.49 33.76 24.87 33.76 25.24 33.76C25.38 33.76 25.5 33.81 25.51 33.96Z" fill="white"/>
<path d="M48.12 23.9C48.07 23.99 48.02 24.08 47.97 24.17C45.11 29.12 42.25 34.06 39.4 39.01C38.38 40.77 37.37 42.54 36.35 44.3C35.53 45.73 35.83 46.25 37.5 46.25C37.6 46.25 37.71 46.25 37.81 46.25C41.56 46.25 45.31 46.25 49.05 46.25C53.03 46.25 57 46.25 60.98 46.25C62.34 46.25 62.69 45.66 62.01 44.48C58.06 37.62 54.1 30.77 50.14 23.92C49.48 22.78 48.8 22.78 48.12 23.9ZM36.96 45.23C41.02 38.2 45.04 31.23 49.13 24.15C53.2 31.2 57.23 38.18 61.3 45.23C53.14 45.23 45.09 45.23 36.96 45.23Z" fill="white"/>
<path d="M16.25 35.48C16.56 35.28 16.85 35.24 17.18 35.25C17.51 35.25 17.85 35.26 18.18 35.25C18.92 35.21 19.46 34.67 19.47 33.98C19.48 33.32 18.98 32.81 18.27 32.7C17.73 32.61 16.97 32.97 16.7 32.52C16.44 32.09 16.64 31.39 16.64 30.81C16.64 30.39 16.64 29.98 16.64 29.56C16.63 28.65 16.16 28.11 15.38 28.1C14.6 28.09 14.11 28.63 14.09 29.53C14.08 30.42 14.08 31.32 14.09 32.21C14.09 32.51 14.04 32.76 13.87 33.03C13.42 33.75 13.53 34.63 14.09 35.21C14.67 35.8 15.54 35.94 16.25 35.48ZM17.74 33.68C18.01 33.66 18.45 33.56 18.44 33.97C18.43 34.44 17.95 34.18 17.67 34.27C17.52 34.14 17.15 34.48 17.13 34.01C17.1 33.46 17.51 33.7 17.74 33.68ZM15.08 29.5C15.08 29.32 15.09 29.1 15.36 29.12C15.62 29.14 15.63 29.33 15.63 29.53C15.63 29.9 15.63 30.28 15.63 30.65C15.63 31.04 15.64 31.44 15.63 31.83C15.63 32 15.71 32.21 15.38 32.21C15.11 32.21 15.07 32.09 15.07 31.87C15.08 31.07 15.08 30.29 15.08 29.5ZM15.34 33.19C15.77 33.18 16.13 33.53 16.13 33.97C16.13 34.41 15.77 34.77 15.34 34.74C14.89 34.71 14.62 34.46 14.59 34C14.56 33.55 14.9 33.2 15.34 33.19Z" fill="white"/>
<path d="M47.49 30.15C47.48 32.63 47.48 35.1 47.49 37.58C47.49 38.67 48.14 39.39 49.11 39.4C50.09 39.41 50.75 38.71 50.76 37.62C50.77 36.37 50.76 35.12 50.76 33.88C50.76 32.64 50.77 31.38 50.76 30.14C50.75 29.05 50.09 28.35 49.11 28.35C48.14 28.35 47.49 29.07 47.49 30.15ZM49.76 30.19C49.75 31.44 49.76 32.69 49.76 33.94C49.76 35.15 49.76 36.35 49.76 37.56C49.76 38 49.67 38.38 49.15 38.39C48.59 38.4 48.48 38.02 48.48 37.55C48.49 35.09 48.49 32.64 48.48 30.18C48.48 29.74 48.58 29.37 49.1 29.35C49.66 29.34 49.77 29.72 49.76 30.19Z" fill="white"/>
<path d="M49.72 40.38C48.85 40.04 47.85 40.46 47.61 41.36C47.25 42.68 47.52 43.73 48.56 44.12C49.75 44.57 50.76 43.71 50.76 42.25C50.76 41.24 50.44 40.66 49.72 40.38ZM49.23 43.22C48.96 43.28 48.71 43.16 48.61 42.92C48.41 42.48 48.41 42 48.62 41.56C48.73 41.32 48.98 41.21 49.25 41.28C49.77 41.41 49.81 41.82 49.77 42.23C49.79 42.69 49.75 43.1 49.23 43.22Z" fill="white"/>
</svg>
