<svg width="62" height="62" viewBox="0 0 62 62" fill="none" xmlns="http://www.w3.org/2000/svg">
<path d="M60.11 58.87C58.25 53.63 57.59 48.17 57.13 42.67C57.08 42.08 56.98 41.88 56.33 41.88C47.67 41.91 39.01 41.9 30.36 41.9C29.59 41.9 29.58 41.9 29.65 42.67C29.92 45.9 30.28 49.13 30.91 52.31C31.46 55.14 32.13 57.95 33.37 60.58C33.55 60.97 33.77 61.11 34.21 61.11C40.35 61.09 46.49 61.1 52.63 61.1C55.42 61.1 58.21 61.1 61.06 61.1C60.72 60.32 60.38 59.61 60.11 58.87ZM47.22 51.98C48.17 52.85 49.06 53.78 49.96 54.71C50.5 55.27 50.43 56.01 49.82 56.35C49.33 56.63 48.9 56.49 48.53 56.11C47.59 55.17 46.63 54.24 45.72 53.28C45.43 52.97 45.27 53.01 45 53.29C44.11 54.22 43.19 55.12 42.27 56.03C41.71 56.59 41.13 56.64 40.69 56.2C40.24 55.76 40.29 55.17 40.84 54.62C41.75 53.7 42.65 52.78 43.58 51.89C43.91 51.58 43.87 51.41 43.57 51.12C42.64 50.23 41.74 49.31 40.83 48.39C40.3 47.85 40.25 47.3 40.67 46.86C41.11 46.39 41.69 46.43 42.25 46.98C43.18 47.9 44.12 48.82 45.03 49.76C45.29 50.03 45.43 50.06 45.71 49.77C46.65 48.8 47.61 47.85 48.57 46.9C48.91 46.56 49.31 46.43 49.76 46.64C50.14 46.81 50.3 47.13 50.35 47.52C50.33 47.88 50.16 48.16 49.92 48.4C49.03 49.28 48.17 50.18 47.26 51.04C46.87 51.38 46.79 51.58 47.22 51.98Z" fill="#3247D5"/>
<path d="M29.87 34.66C30.26 34.6 30.67 34.59 31.05 34.64C31.7 34.73 31.91 34.52 31.98 33.85C32.05 33.2 31.88 33.12 31.3 33.12C22.22 33.14 13.14 33.13 4.06002 33.14C3.54002 33.14 3.41002 33.01 3.41002 32.49C3.43002 26.6 3.42002 20.7 3.42002 14.81C3.42002 13.88 3.44002 13.85 4.35002 13.85C6.62002 13.85 8.89002 13.85 11.16 13.85C11.4 13.85 11.64 13.9 11.83 13.63C12.37 12.87 12.94 12.14 13.58 11.3C10.35 11.3 7.25002 11.29 4.15002 11.3C2.15002 11.31 0.900024 12.58 0.900024 14.6C0.900024 21.37 0.900024 28.14 0.900024 34.9C0.900024 36.99 2.15002 38.23 4.24002 38.23C7.45002 38.23 10.65 38.24 13.86 38.22C14.34 38.22 14.44 38.35 14.43 38.81C14.4 40.02 14.4 41.23 14.43 42.43C14.44 42.89 14.36 43.08 13.83 43.07C12.37 43.04 10.91 43.03 9.46002 43.1C8.03003 43.17 7.24002 44.09 7.24002 45.5C7.24002 45.85 7.27002 46.21 7.23002 46.56C7.17002 47.09 7.37002 47.2 7.88002 47.2C14.4 47.18 20.92 47.19 27.43 47.19C27.53 47.19 27.64 47.18 27.74 47.19C28 47.21 28.11 47.14 28.07 46.84C27.94 45.72 27.82 44.61 27.73 43.49C27.7 43.14 27.55 43.01 27.22 43.06C26.92 43.1 26.83 42.96 26.83 42.67C26.84 41.32 26.83 39.96 26.84 38.61C26.84 38.46 26.77 38.21 27.04 38.25C27.75 38.36 27.61 37.88 27.61 37.48C27.61 35.95 28.47 34.87 29.87 34.66Z" fill="#3247D5"/>
<path d="M16.82 10.67C15.03 12.7 13.22 14.72 12.03 17.18C10.88 19.55 10.83 21.98 12.14 24.3C13.92 27.45 16.79 28.78 20 28.96C21.35 28.97 22.41 28.89 23.44 28.62C28.87 27.16 32.04 21.52 28.61 16.06C27.41 14.15 25.98 12.43 24.48 10.75C24.29 10.54 24.17 10.5 23.93 10.68C23.43 11.05 22.85 11.17 22.23 11.17C21.17 11.16 20.11 11.16 19.05 11.17C18.41 11.18 17.81 11.05 17.29 10.67C17.11 10.53 17 10.46 16.82 10.67ZM19.59 14.41C19.72 14.02 19.89 13.81 20.33 13.89C20.51 13.92 20.71 13.92 20.89 13.89C21.31 13.83 21.52 13.98 21.65 14.4C21.86 15.08 23.24 15.64 23.88 15.31C24.23 15.13 24.48 15.15 24.73 15.47C24.87 15.65 25.03 15.82 25.21 15.95C25.5 16.17 25.5 16.38 25.35 16.7C25 17.45 25.52 18.77 26.29 19.01C26.94 19.2 26.67 19.68 26.72 20.05C26.9 20.67 26.64 21 26.05 21.12C25.79 21.17 25.68 21.33 25.61 21.58C25.54 21.84 25.45 22.1 25.31 22.33C25.1 22.65 25.09 22.94 25.29 23.25C25.52 23.59 25.49 23.85 25.16 24.15C24.67 24.6 24.3 25.16 23.51 24.58C23.22 24.36 22.93 24.81 22.61 24.87C22.03 24.97 21.63 25.27 21.52 25.88C21.48 26.13 21.31 26.15 21.11 26.14C20.88 26.13 20.65 26.11 20.42 26.14C19.93 26.21 19.63 26.06 19.54 25.55C19.48 25.23 19.28 25.09 18.96 24.99C18.32 24.79 17.72 24.27 17.01 24.85C16.87 24.96 16.74 24.82 16.64 24.72C16.45 24.53 16.28 24.31 16.06 24.15C15.71 23.89 15.65 23.6 15.9 23.25C16.14 22.92 16.04 22.63 15.88 22.28C15.61 21.68 15.46 21.01 14.66 20.9C14.46 20.87 14.48 20.71 14.48 20.57C14.48 20.28 14.51 19.98 14.47 19.7C14.42 19.29 14.58 19.08 14.96 19.01C15.34 18.93 15.51 18.69 15.65 18.32C15.88 17.68 16.28 17.1 15.75 16.43C15.64 16.29 15.8 16.17 15.9 16.07C16.08 15.89 16.27 15.73 16.43 15.54C16.7 15.21 16.95 15.12 17.37 15.34C17.99 15.64 19.38 15.05 19.59 14.41Z" fill="#3247D5"/>
<path d="M30.25 39.91C38.81 39.89 47.37 39.9 55.92 39.9C56.11 39.9 56.3 39.88 56.48 39.9C56.92 39.96 57.12 39.84 57.08 39.34C57.03 38.78 57.07 38.22 57.07 37.65C57.07 36.8 56.9 36.64 56.04 36.64C55.08 36.64 54.11 36.64 53.13 36.64C53.51 34.75 53.32 32.98 52.62 31.75C52.21 31.03 51.66 30.49 50.76 30.49C49.86 30.49 49.3 31.04 48.9 31.76C48.38 32.71 48.18 33.75 48.21 34.83C48.22 35.4 48.59 35.79 49.12 35.84C49.62 35.89 50.08 35.53 50.18 34.98C50.23 34.74 50.21 34.48 50.23 34.23C50.3 33.66 50.37 33.09 50.79 32.57C51.39 33.77 51.42 34.94 51.17 36.16C51.09 36.53 50.94 36.66 50.54 36.65C49.12 36.62 47.71 36.62 46.29 36.65C45.79 36.66 45.68 36.56 45.77 36.04C46.02 34.6 45.9 33.17 45.22 31.85C44.82 31.07 44.26 30.48 43.3 30.49C42.34 30.5 41.79 31.11 41.39 31.88C40.95 32.72 40.78 33.64 40.75 34.59C40.72 35.34 41.13 35.84 41.74 35.84C42.34 35.85 42.7 35.41 42.75 34.66C42.8 33.95 42.87 33.25 43.28 32.63C43.34 32.68 43.41 32.7 43.43 32.75C43.99 33.94 43.98 35.16 43.65 36.4C43.57 36.7 43.36 36.64 43.16 36.64C41.89 36.64 40.62 36.62 39.35 36.65C38.89 36.66 38.81 36.55 38.89 36.1C39.15 34.55 39.05 33.02 38.23 31.63C37.32 30.08 35.61 30.08 34.67 31.61C34.12 32.5 33.94 33.5 33.88 34.53C33.84 35.3 34.2 35.79 34.82 35.84C35.43 35.88 35.83 35.43 35.88 34.66C35.93 33.96 35.99 33.25 36.4 32.66C36.56 32.7 36.6 32.83 36.65 32.94C37.07 33.96 37.06 35 36.87 36.07C36.79 36.51 36.64 36.68 36.15 36.67C34.26 36.64 32.36 36.65 30.47 36.66C29.77 36.66 29.59 36.84 29.59 37.55C29.59 38.13 29.63 38.72 29.58 39.3C29.54 39.82 29.75 39.91 30.25 39.91ZM51.66 37.32C52.21 37.31 52.65 37.74 52.67 38.28C52.69 38.83 52.27 39.28 51.72 39.3C51.15 39.33 50.68 38.88 50.68 38.31C50.68 37.76 51.12 37.33 51.66 37.32ZM44.32 37.32C44.86 37.31 45.32 37.75 45.34 38.28C45.36 38.81 44.92 39.27 44.38 39.3C43.83 39.33 43.38 38.92 43.35 38.37C43.32 37.79 43.75 37.32 44.32 37.32ZM37.17 37.32C37.71 37.34 38.14 37.8 38.12 38.34C38.11 38.88 37.66 39.31 37.11 39.3C36.57 39.29 36.12 38.84 36.12 38.31C36.13 37.75 36.61 37.3 37.17 37.32Z" fill="#3247D5"/>
<path d="M30.0801 13.87C32.3301 13.85 34.5801 13.86 36.8301 13.86C37.8101 13.86 37.8101 13.87 37.8101 14.82C37.8101 18.96 37.8301 23.11 37.7901 27.25C37.7801 28.15 37.8101 28.87 38.7901 29.29C39.3301 29.53 39.6701 30.09 39.9901 30.62C40.0901 30.78 40.1201 31 40.3501 31.12C40.3501 25.47 40.3701 19.85 40.3401 14.23C40.3301 12.63 39.0801 11.36 37.4801 11.33C34.2601 11.27 31.0301 11.31 27.6801 11.31C28.2601 12.08 28.7801 12.75 29.2701 13.44C29.4801 13.75 29.7101 13.87 30.0801 13.87Z" fill="#3247D5"/>
<path d="M17.44 5.79001C17.52 5.88001 17.61 5.85001 17.72 5.82001C19.41 5.32001 21.16 5.44001 22.85 5.68001C23.68 5.80001 24.1 5.59001 24.55 5.06001C24.6 5.00001 24.67 4.94001 24.73 4.88001C25.39 4.20001 25.51 3.49001 25.08 2.87001C24.65 2.26001 24 2.13001 23.14 2.48001C22.6 2.70001 22.21 2.58001 22.04 2.05001C21.8 1.33001 21.36 0.890008 20.6 0.900008C19.87 0.910008 19.44 1.34001 19.22 2.04001C19.05 2.57001 18.65 2.71001 18.13 2.48001C17.88 2.37001 17.64 2.24001 17.36 2.26001C16.29 2.25001 15.58 3.39001 16.1 4.33001C16.42 4.92001 16.99 5.30001 17.44 5.79001Z" fill="#3247D5"/>
<path d="M20.5801 9.14001C21.1601 9.14001 21.7401 9.15001 22.3201 9.14001C22.8101 9.13001 23.1201 8.9 23.1401 8.4C23.1701 7.9 22.8801 7.6 22.4001 7.59C21.2201 7.56 20.0301 7.56 18.8501 7.59C18.3701 7.6 18.0701 7.89001 18.0901 8.39001C18.1101 8.88001 18.4101 9.14 18.9001 9.15C19.4601 9.15 20.0201 9.14001 20.5801 9.14001Z" fill="#3247D5"/>
<path d="M29.61 60.61C29.61 61.03 29.8 61.31 30.21 61.33C30.86 61.36 31.51 61.34 32.21 61.34C31.18 59.62 30.2 57.97 29.61 56.12C29.61 57.62 29.61 59.12 29.61 60.61Z" fill="#3247D5"/>
<path d="M20.62 22.89C22.23 22.89 23.51 21.6 23.5 20C23.49 18.4 22.19 17.12 20.59 17.13C19.02 17.14 17.75 18.42 17.74 19.99C17.74 21.61 19.01 22.89 20.62 22.89Z" fill="#3247D5"/>
</svg>
