<svg width="46" height="50" viewBox="0 0 46 50" fill="none" xmlns="http://www.w3.org/2000/svg">
<path d="M41.75 4.5H36.125V2.625C36.125 2.12772 35.9275 1.65081 35.5758 1.29917C35.2242 0.947544 34.7473 0.75 34.25 0.75C33.7527 0.75 33.2758 0.947544 32.9242 1.29917C32.5725 1.65081 32.375 2.12772 32.375 2.625V4.5H13.625V2.625C13.625 2.12772 13.4275 1.65081 13.0758 1.29917C12.7242 0.947544 12.2473 0.75 11.75 0.75C11.2527 0.75 10.7758 0.947544 10.4242 1.29917C10.0725 1.65081 9.875 2.12772 9.875 2.625V4.5H4.25C3.25544 4.5 2.30161 4.89509 1.59835 5.59835C0.895088 6.30161 0.5 7.25544 0.5 8.25V45.75C0.5 46.7446 0.895088 47.6984 1.59835 48.4016C2.30161 49.1049 3.25544 49.5 4.25 49.5H41.75C42.7446 49.5 43.6984 49.1049 44.4016 48.4016C45.1049 47.6984 45.5 46.7446 45.5 45.75V8.25C45.5 7.25544 45.1049 6.30161 44.4016 5.59835C43.6984 4.89509 42.7446 4.5 41.75 4.5ZM29.9516 36.9234C30.1258 37.0976 30.264 37.3045 30.3582 37.5321C30.4525 37.7597 30.501 38.0036 30.501 38.25C30.501 38.4964 30.4525 38.7403 30.3582 38.9679C30.264 39.1955 30.1258 39.4024 29.9516 39.5766C29.7774 39.7508 29.5705 39.889 29.3429 39.9832C29.1153 40.0775 28.8714 40.126 28.625 40.126C28.3786 40.126 28.1347 40.0775 27.9071 39.9832C27.6795 39.889 27.4726 39.7508 27.2984 39.5766L23 35.2758L18.7016 39.5766C18.5274 39.7508 18.3205 39.889 18.0929 39.9832C17.8653 40.0775 17.6214 40.126 17.375 40.126C17.1286 40.126 16.8847 40.0775 16.6571 39.9832C16.4295 39.889 16.2226 39.7508 16.0484 39.5766C15.8742 39.4024 15.736 39.1955 15.6418 38.9679C15.5475 38.7403 15.499 38.4964 15.499 38.25C15.499 38.0036 15.5475 37.7597 15.6418 37.5321C15.736 37.3045 15.8742 37.0976 16.0484 36.9234L20.3492 32.625L16.0484 28.3266C15.6966 27.9747 15.499 27.4976 15.499 27C15.499 26.5024 15.6966 26.0253 16.0484 25.6734C16.4003 25.3216 16.8774 25.124 17.375 25.124C17.8726 25.124 18.3497 25.3216 18.7016 25.6734L23 29.9742L27.2984 25.6734C27.4726 25.4992 27.6795 25.361 27.9071 25.2668C28.1347 25.1725 28.3786 25.124 28.625 25.124C28.8714 25.124 29.1153 25.1725 29.3429 25.2668C29.5705 25.361 29.7774 25.4992 29.9516 25.6734C30.1258 25.8476 30.264 26.0545 30.3582 26.2821C30.4525 26.5097 30.501 26.7536 30.501 27C30.501 27.2464 30.4525 27.4903 30.3582 27.7179C30.264 27.9455 30.1258 28.1524 29.9516 28.3266L25.6508 32.625L29.9516 36.9234ZM41.75 15.75H4.25V8.25H9.875V10.125C9.875 10.6223 10.0725 11.0992 10.4242 11.4508C10.7758 11.8025 11.2527 12 11.75 12C12.2473 12 12.7242 11.8025 13.0758 11.4508C13.4275 11.0992 13.625 10.6223 13.625 10.125V8.25H32.375V10.125C32.375 10.6223 32.5725 11.0992 32.9242 11.4508C33.2758 11.8025 33.7527 12 34.25 12C34.7473 12 35.2242 11.8025 35.5758 11.4508C35.9275 11.0992 36.125 10.6223 36.125 10.125V8.25H41.75V15.75Z" fill="white"/>
</svg>
