<svg width="64" height="60" viewBox="0 0 64 60" fill="none" xmlns="http://www.w3.org/2000/svg">
<path d="M62.12 26.32C59.28 23.51 56.46 20.67 53.63 17.85C53.34 17.56 53.22 17.28 53.23 16.87C53.24 13.39 53.25 9.92001 53.23 6.44001C53.22 4.68001 52.26 3.28001 50.75 2.78001C49.23 2.27001 47.62 2.77001 46.63 4.06001C46.07 4.79001 45.89 5.62001 45.89 6.52001C45.89 7.67001 45.89 8.82001 45.89 10.03C45.78 9.96001 45.74 9.94001 45.71 9.91001C43.46 7.66001 41.2 5.41001 38.95 3.16001C38.35 2.57001 37.72 2.02001 37 1.60001C33.08 -0.709991 28.33 -0.0999913 25.08 3.14001C17.35 10.87 9.62 18.6 1.88 26.32C1.06 27.14 0.3 27.97 0.0100002 29.12C0.0100002 29.54 0.0100002 29.95 0.0100002 30.37C0.34 31.37 0.82 32.28 1.76 32.84C3.33 33.78 5.07 33.5 6.51 32.06C14.37 24.2 22.23 16.34 30.1 8.48001C31.46 7.12001 32.54 7.12001 33.89 8.48001C41.71 16.3 49.52 24.11 57.34 31.93C57.58 32.17 57.81 32.41 58.08 32.6C59.27 33.48 60.55 33.62 61.9 33.01C63.05 32.49 63.61 31.5 63.99 30.37C63.99 29.95 63.99 29.54 63.99 29.12C63.7 27.97 62.94 27.14 62.12 26.32Z" fill="black"/>
<path d="M33.49 15.25C32.48 14.24 31.53 14.24 30.52 15.25C23.55 22.21 16.59 29.18 9.62 36.13C9.1 36.65 8.87 37.23 8.88 37.97C8.9 40.53 8.89 43.09 8.89 45.65C8.89 48.15 8.89 50.65 8.89 53.15C8.89 53.21 8.89 53.27 8.89 53.34C8.96 56.75 11.74 59.66 15.14 59.74C18.57 59.82 22.01 59.76 25.45 59.79C25.95 59.79 26.06 59.65 26.05 59.17C26.03 54.13 26.05 49.09 26.03 44.05C26.03 43.57 26.13 43.42 26.64 43.42C30.2 43.44 33.76 43.45 37.32 43.42C37.89 43.42 38 43.58 37.99 44.12C37.97 49.16 37.98 54.2 37.97 59.24C37.97 59.67 38.07 59.79 38.51 59.79C41.78 59.77 45.05 59.79 48.32 59.78C52.31 59.76 55.13 56.9 55.13 52.91C55.14 47.93 55.12 42.96 55.14 37.98C55.14 37.24 54.92 36.66 54.39 36.14C47.41 29.18 40.45 22.22 33.49 15.25Z" fill="black"/>
</svg>
