<svg width="64" height="60" viewBox="0 0 64 60" fill="none" xmlns="http://www.w3.org/2000/svg">
<path d="M63.8 38.68C62.98 36.2 60.08 35.18 57.84 36.64C55.28 38.31 52.76 40.03 50.21 41.73C50.06 41.83 49.95 42 49.69 41.96C49.69 36.38 49.69 30.8 49.69 25.12C50.64 26.01 51.52 26.84 52.4 27.66C53.8 28.95 55.79 28.93 57.05 27.61C58.31 26.3 58.24 24.31 56.88 22.97C56.3 22.4 55.7 21.86 55.11 21.3C53.96 20.22 52.81 19.13 51.64 18.06C51.16 17.62 50.63 17.64 50.26 18.05C49.91 18.45 49.95 18.93 50.39 19.38C50.56 19.56 50.75 19.72 50.94 19.89C52.49 21.34 54.04 22.79 55.59 24.24C56.03 24.66 56.25 25.16 56.07 25.76C55.9 26.33 55.49 26.67 54.91 26.76C54.31 26.86 53.89 26.53 53.48 26.15C46.54 19.64 39.59 13.14 32.65 6.63001C31.96 5.98001 31.58 5.99001 30.89 6.63001C24.89 12.29 18.89 17.94 12.89 23.6C11.87 24.56 10.87 25.52 9.83 26.46C9.23 27 8.39 26.96 7.87 26.41C7.35 25.87 7.35 25.03 7.89 24.44C8.04 24.27 8.22 24.12 8.39 23.96C15.77 17.01 23.15 10.06 30.54 3.10001C31.46 2.23001 32.09 2.22001 33.01 3.09001C36.19 6.06001 39.36 9.04001 42.54 12.01C43.73 13.12 44.91 14.23 46.1 15.33C46.49 15.69 46.93 15.73 47.34 15.39C47.73 15.07 47.77 14.64 47.51 14.21C47.4 14.04 47.24 13.9 47.09 13.75C42.81 9.73001 38.52 5.72001 34.23 1.71001C32.65 0.23001 30.89 0.24001 29.3 1.73001C27.36 3.56001 25.42 5.39001 23.48 7.22001C23.09 7.58001 22.7 7.94001 22.23 8.38001C22.23 8.03001 22.23 7.81001 22.23 7.59001C22.22 6.23001 21.7 5.71001 20.33 5.71001C18.87 5.71001 17.41 5.71001 15.96 5.72001C14.58 5.72001 14.07 6.23001 14.07 7.60001C14.07 10.22 14.07 12.85 14.1 15.47C14.1 15.91 13.97 16.2 13.65 16.49C11.35 18.63 9.07 20.8 6.78 22.95C6.11 23.58 5.68 24.31 5.65 25.23C5.6 26.63 6.21 27.68 7.46 28.32C8.66 28.93 10.02 28.74 11.05 27.81C11.99 26.96 12.89 26.09 13.93 25.11C13.93 27.78 13.93 30.31 13.93 32.84C13.93 33.11 13.81 33.13 13.58 33.1C12.44 32.95 11.3 32.89 10.15 32.94C9.72 32.96 9.61 32.85 9.59 32.41C9.54 30.44 8.12 29.08 6.14 29.06C5.24 29.05 4.35 29.05 3.45 29.06C1.85 29.08 0.69 29.91 0.14 31.42C0.11 31.51 0.12 31.63 0 31.67C0 36.79 0 41.92 0 47.04C0.32 47.41 0.65 47.75 1.2 47.55C1.78 47.34 1.84 46.85 1.84 46.33C1.84 41.84 1.84 37.34 1.84 32.85C1.84 31.37 2.31 30.9 3.77 30.9C4.58 30.9 5.39 30.89 6.2 30.9C7.16 30.92 7.75 31.51 7.75 32.47C7.76 39.63 7.76 46.78 7.75 53.94C7.75 54.89 7.14 55.5 6.19 55.52C5.25 55.54 4.32 55.54 3.38 55.52C2.46 55.5 1.88 54.91 1.84 53.99C1.82 53.6 1.83 53.2 1.84 52.8C1.85 52.3 1.81 51.82 1.28 51.58C0.72 51.33 0.35 51.67 0 52.03C0 52.95 0 53.86 0 54.78C0.37 56.32 1.31 57.19 2.9 57.45C4.18 57.66 5.47 57.62 6.75 57.44C8.18 57.24 9.28 56.25 9.63 54.85C9.81 54.15 9.81 54.15 10.48 54.4C14.46 55.88 18.42 57.4 22.39 58.91C23.62 59.38 24.86 59.43 26.13 59.25C32.11 58.42 38.07 57.49 44.05 56.69C46.21 56.4 48.27 55.86 49.97 54.42C52.08 52.63 54.1 50.74 56.16 48.9C58.1 47.17 60.02 45.42 61.96 43.69C62.89 42.86 63.85 42.03 63.98 40.67C63.98 40.21 63.98 39.75 63.98 39.3C63.81 39.14 63.87 38.89 63.8 38.68ZM16.23 7.56001C17.5 7.57001 18.77 7.57001 20.04 7.56001C20.31 7.56001 20.4 7.63001 20.39 7.91001C20.37 8.55001 20.38 9.20001 20.39 9.85001C20.39 10.05 20.34 10.2 20.19 10.34C18.79 11.65 17.4 12.96 15.89 14.38C15.89 12.12 15.89 10.02 15.88 7.93001C15.88 7.66001 15.94 7.56001 16.23 7.56001ZM16.03 23.14C21.17 18.31 26.31 13.47 31.44 8.62001C31.73 8.35001 31.87 8.40001 32.13 8.64001C37.24 13.45 42.36 18.24 47.49 23.03C47.76 23.28 47.85 23.54 47.85 23.89C47.84 27.03 47.84 30.18 47.84 33.32C47.85 33.32 47.85 33.32 47.86 33.32C47.86 36.46 47.85 39.61 47.87 42.75C47.87 43.15 47.79 43.43 47.41 43.6C47.28 43.66 47.15 43.74 47.05 43.84C45.89 44.97 44.5 45.15 42.97 44.93C42.59 44.87 42.51 44.75 42.48 44.4C42.24 41.79 40.73 39.9 38.27 39.17C37.9 39.06 37.8 38.89 37.8 38.52C37.81 34.9 37.79 31.27 37.78 27.65C37.78 26.05 37.25 25.53 35.64 25.53C33.02 25.53 30.39 25.53 27.77 25.54C26.38 25.54 25.77 26.15 25.77 27.57C25.77 30.69 25.77 33.82 25.8 36.94C25.8 37.45 25.68 37.54 25.21 37.4C23.79 36.98 22.42 36.47 21.13 35.72C19.56 34.81 17.91 34.08 16.15 33.62C15.84 33.54 15.73 33.42 15.73 33.08C15.74 29.98 15.74 26.88 15.73 23.77C15.75 23.51 15.83 23.33 16.03 23.14ZM35.98 33.11C35.99 33.11 35.99 33.11 35.98 33.11C35.99 34.86 35.98 36.61 36 38.35C36.01 38.76 35.89 38.82 35.51 38.77C33.08 38.47 30.64 38.19 28.2 37.93C27.78 37.88 27.61 37.79 27.61 37.3C27.64 34.18 27.63 31.06 27.61 27.94C27.61 27.5 27.68 27.33 28.17 27.34C30.58 27.37 33 27.36 35.41 27.33C35.89 27.32 36 27.47 35.99 27.92C35.97 29.66 35.98 31.38 35.98 33.11ZM61.41 41.51C60.19 42.64 58.94 43.74 57.7 44.86C54.98 47.31 52.22 49.73 49.54 52.22C48 53.66 46.22 54.41 44.15 54.69C39.04 55.39 33.94 56.15 28.84 56.89C27.65 57.06 26.45 57.24 25.26 57.39C24.57 57.48 23.89 57.37 23.24 57.12C18.87 55.47 14.51 53.81 10.14 52.17C9.76 52.03 9.6 51.86 9.61 51.42C9.64 48.73 9.62 46.05 9.62 43.36C9.62 40.67 9.63 37.99 9.61 35.3C9.61 34.9 9.71 34.8 10.12 34.78C13.77 34.65 17.16 35.49 20.32 37.34C22.88 38.84 25.68 39.52 28.61 39.81C31.53 40.1 34.44 40.45 37.35 40.82C39.03 41.03 40.44 42.54 40.63 44.2C40.67 44.59 40.63 44.75 40.17 44.7C37.99 44.49 35.82 44.32 33.64 44.13C30.05 43.82 26.47 43.5 22.88 43.18C22.47 43.14 22.05 43.09 21.64 43.07C21.01 43.04 20.57 43.37 20.52 43.9C20.47 44.42 20.85 44.84 21.49 44.9C22.5 45 23.52 45.08 24.54 45.17C30.16 45.66 35.78 46.17 41.4 46.65C42.73 46.76 44.06 46.8 45.39 46.88C45.8 46.91 46.1 46.69 46.41 46.48C50.45 43.77 54.49 41.07 58.54 38.36C58.9 38.12 59.26 37.87 59.71 37.81C60.66 37.68 61.54 38.13 61.94 38.95C62.36 39.81 62.18 40.81 61.41 41.51Z" fill="white"/>
</svg>
