<svg width="46" height="46" viewBox="0 0 46 46" fill="none" xmlns="http://www.w3.org/2000/svg">
<path d="M3 25.5H18C18.663 25.5 19.2989 25.2366 19.7678 24.7678C20.2366 24.2989 20.5 23.663 20.5 23V3C20.5 2.33696 20.2366 1.70107 19.7678 1.23223C19.2989 0.763392 18.663 0.5 18 0.5H3C2.33696 0.5 1.70107 0.763392 1.23223 1.23223C0.763392 1.70107 0.5 2.33696 0.5 3V23C0.5 23.663 0.763392 24.2989 1.23223 24.7678C1.70107 25.2366 2.33696 25.5 3 25.5ZM0.5 43C0.5 43.663 0.763392 44.2989 1.23223 44.7678C1.70107 45.2366 2.33696 45.5 3 45.5H18C18.663 45.5 19.2989 45.2366 19.7678 44.7678C20.2366 44.2989 20.5 43.663 20.5 43V33C20.5 32.337 20.2366 31.7011 19.7678 31.2322C19.2989 30.7634 18.663 30.5 18 30.5H3C2.33696 30.5 1.70107 30.7634 1.23223 31.2322C0.763392 31.7011 0.5 32.337 0.5 33V43ZM25.5 43C25.5 43.663 25.7634 44.2989 26.2322 44.7678C26.7011 45.2366 27.337 45.5 28 45.5H43C43.663 45.5 44.2989 45.2366 44.7678 44.7678C45.2366 44.2989 45.5 43.663 45.5 43V25.5C45.5 24.837 45.2366 24.2011 44.7678 23.7322C44.2989 23.2634 43.663 23 43 23H28C27.337 23 26.7011 23.2634 26.2322 23.7322C25.7634 24.2011 25.5 24.837 25.5 25.5V43ZM28 18H43C43.663 18 44.2989 17.7366 44.7678 17.2678C45.2366 16.7989 45.5 16.163 45.5 15.5V3C45.5 2.33696 45.2366 1.70107 44.7678 1.23223C44.2989 0.763392 43.663 0.5 43 0.5H28C27.337 0.5 26.7011 0.763392 26.2322 1.23223C25.7634 1.70107 25.5 2.33696 25.5 3V15.5C25.5 16.163 25.7634 16.7989 26.2322 17.2678C26.7011 17.7366 27.337 18 28 18Z" fill="white"/>
</svg>
