<svg width="60" height="60" viewBox="0 0 60 60" fill="none" xmlns="http://www.w3.org/2000/svg">
<path fill-rule="evenodd" clip-rule="evenodd" d="M55 10V50H5V10H55ZM50 15H10V45H50V15ZM45 35V38.75H32.5V35H45ZM22.1875 28.25C25.8 28.25 28.75 31.25 28.75 35H13.75C13.75 31.25 16.6881 28.25 20.3125 28.25H22.1875ZM45 27.5V31.25H32.5V27.5H45ZM21.25 19.214C23.0622 19.214 24.5312 20.6831 24.5312 22.4953C24.5312 24.3074 23.0622 25.7765 21.25 25.7765C19.4378 25.7765 17.9687 24.3074 17.9687 22.4953C17.9687 20.6831 19.4378 19.214 21.25 19.214ZM45 20V23.75H32.5V20H45Z" fill="white"/>
</svg>
