<svg width="64" height="64" viewBox="0 0 64 64" fill="none" xmlns="http://www.w3.org/2000/svg">
<g clip-path="url(#clip0_1_1598)">
<path d="M40.1499 0.019989C39.8999 0.229989 39.6499 0.199989 39.3999 0.019989C39.6499 0.019989 39.8999 0.019989 40.1499 0.019989Z" fill="#1A1A1A"/>
<path d="M38.65 0.019989C38.46 0.199989 38.24 0.169989 38.01 0.129989C38.04 0.099989 38.04 0.059989 38.02 0.019989C38.23 0.019989 38.44 0.019989 38.65 0.019989Z" fill="#606060"/>
<path d="M63.2901 58.89C63.2801 57.84 62.8101 57.38 61.7501 57.38C60.2901 57.37 58.8401 57.35 57.3801 57.39C56.8401 57.4 56.6901 57.28 56.6901 56.71C56.7201 51.72 56.7101 46.73 56.7001 41.73C56.7001 40.53 56.2401 40.07 55.0501 40.07C52.9701 40.07 50.8901 40.07 48.8101 40.07C43.7101 40.07 38.6201 40.06 33.5201 40.08C33.1001 40.08 32.9401 39.99 32.9601 39.54C33.0001 38.86 32.9801 38.17 32.9701 37.48C32.9601 36.69 32.6301 36.28 32.0201 36.29C31.4301 36.3 31.1101 36.7 31.1001 37.46C31.0901 38.17 31.0801 38.88 31.1101 39.58C31.1201 39.94 31.0601 40.09 30.6401 40.09C25.1101 40.08 19.5701 40.08 14.0401 40.09C13.6801 40.09 13.5901 39.98 13.5901 39.63C13.6001 35.53 13.6001 31.43 13.5901 27.34C13.5901 27.01 13.6501 26.86 14.0301 26.87C15.4401 26.89 16.8601 26.89 18.2701 26.87C18.6601 26.86 18.7001 27.03 18.6901 27.35C18.6701 28.33 18.6801 29.31 18.6901 30.28C18.7001 31.28 19.1801 31.78 20.1801 31.79C21.6201 31.81 23.0501 31.8 24.4901 31.79C25.5301 31.78 26.0201 31.29 26.0301 30.26C26.0401 29.28 26.0501 28.3 26.0201 27.33C26.0101 26.98 26.1201 26.87 26.4701 26.88C27.8601 26.9 29.2601 26.9 30.6501 26.88C31.0001 26.88 31.1201 26.97 31.1101 27.33C31.0901 28.31 31.1001 29.29 31.1001 30.26C31.1001 31.13 31.1001 32.01 31.1101 32.88C31.1201 33.27 31.3001 33.57 31.6601 33.71C31.9801 33.84 32.3101 33.82 32.6001 33.59C32.9401 33.33 32.9701 32.96 32.9701 32.58C32.9701 30.67 32.9701 28.75 32.9701 26.84C32.9701 25.42 32.5601 25.01 31.1601 25.01C25.2901 25.01 19.4301 25.01 13.5601 25.01C12.1301 25.01 11.7101 25.43 11.7101 26.87C11.7101 31.05 11.7001 35.23 11.7301 39.41C11.7301 40.01 11.5501 40.14 11.0101 40.1C10.4101 40.06 9.80012 40.09 9.20012 40.09C7.74012 40.09 7.36012 40.48 7.36012 41.94C7.36012 46.87 7.35012 51.8 7.37012 56.73C7.37012 57.3 7.22012 57.42 6.68012 57.41C5.22012 57.37 3.77012 57.39 2.31012 57.4C1.25012 57.41 0.780118 57.86 0.770118 58.91C0.760118 60.01 0.800118 61.12 0.760118 62.22C0.730118 63.01 0.990119 63.58 1.70012 63.94C21.9201 63.94 42.1401 63.94 62.3601 63.94C63.0601 63.58 63.3301 63 63.3001 62.22C63.2601 61.1 63.3001 59.99 63.2901 58.89ZM20.9801 26.85C21.8901 26.87 22.8101 26.87 23.7201 26.85C24.0301 26.84 24.1701 26.91 24.1601 27.26C24.1401 28.01 24.1401 28.75 24.1601 29.5C24.1701 29.85 24.0201 29.92 23.7201 29.91C23.2601 29.89 22.8101 29.91 22.3501 29.91C21.8901 29.91 21.4401 29.89 20.9801 29.92C20.6701 29.94 20.5401 29.85 20.5501 29.51C20.5701 28.76 20.5801 28.02 20.5501 27.27C20.5401 26.91 20.6701 26.85 20.9801 26.85ZM44.2701 42.34C44.2601 41.99 44.4001 41.93 44.7101 41.94C45.1901 41.96 45.6601 41.95 46.1401 41.95C46.1401 41.96 46.1401 41.98 46.1401 41.99C46.7001 41.99 47.4501 41.77 47.7601 42.05C48.1301 42.37 47.8701 43.14 47.8701 43.71C47.8901 44.98 47.8801 44.98 46.5801 44.98C45.9601 44.98 45.3401 44.97 44.7201 44.98C44.4301 44.99 44.2701 44.95 44.2801 44.59C44.3001 43.83 44.3001 43.08 44.2701 42.34ZM20.2501 42.33C20.2401 42.04 20.3201 41.94 20.6301 41.94C21.7701 41.96 22.9101 41.96 24.0501 41.94C24.4101 41.93 24.4501 42.08 24.4401 42.38C24.4201 43.11 24.4201 43.83 24.4401 44.56C24.4501 44.88 24.3701 45 24.0301 44.98C23.4701 44.95 22.9101 44.97 22.3501 44.97C21.7901 44.97 21.2301 44.96 20.6701 44.98C20.3601 44.99 20.2301 44.92 20.2401 44.58C20.2801 43.82 20.2701 43.07 20.2501 42.33ZM9.84012 41.93C12.4801 41.95 15.1201 41.96 17.7601 41.93C18.3001 41.92 18.4201 42.09 18.3901 42.59C18.3501 43.5 18.3701 44.42 18.3801 45.33C18.3901 46.35 18.8601 46.82 19.8601 46.83C21.5001 46.84 23.1501 46.84 24.7901 46.83C25.8301 46.83 26.2901 46.36 26.3001 45.29C26.3101 44.31 26.3101 43.33 26.2901 42.36C26.2801 42.04 26.3701 41.93 26.7001 41.93C29.4901 41.94 32.2701 41.94 35.0601 41.93C35.3701 41.93 35.4401 42.03 35.4401 42.32C35.4301 47.19 35.4301 52.05 35.4501 56.92C35.4501 57.43 35.1701 57.37 34.8601 57.37C30.6801 57.37 26.5001 57.37 22.3201 57.37C18.1601 57.37 14.0001 57.36 9.84012 57.38C9.35012 57.38 9.21012 57.26 9.22012 56.76C9.24012 52.02 9.24012 47.28 9.22012 42.53C9.22012 42.05 9.35012 41.93 9.84012 41.93ZM61.4301 61.46C61.4801 61.98 61.2701 62.06 60.8101 62.05C51.2001 62.04 41.5901 62.04 31.9801 62.04C22.4101 62.04 12.8501 62.04 3.28012 62.05C2.78012 62.05 2.58012 61.97 2.63012 61.42C2.69012 60.84 2.66012 60.26 2.63012 59.67C2.61012 59.3 2.75012 59.19 3.10012 59.23C3.24012 59.25 3.39012 59.23 3.54012 59.23C18.0401 59.23 32.5301 59.23 47.0301 59.23C47.3001 59.23 47.5701 59.23 47.8401 59.18C48.3401 59.08 48.5801 58.73 48.5601 58.23C48.5401 57.76 48.2701 57.46 47.8001 57.38C47.6001 57.35 47.3901 57.36 47.1801 57.36C44.1001 57.36 41.0201 57.35 37.9501 57.37C37.4601 57.37 37.3301 57.24 37.3301 56.75C37.3501 52.01 37.3501 47.27 37.3301 42.53C37.3301 42.03 37.4601 41.91 37.9501 41.92C39.2601 41.95 40.5701 41.96 41.8801 41.92C42.3801 41.9 42.4501 42.08 42.4401 42.51C42.4101 43.44 42.4201 44.38 42.4301 45.32C42.4401 46.32 42.9301 46.82 43.9201 46.82C45.3801 46.83 46.8301 46.83 48.2901 46.82C49.2401 46.81 49.7501 46.31 49.7601 45.36C49.7701 44.38 49.7801 43.4 49.7601 42.43C49.7501 42.09 49.7901 41.91 50.2101 41.92C51.6001 41.95 53.0001 41.95 54.3901 41.92C54.8001 41.91 54.8601 42.07 54.8601 42.43C54.8501 47.23 54.8501 52.04 54.8601 56.84C54.8601 57.24 54.7701 57.39 54.3501 57.37C53.6401 57.34 52.9401 57.35 52.2301 57.36C51.5201 57.37 51.1301 57.69 51.1101 58.25C51.0901 58.84 51.4901 59.22 52.2201 59.23C55.0701 59.24 57.9201 59.25 60.7701 59.22C61.3001 59.21 61.5201 59.32 61.4601 59.89C61.3701 60.42 61.3801 60.95 61.4301 61.46Z" fill="white"/>
<path d="M36.73 16.24C37.27 16.41 37.4 16.63 37.4 17.18C37.38 22.5 37.38 27.83 37.39 33.15C37.39 34.32 37.84 34.8 38.99 34.8C45.71 34.81 52.43 34.81 59.15 34.8C60.32 34.8 60.77 34.34 60.78 33.17C60.78 31.13 60.78 29.09 60.78 27.06C60.78 26.35 60.78 25.65 60.77 24.94C60.76 24.55 60.56 24.26 60.2 24.13C59.85 24 59.5 24.04 59.21 24.32C58.93 24.59 58.91 24.94 58.91 25.3C58.91 27.67 58.9 30.04 58.92 32.41C58.92 32.8 58.84 32.94 58.41 32.94C52.19 32.93 45.97 32.93 39.75 32.94C39.37 32.94 39.26 32.85 39.26 32.46C39.27 27.34 39.27 22.23 39.26 17.11C39.26 16.78 39.33 16.65 39.7 16.63C41.73 16.55 43.49 15.77 44.96 14.38C45.2 14.15 45.44 14.11 45.74 14.11C48.38 14.12 51.02 14.11 53.67 14.11C54.5 14.11 54.93 13.77 54.92 13.15C54.91 12.54 54.51 12.24 53.7 12.24C52.16 12.24 50.62 12.24 49.08 12.24C48.28 12.24 47.49 12.24 46.62 12.24C47.3 10.89 47.64 9.54999 47.57 8.13999C47.54 7.61999 47.68 7.52999 48.16 7.52999C51.53 7.54999 54.9 7.54999 58.27 7.52999C58.78 7.52999 58.93 7.64999 58.93 8.16999C58.91 12.16 58.92 16.16 58.92 20.15C58.92 20.4 58.93 20.65 58.99 20.89C59.12 21.35 59.47 21.56 59.93 21.53C60.4 21.5 60.7 21.23 60.76 20.75C60.79 20.57 60.78 20.38 60.78 20.19C60.78 15.93 60.78 11.66 60.78 7.39999C60.78 6.09999 60.36 5.66999 59.07 5.66999C55.31 5.66999 51.54 5.65999 47.78 5.67999C47.32 5.67999 47.1 5.56999 46.91 5.11999C45.94 2.80999 44.23 1.25999 41.87 0.439989C41.35 0.259989 40.81 0.159989 40.28 0.019989C40.24 0.019989 40.2 0.019989 40.16 0.019989C39.91 0.119989 39.66 0.119989 39.41 0.019989C39.16 0.019989 38.91 0.019989 38.66 0.019989C38.46 0.169989 38.21 -1.09822e-05 38.01 0.129989C37.93 0.139989 37.84 0.139989 37.76 0.149989C34 0.819989 31.19 4.01999 30.94 7.91999C30.71 11.59 33.15 15.13 36.73 16.24ZM39.27 1.88999C42.83 1.88999 45.76 4.83999 45.71 8.36999C45.67 11.94 42.8 14.77 39.25 14.77C35.71 14.77 32.82 11.89 32.8 8.35999C32.79 4.81999 35.71 1.88999 39.27 1.88999Z" fill="white"/>
<path d="M54.9102 22.57C54.9102 21.98 54.5002 21.64 53.7602 21.64C50.6502 21.64 47.5302 21.64 44.4202 21.64C43.6702 21.64 43.2702 21.97 43.2602 22.56C43.2502 23.18 43.6502 23.51 44.4402 23.51C45.9802 23.52 47.5102 23.51 49.0502 23.51C50.6302 23.51 52.2102 23.52 53.7802 23.51C54.5302 23.51 54.9202 23.17 54.9102 22.57Z" fill="white"/>
<path d="M44.4502 18.82C47.5402 18.82 50.6402 18.82 53.7302 18.82C54.5102 18.82 54.9202 18.46 54.9102 17.85C54.9002 17.26 54.5102 16.95 53.7402 16.95C52.2002 16.95 50.6702 16.95 49.1302 16.95C47.4902 16.95 45.8502 16.94 44.2102 16.95C43.6602 16.95 43.3102 17.23 43.2502 17.8C43.2002 18.34 43.5402 18.72 44.1302 18.8C44.2402 18.82 44.3502 18.82 44.4502 18.82Z" fill="white"/>
<path d="M44.3602 26.35C43.6402 26.35 43.2302 26.72 43.2502 27.32C43.2702 27.89 43.6702 28.22 44.3602 28.22C45.3802 28.23 46.4002 28.22 47.4202 28.22C48.4402 28.22 49.4602 28.22 50.4802 28.22C51.1602 28.22 51.5802 27.87 51.6002 27.32C51.6202 26.75 51.1802 26.36 50.4702 26.35C48.4402 26.35 46.4002 26.35 44.3602 26.35Z" fill="white"/>
<path d="M38.0802 11.03C38.2802 11.23 38.5101 11.36 38.7901 11.36C39.1501 11.35 39.4001 11.14 39.6401 10.9C40.7901 9.74998 41.9302 8.60998 43.0802 7.45999C43.6102 6.91999 43.6701 6.34999 43.2301 5.93999C42.8101 5.53999 42.2901 5.59999 41.7601 6.12999C40.9201 6.95999 40.0701 7.78998 39.2601 8.64998C38.9201 9.00998 38.7101 9.08999 38.3501 8.66999C37.8201 8.05999 37.2201 7.49998 36.6401 6.93999C36.1901 6.50999 35.6401 6.50999 35.2601 6.89999C34.9001 7.26999 34.9001 7.81998 35.3101 8.23998C36.2201 9.18998 37.1502 10.1 38.0802 11.03Z" fill="white"/>
</g>
<defs>
<clipPath id="clip0_1_1598">
<rect width="64" height="64" fill="white"/>
</clipPath>
</defs>
</svg>
