<svg width="58" height="60" viewBox="0 0 58 60" fill="none" xmlns="http://www.w3.org/2000/svg">
<path d="M36.61 42C31.28 42 25.95 41.99 20.62 42.01C20.08 42.01 19.99 41.86 19.99 41.36C20.01 36.7 20 32.03 20 27.37C20 26.31 19.69 26 18.62 26C12.87 26 7.13 26 1.38 26C0.31 26 0 26.31 0 27.37C0 37.78 0 48.19 0 58.6C0 59.7 0.3 59.99 1.41 59.99C7.26 59.99 13.11 59.99 18.96 59.99C24.83 59.99 30.7 59.99 36.57 59.99C37.68 59.99 37.98 59.69 37.98 58.59C37.98 53.53 37.98 48.47 37.98 43.41C38 42.3 37.7 42 36.61 42ZM8 28.42C8 28.12 8.05 27.98 8.4 27.99C9.46 28.02 10.52 28.02 11.58 27.99C11.96 27.98 12.02 28.13 12.01 28.46C11.99 28.98 12 29.5 12 30.02C12 30.54 11.99 31.06 12.01 31.58C12.02 31.88 11.96 32.02 11.61 32.01C10.55 31.98 9.49 31.99 8.43 32.01C8.13 32.01 7.99 31.96 8 31.61C8.03 30.54 8.02 29.48 8 28.42ZM17.49 58C14.99 57.98 12.49 57.99 9.99 57.99C7.53 57.99 5.08 57.98 2.62 58C2.17 58 1.99 57.94 2 57.41C2.03 53.12 2.02 48.83 2 44.54C2 44.04 2.15 43.97 2.59 43.98C3.53 44.01 4.47 44.03 5.4 43.98C5.95 43.95 6.04 44.14 6.02 44.64C5.98 45.99 6.01 47.35 6.01 48.7C6.01 49.65 6.35 49.99 7.27 49.99C9.1 49.99 10.94 49.99 12.77 49.99C13.66 49.99 14 49.63 14.01 48.73C14.01 47.31 14.02 45.9 14 44.48C14 44.13 14.03 43.96 14.46 43.98C15.5 44.02 16.54 44.01 17.58 43.98C17.95 43.97 18.01 44.1 18.01 44.44C18 48.79 18 53.14 18.01 57.5C18.02 57.93 17.88 58 17.49 58ZM11.88 47.9C11.53 48.21 10.69 48 10.07 47.99C9.39 47.97 8.48 48.29 8.1 47.86C7.77 47.49 8.03 46.59 8.03 45.93C8.06 45.29 7.72 44.44 8.13 44.08C8.49 43.77 9.32 43.98 9.94 43.99C10.62 44.01 11.53 43.69 11.91 44.12C12.24 44.49 12.02 45.39 12 46.05C11.99 46.69 12.28 47.54 11.88 47.9ZM17.5 42C15 41.99 12.5 42 10 42C7.5 42 5 41.99 2.5 42.01C2.1 42.01 2 41.89 2 41.49C2.01 37.16 2.02 32.83 2 28.5C2 28.09 2.11 27.98 2.51 27.99C3.53 28.02 4.55 28.02 5.57 27.99C5.93 27.98 6.02 28.1 6.01 28.44C6 29.88 6.01 31.32 6.01 32.75C6.01 33.64 6.36 33.99 7.26 33.99C9.09 33.99 10.93 33.99 12.76 33.99C13.65 33.99 14 33.64 14.01 32.74C14.01 31.3 14.02 29.87 14 28.43C14 28.08 14.09 27.98 14.45 27.98C15.49 28 16.53 28 17.57 27.98C17.93 27.97 18.02 28.08 18.01 28.43C18 32.8 17.99 37.18 18.01 41.55C18.02 42 17.83 42 17.5 42ZM26 44.41C26 44.11 26.05 43.97 26.4 43.98C27.46 44.01 28.52 44.01 29.58 43.98C29.96 43.97 30.02 44.12 30.01 44.45C29.99 44.95 30 45.45 30 45.95C30 46.49 29.99 47.03 30.01 47.57C30.02 47.87 29.96 48.01 29.61 48C28.55 47.97 27.49 47.98 26.43 48C26.13 48 25.99 47.95 26 47.6C26.02 46.54 26.01 45.48 26 44.41ZM35.5 57.99C33 57.98 30.5 57.98 28 57.98C25.5 57.98 23 57.97 20.5 57.99C20.09 57.99 19.99 57.88 19.99 57.48C20.01 53.15 20.01 48.82 19.99 44.49C19.99 44.08 20.1 43.97 20.5 43.98C21.52 44.01 22.54 44.01 23.56 43.98C23.92 43.97 24.01 44.08 24 44.43C23.99 45.87 24 47.31 24 48.75C24 49.64 24.35 49.99 25.25 49.99C27.08 49.99 28.92 49.99 30.75 49.99C31.64 49.99 32 49.64 32 48.74C32 47.3 32.01 45.87 31.99 44.43C31.99 44.08 32.08 43.97 32.43 43.98C33.47 44 34.51 44 35.55 43.98C35.9 43.97 36 44.07 36 44.43C35.99 48.8 35.98 53.18 36 57.55C36.01 57.99 35.83 57.99 35.5 57.99Z" fill="white"/>
<path d="M15.41 24.01C15.9 24.02 16.02 23.89 16.02 23.4C16 18.33 16 13.24 16.01 8.16001C16.01 6.85001 16.84 6.01001 18.15 6.01001C19.59 6.00001 21.02 6.01001 22.46 6.01001C24.05 6.01001 24.04 6.01001 24.02 7.59001C24.01 7.97001 23.88 8.02001 23.55 8.02001C22.26 8.00001 20.97 8.01001 19.68 8.01001C18.22 8.01001 18.01 8.21001 18.01 9.65001C18.01 13.96 18.01 18.27 18.01 22.58C18.01 24.01 18.01 23.99 19.46 24.02C19.96 24.03 20.02 23.86 20.02 23.43C20 19.22 20 15.01 20 10.81C20 10.01 20 10.01 20.83 10.01C28.28 10.01 35.74 10.02 43.19 10C43.81 10 44.01 10.11 44.01 10.78C43.98 15.38 43.99 19.98 43.99 24.59C43.99 26.02 43.99 26 45.44 26.02C45.86 26.03 46 25.95 46 25.49C45.99 20.09 46 14.7 45.99 9.30001C45.99 8.33001 45.66 8.01001 44.66 8.01001C43.62 8.01001 42.58 8.01001 41.54 8.01001C39.95 8.01001 39.96 8.01001 39.98 6.43001C39.98 6.05001 40.12 6.00001 40.45 6.00001C42.18 6.01001 43.91 6.01001 45.64 6.01001C47.25 6.01001 48 6.77001 48 8.38001C48 13.44 48 18.5 48 23.56C48 25 48 24.98 49.44 25.01C49.91 25.02 50.01 24.89 50.01 24.43C49.99 19.04 50 13.64 50 8.25001C50 5.68001 48.31 4.01001 45.73 4.00001C42.81 4.00001 39.9 4.00001 36.98 4.00001C36.76 4.00001 36.54 4.07001 36.31 3.93001C36.52 3.08001 36.74 2.23001 36.94 1.39001C37.13 0.580012 36.72 0.0200122 35.9 0.0200122C33.32 0.0100122 30.74 0.0100122 28.15 0.0200122C27.28 0.0200122 26.88 0.570012 27.09 1.43001C27.29 2.28001 27.51 3.12001 27.73 4.02001C27.46 4.02001 27.23 4.02001 27.01 4.02001C24.14 4.02001 21.26 4.02001 18.39 4.02001C15.68 4.02001 14.03 5.66001 14.03 8.36001C14.03 13.11 14.03 17.86 14.03 22.6C14.01 24.01 14.01 23.98 15.41 24.01ZM27.43 6.01001C27.93 6.01001 28.43 6.02001 28.93 6.01001C29.72 5.98001 30.13 5.44001 29.95 4.66001C29.74 3.79001 29.52 2.93001 29.3 2.02001C31.14 2.02001 32.89 2.02001 34.71 2.02001C34.51 2.86001 34.31 3.67001 34.12 4.48001C33.87 5.53001 34.25 6.00001 35.34 6.01001C36.07 6.01001 36.8 6.03001 37.52 6.00001C37.87 5.99001 38.02 6.04001 38.02 6.46001C38.02 8.01001 38.04 8.01001 36.5 8.01001C33.19 8.01001 29.89 8.00001 26.58 8.02001C26.13 8.02001 25.99 7.93001 26 7.45001C26.02 6.01001 26 6.01001 27.43 6.01001Z" fill="white"/>
<path d="M53.45 26.05C44.72 28.66 35.99 31.27 27.26 33.88C26.96 33.97 26.68 34.09 26.45 34.32C25.45 35.27 24.45 36.2 23.44 37.14C23.11 37.44 22.91 37.79 23.04 38.25C23.18 38.72 23.52 38.93 24 39.01C25.23 39.21 26.46 39.41 27.68 39.66C28.21 39.77 28.7 39.73 29.21 39.58C35.95 37.56 42.69 35.54 49.43 33.52C50.46 33.21 50.46 33.21 50.49 34.31C50.52 35.29 50.52 35.29 49.56 35.58C48.07 36.02 46.57 36.46 45.08 36.91C43.58 37.36 43.59 37.36 44.08 38.88C44.18 39.19 44.26 39.26 44.59 39.16C46.95 38.43 49.32 37.74 51.68 37.02C52.39 36.8 52.61 36.47 52.57 35.73C52.53 34.88 52.51 34.02 52.45 33.17C52.42 32.78 52.49 32.59 52.92 32.48C53.84 32.25 54.76 31.96 55.66 31.64C56.85 31.21 57.53 30.34 57.62 29.08C57.78 26.77 55.79 25.35 53.45 26.05ZM31.46 36.81C30.92 36.97 30.36 37.07 29.86 37.3C28.67 37.85 27.48 37.67 26.21 37.34C27.06 36.46 27.85 35.65 29.08 35.42C30.07 35.24 31.03 34.88 32 34.56C32.27 34.47 32.39 34.51 32.43 34.78C32.43 34.8 32.45 34.82 32.45 34.84C32.98 36.35 32.98 36.35 31.46 36.81ZM49.96 31.27C45.05 32.73 40.15 34.2 35.24 35.68C34.88 35.79 34.77 35.71 34.69 35.37C34.58 34.89 34.19 34.32 34.34 33.97C34.5 33.6 35.21 33.61 35.68 33.47C40.5 32.02 45.33 30.57 50.24 29.1C50.28 29.7 50.3 30.24 50.35 30.77C50.39 31.09 50.25 31.19 49.96 31.27ZM54.83 29.81C54.16 30.03 53.47 30.19 52.81 30.43C52.41 30.57 52.29 30.47 52.3 30.07C52.31 29.82 52.27 29.57 52.24 29.2C52.02 28.61 52.41 28.37 53.03 28.25C53.45 28.17 53.86 27.99 54.28 27.89C54.9 27.73 55.43 28 55.59 28.53C55.77 29.09 55.48 29.6 54.83 29.81Z" fill="white"/>
<path d="M48.55 39.98C48.08 39.97 47.97 40.1 47.98 40.56C48 43.31 48 46.06 47.99 48.8C47.99 50.16 47.17 50.98 45.82 50.99C44.38 51 42.95 50.99 41.51 50.99C39.96 50.99 39.98 50.99 39.98 52.53C39.98 52.94 40.12 53 40.48 52.99C42.29 52.97 44.1 52.99 45.91 52.98C48.24 52.96 49.97 51.24 49.99 48.92C50 47.57 49.99 46.21 49.99 44.86C49.99 43.72 49.99 42.57 49.99 41.43C49.99 39.99 49.99 40.01 48.55 39.98Z" fill="white"/>
<path d="M26.92 18C27.61 17.99 27.99 17.61 28 16.91C28.01 15.64 28.01 14.37 28 13.11C27.99 12.41 27.61 12.02 26.93 12.01C25.64 12 24.35 11.99 23.06 12.01C22.4 12.02 22.03 12.4 22.01 13.07C21.99 13.71 22.01 14.36 22.01 15C22.01 15.62 22 16.25 22.01 16.87C22.02 17.61 22.39 17.99 23.12 18C24.38 18.01 25.65 18.01 26.92 18ZM25 14.01C26 14.01 26 14.01 26 15.01C26 16.01 26 16.01 25 16.01C24 16.01 24 16.01 24 15.01C24 14.01 24 14.01 25 14.01Z" fill="white"/>
<path d="M23.0599 27C23.6999 27.02 24.35 27 24.99 27C25.61 27 26.24 27.01 26.86 27C27.6 26.99 27.99 26.62 27.99 25.9C28 24.63 28 23.36 27.99 22.1C27.9799 21.4 27.5999 21.02 26.9 21.01C25.63 21 24.36 21 23.1 21.01C22.4 21.02 22.01 21.39 22 22.08C21.99 23.37 21.98 24.66 22 25.95C22.02 26.6 22.3999 26.98 23.0599 27ZM25.02 23C26 23 26 23 26 24.01C26 25 26 25 24.99 25C24 25 24 25 24 23.99C24 23 24 23 25.02 23Z" fill="white"/>
<path d="M41.42 16C38.11 16.02 34.8 16.01 31.49 16.01C29.98 16.01 30 16.01 29.99 17.52C29.99 17.95 30.13 18.02 30.52 18.02C32.33 18 34.14 18.01 35.95 18.01C37.49 18.01 39.03 18.01 40.57 18.01C42 18.01 41.98 18.01 42.01 16.56C42.02 16.06 41.86 15.99 41.42 16Z" fill="white"/>
<path d="M30.5 27.01C32.31 26.99 34.12 27 35.93 27C37.47 27 39.01 27 40.55 27C42 27 41.97 27 42 25.56C42.01 25.09 41.89 24.98 41.42 24.98C38.12 25.01 34.81 25 31.5 25C29.98 25 30 25 29.99 26.5C29.99 26.91 30.09 27.02 30.5 27.01Z" fill="white"/>
<path d="M43.56 47C42.87 46.97 42.19 46.99 41.5 46.99C39.96 46.99 39.97 46.99 39.99 48.55C39.99 48.91 40.09 49 40.44 48.99C41.9 48.97 43.35 48.99 44.81 48.98C45.62 48.98 45.99 48.61 45.99 47.8C46 46.76 45.99 45.72 45.99 44.68C45.99 43.95 45.99 43.22 45.99 42.49C45.99 40.97 45.99 40.99 44.49 40.98C44.08 40.98 43.97 41.08 43.98 41.49C44 43.18 43.98 44.86 44 46.55C44.01 46.91 43.91 47.02 43.56 47Z" fill="white"/>
<path d="M34.44 14.01C35.63 13.99 36.81 14 38 14C38.83 14 39.67 14 40.5 14C42.02 14 42 14 42.01 12.5C42.01 12.09 41.91 11.99 41.5 11.99C39.5 12.01 37.5 12 35.5 12C33.96 12 33.97 12 33.99 13.56C33.99 13.92 34.08 14.02 34.44 14.01Z" fill="white"/>
<path d="M42.01 21.44C42.01 21.09 41.91 20.99 41.56 20.99C40.37 21.02 39.18 21 38 21C37.17 21 36.33 21 35.5 21C33.98 21 34 21 33.99 22.5C33.99 22.91 34.1 23.01 34.5 23.01C36.5 22.99 38.5 23 40.5 23C42.04 23 42.02 23 42.01 21.44Z" fill="white"/>
<path d="M32 13.01C32 12.01 32 12.01 31 12.01C30 12.01 30 12.01 30 13.01C30 14.01 30 14.01 31 14.01C32 14.01 32 14.01 32 13.01Z" fill="white"/>
<path d="M32 21.97C32 21 32 21 31.03 21C30 21 30 21 30 22.04C30 23 30 23 30.97 23C32 23 32 23 32 21.97Z" fill="white"/>
<path d="M14.94 38C14.01 38 14.01 38 14.01 38.95C14.01 40 14.01 40 15.08 40C16.01 40 16.01 40 16.01 39.05C16.01 38 16.01 38 14.94 38Z" fill="white"/>
<path d="M15.07 53.99C14 53.99 14 53.99 14 55.05C14 55.99 14 55.99 14.93 55.99C16 55.99 16 55.99 16 54.93C16.01 53.99 16.01 53.99 15.07 53.99Z" fill="white"/>
<path d="M32.93 53.99C32 53.99 32 53.99 32 54.93C32 55.99 32 55.99 33.07 55.99C34 55.99 34 55.99 34 55.05C34 53.99 34 53.99 32.93 53.99Z" fill="white"/>
</svg>
