<svg width="64" height="64" viewBox="0 0 64 64" fill="none" xmlns="http://www.w3.org/2000/svg">
<g clip-path="url(#clip0_1_836)">
<path d="M40.15 0.019989C39.9 0.229989 39.65 0.199989 39.4 0.019989C39.65 0.019989 39.9 0.019989 40.15 0.019989Z" fill="#1A1A1A"/>
<path d="M38.65 0.019989C38.46 0.199989 38.24 0.169989 38.01 0.129989C38.04 0.099989 38.04 0.059989 38.02 0.019989C38.23 0.019989 38.44 0.019989 38.65 0.019989Z" fill="#606060"/>
<path d="M63.29 58.89C63.28 57.84 62.81 57.38 61.75 57.38C60.29 57.37 58.84 57.35 57.38 57.39C56.84 57.4 56.69 57.28 56.69 56.71C56.72 51.72 56.71 46.73 56.7 41.73C56.7 40.53 56.24 40.07 55.05 40.07C52.97 40.07 50.89 40.07 48.81 40.07C43.71 40.07 38.62 40.06 33.52 40.08C33.1 40.08 32.94 39.99 32.96 39.54C33 38.86 32.98 38.17 32.97 37.48C32.96 36.69 32.63 36.28 32.02 36.29C31.43 36.3 31.11 36.7 31.1 37.46C31.09 38.17 31.08 38.88 31.11 39.58C31.12 39.94 31.06 40.09 30.64 40.09C25.11 40.08 19.57 40.08 14.04 40.09C13.68 40.09 13.59 39.98 13.59 39.63C13.6 35.53 13.6 31.43 13.59 27.34C13.59 27.01 13.65 26.86 14.03 26.87C15.44 26.89 16.86 26.89 18.27 26.87C18.66 26.86 18.7 27.03 18.69 27.35C18.67 28.33 18.68 29.31 18.69 30.28C18.7 31.28 19.18 31.78 20.18 31.79C21.62 31.81 23.05 31.8 24.49 31.79C25.53 31.78 26.02 31.29 26.03 30.26C26.04 29.28 26.05 28.3 26.02 27.33C26.01 26.98 26.12 26.87 26.47 26.88C27.86 26.9 29.26 26.9 30.65 26.88C31 26.88 31.12 26.97 31.11 27.33C31.09 28.31 31.1 29.29 31.1 30.26C31.1 31.13 31.1 32.01 31.11 32.88C31.12 33.27 31.3 33.57 31.66 33.71C31.98 33.84 32.31 33.82 32.6 33.59C32.94 33.33 32.97 32.96 32.97 32.58C32.97 30.67 32.97 28.75 32.97 26.84C32.97 25.42 32.56 25.01 31.16 25.01C25.29 25.01 19.43 25.01 13.56 25.01C12.13 25.01 11.71 25.43 11.71 26.87C11.71 31.05 11.7 35.23 11.73 39.41C11.73 40.01 11.55 40.14 11.01 40.1C10.41 40.06 9.8 40.09 9.2 40.09C7.74 40.09 7.36 40.48 7.36 41.94C7.36 46.87 7.35 51.8 7.37 56.73C7.37 57.3 7.22 57.42 6.68 57.41C5.22 57.37 3.77 57.39 2.31 57.4C1.25 57.41 0.779996 57.86 0.769996 58.91C0.759996 60.01 0.799996 61.12 0.759996 62.22C0.729996 63.01 0.989996 63.58 1.7 63.94C21.92 63.94 42.14 63.94 62.36 63.94C63.06 63.58 63.33 63 63.3 62.22C63.26 61.1 63.3 59.99 63.29 58.89ZM20.98 26.85C21.89 26.87 22.81 26.87 23.72 26.85C24.03 26.84 24.17 26.91 24.16 27.26C24.14 28.01 24.14 28.75 24.16 29.5C24.17 29.85 24.02 29.92 23.72 29.91C23.26 29.89 22.81 29.91 22.35 29.91C21.89 29.91 21.44 29.89 20.98 29.92C20.67 29.94 20.54 29.85 20.55 29.51C20.57 28.76 20.58 28.02 20.55 27.27C20.54 26.91 20.67 26.85 20.98 26.85ZM44.27 42.34C44.26 41.99 44.4 41.93 44.71 41.94C45.19 41.96 45.66 41.95 46.14 41.95C46.14 41.96 46.14 41.98 46.14 41.99C46.7 41.99 47.45 41.77 47.76 42.05C48.13 42.37 47.87 43.14 47.87 43.71C47.89 44.98 47.88 44.98 46.58 44.98C45.96 44.98 45.34 44.97 44.72 44.98C44.43 44.99 44.27 44.95 44.28 44.59C44.3 43.83 44.3 43.08 44.27 42.34ZM20.25 42.33C20.24 42.04 20.32 41.94 20.63 41.94C21.77 41.96 22.91 41.96 24.05 41.94C24.41 41.93 24.45 42.08 24.44 42.38C24.42 43.11 24.42 43.83 24.44 44.56C24.45 44.88 24.37 45 24.03 44.98C23.47 44.95 22.91 44.97 22.35 44.97C21.79 44.97 21.23 44.96 20.67 44.98C20.36 44.99 20.23 44.92 20.24 44.58C20.28 43.82 20.27 43.07 20.25 42.33ZM9.84 41.93C12.48 41.95 15.12 41.96 17.76 41.93C18.3 41.92 18.42 42.09 18.39 42.59C18.35 43.5 18.37 44.42 18.38 45.33C18.39 46.35 18.86 46.82 19.86 46.83C21.5 46.84 23.15 46.84 24.79 46.83C25.83 46.83 26.29 46.36 26.3 45.29C26.31 44.31 26.31 43.33 26.29 42.36C26.28 42.04 26.37 41.93 26.7 41.93C29.49 41.94 32.27 41.94 35.06 41.93C35.37 41.93 35.44 42.03 35.44 42.32C35.43 47.19 35.43 52.05 35.45 56.92C35.45 57.43 35.17 57.37 34.86 57.37C30.68 57.37 26.5 57.37 22.32 57.37C18.16 57.37 14 57.36 9.84 57.38C9.35 57.38 9.21 57.26 9.22 56.76C9.24 52.02 9.24 47.28 9.22 42.53C9.22 42.05 9.35 41.93 9.84 41.93ZM61.43 61.46C61.48 61.98 61.27 62.06 60.81 62.05C51.2 62.04 41.59 62.04 31.98 62.04C22.41 62.04 12.85 62.04 3.28 62.05C2.78 62.05 2.58 61.97 2.63 61.42C2.69 60.84 2.66 60.26 2.63 59.67C2.61 59.3 2.75 59.19 3.1 59.23C3.24 59.25 3.39 59.23 3.54 59.23C18.04 59.23 32.53 59.23 47.03 59.23C47.3 59.23 47.57 59.23 47.84 59.18C48.34 59.08 48.58 58.73 48.56 58.23C48.54 57.76 48.27 57.46 47.8 57.38C47.6 57.35 47.39 57.36 47.18 57.36C44.1 57.36 41.02 57.35 37.95 57.37C37.46 57.37 37.33 57.24 37.33 56.75C37.35 52.01 37.35 47.27 37.33 42.53C37.33 42.03 37.46 41.91 37.95 41.92C39.26 41.95 40.57 41.96 41.88 41.92C42.38 41.9 42.45 42.08 42.44 42.51C42.41 43.44 42.42 44.38 42.43 45.32C42.44 46.32 42.93 46.82 43.92 46.82C45.38 46.83 46.83 46.83 48.29 46.82C49.24 46.81 49.75 46.31 49.76 45.36C49.77 44.38 49.78 43.4 49.76 42.43C49.75 42.09 49.79 41.91 50.21 41.92C51.6 41.95 53 41.95 54.39 41.92C54.8 41.91 54.86 42.07 54.86 42.43C54.85 47.23 54.85 52.04 54.86 56.84C54.86 57.24 54.77 57.39 54.35 57.37C53.64 57.34 52.94 57.35 52.23 57.36C51.52 57.37 51.13 57.69 51.11 58.25C51.09 58.84 51.49 59.22 52.22 59.23C55.07 59.24 57.92 59.25 60.77 59.22C61.3 59.21 61.52 59.32 61.46 59.89C61.37 60.42 61.38 60.95 61.43 61.46Z" fill="#3247D5"/>
<path d="M36.73 16.24C37.27 16.41 37.4 16.63 37.4 17.18C37.38 22.5 37.38 27.83 37.39 33.15C37.39 34.32 37.84 34.8 38.99 34.8C45.71 34.81 52.43 34.81 59.15 34.8C60.32 34.8 60.77 34.34 60.78 33.17C60.78 31.13 60.78 29.09 60.78 27.06C60.78 26.35 60.78 25.65 60.77 24.94C60.76 24.55 60.56 24.26 60.2 24.13C59.85 24 59.5 24.04 59.21 24.32C58.93 24.59 58.91 24.94 58.91 25.3C58.91 27.67 58.9 30.04 58.92 32.41C58.92 32.8 58.84 32.94 58.41 32.94C52.19 32.93 45.97 32.93 39.75 32.94C39.37 32.94 39.26 32.85 39.26 32.46C39.27 27.34 39.27 22.23 39.26 17.11C39.26 16.78 39.33 16.65 39.7 16.63C41.73 16.55 43.49 15.77 44.96 14.38C45.2 14.15 45.44 14.11 45.74 14.11C48.38 14.12 51.02 14.11 53.67 14.11C54.5 14.11 54.93 13.77 54.92 13.15C54.91 12.54 54.51 12.24 53.7 12.24C52.16 12.24 50.62 12.24 49.08 12.24C48.28 12.24 47.49 12.24 46.62 12.24C47.3 10.89 47.64 9.54999 47.57 8.13999C47.54 7.61999 47.68 7.52999 48.16 7.52999C51.53 7.54999 54.9 7.54999 58.27 7.52999C58.78 7.52999 58.93 7.64999 58.93 8.16999C58.91 12.16 58.92 16.16 58.92 20.15C58.92 20.4 58.93 20.65 58.99 20.89C59.12 21.35 59.47 21.56 59.93 21.53C60.4 21.5 60.7 21.23 60.76 20.75C60.79 20.57 60.78 20.38 60.78 20.19C60.78 15.93 60.78 11.66 60.78 7.39999C60.78 6.09999 60.36 5.66999 59.07 5.66999C55.31 5.66999 51.54 5.65999 47.78 5.67999C47.32 5.67999 47.1 5.56999 46.91 5.11999C45.94 2.80999 44.23 1.25999 41.87 0.439989C41.35 0.259989 40.81 0.159989 40.28 0.019989C40.24 0.019989 40.2 0.019989 40.16 0.019989C39.91 0.119989 39.66 0.119989 39.41 0.019989C39.16 0.019989 38.91 0.019989 38.66 0.019989C38.46 0.169989 38.21 -1.09822e-05 38.01 0.129989C37.93 0.139989 37.84 0.139989 37.76 0.149989C34 0.819989 31.19 4.01999 30.94 7.91999C30.71 11.59 33.15 15.13 36.73 16.24ZM39.27 1.88999C42.83 1.88999 45.76 4.83999 45.71 8.36999C45.67 11.94 42.8 14.77 39.25 14.77C35.71 14.77 32.82 11.89 32.8 8.35999C32.79 4.81999 35.71 1.88999 39.27 1.88999Z" fill="#3247D5"/>
<path d="M54.91 22.57C54.91 21.98 54.4999 21.64 53.7599 21.64C50.6499 21.64 47.5299 21.64 44.4199 21.64C43.6699 21.64 43.2699 21.97 43.2599 22.56C43.2499 23.18 43.6499 23.51 44.4399 23.51C45.9799 23.52 47.5099 23.51 49.0499 23.51C50.6299 23.51 52.2099 23.52 53.7799 23.51C54.5299 23.51 54.92 23.17 54.91 22.57Z" fill="#3247D5"/>
<path d="M44.45 18.82C47.54 18.82 50.64 18.82 53.73 18.82C54.51 18.82 54.92 18.46 54.91 17.85C54.9 17.26 54.51 16.95 53.74 16.95C52.2 16.95 50.67 16.95 49.13 16.95C47.49 16.95 45.85 16.94 44.21 16.95C43.66 16.95 43.31 17.23 43.25 17.8C43.2 18.34 43.54 18.72 44.13 18.8C44.24 18.82 44.35 18.82 44.45 18.82Z" fill="#3247D5"/>
<path d="M44.36 26.35C43.64 26.35 43.23 26.72 43.25 27.32C43.27 27.89 43.67 28.22 44.36 28.22C45.38 28.23 46.4 28.22 47.42 28.22C48.44 28.22 49.46 28.22 50.48 28.22C51.16 28.22 51.58 27.87 51.6 27.32C51.62 26.75 51.18 26.36 50.47 26.35C48.44 26.35 46.4 26.35 44.36 26.35Z" fill="#3247D5"/>
<path d="M38.08 11.03C38.28 11.23 38.51 11.36 38.79 11.36C39.15 11.35 39.4 11.14 39.64 10.9C40.79 9.74998 41.93 8.60998 43.08 7.45999C43.61 6.91999 43.67 6.34999 43.23 5.93999C42.81 5.53999 42.29 5.59999 41.76 6.12999C40.92 6.95999 40.07 7.78998 39.26 8.64998C38.92 9.00998 38.71 9.08999 38.35 8.66999C37.82 8.05999 37.22 7.49998 36.64 6.93999C36.19 6.50999 35.64 6.50999 35.26 6.89999C34.9 7.26999 34.9 7.81998 35.31 8.23998C36.22 9.18998 37.15 10.1 38.08 11.03Z" fill="#3247D5"/>
</g>
<defs>
<clipPath id="clip0_1_836">
<rect width="64" height="64" fill="white"/>
</clipPath>
</defs>
</svg>
