<svg width="52" height="64" viewBox="0 0 52 64" fill="none" xmlns="http://www.w3.org/2000/svg">
<path d="M41.5001 8.62001C41.5001 7.83001 41.5001 7.04001 41.5001 6.25001C41.5101 5.44001 41.8201 5.10001 42.6201 5.08001C43.2901 5.07001 43.9501 5.06001 44.6201 5.09001C45.2001 5.11001 45.5901 5.51001 45.5901 6.01001C45.5901 6.51001 45.2001 6.90001 44.6201 6.94001C44.3301 6.96001 44.0401 6.96001 43.7501 6.94001C43.4301 6.92001 43.3801 7.06001 43.3701 7.34001C43.3701 7.64001 43.5001 7.68001 43.7501 7.68001C44.0401 7.67001 44.3301 7.67001 44.6201 7.71001C45.1501 7.79001 45.4301 8.13001 45.4101 8.66001C45.3901 9.16001 45.1101 9.47001 44.6001 9.53001C44.3301 9.56001 44.0601 9.56001 43.7901 9.55001C43.5201 9.54001 43.3701 9.59001 43.3701 9.92001C43.3701 10.23 43.4901 10.31 43.7701 10.3C44.0801 10.28 44.4001 10.28 44.7001 10.31C45.2301 10.37 45.6001 10.78 45.5901 11.26C45.5801 11.75 45.2001 12.14 44.6601 12.16C43.9501 12.18 43.2501 12.18 42.5401 12.17C41.8501 12.15 41.5201 11.81 41.5101 11.12C41.4901 10.28 41.5001 9.45001 41.5001 8.62001Z" fill="white"/>
<path d="M50.2 47.51C49.74 47.55 49.43 47.81 49.36 48.29C49.33 48.49 49.34 48.71 49.34 48.91C49.34 52.51 49.34 56.12 49.34 59.72C49.34 61.24 48.46 62.12 46.93 62.12C32.98 62.12 19.03 62.12 5.07001 62.12C3.54001 62.12 2.66001 61.25 2.66001 59.73C2.66001 41.24 2.66001 22.75 2.66001 4.25001C2.66001 2.76001 3.55001 1.89001 5.04001 1.89001C7.04001 1.89001 9.04001 1.88001 11.04 1.89001C11.58 1.89001 12.06 1.81001 12.24 1.23001C12.42 0.66001 12.11 0.28001 11.63 0.0100098C9.13001 0.0100098 6.63001 0.0100098 4.13001 0.0100098C1.45001 1.06001 0.78001 2.06001 0.78001 5.03001C0.78001 23.05 0.80001 41.07 0.76001 59.09C0.76001 61.35 1.54001 63.21 3.98001 63.93C3.99001 63.93 4.00001 63.97 4.01001 63.98C18.63 63.98 33.25 63.98 47.87 63.98C47.89 63.95 47.91 63.9 47.94 63.89C50.11 63.31 51.21 61.89 51.21 59.64C51.21 56.04 51.21 52.43 51.21 48.83C51.21 48.58 51.23 48.33 51.13 48.09C50.96 47.69 50.64 47.47 50.2 47.51Z" fill="white"/>
<path d="M15.4701 1.89002C15.5901 1.88002 15.7201 1.89002 15.8401 1.89002C26.1101 1.89002 36.3701 1.91002 46.6401 1.87002C48.4501 1.86002 49.3601 2.90002 49.3601 4.62002C49.3201 17.78 49.3401 30.94 49.3401 44.1C49.3401 44.33 49.3301 44.56 49.3501 44.79C49.4001 45.27 49.6901 45.55 50.1501 45.61C50.6401 45.67 51.0101 45.44 51.1401 44.95C51.2101 44.7 51.2101 44.42 51.2101 44.15C51.2101 30.95 51.2101 17.75 51.2101 4.54002C51.2101 4.35002 51.2101 4.16002 51.2001 3.98002C51.1101 2.18002 50.0101 0.71002 48.3601 0.19002C48.1901 0.14002 47.9701 0.22002 47.8601 0.0200195C36.8201 0.0200195 25.7901 0.0200195 14.7501 0.0200195C14.3701 0.35002 14.0101 0.70002 14.2401 1.28002C14.4601 1.85002 14.9401 1.91002 15.4701 1.89002Z" fill="white"/>
<path d="M32.67 47.48C29.59 47.46 26.51 47.47 23.42 47.47C23.21 47.47 23 47.46 22.8 47.49C22.33 47.55 22.05 47.84 22 48.31C21.95 48.78 22.17 49.11 22.61 49.28C22.83 49.37 23.06 49.35 23.29 49.35C29.43 49.35 35.58 49.35 41.72 49.35C43.39 49.35 44.25 48.49 44.25 46.81C44.25 40.56 44.25 34.32 44.25 28.07C44.25 26.29 43.45 25.49 41.66 25.48C36.45 25.48 31.25 25.48 26.04 25.48C20.75 25.48 15.46 25.48 10.17 25.48C8.6 25.48 7.75 26.34 7.75 27.92C7.75 34.23 7.75 40.54 7.75 46.85C7.75 48.48 8.62 49.34 10.26 49.34C13.11 49.34 15.97 49.34 18.82 49.34C19.03 49.34 19.24 49.33 19.43 49.28C19.89 49.15 20.13 48.8 20.09 48.34C20.05 47.86 19.77 47.54 19.26 47.48C19.07 47.46 18.89 47.47 18.7 47.47C15.91 47.47 13.12 47.46 10.33 47.48C9.79 47.48 9.6 47.31 9.61 46.76C9.64 45.43 9.63 44.09 9.61 42.76C9.61 42.41 9.65 42.25 10.07 42.25C17.65 42.26 25.23 42.26 32.81 42.25C33.21 42.25 33.3 42.38 33.29 42.75C33.27 44.12 33.25 45.5 33.3 46.87C33.32 47.41 33.13 47.48 32.67 47.48ZM33.3 39.84C33.31 40.25 33.24 40.41 32.77 40.41C25.22 40.39 17.67 40.39 10.11 40.41C9.69 40.41 9.6 40.28 9.61 39.89C9.63 38.23 9.63 36.56 9.61 34.9C9.6 34.48 9.73 34.39 10.13 34.39C13.9 34.41 17.66 34.4 21.43 34.4C25.17 34.4 28.92 34.41 32.66 34.39C33.19 34.39 33.31 34.54 33.3 35.05C33.27 36.64 33.28 38.24 33.3 39.84ZM32.68 32.53C28.94 32.5 25.19 32.52 21.45 32.52C17.73 32.52 14 32.5 10.28 32.54C9.7 32.55 9.61 32.37 9.62 31.85C9.66 30.58 9.65 29.31 9.62 28.04C9.61 27.54 9.75 27.35 10.28 27.35C17.79 27.36 25.3 27.36 32.81 27.35C33.26 27.35 33.31 27.51 33.3 27.89C33.28 29.22 33.27 30.55 33.31 31.88C33.32 32.37 33.22 32.53 32.68 32.53ZM35.16 27.82C35.16 27.49 35.21 27.34 35.59 27.34C37.67 27.36 39.75 27.36 41.83 27.34C42.24 27.34 42.38 27.49 42.37 27.89C42.35 29.28 42.35 30.68 42.37 32.07C42.38 32.44 42.25 32.51 41.91 32.51C40.87 32.49 39.83 32.5 38.79 32.5C37.73 32.5 36.67 32.49 35.61 32.51C35.26 32.52 35.15 32.42 35.15 32.06C35.18 30.65 35.17 29.24 35.16 27.82ZM35.65 34.38C36.69 34.4 37.73 34.39 38.77 34.39C39.83 34.39 40.89 34.4 41.96 34.38C42.29 34.37 42.38 34.47 42.38 34.8C42.37 36.53 42.36 38.26 42.38 39.98C42.38 40.31 42.29 40.4 41.96 40.4C39.84 40.39 37.71 40.38 35.59 40.4C35.21 40.4 35.15 40.25 35.15 39.92C35.16 38.23 35.17 36.55 35.15 34.86C35.15 34.48 35.27 34.37 35.65 34.38ZM35.16 42.7C35.16 42.38 35.24 42.26 35.58 42.27C37.72 42.28 39.86 42.28 42.01 42.27C42.33 42.27 42.39 42.39 42.38 42.67C42.37 44.08 42.36 45.5 42.38 46.91C42.39 47.36 42.18 47.48 41.77 47.48C40.73 47.47 39.69 47.48 38.65 47.48C37.65 47.48 36.65 47.47 35.65 47.49C35.28 47.5 35.14 47.41 35.15 47.01C35.18 45.57 35.17 44.13 35.16 42.7Z" fill="white"/>
<path d="M30.39 58.58C31.21 58.49 31.8 58.02 32.27 57.38C32.52 57.05 32.74 56.7 33 56.37C33.3 55.99 33.63 56 33.93 56.37C34.22 56.75 34.48 57.15 34.78 57.53C35.89 58.93 37.57 58.95 38.72 57.58C38.93 57.33 39.12 57.05 39.31 56.77C39.97 55.84 40.2 55.83 40.85 56.75C41.07 57.06 41.27 57.37 41.51 57.66C41.97 58.21 42.55 58.55 43.28 58.59C43.83 58.62 44.3 58.25 44.32 57.73C44.34 57.21 44.09 56.82 43.56 56.75C43.16 56.7 42.93 56.47 42.72 56.18C42.49 55.86 42.28 55.52 42.03 55.22C40.88 53.84 39.2 53.87 38.09 55.27C37.82 55.61 37.59 55.99 37.32 56.33C36.92 56.84 36.63 56.85 36.23 56.34C35.96 56 35.73 55.62 35.46 55.28C34.95 54.63 34.31 54.2 33.44 54.22C32.62 54.2 32.01 54.6 31.51 55.2C31.23 55.54 31 55.91 30.74 56.26C30.57 56.5 30.37 56.67 30.04 56.73C29.42 56.84 29.12 57.29 29.23 57.84C29.35 58.34 29.83 58.65 30.39 58.58Z" fill="white"/>
<path d="M11.82 5.66002C11.53 5.22002 11.17 4.95002 10.62 5.12002C10.09 5.29002 9.97998 5.70002 9.97998 6.20002C9.98998 7.82002 9.97998 9.45002 9.98998 11.07C9.98998 11.77 10.32 12.17 10.88 12.2C11.45 12.22 11.85 11.78 11.86 11.08C11.87 10.46 11.86 9.84002 11.86 9.22002C11.9 9.21002 11.94 9.20002 11.98 9.19002C12.53 9.99002 13.09 10.79 13.64 11.59C13.94 12.03 14.35 12.26 14.87 12.09C15.36 11.93 15.55 11.52 15.55 11.01C15.53 9.39002 15.53 7.76002 15.51 6.14002C15.5 5.47002 15.12 5.05002 14.56 5.05002C14 5.06002 13.65 5.48002 13.64 6.16002C13.63 6.82002 13.64 7.47002 13.64 8.28002C12.96 7.32002 12.38 6.50002 11.82 5.66002Z" fill="white"/>
<path d="M29.14 8.64C29.14 6.66 27.55 5.06 25.58 5.05C23.63 5.04 22 6.66 22 8.62C22 10.58 23.6 12.2 25.56 12.21C27.52 12.22 29.13 10.61 29.14 8.64ZM23.88 8.6C23.89 7.7 24.65 6.94 25.56 6.93C26.49 6.92 27.26 7.7 27.26 8.63C27.26 9.57 26.49 10.34 25.56 10.33C24.63 10.32 23.86 9.53 23.88 8.6Z" fill="white"/>
<path d="M38.44 7.14002C39.15 7.48002 39.68 7.38002 39.94 6.86002C40.2 6.33002 39.96 5.82002 39.28 5.46002C36.91 4.21002 34.03 5.97002 34.06 8.71002C34.08 8.86002 34.08 9.07002 34.13 9.27002C34.42 10.65 35.22 11.59 36.56 12.02C37.78 12.41 38.9 12.22 39.85 11.3C40.35 10.81 40.38 10.29 39.97 9.87002C39.59 9.48002 39.07 9.48002 38.59 9.92002C38.26 10.22 37.9 10.36 37.45 10.3C36.74 10.21 36.25 9.82002 36.03 9.15002C35.81 8.46002 35.96 7.82002 36.53 7.34002C37.11 6.86002 37.76 6.81002 38.44 7.14002Z" fill="white"/>
<path d="M44.38 16.1C42.59 16.1 40.8 16.1 39.01 16.1C37.18 16.1 35.35 16.09 33.52 16.1C32.81 16.1 32.41 16.51 32.47 17.11C32.52 17.66 32.91 17.96 33.63 17.97C37.21 17.97 40.79 17.97 44.37 17.97C45.14 17.97 45.6 17.62 45.6 17.03C45.6 16.45 45.15 16.1 44.38 16.1Z" fill="white"/>
<path d="M19.19 12.2C19.76 12.2 20.09 11.86 20.27 11.33C20.8 9.71001 21.35 8.10001 21.88 6.48001C22.1 5.79001 21.89 5.28001 21.32 5.11001C20.77 4.94001 20.34 5.2 20.11 5.87C19.81 6.73001 19.53 7.6 19.19 8.58C18.84 7.58 18.55 6.71001 18.25 5.86001C18 5.18001 17.53 4.91001 16.96 5.13001C16.43 5.33001 16.24 5.81 16.47 6.47C17.02 8.1 17.59 9.73 18.15 11.36C18.32 11.86 18.64 12.2 19.19 12.2Z" fill="white"/>
<path d="M8.26996 11.12C8.27996 10.29 8.26996 9.45999 8.26996 8.61999C8.26996 7.80999 8.27996 6.99999 8.26996 6.18999C8.25996 5.46999 7.89996 5.03999 7.31996 5.05999C6.76996 5.07999 6.39996 5.50999 6.39996 6.17999C6.38996 7.81999 6.38996 9.46999 6.39996 11.11C6.39996 11.78 6.78996 12.21 7.33996 12.21C7.89996 12.21 8.26996 11.8 8.26996 11.12Z" fill="white"/>
<path d="M32.53 11.13C32.54 10.32 32.53 9.51002 32.53 8.70002C32.53 7.85002 32.54 6.99002 32.53 6.14002C32.52 5.46002 32.15 5.05002 31.59 5.06002C31.06 5.07002 30.67 5.48002 30.66 6.11002C30.64 7.79002 30.64 9.48002 30.66 11.16C30.67 11.79 31.05 12.2 31.58 12.21C32.15 12.22 32.52 11.81 32.53 11.13Z" fill="white"/>
<path d="M45.5901 21.13C45.5601 20.59 45.1601 20.25 44.5201 20.24C43.0101 20.23 41.4901 20.23 39.9801 20.24C39.3201 20.24 38.8901 20.62 38.9001 21.17C38.9101 21.72 39.3301 22.1 40.0001 22.11C40.7501 22.12 41.4901 22.11 42.2401 22.11C43.0101 22.11 43.7801 22.12 44.5401 22.11C45.1901 22.1 45.6201 21.68 45.5901 21.13Z" fill="white"/>
</svg>
