<svg width="62" height="64" viewBox="0 0 62 64" fill="none" xmlns="http://www.w3.org/2000/svg">
<path d="M61.05 28.87C61.05 23.83 61.06 18.79 61.05 13.75C61.05 11.6 59.74 10.11 57.63 9.81001C57.32 9.77001 57.01 9.69001 56.7 9.70001C56.22 9.72001 56.03 9.49001 56.03 9.03001C56.03 8.61001 55.92 8.20001 55.71 7.83001C55.5 7.47001 55.49 7.15001 55.7 6.78001C55.97 6.30001 56.06 5.77001 56.05 5.21001C56.04 4.46001 56.05 3.71001 56.05 2.96001C56.03 1.36001 55.26 0.38001 53.74 0.0100098C48.37 0.0100098 42.99 0.0100098 37.62 0.0100098C35.96 0.57001 35.31 1.76001 35.42 3.46001C35.47 4.21001 35.44 4.96001 35.46 5.71001C35.48 6.32001 36.04 6.81001 36.05 7.30001C36.06 7.78001 35.52 8.28001 35.46 8.88001C35.36 9.94001 35.34 9.94001 34.28 9.94001C32.24 9.94001 30.2 9.93001 28.16 9.95001C27.76 9.95001 27.6 9.86001 27.64 9.43001C27.7 8.75001 27.55 8.10001 27.12 7.55001C26.94 7.33001 27.02 7.20001 27.15 7.02001C27.53 6.50001 27.67 5.90001 27.65 5.26001C27.63 4.62001 27.65 3.97001 27.65 3.32001C27.65 1.41001 27.14 0.66001 25.39 0.0100098C20.06 0.0100098 14.73 0.0100098 9.4 0.0100098C7.74 0.40001 7.08 1.25001 7.07 2.97001C7.07 3.76001 7.08 4.55001 7.07 5.34001C7.06 5.86001 7.13 6.34001 7.38 6.79001C7.51 7.03001 7.62 7.29001 7.47 7.56001C7.17 8.11001 7.05 8.69001 7.06 9.30001C7.06 9.63001 6.89 9.79001 6.56 9.80001C6.08 9.82001 5.6 9.81001 5.12 9.80001C2.64 9.73001 0.950001 11.34 0.950001 13.81C0.940001 21.8 0.950001 29.8 0.950001 37.79C0.950001 40 2.18 41.44 4.35 41.82C5.24 41.98 6.14 41.91 7.03 41.92C7.5 41.92 7.73 42.1 7.7 42.58C7.69 42.77 7.7 42.95 7.7 43.14C7.7 46.41 7.72 49.68 7.69 52.95C7.68 54.8 8.78 56.24 10.93 56.2C14.97 56.11 19.01 56.17 23.05 56.18C24.86 56.18 24.68 55.93 24.7 57.88C24.7 58.36 24.52 58.58 24.04 58.55C21.72 58.42 20.23 60.87 20.48 62.98C20.54 63.47 20.75 63.85 21.26 63.99C28.09 63.99 34.92 63.99 41.75 63.99C42.37 63.85 42.58 63.43 42.56 62.84C42.55 62.51 42.57 62.17 42.54 61.84C42.4 60.2 41.13 58.77 39.65 58.59C38.43 58.44 38.43 58.44 38.43 57.2C38.43 56.19 38.44 56.19 39.43 56.19C43.72 56.19 48.01 56.19 52.3 56.19C54.26 56.19 55.29 55.14 55.3 53.17C55.3 49.8 55.3 46.42 55.3 43.05C55.3 42.84 55.3 42.63 55.31 42.43C55.32 42.13 55.48 41.98 55.78 41.96C56.13 41.94 56.49 41.96 56.84 41.94C59.9 41.84 61.13 39.73 61.07 37.57C60.99 34.66 61.05 31.77 61.05 28.87ZM37.31 2.98001C37.32 2.19001 37.62 1.89001 38.41 1.89001C40.85 1.89001 43.28 1.89001 45.72 1.89001C48.07 1.89001 50.43 1.89001 52.78 1.89001C53.69 1.89001 53.98 2.17001 53.98 3.07001C53.98 3.76001 53.98 4.44001 53.98 5.13001C53.98 6.03001 53.7 6.31001 52.78 6.31001C50.24 6.31001 47.7 6.31001 45.16 6.31001C42.95 6.31001 40.75 6.31001 38.54 6.31001C37.55 6.31001 37.31 6.07001 37.31 5.10001C37.31 4.40001 37.3 3.69001 37.31 2.98001ZM38.56 8.28001C42.84 8.28001 47.13 8.28001 51.41 8.28001C51.91 8.28001 52.41 8.27001 52.91 8.28001C53.66 8.30001 53.97 8.61001 53.98 9.35001C53.99 10.1 53.99 10.85 53.98 11.6C53.97 12.42 53.67 12.73 52.85 12.74C50.46 12.75 48.07 12.74 45.68 12.74C43.31 12.74 40.94 12.74 38.57 12.74C37.58 12.74 37.31 12.47 37.31 11.49C37.31 10.85 37.31 10.2 37.31 9.56001C37.31 8.55001 37.58 8.28001 38.56 8.28001ZM53.99 15.76C54 16.53 54 17.3 53.99 18.07C53.98 18.81 53.66 19.12 52.91 19.13C50.47 19.14 48.04 19.13 45.6 19.13C43.25 19.13 40.89 19.13 38.54 19.13C37.58 19.13 37.32 18.86 37.31 17.91C37.31 17.2 37.3 16.49 37.31 15.79C37.32 15.01 37.59 14.71 38.36 14.71C43.21 14.7 48.06 14.7 52.92 14.71C53.68 14.71 53.98 15.01 53.99 15.76ZM9.1 2.89001C9.11 2.21001 9.42 1.90001 10.1 1.90001C14.97 1.89001 19.85 1.89001 24.72 1.90001C25.44 1.90001 25.75 2.21001 25.76 2.92001C25.77 3.69001 25.77 4.46001 25.76 5.23001C25.75 6.03001 25.47 6.31001 24.66 6.32001C22.24 6.33001 19.83 6.32001 17.41 6.32001C15.04 6.32001 12.66 6.32001 10.29 6.32001C9.34 6.32001 9.1 6.08001 9.1 5.14001C9.1 4.39001 9.09 3.64001 9.1 2.89001ZM10.35 8.28001C14.82 8.28001 19.29 8.28001 23.76 8.28001C24.07 8.28001 24.38 8.27001 24.7 8.28001C25.45 8.30001 25.76 8.60001 25.76 9.35001C25.77 10.1 25.77 10.85 25.76 11.6C25.76 12.43 25.46 12.73 24.64 12.73C22.23 12.74 19.82 12.73 17.4 12.73C15.05 12.73 12.7 12.73 10.35 12.73C9.36 12.73 9.1 12.47 9.1 11.47C9.1 10.83 9.1 10.18 9.1 9.54001C9.1 8.55001 9.36 8.28001 10.35 8.28001ZM38.92 60.66C39.98 60.66 40.29 60.94 40.48 62.11C40.29 62.11 40.11 62.11 39.93 62.11C34.36 62.11 28.78 62.11 23.21 62.11C22.52 62.11 22.5 62.06 22.77 61.43C23 60.91 23.32 60.64 23.95 60.64C28.94 60.67 33.93 60.66 38.92 60.66ZM26.7 56.35C26.7 56.08 26.79 56 27.06 56C30.05 56.01 33.05 56.01 36.04 56C36.34 56 36.38 56.13 36.37 56.37C36.36 57.01 36.34 57.66 36.38 58.3C36.4 58.69 36.29 58.79 35.9 58.78C34.44 58.76 32.99 58.77 31.53 58.77C30.12 58.77 28.7 58.74 27.29 58.78C26.77 58.79 26.67 58.62 26.69 58.15C26.74 57.56 26.72 56.95 26.7 56.35ZM53.25 53.27C53.24 53.97 53.09 54.12 52.41 54.13C51.62 54.14 50.83 54.13 50.04 54.13C37.01 54.13 23.98 54.13 10.95 54.13C9.87 54.13 9.78 54.05 9.8 52.95C9.81 52.29 9.51 51.44 9.93 51.03C10.32 50.66 11.16 50.93 11.8 50.93C18.38 50.92 24.95 50.93 31.53 50.93C38.54 50.93 45.56 50.94 52.57 50.92C53.1 50.92 53.32 51.02 53.26 51.59C53.21 52.14 53.26 52.7 53.25 53.27ZM56.78 39.81C56.25 39.81 55.54 40.05 55.23 39.69C54.97 39.39 55.14 38.7 55.14 38.18C55.14 34.7 55.14 31.23 55.14 27.75C55.14 25.62 53.9 24.37 51.78 24.37C48.78 24.37 45.78 24.37 42.78 24.37C42.59 24.37 42.4 24.35 42.22 24.4C41.75 24.53 41.47 24.85 41.5 25.36C41.52 25.84 41.8 26.12 42.25 26.23C42.45 26.28 42.66 26.25 42.87 26.25C45.83 26.25 48.78 26.25 51.74 26.25C52.85 26.25 53.26 26.65 53.26 27.74C53.26 34.65 53.25 41.57 53.28 48.48C53.28 48.99 53.11 49.04 52.68 49.04C45.64 49.03 38.6 49.03 31.57 49.03C24.55 49.03 17.54 49.02 10.52 49.04C9.95 49.04 9.8 48.9 9.81 48.32C9.83 41.53 9.82 34.74 9.82 27.96C9.82 26.6 10.17 26.25 11.51 26.25C20.4 26.25 29.29 26.25 38.18 26.25C39.14 26.25 39.59 25.96 39.61 25.34C39.63 24.69 39.16 24.37 38.17 24.37C29.26 24.37 20.35 24.37 11.43 24.37C9.15 24.37 7.93 25.59 7.93 27.88C7.93 31.65 7.92 35.42 7.94 39.19C7.94 39.66 7.86 39.86 7.34 39.82C6.57 39.77 5.8 39.81 5.03 39.81C3.71 39.8 3 39.1 3 37.81C3 29.81 3 21.82 3 13.82C3 12.58 3.68 11.88 4.9 11.83C5.52 11.81 6.15 11.82 6.77 11.79C7.07 11.78 7.26 11.84 7.24 12.19C7.24 12.21 7.24 12.23 7.25 12.25C7.29 12.81 7.83 13.25 7.83 13.71C7.83 14.15 7.29 14.57 7.26 15.11C7.19 16.3 7.14 17.49 7.27 18.67C7.39 19.78 8.09 20.51 9.15 20.86C9.84 21.09 10.56 21.03 11.26 20.96C11.77 20.91 12.06 20.54 12.03 19.99C12 19.48 11.7 19.18 11.21 19.13C10.84 19.09 10.46 19.13 10.09 19.11C9.45 19.09 9.13 18.79 9.12 18.15C9.1 17.34 9.11 16.53 9.12 15.71C9.13 14.98 9.41 14.7 10.15 14.69C11.15 14.68 12.15 14.69 13.15 14.69C16.94 14.69 20.73 14.69 24.52 14.69C25.54 14.69 25.78 14.93 25.78 15.93C25.78 16.62 25.78 17.3 25.78 17.99C25.77 18.82 25.48 19.12 24.65 19.12C21.55 19.12 18.45 19.12 15.34 19.12C15.19 19.12 15.05 19.11 14.9 19.12C14.33 19.15 13.93 19.54 13.93 20.05C13.93 20.56 14.33 20.97 14.9 20.98C16.16 21.02 17.43 21 18.7 21C20.72 21 22.74 21.01 24.76 21C26.47 20.99 27.62 19.85 27.64 18.15C27.65 17.32 27.63 16.48 27.64 15.65C27.65 15.05 27.5 14.49 27.15 14.01C27 13.8 26.94 13.65 27.13 13.42C27.42 13.06 27.59 12.63 27.62 12.16C27.63 11.88 27.76 11.82 28.01 11.82C30.36 11.83 32.72 11.83 35.07 11.82C35.33 11.82 35.47 11.9 35.47 12.17C35.47 12.19 35.48 12.21 35.48 12.23C35.53 12.77 35.96 13.18 36.05 13.65C36.13 14.09 35.55 14.5 35.5 15.03C35.4 16.28 35.35 17.53 35.51 18.77C35.67 20 36.81 20.99 38.08 20.99C43.14 21.01 48.2 21.01 53.26 20.99C54.67 20.98 55.82 19.79 55.87 18.38C55.9 17.4 55.88 16.42 55.87 15.44C55.87 15.3 55.83 15.15 55.82 15.01C55.79 14.47 55.13 14.07 55.3 13.58C55.48 13.09 55.81 12.64 55.86 12.09C55.88 11.92 55.92 11.82 56.11 11.82C56.65 11.83 57.2 11.76 57.73 11.9C58.41 12.08 58.93 12.74 58.99 13.45C59.01 13.66 59 13.87 59 14.07C59 21.9 59 29.73 59 37.56C59 39.16 58.36 39.82 56.78 39.81Z" fill="white"/>
<path d="M25.14 36.76C21.6 36.76 18.06 36.76 14.52 36.76C13.28 36.76 12.49 37.54 12.46 38.77C12.45 39.21 12.49 39.65 12.45 40.08C12.31 41.82 13.51 42.51 14.87 42.51C25.94 42.47 37.02 42.49 48.09 42.49C48.26 42.49 48.42 42.49 48.59 42.49C49.69 42.44 50.46 41.69 50.52 40.6C50.55 40.06 50.53 39.52 50.53 38.98C50.52 37.51 49.77 36.76 48.3 36.76C42.7 36.76 37.1 36.76 31.5 36.76C29.38 36.76 27.26 36.76 25.14 36.76ZM48.67 39.23C48.64 40.61 48.66 40.61 47.27 40.61C36.53 40.61 25.79 40.61 15.04 40.62C14.48 40.62 14.3 40.5 14.32 39.92C14.37 38.63 14.33 38.63 15.62 38.63C20.91 38.63 26.2 38.63 31.48 38.63C37 38.63 42.51 38.64 48.03 38.62C48.52 38.62 48.68 38.72 48.67 39.23Z" fill="white"/>
<path d="M14.56 34.47C15.27 34.48 15.97 34.47 16.68 34.47C19.91 34.47 23.13 34.47 26.36 34.47C27.89 34.47 28.63 33.74 28.63 32.23C28.63 31.77 28.63 31.31 28.63 30.86C28.62 29.51 27.86 28.75 26.49 28.75C24.53 28.75 22.58 28.75 20.62 28.75C18.58 28.75 16.54 28.74 14.5 28.75C13.27 28.76 12.49 29.54 12.48 30.79C12.47 31.33 12.47 31.87 12.48 32.41C12.51 33.66 13.29 34.45 14.56 34.47ZM15.69 30.62C17.31 30.62 18.94 30.62 20.56 30.62C22.45 30.62 24.35 30.63 26.24 30.61C26.63 30.61 26.77 30.68 26.77 31.11C26.76 32.58 26.78 32.58 25.34 32.58C21.89 32.58 18.43 32.57 14.98 32.59C14.5 32.59 14.35 32.48 14.36 31.98C14.39 30.62 14.36 30.62 15.69 30.62Z" fill="white"/>
<path d="M26.29 44.97C25.27 44.96 24.25 44.97 23.23 44.97C22.23 44.97 21.23 44.97 20.24 44.97C19.54 44.97 19.14 45.3 19.12 45.86C19.1 46.45 19.51 46.84 20.23 46.84C22.25 46.85 24.26 46.85 26.28 46.84C26.95 46.84 27.37 46.46 27.37 45.9C27.38 45.34 26.97 44.98 26.29 44.97Z" fill="white"/>
<path d="M49.5501 44.98C48.8401 44.97 48.1401 44.98 47.4301 44.98C46.7501 44.98 46.0601 44.97 45.3801 44.98C44.7201 44.99 44.3601 45.32 44.3501 45.88C44.3401 46.44 44.7101 46.83 45.3401 46.84C46.7501 46.86 48.1601 46.86 49.5701 46.84C50.1801 46.83 50.6001 46.41 50.5901 45.89C50.5801 45.36 50.1701 44.99 49.5501 44.98Z" fill="white"/>
<path d="M16.2999 44.98C15.5499 44.96 14.7999 44.96 14.0499 44.98C13.4799 44.99 13.1299 45.34 13.1099 45.85C13.0899 46.39 13.4399 46.79 14.0099 46.84C14.3999 46.87 14.7999 46.85 15.1999 46.85C15.5699 46.85 15.9499 46.87 16.3199 46.84C16.8899 46.79 17.2599 46.37 17.2399 45.86C17.2299 45.36 16.8499 44.99 16.2999 44.98Z" fill="white"/>
<path d="M32.4699 44.98C32.0999 44.96 31.7199 44.98 31.3499 44.98C30.9499 44.98 30.5599 44.97 30.1599 44.98C29.6199 45 29.2999 45.3 29.2499 45.82C29.1999 46.35 29.4899 46.76 29.9999 46.8C30.8699 46.87 31.7499 46.87 32.6199 46.8C33.1299 46.76 33.4199 46.36 33.3699 45.82C33.3299 45.29 33.0099 45 32.4699 44.98Z" fill="white"/>
<path d="M40.5 44.98C40.13 44.96 39.75 44.98 39.38 44.98C39.05 44.98 38.71 44.98 38.38 44.98C38.34 44.98 38.3 44.98 38.26 44.98C37.7 45.02 37.35 45.35 37.33 45.87C37.31 46.37 37.66 46.81 38.19 46.83C38.98 46.87 39.77 46.87 40.56 46.83C41.09 46.81 41.47 46.38 41.47 45.9C41.47 45.39 41.07 45 40.5 44.98Z" fill="white"/>
<path d="M11.89 16.11C11.42 16.07 11.04 16.42 11.01 16.88C10.99 17.32 11.37 17.73 11.81 17.75C12.26 17.76 12.65 17.39 12.64 16.93C12.64 16.43 12.38 16.15 11.89 16.11Z" fill="white"/>
<path d="M15.14 17.74C15.58 17.75 15.98 17.34 15.98 16.91C15.98 16.45 15.6 16.09 15.13 16.11C14.64 16.13 14.37 16.41 14.34 16.89C14.32 17.35 14.69 17.74 15.14 17.74Z" fill="white"/>
<path d="M18.27 17.74C18.72 17.72 19.08 17.32 19.06 16.87C19.04 16.41 18.65 16.07 18.18 16.11C17.68 16.15 17.44 16.47 17.42 16.93C17.4 17.37 17.83 17.76 18.27 17.74Z" fill="white"/>
<path d="M15.14 11.33C15.59 11.36 15.98 10.95 15.98 10.51C15.98 10.06 15.58 9.68001 15.13 9.69001C14.67 9.70001 14.31 10.08 14.34 10.55C14.37 11.04 14.67 11.29 15.14 11.33Z" fill="white"/>
<path d="M18.2101 11.33C18.6801 11.32 18.9901 11.07 19.0501 10.59C19.1001 10.13 18.7601 9.73001 18.3001 9.69001C17.8601 9.66001 17.4401 10.02 17.4101 10.47C17.3901 10.9 17.7701 11.34 18.2101 11.33Z" fill="white"/>
<path d="M11.85 11.33C12.3 11.33 12.66 10.94 12.65 10.48C12.64 10.02 12.25 9.64001 11.8 9.69001C11.33 9.74001 11.04 10.02 11.02 10.5C11 10.95 11.4 11.34 11.85 11.33Z" fill="white"/>
<path d="M43.38 11.33C43.83 11.33 44.21 10.93 44.2 10.49C44.19 10.04 43.79 9.65002 43.34 9.69002C42.86 9.73002 42.58 10.02 42.56 10.5C42.53 10.95 42.92 11.34 43.38 11.33Z" fill="white"/>
<path d="M40.0899 11.33C40.5399 11.31 40.8999 10.92 40.8799 10.46C40.8599 10.01 40.4499 9.63001 40.0099 9.69001C39.5399 9.75001 39.2599 10.02 39.2499 10.52C39.2399 10.98 39.6399 11.35 40.0899 11.33Z" fill="white"/>
<path d="M46.46 11.33C46.93 11.3 47.23 11.05 47.27 10.56C47.3 10.09 46.95 9.70999 46.49 9.68999C46.04 9.66999 45.64 10.05 45.63 10.5C45.63 10.94 46.02 11.36 46.46 11.33Z" fill="white"/>
<path d="M11.8501 4.92002C12.3201 4.92002 12.6701 4.56002 12.6501 4.08002C12.6401 3.62002 12.2401 3.24002 11.8001 3.29002C11.3301 3.34002 11.0501 3.62002 11.0201 4.11002C10.9901 4.56002 11.3801 4.92002 11.8501 4.92002Z" fill="white"/>
<path d="M15.12 4.91C15.59 4.94 15.97 4.57 15.98 4.12C15.99 3.68 15.59 3.28 15.15 3.28C14.7 3.28 14.32 3.66 14.34 4.12C14.37 4.61 14.63 4.89 15.12 4.91Z" fill="white"/>
<path d="M18.28 4.91002C18.78 4.88002 19.03 4.59002 19.06 4.11002C19.09 3.66002 18.69 3.27002 18.24 3.27002C17.8 3.27002 17.41 3.67002 17.42 4.12002C17.43 4.58002 17.81 4.94002 18.28 4.91002Z" fill="white"/>
<path d="M40 4.91002C40.47 4.95002 40.85 4.61002 40.87 4.15002C40.89 3.70002 40.53 3.30002 40.08 3.28002C39.64 3.26002 39.23 3.64002 39.24 4.09002C39.25 4.57002 39.51 4.87002 40 4.91002Z" fill="white"/>
<path d="M43.37 4.91002C43.83 4.92002 44.21 4.54002 44.2 4.09002C44.19 3.64002 43.79 3.26002 43.34 3.28002C42.89 3.30002 42.5 3.70002 42.55 4.15002C42.61 4.62002 42.87 4.90002 43.37 4.91002Z" fill="white"/>
<path d="M46.35 4.91002C46.82 4.98002 47.22 4.66002 47.26 4.20002C47.31 3.73002 46.99 3.33002 46.53 3.28002C46.1 3.23002 45.64 3.60002 45.63 4.04002C45.63 4.51002 45.86 4.84002 46.35 4.91002Z" fill="white"/>
<path d="M40.07 16.1C39.58 16.11 39.3 16.37 39.25 16.86C39.21 17.31 39.58 17.72 40.02 17.74C40.46 17.76 40.86 17.39 40.88 16.94C40.89 16.47 40.54 16.1 40.07 16.1Z" fill="white"/>
<path d="M43.34 16.11C42.84 16.13 42.59 16.43 42.55 16.9C42.52 17.35 42.92 17.74 43.37 17.74C43.82 17.74 44.21 17.35 44.2 16.9C44.19 16.44 43.81 16.08 43.34 16.11Z" fill="white"/>
<path d="M46.5201 16.11C46.0501 16.07 45.6601 16.41 45.6401 16.87C45.6101 17.3 46.0001 17.72 46.4401 17.74C46.8901 17.76 47.2801 17.39 47.2801 16.92C47.2601 16.44 47.0101 16.15 46.5201 16.11Z" fill="white"/>
</svg>
