<svg width="56" height="60" viewBox="0 0 56 60" fill="none" xmlns="http://www.w3.org/2000/svg">
<g clip-path="url(#clip0_14_480)">
<circle cx="42" cy="47" r="13" fill="white"/>
<path d="M19.0479 38.9258C18.374 38.9258 17.832 38.2764 17.832 37.4756C17.832 36.6748 18.3789 36.0254 19.0479 36.0254H25.7031C26.377 36.0254 26.9189 36.6748 26.9189 37.4756C26.9189 38.2764 26.3721 38.9258 25.7031 38.9258H19.0479ZM41.8262 32.915C45.5664 32.915 48.9502 34.4287 51.4014 36.8799C53.8525 39.3311 55.3662 42.7148 55.3662 46.4551C55.3662 50.1953 53.8525 53.5791 51.4014 56.0303C48.9502 58.4814 45.5664 59.9951 41.8262 59.9951C38.0859 59.9951 34.7021 58.4814 32.251 56.0303C29.7998 53.5791 28.2861 50.1953 28.2861 46.4551C28.2861 42.7148 29.7998 39.3311 32.251 36.8799C34.7021 34.4287 38.0859 32.915 41.8262 32.915ZM40.791 40.1221C40.791 39.4531 41.333 38.9111 42.002 38.9111C42.6709 38.9111 43.2129 39.4531 43.2129 40.1221V46.4307L47.9297 49.2236C48.5059 49.5605 48.6963 50.3027 48.3545 50.8789C48.0176 51.4551 47.2754 51.6455 46.6992 51.3037L41.4502 48.1934C41.0596 47.9932 40.791 47.5879 40.791 47.1143V40.1221ZM49.6924 38.5938C47.6807 36.582 44.8975 35.3369 41.8262 35.3369C38.7549 35.3369 35.9717 36.582 33.96 38.5938C31.9482 40.6055 30.7031 43.3887 30.7031 46.46C30.7031 49.5313 31.9482 52.3145 33.96 54.3262C35.9717 56.3379 38.7549 57.583 41.8262 57.583C44.8975 57.583 47.6807 56.3379 49.6924 54.3262C51.7041 52.3145 52.9492 49.5313 52.9492 46.46C52.9492 43.3887 51.7041 40.6055 49.6924 38.5938ZM21.5332 53.6816C22.334 53.6816 22.9834 54.3311 22.9834 55.1318C22.9834 55.9326 22.334 56.582 21.5332 56.582H3.37891C2.45117 56.582 1.60645 56.2012 0.991211 55.5908C0.380859 54.9805 0 54.1357 0 53.208V3.37891C0 2.44629 0.380859 1.60645 0.991211 0.991211C1.60156 0.380859 2.44629 0 3.37891 0H44.834C45.7617 0 46.6064 0.380859 47.2217 0.991211C47.832 1.60156 48.2129 2.44629 48.2129 3.37891V26.4648C48.2129 27.2656 47.5635 27.915 46.7627 27.915C45.9619 27.915 45.3125 27.2656 45.3125 26.4648V3.37891C45.3125 3.25195 45.2588 3.13477 45.1709 3.04688C45.083 2.95898 44.9658 2.90527 44.8389 2.90527H3.37891C3.25195 2.90527 3.12988 2.95898 3.04688 3.04688C2.9541 3.12988 2.90039 3.24707 2.90039 3.37891V53.208C2.90039 53.335 2.9541 53.457 3.04199 53.54C3.12988 53.6279 3.24707 53.6816 3.37402 53.6816H21.5332ZM9.33594 35.3955H12.9736C13.2373 35.3955 13.4521 35.6104 13.4521 35.874V39.5117C13.4521 39.7754 13.2373 39.9902 12.9736 39.9902H9.33594C9.07227 39.9902 8.85742 39.7754 8.85742 39.5117V35.874C8.8623 35.6055 9.07715 35.3955 9.33594 35.3955ZM9.33594 10.4932H12.9736C13.2373 10.4932 13.4521 10.708 13.4521 10.9717V14.6094C13.4521 14.873 13.2373 15.0879 12.9736 15.0879H9.33594C9.07227 15.0879 8.85742 14.873 8.85742 14.6094V10.9717C8.8623 10.708 9.07715 10.4932 9.33594 10.4932ZM19.0479 14.0234C18.374 14.0234 17.832 13.374 17.832 12.5732C17.832 11.7725 18.3789 11.123 19.0479 11.123H36.3623C37.0361 11.123 37.5781 11.7725 37.5781 12.5732C37.5781 13.374 37.0312 14.0234 36.3623 14.0234H19.0479ZM10.8252 27.4121C10.5127 27.6611 10.0635 27.5977 9.74609 27.29C9.71191 27.2656 9.67773 27.2363 9.64355 27.2022L8.12012 25.6299C7.80273 25.2979 7.87598 24.7461 8.28613 24.3945C8.69629 24.043 9.28711 24.0234 9.60938 24.3555L10.4395 25.21L13.1104 23.0615C13.4668 22.7734 14.0137 22.9004 14.3262 23.3398C14.6387 23.7793 14.5996 24.3701 14.2432 24.6582L10.8252 27.4121ZM18.2471 26.1963C17.5732 26.1963 17.0312 25.5469 17.0312 24.7461C17.0312 23.9453 17.5781 23.2959 18.2471 23.2959H35.5615C36.2354 23.2959 36.7773 23.9453 36.7773 24.7461C36.7773 25.5469 36.2305 26.1963 35.5615 26.1963H18.2471Z" fill="white"/>
<path d="M39 41.2109C39 40.542 39.542 40 40.2109 40C40.8799 40 41.4219 40.542 41.4219 41.2109V47.5195L46.1387 50.3125C46.7148 50.6494 46.9053 51.3916 46.5635 51.9678C46.2266 52.5439 45.4844 52.7344 44.9082 52.3926L39.6592 49.2822C39.2686 49.082 39 48.6768 39 48.2031V41.2109Z" fill="#3247D5"/>
</g>
<defs>
<clipPath id="clip0_14_480">
<rect width="55.3662" height="60" fill="white"/>
</clipPath>
</defs>
</svg>
