<svg width="60" height="46" viewBox="0 0 60 46" fill="none" xmlns="http://www.w3.org/2000/svg">
<g clip-path="url(#clip0_3_614)">
<path fill-rule="evenodd" clip-rule="evenodd" d="M56.4649 17.29L57.9297 18.7549C58.0235 18.8459 58.098 18.9548 58.1489 19.0752C58.1998 19.1955 58.226 19.3249 58.226 19.4556C58.226 19.5862 58.1998 19.7156 58.1489 19.836C58.098 19.9563 58.0235 20.0652 57.9297 20.1562L56.7481 21.3379C57.0776 21.9537 57.3239 22.6104 57.4805 23.291H59.0088C59.2678 23.291 59.5162 23.3939 59.6993 23.577C59.8825 23.7602 59.9854 24.0086 59.9854 24.2676V26.3672C59.9854 26.6262 59.8825 26.8746 59.6993 27.0577C59.5162 27.2409 59.2678 27.3438 59.0088 27.3438H57.3389C57.1363 28.0109 56.8456 28.648 56.4746 29.2383L57.5586 30.3174C57.6524 30.4084 57.7269 30.5173 57.7778 30.6377C57.8287 30.758 57.8549 30.8874 57.8549 31.0181C57.8549 31.1487 57.8287 31.2781 57.7778 31.3984C57.7269 31.5188 57.6524 31.6277 57.5586 31.7188L56.0938 33.1836C56.004 33.2794 55.8958 33.3561 55.7757 33.4091C55.6556 33.4622 55.5261 33.4904 55.3948 33.4923C55.2635 33.4941 55.1332 33.4694 55.0117 33.4197C54.8902 33.3701 54.7799 33.2964 54.6875 33.2031L53.5059 32.0215C52.8914 32.3539 52.2342 32.6003 51.5527 32.7539V34.2822C51.5527 34.5412 51.4499 34.7896 51.2667 34.9728C51.0836 35.1559 50.8352 35.2588 50.5762 35.2588H48.4961C48.2371 35.2588 47.9887 35.1559 47.8056 34.9728C47.6224 34.7896 47.5195 34.5412 47.5195 34.2822V32.5928C46.8486 32.3924 46.2068 32.1051 45.6104 31.7383L44.5313 32.8125C44.4402 32.9063 44.3313 32.9808 44.211 33.0317C44.0906 33.0826 43.9613 33.1088 43.8306 33.1088C43.6999 33.1088 43.5706 33.0826 43.4502 33.0317C43.3298 32.9808 43.2209 32.9063 43.1299 32.8125L41.6651 31.3477C41.5713 31.2566 41.4968 31.1477 41.4459 31.0274C41.3949 30.907 41.3687 30.7777 41.3687 30.647C41.3687 30.5163 41.3949 30.3869 41.4459 30.2666C41.4968 30.1462 41.5713 30.0373 41.6651 29.9463L42.8467 28.7646C42.5151 28.1498 42.2687 27.4928 42.1143 26.8115H40.586C40.327 26.8115 40.0786 26.7086 39.8954 26.5255C39.7123 26.3424 39.6094 26.094 39.6094 25.835V23.75C39.6094 23.491 39.7123 23.2426 39.8954 23.0595C40.0786 22.8763 40.327 22.7734 40.586 22.7734H42.2559C42.4585 22.1063 42.7491 21.4692 43.1201 20.8789L42.041 19.7852C41.9473 19.6941 41.8727 19.5852 41.8218 19.4649C41.7709 19.3445 41.7447 19.2152 41.7447 19.0845C41.7447 18.9538 41.7709 18.8244 41.8218 18.7041C41.8727 18.5837 41.9473 18.4748 42.041 18.3838L43.5059 16.9189C43.5969 16.8252 43.7058 16.7506 43.8262 16.6997C43.9465 16.6488 44.0759 16.6226 44.2066 16.6226C44.3372 16.6226 44.4666 16.6488 44.5869 16.6997C44.7073 16.7506 44.8162 16.8252 44.9072 16.9189L46.0889 18.1006C46.7037 17.769 47.3608 17.5226 48.042 17.3682V15.8398C48.042 15.5808 48.1449 15.3325 48.328 15.1493C48.5112 14.9662 48.7596 14.8633 49.0186 14.8633H51.0889C51.3479 14.8633 51.5963 14.9662 51.7794 15.1493C51.9626 15.3325 52.0654 15.5808 52.0654 15.8398V17.5049C52.7326 17.7075 53.3697 17.9981 53.96 18.3691L55.0391 17.29C55.13 17.197 55.2386 17.1231 55.3585 17.0727C55.4785 17.0222 55.6072 16.9962 55.7373 16.9962C55.8674 16.9962 55.9962 17.0222 56.1161 17.0727C56.236 17.1231 56.3446 17.197 56.4356 17.29H56.4649ZM1.709 34.3359C3.13966 32.832 3.72072 32.6416 5.64455 32.29V1.46484C1.15724 1.9043 1.67482 6.05957 1.70412 9.92188C1.70412 10.4395 1.70412 10.7129 1.70412 10.8398V34.3359H1.709ZM7.32423 5.90332H49.4287C49.5833 5.90249 49.7364 5.93276 49.879 5.99232C50.0216 6.05187 50.1508 6.13951 50.2588 6.25C50.3684 6.35871 50.4555 6.488 50.515 6.63045C50.5745 6.7729 50.6052 6.9257 50.6055 7.08008V10.498H48.4326V7.8125H7.32423V33.1348C7.32484 33.3065 7.26343 33.4727 7.1513 33.6028C7.03916 33.7328 6.88384 33.8181 6.71388 33.8428C0.307631 34.834 1.43051e-05 42.4316 6.52833 43.5205H48.4326V40.332H50.6152V44.5312C50.6142 44.8429 50.4895 45.1415 50.2686 45.3613C50.1599 45.4709 50.0306 45.558 49.8881 45.6175C49.7457 45.677 49.5929 45.7077 49.4385 45.708H6.46974C4.71193 45.708 2.27541 44.3311 1.2549 42.876C0.23439 41.4209 -0.0829931 39.6387 1.46665e-05 37.5195V9.94141C1.46665e-05 5.21973 -0.0488138 0.117188 6.52833 0H6.61623C6.80574 0.00257419 6.98655 0.080002 7.11919 0.215388C7.25183 0.350774 7.32554 0.533127 7.32423 0.722656V5.90332ZM49.8047 20.9961C50.6101 20.9961 51.3975 21.2349 52.0671 21.6824C52.7368 22.1299 53.2588 22.7659 53.567 23.51C53.8752 24.2541 53.9559 25.0729 53.7987 25.8628C53.6416 26.6528 53.2537 27.3784 52.6842 27.9479C52.1147 28.5174 51.3891 28.9052 50.5992 29.0624C49.8092 29.2195 48.9904 29.1389 48.2463 28.8306C47.5022 28.5224 46.8662 28.0005 46.4187 27.3308C45.9713 26.6611 45.7324 25.8738 45.7324 25.0684C45.7324 24.5336 45.8378 24.004 46.0424 23.51C46.2471 23.0159 46.547 22.567 46.9252 22.1888C47.3033 21.8107 47.7522 21.5107 48.2463 21.3061C48.7404 21.1014 49.2699 20.9961 49.8047 20.9961Z" fill="#3247D5"/>
<path d="M6.5 32.5V6.5H49L52 19L45 21V29.5L49 33.5V44.5H6L3 43.5L0.5 39L1.5 35.5L6.5 32.5Z" fill="#3247D5"/>
<path fill-rule="evenodd" clip-rule="evenodd" d="M24.2491 25.8142C23.9674 25.7893 23.7069 25.6543 23.5241 25.4386C23.3412 25.2229 23.2508 24.9438 23.2725 24.6618C23.2584 24.5216 23.2728 24.3799 23.3146 24.2453C23.3565 24.1107 23.425 23.9859 23.5162 23.8784C23.6073 23.7708 23.7192 23.6827 23.8451 23.6194C23.971 23.556 24.1084 23.5186 24.2491 23.5095H36.4903C36.7715 23.5356 37.0312 23.6709 37.2138 23.8863C37.3964 24.1017 37.4872 24.3802 37.4668 24.6618C37.4802 24.802 37.4654 24.9434 37.4233 25.0777C37.3811 25.212 37.3126 25.3365 37.2215 25.4439C37.1305 25.5513 37.0189 25.6394 36.8934 25.703C36.7678 25.7666 36.6307 25.8044 36.4903 25.8142H24.2491ZM16.1631 22.3962H20.2842C20.3356 22.3934 20.387 22.4014 20.4351 22.4198C20.4832 22.4382 20.5269 22.4665 20.5633 22.5029C20.5997 22.5393 20.628 22.583 20.6464 22.631C20.6647 22.6791 20.6728 22.7305 20.67 22.7819V26.9079C20.6715 26.9583 20.6624 27.0085 20.6433 27.0551C20.6242 27.1018 20.5956 27.144 20.5593 27.1789C20.523 27.2139 20.4797 27.2408 20.4324 27.2581C20.385 27.2753 20.3345 27.2824 20.2842 27.279H16.1631C16.112 27.2826 16.0607 27.2752 16.0126 27.2574C15.9645 27.2395 15.9208 27.2117 15.8843 27.1757C15.8478 27.1396 15.8194 27.0963 15.801 27.0484C15.7825 27.0006 15.7745 26.9493 15.7774 26.8982V22.7673C15.7746 22.7159 15.7826 22.6645 15.801 22.6164C15.8194 22.5683 15.8477 22.5247 15.8841 22.4883C15.9205 22.4519 15.9642 22.4235 16.0122 22.4052C16.0603 22.3868 16.1117 22.3787 16.1631 22.3816V22.3962ZM16.1631 32.5769H20.2842C20.3356 32.574 20.387 32.5821 20.4351 32.6005C20.4832 32.6189 20.5269 32.6472 20.5633 32.6836C20.5997 32.72 20.628 32.7636 20.6464 32.8117C20.6647 32.8598 20.6728 32.9112 20.67 32.9626V37.0837C20.6728 37.1351 20.6647 37.1865 20.6464 37.2346C20.628 37.2827 20.5997 37.3263 20.5633 37.3627C20.5269 37.3991 20.4832 37.4274 20.4351 37.4458C20.387 37.4642 20.3356 37.4723 20.2842 37.4694H16.1631C16.1117 37.4723 16.0603 37.4642 16.0122 37.4458C15.9642 37.4274 15.9205 37.3991 15.8841 37.3627C15.8477 37.3263 15.8194 37.2827 15.801 37.2346C15.7826 37.1865 15.7746 37.1351 15.7774 37.0837V32.948C15.7746 32.8966 15.7826 32.8451 15.801 32.7971C15.8194 32.749 15.8477 32.7053 15.8841 32.6689C15.9205 32.6325 15.9642 32.6042 16.0122 32.5858C16.0603 32.5674 16.1117 32.5594 16.1631 32.5622V32.5769ZM24.2491 35.9948C23.9683 35.9699 23.7086 35.8357 23.5259 35.621C23.3432 35.4064 23.2522 35.1285 23.2725 34.8474C23.2584 34.7071 23.2728 34.5655 23.3146 34.4308C23.3565 34.2962 23.425 34.1714 23.5162 34.0639C23.6073 33.9564 23.7192 33.8683 23.8451 33.8049C23.971 33.7415 24.1084 33.7042 24.2491 33.695H32.5987C32.8804 33.7199 33.1409 33.8548 33.3237 34.0706C33.5065 34.2863 33.5969 34.5654 33.5752 34.8474C33.5886 34.9872 33.5738 35.1284 33.5316 35.2624C33.4894 35.3965 33.4207 35.5207 33.3297 35.6277C33.2386 35.7347 33.127 35.8223 33.0014 35.8854C32.8758 35.9484 32.7389 35.9857 32.5987 35.9948H24.2491ZM17.3545 17.1081C17.2199 17.2034 17.0544 17.2447 16.8908 17.2239C16.7272 17.2031 16.5773 17.1217 16.4708 16.9958L16.378 16.9177L15.1475 15.653C15.0343 15.5077 14.983 15.3235 15.005 15.1406C15.0269 14.9577 15.1203 14.7909 15.2647 14.6765C15.4091 14.5418 15.5972 14.4637 15.7945 14.4565C15.9918 14.4493 16.1851 14.5135 16.3389 14.6374L16.9932 15.3308L19.3907 13.1189C19.4686 13.0655 19.5567 13.0289 19.6495 13.0116C19.7423 12.9942 19.8377 12.9964 19.9296 13.018C20.0215 13.0396 20.1079 13.0801 20.1833 13.137C20.2586 13.1939 20.3213 13.2659 20.3672 13.3483C20.4969 13.5022 20.5613 13.7007 20.5467 13.9013C20.5321 14.102 20.4396 14.2891 20.2891 14.4226L17.3594 17.1179L17.3545 17.1081ZM24.1905 16.1316C23.6534 16.1316 23.2969 15.5944 23.2969 14.9792C23.2969 14.364 23.6534 13.8269 24.1905 13.8269H38.3506C38.6318 13.853 38.8916 13.9882 39.0742 14.2037C39.2567 14.4191 39.3476 14.6975 39.3272 14.9792C39.3406 15.1193 39.3258 15.2607 39.2836 15.3951C39.2415 15.5294 39.1729 15.6539 39.0819 15.7613C38.9909 15.8687 38.8793 15.9568 38.7537 16.0204C38.6281 16.084 38.4911 16.1218 38.3506 16.1316H24.1905Z" fill="white"/>
</g>
<defs>
<clipPath id="clip0_3_614">
<rect width="60" height="45.708" fill="white"/>
</clipPath>
</defs>
</svg>
