<svg width="53" height="53" viewBox="0 0 53 53" fill="none" xmlns="http://www.w3.org/2000/svg">
<path d="M45 0H0V15H45V0ZM40 10H5V5H40V10ZM35 17.5C31.725 17.5 28.65 18.425 26.025 20H16.25C15.55 20 15 20.55 15 21.25V25H20.65C18.5939 27.9287 17.4936 31.4216 17.5 35C17.5 36.75 17.775 38.425 18.225 40H7.5V17.5H2.5V45H20.65C23.825 49.525 29.05 52.5 35 52.5C44.675 52.5 52.5 44.675 52.5 35C52.5 25.325 44.675 17.5 35 17.5ZM35 47.5C28.1 47.5 22.5 41.9 22.5 35C22.5 28.1 28.1 22.5 35 22.5C41.9 22.5 47.5 28.1 47.5 35C47.5 41.9 41.9 47.5 35 47.5ZM36.25 35.625L43.4 39.85L41.525 42.9L32.5 37.5V25H36.25V35.625Z" fill="white"/>
</svg>
