<svg width="60" height="60" viewBox="0 0 60 60" fill="none" xmlns="http://www.w3.org/2000/svg">
<path d="M7.5 56.25H24.2812C23.9688 57.4414 25.8125 58.6914 25.8125 60H3.75V0H36.416L52.5 16.084V33C51.2695 32.6094 50.0195 28.4141 48.75 28.4141V18.75H33.75V3.75H7.5V56.25ZM37.5 15H46.084L37.5 6.41602V15Z" fill="white"/>
<path fill-rule="evenodd" clip-rule="evenodd" d="M29.5 24C28.3065 24 27.1619 24.4741 26.318 25.318C25.4741 26.1619 25 27.3065 25 28.5V55.5C25 56.6935 25.4741 57.8381 26.318 58.682C27.1619 59.5259 28.3065 60 29.5 60H47.5C48.6935 60 49.8381 59.5259 50.682 58.682C51.5259 57.8381 52 56.6935 52 55.5V36.1815C51.9997 34.9881 51.5255 33.8437 50.6815 33L43 25.3185C42.1563 24.4745 41.0119 24.0003 39.8185 24H29.5ZM34 46.5C34 45.9033 33.7629 45.331 33.341 44.909C32.919 44.4871 32.3467 44.25 31.75 44.25C31.1533 44.25 30.581 44.4871 30.159 44.909C29.7371 45.331 29.5 45.9033 29.5 46.5V53.25C29.5 53.8467 29.7371 54.419 30.159 54.841C30.581 55.2629 31.1533 55.5 31.75 55.5C32.3467 55.5 32.919 55.2629 33.341 54.841C33.7629 54.419 34 53.8467 34 53.25V46.5ZM38.5 39.75C39.0967 39.75 39.669 39.9871 40.091 40.409C40.5129 40.831 40.75 41.4033 40.75 42V53.25C40.75 53.8467 40.5129 54.419 40.091 54.841C39.669 55.2629 39.0967 55.5 38.5 55.5C37.9033 55.5 37.331 55.2629 36.909 54.841C36.4871 54.419 36.25 53.8467 36.25 53.25V42C36.25 41.4033 36.4871 40.831 36.909 40.409C37.331 39.9871 37.9033 39.75 38.5 39.75ZM47.5 37.5C47.5 36.9033 47.2629 36.331 46.841 35.909C46.419 35.4871 45.8467 35.25 45.25 35.25C44.6533 35.25 44.081 35.4871 43.659 35.909C43.2371 36.331 43 36.9033 43 37.5V53.25C43 53.8467 43.2371 54.419 43.659 54.841C44.081 55.2629 44.6533 55.5 45.25 55.5C45.8467 55.5 46.419 55.2629 46.841 54.841C47.2629 54.419 47.5 53.8467 47.5 53.25V37.5Z" fill="white"/>
</svg>
