<svg width="60" height="60" viewBox="0 0 60 60" fill="none" xmlns="http://www.w3.org/2000/svg">
<g clip-path="url(#clip0_14_428)">
<path d="M59.0605 7.51569H0.939487C0.420581 7.51569 -4.88281e-06 7.93615 -4.88281e-06 8.45506V38.5176C-4.88281e-06 39.0365 0.420581 39.4571 0.939487 39.4571C1.45828 39.4571 1.87898 39.0367 1.87898 38.5176V9.39455H58.1211V41.9624H50.4176C49.8987 41.9624 49.4781 42.3828 49.4781 42.9019V50.6054H1.87886V44.5303C1.87886 44.0114 1.45828 43.5908 0.93937 43.5908C0.420581 43.5908 -0.00012207 44.0113 -0.00012207 44.5303V51.5449C-0.00012207 52.0638 0.420464 52.4844 0.93937 52.4844H50.4176C50.6637 52.4844 50.9079 52.3833 51.0819 52.2094L59.725 43.5663C59.899 43.3922 60 43.1482 60 42.902V8.45506C60 7.93615 59.5795 7.51569 59.0605 7.51569ZM51.3569 49.2769V43.8412H56.7926L51.3569 49.2769Z" fill="white"/>
<path d="M0 52V9H59V43.9059H50.2783V52H0Z" fill="white"/>
<path d="M32.8179 25.0207L31.1984 22.2157V18.977C31.1983 18.6413 31.0192 18.3313 30.7286 18.1635L27.9236 16.5439L26.3041 13.7389C26.1362 13.4483 25.8262 13.2693 25.4904 13.2693H22.2516L19.4467 11.6498C19.1561 11.482 18.7978 11.482 18.5072 11.6498L15.7022 13.2694H12.4634C12.1276 13.2694 11.8177 13.4486 11.6498 13.7391L10.0302 16.5441L7.22522 18.1636C6.9346 18.3314 6.75554 18.6415 6.75554 18.9771V22.2159L5.13636 25.0208C4.96854 25.3114 4.96854 25.6697 5.13636 25.9603L6.75589 28.7653V32.0041C6.75589 32.3399 6.93507 32.6498 7.22558 32.8177L10.0306 34.4372L11.6501 37.2422C11.8179 37.5328 12.128 37.7119 12.4636 37.7119H14.0292V47.5365C14.0292 48.2947 14.9244 48.7439 15.5324 48.2881L18.9771 45.7045L22.4219 48.2881C23.0303 48.7443 23.925 48.2938 23.925 47.5365V37.7118H25.4908C25.8265 37.7118 26.1365 37.5326 26.3043 37.2421L27.9238 34.4371L30.7288 32.8175C31.0194 32.6497 31.1985 32.3397 31.1985 32.004V28.7652L32.818 25.9602C32.9857 25.6696 32.9857 25.3113 32.8179 25.0207ZM22.0459 45.6577L19.5407 43.7788C19.2066 43.5282 18.7475 43.5282 18.4133 43.7788L15.9081 45.6577V37.8307L18.5073 39.3313C18.7951 39.4975 19.1589 39.4975 19.4468 39.3313L22.046 37.8307V45.6577H22.0459ZM29.4453 28.0438C29.3629 28.1866 29.3194 28.3487 29.3194 28.5135V31.4618L26.7662 32.936C26.6234 33.0184 26.5048 33.137 26.4224 33.2798L24.9482 35.833H21.9999C21.835 35.833 21.6729 35.8765 21.5302 35.9589L18.9771 37.433L16.424 35.9588C16.2811 35.8764 16.1191 35.8329 15.9543 35.8329H13.006L11.5317 33.2797C11.4494 33.1368 11.3307 33.0183 11.1879 32.9359L8.63487 31.4618V28.5135C8.63487 28.3486 8.5914 28.1865 8.50901 28.0438L7.03479 25.4906L8.50901 22.9375C8.5914 22.7946 8.63487 22.6325 8.63487 22.4678V19.5195L11.188 18.0452C11.3309 17.9629 11.4495 17.8443 11.5319 17.7014L13.0061 15.1482H15.9544C16.1193 15.1482 16.2814 15.1048 16.4241 15.0224L18.9771 13.5483L21.5303 15.0225C21.6732 15.1049 21.8352 15.1484 22 15.1484H24.9483L26.4225 17.7015C26.5049 17.8445 26.6236 17.963 26.7664 18.0454L29.3195 19.5196V22.4679C29.3195 22.6328 29.363 22.7948 29.4454 22.9376L30.9195 25.4906L29.4453 28.0438Z" fill="#3247D5"/>
<path d="M18.977 15.5324C13.486 15.5324 9.01874 19.9996 9.01874 25.4907C9.01874 30.9817 13.486 35.4489 18.977 35.4489C24.4679 35.4489 28.9352 30.9817 28.9352 25.4907C28.9352 19.9996 24.4679 15.5324 18.977 15.5324ZM18.977 33.57C14.5221 33.57 10.8976 29.9457 10.8976 25.4907C10.8976 21.0357 14.522 17.4113 18.977 17.4113C23.432 17.4113 27.0564 21.0357 27.0564 25.4907C27.0564 29.9457 23.432 33.57 18.977 33.57Z" fill="#3247D5"/>
<path d="M25.1204 24.7954L19.609 19.7849C19.6083 19.7842 19.6074 19.7836 19.6065 19.7829C19.2538 19.4637 18.6967 19.4647 18.3451 19.7849L16.4092 21.5448V21.4822C16.4092 20.9633 15.9886 20.5427 15.4697 20.5427C14.9508 20.5427 14.5302 20.9632 14.5302 21.4822V23.2531L12.8336 24.7954C12.4851 25.1121 12.427 25.6569 12.7028 26.0392C13.0263 26.4878 13.6876 26.5581 14.0974 26.1858L14.5302 25.7924V30.5011C14.5302 31.02 14.9508 31.4406 15.4697 31.4406H22.4843C23.0031 31.4406 23.4238 31.0201 23.4238 30.5011V25.7924L23.8566 26.1858C24.2663 26.5583 24.9277 26.4878 25.2512 26.0392C25.5271 25.6569 25.469 25.1122 25.1204 24.7954ZM21.5449 24.238V29.5616H19.9165V26.4927C19.9165 25.9738 19.4959 25.5532 18.977 25.5532C18.4581 25.5532 18.0375 25.9737 18.0375 26.4927V29.5616H16.4091V24.0842L18.9769 21.7498L21.5568 24.095C21.5497 24.1418 21.5449 24.1893 21.5449 24.238Z" fill="#3247D5"/>
<path d="M45.9332 20.5428H36.0126C35.4936 20.5428 35.0731 20.9633 35.0731 21.4823C35.0731 22.0014 35.4935 22.4218 36.0126 22.4218H45.9332C46.4521 22.4218 46.8727 22.0014 46.8727 21.4823C46.8727 20.9633 46.4522 20.5428 45.9332 20.5428Z" fill="#3247D5"/>
<path d="M54.0502 20.5428H49.5408C49.0219 20.5428 48.6013 20.9633 48.6013 21.4823C48.6013 22.0014 49.0218 22.4218 49.5408 22.4218H54.0502C54.5691 22.4218 54.9897 22.0014 54.9897 21.4823C54.9897 20.9633 54.5691 20.5428 54.0502 20.5428Z" fill="#3247D5"/>
<path d="M54.0502 25.5532H36.0126C35.4936 25.5532 35.0731 25.9737 35.0731 26.4927C35.0731 27.0117 35.4935 27.4322 36.0126 27.4322H54.0502C54.5691 27.4322 54.9897 27.0117 54.9897 26.4927C54.9897 25.9737 54.5691 25.5532 54.0502 25.5532Z" fill="#3247D5"/>
<path d="M42.3257 30.5637H36.0126C35.4936 30.5637 35.0731 30.9841 35.0731 31.5032C35.0731 32.0221 35.4935 32.4426 36.0126 32.4426H42.3257C42.8446 32.4426 43.2652 32.0222 43.2652 31.5032C43.2652 30.9841 42.8447 30.5637 42.3257 30.5637Z" fill="#3247D5"/>
<path d="M54.0501 30.5637H45.9333C45.4144 30.5637 44.9938 30.9841 44.9938 31.5032C44.9938 32.0221 45.4142 32.4426 45.9333 32.4426H54.0501C54.569 32.4426 54.9896 32.0222 54.9896 31.5032C54.9895 30.9841 54.569 30.5637 54.0501 30.5637Z" fill="#3247D5"/>
<path d="M49.5406 37.5783H40.5219C40.003 37.5783 39.5824 37.9988 39.5824 38.5178C39.5824 39.0367 40.0029 39.4573 40.5219 39.4573H49.5406C50.0595 39.4573 50.4801 39.0368 50.4801 38.5178C50.4801 37.9988 50.0597 37.5783 49.5406 37.5783Z" fill="#3247D5"/>
</g>
<defs>
<clipPath id="clip0_14_428">
<rect width="60" height="60" fill="white"/>
</clipPath>
</defs>
</svg>
