<svg width="51" height="60" viewBox="0 0 51 60" fill="none" xmlns="http://www.w3.org/2000/svg">
<g clip-path="url(#clip0_14_476)">
<path d="M1.5 53.5V1.5H49.5V55L47.5 53.5L42 58L36 53.5L31.5 58L25 53.5L20 58L14 52.5L9 58L3.5 52.5L1.5 53.5Z" fill="white"/>
<path d="M48.418 55.6201L47.4023 54.4531L41.9336 59.9219L36.3721 54.5117L30.9033 59.7607L25.1807 54.4727L19.8096 60L14.2871 54.4775L8.63281 59.8486L3.22754 54.3994L0 58.1055V0H50.5908V58.1055L48.418 55.6055V55.6201ZM48.1152 51.4941V2.47559H2.47559V51.5039L3.11035 50.7715L8.68652 56.4014L14.3359 51.0303L19.79 56.4844L25.0879 51.0254L30.874 56.3672L36.3818 51.0791L41.9092 56.4502L47.5244 50.8301L48.1152 51.5088V51.4941Z" fill="white"/>
<path d="M44.0651 22.3818C44.328 22.3818 44.5802 22.4863 44.766 22.6722C44.9519 22.858 45.0564 23.1102 45.0564 23.373C45.0564 23.6359 44.9519 23.8881 44.766 24.0739C44.5802 24.2598 44.328 24.3643 44.0651 24.3643H34.7878C34.5249 24.3643 34.2728 24.2598 34.0869 24.0739C33.901 23.8881 33.7966 23.6359 33.7966 23.373C33.7966 23.1102 33.901 22.858 34.0869 22.6722C34.2728 22.4863 34.5249 22.3818 34.7878 22.3818H44.0651ZM42.4929 36.5811C42.6404 36.5711 42.7883 36.5916 42.9276 36.6412C43.0668 36.6908 43.1944 36.7685 43.3024 36.8694C43.4104 36.9704 43.4964 37.0925 43.5553 37.2281C43.6142 37.3636 43.6445 37.5099 43.6445 37.6577C43.6445 37.8055 43.6142 37.9518 43.5553 38.0874C43.4964 38.223 43.4104 38.345 43.3024 38.446C43.1944 38.5469 43.0668 38.6246 42.9276 38.6742C42.7883 38.7238 42.6404 38.7443 42.4929 38.7344H9.00655C8.73354 38.716 8.4777 38.5946 8.29083 38.3947C8.10396 38.1948 8 37.9314 8 37.6577C8 37.3841 8.10396 37.1207 8.29083 36.9208C8.4777 36.7209 8.73354 36.5995 9.00655 36.5811H42.4929ZM37.5661 43.7246C37.8391 43.743 38.095 43.8644 38.2818 44.0643C38.4687 44.2642 38.5727 44.5276 38.5727 44.8013C38.5727 45.0749 38.4687 45.3383 38.2818 45.5382C38.095 45.7381 37.8391 45.8595 37.5661 45.8779H9.00655C8.73354 45.8595 8.4777 45.7381 8.29083 45.5382C8.10396 45.3383 8 45.0749 8 44.8013C8 44.5276 8.10396 44.2642 8.29083 44.0643C8.4777 43.8644 8.73354 43.743 9.00655 43.7246H37.5661ZM42.4929 29.4375C42.6404 29.4276 42.7883 29.448 42.9276 29.4976C43.0668 29.5472 43.1944 29.6249 43.3024 29.7259C43.4104 29.8268 43.4964 29.9489 43.5553 30.0845C43.6142 30.2201 43.6445 30.3663 43.6445 30.5142C43.6445 30.662 43.6142 30.8082 43.5553 30.9438C43.4964 31.0794 43.4104 31.2015 43.3024 31.3024C43.1944 31.4034 43.0668 31.4811 42.9276 31.5307C42.7883 31.5803 42.6404 31.6008 42.4929 31.5908H9.00655C8.73354 31.5724 8.4777 31.451 8.29083 31.2511C8.10396 31.0512 8 30.7878 8 30.5142C8 30.2405 8.10396 29.9771 8.29083 29.7772C8.4777 29.5773 8.73354 29.4559 9.00655 29.4375H42.4929ZM8.66476 13.9395L18.8747 6L29.1286 13.9395H8.66476ZM8.55734 22.7969H9.75851L10.6569 22.1182V16.5664H9.28976V15.0576H28.4597V16.5664H27.0925V22.1182L27.9909 22.7969H29.1921V25.0918H8.55734V22.7969ZM15.2956 22.1182V16.5664H13.1814V22.1182H15.2956ZM19.9294 22.1182V16.5664H17.8151V22.1182H19.9294ZM24.5681 22.1182V16.5664H22.4538V22.1182H24.5681ZM44.0651 15.2236C44.328 15.2236 44.5802 15.3281 44.766 15.514C44.9519 15.6998 45.0564 15.952 45.0564 16.2148C45.0564 16.4777 44.9519 16.7298 44.766 16.9157C44.5802 17.1016 44.328 17.2061 44.0651 17.2061H34.7878C34.5249 17.2061 34.2728 17.1016 34.0869 16.9157C33.901 16.7298 33.7966 16.4777 33.7966 16.2148C33.7966 15.952 33.901 15.6998 34.0869 15.514C34.2728 15.3281 34.5249 15.2236 34.7878 15.2236H44.0651Z" fill="#3247D5"/>
</g>
<defs>
<clipPath id="clip0_14_476">
<rect width="50.5908" height="60" fill="white"/>
</clipPath>
</defs>
</svg>
