<svg width="75" height="54" viewBox="0 0 75 54" fill="none" xmlns="http://www.w3.org/2000/svg">
<path d="M11.25 8.25V34.5C11.25 38.6367 14.6133 42 18.75 42H67.5C71.6367 42 75 38.6367 75 34.5V8.25C75 4.11328 71.6367 0.75 67.5 0.75H18.75C14.6133 0.75 11.25 4.11328 11.25 8.25ZM18.75 27C22.8867 27 26.25 30.3633 26.25 34.5H18.75V27ZM26.25 8.25C26.25 12.3867 22.8867 15.75 18.75 15.75V8.25H26.25ZM67.5 27V34.5H60C60 30.3633 63.3633 27 67.5 27ZM60 8.25H67.5V15.75C63.3633 15.75 60 12.3867 60 8.25ZM52.5 21.375C52.5 26.5547 48.3047 30.75 43.125 30.75C37.9453 30.75 33.75 26.5547 33.75 21.375C33.75 16.1953 37.9453 12 43.125 12C48.3047 12 52.5 16.1953 52.5 21.375ZM5.625 11.0625C5.625 9.50391 4.37109 8.25 2.8125 8.25C1.25391 8.25 0 9.50391 0 11.0625V39.1875C0 46.957 6.29297 53.25 14.0625 53.25H60.9375C62.4961 53.25 63.75 51.9961 63.75 50.4375C63.75 48.8789 62.4961 47.625 60.9375 47.625H14.0625C9.39844 47.625 5.625 43.8516 5.625 39.1875V11.0625Z" fill="white"/>
</svg>
