<svg width="64" height="64" viewBox="0 0 64 64" fill="none" xmlns="http://www.w3.org/2000/svg">
<path d="M63.89 52.85C63.26 49.7 60.46 47.83 57.31 48.48C56.25 48.7 55.21 48.97 54.15 49.19C50.58 49.96 47.05 50.96 43.44 51.54C41.66 51.83 39.89 51.61 37.98 50.97C38.18 50.88 38.27 50.86 38.33 50.8C41.81 47.79 41.02 42.74 36.79 40.97C32.81 39.31 28.82 37.66 24.84 36.01C24.37 35.81 23.9 35.72 23.39 35.72C20.04 35.73 16.69 35.73 13.33 35.73C11.99 35.73 11.99 35.73 11.98 34.37C11.97 33.24 11.51 32.77 10.4 32.77C7.51002 32.77 4.61002 32.79 1.72002 32.76C0.96002 32.75 0.40002 32.98 0.0200195 33.63C0.0200195 41.21 0.0200195 48.79 0.0200195 56.37C0.32002 56.83 0.66002 57.24 1.28002 57.24C4.42002 57.24 7.57002 57.25 10.71 57.23C11.41 57.23 11.88 56.77 11.97 56.08C12 55.83 12.01 55.58 11.98 55.33C11.93 54.89 12.1 54.77 12.53 54.78C13.88 54.81 15.24 54.79 16.59 54.79C16.88 54.79 17.17 54.79 17.45 54.66C17.95 54.42 18.23 53.88 18.13 53.31C18.03 52.73 17.55 52.31 16.89 52.3C15.43 52.28 13.97 52.27 12.52 52.3C12.07 52.31 11.98 52.17 11.98 51.74C12 47.41 12 43.08 11.98 38.75C11.98 38.31 12.1 38.21 12.53 38.21C16.09 38.23 19.65 38.22 23.21 38.22C23.46 38.22 23.7 38.24 23.94 38.34C27.96 40.01 31.99 41.67 36.01 43.35C37.74 44.07 38.46 45.83 37.76 47.51C37.07 49.18 35.3 49.94 33.58 49.3C32.92 49.05 32.26 48.79 31.6 48.54C29.51 47.74 27.42 46.92 25.32 46.13C24.6 45.86 23.91 46.16 23.65 46.79C23.38 47.46 23.69 48.15 24.42 48.46C24.48 48.48 24.54 48.5 24.6 48.52C28.63 50.07 32.65 51.63 36.69 53.16C39.49 54.22 42.36 54.41 45.28 53.75C49.43 52.81 53.58 51.86 57.74 50.91C59.8 50.44 61.64 51.97 61.48 54C61.37 55.36 60.44 56.31 58.87 56.71C54.5 57.82 50.13 58.9 45.77 60.06C43 60.8 40.25 61.15 37.48 60.2C35.89 59.66 34.34 59.01 32.77 58.4C31.13 57.76 29.49 57.1 27.84 56.48C26.83 56.1 25.92 56.85 26.11 57.87C26.21 58.4 26.58 58.67 27.05 58.85C29.62 59.85 32.22 60.79 34.75 61.88C38.4 63.45 42.08 63.63 45.9 62.6C50.45 61.37 55.03 60.26 59.6 59.1C61.81 58.54 63.24 57.19 63.83 54.97C63.86 54.87 63.84 54.76 63.97 54.72C63.97 54.14 63.97 53.55 63.97 52.97C63.95 52.95 63.9 52.91 63.89 52.85ZM8.91002 54.75C6.93002 54.72 4.96002 54.73 2.98002 54.75C2.59002 54.75 2.50002 54.64 2.50002 54.27C2.51002 48.11 2.51002 41.95 2.50002 35.79C2.50002 35.4 2.57002 35.26 3.00002 35.26C4.98002 35.28 6.95002 35.28 8.93002 35.26C9.37002 35.25 9.49002 35.37 9.48002 35.81C9.46002 38.87 9.47002 41.93 9.47002 44.99C9.47002 48.05 9.46002 51.11 9.48002 54.17C9.49002 54.63 9.38002 54.76 8.91002 54.75Z" fill="white"/>
<path d="M45.3001 24.8C46.3901 25.08 46.9201 24.77 47.1901 23.7C47.4401 22.68 47.5401 21.65 47.5501 20.52C47.5401 19.52 47.4501 18.45 47.1601 17.39C46.9101 16.45 46.3301 16.12 45.3901 16.37C44.3401 16.66 43.4501 16.33 42.9701 15.49C42.5001 14.67 42.6601 13.74 43.4101 13C44.1301 12.29 44.1301 11.58 43.4201 10.9C41.8701 9.43001 40.0801 8.37001 38.0301 7.75001C36.9301 7.42001 36.4001 7.72001 36.1001 8.84001C35.8301 9.85001 35.0501 10.44 34.0501 10.4C33.1201 10.36 32.4901 9.80001 32.2001 8.75001C31.9301 7.77001 31.3501 7.45001 30.3701 7.73001C28.2801 8.34001 26.4501 9.41001 24.8701 10.92C24.1601 11.6 24.1701 12.27 24.8701 12.97C25.6501 13.74 25.8201 14.67 25.3301 15.51C24.8501 16.34 23.9501 16.65 22.8901 16.37C21.9701 16.12 21.3501 16.48 21.1301 17.41C20.6201 19.53 20.6201 21.65 21.1301 23.78C21.3501 24.71 21.9701 25.08 22.9001 24.84C23.9901 24.56 24.8501 24.86 25.3401 25.69C25.8301 26.53 25.6601 27.44 24.8701 28.23C24.1701 28.92 24.1801 29.6 24.9001 30.28C26.4601 31.77 28.2801 32.82 30.3401 33.45C31.3401 33.75 31.9401 33.41 32.2101 32.4C32.4901 31.39 33.2301 30.78 34.1501 30.78C35.0801 30.78 35.8401 31.42 36.1001 32.41C36.3701 33.42 36.9501 33.75 37.9601 33.45C40.0101 32.84 41.8101 31.8 43.3601 30.33C44.1101 29.61 44.1201 28.93 43.3701 28.19C43.0301 27.86 42.7901 27.48 42.7301 27.01C42.5301 25.5 43.8001 24.41 45.3001 24.8ZM40.7601 28.85C40.8901 29.09 40.8701 29.21 40.6501 29.35C40.3001 29.57 39.9701 29.82 39.6001 30.03C39.1901 30.26 38.7601 30.59 38.3201 30.63C37.8301 30.68 37.7501 30.04 37.4601 29.74C35.4501 27.62 32.0701 27.85 30.4401 30.29C30.1501 30.72 29.9401 30.71 29.5701 30.51C28.9201 30.18 28.2901 29.82 27.7001 29.4C27.4601 29.23 27.4101 29.11 27.5501 28.81C29.0501 25.75 27.1901 22.48 23.8201 22.24C23.4401 22.21 23.3201 22.09 23.2901 21.74C23.2301 20.97 23.2101 20.2 23.3001 19.44C23.3301 19.17 23.3801 19.03 23.7301 19C27.1801 18.78 29.0601 15.5 27.5301 12.38C27.4001 12.12 27.4101 12.01 27.6501 11.84C28.3101 11.37 29.0101 10.96 29.7501 10.62C30.0301 10.49 30.1601 10.52 30.3401 10.79C32.2901 13.65 36.0101 13.66 37.9401 10.81C38.1401 10.52 38.2701 10.48 38.5801 10.63C39.2901 10.97 39.9801 11.35 40.6201 11.83C40.7301 11.91 40.8901 11.95 40.8801 12.15C40.8201 12.26 40.7601 12.37 40.7101 12.48C39.2501 15.45 41.1901 18.82 44.4901 19C44.8501 19.02 44.9901 19.1 45.0101 19.48C45.0401 20.25 45.0501 21.02 45.0001 21.79C44.9801 22.1 44.8901 22.22 44.5601 22.23C41.3601 22.26 39.1101 25.73 40.7601 28.85Z" fill="white"/>
<path d="M12.0101 25.91C13.1901 26.64 14.3901 27.35 15.6101 28.03C16.2001 28.36 16.8301 28.22 17.2201 27.67C18.0301 26.54 18.8201 25.39 19.5801 24.22C19.9701 23.63 19.7801 22.89 19.2201 22.51C18.6601 22.13 17.9501 22.26 17.5101 22.84C17.2701 23.15 17.0601 23.48 16.7701 23.91C16.3901 21.86 16.3701 19.95 16.6701 18.05C18.4901 6.78 30.1601 0.210001 40.6901 4.52C48.1401 7.57 52.6501 15.57 51.3401 23.42C50.7301 27.09 49.1501 30.29 46.5601 32.97C46.3201 33.22 46.0501 33.46 45.9901 33.84C45.8901 34.41 46.1501 34.96 46.6401 35.21C47.1901 35.48 47.7301 35.37 48.2601 34.8C53.4001 29.3 55.2201 22.87 53.3401 15.57C50.5601 4.76 39.3301 -1.59 28.5901 1.45C19.7501 3.95 13.8001 11.99 13.9801 21.18C14.0001 22.21 14.1301 23.23 14.2701 24.35C13.8801 24.13 13.5901 23.94 13.2801 23.79C12.6401 23.47 11.9501 23.68 11.6101 24.28C11.2801 24.84 11.4201 25.54 12.0101 25.91Z" fill="white"/>
<path d="M42.73 35.74C42.06 35.75 41.52 36.29 41.51 36.97C41.5 37.65 42.1 38.24 42.78 38.22C43.44 38.2 43.99 37.65 43.99 36.97C44 36.26 43.44 35.73 42.73 35.74Z" fill="white"/>
<path d="M21.97 54.31C21.29 54.32 20.75 54.87 20.75 55.56C20.75 56.24 21.29 56.77 21.98 56.78C22.68 56.79 23.22 56.27 23.23 55.58C23.26 54.87 22.68 54.3 21.97 54.31Z" fill="white"/>
<path d="M34.14 15.18C31.17 15.19 28.75 17.61 28.75 20.58C28.74 23.56 31.14 25.99 34.11 26.01C37.11 26.03 39.56 23.62 39.58 20.62C39.58 17.64 37.11 15.16 34.14 15.18ZM34.15 23.51C32.53 23.51 31.23 22.2 31.24 20.57C31.25 18.98 32.56 17.68 34.15 17.68C35.76 17.68 37.09 19.03 37.07 20.63C37.04 22.22 35.74 23.51 34.15 23.51Z" fill="white"/>
</svg>
