<svg width="64" height="64" viewBox="0 0 64 64" fill="none" xmlns="http://www.w3.org/2000/svg">
<g clip-path="url(#clip0_1_1670)">
<path d="M63.61 1.78001C62.98 0.74001 62.09 0.13001 60.87 0.0100098C41.63 0.0100098 22.38 0.0100098 3.14002 0.0100098C1.36002 0.24001 0.34002 1.26001 0.0200195 3.01001C0.0200195 20.17 0.0200195 37.33 0.0200195 54.49C0.18002 55.71 0.820019 56.6 1.90002 57.18C2.62002 57.56 3.39002 57.68 4.19002 57.67C11.89 57.66 19.59 57.67 27.29 57.65C27.97 57.65 28.48 57.85 28.94 58.34C29.8 59.25 30.69 60.13 31.59 60.99C32.32 61.69 33.16 61.8 33.79 61.06C34.6 60.11 35.34 60.2 36.33 60.7C37.62 61.34 37.57 60.9 37.59 62.51C37.6 63.39 37.84 63.7 38.64 63.98C40.72 63.98 42.81 63.98 44.89 63.98C45.55 63.84 45.98 63.39 45.89 62.76C45.7 61.42 46.38 60.96 47.5 60.54C48.36 60.22 48.89 60.17 49.54 60.9C50.36 61.81 51.15 61.75 52.02 60.9C52.89 60.04 53.77 59.18 54.62 58.29C55.05 57.83 55.52 57.62 56.16 57.64C57.43 57.68 58.7 57.65 59.96 57.65C62.18 57.64 63.52 56.6 64.01 54.49C64.01 49.33 64.01 44.16 64.01 39C63.76 39.02 63.66 38.8 63.51 38.67C63.19 38.39 62.83 38.27 62.41 38.42C61.99 38.57 61.79 38.9 61.73 39.32C61.68 39.61 61.7 39.9 61.7 40.19C61.7 44.44 61.7 48.69 61.7 52.93C61.7 53.24 61.72 53.56 61.67 53.87C61.56 54.58 61.12 55.09 60.4 55.13C58.76 55.23 57.11 55.23 55.47 55.14C54.56 55.09 54.14 54.25 54.53 53.43C54.8 52.86 55.04 52.29 55.23 51.69C55.37 51.25 55.66 51.05 56.11 51.05C56.46 51.05 56.82 51.06 57.17 51.03C57.88 50.96 58.28 50.62 58.3 49.93C58.36 48.14 58.35 46.35 58.3 44.56C58.28 43.86 57.89 43.52 57.19 43.44C57.13 43.43 57.06 43.42 57 43.43C55.78 43.65 55.14 43.08 54.9 41.92C54.84 41.64 54.68 41.38 54.56 41.12C54.19 40.33 54.21 40.23 54.83 39.59C54.99 39.43 55.16 39.27 55.3 39.09C55.82 38.45 55.82 37.91 55.24 37.31C54.08 36.11 52.9 34.94 51.71 33.78C51.07 33.16 50.44 33.1 49.86 33.78C49.07 34.72 48.28 34.84 47.28 34.18C47.01 34 46.67 33.9 46.35 33.82C45.76 33.67 45.53 33.29 45.58 32.72C45.58 32.68 45.58 32.64 45.58 32.6C45.56 30.88 45.35 30.68 43.61 30.68C42.21 30.68 40.82 30.67 39.42 30.68C38.36 30.69 37.97 31.06 37.97 32.11C37.97 33.84 37.89 33.53 36.59 34.04C36.18 34.2 35.78 34.38 35.39 34.57C35 34.76 34.67 34.7 34.37 34.41C34.1 34.15 33.85 33.87 33.55 33.64C33 33.22 32.46 33.2 31.97 33.67C30.69 34.89 29.44 36.14 28.22 37.42C27.74 37.92 27.76 38.44 28.17 39C28.38 39.28 28.64 39.53 28.89 39.78C29.23 40.11 29.31 40.47 29.09 40.91C28.79 41.5 28.53 42.12 28.33 42.76C28.18 43.22 27.89 43.44 27.41 43.44C27.06 43.44 26.7 43.42 26.35 43.46C25.66 43.53 25.26 43.89 25.24 44.58C25.19 46.35 25.19 48.12 25.24 49.89C25.26 50.62 25.65 50.98 26.38 51.05C26.41 51.05 26.41 51.06 26.41 51.06C26.41 51.06 26.42 51.06 26.44 51.05C27.78 50.8 28.45 51.45 28.69 52.7C28.74 52.96 28.9 53.2 29.02 53.44C29.13 53.68 29.17 53.9 29.15 54.12C29.15 54.14 29.15 54.16 29.14 54.18C29.08 54.66 28.72 55.05 28.13 55.16C27.88 55.21 27.63 55.19 27.38 55.19C19.74 55.19 12.1 55.19 4.45002 55.19C4.18002 55.19 3.91002 55.2 3.64002 55.15C2.93002 55.03 2.49002 54.58 2.37002 53.87C2.32002 53.58 2.34002 53.29 2.34002 53C2.34002 39.9 2.34002 26.8 2.34002 13.71C2.34002 12.35 2.36002 12.32 3.74002 12.32C22.58 12.32 41.43 12.32 60.27 12.32C61.68 12.32 61.69 12.33 61.69 13.75C61.69 18.27 61.69 22.79 61.69 27.31C61.69 27.6 61.68 27.89 61.72 28.18C61.79 28.6 61.98 28.93 62.4 29.08C62.81 29.23 63.17 29.12 63.5 28.84C63.65 28.71 63.75 28.49 64 28.51C64 20.05 64 11.6 64 3.14001C63.86 2.68001 63.87 2.21001 63.61 1.78001ZM28.76 48.74C27.5 48.72 27.5 48.72 27.5 47.44C27.5 46.92 27.32 46.29 27.55 45.91C27.81 45.48 28.49 45.81 28.99 45.74C29.56 45.66 29.98 45.37 30.11 44.81C30.45 43.36 31 42 31.8 40.75C31.92 40.56 31.99 40.33 31.99 40.25C31.97 39.49 31.56 39.11 31.15 38.77C30.68 38.38 30.59 38.07 31.14 37.7C31.29 37.6 31.41 37.44 31.54 37.31C31.91 36.94 32.23 36.37 32.66 36.26C33.14 36.14 33.4 36.85 33.79 37.15C34.28 37.52 34.77 37.59 35.29 37.27C36.53 36.49 37.87 35.95 39.3 35.61C39.95 35.46 40.24 35 40.25 34.25C40.27 33 40.27 33 41.55 33C42.07 33 42.7 32.82 43.08 33.05C43.5 33.31 43.18 33.99 43.25 34.49C43.33 35.06 43.62 35.48 44.18 35.61C45.63 35.95 46.98 36.51 48.25 37.29C48.83 37.65 49.31 37.52 49.88 37C50.18 36.72 50.44 36.18 50.79 36.22C51.12 36.26 51.39 36.74 51.69 37.04C52.06 37.41 52.63 37.73 52.74 38.16C52.86 38.64 52.15 38.9 51.85 39.29C51.48 39.78 51.41 40.27 51.73 40.79C52.5 42.01 53.03 43.33 53.38 44.74C53.55 45.45 53.98 45.74 54.75 45.75C56.01 45.77 56.01 45.77 56.01 47.05C56.01 47.57 56.19 48.2 55.96 48.58C55.68 49 55 48.67 54.5 48.74C53.92 48.82 53.51 49.11 53.38 49.67C53.04 51.12 52.48 52.47 51.7 53.74C51.34 54.32 51.46 54.81 51.99 55.37C52.86 56.28 52.86 56.28 51.96 57.18C51.59 57.55 51.27 58.12 50.84 58.23C50.36 58.35 50.1 57.64 49.71 57.34C49.22 56.97 48.73 56.89 48.21 57.22C46.97 58 45.63 58.54 44.2 58.88C43.54 59.04 43.26 59.49 43.25 60.23C43.23 61.49 43.23 61.49 41.95 61.49C41.43 61.49 40.8 61.67 40.42 61.44C39.99 61.18 40.32 60.5 40.25 60.01C40.17 59.44 39.88 59.02 39.32 58.89C37.87 58.55 36.52 57.99 35.25 57.21C34.66 56.85 34.18 56.98 33.62 57.5C33.32 57.78 33.06 58.32 32.71 58.28C32.38 58.24 32.11 57.76 31.81 57.47C31.44 57.1 30.87 56.78 30.76 56.35C30.64 55.87 31.35 55.61 31.65 55.22C32.02 54.73 32.1 54.24 31.77 53.72C30.99 52.48 30.45 51.14 30.11 49.71C29.96 49.04 29.51 48.76 28.76 48.74ZM60.92 10.02C51.28 10 41.64 10.01 32 10.01C22.38 10.01 12.76 10.01 3.14002 10.02C2.63002 10.02 2.49002 9.91001 2.50002 9.38001C2.53002 7.59001 2.51002 5.80001 2.51002 4.01001C2.51002 2.97001 2.96002 2.51001 3.98002 2.51001C22.66 2.51001 41.34 2.51001 60.01 2.51001C61.03 2.51001 61.48 2.98001 61.48 4.01001C61.48 5.82001 61.46 7.63001 61.49 9.44001C61.51 9.93001 61.38 10.02 60.92 10.02Z" fill="white"/>
<path d="M63.53 33.02C63.06 32.57 62.4 32.55 61.97 32.99C61.56 33.41 61.56 34.09 61.97 34.51C62.39 34.95 63.06 34.93 63.53 34.48C63.67 34.35 63.71 34.08 63.98 34.13C63.98 33.88 63.98 33.63 63.98 33.38C63.71 33.41 63.67 33.15 63.53 33.02Z" fill="white"/>
<path d="M24.44 21.5C24.18 20.9 23.91 20.83 23.36 21.19C22.56 21.71 22.18 21.66 21.45 21.07C20.79 20.55 20.09 20.13 19.29 19.85C18.65 19.62 18.31 19.18 18.34 18.48C18.35 18.31 18.32 18.14 18.34 17.98C18.4 17.58 18.22 17.49 17.85 17.5C17.19 17.53 16.52 17.55 15.85 17.5C15.34 17.46 15.24 17.65 15.25 18.12C15.28 19.31 15.11 19.54 14 19.97C13.28 20.25 12.63 20.66 12.04 21.16C11.51 21.6 10.96 21.64 10.37 21.29C10.21 21.19 10.04 21.12 9.89 21.01C9.65 20.83 9.51 20.87 9.37 21.14C9.05 21.74 8.73 22.36 8.34 22.92C8.02 23.38 8.12 23.57 8.59 23.82C9.56 24.33 9.67 24.59 9.53 25.66C9.42 26.49 9.43 27.32 9.57 28.15C9.67 28.75 9.47 29.21 8.95 29.53C8.83 29.61 8.71 29.7 8.57 29.75C8.04 29.94 8.04 30.21 8.34 30.65C8.68 31.14 8.98 31.67 9.24 32.21C9.45 32.64 9.65 32.75 10.06 32.44C10.37 32.21 10.71 31.99 11.17 32.01C11.45 32 11.71 32.12 11.94 32.31C12.68 32.93 13.5 33.4 14.41 33.74C14.92 33.93 15.21 34.31 15.25 34.87C15.26 35.02 15.28 35.17 15.25 35.31C15.13 35.94 15.41 36.09 15.99 36.03C16.55 35.98 17.12 35.97 17.67 36.03C18.24 36.09 18.36 35.88 18.34 35.34C18.3 34.23 18.48 34.02 19.48 33.62C20.08 33.38 20.69 33.12 21.15 32.67C21.96 31.89 22.77 31.83 23.65 32.51C23.95 32.74 24.1 32.64 24.26 32.34C24.57 31.75 24.88 31.16 25.26 30.62C25.57 30.18 25.47 29.99 25.02 29.75C24 29.2 23.89 28.92 24.07 27.79C24.17 27.19 24.23 26.56 24.09 25.99C23.82 24.87 24.14 24.12 25.21 23.69C25.5 23.57 25.56 23.42 25.37 23.13C25.04 22.59 24.69 22.06 24.44 21.5ZM16.76 31C14.43 30.99 12.51 29.05 12.53 26.73C12.55 24.4 14.49 22.49 16.82 22.51C19.16 22.53 21.04 24.44 21.02 26.79C21.02 29.15 19.12 31.02 16.76 31Z" fill="white"/>
<path d="M56.11 5.02001C55.92 5.00001 55.74 5.01001 55.55 5.01001C51.2 5.01001 46.85 5.01001 42.5 5.01001C38.15 5.01001 33.8 5.01001 29.45 5.01001C29.26 5.01001 29.07 5.00001 28.89 5.02001C28.25 5.09001 27.78 5.60001 27.76 6.23001C27.74 6.88001 28.22 7.43001 28.89 7.50001C29.08 7.52001 29.26 7.51001 29.45 7.51001C38.15 7.51001 46.85 7.51001 55.55 7.51001C55.74 7.51001 55.93 7.52001 56.11 7.50001C56.77 7.43001 57.26 6.88001 57.24 6.23001C57.22 5.61001 56.75 5.09001 56.11 5.02001Z" fill="white"/>
<path d="M8.05001 5.01001C7.36001 4.98001 6.77001 5.55001 6.76001 6.24001C6.76001 6.91001 7.30001 7.48001 7.96001 7.50001C8.65001 7.53001 9.24001 6.96001 9.25001 6.27001C9.26001 5.60001 8.72001 5.03001 8.05001 5.01001Z" fill="white"/>
<path d="M13.48 5.01002C12.81 5.02002 12.26 5.59002 12.26 6.25002C12.26 6.94002 12.84 7.52002 13.53 7.50002C14.2 7.48002 14.75 6.92002 14.75 6.26002C14.76 5.57002 14.17 4.99002 13.48 5.01002Z" fill="white"/>
<path d="M19.02 5.01002C18.35 5.00002 17.78 5.54002 17.76 6.21002C17.73 6.90002 18.3 7.49002 18.99 7.50002C19.66 7.51002 20.23 6.97002 20.25 6.30002C20.28 5.62002 19.71 5.02002 19.02 5.01002Z" fill="white"/>
<path d="M41.72 55.37C46.22 55.38 49.87 51.77 49.88 47.28C49.9 42.77 46.29 39.12 41.81 39.1C37.27 39.08 33.62 42.7 33.62 47.22C33.61 51.72 37.23 55.37 41.72 55.37ZM41.74 41.61C44.86 41.61 47.38 44.12 47.38 47.24C47.38 50.36 44.87 52.88 41.75 52.88C38.63 52.88 36.11 50.37 36.11 47.25C36.11 44.13 38.62 41.61 41.74 41.61Z" fill="white"/>
<path d="M16.77 25.01C15.82 25.02 15.02 25.84 15.04 26.78C15.06 27.73 15.86 28.51 16.81 28.5C17.78 28.49 18.53 27.71 18.52 26.74C18.52 25.78 17.72 25 16.77 25.01Z" fill="white"/>
</g>
<defs>
<clipPath id="clip0_1_1670">
<rect width="64" height="64" fill="white"/>
</clipPath>
</defs>
</svg>
