<svg width="64" height="64" viewBox="0 0 64 64" fill="none" xmlns="http://www.w3.org/2000/svg">
<path d="M63.89 52.85C63.26 49.7 60.46 47.83 57.31 48.48C56.25 48.7 55.21 48.97 54.15 49.19C50.58 49.96 47.05 50.96 43.44 51.54C41.66 51.83 39.89 51.61 37.98 50.97C38.18 50.88 38.27 50.86 38.33 50.8C41.81 47.79 41.02 42.74 36.79 40.97C32.81 39.31 28.82 37.66 24.84 36.01C24.37 35.81 23.9 35.72 23.39 35.72C20.04 35.73 16.69 35.73 13.33 35.73C11.99 35.73 11.99 35.73 11.98 34.37C11.97 33.24 11.51 32.77 10.4 32.77C7.51002 32.77 4.61002 32.79 1.72002 32.76C0.96002 32.75 0.40002 32.98 0.0200195 33.63C0.0200195 41.21 0.0200195 48.79 0.0200195 56.37C0.32002 56.83 0.66002 57.24 1.28002 57.24C4.42002 57.24 7.57002 57.25 10.71 57.23C11.41 57.23 11.88 56.77 11.97 56.08C12 55.83 12.01 55.58 11.98 55.33C11.93 54.89 12.1 54.77 12.53 54.78C13.88 54.81 15.24 54.79 16.59 54.79C16.88 54.79 17.17 54.79 17.45 54.66C17.95 54.42 18.23 53.88 18.13 53.31C18.03 52.73 17.55 52.31 16.89 52.3C15.43 52.28 13.97 52.27 12.52 52.3C12.07 52.31 11.98 52.17 11.98 51.74C12 47.41 12 43.08 11.98 38.75C11.98 38.31 12.1 38.21 12.53 38.21C16.09 38.23 19.65 38.22 23.21 38.22C23.46 38.22 23.7 38.24 23.94 38.34C27.96 40.01 31.99 41.67 36.01 43.35C37.74 44.07 38.46 45.83 37.76 47.51C37.07 49.18 35.3 49.94 33.58 49.3C32.92 49.05 32.26 48.79 31.6 48.54C29.51 47.74 27.42 46.92 25.32 46.13C24.6 45.86 23.91 46.16 23.65 46.79C23.38 47.46 23.69 48.15 24.42 48.46C24.48 48.48 24.54 48.5 24.6 48.52C28.63 50.07 32.65 51.63 36.69 53.16C39.49 54.22 42.36 54.41 45.28 53.75C49.43 52.81 53.58 51.86 57.74 50.91C59.8 50.44 61.64 51.97 61.48 54C61.37 55.36 60.44 56.31 58.87 56.71C54.5 57.82 50.13 58.9 45.77 60.06C43 60.8 40.25 61.15 37.48 60.2C35.89 59.66 34.34 59.01 32.77 58.4C31.13 57.76 29.49 57.1 27.84 56.48C26.83 56.1 25.92 56.85 26.11 57.87C26.21 58.4 26.58 58.67 27.05 58.85C29.62 59.85 32.22 60.79 34.75 61.88C38.4 63.45 42.08 63.63 45.9 62.6C50.45 61.37 55.03 60.26 59.6 59.1C61.81 58.54 63.24 57.19 63.83 54.97C63.86 54.87 63.84 54.76 63.97 54.72C63.97 54.14 63.97 53.55 63.97 52.97C63.95 52.95 63.9 52.91 63.89 52.85ZM8.91002 54.75C6.93002 54.72 4.96002 54.73 2.98002 54.75C2.59002 54.75 2.50002 54.64 2.50002 54.27C2.51002 48.11 2.51002 41.95 2.50002 35.79C2.50002 35.4 2.57002 35.26 3.00002 35.26C4.98002 35.28 6.95002 35.28 8.93002 35.26C9.37002 35.25 9.49002 35.37 9.48002 35.81C9.46002 38.87 9.47002 41.93 9.47002 44.99C9.47002 48.05 9.46002 51.11 9.48002 54.17C9.49002 54.63 9.38002 54.76 8.91002 54.75Z" fill="#3247D5"/>
<path d="M45.3 24.8C46.39 25.08 46.92 24.77 47.19 23.7C47.44 22.68 47.54 21.65 47.55 20.52C47.54 19.52 47.45 18.45 47.16 17.39C46.91 16.45 46.33 16.12 45.39 16.37C44.34 16.66 43.45 16.33 42.97 15.49C42.5 14.67 42.66 13.74 43.41 13C44.13 12.29 44.13 11.58 43.42 10.9C41.87 9.43001 40.08 8.37001 38.03 7.75001C36.93 7.42001 36.4 7.72001 36.1 8.84001C35.83 9.85001 35.05 10.44 34.05 10.4C33.12 10.36 32.49 9.80001 32.2 8.75001C31.93 7.77001 31.35 7.45001 30.37 7.73001C28.28 8.34001 26.45 9.41001 24.87 10.92C24.16 11.6 24.17 12.27 24.87 12.97C25.65 13.74 25.82 14.67 25.33 15.51C24.85 16.34 23.95 16.65 22.89 16.37C21.97 16.12 21.35 16.48 21.13 17.41C20.62 19.53 20.62 21.65 21.13 23.78C21.35 24.71 21.97 25.08 22.9 24.84C23.99 24.56 24.85 24.86 25.34 25.69C25.83 26.53 25.66 27.44 24.87 28.23C24.17 28.92 24.18 29.6 24.9 30.28C26.46 31.77 28.28 32.82 30.34 33.45C31.34 33.75 31.94 33.41 32.21 32.4C32.49 31.39 33.23 30.78 34.15 30.78C35.08 30.78 35.84 31.42 36.1 32.41C36.37 33.42 36.95 33.75 37.96 33.45C40.01 32.84 41.81 31.8 43.36 30.33C44.11 29.61 44.12 28.93 43.37 28.19C43.03 27.86 42.79 27.48 42.73 27.01C42.53 25.5 43.8 24.41 45.3 24.8ZM40.76 28.85C40.89 29.09 40.87 29.21 40.65 29.35C40.3 29.57 39.97 29.82 39.6 30.03C39.19 30.26 38.76 30.59 38.32 30.63C37.83 30.68 37.75 30.04 37.46 29.74C35.45 27.62 32.07 27.85 30.44 30.29C30.15 30.72 29.94 30.71 29.57 30.51C28.92 30.18 28.29 29.82 27.7 29.4C27.46 29.23 27.41 29.11 27.55 28.81C29.05 25.75 27.19 22.48 23.82 22.24C23.44 22.21 23.32 22.09 23.29 21.74C23.23 20.97 23.21 20.2 23.3 19.44C23.33 19.17 23.38 19.03 23.73 19C27.18 18.78 29.06 15.5 27.53 12.38C27.4 12.12 27.41 12.01 27.65 11.84C28.31 11.37 29.01 10.96 29.75 10.62C30.03 10.49 30.16 10.52 30.34 10.79C32.29 13.65 36.01 13.66 37.94 10.81C38.14 10.52 38.27 10.48 38.58 10.63C39.29 10.97 39.98 11.35 40.62 11.83C40.73 11.91 40.89 11.95 40.88 12.15C40.82 12.26 40.76 12.37 40.71 12.48C39.25 15.45 41.19 18.82 44.49 19C44.85 19.02 44.99 19.1 45.01 19.48C45.04 20.25 45.05 21.02 45 21.79C44.98 22.1 44.89 22.22 44.56 22.23C41.36 22.26 39.11 25.73 40.76 28.85Z" fill="#3247D5"/>
<path d="M12.01 25.91C13.19 26.64 14.39 27.35 15.61 28.03C16.2 28.36 16.83 28.22 17.22 27.67C18.03 26.54 18.82 25.39 19.58 24.22C19.97 23.63 19.78 22.89 19.22 22.51C18.66 22.13 17.95 22.26 17.51 22.84C17.27 23.15 17.06 23.48 16.77 23.91C16.39 21.86 16.37 19.95 16.67 18.05C18.49 6.78 30.16 0.210001 40.69 4.52C48.14 7.57 52.65 15.57 51.34 23.42C50.73 27.09 49.15 30.29 46.56 32.97C46.32 33.22 46.05 33.46 45.99 33.84C45.89 34.41 46.15 34.96 46.64 35.21C47.19 35.48 47.73 35.37 48.26 34.8C53.4 29.3 55.22 22.87 53.34 15.57C50.56 4.76 39.33 -1.59 28.59 1.45C19.75 3.95 13.8 11.99 13.98 21.18C14 22.21 14.13 23.23 14.27 24.35C13.88 24.13 13.59 23.94 13.28 23.79C12.64 23.47 11.95 23.68 11.61 24.28C11.28 24.84 11.42 25.54 12.01 25.91Z" fill="#3247D5"/>
<path d="M42.73 35.74C42.06 35.75 41.52 36.29 41.51 36.97C41.5 37.65 42.1 38.24 42.78 38.22C43.44 38.2 43.99 37.65 43.99 36.97C44 36.26 43.44 35.73 42.73 35.74Z" fill="#3247D5"/>
<path d="M21.97 54.31C21.29 54.32 20.75 54.87 20.75 55.56C20.75 56.24 21.29 56.77 21.98 56.78C22.68 56.79 23.22 56.27 23.23 55.58C23.26 54.87 22.68 54.3 21.97 54.31Z" fill="#3247D5"/>
<path d="M34.14 15.18C31.17 15.19 28.75 17.61 28.75 20.58C28.74 23.56 31.14 25.99 34.11 26.01C37.11 26.03 39.56 23.62 39.58 20.62C39.58 17.64 37.11 15.16 34.14 15.18ZM34.15 23.51C32.53 23.51 31.23 22.2 31.24 20.57C31.25 18.98 32.56 17.68 34.15 17.68C35.76 17.68 37.09 19.03 37.07 20.63C37.04 22.22 35.74 23.51 34.15 23.51Z" fill="#3247D5"/>
</svg>
