<svg width="58" height="56" viewBox="0 0 58 56" fill="none" xmlns="http://www.w3.org/2000/svg">
<path d="M57.31 47.51C56.32 46.79 55.31 46.08 54.31 45.37C52.72 44.23 51.12 43.1 49.54 41.96C49.19 41.71 48.83 41.6 48.44 41.8C48.06 41.99 47.96 42.34 47.97 42.75C47.98 43.23 47.95 43.71 47.98 44.19C48.01 44.59 47.86 44.68 47.49 44.67C45.66 44.65 43.83 44.66 41.99 44.66C41.18 44.66 40.38 44.66 39.48 44.66C39.72 44.3 39.92 44.01 40.11 43.72C42.94 39.39 44.05 34.64 43.19 29.55C41.94 22.18 37.76 17.02 30.9 14.05C30.5 13.87 30.4 13.74 30.54 13.3C31.69 9.70999 35.19 7.14999 38.94 7.17999C42.82 7.20999 46.2 9.70999 47.31 13.39C47.69 14.65 47.69 14.65 46.37 14.65C46.33 14.65 46.29 14.65 46.25 14.65C45.78 14.64 45.33 14.68 45.08 15.18C44.85 15.66 45.1 16.01 45.36 16.38C46.87 18.49 48.38 20.61 49.9 22.72C50.56 23.64 51.13 23.64 51.79 22.71C53.29 20.62 54.79 18.52 56.29 16.42C56.56 16.04 56.85 15.67 56.6 15.17C56.34 14.65 55.86 14.64 55.37 14.64C53.97 14.64 53.97 14.64 53.74 13.27C52.39 5.06999 44.03 -0.630009 35.91 1.19999C29.94 2.53999 26.08 6.22999 24.35 12.12C24.25 12.46 24.13 12.62 23.73 12.6C22.67 12.54 21.61 12.61 20.55 12.77C11.69 14.07 4.77998 21 3.51998 29.86C3.42998 30.47 3.57998 31.36 3.23998 31.63C2.82998 31.94 2.00998 31.74 1.36998 31.73C0.889976 31.72 0.429976 31.75 0.199976 32.24C-0.0200243 32.7 0.199976 33.07 0.469976 33.44C2.27998 35.96 4.06998 38.48 5.87998 41C6.52998 41.91 7.10998 41.9 7.76998 40.97C9.22998 38.92 10.69 36.87 12.16 34.82C12.52 34.31 12.88 33.8 13.25 33.3C13.5 32.96 13.62 32.6 13.4 32.2C13.19 31.83 12.86 31.71 12.46 31.72C12.09 31.73 11.71 31.72 11.34 31.72C10.24 31.72 10.24 31.72 10.43 30.61C11.72 23.18 18.37 18.47 25.81 19.72C33.1 20.95 38.02 28.57 36.11 35.72C35.5 38 34.29 39.93 32.47 41.56C32.33 41.22 32.23 40.97 32.11 40.73C31.03 38.47 28.53 36.91 26.2 37.02C26.01 37.03 25.76 37.23 25.64 36.98C25.51 36.72 25.77 36.58 25.94 36.44C26.85 35.63 27.45 34.63 27.79 33.46C28.05 32.56 28.03 31.65 28 30.73C27.99 30.17 28.1 29.68 28.37 29.19C29.33 27.43 29.03 25.97 27.49 24.65C27.27 24.46 27.07 24.27 26.96 23.98C26.64 23.08 25.95 22.64 25.05 22.48C22.71 22.05 20.58 22.59 18.68 23.97C17.34 24.94 16.51 26.26 16.76 27.98C16.99 29.55 16.97 31.13 17.11 32.7C17.12 32.84 17.15 32.99 17.18 33.13C17.46 34.4 18.07 35.5 19.04 36.37C19.22 36.53 19.3 36.69 19.25 36.91C19.17 37.22 18.94 37.01 18.79 37.01C17.19 37.02 15.78 37.55 14.56 38.58C12.86 40 12.28 41.95 12.01 44.03C11.95 44.5 11.8 44.64 11.32 44.64C7.98997 44.62 4.65998 44.63 1.31998 44.63C0.369976 44.63 0.0999756 44.9 0.0999756 45.86C0.0999756 47.48 0.0999756 49.11 0.0999756 50.73C0.0999756 51.85 0.329976 52.08 1.43998 52.08C16.68 52.08 31.93 52.08 47.17 52.08C47.29 52.08 47.42 52.09 47.54 52.08C47.86 52.04 47.99 52.15 47.97 52.49C47.94 52.95 47.97 53.41 47.96 53.86C47.95 54.32 48 54.73 48.47 54.97C48.92 55.2 49.27 54.98 49.61 54.73C52.16 52.9 54.72 51.08 57.27 49.25C58.11 48.7 58.12 48.1 57.31 47.51ZM26.15 12.3C27.76 7.34999 31.06 4.12999 36.16 3.02999C43.84 1.37999 51.02 6.53999 52.09 14.3C52.14 14.65 52.14 15.01 52.17 15.36C52.25 16.22 52.53 16.48 53.4 16.49C53.58 16.49 53.76 16.49 54.04 16.49C52.95 18.02 51.92 19.46 50.85 20.96C49.78 19.47 48.76 18.04 47.74 16.61C47.87 16.41 48.05 16.5 48.2 16.5C49.27 16.48 49.56 16.16 49.48 15.08C49.15 10.88 46.19 7.16999 42.14 5.88999C36.57 4.12999 30.68 7.14999 28.87 12.73C28.73 13.17 28.6 13.34 28.11 13.17C27.6 13 27.06 12.93 26.52 12.86C26.14 12.8 26.03 12.67 26.15 12.3ZM18.87 26.39C19.92 24.77 23.07 23.68 24.89 24.31C25.11 24.38 25.25 24.51 25.32 24.72C25.52 25.32 25.94 25.73 26.41 26.12C27.2 26.78 27.32 27.4 26.83 28.24C26.37 27.71 25.9 27.71 25.3 27.97C23.54 28.71 21.78 28.89 20.06 27.81C19.51 27.46 19.08 27.84 18.65 28.28C18.49 27.56 18.5 26.96 18.87 26.39ZM18.88 32.28C18.85 31.99 18.88 31.7 18.88 31.41C18.87 31.41 18.87 31.41 18.86 31.41C18.86 31.16 18.86 30.91 18.86 30.66C18.87 30.11 19.54 29.65 20.05 29.86C21.79 30.57 23.53 30.52 25.28 29.93C25.98 29.69 26.23 29.87 26.23 30.6C26.24 31.49 26.27 32.39 25.99 33.25C25.27 35.45 23.02 36.57 21.12 35.64C19.74 34.96 19.05 33.78 18.88 32.28ZM23.91 38.36C23.47 38.68 23.02 38.97 22.58 39.28C22.49 39.34 22.41 39.38 22.31 39.3C21.88 38.98 21.44 38.66 21.01 38.34C20.77 38.16 20.98 37.96 21 37.77C21.02 37.54 21.17 37.59 21.32 37.62C22.08 37.79 22.84 37.82 23.6 37.65C23.75 37.62 23.9 37.59 23.94 37.79C23.98 37.98 24.14 38.19 23.91 38.36ZM13.81 44.15C14.06 42.88 14.28 41.61 15.16 40.58C15.61 40.05 16.14 39.62 16.77 39.32C17.73 38.86 18.65 38.64 19.56 39.5C20.18 40.08 20.94 40.5 21.61 41.03C22.14 41.45 22.62 41.48 23.19 41.07C24.11 40.39 25.07 39.77 26 39.1C26.27 38.9 26.54 38.83 26.87 38.88C28.73 39.13 30.36 40.59 30.85 42.4C30.94 42.72 30.83 42.85 30.58 42.99C28.97 43.92 27.25 44.48 25.39 44.61C25.12 44.63 24.85 44.64 24.58 44.64C23.02 44.64 21.46 44.64 19.89 44.64C19.89 44.64 19.89 44.64 19.89 44.65C18.02 44.65 16.14 44.64 14.27 44.66C13.85 44.67 13.72 44.6 13.81 44.15ZM24.74 50.3C17.33 50.33 9.90998 50.31 2.49998 50.32C2.00998 50.32 1.85998 50.19 1.88998 49.7C1.92998 48.83 1.92998 47.95 1.88998 47.08C1.85998 46.6 1.99998 46.46 2.48998 46.47C6.75998 46.49 11.03 46.48 15.3 46.48C18.32 46.48 21.34 46.5 24.36 46.48C31 46.42 36.66 41.92 38 35.64C39.63 28.03 34.96 20.35 27.44 18.26C18.86 15.87 10.11 21.45 8.65998 30.24C8.53998 30.96 8.47997 31.69 8.48997 32.42C8.49998 33.22 8.76998 33.52 9.55998 33.53C9.94998 33.54 10.34 33.53 10.88 33.53C9.47998 35.49 8.15998 37.33 6.80998 39.22C5.45998 37.34 4.14998 35.5 2.73998 33.53C3.20998 33.53 3.56998 33.53 3.91998 33.53C4.86998 33.53 5.09998 33.28 5.14998 32.31C5.42998 25.82 8.24998 20.75 13.69 17.21C16.86 15.14 20.4 14.24 24.18 14.41C33.11 14.83 40.15 21.43 41.46 30.02C42.74 38.47 37.51 47.19 29.61 49.79C28.01 50.32 26.37 50.29 24.74 50.3ZM49.76 52.46C49.76 51.98 49.77 51.62 49.76 51.25C49.75 50.68 49.44 50.37 48.88 50.32C48.67 50.3 48.46 50.31 48.26 50.31C43.43 50.31 38.6 50.31 33.77 50.31C33.57 50.31 33.37 50.31 32.98 50.31C33.36 50.07 33.59 49.92 33.83 49.78C35.17 48.97 36.4 48.02 37.5 46.9C37.8 46.6 38.09 46.47 38.53 46.47C41.78 46.49 45.02 46.48 48.27 46.48C49.59 46.48 49.77 46.3 49.77 44.96C49.77 44.79 49.77 44.63 49.77 44.33C51.69 45.7 53.53 47.01 55.46 48.39C53.54 49.76 51.7 51.07 49.76 52.46Z" fill="#3247D5"/>
</svg>
