<svg width="64" height="64" viewBox="0 0 64 64" fill="none" xmlns="http://www.w3.org/2000/svg">
<path d="M56.6098 48.37C53.1298 45.08 51.1098 41.05 50.7398 36.26C50.4998 33.19 50.6698 30.1 50.6498 27.02C50.6398 25.26 50.4998 23.53 50.0098 21.84C48.1498 15.48 44.0998 11.19 37.8598 8.96999C37.4598 8.82999 37.3098 8.65999 37.3298 8.22999C37.3698 7.31999 37.3598 6.39999 37.3398 5.47999C37.2998 3.32999 36.3698 1.69999 34.4798 0.629989C33.9398 0.319989 33.3198 0.219989 32.7498 0.019989C32.2498 0.019989 31.7498 0.019989 31.2498 0.019989C31.1998 0.049989 31.1598 0.099989 31.1098 0.109989C28.6398 0.589989 26.9598 2.35999 26.7198 4.85999C26.6198 5.90999 26.6398 6.97999 26.6798 8.03999C26.6998 8.61999 26.5298 8.84999 25.9698 9.02999C18.6998 11.43 13.5298 18.43 13.3798 26.09C13.3298 28.9 13.3798 31.71 13.3598 34.52C13.3198 40.19 11.2198 44.95 6.97981 48.75C6.68981 49.01 6.38981 49.28 6.15981 49.6C5.23981 50.89 5.07981 52.29 5.76981 53.72C6.47981 55.18 7.68982 55.96 9.30982 55.97C13.6198 56 17.9298 55.99 22.2398 55.97C22.6498 55.97 22.7898 56.08 22.8898 56.48C23.7298 60.2 26.0198 62.57 29.6498 63.67C30.0198 63.78 30.4298 63.74 30.7598 63.97C31.2198 63.97 31.6798 63.97 32.1298 63.97C32.3398 63.8 32.5498 63.77 32.7498 63.97C32.8698 63.97 32.9998 63.97 33.1198 63.97C33.1498 63.88 33.2398 63.87 33.3198 63.86C37.2698 63.27 40.3498 60.37 41.1198 56.47C41.1998 56.06 41.3598 55.96 41.7698 55.96C46.0598 56 50.3498 56 54.6398 55.99C56.2998 55.99 57.7498 55 58.3598 53.51C58.9798 51.98 58.6098 50.28 57.3998 49.09C57.1398 48.84 56.8698 48.62 56.6098 48.37ZM29.3498 6.42999H29.3598C29.3598 5.98999 29.3398 5.55999 29.3598 5.11999C29.4398 3.76999 30.5998 2.69999 31.9698 2.66999C33.3498 2.64999 34.5698 3.73999 34.6398 5.11999C34.6898 6.02999 34.6498 6.94999 34.6598 7.86999C34.6598 8.11999 34.5898 8.18999 34.3398 8.15999C32.7798 7.96999 31.2298 7.96999 29.6698 8.15999C29.4198 8.18999 29.3398 8.11999 29.3398 7.86999C29.3498 7.37999 29.3498 6.90999 29.3498 6.42999ZM38.3798 56.6C37.5298 59.4 34.7698 61.42 31.8898 61.33C28.8098 61.23 26.1998 59.13 25.5198 56.22C25.5098 56.16 25.5198 56.1 25.5198 56C26.7698 56 28.0198 56 29.2598 56C32.1498 56 35.0398 56.02 37.9398 55.99C38.4998 55.97 38.5198 56.13 38.3798 56.6ZM55.8898 52.47C55.5998 53.18 55.0098 53.34 54.3198 53.33C49.5498 53.31 44.7798 53.3 40.0198 53.29C37.3598 53.29 34.6898 53.29 32.0298 53.29C32.0298 53.3 32.0298 53.31 32.0298 53.33C24.6798 53.33 17.3298 53.33 9.97981 53.33C9.78981 53.33 9.59981 53.34 9.41982 53.33C8.80981 53.29 8.33981 53.05 8.11981 52.44C7.88981 51.83 8.08981 51.33 8.54981 50.93C9.91982 49.74 11.1498 48.41 12.1898 46.92C14.6198 43.43 15.9098 39.55 15.9998 35.31C16.0698 32.31 15.9898 29.31 16.0298 26.32C16.0998 19.3 21.0598 13 27.8598 11.23C37.2098 8.79999 46.4498 14.9 47.8398 24.42C47.9598 25.24 47.9998 26.08 47.9998 26.91C47.9898 29.37 47.9998 31.82 47.9998 34.28C47.9798 40.87 50.3998 46.38 55.3198 50.78C55.9598 51.37 56.1298 51.87 55.8898 52.47Z" fill="white"/>
<path d="M32.1199 63.99C32.3299 63.99 32.5399 63.99 32.7399 63.99C32.5399 63.89 32.3299 63.89 32.1199 63.99Z" fill="white"/>
<path d="M54.38 6.77C53.63 5.82 52.83 4.91 51.97 4.07C51.39 3.51 50.6 3.52 50.07 4.05C49.57 4.56 49.56 5.33 50.06 5.91C50.31 6.19 50.57 6.45 50.83 6.73C54.64 10.87 57.1 15.69 58.14 21.22C58.47 22.98 58.62 24.76 58.65 26.56C58.67 27.45 59.27 28.03 60.05 27.99C60.81 27.96 61.31 27.38 61.33 26.5C61.34 26.1 61.33 25.71 61.33 25.31C60.96 18.41 58.69 12.21 54.38 6.77Z" fill="white"/>
<path d="M11.5799 8.59998C12.3099 7.65998 13.1199 6.79998 13.9299 5.92998C14.3299 5.50998 14.4099 5.00998 14.2199 4.48998C14.0299 3.99998 13.6299 3.72998 13.1199 3.66998C12.5699 3.59998 12.1799 3.89998 11.8199 4.27998C6.1499 10.14 3.1399 17.15 2.6999 25.28C2.6899 25.82 2.6099 26.37 2.7099 26.9C2.8299 27.56 3.3799 28 4.0199 28C4.6499 27.99 5.1699 27.58 5.2999 26.93C5.3599 26.65 5.3599 26.35 5.3699 26.06C5.5099 19.56 7.5899 13.74 11.5799 8.59998Z" fill="white"/>
</svg>
