<svg width="60" height="64" viewBox="0 0 60 64" fill="none" xmlns="http://www.w3.org/2000/svg">
<path d="M54.6101 48.37C51.1301 45.08 49.1101 41.05 48.7401 36.26C48.5001 33.19 48.6701 30.1 48.6501 27.02C48.6401 25.26 48.5001 23.53 48.0101 21.84C46.1501 15.48 42.1001 11.19 35.8601 8.96999C35.4601 8.82999 35.3101 8.65999 35.3301 8.22999C35.3701 7.31999 35.3601 6.39999 35.3401 5.47999C35.3001 3.32999 34.3701 1.69999 32.4801 0.629989C31.9401 0.319989 31.3201 0.219989 30.7501 0.019989C30.2501 0.019989 29.7501 0.019989 29.2501 0.019989C29.2001 0.049989 29.1601 0.099989 29.1101 0.109989C26.6401 0.589989 24.9601 2.35999 24.7201 4.85999C24.6201 5.90999 24.6401 6.97999 24.6801 8.03999C24.7001 8.61999 24.5301 8.84999 23.9701 9.02999C16.7001 11.43 11.5301 18.43 11.3801 26.09C11.3301 28.9 11.3801 31.71 11.3601 34.52C11.3201 40.19 9.22006 44.95 4.98006 48.75C4.69006 49.01 4.39006 49.28 4.16006 49.6C3.24006 50.89 3.08006 52.29 3.77006 53.72C4.48006 55.18 5.69006 55.96 7.31006 55.97C11.6201 56 15.9301 55.99 20.2401 55.97C20.6501 55.97 20.7901 56.08 20.8901 56.48C21.7301 60.2 24.0201 62.57 27.6501 63.67C28.0201 63.78 28.4301 63.74 28.7601 63.97C29.2201 63.97 29.6801 63.97 30.1301 63.97C30.3401 63.8 30.5501 63.77 30.7501 63.97C30.8701 63.97 31.0001 63.97 31.1201 63.97C31.1501 63.88 31.2401 63.87 31.3201 63.86C35.2701 63.27 38.3501 60.37 39.1201 56.47C39.2001 56.06 39.3601 55.96 39.7701 55.96C44.0601 56 48.3501 56 52.6401 55.99C54.3001 55.99 55.7501 55 56.3601 53.51C56.9801 51.98 56.6101 50.28 55.4001 49.09C55.1401 48.84 54.8701 48.62 54.6101 48.37ZM27.3501 6.42999H27.3601C27.3601 5.98999 27.3401 5.55999 27.3601 5.11999C27.4401 3.76999 28.6001 2.69999 29.9701 2.66999C31.3501 2.64999 32.5701 3.73999 32.6401 5.11999C32.6901 6.02999 32.6501 6.94999 32.6601 7.86999C32.6601 8.11999 32.5901 8.18999 32.3401 8.15999C30.7801 7.96999 29.2301 7.96999 27.6701 8.15999C27.4201 8.18999 27.3401 8.11999 27.3401 7.86999C27.3501 7.37999 27.3501 6.90999 27.3501 6.42999ZM36.3801 56.6C35.5301 59.4 32.7701 61.42 29.8901 61.33C26.8101 61.23 24.2001 59.13 23.5201 56.22C23.5101 56.16 23.5201 56.1 23.5201 56C24.7701 56 26.0201 56 27.2601 56C30.1501 56 33.0401 56.02 35.9401 55.99C36.5001 55.97 36.5201 56.13 36.3801 56.6ZM53.8901 52.47C53.6001 53.18 53.0101 53.34 52.3201 53.33C47.5501 53.31 42.7801 53.3 38.0201 53.29C35.3601 53.29 32.6901 53.29 30.0301 53.29C30.0301 53.3 30.0301 53.31 30.0301 53.33C22.6801 53.33 15.3301 53.33 7.98006 53.33C7.79006 53.33 7.60006 53.34 7.42006 53.33C6.81006 53.29 6.34006 53.05 6.12006 52.44C5.89006 51.83 6.09006 51.33 6.55006 50.93C7.92006 49.74 9.15006 48.41 10.1901 46.92C12.6201 43.43 13.9101 39.55 14.0001 35.31C14.0701 32.31 13.9901 29.31 14.0301 26.32C14.1001 19.3 19.0601 13 25.8601 11.23C35.2101 8.79999 44.4501 14.9 45.8401 24.42C45.9601 25.24 46.0001 26.08 46.0001 26.91C45.9901 29.37 46.0001 31.82 46.0001 34.28C45.9801 40.87 48.4001 46.38 53.3201 50.78C53.9601 51.37 54.1301 51.87 53.8901 52.47Z" fill="#3247D5"/>
<path d="M30.12 63.99C30.33 63.99 30.54 63.99 30.74 63.99C30.54 63.89 30.33 63.89 30.12 63.99Z" fill="#3247D5"/>
<path d="M52.38 6.77C51.63 5.82 50.83 4.91 49.97 4.07C49.39 3.51 48.6 3.52 48.07 4.05C47.57 4.56 47.56 5.33 48.06 5.91C48.31 6.19 48.57 6.45 48.83 6.73C52.64 10.87 55.1 15.69 56.14 21.22C56.47 22.98 56.62 24.76 56.65 26.56C56.67 27.45 57.27 28.03 58.05 27.99C58.81 27.96 59.31 27.38 59.33 26.5C59.34 26.1 59.33 25.71 59.33 25.31C58.96 18.41 56.69 12.21 52.38 6.77Z" fill="#3247D5"/>
<path d="M9.58002 8.59998C10.31 7.65998 11.12 6.79998 11.93 5.92998C12.33 5.50998 12.41 5.00998 12.22 4.48998C12.03 3.99998 11.63 3.72998 11.12 3.66998C10.57 3.59998 10.18 3.89998 9.82002 4.27998C4.15002 10.14 1.14002 17.15 0.700025 25.28C0.690025 25.82 0.610025 26.37 0.710025 26.9C0.830025 27.56 1.38002 28 2.02002 28C2.65002 27.99 3.17002 27.58 3.30002 26.93C3.36002 26.65 3.36002 26.35 3.37002 26.06C3.51002 19.56 5.59002 13.74 9.58002 8.59998Z" fill="#3247D5"/>
</svg>
