<svg width="64" height="64" viewBox="0 0 64 64" fill="none" xmlns="http://www.w3.org/2000/svg">
<path d="M55.99 33.69C55.62 33.55 55.29 33.66 55.02 33.93C54.76 34.18 54.75 34.52 54.75 34.86C54.75 37.34 54.75 39.82 54.75 42.29C54.75 42.66 54.75 43.04 54.69 43.41C54.19 46.35 51.92 48.22 48.85 48.22C39.56 48.22 30.28 48.23 20.99 48.21C19.97 48.21 19.14 48.53 18.41 49.23C16.63 50.95 14.82 52.65 13.02 54.35C11.54 55.75 10.07 57.15 8.58002 58.56C8.47002 58.35 8.55002 58.2 8.58002 58.04C9.02002 55.61 9.39002 53.16 9.92002 50.74C10.23 49.33 9.33002 48.01 7.75002 48.2C7.61002 48.22 7.46002 48.2 7.31002 48.19C4.28002 48.03 1.91002 45.65 1.90002 42.65C1.88002 34.05 1.89002 25.45 1.90002 16.85C1.90002 15.87 2.16002 14.95 2.67002 14.12C3.84002 12.23 5.55002 11.33 7.77002 11.33C18.43 11.34 29.09 11.34 39.75 11.33C40.59 11.33 41.02 11.01 41.02 10.38C41.02 9.75 40.62 9.45 39.75 9.45C29.03 9.45 18.3 9.44 7.58002 9.45C4.65002 9.45 2.46002 10.8 0.96002 13.3C0.48002 14.09 0.33002 14.99 0.0200195 15.84C0.0200195 25.13 0.0200195 34.42 0.0200195 43.7C0.24002 43.85 0.18002 44.11 0.24002 44.32C0.86002 46.71 2.31002 48.4 4.54002 49.43C5.65002 49.94 6.85002 50.09 8.10002 50.07C7.92002 51.08 7.75002 52.04 7.58002 53C7.23002 54.92 6.88002 56.84 6.54002 58.77C6.40002 59.55 6.54002 60.23 7.25002 60.68C7.96002 61.14 8.70002 61.01 9.45002 60.31C12.82 57.12 16.19 53.93 19.54 50.71C20.03 50.24 20.53 50.05 21.2 50.05C30.47 50.07 39.73 50.07 49 50.06C53.33 50.05 56.62 46.76 56.63 42.43C56.64 40.51 56.63 38.6 56.63 36.68C56.63 35.95 56.64 35.22 56.62 34.49C56.61 34.12 56.38 33.84 55.99 33.69Z" fill="#3247D5"/>
<path d="M62.75 26.48C61.09 25.06 59.9 23.31 59.1 21.27C58.38 19.44 58.2 17.53 58.21 15.58C58.23 12.83 57.18 10.53 54.96 8.90001C54.17 8.32001 53.87 7.77001 53.87 6.80001C53.88 4.72001 52.25 3.12001 50.23 3.02001C48.19 2.92001 46.46 4.39001 46.2 6.48001C46.14 6.93001 46.16 7.39001 46.16 7.85001C46.16 8.08001 46.1 8.22001 45.89 8.35001C43.09 10.1 41.81 12.66 41.87 15.94C41.95 20.3 40.35 23.92 37.02 26.76C36.14 27.51 35.89 28.4 36.25 29.31C36.61 30.23 37.38 30.71 38.53 30.71C40.26 30.71 41.99 30.72 43.71 30.7C44.08 30.7 44.28 30.78 44.45 31.16C45.54 33.57 47.43 34.88 50.08 34.87C52.7 34.86 54.56 33.55 55.64 31.16C55.79 30.82 55.95 30.7 56.32 30.71C57.96 30.73 59.61 30.68 61.25 30.73C62.6 30.77 63.54 30.29 63.99 28.98C63.99 28.69 63.99 28.4 63.99 28.11C63.75 27.45 63.29 26.95 62.75 26.48ZM50.01 4.89001C51.11 4.87001 51.99 5.75001 52.03 6.95001C52.1 7.30001 51.99 7.46001 51.54 7.36001C50.54 7.14001 49.52 7.15001 48.51 7.36001C48.13 7.44001 47.99 7.37001 48.01 6.95001C48.07 5.81001 48.91 4.91001 50.01 4.89001ZM50.19 33.03C48.48 33.08 47.23 32.3 46.29 30.79C48.82 30.79 51.26 30.79 53.78 30.79C52.94 32.19 51.79 32.97 50.19 33.03ZM61.75 28.85C61.59 28.88 61.42 28.86 61.25 28.86C57.5 28.86 53.76 28.86 50.01 28.86C46.24 28.86 42.48 28.86 38.71 28.86C38.46 28.86 38.12 28.99 38 28.64C37.89 28.33 38.21 28.22 38.38 28.06C41.99 24.9 43.77 20.91 43.72 16.12C43.7 14.33 44.04 12.69 45.23 11.31C46.97 9.29001 49.67 8.57001 52.13 9.45001C54.66 10.36 56.3 12.65 56.32 15.43C56.33 17.4 56.45 19.33 57.08 21.21C57.98 23.9 59.48 26.17 61.63 28.01C61.74 28.1 61.86 28.19 61.95 28.3C62.24 28.62 62.1 28.79 61.75 28.85Z" fill="#3247D5"/>
<path d="M37.3401 21.04C37.3601 20.47 36.9201 20.09 36.2001 20.09C27.6301 20.09 19.0501 20.09 10.4801 20.09C9.77007 20.09 9.38007 20.41 9.37007 20.99C9.36007 21.56 9.74007 21.92 10.4301 21.96C10.6001 21.97 10.7601 21.96 10.9301 21.96C15.0701 21.96 19.2101 21.96 23.3501 21.96C27.6201 21.96 31.8801 21.96 36.1501 21.96C36.8901 21.96 37.3301 21.6 37.3401 21.04Z" fill="#3247D5"/>
<path d="M32.28 37.37C32.05 37.3 31.79 37.3 31.54 37.3C24.61 37.3 17.68 37.3 10.74 37.3C10.49 37.3 10.23 37.31 10 37.38C9.55004 37.52 9.34004 37.88 9.39004 38.34C9.44004 38.78 9.69004 39.06 10.13 39.14C10.33 39.17 10.54 39.17 10.75 39.17C14.23 39.17 17.7 39.17 21.18 39.17C24.61 39.17 28.05 39.17 31.48 39.17C31.71 39.17 31.94 39.18 32.16 39.14C32.6 39.06 32.85 38.77 32.89 38.33C32.94 37.85 32.74 37.5 32.28 37.37Z" fill="#3247D5"/>
<path d="M32.15 28.72C31.95 28.68 31.74 28.68 31.53 28.68C24.62 28.68 17.71 28.68 10.8 28.68C10.57 28.68 10.34 28.68 10.12 28.73C9.62 28.84 9.37 29.17 9.4 29.67C9.42 30.14 9.69 30.44 10.16 30.52C10.36 30.56 10.57 30.55 10.78 30.55C14.24 30.55 17.69 30.55 21.15 30.55C24.61 30.55 28.06 30.55 31.52 30.55C31.73 30.55 31.94 30.56 32.14 30.53C32.64 30.45 32.91 30.14 32.92 29.64C32.91 29.13 32.65 28.81 32.15 28.72Z" fill="#3247D5"/>
</svg>
