<svg width="62" height="62" viewBox="0 0 62 62" fill="none" xmlns="http://www.w3.org/2000/svg">
<path d="M60.5 9.06001C55.86 9.06001 51.21 9.05 46.57 9.07C46.07 9.07 45.9 8.97001 45.9 8.43001C45.93 6.08001 45.92 3.72 45.91 1.37C45.91 0.390005 45.65 0.130005 44.71 0.130005C35.57 0.130005 26.43 0.130005 17.29 0.130005C16.34 0.130005 16.08 0.390005 16.08 1.35C16.08 3.68 16.06 6.01 16.09 8.35001C16.1 8.92 15.95 9.07 15.37 9.07C10.69 9.05 6 9.05 1.32 9.06001C0.420005 9.06001 0.130005 9.34 0.130005 10.19C0.130005 22.12 0.130005 34.05 0.130005 45.98C0.130005 46.82 0.420005 47.11 1.25 47.11C3.29 47.11 5.33 47.13 7.37 47.1C7.91 47.09 8.10001 47.2 8.10001 47.8C8.07 50.84 8.09 53.88 8.08 56.92C8.08 57.32 8.11 57.69 8.42 58.01C9.57 59.16 10.69 60.33 11.84 61.48C12.35 62 12.78 62 13.29 61.48C14.43 60.33 15.56 59.16 16.7 58C16.93 57.76 17.1 57.49 17.04 57.17C16.8 55.96 17.34 55.1 18.23 54.38C18.33 54.3 18.4 54.2 18.49 54.11C19.24 53.31 19.22 52.96 18.41 52.27C17.95 51.88 17.5 51.48 17.03 51.07C17.44 50.72 17.84 50.41 18.21 50.08C18.38 49.93 18.54 49.86 18.76 49.86C23.97 49.87 29.17 49.87 34.38 49.85C34.75 49.85 34.77 50.01 34.77 50.29C34.76 51.04 34.87 51.78 35.01 52.52C36.16 58.63 42.46 62.89 48.54 61.66C55.21 60.32 59.23 54.21 57.81 47.54C57.72 47.12 57.85 47.1 58.18 47.11C58.97 47.13 59.76 47.12 60.55 47.11C61.64 47.11 61.87 46.88 61.87 45.8C61.87 33.99 61.87 22.19 61.87 10.38C61.86 9.28 61.64 9.06001 60.5 9.06001ZM18.49 1.87C22.65 1.9 26.82 1.88001 30.98 1.88001C35.19 1.88001 39.39 1.89 43.6 1.87C44.06 1.87 44.18 1.97 44.18 2.44C44.16 10.71 44.16 18.97 44.18 27.24C44.18 27.76 44.01 27.84 43.54 27.84C35.48 27.83 27.42 27.83 19.36 27.83C18.42 27.83 17.82 27.24 17.82 26.33C17.82 18.4 17.83 10.46 17.81 2.53C17.82 2.00001 17.94 1.87 18.49 1.87ZM8.07 45.25C8.06 45.43 7.83 45.37 7.7 45.37C5.89 45.37 4.08 45.36 2.27 45.38C1.75 45.39 1.9 45.05 1.9 44.8C1.89 39.97 1.9 35.14 1.9 30.31C1.9 29.56 1.9 28.81 1.9 28.06C1.9 22.52 1.91 16.98 1.89 11.45C1.89 10.95 1.98 10.79 2.52 10.79C6.83 10.82 11.14 10.81 15.45 10.79C15.96 10.79 16.11 10.9 16.11 11.44C16.09 16.14 16.09 20.85 16.11 25.55C16.11 26.12 15.97 26.12 15.49 25.97C10.86 24.48 5.9 26.68 3.87 31.1C1.86 35.47 3.43001 40.68 7.51 43.24C7.72001 43.37 8.07 43.41 8.08 43.74C8.1 44.25 8.1 44.75 8.07 45.25ZM19.99 47.76C19.99 48.11 19.28 48.33 18.95 48.03C18.32 47.46 17.72 46.85 17.15 46.22C16.92 45.96 17.1 45.58 17.05 45.25C16.89 44.16 17.12 43.32 18.24 42.8C18.91 42.49 19.37 41.85 19.99 41.21C19.99 43.48 20 45.62 19.99 47.76ZM16.22 42.01C15.53 42.37 15.25 42.82 15.29 43.58C15.34 44.41 15.32 45.25 15.29 46.08C15.27 46.62 15.41 47.05 15.83 47.41C16.29 47.8 16.71 48.22 17.18 48.65C16.49 49.24 15.88 49.74 15.28 50.26C14.62 50.83 14.62 51.32 15.29 51.91C15.66 52.24 16.03 52.58 16.43 52.89C16.79 53.16 16.93 53.4 16.49 53.71C16.44 53.74 16.41 53.8 16.36 53.84C15.5 54.51 15.13 55.37 15.3 56.46C15.36 56.82 15.22 57.09 14.95 57.34C14.13 58.1 13.32 58.89 12.58 59.59C11.77 58.82 10.9 57.99 10.02 57.17C9.78001 56.95 9.83 56.68 9.83 56.42C9.83 52.13 9.82 47.85 9.84 43.56C9.84 42.82 9.58 42.39 8.92 42.05C5.61 40.34 4.00001 36.52 5.03 32.95C6.04 29.44 9.47001 27.04 13.12 27.3C16.82 27.56 19.88 30.46 20.35 34.15C20.77 37.32 19.12 40.51 16.22 42.01ZM21.43 31.48C21.22 30.84 20.86 30.25 20.42 29.6C20.75 29.6 20.97 29.6 21.19 29.6C31.12 29.6 41.05 29.61 50.98 29.59C51.58 29.59 51.73 29.73 51.72 30.34C51.69 33.25 51.7 36.17 51.7 39.08C51.7 39.28 51.7 39.48 51.7 39.76C48.5 38.25 45.29 38.11 41.99 39.38C41.99 37.29 41.99 35.25 41.99 33.22C41.99 32.26 41.73 32.01 40.77 32.01C34.59 32.01 28.4 32.01 22.22 32.02C21.82 32 21.57 31.93 21.43 31.48ZM29.61 48.13C27.15 48.1 24.7 48.11 22.24 48.13C21.83 48.13 21.73 48.02 21.73 47.62C21.75 44.5 21.74 41.38 21.74 38.25C21.74 37.66 21.97 37.11 22.05 36.54C22.16 35.75 22.18 34.96 22.11 34.17C22.07 33.79 22.2 33.73 22.54 33.73C24.91 33.74 27.29 33.75 29.66 33.72C30.12 33.71 30.14 33.9 30.14 34.26C30.13 36.49 30.13 38.71 30.13 40.94C30.13 43.15 30.12 45.35 30.14 47.56C30.14 47.98 30.08 48.14 29.61 48.13ZM34.54 48.13C33.79 48.1 33.04 48.1 32.29 48.13C31.9 48.15 31.87 47.98 31.87 47.66C31.88 45.41 31.88 43.17 31.88 40.92C31.88 38.69 31.89 36.47 31.87 34.24C31.87 33.83 31.98 33.73 32.38 33.73C34.83 33.75 37.29 33.75 39.74 33.73C40.12 33.73 40.28 33.78 40.27 34.22C40.24 36.09 40.25 37.96 40.27 39.84C40.27 40.17 40.16 40.35 39.89 40.54C37.36 42.29 35.73 44.68 35.04 47.68C34.96 48 34.89 48.14 34.54 48.13ZM46.42 60.11C40.96 60.1 36.5 55.63 36.51 50.16C36.52 44.7 40.99 40.24 46.46 40.25C51.92 40.26 56.37 44.73 56.37 50.2C56.36 55.67 51.89 60.12 46.42 60.11ZM59.49 45.39C58.74 45.34 57.92 45.56 57.26 45.32C56.58 45.07 56.48 44.13 56.04 43.55C55.39 42.68 54.69 41.86 53.84 41.18C53.54 40.95 53.45 40.7 53.45 40.34C53.46 36.61 53.46 32.89 53.46 29.16C53.46 28.07 53.23 27.84 52.15 27.84C50.26 27.84 48.36 27.83 46.47 27.85C46.03 27.86 45.91 27.73 45.91 27.29C45.92 21.98 45.93 16.68 45.91 11.37C45.91 10.88 46.06 10.79 46.51 10.79C50.86 10.81 55.21 10.81 59.56 10.79C60.06 10.79 60.12 10.95 60.12 11.39C60.11 16.97 60.11 22.55 60.11 28.12C60.11 33.66 60.1 39.19 60.12 44.73C60.13 45.24 60.03 45.43 59.49 45.39Z" fill="#3247D5"/>
<path d="M40.84 14.76C34.28 14.76 27.72 14.76 21.16 14.76C20.28 14.76 20 15.04 19.99 15.91C19.99 18.47 19.99 21.03 19.99 23.59C19.99 24.5 20.26 24.76 21.19 24.76C24.44 24.76 27.69 24.76 30.93 24.76C34.24 24.76 37.55 24.76 40.86 24.76C41.7 24.76 41.99 24.48 42 23.65C42 21.07 42 18.49 42 15.9C42 15.04 41.72 14.76 40.84 14.76ZM29.7 23.02C28.43 23.01 27.16 23.02 25.9 23.02C24.65 23.02 23.41 23.01 22.16 23.03C21.83 23.03 21.74 22.94 21.74 22.61C21.75 20.72 21.75 18.83 21.74 16.93C21.74 16.62 21.8 16.5 22.15 16.5C24.69 16.51 27.22 16.51 29.76 16.5C30.06 16.5 30.14 16.59 30.14 16.89C30.13 18.8 30.12 20.72 30.14 22.63C30.14 22.99 29.99 23.02 29.7 23.02ZM40.27 22.61C40.27 22.95 40.16 23.02 39.84 23.02C37.32 23.01 34.81 23.01 32.29 23.02C31.98 23.02 31.86 22.96 31.86 22.62C31.88 20.73 31.88 18.84 31.86 16.94C31.86 16.58 31.97 16.5 32.31 16.5C33.56 16.52 34.8 16.51 36.05 16.51C37.3 16.51 38.54 16.52 39.79 16.5C40.13 16.5 40.25 16.57 40.25 16.94C40.25 18.83 40.25 20.72 40.27 22.61Z" fill="#3247D5"/>
<path d="M21.26 10.81C24.51 10.81 27.76 10.81 31 10.81C34.27 10.81 37.54 10.81 40.81 10.81C41.75 10.81 42.01 10.55 42.01 9.63C42.01 8.23 42.01 6.84 42.01 5.44C42 4.6 41.73 4.3 40.9 4.3C34.3 4.3 27.7 4.3 21.1 4.3C20.27 4.3 20 4.6 20 5.45C20 6.82 20 8.2 20 9.57C20 10.58 20.23 10.81 21.26 10.81ZM22.26 6.04C25.48 6.05 28.71 6.05 31.93 6.05C34.51 6.05 37.09 6.06 39.67 6.04C40.11 6.04 40.31 6.1 40.27 6.61C40.22 7.25 40.23 7.9 40.27 8.54C40.3 9 40.13 9.08 39.71 9.07C36.8 9.05 33.89 9.06 30.97 9.06C28.08 9.06 25.19 9.05 22.3 9.07C21.81 9.07 21.71 8.93 21.73 8.48C21.77 7.84 21.77 7.19 21.73 6.55C21.71 6.12 21.86 6.04 22.26 6.04Z" fill="#3247D5"/>
<path d="M12.59 28.7C11.08 28.69 9.88 30.02 9.88 31.68C9.88 33.31 11.07 34.63 12.55 34.63C14.06 34.64 15.27 33.31 15.26 31.65C15.26 30.02 14.07 28.71 12.59 28.7ZM12.55 32.88C12.04 32.86 11.63 32.33 11.63 31.68C11.63 30.99 12.06 30.45 12.6 30.46C13.11 30.48 13.52 31.01 13.52 31.66C13.52 32.35 13.08 32.9 12.55 32.88Z" fill="#3247D5"/>
<path d="M57.05 12.47C54.36 12.46 51.68 12.46 48.99 12.47C48.16 12.47 47.88 12.76 47.87 13.6C47.87 16.16 47.87 18.72 47.87 21.28C47.87 22.18 48.16 22.46 49.08 22.47C50.39 22.48 51.7 22.47 53.01 22.47C54.34 22.47 55.67 22.48 57.01 22.47C57.85 22.47 58.14 22.18 58.15 21.35C58.16 18.75 58.16 16.15 58.15 13.54C58.14 12.73 57.87 12.47 57.05 12.47ZM55.9 20.73C53.97 20.71 52.03 20.71 50.1 20.73C49.72 20.73 49.61 20.63 49.61 20.25C49.63 18.4 49.63 16.55 49.61 14.7C49.61 14.33 49.68 14.2 50.08 14.21C51.06 14.24 52.03 14.22 53.01 14.22C53.99 14.22 54.96 14.23 55.94 14.21C56.28 14.2 56.4 14.29 56.4 14.65C56.38 16.52 56.38 18.39 56.4 20.26C56.41 20.67 56.26 20.73 55.9 20.73Z" fill="#3247D5"/>
<path d="M50.52 44.68C50.55 44.29 50.41 43.98 50.05 43.81C49.68 43.64 49.31 43.68 49.03 44C48.91 44.14 48.82 44.31 48.72 44.47C46.7 47.97 44.67 51.47 42.65 54.97C42.56 55.13 42.45 55.29 42.39 55.46C42.18 56.06 42.58 56.63 43.26 56.63C43.7 56.64 43.91 56.28 44.13 55.91C46.17 52.37 48.21 48.83 50.26 45.29C50.37 45.11 50.5 44.92 50.52 44.68Z" fill="#3247D5"/>
<path d="M45.19 48.26C45.25 48 45.26 47.73 45.27 47.6C45.26 45.9 44.25 44.59 42.96 44.49C41.66 44.39 40.55 45.4 40.28 46.93C40 48.53 40.96 50.13 42.38 50.42C43.61 50.69 44.85 49.74 45.19 48.26ZM42.76 46.25C43.17 46.24 43.53 46.83 43.52 47.51C43.51 48.15 43.16 48.72 42.77 48.73C42.39 48.73 42.01 48.15 42 47.53C41.99 46.86 42.35 46.25 42.76 46.25Z" fill="#3247D5"/>
<path d="M50.56 49.96C49.26 49.67 48.01 50.62 47.67 52.16C47.62 52.4 47.61 52.65 47.6 52.78C47.6 53.82 47.89 54.62 48.57 55.25C49.19 55.83 49.93 56.04 50.76 55.77C51.82 55.42 52.33 54.6 52.56 53.57C52.91 51.95 51.98 50.28 50.56 49.96ZM50.13 54.12C49.71 54.14 49.35 53.56 49.35 52.89C49.35 52.25 49.69 51.68 50.08 51.66C50.48 51.64 50.87 52.25 50.87 52.9C50.87 53.54 50.52 54.1 50.13 54.12Z" fill="#3247D5"/>
<path d="M4.89999 22.47C7.62999 22.48 10.35 22.48 13.08 22.47C13.82 22.47 14.13 22.13 14.13 21.38C14.14 18.78 14.13 16.18 14.13 13.57C14.13 12.77 13.84 12.47 13.05 12.47C11.7 12.46 10.34 12.47 8.98999 12.47C7.61999 12.47 6.23999 12.46 4.86999 12.47C4.15999 12.48 3.86999 12.76 3.86999 13.45C3.85999 16.11 3.85999 18.78 3.86999 21.44C3.85999 22.15 4.16999 22.46 4.89999 22.47ZM5.58999 14.63C5.58999 14.3 5.67999 14.21 6.00999 14.21C8.00999 14.22 9.99999 14.22 12 14.21C12.3 14.21 12.39 14.29 12.39 14.59C12.38 16.5 12.37 18.41 12.39 20.33C12.39 20.69 12.24 20.73 11.94 20.73C10.96 20.72 9.98999 20.72 9.00999 20.72C8.02999 20.72 7.05999 20.7 6.07999 20.73C5.68999 20.74 5.58999 20.62 5.58999 20.24C5.60999 18.37 5.60999 16.5 5.58999 14.63Z" fill="#3247D5"/>
<path d="M27.94 38.32C27.41 38.34 27.11 38.66 27.1 39.21C27.09 39.75 27.1 40.29 27.1 40.83C27.1 41.37 27.09 41.91 27.1 42.45C27.11 42.99 27.38 43.31 27.92 43.36C28.41 43.41 28.82 43.04 28.83 42.47C28.86 41.37 28.86 40.27 28.83 39.17C28.81 38.64 28.47 38.3 27.94 38.32Z" fill="#3247D5"/>
<path d="M34.06 38.32C33.52 38.31 33.19 38.64 33.18 39.17C33.15 40.27 33.15 41.37 33.18 42.47C33.19 43.04 33.6 43.41 34.1 43.36C34.64 43.31 34.91 42.98 34.92 42.44C34.93 41.9 34.92 41.36 34.92 40.82C34.92 40.28 34.93 39.74 34.92 39.2C34.9 38.66 34.59 38.33 34.06 38.32Z" fill="#3247D5"/>
</svg>
