<svg width="64" height="64" viewBox="0 0 64 64" fill="none" xmlns="http://www.w3.org/2000/svg">
<path d="M63.01 27.93C62.73 27.8 62.86 27.52 62.86 27.32C62.85 21.49 62.85 15.66 62.86 9.83C62.86 9.08 62.68 8.43 62.12 7.92C61.66 7.51 61.12 7.36 60.51 7.37C58.24 7.38 55.97 7.36 53.7 7.39C53.18 7.38 52.97 7.3 53 6.71C53.06 5.71 53.03 4.71 53.01 3.71C52.98 1.73 51.71 0.33 49.75 0.12C49.73 0.11 49.73 0.1 49.72 0.0900001C49.7 0.0900001 49.69 0.0900001 49.67 0.0900001C47.95 0.0900001 46.23 0.0800001 44.52 0.0900001C43.3 0.1 42.08 0.04 40.86 0.13C38.9 0.35 37.62 1.75 37.6 3.73C37.59 4.73 37.57 5.73 37.61 6.73C37.63 7.23 37.51 7.4 36.97 7.39C34.64 7.36 32.31 7.37 29.97 7.38C28.76 7.39 27.8 8.22 27.77 9.4C27.72 11.63 27.74 13.86 27.76 16.08C27.77 16.68 28.23 17.06 28.78 17.02C29.31 16.97 29.63 16.58 29.63 15.91C29.64 13.91 29.64 11.91 29.62 9.91C29.62 9.45 29.71 9.23 30.24 9.23C40.28 9.24 50.31 9.24 60.35 9.23C60.8 9.23 60.97 9.37 60.97 9.84C60.96 15.67 60.96 21.5 60.97 27.33C60.97 27.68 60.88 27.79 60.52 27.79C59.58 27.77 58.65 27.76 57.71 27.79C57.27 27.81 57.09 27.69 57.03 27.25C56.99 26.96 56.83 26.65 56.65 26.41C56.45 26.14 56.49 25.98 56.66 25.71C57.32 24.66 57.32 23.58 56.66 22.54C56.46 22.23 56.51 22.07 56.68 21.79C57.3 20.76 57.31 19.69 56.67 18.67C56.49 18.38 56.48 18.21 56.67 17.92C57.31 16.9 57.32 15.82 56.68 14.8C56.48 14.48 56.51 14.3 56.69 13.99C57.88 12.05 56.53 9.55 54.25 9.53C50.25 9.5 46.25 9.5 42.26 9.53C40.51 9.54 39.23 10.99 39.35 12.73C39.39 13.36 39.93 13.87 39.94 14.39C39.95 14.93 39.3 15.46 39.36 16.11C39.42 16.71 39.11 16.79 38.65 16.9C35.16 17.7 32.83 20.99 33.18 24.56C33.3 25.71 33.71 26.76 34.31 27.8C33.27 27.8 32.31 27.8 31.36 27.8C30.8 27.8 30.05 27.99 29.73 27.7C29.36 27.37 29.62 26.6 29.62 26.03C29.61 24.07 29.62 22.12 29.61 20.16C29.61 19.4 29.04 18.95 28.39 19.17C27.85 19.35 27.73 19.79 27.73 20.32C27.74 22.67 27.73 25.03 27.74 27.38C27.74 27.68 27.73 27.9 27.4 28.08C26.83 28.39 26.6 28.95 26.6 29.6C26.61 31.18 26.6 32.77 26.6 34.35C26.6 36.03 27.12 36.56 28.78 36.56C30.16 36.56 31.55 36.56 33.04 36.56C32.81 36.85 32.73 37.17 32.4 37.11C31.86 37.01 31.55 37.31 31.22 37.65C29.35 39.58 27.48 41.5 25.61 43.44C25.13 43.93 24.58 44.19 23.89 44.16C23.56 44.14 23.22 44.16 22.89 44.16C22 44.15 20.98 44.4 20.24 44.05C19.48 43.69 19.01 42.74 18.38 42.07C18.12 41.79 18.08 41.64 18.44 41.38C19.71 40.44 20.59 39.19 21.1 37.69C21.19 37.42 21.32 37.25 21.6 37.12C22.61 36.64 23.21 35.84 23.39 34.73C23.58 33.51 23.12 32.54 22.21 31.72C23.15 31.08 23.68 30.22 23.71 29.1C23.74 27.77 23.76 26.43 23.7 25.1C23.57 21.92 21 19.35 17.82 19.27C15.39 19.21 12.95 19.21 10.51 19.27C7.20997 19.35 4.51997 21.61 3.78997 24.83C3.56997 25.79 3.66997 26.78 3.59997 27.75C3.51997 28.99 4.06997 29.76 5.13997 30.26C5.72997 30.54 5.73997 31.18 5.18997 31.53C4.12997 32.2 3.58997 33.17 3.63997 34.41C3.69997 35.67 4.34997 36.6 5.50997 37.15C5.70997 37.24 5.85997 37.34 5.92997 37.56C6.50997 39.37 7.60997 40.79 9.22997 41.8C9.47997 41.96 9.46997 42.06 9.27997 42.26C8.89997 42.67 8.49997 43.08 8.17997 43.53C7.82997 44.01 7.41997 44.17 6.81997 44.17C3.80997 44.18 1.22997 46.12 0.299971 48.98C0.189971 49.33 0.199971 49.71 -0.0300293 50.02C-0.0300293 53.73 -0.0300293 57.43 -0.0300293 61.14C0.229971 61.53 0.299971 62 0.579971 62.39C1.23997 63.29 2.09997 63.81 3.20997 63.91C3.95997 63.91 4.71997 63.91 5.46997 63.91C6.03997 63.76 6.31997 63.38 6.21997 62.8C6.11997 62.23 5.69997 62.04 5.16997 62.04C4.60997 62.04 4.04997 62.05 3.47997 62.03C2.52997 61.99 1.85997 61.35 1.85997 60.41C1.83997 57.2 1.79997 54 1.87997 50.79C1.94997 47.95 4.62997 45.73 7.43997 46.02C7.77997 46.06 7.76997 46.28 7.82997 46.47C8.17997 47.66 8.51997 48.86 8.85997 50.06C9.27997 51.54 10.54 51.98 11.8 51.1C12.41 50.67 13.03 50.24 13.62 49.79C13.85 49.62 14 49.63 14.22 49.79C14.85 50.26 15.5 50.72 16.15 51.17C17.29 51.95 18.56 51.5 18.95 50.17C19.3 48.95 19.66 47.74 19.98 46.52C20.08 46.14 20.25 46.01 20.66 46.02C21.74 46.06 22.82 46.02 23.91 46.04C25.13 46.06 26.13 45.62 26.97 44.74C28.59 43.06 30.22 41.4 31.84 39.72C32.1 39.45 32.26 39.37 32.56 39.69C33.32 40.49 34.12 41.25 34.93 42C35.21 42.26 35.2 42.39 34.94 42.67C32.23 45.44 29.55 48.23 26.83 50.99C25.9 51.94 25.44 53.01 25.47 54.34C25.51 56.25 25.48 58.17 25.48 60.09C25.48 61.46 24.88 62.05 23.5 62.05C18.88 62.05 14.26 62.05 9.62997 62.05C9.24997 62.05 8.87997 62.06 8.58997 62.36C8.09997 62.88 8.32997 63.58 9.09997 63.92C14.1 63.92 19.11 63.92 24.11 63.92C26.06 63.7 27.34 62.27 27.35 60.31C27.36 58.29 27.37 56.27 27.34 54.25C27.33 53.49 27.58 52.89 28.11 52.35C29.09 51.36 30.05 50.34 31.02 49.35C32.9 47.43 34.79 45.52 36.66 43.6C36.99 43.26 37.47 42.94 37.46 42.45C37.45 41.88 37.76 41.59 38.07 41.24C38.39 40.88 38.73 40.55 39.03 40.17C39.26 39.88 39.5 39.77 39.87 39.78C40.74 39.81 41.62 39.79 42.49 39.79C44.11 39.78 45.32 38.68 45.41 37.07C45.44 36.59 45.61 36.55 46 36.56C48.14 36.58 50.29 36.57 52.43 36.57C53.2 36.57 53.58 36.26 53.59 35.66C53.6 35.06 53.19 34.72 52.46 34.7C52.31 34.7 52.17 34.7 52.02 34.7C44.4 34.7 36.78 34.69 29.16 34.72C28.54 34.72 28.41 34.55 28.43 33.97C28.48 32.72 28.46 31.47 28.44 30.22C28.43 29.81 28.54 29.7 28.96 29.7C39.83 29.71 50.7 29.71 61.56 29.7C61.99 29.7 62.07 29.84 62.06 30.23C62.04 31.56 62.04 32.89 62.06 34.23C62.07 34.61 61.98 34.73 61.58 34.72C60.06 34.69 58.54 34.7 57.02 34.71C56.3 34.71 55.86 35.07 55.86 35.65C55.85 36.23 56.27 36.58 57.01 36.58C58.57 36.59 60.13 36.53 61.69 36.6C62.71 36.64 63.46 36.35 63.92 35.43C63.92 33.31 63.92 31.18 63.92 29.06C63.74 28.58 63.49 28.15 63.01 27.93ZM48.4 7C48.41 7.32 48.26 7.37 47.99 7.37C47.1 7.36 46.2 7.37 45.31 7.37C44.44 7.37 43.56 7.36 42.69 7.38C42.35 7.39 42.21 7.31 42.22 6.94C42.25 6.3 42.24 5.65 42.22 5.01C42.21 4.7 42.3 4.6 42.6 4.61C44.41 4.62 46.22 4.62 48.02 4.61C48.27 4.61 48.4 4.65 48.39 4.94C48.38 5.63 48.38 6.31 48.4 7ZM50.7 7.38C50.31 7.38 50.26 7.22 50.27 6.89C50.29 6.1 50.29 5.31 50.27 4.52C50.25 3.42 49.61 2.75 48.53 2.74C46.39 2.72 44.24 2.72 42.1 2.74C41.02 2.75 40.38 3.42 40.36 4.52C40.35 5.33 40.34 6.14 40.36 6.96C40.37 7.3 40.25 7.39 39.93 7.38C39.64 7.37 39.47 7.36 39.48 6.99C39.5 5.87 39.47 4.74 39.5 3.62C39.52 2.68 40.17 2.03 41.13 2.01C42.52 1.99 43.92 2 45.31 2C45.31 2 45.31 2 45.31 1.99C46.62 1.99 47.93 1.98 49.24 1.99C50.54 2 51.13 2.6 51.14 3.91C51.14 4.91 51.13 5.91 51.15 6.91C51.15 7.26 51.06 7.37 50.7 7.38ZM5.86997 28.48C5.62997 28.35 5.49997 28.2 5.50997 27.9C5.53997 27.15 5.48997 26.41 5.58997 25.66C5.94997 23.06 8.00997 21.18 10.63 21.12C11.79 21.09 12.96 21.12 14.13 21.12C15.27 21.12 16.42 21.11 17.56 21.12C20.01 21.16 21.83 22.99 21.86 25.44C21.87 26.56 21.87 27.69 21.86 28.81C21.85 29.71 21.37 30.25 20.59 30.26C19.79 30.27 19.32 29.77 19.25 28.86C19.24 28.67 19.23 28.48 19.2 28.3C18.98 27.04 17.76 26.5 16.71 27.24C15.43 28.14 14.09 28.92 12.56 29.31C10.22 29.92 7.98997 29.64 5.86997 28.48ZM7.48997 35.33C7.45997 34.08 7.47997 32.83 7.47997 31.58C7.47997 31.37 7.38997 31.12 7.80997 31.22C11.23 31.98 14.31 31.11 17.17 29.21C17.22 29.18 17.28 29.16 17.36 29.12C17.53 30.45 18.16 31.43 19.42 31.94C19.57 32 19.66 32.07 19.65 32.25C19.59 33.64 19.8 35.04 19.51 36.42C18.87 39.41 16.03 41.42 12.91 41.1C9.87997 40.8 7.55997 38.34 7.48997 35.33ZM12.49 48.3C11.99 48.63 11.51 48.99 11.02 49.35C10.8 49.51 10.7 49.52 10.61 49.2C10.26 47.9 9.87997 46.61 9.48997 45.32C9.40997 45.07 9.43997 44.9 9.61997 44.71C9.88997 44.43 10.14 44.13 10.45 43.78C11.2 45.18 11.9 46.49 12.61 47.8C12.75 48.04 12.7 48.16 12.49 48.3ZM13.95 46.34C13.32 45.15 12.72 44.04 12.16 42.99C12.73 42.99 13.29 43.01 13.85 42.98C14.38 42.95 14.91 42.88 15.53 42.82C15 43.99 14.49 45.13 13.95 46.34ZM18.42 45.28C18.03 46.59 17.64 47.9 17.29 49.22C17.2 49.56 17.09 49.5 16.89 49.34C16.41 48.98 15.92 48.63 15.42 48.3C15.2 48.15 15.18 48.02 15.3 47.8C16.01 46.49 16.71 45.18 17.46 43.79C17.79 44.16 18.05 44.47 18.33 44.78C18.47 44.93 18.48 45.07 18.42 45.28ZM34.2 38.13C34.22 38.12 34.23 38.1 34.24 38.08C35.04 36.85 36.1 36.24 37.63 36.51C38.28 36.62 38.96 36.53 39.63 36.53C40.8 36.53 41.96 36.55 43.13 36.52C43.64 36.51 43.7 36.73 43.58 37.12C43.42 37.65 43.05 37.89 42.5 37.88C41.38 37.87 40.25 37.89 39.13 37.87C38.65 37.86 38.33 38.05 38.03 38.44C37.52 39.09 36.93 39.69 36.4 40.32C36.23 40.52 36.13 40.48 35.96 40.32C35.38 39.75 34.81 39.18 34.21 38.63C33.99 38.43 34 38.3 34.2 38.13ZM42.69 11.5C44.56 11.5 46.44 11.5 48.31 11.5C50.18 11.5 52.06 11.5 53.93 11.5C54.74 11.5 55.14 11.81 55.15 12.42C55.16 13.05 54.73 13.38 53.9 13.38C50.15 13.38 46.41 13.38 42.66 13.38C41.81 13.38 41.38 13.07 41.37 12.45C41.36 11.82 41.8 11.5 42.69 11.5ZM35.77 22.12C35.93 22.15 36.19 22.02 36.12 22.37C36.06 22.7 36.12 23.14 35.48 22.98C35.41 22.94 35.1 23.15 35.14 22.82C35.2 22.47 35.19 22.01 35.77 22.12ZM36.08 25.82C35.82 25.87 35.44 25.99 35.34 25.52C35.3 25.32 35.23 25.13 35.15 24.84C35.59 24.95 36.14 24.6 36.13 25.33C36.13 25.5 36.44 25.75 36.08 25.82ZM36.53 20.21C36.66 20.02 36.75 19.83 36.98 19.82C37.03 19.82 37.13 19.89 37.09 20C36.99 20.23 36.81 20.29 36.53 20.21ZM36.99 27.84C36.9 27.84 36.84 27.78 36.85 27.7C36.85 27.68 36.95 27.64 36.99 27.65C37.03 27.65 37.07 27.7 37.14 27.75C37.07 27.78 37.03 27.83 36.99 27.84ZM46.95 27.39C46.71 27.65 46.47 27.79 46.09 27.78C45.3 27.75 44.51 27.77 43.68 27.77C43.81 27.32 44.01 27.01 44.42 26.74C45.59 25.96 45.45 23.98 44.21 23.26C43.84 23.04 43.41 22.91 43.02 22.73C42.82 22.64 42.65 22.51 42.7 22.25C42.76 21.98 42.99 22 43.2 21.98C43.48 21.96 43.74 22.03 43.98 22.15C44.46 22.38 44.79 22.2 45 21.77C45.21 21.32 44.99 20.99 44.6 20.79C44.22 20.6 43.82 20.5 43.67 20C43.59 19.73 43.25 19.69 42.96 19.74C42.64 19.79 42.41 19.98 42.37 20.29C42.33 20.55 42.2 20.66 41.99 20.8C40.74 21.62 40.85 23.38 42.18 24.05C42.49 24.21 42.83 24.32 43.15 24.46C43.55 24.63 43.77 24.93 43.6 25.35C43.4 25.82 42.97 25.66 42.63 25.56C42.46 25.51 42.33 25.35 42.19 25.22C41.92 24.98 41.63 24.94 41.34 25.16C41.06 25.38 40.91 25.67 41.03 26.04C41.15 26.4 41.41 26.63 41.72 26.81C42.25 27.12 42.25 27.12 42.53 27.76C41.64 27.76 40.8 27.74 39.97 27.77C39.62 27.78 39.43 27.58 39.24 27.37C37.87 25.85 37.49 24.09 38.09 22.15C38.7 20.18 40.14 19.06 42.11 18.64C44.4 18.15 46.57 19.2 47.7 21.24C48.82 23.25 48.5 25.73 46.95 27.39ZM49.13 27.74C49.26 27.21 49.54 27.01 50.1 27.03C51.39 27.08 52.67 27.05 53.96 27.04C54.47 27.04 54.89 27.17 55.12 27.74C53.1 27.74 51.13 27.74 49.13 27.74ZM48.66 19.27C50.6 19.27 52.42 19.26 54.24 19.28C54.81 19.29 55.17 19.72 55.15 20.26C55.13 20.77 54.78 21.14 54.22 21.14C52.83 21.16 51.44 21.14 50.05 21.15C49.83 21.15 49.71 21.07 49.63 20.87C49.4 20.34 49.07 19.86 48.66 19.27ZM54 25.04C53.44 25.05 52.88 25.04 52.32 25.04C51.72 25.04 51.11 25.04 50.51 25.04C50.26 25.04 50.1 25.01 50.19 24.69C50.23 24.55 50.23 24.4 50.23 24.26C50.28 23.14 50.28 23.14 51.44 23.14C52.29 23.14 53.15 23.13 54 23.14C54.73 23.15 55.14 23.5 55.14 24.09C55.14 24.71 54.76 25.03 54 25.04ZM54.63 17.17C54.45 17.27 54.27 17.27 54.09 17.27C51.49 17.27 48.89 17.27 46.29 17.27C46.17 17.27 46.03 17.29 45.92 17.24C44.63 16.68 43.26 16.63 41.88 16.67C41.36 16.69 41.23 16.46 41.44 15.98C41.64 15.51 42.03 15.39 42.51 15.39C44.44 15.4 46.38 15.39 48.31 15.39C50.24 15.39 52.18 15.39 54.11 15.39C54.63 15.39 55 15.61 55.12 16.13C55.22 16.58 55.04 16.94 54.63 17.17Z" fill="#3247D5"/>
<path d="M0.01 61.11C0.01 61.96 0.02 62.82 0 63.67C0 63.94 0.05 64 0.32 64C1.3 63.98 2.28 63.99 3.26 63.99C3.26 63.97 3.26 63.94 3.26 63.92C1.52 63.86 0.44 62.93 0.01 61.11Z" fill="#3247D5"/>
<path d="M23.4499 63.92C18.7299 63.92 14.0199 63.92 9.30994 63.92C9.23994 63.92 9.18994 63.9 9.12994 63.89C9.15994 63.91 9.17994 63.93 9.16994 63.95C9.15994 63.98 9.13994 63.99 9.12994 63.99C14.1299 63.99 19.1299 63.99 24.1199 63.99C24.1199 63.96 24.1199 63.92 24.1299 63.89C23.9099 63.96 23.6799 63.92 23.4499 63.92Z" fill="#3247D5"/>
<path d="M5.42995 63.92C4.74995 63.92 4.06995 63.92 3.38995 63.92C3.34995 63.92 3.30995 63.91 3.26995 63.91C3.27995 63.92 3.29995 63.93 3.29995 63.95C3.28995 63.98 3.26995 63.99 3.25995 63.99C4.00995 63.99 4.75995 63.99 5.50995 63.99C5.46995 63.97 5.45995 63.94 5.46995 63.92C5.45995 63.92 5.44995 63.92 5.42995 63.92Z" fill="#3247D5"/>
<path d="M5.46997 63.92C5.48997 63.92 5.49997 63.92 5.50997 63.92C5.50997 63.91 5.50997 63.9 5.50997 63.89C5.49997 63.88 5.48997 63.89 5.46997 63.92Z" fill="#3247D5"/>
<path d="M3.27995 63.92C3.26995 63.91 3.27995 63.9 3.25995 63.89C3.25995 63.9 3.25995 63.91 3.25995 63.92C3.25995 63.91 3.26995 63.91 3.27995 63.92Z" fill="#3247D5"/>
<path d="M16.78 37.31C16.84 36.59 16.57 36.18 16.02 36.1C15.42 36.02 15.06 36.34 14.92 37.08C14.79 37.79 14.4 38.15 13.77 38.14C13.16 38.13 12.76 37.74 12.65 37.03C12.54 36.35 12.17 36.03 11.58 36.1C11.03 36.17 10.72 36.64 10.79 37.3C10.95 38.85 12.26 40.03 13.83 40.02C15.36 40.02 16.66 38.83 16.78 37.31Z" fill="#3247D5"/>
<path d="M11.92 33.1C11.93 32.66 11.59 32.27 11.16 32.29C10.72 32.32 10.42 32.55 10.38 33.02C10.34 33.46 10.68 33.84 11.11 33.86C11.54 33.89 11.91 33.54 11.92 33.1Z" fill="#3247D5"/>
<path d="M16.25 33.87C16.68 33.87 17.04 33.51 17.02 33.06C17 32.59 16.72 32.34 16.27 32.3C15.84 32.25 15.48 32.63 15.47 33.07C15.46 33.51 15.81 33.87 16.25 33.87Z" fill="#3247D5"/>
</svg>
