<svg width="62" height="60" viewBox="0 0 62 60" fill="none" xmlns="http://www.w3.org/2000/svg">
<path d="M10.3721 36.0421C9.97907 36.0213 9.60987 35.8471 9.34399 35.5569C9.07811 35.2666 8.9368 34.8836 8.95046 34.4903C8.9368 34.0969 9.07811 33.7139 9.34399 33.4237C9.60987 33.1334 9.97907 32.9592 10.3721 32.9385H28.7686C29.1616 32.9592 29.5308 33.1334 29.7967 33.4237C30.0626 33.7139 30.2039 34.0969 30.1902 34.4903C30.2039 34.8836 30.0626 35.2666 29.7967 35.5569C29.5308 35.8471 29.1616 36.0213 28.7686 36.0421H10.3721ZM41.5885 47.9309C41.088 47.165 40.2019 46.1188 40.2019 45.2178C40.2131 44.9256 40.3116 44.6436 40.4847 44.408C40.6578 44.1724 40.8976 43.9941 41.1731 43.8962C41.128 43.1404 41.098 42.3644 41.098 41.5986C41.098 41.148 41.098 40.6875 41.123 40.237C41.1495 40.0018 41.2016 39.7701 41.2782 39.5462C41.6338 38.3952 42.4045 37.4174 43.4407 36.803C43.8103 36.5752 44.2029 36.3873 44.6121 36.2423C45.3529 35.972 44.9925 34.8006 45.8085 34.7856C47.7057 34.7355 50.8143 36.3975 52.0508 37.719C52.8242 38.5169 53.2692 39.5766 53.2972 40.6875L53.2221 44.0514C53.402 44.0891 53.5693 44.1717 53.7085 44.2917C53.8477 44.4116 53.9542 44.5649 54.018 44.7372C54.2783 45.7884 53.1871 47.095 52.6815 47.9309C52.1759 48.7669 50.4289 50.8043 50.4239 50.8243C50.4365 50.9662 50.4925 51.1007 50.584 51.2098C53.3573 55.0242 61.5118 52.0808 61.5118 59.6646H32.7032C32.7032 52.0758 40.8577 55.0242 43.6259 51.2098C43.7268 51.0982 43.796 50.9617 43.8262 50.8143C43.8262 50.7642 41.7738 48.2513 41.5885 47.956V47.9309ZM45.5932 9.44104H50.6892C51.167 9.4394 51.6403 9.53333 52.0814 9.7173C52.5224 9.90127 52.9221 10.1716 53.2572 10.5123C53.9389 11.1931 54.3224 12.1168 54.3234 13.0803V30.9862L51.1847 29.7547V13.0803C51.1847 12.9475 51.132 12.8202 51.0381 12.7263C50.9442 12.6324 50.8169 12.5797 50.6842 12.5797H45.5532V28.9738L42.4295 30.2053V3.63927C42.4295 3.50651 42.3768 3.37918 42.2829 3.2853C42.189 3.19143 42.0617 3.13869 41.9289 3.13869H3.62425C3.49149 3.13869 3.36416 3.19143 3.27028 3.2853C3.17641 3.37918 3.12367 3.50651 3.12367 3.63927V46.9148C3.12367 47.0475 3.17641 47.1748 3.27028 47.2687C3.36416 47.3626 3.49149 47.4153 3.62425 47.4153H32.2476L31.0362 50.559H11.8438V56.3658C11.8438 56.4985 11.8966 56.6259 11.9905 56.7197C12.0843 56.8136 12.2117 56.8664 12.3444 56.8664H28.2179L26.9865 59.99H12.3795C11.415 59.9847 10.4917 59.5989 9.81018 58.9165C9.12869 58.2341 8.74416 57.3102 8.74022 56.3458V50.559H3.63927C2.67484 50.5537 1.75148 50.1679 1.06999 49.4855C0.388492 48.8031 0.00396472 47.8792 2.10702e-05 46.9148V3.63927C-0.00161733 3.16143 0.0923099 2.68809 0.276279 2.24708C0.460248 1.80607 0.730544 1.40629 1.07127 1.07127C1.40747 0.732122 1.80747 0.462859 2.24821 0.279003C2.68895 0.0951467 3.16172 0.000332199 3.63927 2.38724e-05H41.944C42.4226 -0.00172041 42.8967 0.0921389 43.3385 0.276095C43.7804 0.46005 44.181 0.730397 44.517 1.07127C45.2001 1.75158 45.5854 2.67517 45.5882 3.63927V9.44104H45.5932ZM10.3621 14.4469C9.96817 14.4274 9.5977 14.2537 9.33076 13.9633C9.06381 13.673 8.92182 13.2893 8.93545 12.8951C8.92182 12.5009 9.06381 12.1172 9.33076 11.8268C9.5977 11.5364 9.96817 11.3627 10.3621 11.3433H34.9258C35.3188 11.364 35.688 11.5382 35.9539 11.8285C36.2198 12.1187 36.3611 12.5017 36.3474 12.8951C36.3611 13.2884 36.2198 13.6714 35.9539 13.9617C35.688 14.2519 35.3188 14.4261 34.9258 14.4469H10.3621ZM10.3621 25.2445C9.96817 25.225 9.5977 25.0513 9.33076 24.7609C9.06381 24.4706 8.92182 24.0869 8.93545 23.6927C8.92182 23.2985 9.06381 22.9148 9.33076 22.6244C9.5977 22.334 9.96817 22.1603 10.3621 22.1409H34.9258C35.3188 22.1616 35.688 22.3358 35.9539 22.6261C36.2198 22.9163 36.3611 23.2993 36.3474 23.6927C36.3611 24.086 36.2198 24.469 35.9539 24.7593C35.688 25.0495 35.3188 25.2237 34.9258 25.2445H10.3621Z" fill="white"/>
</svg>
