<svg width="60" height="64" viewBox="0 0 60 64" fill="none" xmlns="http://www.w3.org/2000/svg">
<path d="M47.8599 24.31C48.6599 23.92 49.4699 23.53 50.2799 23.17C50.8399 22.92 51.3799 23.1 51.6099 23.59C51.8399 24.08 51.6299 24.59 51.0699 24.87C50.7199 25.05 50.3699 25.25 49.9999 25.37C49.4399 25.54 49.4399 25.8 49.6999 26.27C50.1099 27.02 50.0799 27.04 50.8699 26.66C51.1299 26.54 51.3899 26.39 51.6599 26.29C52.1599 26.1 52.6599 26.31 52.8799 26.75C53.0999 27.21 52.9399 27.69 52.4599 27.97C52.2499 28.1 52.0099 28.18 51.7899 28.3C51.5099 28.46 50.9699 28.51 50.9799 28.77C50.9899 29.17 51.2999 29.56 51.4699 29.95C51.5699 30.18 51.7199 30.02 51.8199 29.97C52.3099 29.75 52.7899 29.48 53.2799 29.28C53.9499 29.01 54.6199 29.45 54.6199 30.18C54.5899 30.53 54.3899 30.82 54.0199 31C53.1899 31.39 52.3799 31.8 51.5399 32.16C50.9499 32.42 50.4799 32.25 50.1999 31.65C49.2499 29.67 48.3099 27.68 47.3799 25.68C47.0699 25.07 47.2399 24.62 47.8599 24.31ZM40.5799 27.76C41.1199 27.49 41.6199 27.73 41.9499 28.44C42.5599 29.71 43.1499 30.99 43.7599 32.27C44.1199 33.02 44.8899 33.27 45.6399 32.9C46.3999 32.52 46.6899 31.78 46.3399 31.04C45.7399 29.76 45.1299 28.49 44.5299 27.21C44.1999 26.5 44.3299 25.99 44.8999 25.73C45.4199 25.49 45.8999 25.73 46.2199 26.4C46.8399 27.69 47.4399 28.99 48.0499 30.28C48.2599 30.72 48.4099 31.17 48.3799 31.56C48.3699 33.1 47.2299 34.48 45.7499 34.84C44.2499 35.21 42.7699 34.53 42.0999 33.15C41.4699 31.84 40.8499 30.53 40.2399 29.21C39.9299 28.54 40.0599 28.02 40.5799 27.76ZM33.5299 31.09C34.1399 30.78 34.7599 30.48 35.3899 30.23C36.6799 29.71 37.8899 29.89 38.9499 30.78C40.2099 31.84 40.8399 33.22 40.8999 34.77C40.8599 36.34 40.2399 37.47 38.8999 38.14C38.3599 38.41 37.8199 38.67 37.2699 38.92C36.6499 39.2 36.1599 39.05 35.8699 38.44C34.9099 36.44 33.9599 34.44 33.0199 32.43C32.7499 31.83 32.9299 31.39 33.5299 31.09ZM10.8699 50.94C8.48992 50.96 6.49992 48.96 6.51992 46.57C6.53992 44.19 8.47992 42.26 10.8599 42.26C13.2399 42.26 15.1899 44.19 15.2099 46.56C15.2399 48.95 13.2899 50.92 10.8699 50.94ZM20.3199 46.92C19.7799 47.17 19.3199 47 18.9199 46.58C17.3499 44.97 15.7699 43.37 14.1999 41.76C13.7299 41.28 13.7099 40.72 14.1099 40.33C14.5199 39.93 15.0499 39.97 15.5399 40.46C16.4499 41.37 17.3499 42.3 18.2599 43.22C18.3999 43.36 18.4999 43.56 18.7699 43.62C18.6199 42.36 18.4699 41.13 18.3199 39.9C18.2799 39.59 18.2399 39.28 18.2299 38.97C18.2199 38.43 18.5099 38.09 19.0299 38.03C19.5599 37.96 19.9399 38.22 20.0399 38.74C20.1699 39.41 20.2299 40.1 20.3099 40.78C20.5099 42.41 20.6999 44.04 20.8999 45.67C20.9599 46.2 20.8499 46.67 20.3199 46.92ZM27.9299 43.34C27.0899 43.75 26.2499 44.15 25.3899 44.52C24.8499 44.76 24.3899 44.6 24.1399 44.07C23.1599 42.03 22.1999 39.99 21.2499 37.94C20.9999 37.4 21.1599 36.95 21.6999 36.69C22.5499 36.26 23.4199 35.86 24.2899 35.47C24.7999 35.25 25.2799 35.44 25.5099 35.89C25.7499 36.37 25.5899 36.86 25.0699 37.15C24.6299 37.39 24.1799 37.6 23.7199 37.79C23.3799 37.93 23.3599 38.08 23.5099 38.39C23.9699 39.37 23.9599 39.38 24.9199 38.93C25.1499 38.82 25.3699 38.71 25.5999 38.63C26.1099 38.45 26.5899 38.64 26.7899 39.12C27.0099 39.62 26.8399 40.03 26.3999 40.29C25.9899 40.53 25.5499 40.72 25.1099 40.91C24.8799 41.01 24.8199 41.12 24.9199 41.38C25.3599 42.5 25.3499 42.5 26.4599 41.98C26.7399 41.85 27.0199 41.7 27.3099 41.6C27.9199 41.4 28.5099 41.83 28.5199 42.46C28.5199 42.88 28.2899 43.16 27.9299 43.34ZM29.6199 41.41C28.6599 39.41 27.7099 37.4 26.7699 35.39C26.4899 34.8 26.6699 34.34 27.2599 34.05C27.7599 33.8 28.2699 33.57 28.7799 33.34C30.0299 32.78 31.3899 33.06 32.1799 34.03C32.9699 35.01 32.9599 36.29 32.1399 37.43C32.0799 37.51 32.0299 37.6 31.9599 37.7C32.6399 37.99 33.2899 38.26 33.9299 38.54C34.6499 38.85 34.9199 39.33 34.6899 39.88C34.4599 40.43 33.9299 40.58 33.2099 40.27C32.3799 39.92 31.5499 39.56 30.6099 39.16C30.8899 39.75 31.1299 40.19 31.3199 40.65C31.5499 41.2 31.3699 41.7 30.8999 41.93C30.4099 42.16 29.8899 41.97 29.6199 41.41Z" fill="white"/>
<path d="M59.05 30.07C58.89 29.6 58.65 29.15 58.44 28.7C57.18 26.05 55.93 23.39 54.67 20.74C54.41 20.18 54.3 19.61 54.31 18.99C54.32 16.6 54.32 14.2 54.32 11.81C54.32 11.54 54.34 11.27 54.27 11C54.15 10.5 53.82 10.21 53.32 10.13C52.83 10.05 52.48 10.3 52.25 10.73C52.05 11.09 52.05 11.49 52.05 11.89C52.05 13.78 52.05 15.68 52.05 17.57C52.05 18.35 52.04 18.35 51.28 18.46C50.32 18.6 50.32 18.6 50.32 17.63C50.32 13.59 50.32 9.54999 50.32 5.50999C50.32 4.22999 49.92 3.83999 48.64 3.80999C48.54 3.80999 48.43 3.80999 48.33 3.80999C36.13 3.80999 23.93 3.80999 11.73 3.80999C11.44 3.80999 11.15 3.79999 10.86 3.84999C10.15 3.95999 9.79998 4.33999 9.72998 5.04999C9.69998 5.35999 9.70998 5.66999 9.70998 5.98999C9.70998 16.32 9.70998 26.65 9.71998 36.97C9.71998 37.55 9.64998 38.01 9.03998 38.29C8.04998 38.75 7.98998 38.73 7.98998 37.63C7.98998 26.34 7.98998 15.06 7.98998 3.76999C7.98998 2.19999 8.10998 2.07999 9.69998 2.07999C23.21 2.07999 36.73 2.07999 50.24 2.07999C50.49 2.07999 50.74 2.06999 50.99 2.08999C51.8 2.14999 52.05 2.40999 52.07 3.22999C52.09 4.22999 52.07 5.22999 52.08 6.22999C52.08 6.60999 52.11 6.97999 52.3 7.31999C52.53 7.71999 52.86 7.94999 53.32 7.88999C53.82 7.82999 54.16 7.53999 54.29 7.03999C54.35 6.81999 54.34 6.58999 54.34 6.35999C54.34 5.29999 54.34 4.23999 54.34 3.16999C54.33 1.34999 53.62 0.429994 51.9 0.00999451C37.32 0.00999451 22.74 0.00999451 8.16998 0.00999451C7.47998 0.129995 6.86998 0.389995 6.40998 0.969995C5.86998 1.60999 5.68998 2.30999 5.68998 3.11999C5.69998 11.59 5.69998 20.06 5.69998 28.53C5.69998 32.03 5.68998 35.52 5.70998 39.02C5.70998 39.6 5.50998 39.94 4.98998 40.18C4.09998 40.6 3.19998 40.98 2.32998 41.44C0.959983 42.19 0.419983 43.67 0.999983 45.12C1.17998 45.56 1.36998 46 1.57998 46.43C2.84998 49.03 4.03998 51.67 5.30998 54.27C5.58998 54.84 5.70998 55.44 5.70998 56.08C5.68998 57.66 5.69998 59.24 5.69998 60.83C5.69998 62.71 6.46998 63.65 8.25998 64C9.50998 64 10.76 64 12.01 64C11.94 63.81 12.08 63.69 12.15 63.54C12.5 62.86 12.21 62.34 11.43 62.3C10.68 62.26 9.92998 62.29 9.17998 62.29C8.83998 62.29 8.50998 62.26 8.20998 62.11C7.81998 61.91 7.61998 61.57 7.60998 61.15C7.56998 59.76 7.58998 58.36 7.59998 56.97C7.59998 56.65 7.71998 56.35 8.07998 56.36C9.29998 56.39 10.26 55.7 11.28 55.21C16.24 52.85 21.23 50.54 26.19 48.17C27.24 47.67 28.28 47.14 29.36 46.69C29.49 46.63 29.62 46.56 29.75 46.49C30.34 46.16 30.54 45.77 30.32 45.36C30.1 44.94 29.63 44.83 29.06 45.11C26.51 46.34 23.95 47.54 21.38 48.74C17.29 50.67 13.23 52.63 9.11998 54.51C8.06998 54.99 7.65998 54.85 7.16998 53.82C5.71998 50.77 4.26998 47.73 2.84998 44.67C2.45998 43.83 2.66998 43.36 3.49998 42.96C6.97998 41.31 10.46 39.67 13.95 38.03C18.15 36.05 22.34 34.06 26.54 32.09C28.8 31.03 31.06 29.97 33.32 28.9C37.77 26.78 42.24 24.68 46.7 22.58C47.9 22.01 49.13 21.48 50.31 20.86C50.57 20.72 50.83 20.6 51.11 20.5C51.9 20.23 52.32 20.38 52.72 21.11C53.28 22.13 53.73 23.21 54.23 24.27C55.16 26.25 56.12 28.21 57.03 30.2C57.54 31.32 57.45 31.69 56.34 32.23C52.71 33.99 49.04 35.69 45.39 37.42C42.87 38.61 40.35 39.81 37.83 41C36.55 41.61 35.28 42.22 33.99 42.8C33.8 42.89 33.61 42.97 33.43 43.08C33 43.35 32.84 43.76 33.04 44.13C33.27 44.55 33.64 44.63 34.06 44.46C34.89 44.12 35.72 43.77 36.49 43.33C38.17 42.37 39.92 41.98 41.86 42.08C44.14 42.2 46.44 42.11 48.73 42.11C49.71 42.11 49.95 41.87 49.96 40.9C49.97 39.9 50 38.9 49.95 37.9C49.92 37.21 50.18 36.8 50.81 36.56C51.16 36.43 51.49 36.24 51.85 36.13C52.19 36.02 52.37 36.16 52.41 36.5C52.44 36.73 52.43 36.96 52.43 37.19C52.43 44.98 52.43 52.77 52.43 60.55C52.43 61.97 52.09 62.32 50.66 62.32C39.42 62.32 28.17 62.32 16.93 62.32C16.68 62.32 16.43 62.31 16.18 62.33C15.41 62.38 15.12 62.91 15.47 63.58C15.55 63.72 15.7 63.83 15.65 64.02C27.69 64.02 39.72 64.02 51.76 64.02C52.72 63.94 53.44 63.49 53.94 62.66C54.28 62.1 54.33 61.49 54.33 60.86C54.33 52.68 54.33 44.49 54.32 36.31C54.32 35.61 54.53 35.2 55.18 34.9C56.05 34.5 56.95 34.16 57.77 33.66C59.02 32.86 59.53 31.47 59.05 30.07ZM11.74 6.47999C11.74 6.00999 11.86 5.89999 12.33 5.89999C18.97 5.91999 25.61 5.91999 32.25 5.89999C32.73 5.89999 32.88 6.00999 32.87 6.50999C32.84 9.52999 32.84 12.55 32.87 15.56C32.87 16.08 32.71 16.16 32.24 16.16C28.93 16.14 25.62 16.15 22.31 16.15C18.98 16.15 15.65 16.14 12.32 16.16C11.86 16.16 11.74 16.06 11.74 15.59C11.77 12.56 11.77 9.51999 11.74 6.47999ZM25.55 30.66C23.23 32.13 20.71 32.63 18 32.34C17.82 32.32 17.63 32.33 17.44 32.34C16.83 32.37 16.46 32.7 16.45 33.24C16.43 33.77 16.77 34.12 17.38 34.21C17.5 34.23 17.63 34.23 17.75 34.24C17.77 34.27 17.78 34.31 17.8 34.34C15.8 35.28 13.81 36.22 11.75 37.2C11.75 34.91 11.76 32.7 11.74 30.5C11.74 30.01 12.07 30.17 12.3 30.17C15.69 30.16 19.08 30.16 22.48 30.16C23.77 30.16 25.06 30.16 26.45 30.16C26.15 30.44 25.82 30.49 25.55 30.66ZM32.87 26.68C32.87 27.11 32.71 27.27 32.36 27.47C31.21 28.13 29.99 28.31 28.67 28.3C23.24 28.25 17.81 28.27 12.38 28.29C11.87 28.29 11.73 28.18 11.74 27.65C11.77 24.63 11.77 21.62 11.74 18.6C11.74 18.12 11.87 18.02 12.33 18.02C15.66 18.04 18.99 18.03 22.32 18.03C25.63 18.03 28.94 18.04 32.24 18.02C32.7 18.02 32.88 18.1 32.87 18.62C32.84 21.31 32.85 23.99 32.87 26.68ZM34.72 6.42999C34.72 6.01999 34.83 5.90999 35.24 5.90999C39.4 5.92999 43.57 5.91999 47.73 5.90999C48.13 5.90999 48.25 5.99999 48.25 6.41999C48.23 9.49999 48.23 12.58 48.25 15.66C48.25 16.07 48.14 16.17 47.73 16.17C45.63 16.15 43.52 16.16 41.42 16.16C39.36 16.16 37.3 16.15 35.24 16.17C34.85 16.17 34.71 16.1 34.71 15.67C34.74 12.59 34.74 9.50999 34.72 6.42999ZM47.02 20.55C43.11 22.31 39.25 24.19 35.37 26.02C35.19 26.11 35 26.19 34.73 26.31C34.73 23.62 34.73 21.04 34.72 18.46C34.72 18.16 34.78 18.02 35.13 18.02C39.37 18.03 43.62 18.03 47.86 18.02C48.16 18.02 48.29 18.11 48.24 18.41C48.23 18.45 48.23 18.49 48.24 18.53C48.47 19.6 48 20.11 47.02 20.55ZM48 40.4C46.43 40.39 44.87 40.4 43.3 40.4C43.29 40.36 43.29 40.32 43.28 40.28C44.91 39.51 46.54 38.74 48.24 37.94C48.24 38.71 48.24 39.39 48.24 40.07C48.25 40.24 48.26 40.4 48 40.4Z" fill="white"/>
<path d="M10.84 44.12C9.50001 44.13 8.39001 45.25 8.39001 46.6C8.39001 47.94 9.51001 49.05 10.86 49.06C12.23 49.07 13.37 47.91 13.34 46.55C13.32 45.2 12.19 44.11 10.84 44.12Z" fill="white"/>
<path d="M37.08 36.59C37.14 36.71 37.15 36.84 37.38 36.79C38.32 36.59 39.01 35.79 39.02 34.85C39.02 34.18 38.78 33.48 38.31 32.82C37.5 31.68 36.42 31.5 35.28 32.31C35.11 32.43 35.13 32.5 35.2 32.65C35.84 33.97 36.46 35.28 37.08 36.59Z" fill="white"/>
<path d="M30.82 35.37C30.61 34.9 30.08 34.86 29.37 35.11C28.73 35.33 28.96 35.65 29.14 36.02C29.23 36.2 29.31 36.4 29.41 36.58C29.47 36.68 29.47 36.83 29.62 36.85C30.06 36.91 30.89 36.14 30.88 35.62C30.87 35.56 30.86 35.46 30.82 35.37Z" fill="white"/>
<path d="M14.94 14C15.11 14.01 15.27 14 15.44 14C19.44 14 23.43 14 27.43 14C28.18 14 28.93 14.02 29.68 13.99C30.44 13.97 30.9 13.29 30.59 12.66C30.39 12.24 30.01 12.11 29.56 12.11C27.15 12.12 24.73 12.12 22.32 12.12C20.9 12.12 19.49 12.12 18.07 12.12C17.03 12.12 15.99 12.11 14.95 12.12C14.33 12.13 13.91 12.51 13.91 13.05C13.91 13.6 14.32 13.98 14.94 14Z" fill="white"/>
<path d="M24.2399 9.98C25.1099 9.99 25.9899 9.98 26.8599 9.98C27.7299 9.98 28.6099 9.99 29.4799 9.98C30.2499 9.97 30.6799 9.62 30.6699 9.02C30.6599 8.43 30.2699 8.11 29.5099 8.11C27.7399 8.11 25.9799 8.11 24.2099 8.11C23.4299 8.11 22.9999 8.46 23.0099 9.05C23.0199 9.64 23.4499 9.97 24.2399 9.98Z" fill="white"/>
<path d="M17.15 9.90999C18.14 10.04 19.14 10.04 20.12 9.90999C20.62 9.83999 20.86 9.43999 20.82 8.94999C20.78 8.46999 20.49 8.13999 19.98 8.10999C19.55 8.08999 19.11 8.10999 18.67 8.10999C18.21 8.10999 17.76 8.08999 17.3 8.11999C16.79 8.14999 16.5 8.44999 16.46 8.94999C16.42 9.43999 16.65 9.83999 17.15 9.90999Z" fill="white"/>
<path d="M29.5499 24.25C24.7199 24.25 19.8899 24.25 15.0699 24.25C14.9199 24.25 14.7699 24.24 14.6399 24.28C14.1599 24.42 13.9099 24.76 13.9299 25.25C13.9499 25.79 14.3699 26.12 15.0199 26.12C17.4499 26.13 19.8899 26.12 22.3199 26.12C24.7299 26.12 27.1499 26.12 29.5599 26.12C30.2499 26.12 30.6599 25.77 30.6699 25.21C30.6899 24.62 30.2799 24.25 29.5499 24.25Z" fill="white"/>
<path d="M24.06 22.08C25.91 22.09 27.76 22.09 29.61 22.08C30.29 22.08 30.68 21.69 30.67 21.12C30.65 20.56 30.29 20.23 29.62 20.22C28.71 20.2 27.79 20.22 26.88 20.22C25.94 20.22 25.01 20.21 24.07 20.22C23.42 20.23 23.03 20.58 23.01 21.11C22.99 21.67 23.39 22.08 24.06 22.08Z" fill="white"/>
<path d="M17.3799 22.08C17.7899 22.11 18.2099 22.09 18.6299 22.09V22.08C19.0899 22.08 19.5499 22.12 19.9999 22.07C20.5199 22.02 20.8199 21.67 20.8499 21.15C20.8799 20.66 20.4899 20.25 19.9499 20.23C19.0999 20.2 18.2499 20.2 17.3999 20.23C16.8299 20.25 16.4899 20.6 16.4699 21.11C16.4299 21.64 16.7899 22.03 17.3799 22.08Z" fill="white"/>
</svg>
