<svg width="60" height="64" viewBox="0 0 60 64" fill="none" xmlns="http://www.w3.org/2000/svg">
<path d="M47.86 24.31C48.66 23.92 49.47 23.53 50.28 23.17C50.84 22.92 51.38 23.1 51.61 23.59C51.84 24.08 51.63 24.59 51.07 24.87C50.72 25.05 50.37 25.25 50 25.37C49.44 25.54 49.44 25.8 49.7 26.27C50.11 27.02 50.08 27.04 50.87 26.66C51.13 26.54 51.39 26.39 51.66 26.29C52.16 26.1 52.66 26.31 52.88 26.75C53.1 27.21 52.94 27.69 52.46 27.97C52.25 28.1 52.01 28.18 51.79 28.3C51.51 28.46 50.97 28.51 50.98 28.77C50.99 29.17 51.3 29.56 51.47 29.95C51.57 30.18 51.72 30.02 51.82 29.97C52.31 29.75 52.79 29.48 53.28 29.28C53.95 29.01 54.62 29.45 54.62 30.18C54.59 30.53 54.39 30.82 54.02 31C53.19 31.39 52.38 31.8 51.54 32.16C50.95 32.42 50.48 32.25 50.2 31.65C49.25 29.67 48.31 27.68 47.38 25.68C47.07 25.07 47.24 24.62 47.86 24.31ZM40.58 27.76C41.12 27.49 41.62 27.73 41.95 28.44C42.56 29.71 43.15 30.99 43.76 32.27C44.12 33.02 44.89 33.27 45.64 32.9C46.4 32.52 46.69 31.78 46.34 31.04C45.74 29.76 45.13 28.49 44.53 27.21C44.2 26.5 44.33 25.99 44.9 25.73C45.42 25.49 45.9 25.73 46.22 26.4C46.84 27.69 47.44 28.99 48.05 30.28C48.26 30.72 48.41 31.17 48.38 31.56C48.37 33.1 47.23 34.48 45.75 34.84C44.25 35.21 42.77 34.53 42.1 33.15C41.47 31.84 40.85 30.53 40.24 29.21C39.93 28.54 40.06 28.02 40.58 27.76ZM33.53 31.09C34.14 30.78 34.76 30.48 35.39 30.23C36.68 29.71 37.89 29.89 38.95 30.78C40.21 31.84 40.84 33.22 40.9 34.77C40.86 36.34 40.24 37.47 38.9 38.14C38.36 38.41 37.82 38.67 37.27 38.92C36.65 39.2 36.16 39.05 35.87 38.44C34.91 36.44 33.96 34.44 33.02 32.43C32.75 31.83 32.93 31.39 33.53 31.09ZM10.87 50.94C8.48998 50.96 6.49999 48.96 6.51999 46.57C6.53999 44.19 8.47998 42.26 10.86 42.26C13.24 42.26 15.19 44.19 15.21 46.56C15.24 48.95 13.29 50.92 10.87 50.94ZM20.32 46.92C19.78 47.17 19.32 47 18.92 46.58C17.35 44.97 15.77 43.37 14.2 41.76C13.73 41.28 13.71 40.72 14.11 40.33C14.52 39.93 15.05 39.97 15.54 40.46C16.45 41.37 17.35 42.3 18.26 43.22C18.4 43.36 18.5 43.56 18.77 43.62C18.62 42.36 18.47 41.13 18.32 39.9C18.28 39.59 18.24 39.28 18.23 38.97C18.22 38.43 18.51 38.09 19.03 38.03C19.56 37.96 19.94 38.22 20.04 38.74C20.17 39.41 20.23 40.1 20.31 40.78C20.51 42.41 20.7 44.04 20.9 45.67C20.96 46.2 20.85 46.67 20.32 46.92ZM27.93 43.34C27.09 43.75 26.25 44.15 25.39 44.52C24.85 44.76 24.39 44.6 24.14 44.07C23.16 42.03 22.2 39.99 21.25 37.94C21 37.4 21.16 36.95 21.7 36.69C22.55 36.26 23.42 35.86 24.29 35.47C24.8 35.25 25.28 35.44 25.51 35.89C25.75 36.37 25.59 36.86 25.07 37.15C24.63 37.39 24.18 37.6 23.72 37.79C23.38 37.93 23.36 38.08 23.51 38.39C23.97 39.37 23.96 39.38 24.92 38.93C25.15 38.82 25.37 38.71 25.6 38.63C26.11 38.45 26.59 38.64 26.79 39.12C27.01 39.62 26.84 40.03 26.4 40.29C25.99 40.53 25.55 40.72 25.11 40.91C24.88 41.01 24.82 41.12 24.92 41.38C25.36 42.5 25.35 42.5 26.46 41.98C26.74 41.85 27.02 41.7 27.31 41.6C27.92 41.4 28.51 41.83 28.52 42.46C28.52 42.88 28.29 43.16 27.93 43.34ZM29.62 41.41C28.66 39.41 27.71 37.4 26.77 35.39C26.49 34.8 26.67 34.34 27.26 34.05C27.76 33.8 28.27 33.57 28.78 33.34C30.03 32.78 31.39 33.06 32.18 34.03C32.97 35.01 32.96 36.29 32.14 37.43C32.08 37.51 32.03 37.6 31.96 37.7C32.64 37.99 33.29 38.26 33.93 38.54C34.65 38.85 34.92 39.33 34.69 39.88C34.46 40.43 33.93 40.58 33.21 40.27C32.38 39.92 31.55 39.56 30.61 39.16C30.89 39.75 31.13 40.19 31.32 40.65C31.55 41.2 31.37 41.7 30.9 41.93C30.41 42.16 29.89 41.97 29.62 41.41Z" fill="#3247D5"/>
<path d="M59.05 30.07C58.89 29.6 58.65 29.15 58.44 28.7C57.18 26.05 55.93 23.39 54.67 20.74C54.41 20.18 54.3 19.61 54.31 18.99C54.32 16.6 54.32 14.2 54.32 11.81C54.32 11.54 54.34 11.27 54.27 11C54.15 10.5 53.82 10.21 53.32 10.13C52.83 10.05 52.48 10.3 52.25 10.73C52.05 11.09 52.05 11.49 52.05 11.89C52.05 13.78 52.05 15.68 52.05 17.57C52.05 18.35 52.04 18.35 51.28 18.46C50.32 18.6 50.32 18.6 50.32 17.63C50.32 13.59 50.32 9.54999 50.32 5.50999C50.32 4.22999 49.92 3.83999 48.64 3.80999C48.54 3.80999 48.43 3.80999 48.33 3.80999C36.13 3.80999 23.93 3.80999 11.73 3.80999C11.44 3.80999 11.15 3.79999 10.86 3.84999C10.15 3.95999 9.79998 4.33999 9.72998 5.04999C9.69998 5.35999 9.70998 5.66999 9.70998 5.98999C9.70998 16.32 9.70998 26.65 9.71998 36.97C9.71998 37.55 9.64998 38.01 9.03998 38.29C8.04998 38.75 7.98998 38.73 7.98998 37.63C7.98998 26.34 7.98998 15.06 7.98998 3.76999C7.98998 2.19999 8.10998 2.07999 9.69998 2.07999C23.21 2.07999 36.73 2.07999 50.24 2.07999C50.49 2.07999 50.74 2.06999 50.99 2.08999C51.8 2.14999 52.05 2.40999 52.07 3.22999C52.09 4.22999 52.07 5.22999 52.08 6.22999C52.08 6.60999 52.11 6.97999 52.3 7.31999C52.53 7.71999 52.86 7.94999 53.32 7.88999C53.82 7.82999 54.16 7.53999 54.29 7.03999C54.35 6.81999 54.34 6.58999 54.34 6.35999C54.34 5.29999 54.34 4.23999 54.34 3.16999C54.33 1.34999 53.62 0.429994 51.9 0.00999451C37.32 0.00999451 22.74 0.00999451 8.16998 0.00999451C7.47998 0.129995 6.86998 0.389995 6.40998 0.969995C5.86998 1.60999 5.68998 2.30999 5.68998 3.11999C5.69998 11.59 5.69998 20.06 5.69998 28.53C5.69998 32.03 5.68998 35.52 5.70998 39.02C5.70998 39.6 5.50998 39.94 4.98998 40.18C4.09998 40.6 3.19998 40.98 2.32998 41.44C0.959983 42.19 0.419983 43.67 0.999983 45.12C1.17998 45.56 1.36998 46 1.57998 46.43C2.84998 49.03 4.03998 51.67 5.30998 54.27C5.58998 54.84 5.70998 55.44 5.70998 56.08C5.68998 57.66 5.69998 59.24 5.69998 60.83C5.69998 62.71 6.46998 63.65 8.25998 64C9.50998 64 10.76 64 12.01 64C11.94 63.81 12.08 63.69 12.15 63.54C12.5 62.86 12.21 62.34 11.43 62.3C10.68 62.26 9.92998 62.29 9.17998 62.29C8.83998 62.29 8.50998 62.26 8.20998 62.11C7.81998 61.91 7.61998 61.57 7.60998 61.15C7.56998 59.76 7.58998 58.36 7.59998 56.97C7.59998 56.65 7.71998 56.35 8.07998 56.36C9.29998 56.39 10.26 55.7 11.28 55.21C16.24 52.85 21.23 50.54 26.19 48.17C27.24 47.67 28.28 47.14 29.36 46.69C29.49 46.63 29.62 46.56 29.75 46.49C30.34 46.16 30.54 45.77 30.32 45.36C30.1 44.94 29.63 44.83 29.06 45.11C26.51 46.34 23.95 47.54 21.38 48.74C17.29 50.67 13.23 52.63 9.11998 54.51C8.06998 54.99 7.65998 54.85 7.16998 53.82C5.71998 50.77 4.26998 47.73 2.84998 44.67C2.45998 43.83 2.66998 43.36 3.49998 42.96C6.97998 41.31 10.46 39.67 13.95 38.03C18.15 36.05 22.34 34.06 26.54 32.09C28.8 31.03 31.06 29.97 33.32 28.9C37.77 26.78 42.24 24.68 46.7 22.58C47.9 22.01 49.13 21.48 50.31 20.86C50.57 20.72 50.83 20.6 51.11 20.5C51.9 20.23 52.32 20.38 52.72 21.11C53.28 22.13 53.73 23.21 54.23 24.27C55.16 26.25 56.12 28.21 57.03 30.2C57.54 31.32 57.45 31.69 56.34 32.23C52.71 33.99 49.04 35.69 45.39 37.42C42.87 38.61 40.35 39.81 37.83 41C36.55 41.61 35.28 42.22 33.99 42.8C33.8 42.89 33.61 42.97 33.43 43.08C33 43.35 32.84 43.76 33.04 44.13C33.27 44.55 33.64 44.63 34.06 44.46C34.89 44.12 35.72 43.77 36.49 43.33C38.17 42.37 39.92 41.98 41.86 42.08C44.14 42.2 46.44 42.11 48.73 42.11C49.71 42.11 49.95 41.87 49.96 40.9C49.97 39.9 50 38.9 49.95 37.9C49.92 37.21 50.18 36.8 50.81 36.56C51.16 36.43 51.49 36.24 51.85 36.13C52.19 36.02 52.37 36.16 52.41 36.5C52.44 36.73 52.43 36.96 52.43 37.19C52.43 44.98 52.43 52.77 52.43 60.55C52.43 61.97 52.09 62.32 50.66 62.32C39.42 62.32 28.17 62.32 16.93 62.32C16.68 62.32 16.43 62.31 16.18 62.33C15.41 62.38 15.12 62.91 15.47 63.58C15.55 63.72 15.7 63.83 15.65 64.02C27.69 64.02 39.72 64.02 51.76 64.02C52.72 63.94 53.44 63.49 53.94 62.66C54.28 62.1 54.33 61.49 54.33 60.86C54.33 52.68 54.33 44.49 54.32 36.31C54.32 35.61 54.53 35.2 55.18 34.9C56.05 34.5 56.95 34.16 57.77 33.66C59.02 32.86 59.53 31.47 59.05 30.07ZM11.74 6.47999C11.74 6.00999 11.86 5.89999 12.33 5.89999C18.97 5.91999 25.61 5.91999 32.25 5.89999C32.73 5.89999 32.88 6.00999 32.87 6.50999C32.84 9.52999 32.84 12.55 32.87 15.56C32.87 16.08 32.71 16.16 32.24 16.16C28.93 16.14 25.62 16.15 22.31 16.15C18.98 16.15 15.65 16.14 12.32 16.16C11.86 16.16 11.74 16.06 11.74 15.59C11.77 12.56 11.77 9.51999 11.74 6.47999ZM25.55 30.66C23.23 32.13 20.71 32.63 18 32.34C17.82 32.32 17.63 32.33 17.44 32.34C16.83 32.37 16.46 32.7 16.45 33.24C16.43 33.77 16.77 34.12 17.38 34.21C17.5 34.23 17.63 34.23 17.75 34.24C17.77 34.27 17.78 34.31 17.8 34.34C15.8 35.28 13.81 36.22 11.75 37.2C11.75 34.91 11.76 32.7 11.74 30.5C11.74 30.01 12.07 30.17 12.3 30.17C15.69 30.16 19.08 30.16 22.48 30.16C23.77 30.16 25.06 30.16 26.45 30.16C26.15 30.44 25.82 30.49 25.55 30.66ZM32.87 26.68C32.87 27.11 32.71 27.27 32.36 27.47C31.21 28.13 29.99 28.31 28.67 28.3C23.24 28.25 17.81 28.27 12.38 28.29C11.87 28.29 11.73 28.18 11.74 27.65C11.77 24.63 11.77 21.62 11.74 18.6C11.74 18.12 11.87 18.02 12.33 18.02C15.66 18.04 18.99 18.03 22.32 18.03C25.63 18.03 28.94 18.04 32.24 18.02C32.7 18.02 32.88 18.1 32.87 18.62C32.84 21.31 32.85 23.99 32.87 26.68ZM34.72 6.42999C34.72 6.01999 34.83 5.90999 35.24 5.90999C39.4 5.92999 43.57 5.91999 47.73 5.90999C48.13 5.90999 48.25 5.99999 48.25 6.41999C48.23 9.49999 48.23 12.58 48.25 15.66C48.25 16.07 48.14 16.17 47.73 16.17C45.63 16.15 43.52 16.16 41.42 16.16C39.36 16.16 37.3 16.15 35.24 16.17C34.85 16.17 34.71 16.1 34.71 15.67C34.74 12.59 34.74 9.50999 34.72 6.42999ZM47.02 20.55C43.11 22.31 39.25 24.19 35.37 26.02C35.19 26.11 35 26.19 34.73 26.31C34.73 23.62 34.73 21.04 34.72 18.46C34.72 18.16 34.78 18.02 35.13 18.02C39.37 18.03 43.62 18.03 47.86 18.02C48.16 18.02 48.29 18.11 48.24 18.41C48.23 18.45 48.23 18.49 48.24 18.53C48.47 19.6 48 20.11 47.02 20.55ZM48 40.4C46.43 40.39 44.87 40.4 43.3 40.4C43.29 40.36 43.29 40.32 43.28 40.28C44.91 39.51 46.54 38.74 48.24 37.94C48.24 38.71 48.24 39.39 48.24 40.07C48.25 40.24 48.26 40.4 48 40.4Z" fill="#3247D5"/>
<path d="M10.84 44.12C9.49995 44.13 8.38995 45.25 8.38995 46.6C8.38995 47.94 9.50995 49.05 10.86 49.06C12.23 49.07 13.37 47.91 13.34 46.55C13.32 45.2 12.19 44.11 10.84 44.12Z" fill="#3247D5"/>
<path d="M37.08 36.59C37.14 36.71 37.15 36.84 37.38 36.79C38.32 36.59 39.01 35.79 39.02 34.85C39.02 34.18 38.78 33.48 38.31 32.82C37.5 31.68 36.42 31.5 35.28 32.31C35.11 32.43 35.13 32.5 35.2 32.65C35.84 33.97 36.46 35.28 37.08 36.59Z" fill="#3247D5"/>
<path d="M30.82 35.37C30.61 34.9 30.08 34.86 29.37 35.11C28.73 35.33 28.96 35.65 29.14 36.02C29.23 36.2 29.31 36.4 29.41 36.58C29.47 36.68 29.47 36.83 29.62 36.85C30.06 36.91 30.89 36.14 30.88 35.62C30.87 35.56 30.86 35.46 30.82 35.37Z" fill="#3247D5"/>
<path d="M14.94 14C15.11 14.01 15.27 14 15.44 14C19.44 14 23.43 14 27.43 14C28.18 14 28.93 14.02 29.68 13.99C30.44 13.97 30.9 13.29 30.59 12.66C30.39 12.24 30.01 12.11 29.56 12.11C27.15 12.12 24.73 12.12 22.32 12.12C20.9 12.12 19.49 12.12 18.07 12.12C17.03 12.12 15.99 12.11 14.95 12.12C14.33 12.13 13.91 12.51 13.91 13.05C13.91 13.6 14.32 13.98 14.94 14Z" fill="#3247D5"/>
<path d="M24.24 9.98C25.11 9.99 25.99 9.98 26.86 9.98C27.73 9.98 28.61 9.99 29.48 9.98C30.25 9.97 30.68 9.62 30.67 9.02C30.66 8.43 30.27 8.11 29.51 8.11C27.74 8.11 25.98 8.11 24.21 8.11C23.43 8.11 23 8.46 23.01 9.05C23.02 9.64 23.45 9.97 24.24 9.98Z" fill="#3247D5"/>
<path d="M17.15 9.90999C18.14 10.04 19.14 10.04 20.12 9.90999C20.62 9.83999 20.86 9.43999 20.82 8.94999C20.78 8.46999 20.49 8.13999 19.98 8.10999C19.55 8.08999 19.11 8.10999 18.67 8.10999C18.21 8.10999 17.76 8.08999 17.3 8.11999C16.79 8.14999 16.5 8.44999 16.46 8.94999C16.42 9.43999 16.65 9.83999 17.15 9.90999Z" fill="#3247D5"/>
<path d="M29.55 24.25C24.72 24.25 19.89 24.25 15.07 24.25C14.92 24.25 14.77 24.24 14.64 24.28C14.16 24.42 13.91 24.76 13.93 25.25C13.95 25.79 14.37 26.12 15.02 26.12C17.45 26.13 19.89 26.12 22.32 26.12C24.73 26.12 27.15 26.12 29.56 26.12C30.25 26.12 30.66 25.77 30.67 25.21C30.69 24.62 30.28 24.25 29.55 24.25Z" fill="#3247D5"/>
<path d="M24.06 22.08C25.91 22.09 27.76 22.09 29.61 22.08C30.29 22.08 30.68 21.69 30.67 21.12C30.65 20.56 30.29 20.23 29.62 20.22C28.71 20.2 27.79 20.22 26.88 20.22C25.94 20.22 25.01 20.21 24.07 20.22C23.42 20.23 23.03 20.58 23.01 21.11C22.99 21.67 23.39 22.08 24.06 22.08Z" fill="#3247D5"/>
<path d="M17.38 22.08C17.79 22.11 18.21 22.09 18.63 22.09V22.08C19.09 22.08 19.55 22.12 20 22.07C20.52 22.02 20.82 21.67 20.85 21.15C20.88 20.66 20.49 20.25 19.95 20.23C19.1 20.2 18.25 20.2 17.4 20.23C16.83 20.25 16.49 20.6 16.47 21.11C16.43 21.64 16.79 22.03 17.38 22.08Z" fill="#3247D5"/>
</svg>
