<svg width="64" height="64" viewBox="0 0 64 64" fill="none" xmlns="http://www.w3.org/2000/svg">
<path d="M62.68 27.75C62.2 27.79 61.72 27.73 61.24 27.77C60.79 27.81 60.7 27.65 60.7 27.22C60.71 20.75 60.71 14.27 60.71 7.79999C60.71 6.01999 59.8 4.69999 58.25 4.21999C57.71 4.04999 57.14 4.04999 56.58 4.04999C56.12 4.04999 55.56 4.18999 55.24 3.96999C54.92 3.75999 55.17 3.15999 55.12 2.72999C54.99 1.54999 54.38 0.729994 53.3 0.249995C53.11 0.169995 52.92 0.0999945 52.73 0.0199945C52.31 0.0199945 51.9 0.0199945 51.48 0.0199945C51.44 0.179995 51.28 0.149994 51.18 0.189994C49.84 0.749995 49.21 1.72999 49.24 3.33999C49.25 3.86999 49.17 4.13999 48.56 4.05999C48.12 3.99999 47.56 4.19999 47.23 3.98999C46.86 3.75999 47.13 3.14999 47.07 2.71999C46.87 1.24999 45.99 0.419995 44.62 0.0199945C44.25 0.0199945 43.87 0.0199945 43.5 0.0199945C43.07 0.249995 42.59 0.389995 42.21 0.719995C41.35 1.46999 41.08 2.42999 41.16 3.51999C41.19 3.95999 41.05 4.09999 40.62 4.05999C40.13 4.01999 39.52 4.21999 39.16 3.99999C38.75 3.74999 39.07 3.08999 38.99 2.61999C38.76 1.23999 37.89 0.459994 36.63 0.0199945C36.26 0.0199945 35.88 0.0199945 35.51 0.0199945C34.38 0.379995 33.52 1.01999 33.19 2.22999C33.07 2.67999 33.09 3.13999 33.11 3.58999C33.12 3.92999 33.03 4.10999 32.66 4.04999C32.62 4.03999 32.58 4.04999 32.54 4.04999C32.04 4.03999 31.44 4.20999 31.07 3.97999C30.66 3.72999 30.97 3.06999 30.89 2.58999C30.7 1.47999 30.11 0.689994 29.07 0.239994C28.88 0.159994 28.69 0.0899945 28.5 0.00999451C28.08 0.00999451 27.67 0.00999451 27.25 0.00999451C27.21 0.0499945 27.17 0.109995 27.13 0.129995C25.53 0.809995 25 1.62999 25.01 3.46999C25.01 3.89999 24.95 4.10999 24.45 4.05999C23.96 4.00999 23.35 4.20999 22.98 3.98999C22.6 3.75999 22.89 3.10999 22.82 2.64999C22.6 1.20999 21.71 0.399994 20.37 0.00999451C20 0.00999451 19.62 0.00999451 19.25 0.00999451C18.97 0.139995 18.69 0.249995 18.42 0.399995C17.28 1.06999 16.84 2.11999 16.92 3.38999C16.95 3.87999 16.85 4.10999 16.3 4.04999C15.83 3.99999 15.24 4.20999 14.9 3.98999C14.52 3.74999 14.8 3.11999 14.75 2.65999C14.61 1.48999 13.78 0.489994 12.63 0.139995C12.54 0.109995 12.42 0.149995 12.38 0.00999451C12.01 0.00999451 11.63 0.00999451 11.26 0.00999451C10.13 0.369995 9.27004 1.01999 8.95004 2.22999C8.82004 2.67999 8.84004 3.13999 8.87004 3.59999C8.89004 3.95999 8.77004 4.06999 8.41004 4.05999C7.87004 4.02999 7.33004 4.03999 6.79004 4.05999C4.83004 4.10999 3.33004 5.48999 3.30004 7.41999C3.25004 11.44 3.28004 15.46 3.28004 19.47C3.28004 20.11 3.66004 20.5 4.21004 20.51C4.78004 20.52 5.14004 20.12 5.15004 19.44C5.16004 18.25 5.17004 17.07 5.14004 15.88C5.13004 15.41 5.23004 15.25 5.74004 15.26C23.25 15.28 40.76 15.27 58.27 15.26C58.74 15.26 58.85 15.38 58.85 15.85C58.83 19.6 58.83 23.34 58.85 27.09C58.85 27.61 58.76 27.79 58.19 27.78C54.65 27.75 51.11 27.76 47.57 27.76C46.82 27.76 46.07 27.74 45.32 27.77C44.56 27.8 44.13 28.49 44.45 29.12C44.68 29.57 45.09 29.65 45.56 29.64C51.29 29.63 57.01 29.63 62.74 29.65C63.3 29.65 63.69 29.47 63.98 29.02C63.98 28.81 63.98 28.6 63.98 28.4C63.69 27.88 63.26 27.7 62.68 27.75ZM52.22 1.88999C52.81 1.89999 53.25 2.32999 53.27 2.97999C53.29 3.66999 53.27 4.34999 53.27 5.03999C53.27 5.67999 53.28 6.32999 53.27 6.96999C53.25 7.63999 52.78 8.09999 52.18 8.08999C51.6 8.07999 51.13 7.62999 51.12 6.99999C51.1 5.66999 51.1 4.33999 51.12 3.00999C51.13 2.33999 51.61 1.87999 52.22 1.88999ZM43.03 3.07999C43.04 2.35999 43.5 1.88999 44.12 1.88999C44.75 1.88999 45.18 2.35999 45.2 3.08999C45.22 3.72999 45.2 4.37999 45.2 5.01999C45.2 5.63999 45.22 6.26999 45.2 6.88999C45.18 7.60999 44.72 8.08999 44.1 8.07999C43.48 8.06999 43.03 7.59999 43.02 6.86999C43.01 5.61999 43.01 4.34999 43.03 3.07999ZM34.97 4.98999C34.97 4.31999 34.95 3.65999 34.97 2.98999C34.99 2.33999 35.41 1.90999 36 1.88999C36.6 1.86999 37.1 2.32999 37.11 2.98999C37.13 4.31999 37.13 5.64999 37.11 6.97999C37.1 7.63999 36.6 8.10999 36.01 8.08999C35.43 8.06999 35.01 7.62999 34.97 6.97999C34.97 6.93999 34.97 6.89999 34.97 6.85999C34.97 6.23999 34.97 5.61999 34.97 4.98999ZM27.95 1.88999C28.56 1.88999 29 2.32999 29.02 3.01999C29.04 3.68999 29.02 4.34999 29.02 5.01999C29.02 5.65999 29.03 6.30999 29.02 6.94999C29 7.62999 28.56 8.08999 27.96 8.09999C27.36 8.09999 26.89 7.62999 26.88 6.96999C26.86 5.65999 26.86 4.34999 26.88 3.03999C26.89 2.35999 27.35 1.89999 27.95 1.88999ZM18.8 3.07999C18.81 2.34999 19.27 1.88999 19.9 1.89999C20.53 1.90999 20.96 2.36999 20.98 3.10999C21 3.74999 20.98 4.39999 20.98 5.04999C20.98 5.64999 20.99 6.25999 20.98 6.85999C20.96 7.61999 20.52 8.11999 19.88 8.10999C19.26 8.09999 18.81 7.62999 18.8 6.89999C18.78 5.60999 18.78 4.33999 18.8 3.07999ZM10.74 3.00999C10.75 2.32999 11.21 1.87999 11.82 1.88999C12.42 1.89999 12.87 2.35999 12.88 3.03999C12.89 3.70999 12.88 4.36999 12.88 5.03999C12.88 5.65999 12.89 6.28999 12.88 6.90999C12.87 7.61999 12.41 8.10999 11.79 8.09999C11.19 8.08999 10.74 7.62999 10.74 6.94999C10.72 5.62999 10.72 4.31999 10.74 3.00999ZM58.3 13.39C54.53 13.39 50.76 13.39 46.99 13.39C41.97 13.39 36.95 13.39 31.94 13.39C23.24 13.39 14.53 13.38 5.83004 13.4C5.29004 13.4 5.13004 13.29 5.15004 12.73C5.19004 11.09 5.16004 9.43999 5.17004 7.79999C5.18004 6.53999 5.79004 5.93999 7.06004 5.91999C7.12004 5.91999 7.18004 5.91999 7.25004 5.91999C7.75004 5.92999 8.36004 5.75999 8.72004 5.98999C9.12004 6.24999 8.83004 6.90999 8.89004 7.38999C9.05004 8.81999 10.39 10.01 11.86 9.97999C13.4 9.94999 14.68 8.70999 14.77 7.18999C14.79 6.77999 14.58 6.22999 14.88 6.00999C15.15 5.80999 15.68 5.92999 16.09 5.92999C16.92 5.91999 16.93 5.92999 16.93 6.79999C16.94 8.09999 17.44 9.10999 18.64 9.67999C19.73 10.2 20.79 10.06 21.74 9.31999C22.6 8.64999 22.92 7.71999 22.85 6.66999C22.81 6.07999 22.96 5.82999 23.58 5.91999C24.03 5.97999 24.6 5.79999 24.91 6.01999C25.22 6.22999 24.98 6.82999 25.02 7.25999C25.15 8.77999 26.48 10.01 28 9.97999C29.55 9.95999 30.82 8.73999 30.91 7.19999C30.98 5.91999 30.98 5.91999 32.23 5.91999C33.09 5.91999 33.11 5.91999 33.1 6.82999C33.08 8.08999 33.59 9.05999 34.71 9.63999C35.76 10.18 36.81 10.09 37.77 9.40999C38.72 8.73999 39.09 7.76999 38.99 6.62999C38.94 6.06999 39.1 5.83999 39.69 5.91999C40.14 5.96999 40.7 5.78999 41.02 5.99999C41.36 6.20999 41.11 6.80999 41.16 7.22999C41.35 8.83999 42.64 10.03 44.18 9.97999C45.81 9.92999 47.01 8.67999 47.08 6.97999C47.12 5.92999 47.12 5.92999 48.18 5.92999C49.22 5.92999 49.22 5.92999 49.24 7.00999C49.27 8.56999 50.34 9.75999 51.91 9.95999C53.3 10.14 54.67 9.16999 55.05 7.75999C55.17 7.30999 55.15 6.84999 55.13 6.38999C55.12 6.04999 55.21 5.89999 55.58 5.91999C56.1 5.94999 56.62 5.90999 57.14 5.92999C58.18 5.96999 58.82 6.58999 58.83 7.61999C58.85 9.40999 58.82 11.2 58.85 12.99C58.86 13.47 58.58 13.39 58.3 13.39Z" fill="white"/>
<path d="M62.69 46.48C42.23 46.49 21.78 46.49 1.32002 46.48C0.75002 46.48 0.31002 46.62 0.0200195 47.12C0.0200195 47.33 0.0200195 47.54 0.0200195 47.74C0.16002 48.32 0.58002 48.52 1.13002 48.54C1.61002 48.56 2.09002 48.55 2.57002 48.55C2.90002 48.55 3.07002 48.7 3.08002 49.03C3.08002 49.24 3.09002 49.45 3.09002 49.65C3.09002 53.17 3.08002 56.68 3.10002 60.2C3.11002 62.22 4.13002 63.51 6.03002 63.97C23.32 63.97 40.6 63.97 57.89 63.97C57.93 63.93 57.97 63.88 58.02 63.87C59.65 63.45 60.68 62.24 60.73 60.57C60.77 59.2 60.75 57.82 60.74 56.45C60.73 55.78 60.34 55.36 59.79 55.37C59.24 55.38 58.88 55.8 58.88 56.48C58.87 57.69 58.88 58.9 58.88 60.1C58.88 61.53 58.3 62.11 56.88 62.11C40.33 62.11 23.77 62.11 7.22002 62.11C5.76002 62.11 5.20002 61.54 5.20002 60.07C5.20002 56.41 5.22002 52.74 5.18002 49.08C5.17002 48.45 5.37002 48.36 5.94002 48.36C23.35 48.38 40.76 48.37 58.17 48.37C58.27 48.37 58.38 48.38 58.48 48.37C58.81 48.32 58.9 48.46 58.9 48.79C58.88 49.77 58.89 50.75 58.89 51.73C58.89 52.47 59.23 52.88 59.82 52.88C60.41 52.88 60.76 52.46 60.76 51.73C60.77 50.75 60.77 49.77 60.76 48.79C60.75 48.47 60.82 48.35 61.17 48.36C61.69 48.39 62.21 48.34 62.73 48.38C63.3 48.42 63.74 48.24 64.04 47.75C64.04 47.54 64.04 47.33 64.04 47.13C63.7 46.62 63.26 46.48 62.69 46.48Z" fill="white"/>
<path d="M1.32 29.64C14.4 29.63 27.47 29.63 40.55 29.63C40.74 29.63 40.93 29.65 41.11 29.61C41.51 29.52 41.76 29.25 41.84 28.84C41.91 28.46 41.75 28.15 41.44 27.92C41.17 27.72 40.85 27.76 40.54 27.76C35.54 27.76 30.54 27.76 25.55 27.76C18.95 27.76 12.35 27.76 5.75 27.77C5.3 27.77 5.14 27.69 5.16 27.2C5.2 26.18 5.17 25.16 5.17 24.14C5.17 23.91 5.18 23.68 5.04 23.48C4.77 23.11 4.43 22.93 4 23.05C3.52 23.18 3.29 23.54 3.28 24.03C3.27 25.13 3.27 26.24 3.28 27.34C3.29 27.66 3.21 27.78 2.87 27.76C2.35 27.73 1.83 27.78 1.31 27.74C0.73 27.7 0.3 27.87 0 28.37C0 28.58 0 28.79 0 28.99C0.31 29.5 0.74 29.64 1.32 29.64Z" fill="white"/>
<path d="M6.38002 43.2C8.97002 42.61 10.66 40.34 10.51 37.65C10.38 35.27 8.38002 33.14 6.01002 32.86C3.31002 32.54 0.99002 34.05 0.22002 36.62C0.17002 36.78 0.22002 37.01 0.0200195 37.11C0.0200195 37.73 0.0200195 38.36 0.0200195 38.98C0.23002 39.13 0.19002 39.39 0.25002 39.59C1.06002 42.21 3.77002 43.8 6.38002 43.2ZM5.29002 34.68C7.15002 34.7 8.64002 36.21 8.64002 38.07C8.64002 39.93 7.13002 41.44 5.27002 41.45C3.40002 41.46 1.87002 39.91 1.88002 38.03C1.90002 36.18 3.44002 34.66 5.29002 34.68Z" fill="white"/>
<path d="M62.9 32.79C61.78 32.81 60.65 32.78 59.53 32.8C58.8 32.81 58.49 33.16 58.48 33.91C58.47 36.68 58.47 39.45 58.48 42.22C58.48 42.99 58.81 43.31 59.59 43.32C60.59 43.33 61.59 43.3 62.59 43.33C63.16 43.35 63.64 43.23 63.99 42.75C63.99 42.5 63.99 42.25 63.99 42C63.63 41.55 63.15 41.4 62.58 41.44C61.96 41.48 61.33 41.44 60.71 41.45C60.44 41.46 60.35 41.36 60.35 41.09C60.37 40.51 60.37 39.92 60.35 39.34C60.34 39.07 60.43 38.98 60.7 38.99C61.34 39.01 61.99 39 62.63 38.99C63.3 38.98 63.72 38.6 63.72 38.05C63.72 37.5 63.29 37.13 62.62 37.12C62.02 37.11 61.41 37.1 60.81 37.12C60.49 37.13 60.32 37.08 60.34 36.69C60.37 36.15 60.37 35.61 60.34 35.07C60.33 34.74 60.43 34.63 60.76 34.65C61.36 34.67 61.97 34.63 62.57 34.67C63.14 34.71 63.61 34.57 63.98 34.12C63.98 33.87 63.98 33.62 63.98 33.37C63.7 33.05 63.39 32.78 62.9 32.79Z" fill="white"/>
<path d="M39.62 32.8C38.73 32.81 38.41 33.13 38.41 34.01C38.4 35.36 38.41 36.71 38.41 38.07C38.42 38.07 38.43 38.07 38.43 38.07C38.43 39.42 38.42 40.77 38.43 42.13C38.44 43.03 38.74 43.32 39.65 43.32C40.44 43.32 41.23 43.31 42.02 43.28C43.33 43.23 44.38 42.65 45.14 41.59C46.3 39.98 46.46 38.17 46 36.29C45.45 34.05 43.91 32.84 41.62 32.79C40.95 32.78 40.29 32.79 39.62 32.8ZM44.05 36.31C44.65 37.86 44.33 39.88 43.34 40.82C42.76 41.37 42.05 41.45 41.48 41.42C40.3 41.44 40.3 41.44 40.29 40.43C40.28 38.68 40.29 36.94 40.27 35.19C40.26 34.79 40.36 34.6 40.78 34.66C40.86 34.67 40.95 34.66 41.03 34.66C42.85 34.67 43.56 35.06 44.05 36.31Z" fill="white"/>
<path d="M34.14 38.91C35.53 38.39 36.36 37.02 36.19 35.68C35.99 34.15 34.88 33.04 33.32 32.84C32.43 32.73 31.53 32.78 30.64 32.8C30 32.82 29.66 33.19 29.66 33.85C29.65 36.64 29.65 39.43 29.66 42.22C29.66 42.89 30.05 43.31 30.61 43.3C31.18 43.29 31.52 42.89 31.52 42.2C31.53 41.37 31.52 40.55 31.52 39.54C32.55 40.71 33.45 41.74 34.36 42.77C34.88 43.36 35.41 43.47 35.87 43.09C36.34 42.69 36.32 42.16 35.8 41.56C35.21 40.88 34.63 40.21 34.02 39.55C33.75 39.26 33.61 39.11 34.14 38.91ZM33.25 37.25C33.13 37.28 33 37.28 32.88 37.28C31.53 37.35 31.53 37.34 31.53 36C31.53 35.98 31.53 35.96 31.53 35.94C31.62 35.52 31.27 34.95 31.74 34.7C32.36 34.38 33.67 34.75 34.05 35.23C34.64 35.96 34.21 37.04 33.25 37.25Z" fill="white"/>
<path d="M56.27 33.74C56.26 33.19 55.87 32.83 55.37 32.81C54.87 32.8 54.49 33.15 54.42 33.7C54.4 33.88 54.41 34.07 54.41 34.26C54.41 35.99 54.41 37.72 54.41 39.44C54.41 39.82 54.4 40.19 54.17 40.52C53.66 41.25 52.54 41.63 51.66 41.35C50.75 41.07 50.28 40.4 50.28 39.37C50.28 37.54 50.29 35.71 50.28 33.87C50.28 33.22 49.93 32.83 49.39 32.81C48.83 32.79 48.42 33.2 48.41 33.87C48.4 35.83 48.36 37.78 48.42 39.74C48.48 41.76 50.26 43.35 52.31 43.32C54.56 43.29 56.23 41.73 56.27 39.61C56.29 38.74 56.27 37.86 56.27 36.99C56.27 36.99 56.27 36.99 56.26 36.99C56.28 35.9 56.3 34.82 56.27 33.74Z" fill="white"/>
<path d="M24.4 34.66C25.02 34.69 25.65 34.67 26.27 34.67C27.04 34.66 27.49 34.31 27.47 33.72C27.45 33.16 27.02 32.8 26.29 32.8C25.25 32.79 24.21 32.79 23.17 32.8C22.27 32.81 21.97 33.11 21.97 34.01C21.96 35.36 21.97 36.72 21.97 38.07C21.97 39.44 21.96 40.82 21.97 42.19C21.98 43.01 22.28 43.32 23.11 43.33C24.21 43.34 25.32 43.34 26.42 43.33C27.05 43.32 27.46 42.95 27.48 42.42C27.5 41.87 27.07 41.48 26.4 41.47C25.73 41.45 25.07 41.44 24.4 41.47C23.98 41.49 23.79 41.39 23.83 40.93C23.87 40.45 23.86 39.97 23.83 39.5C23.81 39.13 23.9 38.99 24.3 39.01C24.96 39.05 25.63 39.04 26.3 39.01C26.83 38.99 27.21 38.57 27.2 38.08C27.2 37.59 26.82 37.2 26.29 37.16C26.1 37.14 25.92 37.16 25.73 37.15C25.11 37.11 24.26 37.42 23.94 37.03C23.63 36.66 23.88 35.84 23.83 35.22C23.8 34.74 23.98 34.64 24.4 34.66Z" fill="white"/>
<path d="M17.9 33.48C17.84 33.63 17.8 33.8 17.75 33.95C17.11 35.87 16.47 37.79 15.79 39.84C15.67 39.52 15.58 39.31 15.51 39.1C14.88 37.28 14.25 35.46 13.62 33.63C13.44 33.11 13.13 32.75 12.53 32.82C11.87 32.9 11.59 33.49 11.86 34.26C12.78 36.95 13.72 39.63 14.64 42.32C14.83 42.88 15.14 43.3 15.77 43.31C16.43 43.32 16.76 42.9 16.95 42.31C17.4 40.91 17.88 39.52 18.34 38.12C18.78 36.78 19.23 35.44 19.66 34.1C19.84 33.54 19.6 33.05 19.11 32.88C18.61 32.71 18.12 32.95 17.9 33.48Z" fill="white"/>
</svg>
