<svg width="62" height="62" viewBox="0 0 62 62" fill="none" xmlns="http://www.w3.org/2000/svg">
<path d="M61.9701 50.19C61.5501 44.67 57.0001 40.22 51.5601 40C45.7501 39.77 40.9201 43.8 40.1101 49.56C40.0701 49.91 39.9501 50 39.6101 50C34.3801 49.99 29.1601 49.99 23.9301 50C23.6201 50 23.4501 49.95 23.3501 49.6C23.1301 48.84 22.8201 48.11 22.4101 47.44C22.2401 47.16 22.2801 46.97 22.4801 46.73C23.0901 46 23.6801 45.23 24.2801 44.49C25.4501 43.07 26.0201 41.44 26.0001 39.6C25.9801 37.23 26.0001 34.85 25.9901 32.48C25.9901 32.12 26.0401 31.97 26.4501 31.99C27.5101 32.02 28.5701 32.01 29.6401 31.99C29.9501 31.98 30.0601 32.08 30.1101 32.39C31.0701 38.62 36.2901 42.62 42.4601 41.88C48.5501 41.15 52.9601 35.12 51.8201 29.08C50.7901 23.62 46.1301 19.86 40.5601 20C35.3101 20.13 30.8501 24.2 30.1101 29.56C30.0601 29.9 29.9501 30.01 29.6101 30C28.5501 29.98 27.4901 29.99 26.4201 30C26.1301 30 25.9901 29.97 25.9801 29.61C25.9201 27.98 25.1001 27 23.5101 26.6C20.5301 25.85 17.5501 25.1 14.5601 24.37C14.1501 24.27 13.9601 24.13 13.9701 23.65C14.0101 21.96 14.0101 20.28 13.9701 18.59C13.9601 18.09 14.1101 17.99 14.5801 17.99C18.0201 18.01 21.4501 18.01 24.8901 18C26.7001 18 27.9801 16.71 28.0001 14.93C28.0101 14.12 28.0301 13.3 27.9901 12.49C27.9701 12.06 28.1201 11.99 28.5101 11.99C32.1701 12 35.8401 12 39.5001 11.99C39.9001 11.99 40.0701 12.07 40.1201 12.51C40.7301 17.68 45.3601 21.86 50.5801 21.99C57.4701 22.16 62.7001 16.39 61.8701 9.53001C61.1401 3.36001 55.0101 -1.03999 48.9001 0.220006C44.1801 1.20001 40.7601 4.83001 40.1101 9.57001C40.0701 9.84001 40.0401 10.02 39.6801 10.02C35.9101 10.01 32.1401 10.01 28.3701 10.02C28.0701 10.02 27.9801 9.93001 27.9901 9.63001C28.0101 8.84001 28.0001 8.05001 28.0001 7.26001C27.9901 5.26001 26.7601 4.02001 24.7801 4.02001C17.6001 4.02001 10.4101 4.02001 3.23007 4.02001C1.28007 4.02001 0.0200694 5.27001 0.0200694 7.21001C0.0100694 9.73001 0.0200694 12.25 0.0200694 14.77C0.0200694 16.76 1.26007 18.01 3.24007 18.01C4.70007 18.01 6.16007 18.02 7.61007 18.01C7.88007 18.01 8.02007 18.03 8.02007 18.37C8.00007 21.6 8.01007 24.85 8.01007 28.22C6.99007 27.47 5.97007 27.04 4.81007 27.01C2.70007 26.95 1.41007 28.93 2.31007 30.84C2.63007 31.52 2.96007 32.18 3.31007 32.85C3.80007 33.77 4.03007 34.74 4.01007 35.78C3.99007 37.15 4.00007 38.53 4.01007 39.9C4.02007 41.47 4.49007 42.89 5.45007 44.13C6.11007 44.99 6.78007 45.84 7.48007 46.66C7.73007 46.96 7.74007 47.18 7.55007 47.52C6.54007 49.36 6.03007 51.34 6.02007 53.43C6.00007 56.13 6.02007 58.81 6.00007 61.5C6.00007 61.93 6.13007 62 6.52007 62C8.50007 61.98 10.4801 61.99 12.4501 61.99C16.0901 61.99 19.7401 61.98 23.3801 62C23.8201 62 24.0601 61.95 24.0101 61.42C23.9501 60.78 24.0101 60.13 23.9901 59.48C23.9501 57.09 24.1001 54.69 23.9001 52.3C23.8701 51.95 24.0601 51.99 24.2701 51.99C29.3901 51.99 34.5201 51.99 39.6401 51.98C39.9601 51.98 40.0601 52.08 40.1101 52.39C41.1101 58.93 46.9401 63.04 53.3301 61.73C58.6001 60.65 62.3801 55.6 61.9701 50.19ZM46.2501 38.3C44.6701 39.41 42.9301 39.97 41.0201 40C39.1501 39.98 37.4701 39.43 35.9101 38.42C35.4101 38.09 35.3901 37.81 35.6501 37.33C36.8401 35.15 38.6601 33.96 41.1501 34.02C43.6101 34.08 45.3601 35.34 46.4501 37.55C46.6101 37.88 46.5701 38.07 46.2501 38.3ZM38.0001 28.95C38.0201 27.3 39.4101 25.97 41.0801 26.01C42.7001 26.05 44.0201 27.42 43.9901 29.06C43.9701 30.69 42.6001 32.01 40.9701 32C39.3201 31.99 37.9801 30.61 38.0001 28.95ZM34.8701 24.42C38.2301 21.25 43.5401 21.19 46.9701 24.28C50.4801 27.44 51.0101 32.61 48.1501 36.41C47.2701 34.78 46.0401 33.53 44.3301 32.73C46.7601 30.29 46.2501 27.18 44.5201 25.46C42.6101 23.56 39.5501 23.53 37.5801 25.36C35.9401 26.88 35.0201 30.03 37.6501 32.73C36.8401 33.13 36.0901 33.62 35.4501 34.25C34.8001 34.87 34.2901 35.6 33.8601 36.41C31.0301 32.83 31.4901 27.6 34.8701 24.42ZM56.2801 18.28C54.6901 19.42 52.9301 19.98 50.9701 20.01C49.0401 19.98 47.2801 19.4 45.6901 18.27C45.4101 18.07 45.3901 17.9 45.5101 17.61C46.4101 15.46 48.6401 14 51.0301 14.01C53.3801 14.02 55.5901 15.5 56.4801 17.63C56.6101 17.93 56.5401 18.09 56.2801 18.28ZM48.0001 8.95001C48.0201 7.32001 49.3801 6.00001 51.0201 6.01001C52.6701 6.02001 54.0201 7.40001 53.9901 9.06001C53.9701 10.69 52.6001 12.01 50.9701 12C49.3101 11.99 47.9701 10.61 48.0001 8.95001ZM44.7201 4.57001C48.0601 1.31001 53.3701 1.15001 56.8601 4.20001C60.4501 7.34001 61.0201 12.54 58.1401 16.42C57.2601 14.79 56.0301 13.54 54.3101 12.74C55.5101 11.55 56.1201 10.17 55.9601 8.52001C55.8301 7.21001 55.2501 6.10001 54.2401 5.23001C52.2601 3.52001 49.3001 3.64001 47.4501 5.50001C45.8701 7.08001 45.1101 10.15 47.6501 12.74C45.9801 13.55 44.7101 14.76 43.8601 16.41C41.0601 13.03 41.4701 7.75001 44.7201 4.57001ZM8.01007 15.06C8.00007 16.01 8.00007 16.01 7.08007 16.01C5.79007 16.01 4.50007 16.01 3.21007 16.01C2.39007 16.01 2.02007 15.64 2.02007 14.84C2.01007 12.3 2.01007 9.76001 2.02007 7.22001C2.02007 6.37001 2.38007 6.02001 3.24007 6.02001C6.84007 6.02001 10.4401 6.02001 14.0401 6.02001C17.5801 6.02001 21.1201 6.02001 24.6501 6.02001C25.6801 6.02001 26.0001 6.34001 26.0001 7.35001C26.0001 9.81001 26.0001 12.26 26.0001 14.72C26.0001 15.69 25.6601 16.02 24.6801 16.02C21.3501 16.02 18.0201 16.01 14.6901 16.03C14.1301 16.03 13.9701 15.9 13.9901 15.33C14.0301 13.45 12.8401 12.1 11.1701 12.02C9.42007 11.93 8.03007 13.27 8.01007 15.06ZM7.13007 43.05C6.38007 42.1 6.00007 41.03 6.00007 39.82C6.00007 38.49 5.98007 37.15 6.01007 35.82C6.04007 34.44 5.73007 33.14 5.09007 31.92C4.76007 31.3 4.44007 30.67 4.14007 30.03C3.84007 29.39 4.13007 28.98 4.84007 29.01C6.52007 29.08 7.96007 30.54 7.99007 32.28C8.02007 33.7 8.01007 35.11 7.99007 36.53C7.98007 36.92 8.08007 37.01 8.47007 37.01C10.0001 37.01 10.0001 37.02 10.0001 35.53C10.0001 28.85 10.0001 22.16 10.0001 15.48C10.0001 15.27 9.98007 15.06 10.0201 14.86C10.1301 14.33 10.4701 14.01 11.0201 14.02C11.5401 14.03 11.8701 14.34 11.9801 14.84C12.0201 15.04 12.0001 15.25 12.0001 15.46C12.0001 22.41 12.0101 29.37 11.9901 36.32C11.9901 36.82 12.0401 37.04 12.6401 37.01C14.0001 36.95 14.0001 36.99 14.0001 35.6C14.0001 32.66 14.0101 29.73 13.9901 26.79C13.9901 26.37 14.0801 26.27 14.4901 26.37C15.9901 26.73 16.0001 26.72 16.0001 28.24C16.0001 30.97 16.0101 33.69 15.9901 36.42C15.9901 36.9 16.1101 37 16.5701 36.99C18.0001 36.98 18.0001 37 18.0001 35.56C18.0001 32.83 18.0001 30.11 18.0001 27.33C20.0001 27.65 20.0001 27.65 20.0001 29.57C20.0001 31.88 20.0101 34.19 19.9901 36.5C19.9901 36.9 20.0801 37.02 20.5001 37.01C22.0001 37 22.0001 37.02 22.0001 35.5C22.0001 33.17 22.0001 30.84 22.0001 28.5C22.0001 28.46 22.0101 28.42 22.0201 28.33C22.4901 28.36 22.9401 28.49 23.3701 28.65C23.8001 28.81 24.0001 29.17 24.0001 29.64C24.0001 33.16 24.0101 36.68 23.9801 40.2C23.9701 41.24 23.5601 42.19 22.9101 43.01C22.2001 43.91 21.4701 44.79 20.7701 45.7C20.5901 45.92 20.3901 46 20.1001 46C16.7101 45.99 13.3101 45.99 9.92007 46C9.59007 46 9.39007 45.88 9.20007 45.63C8.52007 44.76 7.82007 43.91 7.13007 43.05ZM21.5501 60C19.3701 59.99 17.1801 59.99 15.0001 59.99C12.8401 59.99 10.6701 59.99 8.51007 59.99C8.30007 59.99 8.00007 60.12 8.01007 59.68C8.08007 57.15 7.87007 54.6 8.14007 52.07C8.28007 50.76 8.73007 49.53 9.35007 48.37C9.50007 48.09 9.66007 47.99 9.97007 47.99C13.3401 48 16.7101 48 20.0801 47.99C20.3701 47.99 20.5201 48.08 20.6601 48.33C21.4701 49.81 21.9501 51.4 21.9901 53.08C22.0401 55.24 22.0001 57.41 22.0201 59.57C22.0201 59.95 21.8801 60 21.5501 60ZM56.2901 58.26C54.7001 59.4 52.9401 59.96 50.9801 60C49.0501 59.97 47.2901 59.4 45.7001 58.26C45.4301 58.07 45.3801 57.91 45.5101 57.61C46.4001 55.48 48.6101 54.01 50.9601 54C53.3501 53.99 55.5701 55.45 56.4701 57.61C56.6001 57.9 56.5601 58.06 56.2901 58.26ZM48.0001 48.98C48.0001 47.35 49.3401 46 50.9801 46C52.6401 45.99 54.0001 47.35 53.9901 49.01C53.9801 50.64 52.6401 51.99 51.0101 51.99C49.3501 52 47.9901 50.64 48.0001 48.98ZM58.1301 56.39C57.2701 54.74 56.0101 53.52 54.3401 52.71C56.9501 50.03 56.0701 46.88 54.4101 45.34C52.4401 43.51 49.3901 43.55 47.4701 45.45C45.7601 47.14 45.2101 50.25 47.6501 52.7C46.0001 53.52 44.7201 54.71 43.8801 56.36C41.4801 53.55 41.0801 48.35 44.4901 44.79C47.8201 41.32 53.2501 41.04 56.8501 44.16C60.4601 47.3 61.0501 52.72 58.1301 56.39Z" fill="white"/>
</svg>
