<svg width="64" height="58" viewBox="0 0 64 58" fill="none" xmlns="http://www.w3.org/2000/svg">
<path d="M62.68 34.62C42.23 34.63 21.78 34.63 1.33002 34.62C0.76002 34.62 0.32002 34.76 0.0200195 35.25C0.0200195 42.33 0.0200195 49.41 0.0200195 56.49C0.36002 56.86 0.71002 57.22 1.29002 56.99C1.83002 56.78 1.90002 56.33 1.90002 55.82C1.89002 49.57 1.90002 43.33 1.89002 37.08C1.89002 36.63 1.97002 36.49 2.46002 36.49C6.62002 36.51 10.79 36.51 14.95 36.49C15.45 36.49 15.55 36.63 15.55 37.11C15.53 43.29 15.54 49.48 15.54 55.66C15.54 56.6 15.86 57.06 16.49 57.06C17.13 57.06 17.41 56.62 17.41 55.65C17.41 49.49 17.42 43.32 17.39 37.16C17.39 36.59 17.55 36.49 18.08 36.49C22.2 36.51 26.33 36.51 30.45 36.49C30.99 36.49 31.08 36.65 31.08 37.15C31.06 43.29 31.07 49.43 31.07 55.58C31.07 56.61 31.35 57.05 31.99 57.06C32.64 57.07 32.94 56.61 32.94 55.6C32.94 49.46 32.95 43.32 32.93 37.17C32.93 36.64 33.02 36.48 33.59 36.48C37.69 36.51 41.79 36.51 45.9 36.48C46.46 36.48 46.63 36.6 46.62 37.18C46.58 39.16 46.6 41.14 46.61 43.11C46.61 43.9 47.22 44.36 47.88 44.09C48.37 43.89 48.48 43.46 48.48 42.96C48.47 41 48.49 39.05 48.47 37.09C48.46 36.61 48.57 36.47 49.07 36.47C53.21 36.49 57.36 36.49 61.5 36.47C62.04 36.47 62.13 36.62 62.13 37.12C62.11 43.32 62.12 49.53 62.12 55.73C62.12 56.13 62.12 56.53 62.46 56.82C62.92 57.2 63.43 57.09 64 56.47C64 49.39 64 42.31 64 35.23C63.68 34.76 63.25 34.62 62.68 34.62Z" fill="white"/>
<path d="M62.78 0.989994C62.19 1.17999 62.11 1.63999 62.11 2.17999C62.12 8.42999 62.11 14.67 62.12 20.92C62.12 21.37 62.04 21.51 61.55 21.51C57.39 21.49 53.22 21.49 49.06 21.51C48.56 21.51 48.46 21.37 48.46 20.89C48.48 14.71 48.47 8.51999 48.47 2.33999C48.47 1.39999 48.15 0.939994 47.52 0.939994C46.88 0.939994 46.6 1.37999 46.6 2.34999C46.6 8.50999 46.59 14.68 46.62 20.84C46.62 21.41 46.46 21.51 45.93 21.51C41.81 21.49 37.68 21.49 33.56 21.51C33.02 21.51 32.93 21.35 32.93 20.85C32.95 14.71 32.94 8.56999 32.94 2.41999C32.94 1.38999 32.66 0.949994 32.02 0.939994C31.37 0.929994 31.07 1.38999 31.07 2.39999C31.07 8.53999 31.06 14.68 31.08 20.83C31.08 21.35 30.99 21.52 30.42 21.52C26.32 21.49 22.22 21.49 18.11 21.52C17.55 21.52 17.38 21.4 17.39 20.82C17.43 18.88 17.41 16.95 17.4 15.01C17.4 14.2 16.73 13.72 16.07 14.05C15.62 14.27 15.52 14.69 15.53 15.15C15.54 17.07 15.52 18.98 15.54 20.9C15.55 21.38 15.44 21.52 14.94 21.52C10.8 21.5 6.65002 21.5 2.51002 21.52C1.97002 21.52 1.88002 21.37 1.88002 20.87C1.90002 14.67 1.89002 8.45999 1.90002 2.25999C1.90002 1.72999 1.86002 1.24999 1.29002 1.01999C0.72002 0.799994 0.36002 1.14999 0.0200195 1.51999C0.0200195 8.59999 0.0200195 15.68 0.0200195 22.76C0.33002 23.24 0.76002 23.39 1.33002 23.39C21.78 23.38 42.23 23.38 62.68 23.39C63.25 23.39 63.68 23.24 63.99 22.76C63.99 15.68 63.99 8.59999 63.99 1.51999C63.66 1.16999 63.34 0.809994 62.78 0.989994Z" fill="white"/>
<path d="M61.92 25.86C52.78 25.88 43.65 25.87 34.51 25.87C34.39 25.87 34.26 25.87 34.14 25.87C33.47 25.89 33.06 26.25 33.08 26.83C33.09 27.38 33.49 27.74 34.12 27.74C35.29 27.75 36.45 27.77 37.62 27.73C38.08 27.72 38.25 27.82 38.2 28.3C38.13 28.93 38.46 29.78 38.06 30.14C37.71 30.45 36.87 30.24 36.25 30.24C32.96 30.24 29.67 30.23 26.38 30.25C25.92 30.25 25.76 30.15 25.8 29.67C25.85 29.05 25.58 28.2 25.89 27.86C26.25 27.47 27.11 27.76 27.75 27.74C28.35 27.72 28.96 27.75 29.56 27.73C30.15 27.71 30.53 27.35 30.54 26.82C30.55 26.27 30.16 25.88 29.54 25.86C28.67 25.84 27.79 25.86 26.92 25.86C18.64 25.86 10.35 25.87 2.07001 25.85C1.12001 25.85 0.43001 26.13 0.0100098 26.99C0.0100098 28.32 0.0100098 29.66 0.0100098 30.99C0.44001 31.85 1.12001 32.13 2.07001 32.13C22.02 32.11 41.97 32.11 61.91 32.13C62.86 32.13 63.55 31.85 63.97 30.99C63.97 29.66 63.97 28.32 63.97 26.99C63.56 26.14 62.88 25.86 61.92 25.86ZM11.36 30.12C10.99 30.53 10.11 30.23 9.45001 30.24C8.51001 30.26 7.58001 30.24 6.64001 30.24C5.20001 30.24 3.77001 30.23 2.33001 30.25C1.98001 30.25 1.85001 30.17 1.88001 29.81C1.94001 29.13 1.60001 28.25 2.02001 27.84C2.35001 27.51 3.24001 27.75 3.88001 27.75C6.23001 27.75 8.58001 27.76 10.93 27.74C11.33 27.74 11.47 27.83 11.45 28.25C11.41 28.89 11.68 29.76 11.36 30.12ZM23.85 30.13C23.52 30.53 22.64 30.24 22 30.25C20.88 30.27 19.75 30.25 18.63 30.25C17.03 30.25 15.43 30.24 13.82 30.26C13.42 30.27 13.28 30.16 13.31 29.75C13.35 29.11 13.09 28.26 13.41 27.87C13.74 27.47 14.62 27.76 15.26 27.75C17.99 27.74 20.71 27.75 23.44 27.74C23.84 27.74 23.98 27.84 23.95 28.25C23.91 28.89 24.17 29.74 23.85 30.13ZM50.59 30.13C50.26 30.53 49.38 30.24 48.74 30.25C47.62 30.27 46.49 30.25 45.37 30.25C43.75 30.25 42.12 30.24 40.5 30.26C40.15 30.26 40.03 30.18 40.05 29.81C40.09 29.15 39.82 28.27 40.15 27.87C40.49 27.46 41.4 27.75 42.06 27.75C44.76 27.74 47.47 27.75 50.17 27.74C50.57 27.74 50.71 27.83 50.68 28.25C50.65 28.89 50.91 29.74 50.59 30.13ZM62.02 30.12C61.69 30.52 60.81 30.23 60.18 30.24C59.22 30.26 58.27 30.24 57.31 30.24C55.87 30.24 54.44 30.23 53 30.25C52.65 30.25 52.54 30.16 52.55 29.8C52.58 29.14 52.32 28.26 52.65 27.86C52.99 27.46 53.9 27.75 54.56 27.74C56.91 27.73 59.26 27.75 61.61 27.72C62.02 27.72 62.14 27.83 62.12 28.23C62.08 28.89 62.34 29.74 62.02 30.12Z" fill="white"/>
<path d="M38.4799 18.91C39.2699 18.94 40.0599 18.93 40.8499 18.92C42.7299 18.89 43.9899 17.61 43.9999 15.71C44.0099 14.15 43.9999 12.59 43.9999 11.03C43.9999 9.39 44.0099 7.74 43.9999 6.1C43.9899 4.72 43.0999 3.68 41.7299 3.6C40.3999 3.52 39.0599 3.52 37.7399 3.61C36.4399 3.69 35.5199 4.73 35.5199 6.03C35.4999 9.32 35.4899 12.61 35.5199 15.9C35.5299 17.56 36.8099 18.84 38.4799 18.91ZM39.6199 17.04C39.3499 17.04 38.9599 17.06 38.5599 17.04C37.9099 17 37.4499 16.59 37.3899 15.96C37.3499 15.51 37.3699 15.05 37.3699 14.59C37.3699 14.47 37.3499 14.33 37.5299 14.31C37.6899 14.29 37.7499 14.38 37.7799 14.52C37.9399 15.18 38.4099 15.33 39.0099 15.31C39.5299 15.29 40.0499 15.29 40.5699 15.31C41.1399 15.33 41.5499 15.13 41.6999 14.56C41.7399 14.4 41.7799 14.28 41.9699 14.32C42.1499 14.36 42.0899 14.51 42.0999 14.62C42.1099 14.66 42.0999 14.7 42.0999 14.74C42.1899 16.68 42.0799 17.16 39.6199 17.04ZM38.6099 5.43C39.0099 5.43 39.3999 5.43 39.7999 5.43C40.2799 5.43 40.7599 5.43 41.2399 5.43C41.9699 5.44 42.1299 5.6 42.1399 6.3C42.1499 7.34 42.1899 7.21 41.2099 6.95C40.2099 6.68 39.1199 6.57 38.1099 7.07C37.5899 7.33 37.3999 7.23 37.3899 6.67C37.3699 5.51 37.4499 5.43 38.6099 5.43ZM37.3799 9.46C37.3799 9.18 37.4299 9.04 37.7499 9.05C39.0799 9.07 40.4199 9.06 41.7499 9.05C42.0499 9.05 42.1399 9.14 42.1399 9.44C42.1199 10.31 42.1199 11.19 42.1399 12.06C42.1499 12.39 42.0199 12.44 41.7399 12.43C41.0699 12.41 40.4099 12.42 39.7399 12.42C39.0899 12.42 38.4499 12.41 37.7999 12.43C37.4799 12.44 37.3599 12.36 37.3699 12.02C37.3999 11.16 37.3899 10.31 37.3799 9.46Z" fill="white"/>
<path d="M54.1701 18.92C54.7901 18.93 55.4201 18.88 56.0401 18.93C58.0901 19.08 59.6501 17.57 59.5301 15.41C59.4501 13.94 59.5101 12.46 59.5101 10.98C59.5101 9.38 59.5201 7.77 59.5101 6.17C59.5001 4.62 58.5401 3.61 57.0101 3.56C55.8501 3.52 54.6801 3.52 53.5101 3.56C52.0401 3.61 51.0401 4.6 51.0201 6.06C50.9901 9.33 50.9801 12.6 51.0301 15.86C51.0701 17.66 52.3801 18.88 54.1701 18.92ZM55.1701 17.04C54.9001 17.04 54.4901 17.06 54.0701 17.04C53.4401 17 53.0101 16.63 52.9401 16C52.8801 15.53 52.9101 15.05 52.9001 14.57C52.9001 14.43 52.9301 14.32 53.0901 14.31C53.2401 14.3 53.3001 14.4 53.3301 14.54C53.4601 15.19 53.9301 15.32 54.5001 15.31C55.0801 15.3 55.6601 15.31 56.2501 15.31C56.7401 15.31 57.0901 15.09 57.2301 14.61C57.2701 14.47 57.2701 14.31 57.4701 14.32C57.6901 14.33 57.6401 14.51 57.6501 14.65C57.6501 14.69 57.6501 14.73 57.6501 14.77C57.7001 16.63 57.6401 17.17 55.1701 17.04ZM54.1501 5.43C54.5201 5.43 54.9001 5.43 55.2701 5.43C55.8101 5.43 56.3501 5.43 56.8901 5.43C57.4001 5.43 57.6701 5.66 57.6501 6.19C57.6401 6.38 57.6401 6.56 57.6501 6.75C57.7001 7.33 57.3301 7.24 57.0101 7.11C55.8501 6.63 54.7101 6.62 53.5601 7.11C53.1201 7.3 52.9101 7.18 52.9001 6.7C52.8701 5.53 52.9701 5.43 54.1501 5.43ZM52.9001 9.45C52.9001 9.16 52.9901 9.05 53.2901 9.05C54.6201 9.06 55.9501 9.06 57.2801 9.05C57.5901 9.05 57.6601 9.18 57.6601 9.46C57.6501 10.31 57.6401 11.16 57.6601 12.01C57.6701 12.33 57.5801 12.45 57.2501 12.44C56.6101 12.41 55.9601 12.43 55.3201 12.43C54.6601 12.43 53.9901 12.42 53.3301 12.44C53.0001 12.45 52.9001 12.33 52.9101 12.01C52.9201 11.15 52.9101 10.3 52.9001 9.45Z" fill="white"/>
<path d="M16.45 11.43C17.04 11.44 17.4 11.04 17.4 10.31C17.41 8.96 17.4 7.61 17.4 6.26C17.4 4.85 17.41 3.44 17.4 2.02C17.4 1.34 17.03 0.929998 16.47 0.939998C15.92 0.939998 15.54 1.37 15.53 2.04C15.52 4.8 15.52 7.56 15.53 10.33C15.53 11.01 15.89 11.42 16.45 11.43Z" fill="white"/>
<path d="M25.5001 39.09C24.7101 39.06 23.92 39.07 23.13 39.08C21.28 39.11 20.01 40.39 20 42.24C19.99 43.84 20 45.45 20 47.05C20 48.67 19.99 50.3 20 51.92C20.01 53.27 20.89 54.29 22.23 54.4C23.58 54.51 24.9401 54.51 26.2801 54.4C27.5801 54.29 28.48 53.27 28.49 51.96C28.51 48.67 28.52 45.38 28.49 42.09C28.46 40.42 27.1701 39.15 25.5001 39.09ZM21.8701 42.75C21.8701 42.56 21.8601 42.38 21.8701 42.19C21.9001 41.44 22.33 40.98 23.08 40.96C23.85 40.94 24.62 40.94 25.39 40.96C26.13 40.98 26.5801 41.44 26.6201 42.18C26.6401 42.57 26.6301 42.97 26.6201 43.37C26.6201 43.5 26.6801 43.68 26.4501 43.7C26.2901 43.71 26.24 43.6 26.21 43.48C26.05 42.82 25.57 42.69 24.97 42.71C24.43 42.73 23.8901 42.72 23.3501 42.71C22.8301 42.7 22.47 42.91 22.3 43.41C22.26 43.54 22.29 43.72 22.07 43.7C21.79 43.68 21.91 43.46 21.89 43.32C21.86 43.13 21.8701 42.94 21.8701 42.75ZM25.41 52.57C25.01 52.57 24.62 52.57 24.22 52.57C23.7 52.57 23.18 52.57 22.66 52.57C22.13 52.57 21.8301 52.34 21.8701 51.78C21.8801 51.61 21.8901 51.44 21.8701 51.28C21.8001 50.74 22.14 50.73 22.47 50.87C23.65 51.38 24.82 51.38 25.99 50.87C26.42 50.68 26.6101 50.82 26.6201 51.31C26.6401 52.48 26.55 52.57 25.41 52.57ZM26.6201 48.61C26.6201 48.9 26.49 48.95 26.24 48.95C24.91 48.94 23.57 48.94 22.24 48.95C21.93 48.95 21.8501 48.85 21.8601 48.55C21.8801 47.68 21.8801 46.8 21.8601 45.93C21.8501 45.6 21.9901 45.56 22.2601 45.56C22.9301 45.57 23.5901 45.56 24.2601 45.56C24.9301 45.56 25.5901 45.57 26.2601 45.56C26.5301 45.55 26.6201 45.64 26.6201 45.91C26.6101 46.82 26.6101 47.71 26.6201 48.61Z" fill="white"/>
<path d="M9.73991 39.08C9.04991 39.07 8.36991 39.07 7.67991 39.08C5.73991 39.1 4.47991 40.35 4.47991 42.29C4.46991 45.45 4.46991 48.62 4.47991 51.78C4.47991 53.42 5.46991 54.41 7.11991 54.44C8.13991 54.46 9.15991 54.45 10.1799 54.44C11.9699 54.43 12.9599 53.44 12.9699 51.66C12.9799 50.12 12.9699 48.58 12.9699 47.04C12.9699 45.46 12.9899 43.88 12.9699 42.29C12.9399 40.36 11.6699 39.1 9.73991 39.08ZM8.84991 40.96C9.10991 40.96 9.52991 40.94 9.93991 40.96C10.5599 40.99 10.9599 41.34 11.0499 41.94C11.1199 42.43 11.0899 42.93 11.0999 43.43C11.0999 43.57 11.0599 43.68 10.8999 43.68C10.7799 43.68 10.6999 43.62 10.6799 43.5C10.5399 42.74 9.98991 42.67 9.35991 42.68C8.83991 42.69 8.31991 42.69 7.79991 42.68C7.27991 42.67 6.90991 42.87 6.76991 43.39C6.72991 43.54 6.71991 43.69 6.51991 43.67C6.30991 43.65 6.35991 43.47 6.34991 43.33C6.34991 43.31 6.34991 43.29 6.34991 43.27C6.31991 41.48 6.23991 40.82 8.84991 40.96ZM9.92991 52.57C9.50991 52.57 9.09991 52.57 8.67991 52.57C8.17991 52.57 7.67991 52.58 7.18991 52.57C6.50991 52.56 6.35991 52.39 6.33991 51.71C6.31991 50.66 6.27991 50.78 7.25991 51.05C8.25991 51.32 9.34991 51.42 10.3499 50.94C10.8899 50.68 11.0799 50.77 11.0799 51.39C11.1099 52.46 10.9999 52.57 9.92991 52.57ZM11.0999 48.55C11.0999 48.84 11.0099 48.95 10.7099 48.95C9.37991 48.94 8.04991 48.94 6.71991 48.95C6.40991 48.95 6.33991 48.83 6.33991 48.54C6.34991 47.69 6.35991 46.84 6.33991 45.99C6.32991 45.67 6.40991 45.55 6.74991 45.56C7.38991 45.59 8.03991 45.57 8.67991 45.57C9.33991 45.57 10.0099 45.58 10.6699 45.56C10.9999 45.55 11.0999 45.66 11.0899 45.99C11.0799 46.85 11.0899 47.7 11.0999 48.55Z" fill="white"/>
<path d="M56.27 39.08C55.65 39.07 55.02 39.08 54.4 39.08C52.32 39.09 51.05 40.34 51.04 42.41C51.03 45.51 51.03 48.61 51.04 51.71C51.04 53.42 52.04 54.42 53.75 54.44C54.77 54.45 55.79 54.45 56.81 54.44C58.53 54.42 59.52 53.44 59.53 51.73C59.54 50.17 59.53 48.61 59.53 47.05C59.53 45.51 59.53 43.97 59.53 42.43C59.53 42.39 59.53 42.35 59.53 42.31C59.5 40.33 58.25 39.09 56.27 39.08ZM55.3 40.96C55.72 40.96 56.13 40.94 56.55 40.97C57.17 41.01 57.59 41.43 57.64 42.04C57.67 42.49 57.66 42.95 57.66 43.41C57.66 43.53 57.67 43.67 57.49 43.69C57.34 43.7 57.28 43.62 57.25 43.48C57.12 42.84 56.67 42.69 56.09 42.7C55.51 42.71 54.93 42.7 54.34 42.7C53.85 42.7 53.49 42.89 53.36 43.39C53.31 43.56 53.28 43.74 53.05 43.69C52.87 43.65 52.91 43.47 52.9 43.32C52.9 43.3 52.9 43.28 52.9 43.26C52.86 41.38 52.94 40.82 55.3 40.96ZM56.93 52.57C56.37 52.58 55.81 52.57 55.25 52.57C54.73 52.57 54.21 52.57 53.69 52.57C53.39 52.57 53.08 52.52 52.98 52.19C52.85 51.77 52.83 51.31 52.97 50.91C53.04 50.72 53.37 50.81 53.59 50.9C54.72 51.38 55.86 51.37 56.99 50.9C57.44 50.71 57.64 50.8 57.65 51.28C57.65 51.47 57.65 51.65 57.65 51.84C57.67 52.34 57.4 52.56 56.93 52.57ZM57.66 48.48C57.67 48.82 57.59 48.96 57.22 48.95C55.93 48.93 54.64 48.93 53.36 48.95C53 48.96 52.9 48.83 52.91 48.49C52.93 47.66 52.93 46.83 52.91 46C52.9 45.68 53 45.56 53.33 45.57C53.99 45.59 54.66 45.58 55.32 45.58C55.96 45.58 56.61 45.6 57.25 45.57C57.59 45.56 57.67 45.67 57.66 45.99C57.64 46.82 57.64 47.65 57.66 48.48Z" fill="white"/>
<path d="M47.4999 46.69C46.9199 46.7 46.5999 47.08 46.5999 47.79C46.5899 49.14 46.5999 50.49 46.5999 51.84C46.5999 53.19 46.5999 54.54 46.5999 55.89C46.5999 56.63 46.9399 57.04 47.5199 57.05C48.0899 57.06 48.4699 56.62 48.4699 55.91C48.4799 53.21 48.4799 50.51 48.4699 47.81C48.4699 47.1 48.0899 46.68 47.4999 46.69Z" fill="white"/>
</svg>
