<svg width="62" height="62" viewBox="0 0 62 62" fill="none" xmlns="http://www.w3.org/2000/svg">
<path d="M61.97 50.19C61.55 44.67 57 40.22 51.56 40C45.75 39.77 40.92 43.8 40.11 49.56C40.07 49.91 39.95 50 39.61 50C34.38 49.99 29.16 49.99 23.93 50C23.62 50 23.45 49.95 23.35 49.6C23.13 48.84 22.82 48.11 22.41 47.44C22.24 47.16 22.28 46.97 22.48 46.73C23.09 46 23.68 45.23 24.28 44.49C25.45 43.07 26.02 41.44 26 39.6C25.98 37.23 26 34.85 25.99 32.48C25.99 32.12 26.04 31.97 26.45 31.99C27.51 32.02 28.57 32.01 29.64 31.99C29.95 31.98 30.06 32.08 30.11 32.39C31.07 38.62 36.29 42.62 42.46 41.88C48.55 41.15 52.96 35.12 51.82 29.08C50.79 23.62 46.13 19.86 40.56 20C35.31 20.13 30.85 24.2 30.11 29.56C30.06 29.9 29.95 30.01 29.61 30C28.55 29.98 27.49 29.99 26.42 30C26.13 30 25.99 29.97 25.98 29.61C25.92 27.98 25.1 27 23.51 26.6C20.53 25.85 17.55 25.1 14.56 24.37C14.15 24.27 13.96 24.13 13.97 23.65C14.01 21.96 14.01 20.28 13.97 18.59C13.96 18.09 14.11 17.99 14.58 17.99C18.02 18.01 21.45 18.01 24.89 18C26.7 18 27.98 16.71 28 14.93C28.01 14.12 28.03 13.3 27.99 12.49C27.97 12.06 28.12 11.99 28.51 11.99C32.17 12 35.84 12 39.5 11.99C39.9 11.99 40.07 12.07 40.12 12.51C40.73 17.68 45.36 21.86 50.58 21.99C57.47 22.16 62.7 16.39 61.87 9.53001C61.14 3.36001 55.01 -1.03999 48.9 0.220006C44.18 1.20001 40.76 4.83001 40.11 9.57001C40.07 9.84001 40.04 10.02 39.68 10.02C35.91 10.01 32.14 10.01 28.37 10.02C28.07 10.02 27.98 9.93001 27.99 9.63001C28.01 8.84001 28 8.05001 28 7.26001C27.99 5.26001 26.76 4.02001 24.78 4.02001C17.6 4.02001 10.41 4.02001 3.23001 4.02001C1.28001 4.02001 0.0200084 5.27001 0.0200084 7.21001C0.0100084 9.73001 0.0200084 12.25 0.0200084 14.77C0.0200084 16.76 1.26001 18.01 3.24001 18.01C4.70001 18.01 6.16001 18.02 7.61001 18.01C7.88001 18.01 8.02001 18.03 8.02001 18.37C8.00001 21.6 8.01001 24.85 8.01001 28.22C6.99001 27.47 5.97001 27.04 4.81001 27.01C2.70001 26.95 1.41001 28.93 2.31001 30.84C2.63001 31.52 2.96001 32.18 3.31001 32.85C3.80001 33.77 4.03001 34.74 4.01001 35.78C3.99001 37.15 4.00001 38.53 4.01001 39.9C4.02001 41.47 4.49001 42.89 5.45001 44.13C6.11001 44.99 6.78001 45.84 7.48001 46.66C7.73001 46.96 7.74001 47.18 7.55001 47.52C6.54001 49.36 6.03001 51.34 6.02001 53.43C6.00001 56.13 6.02001 58.81 6.00001 61.5C6.00001 61.93 6.13001 62 6.52001 62C8.50001 61.98 10.48 61.99 12.45 61.99C16.09 61.99 19.74 61.98 23.38 62C23.82 62 24.06 61.95 24.01 61.42C23.95 60.78 24.01 60.13 23.99 59.48C23.95 57.09 24.1 54.69 23.9 52.3C23.87 51.95 24.06 51.99 24.27 51.99C29.39 51.99 34.52 51.99 39.64 51.98C39.96 51.98 40.06 52.08 40.11 52.39C41.11 58.93 46.94 63.04 53.33 61.73C58.6 60.65 62.38 55.6 61.97 50.19ZM46.25 38.3C44.67 39.41 42.93 39.97 41.02 40C39.15 39.98 37.47 39.43 35.91 38.42C35.41 38.09 35.39 37.81 35.65 37.33C36.84 35.15 38.66 33.96 41.15 34.02C43.61 34.08 45.36 35.34 46.45 37.55C46.61 37.88 46.57 38.07 46.25 38.3ZM38 28.95C38.02 27.3 39.41 25.97 41.08 26.01C42.7 26.05 44.02 27.42 43.99 29.06C43.97 30.69 42.6 32.01 40.97 32C39.32 31.99 37.98 30.61 38 28.95ZM34.87 24.42C38.23 21.25 43.54 21.19 46.97 24.28C50.48 27.44 51.01 32.61 48.15 36.41C47.27 34.78 46.04 33.53 44.33 32.73C46.76 30.29 46.25 27.18 44.52 25.46C42.61 23.56 39.55 23.53 37.58 25.36C35.94 26.88 35.02 30.03 37.65 32.73C36.84 33.13 36.09 33.62 35.45 34.25C34.8 34.87 34.29 35.6 33.86 36.41C31.03 32.83 31.49 27.6 34.87 24.42ZM56.28 18.28C54.69 19.42 52.93 19.98 50.97 20.01C49.04 19.98 47.28 19.4 45.69 18.27C45.41 18.07 45.39 17.9 45.51 17.61C46.41 15.46 48.64 14 51.03 14.01C53.38 14.02 55.59 15.5 56.48 17.63C56.61 17.93 56.54 18.09 56.28 18.28ZM48 8.95001C48.02 7.32001 49.38 6.00001 51.02 6.01001C52.67 6.02001 54.02 7.40001 53.99 9.06001C53.97 10.69 52.6 12.01 50.97 12C49.31 11.99 47.97 10.61 48 8.95001ZM44.72 4.57001C48.06 1.31001 53.37 1.15001 56.86 4.20001C60.45 7.34001 61.02 12.54 58.14 16.42C57.26 14.79 56.03 13.54 54.31 12.74C55.51 11.55 56.12 10.17 55.96 8.52001C55.83 7.21001 55.25 6.10001 54.24 5.23001C52.26 3.52001 49.3 3.64001 47.45 5.50001C45.87 7.08001 45.11 10.15 47.65 12.74C45.98 13.55 44.71 14.76 43.86 16.41C41.06 13.03 41.47 7.75001 44.72 4.57001ZM8.01001 15.06C8.00001 16.01 8.00001 16.01 7.08001 16.01C5.79001 16.01 4.50001 16.01 3.21001 16.01C2.39001 16.01 2.02001 15.64 2.02001 14.84C2.01001 12.3 2.01001 9.76001 2.02001 7.22001C2.02001 6.37001 2.38001 6.02001 3.24001 6.02001C6.84001 6.02001 10.44 6.02001 14.04 6.02001C17.58 6.02001 21.12 6.02001 24.65 6.02001C25.68 6.02001 26 6.34001 26 7.35001C26 9.81001 26 12.26 26 14.72C26 15.69 25.66 16.02 24.68 16.02C21.35 16.02 18.02 16.01 14.69 16.03C14.13 16.03 13.97 15.9 13.99 15.33C14.03 13.45 12.84 12.1 11.17 12.02C9.42001 11.93 8.03001 13.27 8.01001 15.06ZM7.13001 43.05C6.38001 42.1 6.00001 41.03 6.00001 39.82C6.00001 38.49 5.98001 37.15 6.01001 35.82C6.04001 34.44 5.73001 33.14 5.09001 31.92C4.76001 31.3 4.44001 30.67 4.14001 30.03C3.84001 29.39 4.13001 28.98 4.84001 29.01C6.52001 29.08 7.96001 30.54 7.99001 32.28C8.02001 33.7 8.01001 35.11 7.99001 36.53C7.98001 36.92 8.08001 37.01 8.47001 37.01C10 37.01 10 37.02 10 35.53C10 28.85 10 22.16 10 15.48C10 15.27 9.98001 15.06 10.02 14.86C10.13 14.33 10.47 14.01 11.02 14.02C11.54 14.03 11.87 14.34 11.98 14.84C12.02 15.04 12 15.25 12 15.46C12 22.41 12.01 29.37 11.99 36.32C11.99 36.82 12.04 37.04 12.64 37.01C14 36.95 14 36.99 14 35.6C14 32.66 14.01 29.73 13.99 26.79C13.99 26.37 14.08 26.27 14.49 26.37C15.99 26.73 16 26.72 16 28.24C16 30.97 16.01 33.69 15.99 36.42C15.99 36.9 16.11 37 16.57 36.99C18 36.98 18 37 18 35.56C18 32.83 18 30.11 18 27.33C20 27.65 20 27.65 20 29.57C20 31.88 20.01 34.19 19.99 36.5C19.99 36.9 20.08 37.02 20.5 37.01C22 37 22 37.02 22 35.5C22 33.17 22 30.84 22 28.5C22 28.46 22.01 28.42 22.02 28.33C22.49 28.36 22.94 28.49 23.37 28.65C23.8 28.81 24 29.17 24 29.64C24 33.16 24.01 36.68 23.98 40.2C23.97 41.24 23.56 42.19 22.91 43.01C22.2 43.91 21.47 44.79 20.77 45.7C20.59 45.92 20.39 46 20.1 46C16.71 45.99 13.31 45.99 9.92001 46C9.59001 46 9.39001 45.88 9.20001 45.63C8.52001 44.76 7.82001 43.91 7.13001 43.05ZM21.55 60C19.37 59.99 17.18 59.99 15 59.99C12.84 59.99 10.67 59.99 8.51001 59.99C8.30001 59.99 8.00001 60.12 8.01001 59.68C8.08001 57.15 7.87001 54.6 8.14001 52.07C8.28001 50.76 8.73001 49.53 9.35001 48.37C9.50001 48.09 9.66001 47.99 9.97001 47.99C13.34 48 16.71 48 20.08 47.99C20.37 47.99 20.52 48.08 20.66 48.33C21.47 49.81 21.95 51.4 21.99 53.08C22.04 55.24 22 57.41 22.02 59.57C22.02 59.95 21.88 60 21.55 60ZM56.29 58.26C54.7 59.4 52.94 59.96 50.98 60C49.05 59.97 47.29 59.4 45.7 58.26C45.43 58.07 45.38 57.91 45.51 57.61C46.4 55.48 48.61 54.01 50.96 54C53.35 53.99 55.57 55.45 56.47 57.61C56.6 57.9 56.56 58.06 56.29 58.26ZM48 48.98C48 47.35 49.34 46 50.98 46C52.64 45.99 54 47.35 53.99 49.01C53.98 50.64 52.64 51.99 51.01 51.99C49.35 52 47.99 50.64 48 48.98ZM58.13 56.39C57.27 54.74 56.01 53.52 54.34 52.71C56.95 50.03 56.07 46.88 54.41 45.34C52.44 43.51 49.39 43.55 47.47 45.45C45.76 47.14 45.21 50.25 47.65 52.7C46 53.52 44.72 54.71 43.88 56.36C41.48 53.55 41.08 48.35 44.49 44.79C47.82 41.32 53.25 41.04 56.85 44.16C60.46 47.3 61.05 52.72 58.13 56.39Z" fill="#3247D5"/>
</svg>
