<svg width="60" height="64" viewBox="0 0 60 64" fill="none" xmlns="http://www.w3.org/2000/svg">
<path d="M59.1201 12.78C58.9301 11.4 57.7501 10.14 56.3701 10.02C54.5701 9.86 52.7501 9.95 50.9401 9.98C50.4301 9.99 50.1401 10.31 50.1101 10.82C50.0801 11.35 50.3301 11.7 50.8701 11.79C51.0901 11.83 51.3301 11.83 51.5501 11.83C52.9201 11.83 54.3001 11.82 55.6701 11.84C56.7001 11.85 57.2401 12.4 57.3001 13.42C57.3101 13.61 57.3001 13.79 57.3001 13.98C57.3001 21.31 57.3001 28.64 57.3001 35.97C57.3001 36.76 57.3201 37.55 57.2901 38.34C57.2601 39.33 56.7301 39.86 55.7401 39.94C55.5701 39.95 55.4101 39.95 55.2401 39.95C41.2501 39.95 27.2501 39.95 13.2601 39.95C12.9701 39.95 12.6701 39.95 12.3901 39.89C11.7601 39.76 11.3701 39.36 11.2401 38.73C11.2001 38.53 11.1901 38.32 11.1901 38.11C11.2001 36.98 11.0601 37.18 12.0901 37.17C15.1901 37.16 18.3001 37.22 21.4001 37.13C24.3801 37.05 26.1901 34.16 25.1101 31.39C24.4701 29.75 22.9601 28.8 20.9401 28.79C17.8601 28.78 14.7801 28.78 11.6901 28.79C11.3601 28.79 11.1701 28.78 11.1701 28.34C11.1901 23.38 11.1701 18.43 11.1901 13.47C11.1901 12.39 11.7801 11.85 12.8801 11.83C13.0301 11.83 13.1701 11.83 13.3201 11.83C24.2101 11.83 35.1001 11.83 45.9901 11.83C46.2601 11.83 46.5301 11.83 46.8001 11.78C47.3101 11.69 47.5301 11.33 47.5101 10.84C47.4901 10.36 47.2401 10.06 46.7601 9.99C46.5601 9.96 46.3501 9.96 46.1401 9.96C44.1001 9.96 42.0601 9.95 40.0201 9.97C39.5601 9.98 39.4101 9.87 39.4201 9.39C39.4401 8.02 39.4601 6.64 39.3701 5.27C39.1901 2.73 37.0101 0.470004 34.5101 0.130004C34.3101 4.27663e-06 34.0601 0.170004 33.8701 0.0200043C24.7101 0.0200043 15.5401 0.0200043 6.38011 0.0200043C6.19011 0.160004 5.94011 4.27663e-06 5.74011 0.130004C3.20011 0.510004 1.07011 2.73 0.880112 5.27C0.730112 7.26 0.840112 9.27 0.830112 11.27C0.830112 11.37 0.850112 11.48 0.870112 11.58C0.980112 12.02 1.29011 12.25 1.73011 12.26C2.19011 12.27 2.53011 12.05 2.65011 11.58C2.70011 11.36 2.70011 11.13 2.70011 10.9C2.70011 9.3 2.68011 7.69 2.71011 6.09C2.75011 3.6 4.46011 1.91 6.94011 1.9C15.7301 1.9 24.5201 1.9 33.3001 1.9C35.8201 1.9 37.5201 3.59 37.5601 6.12C37.5801 7.22 37.5201 8.33 37.5801 9.43C37.6101 10.06 37.2601 9.97 36.8801 9.97C36.5001 9.97 36.1501 10.06 36.1801 9.43C36.2301 8.29 36.2201 7.14 36.1901 5.99C36.1501 4.46 35.0801 3.31 33.6501 3.28C31.9201 3.24 30.1901 3.26 28.4701 3.28C27.7901 3.29 27.2801 3.64 27.0201 4.28C26.8401 4.72 26.6601 5.17 26.5501 5.63C26.4501 6.03 26.2501 6.13 25.8601 6.13C22.4901 6.11 19.1101 6.13 15.7401 6.12C15.1401 6.12 14.4101 6.35 13.9801 6.02C13.6101 5.73 13.5601 5.02 13.3701 4.49C13.3601 4.45 13.3301 4.42 13.3201 4.38C13.0401 3.66 12.5101 3.28 11.7501 3.28C10.0601 3.27 8.38011 3.26 6.69011 3.28C5.51011 3.29 4.48011 4.1 4.18011 5.2C4.07011 5.6 4.07011 6.02 4.07011 6.44C4.07011 23.47 4.07011 40.51 4.07011 57.54C4.07011 57.73 4.07011 57.92 4.08011 58.1C4.17011 59.66 5.27011 60.73 6.84011 60.73C15.6901 60.74 24.5401 60.74 33.3901 60.73C34.9901 60.73 36.1101 59.66 36.1701 58.06C36.2101 57.12 36.1901 56.19 36.1801 55.25C36.1701 54.54 35.8201 54.19 35.2201 54.2C34.6501 54.21 34.3301 54.56 34.3201 55.24C34.3001 56.03 34.3201 56.82 34.3101 57.61C34.3101 58.65 34.1001 58.85 33.0701 58.85C24.5101 58.85 15.9501 58.85 7.39011 58.85C6.07011 58.85 5.95011 58.73 5.95011 57.44C5.95011 40.47 5.95011 23.5 5.95011 6.52C5.95011 6.42 5.95011 6.31 5.95011 6.21C5.97011 5.38 6.21011 5.13 7.03011 5.12C7.97011 5.12 8.90011 5.11 9.84011 5.12C10.4201 5.12 11.1401 4.94 11.5401 5.21C11.9101 5.46 11.9501 6.21 12.1401 6.73C12.4401 7.55 12.9501 7.95 13.8301 7.96C18.0401 7.97 22.2401 7.97 26.4501 7.96C27.2601 7.96 27.8301 7.55 28.1001 6.77C28.2501 6.36 28.4001 5.95 28.5101 5.53C28.6001 5.19 28.7801 5.1 29.1301 5.1C30.5001 5.12 31.8801 5.11 33.2501 5.11C34.0401 5.11 34.3001 5.37 34.3101 6.15C34.3201 7.17 34.2801 8.19 34.3301 9.21C34.3501 9.77 34.2101 9.94 33.6201 9.94C26.7701 9.92 19.9201 9.93 13.0701 9.93C12.6301 9.93 12.2001 9.93 11.7701 10.06C10.2001 10.53 9.33011 11.81 9.33011 13.69C9.33011 21.79 9.33011 29.89 9.33011 37.99C9.33011 38.24 9.34011 38.49 9.36011 38.74C9.47011 39.83 10.0101 40.64 10.9101 41.25C11.6201 41.72 12.4201 41.79 13.2401 41.79C20.0501 41.79 26.8601 41.79 33.6701 41.78C34.1801 41.78 34.3301 41.89 34.3301 42.42C34.3001 45.02 34.3201 47.63 34.3201 50.23C34.3201 51.22 34.5901 51.63 35.2401 51.64C35.9101 51.65 36.1901 51.23 36.1901 50.2C36.1901 47.6 36.1901 44.99 36.1901 42.39C36.1901 42.21 36.0901 41.94 36.2601 41.86C36.6201 41.68 37.0401 41.75 37.4201 41.82C37.6801 41.87 37.5601 42.18 37.5601 42.36C37.5701 47.21 37.5701 52.06 37.5601 56.92C37.5601 57.4 37.5701 57.88 37.5301 58.36C37.3601 60.46 35.6701 62.08 33.5501 62.08C24.6001 62.09 15.6401 62.09 6.69011 62.08C5.86011 62.08 5.09011 61.82 4.42011 61.33C3.14011 60.41 2.70011 59.13 2.70011 57.59C2.70011 43.87 2.70011 30.13 2.70011 16.38C2.70011 16.11 2.70011 15.84 2.66011 15.57C2.58011 15.09 2.26011 14.85 1.79011 14.84C1.29011 14.83 0.950112 15.07 0.870112 15.58C0.830112 15.85 0.830112 16.12 0.830112 16.39C0.830112 30.07 0.830112 43.75 0.830112 57.44C0.830112 57.79 0.840112 58.15 0.860112 58.5C1.02011 60.88 2.65011 62.96 4.91011 63.7C5.20011 63.79 5.53011 63.76 5.76011 63.99C15.2601 63.99 24.7501 63.99 34.2501 63.99C34.4601 63.77 34.7501 63.87 35.0001 63.8C37.7301 63.05 39.4301 60.77 39.4301 57.75C39.4401 52.69 39.4501 47.63 39.4101 42.57C39.4101 41.91 39.6001 41.8 40.2101 41.81C45.2101 41.83 50.2001 41.82 55.2001 41.82C55.7001 41.82 56.2001 41.82 56.6901 41.68C58.2501 41.24 59.1701 39.95 59.1701 38.14C59.1801 29.96 59.1701 21.77 59.1701 13.59C59.1701 13.32 59.1501 13.05 59.1201 12.78ZM11.1901 31.11C11.1801 30.76 11.3001 30.65 11.6501 30.65C14.8101 30.66 17.9701 30.64 21.1301 30.66C22.5901 30.67 23.5301 31.61 23.5301 32.97C23.5301 34.36 22.5801 35.26 21.0701 35.27C19.5501 35.28 18.0301 35.27 16.5201 35.27C14.9401 35.27 13.3601 35.26 11.7801 35.28C11.3501 35.29 11.1601 35.22 11.1801 34.72C11.2201 33.52 11.2101 32.32 11.1901 31.11Z" fill="white"/>
<path d="M24.0801 14.83C22.9001 14.82 21.7101 14.83 20.5201 14.83C19.3101 14.83 18.1101 14.83 16.9001 14.83C15.5601 14.84 14.9401 15.44 14.9301 16.77C14.9201 18.25 14.9201 19.72 14.9301 21.2C14.9401 22.57 15.5501 23.2 16.9101 23.2C19.3001 23.21 21.6901 23.21 24.0801 23.2C25.4101 23.19 26.0401 22.57 26.0501 21.25C26.0601 19.75 26.0601 18.26 26.0501 16.76C26.0501 15.44 25.4201 14.84 24.0801 14.83ZM24.2001 20.85C24.2101 21.25 24.0601 21.34 23.6901 21.33C22.6101 21.31 21.5201 21.32 20.4401 21.32C19.4001 21.32 18.3601 21.31 17.3201 21.33C16.9501 21.34 16.8001 21.25 16.8101 20.85C16.8301 19.62 16.8401 18.39 16.8101 17.16C16.8001 16.75 16.9601 16.69 17.3201 16.69C19.4401 16.7 21.5701 16.7 23.6901 16.69C24.0501 16.69 24.2101 16.75 24.2001 17.16C24.1701 18.4 24.1701 19.63 24.2001 20.85Z" fill="white"/>
<path d="M41.3601 37.45C41.8401 37.66 42.4801 37.47 42.5801 36.93C42.8001 35.76 43.5401 35.62 44.5001 35.75C44.6601 35.77 44.8301 35.75 45.0001 35.75C46.0801 35.75 46.0801 35.75 46.5101 36.77C46.5801 36.94 46.6801 37.11 46.8001 37.24C47.0701 37.53 47.4201 37.58 47.7701 37.45C48.1501 37.31 48.3501 37 48.3801 36.56C48.3701 36.49 48.3601 36.38 48.3201 36.29C47.4201 33.91 46.5301 31.52 45.6201 29.14C45.4501 28.69 45.0901 28.44 44.6101 28.44C44.1401 28.44 43.7601 28.66 43.5901 29.12C42.6801 31.5 41.7701 33.88 40.8701 36.26C40.6701 36.77 40.9001 37.25 41.3601 37.45ZM44.5801 31.72C44.8701 32.47 45.1201 33.14 45.4001 33.86C44.8101 33.86 44.3201 33.86 43.7701 33.86C44.0401 33.16 44.2901 32.5 44.5801 31.72Z" fill="white"/>
<path d="M38.7002 34.37C40.2802 34.24 41.4402 33.07 41.5002 31.55C41.5602 29.92 40.5102 28.67 38.8602 28.48C38.1602 28.4 37.4502 28.42 36.7402 28.42C35.8602 28.42 35.5502 28.74 35.5402 29.64C35.5302 30.74 35.5402 31.84 35.5402 32.95C35.5402 33.3 35.5402 33.66 35.5402 34.01C35.5402 34.88 35.5202 35.76 35.5602 36.63C35.5902 37.21 35.9602 37.51 36.4902 37.51C37.0302 37.51 37.3502 37.19 37.4002 36.61C37.4202 36.34 37.4002 36.07 37.4102 35.8C37.4302 35.35 37.2302 34.79 37.5002 34.47C37.7402 34.19 38.2902 34.41 38.7002 34.37ZM37.4302 31.35C37.5702 30.97 37.0202 30.24 38.0102 30.28C39.0802 30.32 39.6202 30.65 39.6302 31.39C39.6402 32.05 39.1302 32.48 38.3402 32.5C38.3002 32.5 38.2602 32.49 38.2202 32.5C37.5802 32.62 37.3202 32.36 37.4302 31.72C37.4502 31.62 37.4302 31.51 37.4302 31.41C37.4202 31.39 37.4202 31.37 37.4302 31.35Z" fill="white"/>
<path d="M48.0501 30.28C48.6501 31.2 49.4101 32.06 49.8101 33.06C50.2301 34.09 49.8801 35.28 49.9401 36.39C49.9501 36.54 49.9401 36.69 49.9801 36.82C50.0801 37.22 50.3501 37.46 50.7701 37.5C51.3801 37.56 51.7901 37.17 51.8101 36.46C51.8301 35.5 51.8301 34.54 51.8201 33.59C51.8201 33.28 51.9001 33.03 52.0701 32.78C52.6801 31.87 53.2801 30.94 53.8701 30.01C54.2401 29.42 54.1601 28.91 53.6701 28.6C53.2001 28.3 52.6701 28.45 52.3001 29.01C51.8401 29.7 51.3901 30.4 50.8801 31.18C50.3701 30.4 49.9101 29.68 49.4401 28.98C49.0601 28.42 48.5301 28.28 48.0601 28.59C47.5801 28.91 47.5201 29.43 47.8801 30.01C47.9401 30.1 48.0001 30.19 48.0501 30.28Z" fill="white"/>
<path d="M42.4902 17.97C42.4402 17.44 42.1502 17.14 41.6102 17.11C41.0802 17.08 40.6802 17.41 40.6402 17.95C40.6002 18.51 40.5902 19.08 40.6502 19.63C40.7002 20.15 41.0602 20.45 41.5902 20.44C42.1102 20.43 42.4402 20.12 42.4902 19.59C42.5202 19.32 42.5002 19.05 42.5002 18.78C42.4902 18.51 42.5102 18.23 42.4902 17.97Z" fill="white"/>
<path d="M48.6001 20.44C49.0901 20.46 49.4501 20.2 49.5301 19.7C49.6301 19.08 49.6301 18.46 49.5301 17.84C49.4401 17.3 49.0701 17.07 48.5401 17.11C48.0301 17.15 47.7501 17.45 47.7201 17.96C47.7001 18.23 47.7201 18.5 47.7201 18.77C47.7201 19.04 47.7001 19.31 47.7201 19.58C47.7501 20.12 48.0801 20.41 48.6001 20.44Z" fill="white"/>
<path d="M34.1001 17.92C34.0301 17.39 33.6301 17.07 33.1101 17.11C32.5701 17.15 32.2801 17.46 32.2501 17.99C32.2301 18.51 32.2301 19.03 32.2501 19.55C32.2701 20.09 32.5801 20.39 33.1101 20.43C33.6301 20.47 34.0301 20.14 34.1001 19.6C34.1301 19.33 34.1101 19.06 34.1101 18.79C34.1101 18.5 34.1301 18.21 34.1001 17.92Z" fill="white"/>
<path d="M37.9302 20.42C38.4602 20.47 38.8402 20.22 38.9302 19.7C39.0302 19.09 39.0302 18.45 38.9302 17.84C38.8402 17.31 38.4702 17.07 37.9402 17.11C37.4302 17.15 37.1502 17.44 37.1102 17.95C37.0902 18.22 37.1102 18.49 37.1102 18.76C37.1102 19.03 37.1002 19.3 37.1102 19.57C37.1402 20.08 37.4202 20.38 37.9302 20.42Z" fill="white"/>
<path d="M20.1301 45.57C20.1301 45.58 20.1301 45.59 20.1301 45.6C18.4001 45.6 16.6701 45.52 14.9501 45.62C12.6601 45.75 11.2301 47.9 11.8501 50.12C12.3101 51.77 13.6201 52.68 15.5901 52.69C18.6101 52.7 21.6201 52.7 24.6401 52.69C24.9501 52.69 25.2701 52.67 25.5701 52.62C26.9601 52.37 27.9201 51.61 28.3601 50.25C29.1301 47.83 27.4801 45.62 24.8701 45.58C23.3001 45.55 21.7101 45.57 20.1301 45.57ZM26.6401 48.81C26.7801 49.62 26.3701 50.38 25.6301 50.68C25.3401 50.8 25.0201 50.82 24.7101 50.82C21.6501 50.82 18.6001 50.83 15.5401 50.82C14.4801 50.82 13.8201 50.36 13.6301 49.57C13.3601 48.41 14.1001 47.47 15.3501 47.46C16.9501 47.44 18.5501 47.45 20.1501 47.45C21.7701 47.45 23.3901 47.43 25.0101 47.46C25.8801 47.47 26.5101 48.03 26.6401 48.81Z" fill="white"/>
</svg>
