<svg width="60" height="64" viewBox="0 0 60 64" fill="none" xmlns="http://www.w3.org/2000/svg">
<path d="M59.12 12.78C58.93 11.4 57.75 10.14 56.37 10.02C54.57 9.86 52.75 9.95 50.94 9.98C50.43 9.99 50.14 10.31 50.11 10.82C50.08 11.35 50.33 11.7 50.87 11.79C51.09 11.83 51.33 11.83 51.55 11.83C52.92 11.83 54.3 11.82 55.67 11.84C56.7 11.85 57.24 12.4 57.3 13.42C57.31 13.61 57.3 13.79 57.3 13.98C57.3 21.31 57.3 28.64 57.3 35.97C57.3 36.76 57.32 37.55 57.29 38.34C57.26 39.33 56.73 39.86 55.74 39.94C55.57 39.95 55.41 39.95 55.24 39.95C41.25 39.95 27.25 39.95 13.26 39.95C12.97 39.95 12.67 39.95 12.39 39.89C11.76 39.76 11.37 39.36 11.24 38.73C11.2 38.53 11.19 38.32 11.19 38.11C11.2 36.98 11.06 37.18 12.09 37.17C15.19 37.16 18.3 37.22 21.4 37.13C24.38 37.05 26.19 34.16 25.11 31.39C24.47 29.75 22.96 28.8 20.94 28.79C17.86 28.78 14.78 28.78 11.69 28.79C11.36 28.79 11.17 28.78 11.17 28.34C11.19 23.38 11.17 18.43 11.19 13.47C11.19 12.39 11.78 11.85 12.88 11.83C13.03 11.83 13.17 11.83 13.32 11.83C24.21 11.83 35.1 11.83 45.99 11.83C46.26 11.83 46.53 11.83 46.8 11.78C47.31 11.69 47.53 11.33 47.51 10.84C47.49 10.36 47.24 10.06 46.76 9.99C46.56 9.96 46.35 9.96 46.14 9.96C44.1 9.96 42.06 9.95 40.02 9.97C39.56 9.98 39.41 9.87 39.42 9.39C39.44 8.02 39.46 6.64 39.37 5.27C39.19 2.73 37.01 0.470004 34.51 0.130004C34.31 4.27663e-06 34.06 0.170004 33.87 0.0200043C24.71 0.0200043 15.54 0.0200043 6.37999 0.0200043C6.18999 0.160004 5.93999 4.27663e-06 5.73999 0.130004C3.19999 0.510004 1.06999 2.73 0.87999 5.27C0.72999 7.26 0.83999 9.27 0.82999 11.27C0.82999 11.37 0.84999 11.48 0.86999 11.58C0.97999 12.02 1.28999 12.25 1.72999 12.26C2.18999 12.27 2.52999 12.05 2.64999 11.58C2.69999 11.36 2.69999 11.13 2.69999 10.9C2.69999 9.3 2.67999 7.69 2.70999 6.09C2.74999 3.6 4.45999 1.91 6.93999 1.9C15.73 1.9 24.52 1.9 33.3 1.9C35.82 1.9 37.52 3.59 37.56 6.12C37.58 7.22 37.52 8.33 37.58 9.43C37.61 10.06 37.26 9.97 36.88 9.97C36.5 9.97 36.15 10.06 36.18 9.43C36.23 8.29 36.22 7.14 36.19 5.99C36.15 4.46 35.08 3.31 33.65 3.28C31.92 3.24 30.19 3.26 28.47 3.28C27.79 3.29 27.28 3.64 27.02 4.28C26.84 4.72 26.66 5.17 26.55 5.63C26.45 6.03 26.25 6.13 25.86 6.13C22.49 6.11 19.11 6.13 15.74 6.12C15.14 6.12 14.41 6.35 13.98 6.02C13.61 5.73 13.56 5.02 13.37 4.49C13.36 4.45 13.33 4.42 13.32 4.38C13.04 3.66 12.51 3.28 11.75 3.28C10.06 3.27 8.37999 3.26 6.68999 3.28C5.50999 3.29 4.47999 4.1 4.17999 5.2C4.06999 5.6 4.06999 6.02 4.06999 6.44C4.06999 23.47 4.06999 40.51 4.06999 57.54C4.06999 57.73 4.06999 57.92 4.07999 58.1C4.16999 59.66 5.26999 60.73 6.83999 60.73C15.69 60.74 24.54 60.74 33.39 60.73C34.99 60.73 36.11 59.66 36.17 58.06C36.21 57.12 36.19 56.19 36.18 55.25C36.17 54.54 35.82 54.19 35.22 54.2C34.65 54.21 34.33 54.56 34.32 55.24C34.3 56.03 34.32 56.82 34.31 57.61C34.31 58.65 34.1 58.85 33.07 58.85C24.51 58.85 15.95 58.85 7.38999 58.85C6.06999 58.85 5.94999 58.73 5.94999 57.44C5.94999 40.47 5.94999 23.5 5.94999 6.52C5.94999 6.42 5.94999 6.31 5.94999 6.21C5.96999 5.38 6.20999 5.13 7.02999 5.12C7.96999 5.12 8.89999 5.11 9.83999 5.12C10.42 5.12 11.14 4.94 11.54 5.21C11.91 5.46 11.95 6.21 12.14 6.73C12.44 7.55 12.95 7.95 13.83 7.96C18.04 7.97 22.24 7.97 26.45 7.96C27.26 7.96 27.83 7.55 28.1 6.77C28.25 6.36 28.4 5.95 28.51 5.53C28.6 5.19 28.78 5.1 29.13 5.1C30.5 5.12 31.88 5.11 33.25 5.11C34.04 5.11 34.3 5.37 34.31 6.15C34.32 7.17 34.28 8.19 34.33 9.21C34.35 9.77 34.21 9.94 33.62 9.94C26.77 9.92 19.92 9.93 13.07 9.93C12.63 9.93 12.2 9.93 11.77 10.06C10.2 10.53 9.32999 11.81 9.32999 13.69C9.32999 21.79 9.32999 29.89 9.32999 37.99C9.32999 38.24 9.33999 38.49 9.35999 38.74C9.46999 39.83 10.01 40.64 10.91 41.25C11.62 41.72 12.42 41.79 13.24 41.79C20.05 41.79 26.86 41.79 33.67 41.78C34.18 41.78 34.33 41.89 34.33 42.42C34.3 45.02 34.32 47.63 34.32 50.23C34.32 51.22 34.59 51.63 35.24 51.64C35.91 51.65 36.19 51.23 36.19 50.2C36.19 47.6 36.19 44.99 36.19 42.39C36.19 42.21 36.09 41.94 36.26 41.86C36.62 41.68 37.04 41.75 37.42 41.82C37.68 41.87 37.56 42.18 37.56 42.36C37.57 47.21 37.57 52.06 37.56 56.92C37.56 57.4 37.57 57.88 37.53 58.36C37.36 60.46 35.67 62.08 33.55 62.08C24.6 62.09 15.64 62.09 6.68999 62.08C5.85999 62.08 5.08999 61.82 4.41999 61.33C3.13999 60.41 2.69999 59.13 2.69999 57.59C2.69999 43.87 2.69999 30.13 2.69999 16.38C2.69999 16.11 2.69999 15.84 2.65999 15.57C2.57999 15.09 2.25999 14.85 1.78999 14.84C1.28999 14.83 0.94999 15.07 0.86999 15.58C0.82999 15.85 0.82999 16.12 0.82999 16.39C0.82999 30.07 0.82999 43.75 0.82999 57.44C0.82999 57.79 0.83999 58.15 0.85999 58.5C1.01999 60.88 2.64999 62.96 4.90999 63.7C5.19999 63.79 5.52999 63.76 5.75999 63.99C15.26 63.99 24.75 63.99 34.25 63.99C34.46 63.77 34.75 63.87 35 63.8C37.73 63.05 39.43 60.77 39.43 57.75C39.44 52.69 39.45 47.63 39.41 42.57C39.41 41.91 39.6 41.8 40.21 41.81C45.21 41.83 50.2 41.82 55.2 41.82C55.7 41.82 56.2 41.82 56.69 41.68C58.25 41.24 59.17 39.95 59.17 38.14C59.18 29.96 59.17 21.77 59.17 13.59C59.17 13.32 59.15 13.05 59.12 12.78ZM11.19 31.11C11.18 30.76 11.3 30.65 11.65 30.65C14.81 30.66 17.97 30.64 21.13 30.66C22.59 30.67 23.53 31.61 23.53 32.97C23.53 34.36 22.58 35.26 21.07 35.27C19.55 35.28 18.03 35.27 16.52 35.27C14.94 35.27 13.36 35.26 11.78 35.28C11.35 35.29 11.16 35.22 11.18 34.72C11.22 33.52 11.21 32.32 11.19 31.11Z" fill="#3247D5"/>
<path d="M24.08 14.83C22.9 14.82 21.71 14.83 20.52 14.83C19.31 14.83 18.11 14.83 16.9 14.83C15.56 14.84 14.94 15.44 14.93 16.77C14.92 18.25 14.92 19.72 14.93 21.2C14.94 22.57 15.55 23.2 16.91 23.2C19.3 23.21 21.69 23.21 24.08 23.2C25.41 23.19 26.04 22.57 26.05 21.25C26.06 19.75 26.06 18.26 26.05 16.76C26.05 15.44 25.42 14.84 24.08 14.83ZM24.2 20.85C24.21 21.25 24.06 21.34 23.69 21.33C22.61 21.31 21.52 21.32 20.44 21.32C19.4 21.32 18.36 21.31 17.32 21.33C16.95 21.34 16.8 21.25 16.81 20.85C16.83 19.62 16.84 18.39 16.81 17.16C16.8 16.75 16.96 16.69 17.32 16.69C19.44 16.7 21.57 16.7 23.69 16.69C24.05 16.69 24.21 16.75 24.2 17.16C24.17 18.4 24.17 19.63 24.2 20.85Z" fill="#3247D5"/>
<path d="M41.36 37.45C41.84 37.66 42.48 37.47 42.58 36.93C42.8 35.76 43.54 35.62 44.5 35.75C44.66 35.77 44.83 35.75 45 35.75C46.08 35.75 46.08 35.75 46.51 36.77C46.58 36.94 46.68 37.11 46.8 37.24C47.07 37.53 47.42 37.58 47.77 37.45C48.15 37.31 48.35 37 48.38 36.56C48.37 36.49 48.36 36.38 48.32 36.29C47.42 33.91 46.53 31.52 45.62 29.14C45.45 28.69 45.09 28.44 44.61 28.44C44.14 28.44 43.76 28.66 43.59 29.12C42.68 31.5 41.77 33.88 40.87 36.26C40.67 36.77 40.9 37.25 41.36 37.45ZM44.58 31.72C44.87 32.47 45.12 33.14 45.4 33.86C44.81 33.86 44.32 33.86 43.77 33.86C44.04 33.16 44.29 32.5 44.58 31.72Z" fill="#3247D5"/>
<path d="M38.7 34.37C40.28 34.24 41.44 33.07 41.5 31.55C41.56 29.92 40.51 28.67 38.86 28.48C38.16 28.4 37.45 28.42 36.74 28.42C35.86 28.42 35.55 28.74 35.54 29.64C35.53 30.74 35.54 31.84 35.54 32.95C35.54 33.3 35.54 33.66 35.54 34.01C35.54 34.88 35.52 35.76 35.56 36.63C35.59 37.21 35.96 37.51 36.49 37.51C37.03 37.51 37.35 37.19 37.4 36.61C37.42 36.34 37.4 36.07 37.41 35.8C37.43 35.35 37.23 34.79 37.5 34.47C37.74 34.19 38.29 34.41 38.7 34.37ZM37.43 31.35C37.57 30.97 37.02 30.24 38.01 30.28C39.08 30.32 39.62 30.65 39.63 31.39C39.64 32.05 39.13 32.48 38.34 32.5C38.3 32.5 38.26 32.49 38.22 32.5C37.58 32.62 37.32 32.36 37.43 31.72C37.45 31.62 37.43 31.51 37.43 31.41C37.42 31.39 37.42 31.37 37.43 31.35Z" fill="#3247D5"/>
<path d="M48.05 30.28C48.65 31.2 49.41 32.06 49.81 33.06C50.23 34.09 49.88 35.28 49.94 36.39C49.95 36.54 49.94 36.69 49.98 36.82C50.08 37.22 50.35 37.46 50.77 37.5C51.38 37.56 51.79 37.17 51.81 36.46C51.83 35.5 51.83 34.54 51.82 33.59C51.82 33.28 51.9 33.03 52.07 32.78C52.68 31.87 53.28 30.94 53.87 30.01C54.24 29.42 54.16 28.91 53.67 28.6C53.2 28.3 52.67 28.45 52.3 29.01C51.84 29.7 51.39 30.4 50.88 31.18C50.37 30.4 49.91 29.68 49.44 28.98C49.06 28.42 48.53 28.28 48.06 28.59C47.58 28.91 47.52 29.43 47.88 30.01C47.94 30.1 48 30.19 48.05 30.28Z" fill="#3247D5"/>
<path d="M42.49 17.97C42.44 17.44 42.15 17.14 41.61 17.11C41.08 17.08 40.68 17.41 40.64 17.95C40.6 18.51 40.59 19.08 40.65 19.63C40.7 20.15 41.06 20.45 41.59 20.44C42.11 20.43 42.44 20.12 42.49 19.59C42.52 19.32 42.5 19.05 42.5 18.78C42.49 18.51 42.51 18.23 42.49 17.97Z" fill="#3247D5"/>
<path d="M48.5999 20.44C49.0899 20.46 49.4499 20.2 49.5299 19.7C49.6299 19.08 49.6299 18.46 49.5299 17.84C49.4399 17.3 49.0699 17.07 48.5399 17.11C48.0299 17.15 47.7499 17.45 47.7199 17.96C47.6999 18.23 47.7199 18.5 47.7199 18.77C47.7199 19.04 47.6999 19.31 47.7199 19.58C47.7499 20.12 48.0799 20.41 48.5999 20.44Z" fill="#3247D5"/>
<path d="M34.1 17.92C34.03 17.39 33.63 17.07 33.11 17.11C32.57 17.15 32.28 17.46 32.25 17.99C32.23 18.51 32.23 19.03 32.25 19.55C32.27 20.09 32.58 20.39 33.11 20.43C33.63 20.47 34.03 20.14 34.1 19.6C34.13 19.33 34.11 19.06 34.11 18.79C34.11 18.5 34.13 18.21 34.1 17.92Z" fill="#3247D5"/>
<path d="M37.93 20.42C38.46 20.47 38.84 20.22 38.93 19.7C39.03 19.09 39.03 18.45 38.93 17.84C38.84 17.31 38.47 17.07 37.94 17.11C37.43 17.15 37.15 17.44 37.11 17.95C37.09 18.22 37.11 18.49 37.11 18.76C37.11 19.03 37.1 19.3 37.11 19.57C37.14 20.08 37.42 20.38 37.93 20.42Z" fill="#3247D5"/>
<path d="M20.13 45.57C20.13 45.58 20.13 45.59 20.13 45.6C18.4 45.6 16.67 45.52 14.95 45.62C12.66 45.75 11.23 47.9 11.85 50.12C12.31 51.77 13.62 52.68 15.59 52.69C18.61 52.7 21.62 52.7 24.64 52.69C24.95 52.69 25.27 52.67 25.57 52.62C26.96 52.37 27.92 51.61 28.36 50.25C29.13 47.83 27.48 45.62 24.87 45.58C23.3 45.55 21.71 45.57 20.13 45.57ZM26.64 48.81C26.78 49.62 26.37 50.38 25.63 50.68C25.34 50.8 25.02 50.82 24.71 50.82C21.65 50.82 18.6 50.83 15.54 50.82C14.48 50.82 13.82 50.36 13.63 49.57C13.36 48.41 14.1 47.47 15.35 47.46C16.95 47.44 18.55 47.45 20.15 47.45C21.77 47.45 23.39 47.43 25.01 47.46C25.88 47.47 26.51 48.03 26.64 48.81Z" fill="#3247D5"/>
</svg>
