<svg width="67" height="60" viewBox="0 0 67 60" fill="none" xmlns="http://www.w3.org/2000/svg">
<g clip-path="url(#clip0_14_473)">
<path fill-rule="evenodd" clip-rule="evenodd" d="M48.3947 16.8594H62.5813C64.5066 16.8594 66.0823 18.4351 66.0823 20.3603V34.7029C66.0823 36.6281 64.5066 38.2038 62.5813 38.2038H48.3947C42.5276 38.2038 37.7252 33.4015 37.7252 27.5343C37.7252 21.6564 42.5222 16.8594 48.3947 16.8594ZM1.66711 19.758H28.7174C29.6316 19.758 30.3845 20.5055 30.3845 21.4251V58.3329C30.3845 59.2525 29.637 60 28.7174 60H1.66711C0.75289 60 0 59.2525 0 58.3329V21.4251C0 20.5109 0.747513 19.758 1.66711 19.758ZM17.0046 26.8943H19.7795V29.153H17.0046V26.8943ZM21.9037 26.8943H24.6787V29.153H21.9037V26.8943ZM3.93116 35.9344H8.55069C8.94326 35.9344 9.27131 36.2571 9.27131 36.655V40.5539C9.27131 40.9465 8.94864 41.2745 8.55069 41.2745H3.93116C3.53859 41.2745 3.21054 40.9519 3.21054 40.5539V36.655C3.21054 36.2571 3.53321 35.9344 3.93116 35.9344ZM21.6402 50.6964H26.2544C26.6469 50.6964 26.9696 51.0191 26.9696 51.4171V55.316C26.9696 55.7139 26.6469 56.0366 26.2544 56.0366H21.6402C21.2476 56.0366 20.9196 55.7139 20.9196 55.316V51.4171C20.9196 51.0191 21.2423 50.6964 21.6402 50.6964ZM12.7884 50.6964H17.4079C17.8005 50.6964 18.1285 51.0191 18.1285 51.4171V55.316C18.1285 55.7139 17.8059 56.0366 17.4079 56.0366H12.7884C12.3958 56.0366 12.0678 55.7139 12.0678 55.316V51.4171C12.0678 51.0191 12.3904 50.6964 12.7884 50.6964ZM3.93116 50.6964H8.55069C8.94326 50.6964 9.27131 51.0191 9.27131 51.4171V55.316C9.27131 55.7139 8.94864 56.0366 8.55069 56.0366H3.93116C3.53859 56.0366 3.21054 55.7139 3.21054 55.316V51.4171C3.21054 51.0191 3.53321 50.6964 3.93116 50.6964ZM21.6402 43.3127H26.2544C26.6469 43.3127 26.9696 43.6354 26.9696 44.0333V47.9322C26.9696 48.3248 26.6469 48.6529 26.2544 48.6529H21.6402C21.2476 48.6529 20.9196 48.3302 20.9196 47.9322V44.0333C20.9196 43.6354 21.2423 43.3127 21.6402 43.3127ZM12.7884 43.3127H17.4079C17.8005 43.3127 18.1285 43.6354 18.1285 44.0333V47.9322C18.1285 48.3248 17.8059 48.6529 17.4079 48.6529H12.7884C12.3958 48.6529 12.0678 48.3302 12.0678 47.9322V44.0333C12.0678 43.6354 12.3904 43.3127 12.7884 43.3127ZM3.93116 43.3127H8.55069C8.94326 43.3127 9.27131 43.6354 9.27131 44.0333V47.9322C9.27131 48.3248 8.94864 48.6529 8.55069 48.6529H3.93116C3.53859 48.6529 3.21054 48.3302 3.21054 47.9322V44.0333C3.21054 43.6354 3.53321 43.3127 3.93116 43.3127ZM21.6402 35.9344H26.2544C26.6469 35.9344 26.9696 36.2571 26.9696 36.655V40.5539C26.9696 40.9465 26.6469 41.2745 26.2544 41.2745H21.6402C21.2476 41.2745 20.9196 40.9519 20.9196 40.5539V36.655C20.9196 36.2571 21.2423 35.9344 21.6402 35.9344ZM12.7884 35.9344H17.4079C17.8005 35.9344 18.1285 36.2571 18.1285 36.655V40.5539C18.1285 40.9465 17.8059 41.2745 17.4079 41.2745H12.7884C12.3958 41.2745 12.0678 40.9519 12.0678 40.5539V36.655C12.0678 36.2571 12.3904 35.9344 12.7884 35.9344ZM3.55472 23.1621H26.491C26.7921 23.1621 27.0395 23.4095 27.0395 23.7107V31.245C27.0395 31.5461 26.7975 31.7935 26.491 31.7935H3.55472C3.25356 31.7935 3.00618 31.5461 3.00618 31.245V23.7107C3.00618 23.4095 3.25356 23.1621 3.55472 23.1621ZM14.8373 0.0107637H23.8935L49.1638 0.00538591L52.4926 8.11735e-06C55.8967 -0.00536967 58.6771 2.66201 58.6771 6.06078V7.0718C60.3549 8.17963 61.4681 10.0834 61.4681 12.2345V14.4663H57.5424V12.9766C57.5424 11.374 56.2302 10.0726 54.6383 10.0726H18.4996V6.83518C18.4996 6.40496 18.8545 6.05002 19.2848 6.05002C31.2772 6.05002 43.2805 6.04464 55.2837 6.04464C55.5095 6.04464 55.73 6.0554 55.9505 6.08229V5.93171C55.9505 4.80775 55.0309 3.88815 53.9123 3.88815C41.1885 3.88815 28.4593 3.89353 15.73 3.89353C14.6061 3.89353 13.6865 4.81313 13.6865 5.93171V13.9823H9.23367V5.62518C9.21753 2.53833 11.7451 0.0107637 14.8373 0.0107637ZM35.6063 45.1358H55.4558C56.5797 45.1358 57.4993 44.2162 57.4993 43.0922V40.7529H61.5273V44.6142H61.5165C61.5004 47.2815 58.6502 49.438 55.8376 49.438H35.6063V45.1358ZM48.9325 20.769H61.5219V34.2942H48.9325C45.2111 34.2942 42.1726 31.2503 42.1726 27.5289C42.1672 23.8075 45.2111 20.769 48.9325 20.769ZM52.0247 25.2918C53.2993 25.2918 54.3318 26.3243 54.3318 27.5988C54.3318 28.8734 53.2993 29.9059 52.0247 29.9059C50.7502 29.9059 49.7177 28.8734 49.7177 27.5988C49.7177 26.3243 50.7502 25.2918 52.0247 25.2918Z" fill="white"/>
</g>
<defs>
<clipPath id="clip0_14_473">
<rect width="66.0823" height="60" fill="white"/>
</clipPath>
</defs>
</svg>
