<svg width="55" height="60" viewBox="0 0 55 60" fill="none" xmlns="http://www.w3.org/2000/svg">
<g clip-path="url(#clip0_14_421)">
<path fill-rule="evenodd" clip-rule="evenodd" d="M37.3975 28.9014H50.9424C52.7783 28.9014 54.2822 30.4053 54.2822 32.2412V45.9326C54.2822 47.7686 52.7783 49.2725 50.9424 49.2725H37.3975C31.7969 49.2725 27.2119 44.6875 27.2119 39.0869C27.2119 33.4863 31.792 28.9014 37.3975 28.9014ZM5.36133 12.8174H14.0039C13.9893 12.5732 13.9795 12.3291 13.9795 12.0801C13.9844 5.41016 19.3896 0 26.0645 0C32.7344 0 38.1445 5.41016 38.1445 12.0801C38.1445 12.3242 38.1348 12.5684 38.125 12.8125L41.3037 12.8076C44.5508 12.8027 47.207 15.3467 47.207 18.5938V19.5605C48.8086 20.6201 49.8682 22.4365 49.8682 24.4873V26.6162H46.1182V25.1953C46.1182 23.667 44.8682 22.4219 43.3447 22.4219H8.84766V19.3311C8.84766 18.9209 9.18457 18.584 9.59473 18.584H15.8838C15.4687 17.9395 15.1172 17.251 14.8291 16.5283H6.19629C5.12207 16.5283 4.24805 17.4072 4.24805 18.4766V53.9453C4.24805 55.0195 5.12695 55.8936 6.19629 55.8936H44.1406C45.2148 55.8936 46.0889 55.0146 46.0889 53.9453V51.7139H49.9365V55.4004H49.9268C49.9121 57.9492 47.1924 60.0049 44.5068 60.0049H5.34668C2.40723 60 0 57.5928 0 54.6533V18.1787C0 15.2295 2.41211 12.8174 5.36133 12.8174ZM37.2998 16.5234C37.0117 17.2461 36.6602 17.9346 36.2451 18.5791H43.96C44.1748 18.5791 44.3848 18.5889 44.5947 18.6133V18.4717C44.5947 17.3975 43.7158 16.5234 42.6465 16.5234H37.2998ZM26.8701 18.584V17.4512C27.4902 17.4268 28.0176 17.3438 28.4473 17.207C28.877 17.0654 29.2822 16.8457 29.668 16.5381C30.0488 16.2256 30.3613 15.8447 30.6104 15.3809C30.8545 14.9219 30.9766 14.4141 30.9766 13.8623C30.9766 12.9199 30.6348 12.1436 29.9512 11.5283C29.4336 11.0742 28.4082 10.6396 26.8701 10.2295V8.03223C27.1338 8.17383 27.3193 8.31055 27.4365 8.44727C27.5488 8.58398 27.6758 8.83301 27.8223 9.18945L30.6543 8.74512C30.4736 7.93457 30.0781 7.2998 29.4824 6.83594C28.8818 6.36719 28.0127 6.10352 26.875 6.03027V5.2832H25.7715V6.03027C24.5264 6.09375 23.5889 6.43066 22.9541 7.04102C22.3242 7.64648 22.0068 8.39844 22.0068 9.30176C22.0068 9.96094 22.1631 10.5176 22.4805 10.9766C22.7979 11.4355 23.1641 11.7676 23.5938 11.9775C24.0234 12.1826 24.7461 12.4316 25.7715 12.7148V15.4004C25.415 15.2295 25.1611 15.0342 25.0049 14.8145C24.8486 14.5947 24.7266 14.2334 24.6338 13.7354L21.5723 14.0918C21.665 14.5947 21.8018 15.0244 21.9824 15.3809C22.1631 15.7373 22.4268 16.0693 22.7588 16.3721C23.0957 16.6797 23.4961 16.9238 23.96 17.0947C24.4238 17.2705 25.0293 17.3877 25.7715 17.4512V18.584H26.8701ZM25.7666 7.99316C25.4395 8.10059 25.2148 8.23242 25.0879 8.38867C24.9609 8.54492 24.8975 8.73047 24.8975 8.94531C24.8975 9.16504 24.9609 9.36035 25.0928 9.52148C25.2246 9.6875 25.4492 9.82422 25.7715 9.93652V7.99316H25.7666ZM26.8701 15.4736C27.2998 15.376 27.6123 15.2148 27.8125 14.9951C28.0127 14.7754 28.1152 14.5264 28.1152 14.2529C28.1152 14.0137 28.0273 13.7939 27.8613 13.5938C27.6904 13.3936 27.3633 13.208 26.8701 13.0371V15.4736ZM37.9102 32.6367H49.9268V45.5469H37.9102C34.3604 45.5469 31.4551 42.6416 31.4551 39.0918C31.4551 35.5371 34.3604 32.6367 37.9102 32.6367ZM40.8643 36.9531C42.0801 36.9531 43.0664 37.9395 43.0664 39.1553C43.0664 40.3711 42.0801 41.3574 40.8643 41.3574C39.6484 41.3574 38.6621 40.3711 38.6621 39.1553C38.6621 37.9395 39.6484 36.9531 40.8643 36.9531Z" fill="white"/>
</g>
<defs>
<clipPath id="clip0_14_421">
<rect width="54.2871" height="60" fill="white"/>
</clipPath>
</defs>
</svg>
