<svg width="60" height="60" viewBox="0 0 60 60" fill="none" xmlns="http://www.w3.org/2000/svg">
<g clip-path="url(#clip0_14_410)">
<path d="M55.1613 10.6452H43.2271C41.8935 4.56581 36.4732 0 30 0C23.5268 0 18.1065 4.56581 16.7729 10.6452H4.83871C2.17064 10.6452 0 12.8158 0 15.4839V48.3871C0 51.0552 2.17064 53.2258 4.83871 53.2258H14.5161V58.0645H10.6452V60H49.3548V58.0645H45.4839V53.2258H55.1613C57.8294 53.2258 60 51.0552 60 48.3871V15.4839C60 12.8158 57.8294 10.6452 55.1613 10.6452ZM30 1.93548C36.4035 1.93548 41.6129 7.14484 41.6129 13.5484C41.6129 19.9519 36.4035 25.1613 30 25.1613C23.5965 25.1613 18.3871 19.9519 18.3871 13.5484C18.3871 7.14484 23.5965 1.93548 30 1.93548ZM43.5484 58.0645H16.4516V53.2258H43.5484V58.0645ZM58.0645 48.3871C58.0645 49.9877 56.7619 51.2903 55.1613 51.2903H4.83871C3.23806 51.2903 1.93548 49.9877 1.93548 48.3871V47.4194H58.0645V48.3871ZM58.0645 28.1148L57.8313 27.7103L54.4781 29.6458L55.4458 31.3219L58.0645 29.8103V45.4839H42.391L43.9026 42.8652L42.2264 41.8974L40.291 45.2506L40.6955 45.4839H1.93548V15.4839C1.93548 13.8832 3.23806 12.5806 4.83871 12.5806H16.501C16.4777 12.9019 16.4516 13.2223 16.4516 13.5484C16.4516 21.0194 22.529 27.0968 30 27.0968C37.471 27.0968 43.5484 21.0194 43.5484 13.5484C43.5484 13.2223 43.5223 12.9019 43.499 12.5806H55.1613C56.7619 12.5806 58.0645 13.8832 58.0645 15.4839V28.1148Z" fill="white"/>
<path d="M28.5484 21.2903H29.0323V23.2258H30.9677V21.2903H31.4516C33.8526 21.2903 35.8064 19.3365 35.8064 16.9355C35.8064 14.5345 33.8526 12.5806 31.4516 12.5806H28.5484C27.2139 12.5806 26.129 11.4958 26.129 10.1613C26.129 8.82678 27.2139 7.74194 28.5484 7.74194H31.4516C32.7861 7.74194 33.871 8.82678 33.871 10.1613V10.6452H35.8064V10.1613C35.8064 7.76033 33.8526 5.80646 31.4516 5.80646H30.9677V3.87097H29.0323V5.80646H28.5484C26.1474 5.80646 24.1935 7.76033 24.1935 10.1613C24.1935 12.5623 26.1474 14.5161 28.5484 14.5161H31.4516C32.7861 14.5161 33.871 15.601 33.871 16.9355C33.871 18.27 32.7861 19.3548 31.4516 19.3548H28.5484C27.2139 19.3548 26.129 18.27 26.129 16.9355V16.4516H24.1935V16.9355C24.1935 19.3365 26.1474 21.2903 28.5484 21.2903Z" fill="white"/>
<path d="M39.6774 12.5806H37.7419V14.5161H39.6774V12.5806Z" fill="white"/>
<path d="M22.2581 12.5806H20.3226V14.5161H22.2581V12.5806Z" fill="white"/>
<path d="M19.871 30H16V42.5806H17.9355V37.7419H19.871C22.0058 37.7419 23.7419 36.0058 23.7419 33.871C23.7419 31.7361 22.0058 30 19.871 30ZM19.871 35.8065H17.9355V31.9355H19.871C20.9374 31.9355 21.8065 32.8035 21.8065 33.871C21.8065 34.9384 20.9374 35.8065 19.871 35.8065Z" fill="white"/>
<path d="M29.5484 30C27.4136 30 25.6774 31.7361 25.6774 33.871V42.5806H27.6129V37.7419H31.4839V42.5806H33.4194V33.871C33.4194 31.7361 31.6832 30 29.5484 30ZM31.4839 35.8065H27.6129V33.871C27.6129 32.8035 28.481 31.9355 29.5484 31.9355C30.6148 31.9355 31.4839 32.8035 31.4839 33.871V35.8065Z" fill="white"/>
<path d="M41.1613 33.871C41.1613 34.9384 40.2923 35.8065 39.2258 35.8065C38.1584 35.8065 37.2903 34.9384 37.2903 33.871V30H35.3549V33.871C35.3549 35.67 36.5926 37.1719 38.2581 37.6045V42.5806H40.1936V37.6045C41.8581 37.1719 43.0968 35.67 43.0968 33.871V30H41.1613V33.871Z" fill="white"/>
</g>
<defs>
<clipPath id="clip0_14_410">
<rect width="60" height="60" fill="white"/>
</clipPath>
</defs>
</svg>
