<svg width="60" height="60" viewBox="0 0 60 60" fill="none" xmlns="http://www.w3.org/2000/svg">
<path d="M55.1613 10.6452H43.2271C41.8935 4.56581 36.4732 0 30 0C23.5268 0 18.1065 4.56581 16.7729 10.6452H4.83871C2.17065 10.6452 0 12.8158 0 15.4839V48.3871C0 51.0552 2.17065 53.2258 4.83871 53.2258H14.5161V58.0645H10.6452V60H49.3548V58.0645H45.4839V53.2258H55.1613C57.8294 53.2258 60 51.0552 60 48.3871V15.4839C60 12.8158 57.8294 10.6452 55.1613 10.6452ZM30 1.93548C36.4035 1.93548 41.6129 7.14484 41.6129 13.5484C41.6129 19.9519 36.4035 25.1613 30 25.1613C23.5965 25.1613 18.3871 19.9519 18.3871 13.5484C18.3871 7.14484 23.5965 1.93548 30 1.93548ZM43.5484 58.0645H16.4516V53.2258H43.5484V58.0645ZM58.0645 48.3871C58.0645 49.9877 56.7619 51.2903 55.1613 51.2903H4.83871C3.23806 51.2903 1.93548 49.9877 1.93548 48.3871V47.4194H58.0645V48.3871ZM58.0645 28.1148L57.8313 27.7103L54.4781 29.6458L55.4458 31.3219L58.0645 29.8103V45.4839H42.391L43.9026 42.8652L42.2264 41.8974L40.291 45.2506L40.6955 45.4839H1.93548V15.4839C1.93548 13.8832 3.23806 12.5806 4.83871 12.5806H16.501C16.4777 12.9019 16.4516 13.2223 16.4516 13.5484C16.4516 21.0194 22.529 27.0968 30 27.0968C37.471 27.0968 43.5484 21.0194 43.5484 13.5484C43.5484 13.2223 43.5223 12.9019 43.499 12.5806H55.1613C56.7619 12.5806 58.0645 13.8832 58.0645 15.4839V28.1148Z" fill="white"/>
<path d="M28.5484 21.2903H29.0323V23.2258H30.9677V21.2903H31.4516C33.8526 21.2903 35.8064 19.3365 35.8064 16.9355C35.8064 14.5345 33.8526 12.5806 31.4516 12.5806H28.5484C27.2139 12.5806 26.129 11.4958 26.129 10.1613C26.129 8.82678 27.2139 7.74194 28.5484 7.74194H31.4516C32.7861 7.74194 33.871 8.82678 33.871 10.1613V10.6452H35.8064V10.1613C35.8064 7.76033 33.8526 5.80646 31.4516 5.80646H30.9677V3.87097H29.0323V5.80646H28.5484C26.1474 5.80646 24.1935 7.76033 24.1935 10.1613C24.1935 12.5623 26.1474 14.5161 28.5484 14.5161H31.4516C32.7861 14.5161 33.871 15.601 33.871 16.9355C33.871 18.27 32.7861 19.3548 31.4516 19.3548H28.5484C27.2139 19.3548 26.129 18.27 26.129 16.9355V16.4516H24.1935V16.9355C24.1935 19.3365 26.1474 21.2903 28.5484 21.2903Z" fill="white"/>
<path d="M39.6774 12.5807H37.7419V14.5161H39.6774V12.5807Z" fill="white"/>
<path d="M22.2581 12.5807H20.3226V14.5161H22.2581V12.5807Z" fill="white"/>
<path d="M10.6451 30H6.77417V42.5806H8.70965V37.7419H10.6451C12.78 37.7419 14.5161 36.0058 14.5161 33.871C14.5161 31.7361 12.78 30 10.6451 30ZM10.6451 35.8065H8.70965V31.9355H10.6451C11.7116 31.9355 12.5806 32.8035 12.5806 33.871C12.5806 34.9384 11.7116 35.8065 10.6451 35.8065Z" fill="white"/>
<path d="M20.3226 30C18.1877 30 16.4516 31.7361 16.4516 33.871V42.5806H18.3871V37.7419H22.2581V42.5806H24.1935V33.871C24.1935 31.7361 22.4574 30 20.3226 30ZM22.2581 35.8065H18.3871V33.871C18.3871 32.8035 19.2551 31.9355 20.3226 31.9355C21.389 31.9355 22.2581 32.8035 22.2581 33.871V35.8065Z" fill="white"/>
<path d="M31.9355 33.871C31.9355 34.9384 31.0664 35.8065 30 35.8065C28.9326 35.8065 28.0645 34.9384 28.0645 33.871V30H26.129V33.871C26.129 35.67 27.3668 37.1719 29.0323 37.6045V42.5806H30.9677V37.6045C32.6323 37.1719 33.871 35.67 33.871 33.871V30H31.9355V33.871Z" fill="white"/>
<path d="M41.6129 42.0135L44.5161 39.1103L50.3226 44.9168L57.4974 37.7419L51.691 31.9355L54.5942 29.0323H41.6129V42.0135ZM43.5484 30.9677H49.9219L48.9542 31.9355L54.7607 37.7419L50.3226 42.18L44.5161 36.3735L43.5484 37.3413V30.9677Z" fill="white"/>
<path d="M48.3871 22.2581H46.4517V26.129H48.3871V22.2581Z" fill="white"/>
<path d="M43.9026 26.8139L41.9675 23.4613L40.2912 24.4289L42.2263 27.7815L43.9026 26.8139Z" fill="white"/>
<path d="M36.0409 29.3853L39.3936 31.3204L40.3611 29.6441L37.0085 27.709L36.0409 29.3853Z" fill="white"/>
<path d="M38.7097 33.871H34.8387V35.8065H38.7097V33.871Z" fill="white"/>
<path d="M36.0403 40.2927L37.0078 41.969L40.3605 40.0339L39.3929 38.3576L36.0403 40.2927Z" fill="white"/>
<path d="M54.5468 24.4254L52.8705 23.4579L50.9354 26.8105L52.6117 27.7781L54.5468 24.4254Z" fill="white"/>
</svg>
