<svg width="59" height="60" viewBox="0 0 59 60" fill="none" xmlns="http://www.w3.org/2000/svg">
<g clip-path="url(#clip0_3_602)">
<path d="M55.3857 55.5566L54.292 54.2969L49.0967 59.4922L49.0918 59.4873C48.5107 60.0684 47.5684 60.0781 46.9775 59.502L41.6846 54.3555L36.499 59.3359C35.9326 59.9219 35 59.9512 34.3945 59.3945L28.8916 54.3115L23.8965 59.4531C23.8672 59.4873 23.8379 59.5166 23.8086 59.5508C23.2178 60.1416 22.2607 60.1416 21.6748 59.5508L16.4355 54.3115L11.0352 59.458C10.4443 60.0195 9.50684 60.0098 8.93066 59.4287L3.79395 54.2383L2.72461 55.4688C2.45117 55.8398 2.00684 56.0791 1.50879 56.0791C0.673828 56.0791 0 55.4004 0 54.5703V1.50879C0 0.673828 0.673828 0 1.50879 0H56.5234C57.3584 0 58.0322 0.673828 58.0322 1.50879V54.5703H58.0273C58.0273 54.9902 57.8516 55.4102 57.5049 55.708C56.8799 56.2549 55.9277 56.1865 55.3857 55.5566ZM55.0146 50.7227V3.02246H3.02246V50.6982C3.55469 50.4199 4.22363 50.4785 4.70703 50.8936C4.73633 50.918 4.76562 50.9424 4.79004 50.9717L10.0293 56.2646L15.4248 51.1279C16.0205 50.5615 16.9531 50.5762 17.5293 51.1523L17.5342 51.1475L22.7295 56.3428L27.7588 51.1621C28.3301 50.5762 29.2627 50.5518 29.8584 51.1035L35.4004 56.2207L40.6543 51.1816C41.2451 50.6152 42.1826 50.625 42.7588 51.1963L48.0176 56.3086L53.3057 51.0205C53.7598 50.5566 54.4531 50.459 55.0146 50.7227Z" fill="#3247D5"/>
<path d="M2 52.5V1.5H57V54L54 52.5L48 58.5L41.5 52.5L34.5 57.5L29.5 52.5L23 58.5L16.5 52.5L10 58.5L4 52.5H2Z" fill="#3247D5"/>
<path d="M15.1973 44.5654V42.168C14.6016 42.0947 14.0596 41.9873 13.5762 41.8555C13.083 41.7188 12.6485 41.5527 12.2676 41.3574C11.8867 41.1621 11.5352 40.9033 11.2032 40.5859C10.876 40.2686 10.5733 39.8926 10.2998 39.458C10.0215 39.0186 9.80667 38.5352 9.64553 38.0029C9.4844 37.4707 9.38186 36.8896 9.33792 36.2598V36.2354L9.36233 36.2305L11.7842 35.7617L11.8086 35.7568L11.8135 35.7812C11.9063 36.4355 12.0381 36.9971 12.1992 37.4756C12.3653 37.9541 12.5655 38.3398 12.7998 38.6426C13.1367 39.0723 13.5078 39.4043 13.9131 39.6436C14.3086 39.8779 14.7383 40.0195 15.1973 40.0732V32.5342C14.7041 32.4072 14.2061 32.2363 13.708 32.0312C13.2002 31.8213 12.6875 31.5674 12.1699 31.2793C11.7842 31.0645 11.4424 30.8105 11.1446 30.5127C10.8467 30.2148 10.5928 29.873 10.3828 29.4873C10.1729 29.1016 10.0166 28.6914 9.91409 28.2568C9.81155 27.8223 9.75784 27.3633 9.75784 26.8799C9.75784 26.0156 9.90921 25.2344 10.2168 24.5361C10.5244 23.8379 10.9834 23.2178 11.5938 22.6807C12.0039 22.3193 12.5117 22.0312 13.1172 21.8115C13.7178 21.5918 14.416 21.4453 15.2071 21.3623V20.2295V20.2051H15.2315H16.6621H16.6865V20.2295V21.3623C17.375 21.4307 18 21.5674 18.5469 21.7725C19.1035 21.9824 19.5918 22.2607 20.0069 22.6074C20.5342 23.0518 20.959 23.5742 21.2764 24.1797C21.5938 24.7852 21.8086 25.4785 21.916 26.25L21.9209 26.2744L21.8965 26.2793L19.4209 26.665L19.3965 26.6699L19.3916 26.6455C19.3233 26.167 19.211 25.7471 19.0645 25.3809C18.918 25.0146 18.7324 24.707 18.5078 24.458C18.2832 24.2041 18.0196 23.9941 17.7119 23.8281C17.4141 23.667 17.0723 23.5449 16.6963 23.4619V30.3809C17.292 30.5322 17.7852 30.6689 18.1807 30.7861C18.5908 30.9082 18.8936 31.0156 19.0938 31.0986C19.4698 31.2646 19.8115 31.4502 20.1192 31.6504C20.4268 31.8506 20.7002 32.0752 20.9346 32.3145C21.1739 32.5537 21.3838 32.8125 21.5694 33.0957C21.7549 33.3789 21.9063 33.6865 22.0381 34.0137C22.1651 34.3408 22.2627 34.6826 22.3262 35.0391C22.3897 35.3955 22.4239 35.7617 22.4239 36.1426C22.4239 37.8223 21.8916 39.2236 20.8223 40.3516C20.2901 40.9131 19.6748 41.3428 18.9864 41.6455C18.3028 41.9434 17.541 42.1143 16.7061 42.1582V44.5801V44.6045H16.6817H15.251H15.2266V44.5654H15.1973ZM43.8106 42.4023C44.4258 42.4023 44.9239 42.9004 44.9239 43.5156C44.9239 44.1309 44.4258 44.6289 43.8106 44.6289H28.1612C27.5459 44.6289 27.0479 44.1309 27.0479 43.5156C27.0479 42.9004 27.5459 42.4023 28.1612 42.4023H43.8106ZM50.1778 20.1611C50.793 20.1611 51.291 20.6592 51.291 21.2744C51.291 21.8896 50.793 22.3877 50.1778 22.3877H28.1612C27.5459 22.3877 27.0479 21.8896 27.0479 21.2744C27.0479 20.6592 27.5459 20.1611 28.1612 20.1611H50.1778ZM50.1192 34.9902C50.7344 34.9902 51.2324 35.4883 51.2324 36.1035C51.2324 36.7188 50.7344 37.2168 50.1192 37.2168H28.1612C27.5459 37.2168 27.0479 36.7188 27.0479 36.1035C27.0479 35.4883 27.5459 34.9902 28.1612 34.9902H50.1192ZM50.1778 27.5732C50.793 27.5732 51.291 28.0713 51.291 28.6865C51.291 29.3018 50.793 29.7998 50.1778 29.7998H28.1612C27.5459 29.7998 27.0479 29.3018 27.0479 28.6865C27.0479 28.0713 27.5459 27.5732 28.1612 27.5732H50.1778ZM15.1973 23.4131C14.7432 23.4863 14.333 23.6133 13.9766 23.7988C13.6104 23.9844 13.293 24.2285 13.0293 24.5361C12.7608 24.8389 12.5606 25.1709 12.4239 25.5273C12.292 25.8838 12.2237 26.2695 12.2237 26.6846C12.2237 27.0947 12.2823 27.4707 12.3946 27.8125C12.5069 28.1543 12.6778 28.4619 12.9073 28.7402C13.1367 29.0137 13.4444 29.2578 13.8301 29.4678C14.211 29.6729 14.6651 29.8438 15.2022 29.9854V23.4131H15.1973ZM16.6768 40.083C17.1309 40.0244 17.5508 39.8975 17.9268 39.6973C18.3125 39.4971 18.6592 39.2188 18.9619 38.8721C19.2647 38.5254 19.4942 38.1396 19.6455 37.71C19.7969 37.2803 19.875 36.8115 19.875 36.2988C19.875 35.8594 19.8213 35.4688 19.7139 35.1172C19.6065 34.7656 19.4453 34.4629 19.2305 34.1943C19.0157 33.9307 18.6934 33.6914 18.2637 33.4766C17.8389 33.2666 17.3115 33.0762 16.6817 32.9102V40.083H16.6768ZM49.9336 10C50.793 10 51.4912 10.6982 51.4912 11.5625C51.4912 12.4219 50.793 13.1201 49.9336 13.1201C49.0742 13.1201 48.376 12.4219 48.376 11.5625C48.376 10.6982 49.0742 10 49.9336 10ZM39.8408 10C40.7002 10 41.3985 10.6982 41.3985 11.5625C41.3985 12.4219 40.7002 13.1201 39.8408 13.1201C38.9815 13.1201 38.2832 12.4219 38.2832 11.5625C38.2783 10.6982 38.9766 10 39.8408 10ZM29.7481 10C30.6074 10 31.3057 10.6982 31.3057 11.5625C31.3057 12.4219 30.6074 13.1201 29.7481 13.1201C28.8887 13.1201 28.1905 12.4219 28.1905 11.5625C28.1856 10.6982 28.8838 10 29.7481 10ZM19.6504 10C20.5098 10 21.208 10.6982 21.208 11.5625C21.208 12.4219 20.5098 13.1201 19.6504 13.1201C18.791 13.1201 18.0928 12.4219 18.0928 11.5625C18.0928 10.6982 18.791 10 19.6504 10ZM9.55764 10C10.417 10 11.1153 10.6982 11.1153 11.5625C11.1153 12.4219 10.417 13.1201 9.55764 13.1201C8.69827 13.1201 8.00003 12.4219 8.00003 11.5625C7.99514 10.6982 8.69338 10 9.55764 10Z" fill="white"/>
</g>
<defs>
<clipPath id="clip0_3_602">
<rect width="58.0322" height="60" fill="white"/>
</clipPath>
</defs>
</svg>
