<svg width="64" height="64" viewBox="0 0 64 64" fill="none" xmlns="http://www.w3.org/2000/svg">
<path d="M61.62 0.0100021C41.88 0.0100021 22.13 0.0100021 2.39002 0.0100021C1.18002 0.390002 0.39002 1.18 0.0200195 2.38C0.0200195 18.58 0.0200195 34.78 0.0200195 50.99C0.65002 52.54 1.74002 53.26 3.47002 53.25C11.63 53.2 19.8 53.23 27.96 53.23C28.21 53.23 28.47 53.26 28.71 53.2C29.23 53.07 29.55 52.72 29.5 52.16C29.45 51.62 29.13 51.29 28.57 51.24C28.38 51.22 28.2 51.23 28.01 51.23C19.81 51.23 11.6 51.23 3.40002 51.23C2.26002 51.23 2.02002 50.99 2.02002 49.83C2.02002 37.07 2.02002 24.3 2.00002 11.54C2.00002 10.95 2.18002 10.88 2.69002 10.88C22.22 10.89 41.76 10.89 61.29 10.88C61.83 10.88 62.01 10.98 62.01 11.57C61.98 17.71 61.99 23.86 61.99 30C61.99 36.64 61.99 43.29 61.99 49.93C61.99 50.71 61.69 51.09 61.01 51.22C60.22 51.37 59.87 51.77 59.98 52.41C60.08 53.01 60.65 53.31 61.39 53.18C62.74 52.95 63.5 52.06 63.99 50.86C63.99 34.7 63.99 18.54 63.99 2.38C63.86 1.1 62.9 0.140002 61.62 0.0100021ZM61.41 8.9C51.61 8.89 41.8 8.89 31.99 8.89C22.23 8.89 12.46 8.88 2.70002 8.9C2.14002 8.9 1.98002 8.77 2.00002 8.2C2.04002 6.54 2.01002 4.87 2.02002 3.2C2.02002 2.31 2.34002 2 3.22002 2C22.42 2 41.61 2 60.81 2C61.68 2 62 2.33 62 3.21C62 4.92 61.98 6.62 62.02 8.33C62.02 8.84 61.85 8.9 61.41 8.9Z" fill="#3247D5"/>
<path d="M58.14 47.7C58.14 45.35 56.81 43.52 54.6 42.74C52.72 42.08 50.79 41.58 48.84 41.15C48.33 41.04 48.24 40.83 48.24 40.37C48.26 37.44 48.25 34.5 48.25 31.57C48.25 31.07 48.24 30.57 48.1 30.09C47.71 28.76 46.9 27.82 45.52 27.47C44.29 27.16 43.21 27.48 42.32 28.39C41.48 29.25 41.23 30.32 41.23 31.48C41.23 37.58 41.23 43.68 41.23 49.78C41.23 49.99 41.29 50.22 41.15 50.43C40.1 49.52 39.07 48.63 38.06 47.74C37.58 47.32 37.05 47.01 36.46 46.8C33.91 45.92 31.58 47.95 32.08 50.61C32.26 51.56 32.74 52.34 33.34 53.08C35.35 55.53 37.38 57.94 39.33 60.43C40.61 62.07 42.04 63.45 44.11 63.99C47.78 63.99 51.44 63.99 55.11 63.99C57.57 63.26 58.2 61.6 58.16 59.57C58.09 55.61 58.14 51.65 58.14 47.7ZM56.13 59.98C56.13 61.4 55.55 61.98 54.13 61.98C51.19 61.98 48.26 61.95 45.32 61.99C43.91 62.01 42.8 61.44 41.94 60.41C39.5 57.48 37.12 54.51 34.71 51.56C34.38 51.15 34.13 50.69 34.03 50.18C33.93 49.65 34.06 49.18 34.48 48.83C34.89 48.48 35.36 48.5 35.83 48.69C36.34 48.89 36.77 49.22 37.18 49.58C38.56 50.79 39.94 51.99 41.31 53.21C41.7 53.56 42.1 53.85 42.65 53.6C43.19 53.35 43.26 52.88 43.26 52.34C43.25 48.84 43.25 45.34 43.25 41.85C43.25 38.41 43.25 34.98 43.25 31.54C43.25 31.08 43.28 30.63 43.48 30.2C43.72 29.69 44.09 29.37 44.68 29.35C45.26 29.33 45.67 29.61 45.96 30.09C46.23 30.53 46.26 31.03 46.26 31.54C46.26 34.6 46.26 37.66 46.26 40.72C46.26 42.09 46.73 42.67 48.06 42.99C50.02 43.47 51.98 43.93 53.88 44.6C55.39 45.13 56.13 46.14 56.13 47.73C56.13 51.82 56.13 55.9 56.13 59.98Z" fill="#3247D5"/>
<path d="M2.39001 0.01C1.69001 0.01 0.99001 0.02 0.29001 0C0.0600097 0 9.68762e-06 0.05 0.0100097 0.28C0.0300097 0.98 0.0200097 1.68 0.0200097 2.38C0.15001 1.1 1.10001 0.14 2.39001 0.01Z" fill="#3247D5"/>
<path d="M27 15.61C23.92 15.61 20.84 15.61 17.76 15.61C14.7 15.61 11.64 15.61 8.58002 15.61C6.70002 15.61 5.77002 16.53 5.77002 18.39C5.77002 24.26 5.77002 30.13 5.77002 36C5.77002 37.87 6.70002 38.81 8.56002 38.81C14.72 38.81 20.88 38.81 27.04 38.81C28.84 38.81 29.77 37.88 29.77 36.08C29.77 30.17 29.77 24.26 29.77 18.35C29.77 16.52 28.85 15.61 27 15.61ZM15.57 18.84C15.57 17.61 15.57 17.61 16.79 17.61C17.72 17.61 18.66 17.62 19.59 17.6C19.92 17.6 20 17.7 20 18.02C19.98 19.74 19.99 21.46 19.99 23.26C19.21 22.85 18.79 21.91 17.8 21.94C16.83 21.97 16.38 22.85 15.56 23.33C15.57 21.78 15.57 20.31 15.57 18.84ZM27.01 36.82C23.93 36.81 20.85 36.82 17.77 36.82C14.71 36.82 11.65 36.82 8.59002 36.82C7.84002 36.82 7.78002 36.76 7.78002 36C7.78002 30.15 7.78002 24.3 7.78002 18.45C7.78002 17.64 7.81002 17.62 8.64002 17.62C10.12 17.62 11.6 17.64 13.07 17.61C13.49 17.6 13.58 17.73 13.58 18.13C13.56 20.11 13.58 22.09 13.57 24.06C13.56 24.82 13.72 25.48 14.48 25.82C15.23 26.16 15.84 25.87 16.4 25.35C16.86 24.93 17.35 24.22 17.82 24.22C18.29 24.22 18.78 24.93 19.23 25.36C19.78 25.87 20.39 26.11 21.1 25.79C21.82 25.46 22.01 24.84 22 24.09C21.98 22.09 22 20.09 21.99 18.09C21.99 17.71 22.07 17.6 22.46 17.6C24.02 17.63 25.58 17.62 27.14 17.6C27.59 17.6 27.77 17.74 27.77 18.21C27.76 24.21 27.76 30.2 27.77 36.2C27.78 36.79 27.45 36.82 27.01 36.82Z" fill="#3247D5"/>
<path d="M54.56 32.47C53.73 32.48 52.89 32.47 52.06 32.47C51.28 32.48 50.87 32.81 50.86 33.43C50.85 34.07 51.29 34.46 52.07 34.47C52.9 34.48 53.74 34.48 54.57 34.47C56.52 34.46 57.79 33.22 57.82 31.29C57.84 29.67 57.84 28.04 57.82 26.42C57.8 24.46 56.55 23.24 54.6 23.23C51.77 23.23 48.94 23.23 46.1 23.23C43.18 23.23 40.27 23.22 37.35 23.23C35.77 23.24 34.42 24.43 34.38 25.94C34.32 27.87 34.28 29.82 34.39 31.75C34.49 33.65 36.33 34.87 38.47 34.39C38.98 34.27 39.19 33.84 39.13 33.33C39.07 32.84 38.75 32.55 38.26 32.5C38.03 32.47 37.8 32.49 37.57 32.49C36.73 32.47 36.35 32.1 36.35 31.26C36.34 29.66 36.34 28.05 36.35 26.45C36.35 25.59 36.71 25.23 37.56 25.23C43.25 25.22 48.93 25.22 54.62 25.23C55.44 25.23 55.81 25.59 55.82 26.41C55.84 28.03 55.84 29.66 55.82 31.28C55.81 32.1 55.41 32.46 54.56 32.47Z" fill="#3247D5"/>
<path d="M19.5 43.75C20.24 43.75 20.69 43.38 20.71 42.78C20.73 42.16 20.25 41.75 19.49 41.75C15.33 41.75 11.17 41.75 7.02003 41.75C6.26003 41.75 5.78003 42.15 5.78003 42.76C5.78003 43.37 6.25003 43.75 7.03003 43.75C9.09003 43.75 11.15 43.75 13.2 43.75C15.3 43.75 17.4 43.75 19.5 43.75Z" fill="#3247D5"/>
<path d="M6.92 45.98C6.23 45.98 5.79 46.37 5.78 46.95C5.77 47.54 6.24 47.97 6.94 47.98C7.69 47.99 8.43 47.98 9.18 47.98C9.93 47.98 10.67 47.99 11.42 47.98C12.13 47.97 12.57 47.55 12.55 46.94C12.53 46.36 12.11 45.99 11.4 45.99C9.91 45.97 8.41 45.97 6.92 45.98Z" fill="#3247D5"/>
<path d="M56.87 4.48C56.66 4.46 56.45 4.47 56.25 4.46C45.26 4.46 34.26 4.46 23.27 4.46C23.12 4.46 22.98 4.46 22.83 4.46C22.19 4.49 21.76 4.88 21.76 5.44C21.76 5.99 22.18 6.4 22.81 6.45C23 6.47 23.18 6.46 23.37 6.46C28.83 6.46 34.28 6.46 39.74 6.46C45.24 6.46 50.73 6.46 56.23 6.46C56.48 6.46 56.73 6.46 56.97 6.41C57.51 6.29 57.78 5.92 57.74 5.37C57.71 4.84 57.4 4.54 56.87 4.48Z" fill="#3247D5"/>
<path d="M14.37 4.5C13.85 4.52 13.42 4.95 13.42 5.45C13.42 5.99 13.88 6.42 14.43 6.41C14.95 6.4 15.37 5.97 15.37 5.46C15.37 4.91 14.92 4.48 14.37 4.5Z" fill="#3247D5"/>
<path d="M10.21 4.5C9.66998 4.48 9.23998 4.88 9.21998 5.41C9.19998 5.97 9.61998 6.41 10.18 6.41C10.71 6.41 11.13 6 11.13 5.46C11.14 4.93 10.74 4.51 10.21 4.5Z" fill="#3247D5"/>
<path d="M5.97001 4.5C5.42001 4.49 4.99001 4.93 5.01001 5.48C5.03001 6.01 5.45001 6.41 5.98001 6.4C6.51001 6.4 6.91001 5.99 6.91001 5.45C6.91001 4.92 6.50001 4.5 5.97001 4.5Z" fill="#3247D5"/>
<path d="M23.98 31.85C23.38 31.83 22.77 31.85 22.17 31.85C21.55 31.85 20.92 31.84 20.3 31.85C19.64 31.87 19.24 32.24 19.23 32.82C19.22 33.4 19.62 33.83 20.26 33.84C21.51 33.86 22.76 33.87 24.01 33.84C24.64 33.83 25.04 33.37 25.01 32.8C24.99 32.24 24.6 31.87 23.98 31.85Z" fill="#3247D5"/>
</svg>
