<svg width="64" height="64" viewBox="0 0 64 64" fill="none" xmlns="http://www.w3.org/2000/svg">
<path d="M61.6199 0.0100021C41.8799 0.0100021 22.1299 0.0100021 2.3899 0.0100021C1.1799 0.390002 0.389897 1.18 0.0198975 2.38C0.0198975 18.58 0.0198975 34.78 0.0198975 50.99C0.649897 52.54 1.7399 53.26 3.4699 53.25C11.6299 53.2 19.7999 53.23 27.9599 53.23C28.2099 53.23 28.4699 53.26 28.7099 53.2C29.2299 53.07 29.5499 52.72 29.4999 52.16C29.4499 51.62 29.1299 51.29 28.5699 51.24C28.3799 51.22 28.1999 51.23 28.0099 51.23C19.8099 51.23 11.5999 51.23 3.3999 51.23C2.2599 51.23 2.0199 50.99 2.0199 49.83C2.0199 37.07 2.0199 24.3 1.9999 11.54C1.9999 10.95 2.1799 10.88 2.6899 10.88C22.2199 10.89 41.7599 10.89 61.2899 10.88C61.8299 10.88 62.0099 10.98 62.0099 11.57C61.9799 17.71 61.9899 23.86 61.9899 30C61.9899 36.64 61.9899 43.29 61.9899 49.93C61.9899 50.71 61.6899 51.09 61.0099 51.22C60.2199 51.37 59.8699 51.77 59.9799 52.41C60.0799 53.01 60.6499 53.31 61.3899 53.18C62.7399 52.95 63.4999 52.06 63.9899 50.86C63.9899 34.7 63.9899 18.54 63.9899 2.38C63.8599 1.1 62.8999 0.140002 61.6199 0.0100021ZM61.4099 8.9C51.6099 8.89 41.7999 8.89 31.9899 8.89C22.2299 8.89 12.4599 8.88 2.6999 8.9C2.1399 8.9 1.9799 8.77 1.9999 8.2C2.0399 6.54 2.0099 4.87 2.0199 3.2C2.0199 2.31 2.3399 2 3.2199 2C22.4199 2 41.6099 2 60.8099 2C61.6799 2 61.9999 2.33 61.9999 3.21C61.9999 4.92 61.9799 6.62 62.0199 8.33C62.0199 8.84 61.8499 8.9 61.4099 8.9Z" fill="white"/>
<path d="M58.1399 47.7C58.1399 45.35 56.8099 43.52 54.5999 42.74C52.7199 42.08 50.7899 41.58 48.8399 41.15C48.3299 41.04 48.2399 40.83 48.2399 40.37C48.2599 37.44 48.2499 34.5 48.2499 31.57C48.2499 31.07 48.2399 30.57 48.0999 30.09C47.7099 28.76 46.8999 27.82 45.5199 27.47C44.2899 27.16 43.2099 27.48 42.3199 28.39C41.4799 29.25 41.2299 30.32 41.2299 31.48C41.2299 37.58 41.2299 43.68 41.2299 49.78C41.2299 49.99 41.2899 50.22 41.1499 50.43C40.0999 49.52 39.0699 48.63 38.0599 47.74C37.5799 47.32 37.0499 47.01 36.4599 46.8C33.9099 45.92 31.5799 47.95 32.0799 50.61C32.2599 51.56 32.7399 52.34 33.3399 53.08C35.3499 55.53 37.3799 57.94 39.3299 60.43C40.6099 62.07 42.0399 63.45 44.1099 63.99C47.7799 63.99 51.4399 63.99 55.1099 63.99C57.5699 63.26 58.1999 61.6 58.1599 59.57C58.0899 55.61 58.1399 51.65 58.1399 47.7ZM56.1299 59.98C56.1299 61.4 55.5499 61.98 54.1299 61.98C51.1899 61.98 48.2599 61.95 45.3199 61.99C43.9099 62.01 42.7999 61.44 41.9399 60.41C39.4999 57.48 37.1199 54.51 34.7099 51.56C34.3799 51.15 34.1299 50.69 34.0299 50.18C33.9299 49.65 34.0599 49.18 34.4799 48.83C34.8899 48.48 35.3599 48.5 35.8299 48.69C36.3399 48.89 36.7699 49.22 37.1799 49.58C38.5599 50.79 39.9399 51.99 41.3099 53.21C41.6999 53.56 42.0999 53.85 42.6499 53.6C43.1899 53.35 43.2599 52.88 43.2599 52.34C43.2499 48.84 43.2499 45.34 43.2499 41.85C43.2499 38.41 43.2499 34.98 43.2499 31.54C43.2499 31.08 43.2799 30.63 43.4799 30.2C43.7199 29.69 44.0899 29.37 44.6799 29.35C45.2599 29.33 45.6699 29.61 45.9599 30.09C46.2299 30.53 46.2599 31.03 46.2599 31.54C46.2599 34.6 46.2599 37.66 46.2599 40.72C46.2599 42.09 46.7299 42.67 48.0599 42.99C50.0199 43.47 51.9799 43.93 53.8799 44.6C55.3899 45.13 56.1299 46.14 56.1299 47.73C56.1299 51.82 56.1299 55.9 56.1299 59.98Z" fill="white"/>
<path d="M2.38995 0.01C1.68995 0.01 0.989949 0.02 0.289949 0C0.0599486 0 -5.13475e-05 0.05 0.00994865 0.28C0.0299487 0.98 0.0199487 1.68 0.0199487 2.38C0.149949 1.1 1.09995 0.14 2.38995 0.01Z" fill="white"/>
<path d="M26.9999 15.61C23.9199 15.61 20.8399 15.61 17.7599 15.61C14.6999 15.61 11.6399 15.61 8.5799 15.61C6.6999 15.61 5.7699 16.53 5.7699 18.39C5.7699 24.26 5.7699 30.13 5.7699 36C5.7699 37.87 6.6999 38.81 8.5599 38.81C14.7199 38.81 20.8799 38.81 27.0399 38.81C28.8399 38.81 29.7699 37.88 29.7699 36.08C29.7699 30.17 29.7699 24.26 29.7699 18.35C29.7699 16.52 28.8499 15.61 26.9999 15.61ZM15.5699 18.84C15.5699 17.61 15.5699 17.61 16.7899 17.61C17.7199 17.61 18.6599 17.62 19.5899 17.6C19.9199 17.6 19.9999 17.7 19.9999 18.02C19.9799 19.74 19.9899 21.46 19.9899 23.26C19.2099 22.85 18.7899 21.91 17.7999 21.94C16.8299 21.97 16.3799 22.85 15.5599 23.33C15.5699 21.78 15.5699 20.31 15.5699 18.84ZM27.0099 36.82C23.9299 36.81 20.8499 36.82 17.7699 36.82C14.7099 36.82 11.6499 36.82 8.5899 36.82C7.8399 36.82 7.7799 36.76 7.7799 36C7.7799 30.15 7.7799 24.3 7.7799 18.45C7.7799 17.64 7.8099 17.62 8.6399 17.62C10.1199 17.62 11.5999 17.64 13.0699 17.61C13.4899 17.6 13.5799 17.73 13.5799 18.13C13.5599 20.11 13.5799 22.09 13.5699 24.06C13.5599 24.82 13.7199 25.48 14.4799 25.82C15.2299 26.16 15.8399 25.87 16.3999 25.35C16.8599 24.93 17.3499 24.22 17.8199 24.22C18.2899 24.22 18.7799 24.93 19.2299 25.36C19.7799 25.87 20.3899 26.11 21.0999 25.79C21.8199 25.46 22.0099 24.84 21.9999 24.09C21.9799 22.09 21.9999 20.09 21.9899 18.09C21.9899 17.71 22.0699 17.6 22.4599 17.6C24.0199 17.63 25.5799 17.62 27.1399 17.6C27.5899 17.6 27.7699 17.74 27.7699 18.21C27.7599 24.21 27.7599 30.2 27.7699 36.2C27.7799 36.79 27.4499 36.82 27.0099 36.82Z" fill="white"/>
<path d="M54.5599 32.47C53.7299 32.48 52.8899 32.47 52.0599 32.47C51.2799 32.48 50.8699 32.81 50.8599 33.43C50.8499 34.07 51.2899 34.46 52.0699 34.47C52.8999 34.48 53.7399 34.48 54.5699 34.47C56.5199 34.46 57.7899 33.22 57.8199 31.29C57.8399 29.67 57.8399 28.04 57.8199 26.42C57.7999 24.46 56.5499 23.24 54.5999 23.23C51.7699 23.23 48.9399 23.23 46.0999 23.23C43.1799 23.23 40.2699 23.22 37.3499 23.23C35.7699 23.24 34.4199 24.43 34.3799 25.94C34.3199 27.87 34.2799 29.82 34.3899 31.75C34.4899 33.65 36.3299 34.87 38.4699 34.39C38.9799 34.27 39.1899 33.84 39.1299 33.33C39.0699 32.84 38.7499 32.55 38.2599 32.5C38.0299 32.47 37.7999 32.49 37.5699 32.49C36.7299 32.47 36.3499 32.1 36.3499 31.26C36.3399 29.66 36.3399 28.05 36.3499 26.45C36.3499 25.59 36.7099 25.23 37.5599 25.23C43.2499 25.22 48.9299 25.22 54.6199 25.23C55.4399 25.23 55.8099 25.59 55.8199 26.41C55.8399 28.03 55.8399 29.66 55.8199 31.28C55.8099 32.1 55.4099 32.46 54.5599 32.47Z" fill="white"/>
<path d="M19.4999 43.75C20.2399 43.75 20.6899 43.38 20.7099 42.78C20.7299 42.16 20.2499 41.75 19.4899 41.75C15.3299 41.75 11.1699 41.75 7.01991 41.75C6.25991 41.75 5.77991 42.15 5.77991 42.76C5.77991 43.37 6.24991 43.75 7.02991 43.75C9.08991 43.75 11.1499 43.75 13.1999 43.75C15.2999 43.75 17.3999 43.75 19.4999 43.75Z" fill="white"/>
<path d="M6.91994 45.98C6.22994 45.98 5.78994 46.37 5.77994 46.95C5.76994 47.54 6.23994 47.97 6.93994 47.98C7.68994 47.99 8.42994 47.98 9.17994 47.98C9.92994 47.98 10.6699 47.99 11.4199 47.98C12.1299 47.97 12.5699 47.55 12.5499 46.94C12.5299 46.36 12.1099 45.99 11.3999 45.99C9.90994 45.97 8.40994 45.97 6.91994 45.98Z" fill="white"/>
<path d="M56.87 4.48C56.66 4.46 56.45 4.47 56.25 4.46C45.26 4.46 34.26 4.46 23.27 4.46C23.12 4.46 22.98 4.46 22.83 4.46C22.19 4.49 21.76 4.88 21.76 5.44C21.76 5.99 22.18 6.4 22.81 6.45C23 6.47 23.18 6.46 23.37 6.46C28.83 6.46 34.28 6.46 39.74 6.46C45.24 6.46 50.73 6.46 56.23 6.46C56.48 6.46 56.73 6.46 56.97 6.41C57.51 6.29 57.78 5.92 57.74 5.37C57.71 4.84 57.4 4.54 56.87 4.48Z" fill="white"/>
<path d="M14.3699 4.5C13.8499 4.52 13.4199 4.95 13.4199 5.45C13.4199 5.99 13.8799 6.42 14.4299 6.41C14.9499 6.4 15.3699 5.97 15.3699 5.46C15.3699 4.91 14.9199 4.48 14.3699 4.5Z" fill="white"/>
<path d="M10.2099 4.5C9.66992 4.48 9.23992 4.88 9.21992 5.41C9.19992 5.97 9.61992 6.41 10.1799 6.41C10.7099 6.41 11.1299 6 11.1299 5.46C11.1399 4.93 10.7399 4.51 10.2099 4.5Z" fill="white"/>
<path d="M5.96995 4.5C5.41995 4.49 4.98995 4.93 5.00995 5.48C5.02995 6.01 5.44995 6.41 5.97995 6.4C6.50995 6.4 6.90995 5.99 6.90995 5.45C6.90995 4.92 6.49995 4.5 5.96995 4.5Z" fill="white"/>
<path d="M23.9799 31.85C23.3799 31.83 22.7699 31.85 22.1699 31.85C21.5499 31.85 20.9199 31.84 20.2999 31.85C19.6399 31.87 19.2399 32.24 19.2299 32.82C19.2199 33.4 19.6199 33.83 20.2599 33.84C21.5099 33.86 22.7599 33.87 24.0099 33.84C24.6399 33.83 25.0399 33.37 25.0099 32.8C24.9899 32.24 24.5999 31.87 23.9799 31.85Z" fill="white"/>
</svg>
