<svg width="60" height="60" viewBox="0 0 60 60" fill="none" xmlns="http://www.w3.org/2000/svg">
<path d="M36.54 53.11C36.15 52.75 35.99 52.32 35.98 51.78C35.96 50.66 35.67 49.6 35.04 48.66C33.54 46.43 30.47 46.42 28.96 48.65C28.41 49.46 28.05 50.37 28.06 51.33C28.07 52.31 27.65 52.96 27.01 53.61C25.9 54.74 25.76 56.08 26.32 57.53C26.37 57.67 26.55 57.78 26.44 57.98C23.15 57.98 19.86 57.97 16.57 57.99C16.1 57.99 15.99 57.88 16 57.41C16.02 53.35 16.01 49.29 16.01 45.23C16.01 44.33 15.66 43.98 14.77 43.98C13 43.98 11.23 43.98 9.45999 43.98C8.29999 43.98 8.01999 44.26 8.01999 45.41C8.01999 49.43 8.00999 53.45 8.02999 57.47C8.02999 57.86 7.96999 58.02 7.52999 57.99C6.84999 57.95 6.15999 57.96 5.46999 57.99C5.11999 58.01 4.99999 57.93 4.99999 57.56C5.00999 51.96 5.00999 46.36 4.99999 40.76C4.99999 40.44 5.09999 40.29 5.38999 40.16C9.11999 38.54 12.84 36.91 16.56 35.27C16.87 35.13 17.13 35.14 17.44 35.27C21.14 36.9 24.85 38.52 28.56 40.13C28.91 40.28 29 40.47 29 40.83C28.99 42.06 29 43.29 29 44.52C29 46.02 29 46.01 30.52 46.01C30.89 46.01 31.01 45.94 31.01 45.54C30.98 44.12 31 42.7 31 41.23C31.46 41.43 31.88 41.6 32.29 41.78C33.38 42.25 33.99 41.86 34 40.69C34 39.21 33.99 37.73 34.01 36.25C34.02 35.63 33.78 35.24 33.21 34.99C28.02 32.73 22.83 30.45 17.65 28.17C17.2 27.97 16.79 27.99 16.34 28.2C14.69 28.94 13.03 29.65 11.38 30.37C7.85999 31.91 4.34999 33.45 0.829987 34.98C0.349987 35.19 0.019987 35.48 0.019987 36.04C0.019987 37.66 0.00998696 39.29 0.029987 40.91C0.039987 41.76 0.699987 42.17 1.48999 41.86C1.98999 41.67 2.46999 41.44 3.01999 41.21C3.01999 41.5 3.01999 41.72 3.01999 41.95C3.01999 46.74 3.01999 51.53 3.01999 56.32C3.01999 56.86 3.24999 57.56 2.92999 57.88C2.60999 58.21 1.90999 57.97 1.36999 57.97C0.00998688 58 0.039987 57.99 -1.30126e-05 59.33C-0.020013 59.88 0.119987 60 0.669987 60C10.06 59.98 19.45 59.99 28.84 59.99C30.55 59.99 32.26 60.04 33.96 59.98C35.68 59.92 36.99 59.08 37.68 57.49C38.35 55.95 37.99 54.56 36.8 53.39C36.71 53.3 36.63 53.2 36.54 53.11ZM2.54999 39.24C2.39999 39.31 2.24999 39.36 2.00999 39.45C2.00999 38.58 2.02999 37.79 1.99999 37C1.98999 36.7 2.12999 36.6 2.34999 36.5C7.11999 34.42 11.89 32.34 16.66 30.24C16.95 30.11 17.17 30.16 17.42 30.27C22.15 32.34 26.88 34.42 31.61 36.49C31.83 36.58 32.01 36.65 32 36.96C31.98 37.76 32 38.57 32 39.45C31.02 39.03 30.09 38.63 29.17 38.22C25.41 36.57 21.64 34.93 17.89 33.26C17.27 32.98 16.73 33 16.12 33.27C11.6 35.28 7.06999 37.26 2.54999 39.24ZM13.51 58C12.49 57.97 11.47 57.97 10.45 58C10.09 58.01 9.99999 57.9 9.99999 57.55C10.01 53.84 10.01 50.14 9.99999 46.43C9.99999 46.08 10.09 45.98 10.45 45.98C11.49 46 12.53 46 13.57 45.98C13.93 45.97 14.02 46.08 14.02 46.43C14 48.3 14.01 50.18 14.01 52.05C14.01 53.86 14 55.67 14.02 57.48C14.02 57.9 13.91 58.01 13.51 58ZM35.36 57.38C34.91 57.77 34.39 58.01 33.77 58C33.17 57.99 32.56 58 31.96 58C31.38 58 30.8 57.99 30.21 58C29.68 58.01 29.23 57.83 28.82 57.54C27.83 56.84 27.69 55.72 28.55 54.88C29.51 53.95 30.08 52.89 30.01 51.52C29.99 51.24 30.09 50.95 30.16 50.67C30.21 50.47 30.29 50.27 30.39 50.09C30.76 49.43 31.28 48.98 32.08 49.01C32.86 49.04 33.31 49.53 33.61 50.2C33.85 50.74 33.98 51.31 33.97 51.89C33.97 52.9 34.33 53.75 35.04 54.46C35.19 54.61 35.33 54.76 35.47 54.91C36.21 55.69 36.16 56.68 35.36 57.38Z" fill="white"/>
<path d="M8.45001 29.01C8.92001 29.02 9.03001 28.9 9.02001 28.43C9.00001 23.97 9.01001 19.52 9.01001 15.06C9.01001 12.21 9.02001 9.35 9.00001 6.5C9.00001 6.1 9.10001 5.98 9.51001 6C10.2 6.04 10.88 6.03 11.57 6C11.93 5.99 12.02 6.1 12.02 6.45C12 7.66 11.99 8.87 12.02 10.07C12.05 11.75 13.44 13.04 15.11 13C16.48 12.97 18.13 11.83 18.03 9.56C17.96 7.92 18.02 7.93 16.39 7.99C16.08 8 16 8.09 16.01 8.38C16.03 8.92 16.03 9.46 16.01 10C15.98 10.59 15.56 10.99 15.01 10.99C14.46 10.99 14.03 10.59 14.02 9.99C14 7.95 14 5.91 14.02 3.87C14.03 2.94 14.77 2.18 15.67 2.02C16.56 1.86 17.49 2.38 17.85 3.23C18.14 3.9 18.08 4 17.36 4C16.01 4 16.03 4 15.99 5.33C15.97 5.86 16.09 6.01 16.65 6.01C24.23 6 31.81 6.01 39.39 6C39.86 6 40.02 6.09 40.01 6.6C39.97 8.31 39.99 10.01 40 11.72C40 12.66 40.34 13.01 41.27 13.01C42.96 13.01 44.64 13.03 46.33 13C46.85 12.99 47.02 13.08 47.02 13.66C46.99 16.97 47 20.28 47 23.59C47 25.01 47 24.99 48.39 25.02C48.85 25.03 49.01 24.94 49.01 24.43C48.99 20.41 48.99 16.39 49.01 12.37C49.01 11.83 48.84 11.42 48.46 11.05C46.42 9.03 44.36 7.02 42.38 4.94C41.72 4.25 41.03 3.99 40.08 4C33.58 4.03 27.08 4.01 20.58 4C20.34 4 20.04 4.18 19.97 3.66C19.69 1.47 18.07 0.0100021 16 0.0100021C13.93 0.0100021 12.31 1.48 12.02 3.65C11.98 3.96 11.89 4.02 11.61 4.01C10.54 4 9.46001 4.01 8.38001 4.01C7.32001 4.01 7.01001 4.32 7.01001 5.39C7.01001 9.2 7.01001 13.01 7.01001 16.82C7.01001 20.4 7.01001 23.98 7.01001 27.56C7.01001 29.01 7.01001 28.98 8.45001 29.01ZM42 7.46C43.21 8.67 44.34 9.79 45.55 11.01C44.38 11.01 43.3 11.01 42.22 11.01C41.94 11.01 42 10.82 42 10.67C41.99 9.63 42 8.6 42 7.46Z" fill="white"/>
<path d="M56.87 27.19C56.61 26.92 56.58 26.73 56.8 26.41C57.51 25.41 58.18 24.38 58.87 23.37C59.42 22.56 59.57 21.68 59.28 20.75C58.91 19.57 58.07 18.85 56.87 18.67C55.57 18.48 54.57 19.02 53.84 20.1C48.52 27.97 43.2 35.84 37.87 43.71C37.71 43.95 37.55 44.2 37.51 44.5C37.33 45.88 37.16 47.26 36.98 48.65C36.92 49.11 36.97 49.53 37.4 49.8C37.83 50.08 38.23 49.96 38.63 49.73C39.73 49.1 40.83 48.48 41.94 47.87C42.35 47.64 42.66 47.34 42.93 46.95C46.94 41 50.96 35.06 54.98 29.12C55.11 28.93 55.19 28.71 55.43 28.58C55.75 28.93 56.05 29.31 56.39 29.63C56.69 29.92 56.73 30.13 56.47 30.51C55.47 31.92 54.52 33.36 53.56 34.79C53.29 35.2 52.73 35.64 52.84 36.03C52.95 36.4 53.61 36.6 54 36.9C54.27 37.11 54.41 37.12 54.62 36.81C55.99 34.75 57.38 32.7 58.77 30.66C59.12 30.14 59.09 29.66 58.67 29.19C58.07 28.52 57.49 27.84 56.87 27.19ZM42.94 43.36C42.6 43.88 42.24 44.39 41.89 44.91C41.05 46.16 40.78 46.38 39.23 47.03C39.33 45.86 39.41 44.77 40.18 43.83C40.82 43.05 41.34 42.16 41.9 41.31C42.08 41.03 42.23 40.95 42.51 41.19C42.89 41.53 43.62 41.67 43.67 42.12C43.73 42.5 43.22 42.95 42.94 43.36ZM53.21 28.18C50.55 32.1 47.9 36.03 45.24 39.95C45.14 40.1 45.08 40.29 44.88 40.37C44.57 40.17 44.26 39.96 43.95 39.75C43.27 39.29 43.28 39.29 43.73 38.62C46.57 34.42 49.42 30.22 52.24 26.01C52.53 25.58 52.68 25.43 53.08 25.92C53.99 27.01 54.02 26.99 53.21 28.18ZM55.17 25.28C54.76 24.83 54.38 24.39 53.99 23.97C53.83 23.8 53.84 23.67 53.97 23.49C54.53 22.69 55.05 21.87 55.62 21.08C55.97 20.59 56.54 20.51 56.99 20.83C57.43 21.14 57.56 21.71 57.24 22.21C56.58 23.22 55.88 24.22 55.17 25.28Z" fill="white"/>
<path d="M42.43 19.99C37.64 20.01 32.85 20 28.06 20C23.5 20 18.94 20 14.38 20C13 20 13.03 20 12.99 21.37C12.97 21.89 13.11 22.01 13.63 22.01C22.94 22 32.25 22 41.56 22C43.01 22 42.98 22 43.01 20.56C43.02 20.1 42.9 19.99 42.43 19.99Z" fill="white"/>
<path d="M42.43 23.99C37.64 24.01 32.85 24 28.06 24C23.5 24 18.94 24 14.38 24C13 24 13.03 24 12.99 25.37C12.97 25.89 13.11 26.01 13.63 26.01C22.94 26 32.25 26 41.56 26C43.01 26 42.98 26 43.01 24.56C43.02 24.1 42.9 23.99 42.43 23.99Z" fill="white"/>
<path d="M41.58 18C43 18 42.97 18 43 16.6C43.01 16.12 42.9 15.98 42.4 15.99C38.61 16.01 34.82 16 31.03 16C27.47 16 23.91 16 20.35 16C19 16 19.03 16 18.99 17.34C18.97 17.88 19.1 18.02 19.66 18.02C26.97 18 34.27 18 41.58 18Z" fill="white"/>
<path d="M21.9999 45.99C21.0399 45.99 20.0899 45.98 19.1299 45.99C18.3899 46 18.0099 46.37 18.0099 47.1C17.9999 48.68 17.9999 50.26 18.0099 51.84C18.0099 52.61 18.3899 52.98 19.1699 52.98C21.0599 52.99 22.9499 52.99 24.8499 52.98C25.6199 52.98 25.9999 52.6 26.0099 51.84C26.0199 50.28 26.0199 48.72 26.0099 47.16C26.0099 46.35 25.6399 45.99 24.8199 45.99C23.8699 45.99 22.9399 45.99 21.9999 45.99ZM24.0099 50.62C24.0199 50.92 23.9299 51.01 23.6299 51C23.0699 50.98 22.5099 50.99 21.8399 50.99C21.3099 50.93 20.4599 51.27 20.0999 50.86C19.7899 50.5 20.0099 49.67 20.0099 49.05C20.0099 47.99 20.0099 47.99 21.0699 47.99C21.9199 47.99 22.7799 48 23.6299 47.98C23.9299 47.97 24.0199 48.06 24.0099 48.36C23.9899 49.12 23.9899 49.87 24.0099 50.62Z" fill="white"/>
<path d="M47.58 42.98C47.07 42.97 46.98 43.13 46.99 43.6C47.01 47.2 46.99 50.8 47.01 54.41C47.01 54.92 46.86 55.01 46.39 55C44.77 54.97 43.14 54.99 41.52 54.99C39.97 54.99 39.99 54.99 39.99 56.53C39.99 56.94 40.12 57 40.48 56.99C42.9 56.97 45.31 56.98 47.73 56.98C48.66 56.98 49 56.63 49 55.69C49 53.67 49 51.65 49 49.63C49 47.88 49 46.13 49 44.38C48.99 42.99 48.99 43.02 47.58 42.98Z" fill="white"/>
<path d="M43.0099 28.5C43.0099 28.09 42.8999 27.99 42.4999 27.99C40.1699 28.01 37.8399 28 35.4999 28C33.4799 28 31.4599 28 29.4399 28C27.9999 28 28.0199 28 27.9899 29.44C27.9799 29.91 28.0999 30.02 28.5699 30.01C32.8799 29.99 37.1899 30 41.4999 30C43.0099 30 42.9999 30 43.0099 28.5Z" fill="white"/>
<path d="M35.99 33.55C35.99 33.88 36.05 34.03 36.42 34.01C37.13 33.98 37.84 33.97 38.54 34.01C38.96 34.03 39 33.86 39 33.51C39 32 39.01 32 37.51 32C35.96 32 35.97 32 35.99 33.55Z" fill="white"/>
<path d="M17.01 16.96C17.01 16 17.01 16 16.03 16C15.01 16 15.01 16 15.01 17.04C15.01 18 15.01 18 15.99 18C17.01 18 17.01 18 17.01 16.96Z" fill="white"/>
<path d="M11.01 40.99C11.01 41.99 11.01 41.99 12 41.99C13 41.99 13 41.99 13 41C13 40 13 40 12.01 40C11.01 40 11.01 40 11.01 40.99Z" fill="white"/>
</svg>
