<svg width="36" height="48" viewBox="0 0 36 48" fill="none" xmlns="http://www.w3.org/2000/svg">
<path fill-rule="evenodd" clip-rule="evenodd" d="M6 0C4.4087 0 2.88258 0.632141 1.75736 1.75736C0.632141 2.88258 0 4.4087 0 6V42C0 43.5913 0.632141 45.1174 1.75736 46.2426C2.88258 47.3679 4.4087 48 6 48H30C31.5913 48 33.1174 47.3679 34.2426 46.2426C35.3679 45.1174 36 43.5913 36 42V16.242C35.9997 14.6508 35.3673 13.125 34.242 12L24 1.758C22.875 0.632704 21.3492 0.000339824 19.758 0H6ZM12 30C12 29.2044 11.6839 28.4413 11.1213 27.8787C10.5587 27.3161 9.79565 27 9 27C8.20435 27 7.44129 27.3161 6.87868 27.8787C6.31607 28.4413 6 29.2044 6 30V39C6 39.7957 6.31607 40.5587 6.87868 41.1213C7.44129 41.6839 8.20435 42 9 42C9.79565 42 10.5587 41.6839 11.1213 41.1213C11.6839 40.5587 12 39.7957 12 39V30ZM18 21C18.7956 21 19.5587 21.3161 20.1213 21.8787C20.6839 22.4413 21 23.2044 21 24V39C21 39.7957 20.6839 40.5587 20.1213 41.1213C19.5587 41.6839 18.7956 42 18 42C17.2044 42 16.4413 41.6839 15.8787 41.1213C15.3161 40.5587 15 39.7957 15 39V24C15 23.2044 15.3161 22.4413 15.8787 21.8787C16.4413 21.3161 17.2044 21 18 21ZM30 18C30 17.2044 29.6839 16.4413 29.1213 15.8787C28.5587 15.3161 27.7956 15 27 15C26.2044 15 25.4413 15.3161 24.8787 15.8787C24.3161 16.4413 24 17.2044 24 18V39C24 39.7957 24.3161 40.5587 24.8787 41.1213C25.4413 41.6839 26.2044 42 27 42C27.7956 42 28.5587 41.6839 29.1213 41.1213C29.6839 40.5587 30 39.7957 30 39V18Z" fill="white"/>
</svg>
