<svg width="48" height="53" viewBox="0 0 48 53" fill="none" xmlns="http://www.w3.org/2000/svg">
<path d="M28 0V15C28 16.3261 28.5268 17.5979 29.4645 18.5355C30.4021 19.4732 31.6739 20 33 20H48V45C48 46.3261 47.4732 47.5979 46.5355 48.5355C45.5979 49.4732 44.3261 50 43 50H25.975C28.5625 47.3065 30.1432 43.8038 30.451 40.0814C30.7588 36.3591 29.7749 32.6444 27.6649 29.5624C25.5549 26.4805 22.4476 24.2195 18.866 23.1599C15.2844 22.1004 11.4471 22.307 8 23.745V5C8 3.67392 8.52678 2.40215 9.46447 1.46447C10.4021 0.526784 11.6739 0 13 0H28Z" fill="white"/>
<path d="M31.75 1.25V15C31.75 15.3315 31.8817 15.6495 32.1161 15.8839C32.3505 16.1183 32.6685 16.25 33 16.25H46.75L31.75 1.25ZM28 38.75C28 40.5557 27.6443 42.3437 26.9533 44.0119C26.2623 45.6801 25.2495 47.1959 23.9727 48.4727C22.6959 49.7495 21.1801 50.7623 19.5119 51.4533C17.8437 52.1443 16.0557 52.5 14.25 52.5C12.4443 52.5 10.6563 52.1443 8.9881 51.4533C7.31988 50.7623 5.80409 49.7495 4.52728 48.4727C3.25048 47.1959 2.23766 45.6801 1.54666 44.0119C0.855654 42.3437 0.5 40.5557 0.5 38.75C0.5 35.1033 1.94866 31.6059 4.52728 29.0273C7.10591 26.4487 10.6033 25 14.25 25C17.8967 25 21.3941 26.4487 23.9727 29.0273C26.5513 31.6059 28 35.1033 28 38.75ZM6.75 37.5C6.41848 37.5 6.10054 37.6317 5.86612 37.8661C5.6317 38.1005 5.5 38.4185 5.5 38.75C5.5 39.0815 5.6317 39.3995 5.86612 39.6339C6.10054 39.8683 6.41848 40 6.75 40H18.7325L14.615 44.115C14.3803 44.3497 14.2484 44.6681 14.2484 45C14.2484 45.3319 14.3803 45.6503 14.615 45.885C14.8497 46.1197 15.1681 46.2516 15.5 46.2516C15.8319 46.2516 16.1503 46.1197 16.385 45.885L22.635 39.635C22.7514 39.5189 22.8438 39.3809 22.9068 39.2291C22.9698 39.0772 23.0022 38.9144 23.0022 38.75C23.0022 38.5856 22.9698 38.4228 22.9068 38.2709C22.8438 38.1191 22.7514 37.9811 22.635 37.865L16.385 31.615C16.1503 31.3803 15.8319 31.2484 15.5 31.2484C15.1681 31.2484 14.8497 31.3803 14.615 31.615C14.3803 31.8497 14.2484 32.1681 14.2484 32.5C14.2484 32.8319 14.3803 33.1503 14.615 33.385L18.7325 37.5H6.75Z" fill="white"/>
</svg>
