<svg width="64" height="64" viewBox="0 0 64 64" fill="none" xmlns="http://www.w3.org/2000/svg">
<path d="M63.99 33.1C63.82 33.64 63.68 34.2 63.48 34.73C62.4 37.7 59.54 39.82 56.38 39.83C49.35 39.87 42.32 39.85 35.28 39.84C34.84 39.84 34.5 39.96 34.15 40.22C31.88 41.94 29.6 43.65 27.32 45.35C26.12 46.24 24.72 45.89 24.25 44.61C24.15 44.33 24.15 44.04 24.15 43.75C24.15 31.83 24.14 19.91 24.15 7.98C24.16 3.89 26.85 0.79 30.89 0.1C30.94 0.09 30.98 0.03 31.03 0C39.69 0 48.34 0 57 0C58.37 0.09 59.64 0.48 60.74 1.32C62.58 2.73 63.82 4.48 63.99 6.86C63.99 15.62 63.99 24.36 63.99 33.1Z" fill="#3247D5"/>
<path d="M0.0700073 56.44C0.470007 55.73 0.450007 54.9 0.730007 54.15C1.65001 51.65 3.17001 49.64 5.39001 48.17C5.78001 47.91 5.89001 47.79 5.47001 47.41C2.44001 44.62 1.36001 41.18 2.51001 37.24C3.60001 33.46 6.24001 31.12 10.1 30.3C15.82 29.09 21.48 33.45 21.83 39.26C22.04 42.73 20.74 45.53 18.09 47.79C18.6 48.18 19.12 48.54 19.61 48.95C22.53 51.43 23.88 54.64 23.9 58.44C23.9 59.48 23.87 60.52 23.91 61.56C23.96 62.71 23.54 63.53 22.44 63.94C15.45 63.94 8.46001 63.94 1.47001 63.94C0.720007 63.78 0.260007 63.32 0.100007 62.57C0.100007 60.86 0.100007 59.16 0.100007 57.45C0.180007 57.38 0.160007 57.29 0.160007 57.2C0.160007 57.11 0.170007 57.02 0.100007 56.95C0.0700073 56.78 0.0700073 56.61 0.0700073 56.44Z" fill="#3247D5"/>
<path d="M0.070006 62.56C0.370006 63.17 0.830006 63.63 1.44001 63.93C0.980006 63.93 0.350006 64.11 0.120006 63.88C-0.109994 63.65 0.070006 63.02 0.070006 62.56Z" fill="#F5F5F5"/>
<path d="M0.0700073 56.94C0.220007 56.97 0.190007 57.08 0.170007 57.18C0.140007 57.24 0.100007 57.24 0.0700073 57.19C0.0700073 57.11 0.0700073 57.03 0.0700073 56.94Z" fill="#8B8B8B"/>
<path d="M0.0700073 57.19C0.100007 57.19 0.140007 57.18 0.170007 57.18C0.190007 57.29 0.190007 57.39 0.0700073 57.44C0.0700073 57.36 0.0700073 57.28 0.0700073 57.19Z" fill="#686868"/>
<path d="M27.89 40.25C27.89 39.99 27.89 39.85 27.89 39.71C27.89 29.2 27.89 18.7 27.89 8.19C27.89 6.38 28.61 5.02 30.23 4.18C30.85 3.86 31.53 3.75 32.22 3.75C40.11 3.75 47.99 3.74 55.88 3.75C58.47 3.75 60.24 5.51 60.24 8.1C60.25 15.99 60.25 23.87 60.24 31.76C60.24 34.38 58.48 36.1 55.82 36.1C48.75 36.11 41.67 36.11 34.6 36.09C33.79 36.09 33.11 36.3 32.47 36.8C31 37.95 29.49 39.06 27.89 40.25Z" fill="#FEFEFE"/>
<path d="M11.98 60.19C9.46003 60.19 6.95003 60.17 4.43003 60.21C3.89003 60.22 3.81003 60.05 3.80003 59.56C3.79003 57.78 3.85003 56.04 4.68003 54.4C6.32003 51.13 9.91003 49.38 13.6 50.08C17.07 50.74 19.78 53.75 20.07 57.3C20.14 58.11 20.1 58.92 20.15 59.73C20.17 60.13 20.03 60.21 19.66 60.21C17.09 60.18 14.53 60.19 11.98 60.19Z" fill="#FEFEFE"/>
<path d="M11.98 46.14C8.64001 46.15 5.82001 43.34 5.82001 40C5.82001 36.66 8.62001 33.85 11.96 33.84C15.3 33.84 18.11 36.64 18.12 39.98C18.13 43.32 15.32 46.14 11.98 46.14Z" fill="#FEFEFE"/>
<path d="M44.08 18.07C47.33 18.07 50.57 18.07 53.82 18.07C54.99 18.07 55.69 18.57 55.91 19.54C56.14 20.54 55.5 21.55 54.49 21.75C54.21 21.81 53.91 21.82 53.62 21.82C47.25 21.82 40.89 21.82 34.52 21.82C34.48 21.82 34.44 21.82 34.4 21.82C33.03 21.81 32.16 21.07 32.16 19.94C32.16 18.8 33.02 18.08 34.41 18.08C37.63 18.07 40.86 18.07 44.08 18.07Z" fill="#3247D5"/>
<path d="M44.01 13.78C40.72 13.78 37.44 13.79 34.15 13.77C32.72 13.76 31.83 12.56 32.28 11.3C32.51 10.64 32.98 10.23 33.67 10.09C33.83 10.06 34 10.03 34.16 10.03C40.75 10.03 47.35 10.03 53.94 10.03C54.25 10.03 54.56 10.08 54.85 10.21C55.63 10.56 56.08 11.39 55.93 12.19C55.77 13.08 55.12 13.68 54.24 13.76C54.01 13.78 53.78 13.78 53.55 13.78C50.38 13.78 47.19 13.78 44.01 13.78Z" fill="#3247D5"/>
<path d="M39.09 26.1C40.69 26.1 42.29 26.09 43.89 26.1C45.11 26.11 45.92 26.87 45.92 27.97C45.91 29.07 45.09 29.83 43.87 29.84C40.65 29.85 37.43 29.85 34.2 29.84C33 29.84 32.15 29.03 32.16 27.95C32.17 26.86 33 26.1 34.22 26.1C35.85 26.09 37.47 26.1 39.09 26.1Z" fill="#3247D5"/>
</svg>
