<svg width="58" height="56" viewBox="0 0 58 56" fill="none" xmlns="http://www.w3.org/2000/svg">
<path d="M55.85 14.5456C55.1732 14.5456 54.4976 14.5444 53.8208 14.5432C51.7256 14.5396 49.5596 14.536 47.4284 14.5612C47.3384 14.5624 47.282 14.5576 47.2484 14.5528C47.2436 14.5156 47.2388 14.452 47.2388 14.3416C47.2556 10.9024 47.2532 7.40559 47.2508 4.02399L47.2496 2.12439C47.2496 1.04559 46.736 0.519988 45.6824 0.519988C40.7072 0.517588 35.81 0.517588 31.1264 0.519988C30.1004 0.521188 29.5784 1.04559 29.5748 2.07879C29.5736 2.38839 29.5724 2.69799 29.5712 3.00759C29.5664 4.29519 29.5604 5.62719 29.5856 6.93879C29.5868 6.99879 29.5844 7.04079 29.582 7.06959C29.5508 7.07319 29.504 7.07559 29.4368 7.07559C25.6988 7.05999 21.8996 7.06239 18.2252 7.06479L16.2248 7.06599C15.11 7.06599 14.612 7.56399 14.6096 8.67999C14.606 10.3012 14.606 11.6392 14.6096 12.8908C14.6108 13.4032 14.7608 13.8196 15.0428 14.0932C15.2864 14.3308 15.6176 14.4496 15.9968 14.44C16.8056 14.4196 17.312 13.8304 17.3168 12.9028C17.318 12.6988 17.3192 12.496 17.3216 12.292C17.3276 11.5108 17.3348 10.7032 17.3084 9.90639C17.306 9.84279 17.3072 9.79959 17.3096 9.76959C17.3396 9.76599 17.3816 9.76359 17.4452 9.76359C21.1724 9.78399 25.094 9.78399 29.432 9.76599C29.5016 9.76599 29.5496 9.76839 29.5808 9.77199C29.5844 9.80079 29.5856 9.84159 29.5856 9.90159C29.57 11.4568 29.57 13.036 29.5712 14.5636C29.5724 15.562 29.5724 16.5616 29.5688 17.56C29.5652 18.3868 29.9168 18.898 30.6128 19.078C31.0208 19.1836 31.4132 19.1116 31.718 18.8764C32.0828 18.5944 32.2832 18.1132 32.2844 17.5228L32.2856 15.3988C32.288 11.4772 32.2904 7.42359 32.2748 3.43479C32.2748 3.32439 32.2796 3.26079 32.2844 3.22479C32.318 3.21999 32.3744 3.21399 32.4668 3.21519C36.0332 3.24159 39.8048 3.24279 44.3384 3.21879C44.4476 3.21759 44.5112 3.22359 44.5472 3.22839C44.552 3.26199 44.558 3.31839 44.558 3.41199C44.5376 7.14279 44.54 10.9348 44.5412 14.602C44.5412 15.7048 44.5424 16.8064 44.5424 17.9092V20.3056C44.5424 24.2992 44.5424 28.294 44.5424 32.2876C44.5424 32.3332 44.5412 32.38 44.5412 32.4268C44.5388 32.5876 44.5364 32.7544 44.5604 32.9308C44.6588 33.6292 45.236 34.1104 45.9308 34.0792C46.6232 34.0456 47.0948 33.646 47.2244 32.9812C47.2604 32.794 47.2568 32.6128 47.2532 32.452C47.252 32.4076 47.2508 32.3632 47.2508 32.3188V29.8684C47.252 25.7668 47.2532 21.526 47.2424 17.3548C47.2424 17.3104 47.2436 17.2768 47.2448 17.2504C47.2616 17.2492 47.2832 17.2492 47.3072 17.2492C49.6892 17.272 52.2092 17.272 54.7964 17.2504C54.8108 17.2504 54.824 17.2504 54.836 17.2504C54.836 17.2696 54.8372 17.2912 54.836 17.3176C54.8168 19.5628 54.818 21.2956 54.8396 22.9384C54.8396 22.9516 54.8396 22.9648 54.8396 22.9756C54.8216 22.9756 54.7988 22.9756 54.7724 22.9756C53.6396 22.9588 52.49 22.9636 51.3776 22.9672L50.7908 22.9696C50.2748 22.9708 49.8548 23.1208 49.5752 23.404C49.3388 23.644 49.2152 23.9668 49.22 24.3376C49.2272 24.9832 49.6484 25.6756 50.81 25.678C51.0896 25.6792 51.368 25.6804 51.6476 25.6816C52.6784 25.6864 53.744 25.69 54.794 25.6696C54.8108 25.6696 54.8252 25.6696 54.8384 25.6696C54.8384 25.6828 54.8384 25.6984 54.8372 25.7152C54.8084 26.3392 54.8072 26.992 54.836 27.6532C53.6624 27.6388 52.4708 27.6424 51.3176 27.646L50.798 27.6472C50.2796 27.6484 49.8584 27.7972 49.58 28.078C49.3436 28.3156 49.22 28.636 49.2212 29.0056C49.2248 29.836 49.8308 30.3532 50.8052 30.3556L51.4172 30.358C52.538 30.3616 53.696 30.3652 54.8372 30.3496C54.8252 33.4744 54.8252 36.658 54.8372 39.8128C53.7056 39.7972 52.5572 39.8008 51.446 39.8044L50.8052 39.8068C49.6412 39.8092 49.2236 40.5052 49.22 41.1544C49.2188 41.524 49.3424 41.8456 49.5788 42.0844C49.8572 42.3652 50.2784 42.514 50.7968 42.5152C51.6212 42.5164 52.4444 42.5176 53.2424 42.5176C54.1736 42.5176 55.0688 42.5164 55.8836 42.5164C57.044 42.5152 57.5384 42.0256 57.5384 40.8808C57.5396 32.6584 57.5396 24.4372 57.5384 16.2148C57.5384 15.0268 57.0488 14.5456 55.85 14.5456Z" fill="white"/>
<path d="M36.65 23.3392C36.6632 23.2924 36.674 23.2516 36.6848 23.2156L36.7052 23.146L36.7004 23.074C36.6332 22.0204 35.8676 21.7708 35.3072 21.5884C30.5372 20.0368 25.7672 18.484 20.9972 16.9324L12.8816 14.2912C11.684 13.9012 11.0924 14.2036 10.7 15.4048C7.37599 25.5904 4.05439 35.7772 0.733988 45.9652C0.375188 47.0668 0.685988 47.6884 1.77559 48.0448C9.34039 50.5156 16.9064 52.9852 24.4724 55.4512C24.7544 55.5436 25.004 55.5904 25.226 55.5904C25.8644 55.5904 26.2736 55.204 26.5412 54.3856C29.87 44.1808 33.1976 33.976 36.524 23.77C36.5744 23.614 36.6164 23.4616 36.65 23.3392ZM33.6332 23.8984C33.6272 23.9284 33.6152 23.9704 33.596 24.0304C31.7348 29.7148 29.8496 35.4988 28.0256 41.0908C26.7872 44.8888 25.55 48.6868 24.3092 52.4836C24.3032 52.5028 24.2972 52.522 24.2924 52.5412C24.2816 52.5376 24.2708 52.534 24.26 52.5316L20.2544 51.2236C14.8376 49.4536 9.23599 47.6236 3.72199 45.8356C3.68239 45.8224 3.65239 45.8116 3.62839 45.8032C3.63319 45.7864 3.63919 45.7672 3.64639 45.7444C7.08079 35.2576 10.124 25.9324 12.9476 17.236C12.9572 17.2072 12.9656 17.1844 12.9728 17.1652C12.9968 17.1712 13.0256 17.1808 13.064 17.1928C20.5688 19.654 27.2516 21.832 33.494 23.8516C33.56 23.8696 33.6044 23.8864 33.6332 23.8984Z" fill="white"/>
<path d="M54.7004 45.4192C51.0068 43.2616 47.1536 41.0152 42.9212 38.5504C42.3824 38.236 41.8256 38.1964 41.3936 38.4412C40.964 38.6848 40.712 39.1792 40.7048 39.7984C40.7024 39.9424 40.7 40.0864 40.6976 40.2304C40.6868 40.8436 40.676 41.4784 40.7156 42.1084C40.7252 42.25 40.718 42.3232 40.712 42.3568C40.6784 42.3652 40.6064 42.376 40.466 42.3724C38.9768 42.3364 37.4648 42.3448 36.002 42.352C35.6168 42.3544 35.2316 42.3556 34.8464 42.3568C33.8336 42.3604 33.3188 42.8692 33.3164 43.8688C33.3104 45.7636 33.3104 47.71 33.3164 49.654C33.32 50.6524 33.8324 51.1624 34.8416 51.1708C35.51 51.1756 36.1892 51.1756 36.8456 51.1732C37.412 51.172 37.9772 51.172 38.5436 51.1756C39.23 51.1804 39.9404 51.1852 40.6412 51.1612C40.67 51.16 40.6928 51.16 40.7108 51.1612C40.712 51.184 40.712 51.214 40.7096 51.2524C40.6856 51.91 40.6916 52.5736 40.6976 53.2168L40.7012 53.6656C40.706 54.3316 40.9508 54.8356 41.3888 55.0864C41.5748 55.192 41.7824 55.2448 42.0044 55.2448C42.3068 55.2448 42.6356 55.1464 42.9692 54.952C46.8788 52.672 50.7884 50.392 54.6968 48.1096C55.502 47.6392 55.67 47.1184 55.67 46.7644C55.6748 46.4104 55.5056 45.8896 54.7004 45.4192ZM43.4132 50.05C43.4048 48.9712 42.9032 48.4672 41.834 48.4648L41.0864 48.4624C40.3796 48.46 39.6632 48.4588 38.942 48.4588C37.9976 48.4588 37.046 48.4624 36.104 48.4732C36.0668 48.4732 36.038 48.4732 36.0152 48.472C36.0152 48.4528 36.014 48.43 36.0152 48.4024C36.044 47.4196 36.0452 46.3432 36.0176 45.1108C36.0176 45.0892 36.0176 45.0712 36.0176 45.0556C36.032 45.0556 36.0464 45.0544 36.0644 45.0556C37.5464 45.0724 39.0512 45.07 40.508 45.0676C40.9172 45.0664 41.3264 45.0664 41.7356 45.0652C42.9224 45.064 43.4084 44.5816 43.4144 43.3996C43.4168 42.9832 43.4168 42.568 43.418 42.1516V41.9788L51.6272 46.7644L43.4156 51.5536V51.55C43.4156 51.0292 43.4156 50.5396 43.4132 50.05Z" fill="white"/>
<path d="M23.4344 44.9344C22.3148 44.4676 20.8196 44.008 19.1708 44.6044C18.6104 44.8072 18.4232 44.7388 17.9972 44.1724C17.2712 43.2076 16.3004 42.7144 15.1124 42.7096C14.8916 42.7084 14.672 42.7108 14.4512 42.7144C14.2088 42.718 13.9568 42.7204 13.712 42.718C13.3712 42.7144 13.0568 42.6652 12.7556 42.5656C13.2296 42.2476 13.6424 41.926 14.006 41.5192C14.534 40.9288 15.2084 40.0012 14.9684 38.782C14.678 37.312 13.7876 36.292 12.3932 35.8312C11.1704 35.4268 9.97759 35.7676 8.94319 36.814C7.67719 38.0956 7.31719 40.138 8.06119 41.7952C7.96279 41.8204 7.86439 41.8444 7.76599 41.8696C7.39759 41.9608 7.01719 42.0556 6.64519 42.1888C5.82199 42.484 5.44759 43.1932 5.71639 43.9528C5.96839 44.668 6.67159 44.9968 7.46479 44.7724C8.05999 44.6032 8.65639 44.4112 9.23239 44.2252L9.64639 44.092C9.68839 44.0788 9.73039 44.062 9.77119 44.0464C9.78799 44.0404 9.80719 44.032 9.82399 44.026C11.4956 45.3856 13.448 45.4864 14.9672 45.4228C15.3764 45.4072 15.6644 45.5584 15.932 45.9328C16.772 47.1064 17.9612 47.6224 19.196 47.3476C20.2424 47.1148 21.3764 46.9672 22.5728 47.458C22.7324 47.5228 22.8956 47.5564 23.0564 47.5564C23.2292 47.5564 23.3972 47.5192 23.5544 47.4448C23.888 47.2852 24.1484 46.9648 24.2684 46.564C24.4712 45.8932 24.128 45.2236 23.4344 44.9344ZM10.3916 39.8872C10.3844 39.4948 10.5188 39.13 10.7912 38.8036C10.9916 38.5624 11.2256 38.422 11.4488 38.4088C11.4608 38.4076 11.474 38.4076 11.486 38.4076C11.6504 38.4076 11.8064 38.476 11.9504 38.6104C12.1688 38.8144 12.2792 39.0112 12.278 39.1948C12.2768 39.4408 12.0704 39.6796 11.8976 39.8368C11.5964 40.1116 11.2388 40.3192 10.8596 40.5388C10.7552 40.5988 10.652 40.66 10.5488 40.7212C10.4612 40.4776 10.3868 40.21 10.3928 39.9028V39.8944L10.3916 39.8872Z" fill="white"/>
<path d="M29.6504 26.9764C28.892 26.7232 28.1204 26.4724 27.3728 26.23L25.82 25.726C23.1104 24.8464 20.3996 23.9656 17.6888 23.0896C16.7948 22.8004 16.076 23.0956 15.8144 23.8576C15.6872 24.2296 15.6992 24.586 15.8492 24.8884C16.022 25.2364 16.3604 25.4944 16.8536 25.6564C18.338 26.1424 19.8236 26.626 21.3092 27.1096L23.3288 27.7672C23.876 27.946 24.4232 28.1248 24.9704 28.3036C26.228 28.7152 27.53 29.1412 28.8128 29.5516C29 29.6116 29.1836 29.6416 29.3588 29.6416C29.6468 29.6416 29.912 29.5612 30.134 29.4028C30.47 29.1628 30.6596 28.774 30.6692 28.318C30.6872 27.8656 30.5252 27.268 29.6504 26.9764Z" fill="white"/>
<path d="M29.0144 31.582L28.97 31.5676C26.108 30.6364 23.2448 29.7076 20.3816 28.78C20.2412 28.7344 20.102 28.6984 19.9796 28.666C19.9328 28.654 19.8872 28.642 19.8464 28.63L19.7792 28.6108L19.7096 28.6144C19.034 28.6552 18.5672 29.02 18.3968 29.6416C18.2264 30.262 18.4508 30.8152 18.9968 31.12C19.2272 31.2496 19.4684 31.3252 19.7 31.3984C19.7444 31.4128 19.7876 31.426 19.8308 31.4404C20.9036 31.7908 21.9752 32.14 23.048 32.4892C24.818 33.0664 26.5892 33.6424 28.358 34.2232C28.5548 34.288 28.7396 34.3192 28.9136 34.3192C29.2832 34.3192 29.6024 34.174 29.8652 33.8848C30.2156 33.4996 30.3152 33.0028 30.1436 32.4868C29.9432 31.882 29.4068 31.7092 29.0144 31.582Z" fill="white"/>
</svg>
