<svg width="62" height="62" viewBox="0 0 62 62" fill="none" xmlns="http://www.w3.org/2000/svg">
<path d="M59.63 6.01C55.32 6.01 51.01 6 46.7 6.02C46.17 6.02 45.92 5.94 45.98 5.33C46.04 4.69 45.99 4.04 45.99 3.39C45.99 1.18 44.81 0 42.6 0C29.54 0 16.48 0 3.43001 0C1.18001 0 0.0100098 1.17 0.0100098 3.42C0.0100098 11.94 0.0100098 20.45 0.0100098 28.97C0.0100098 37.57 0.0100098 46.17 0.0100098 54.77C0.0100098 55.9 0.37001 56.9 1.36001 57.41C2.14001 57.81 2.40001 58.37 2.52001 59.12C2.57001 59.41 2.67001 59.68 2.74001 59.96C3.14001 61.54 3.68001 61.96 5.33001 61.96C13.6 61.96 21.87 61.96 30.13 61.96C33.75 61.96 37.38 61.96 41 61.96C42.21 61.96 42.9 61.43 43.21 60.26C43.38 59.62 43.55 58.97 43.68 58.32C43.75 57.98 43.92 57.82 44.23 57.66C45.36 57.12 45.97 56.21 45.99 54.94C46.01 54.17 46.04 53.4 45.98 52.63C45.93 52.03 46.16 51.94 46.7 51.94C51.01 51.96 55.32 51.95 59.63 51.95C61.24 51.95 61.99 51.2 61.99 49.58C61.99 35.84 61.99 22.09 61.99 8.35C61.99 6.76 61.24 6.01 59.63 6.01ZM2.01001 3.31C2.01001 2.34 2.34001 2.01 3.33001 2.01C9.89001 2.01 16.44 2.01 23 2.01C29.52 2.01 36.03 2.01 42.55 2.01C43.73 2.01 44 2.29 44 3.49C44 4.18 43.97 4.87 44.01 5.55C44.03 5.96 43.88 6.02 43.52 6.02C38.94 6.01 34.36 6.01 29.78 6.01C29.6 6.01 29.42 6.04 29.24 5.93C27.13 4.55 24.73 4.2 22.29 4.04C21.64 4 20.99 4.03 20.35 4.01C20.07 3.99 19.98 4.09 20 4.36C20.02 4.73 19.98 5.11 20.02 5.48C20.08 5.93 19.92 6.02 19.48 6.02C15.86 6 12.24 6.01 8.62001 6.01C7.93001 6.01 7.24001 6.05 6.56001 6C6.06001 5.96 5.99001 6.15 6.00001 6.59C6.03001 8.21 6.00001 9.84 6.02001 11.46C6.03001 11.87 5.96001 12.04 5.50001 12.02C4.50001 11.98 3.50001 11.98 2.50001 12.02C2.06001 12.04 2.00001 11.88 2.00001 11.49C2.02001 8.77 2.01001 6.04 2.01001 3.31ZM6.00001 14.53C5.99001 14.08 6.13001 13.99 6.55001 14C8.01001 14.02 8.01001 14 8.01001 15.43C8.01001 18.76 8.00001 22.09 8.02001 25.42C8.02001 25.93 7.87001 26.03 7.40001 26.02C6.00001 25.99 6.00001 26.01 6.00001 24.59C6.00001 23.05 6.00001 21.51 6.00001 19.97C6.01001 18.15 6.03001 16.34 6.00001 14.53ZM18.97 14.02C22.89 14 26.8 14.01 30.72 14C31.08 14 31.43 14.02 31.7 14.3C31.98 14.59 32.09 14.94 31.93 15.33C31.75 15.79 31.4 16 30.91 16C29.49 16 28.08 16 26.66 16C24.6 16 22.54 16.01 20.48 15.99C20.11 15.99 19.99 16.06 19.99 16.46C19.99 18 19.97 18 21.53 18C24.59 18 27.65 18 30.71 18C31.03 18 31.34 18 31.6 18.21C31.93 18.49 32.08 18.85 31.95 19.27C31.8 19.77 31.44 20 30.92 20C29.63 20 28.34 20 27.05 20C24.86 20 22.68 20.01 20.49 19.99C20.12 19.99 20 20.05 20 20.46C20 22 19.98 22 21.54 22C24.6 22 27.66 22 30.72 22C31.04 22 31.35 22 31.61 22.21C31.95 22.49 32.1 22.84 31.97 23.26C31.8 23.76 31.44 24 30.92 24C29.77 24 28.63 24 27.48 24C25.15 24 22.82 24.01 20.48 23.99C20.12 23.99 19.98 24.04 19.98 24.45C19.98 25.99 19.96 25.99 21.51 25.99C23.97 25.99 26.42 25.98 28.88 25.99C29.56 25.99 29.99 26.41 29.98 27C29.97 27.57 29.55 27.95 28.91 27.98C28.76 27.99 28.62 27.98 28.47 27.98C26.53 27.98 24.6 27.98 22.23 27.98C20.29 27.91 17.91 28.11 15.54 27.87C13.73 27.68 11.99 27.21 10.32 26.5C10.07 26.4 9.98001 26.27 9.98001 26C9.99001 21.92 9.99001 17.84 9.98001 13.76C9.98001 13.5 10.09 13.35 10.27 13.19C11.95 11.72 13.88 10.77 16.05 10.28C16.38 10.21 16.53 10.3 16.67 10.6C17.13 11.57 17.66 12.52 18.1 13.51C18.31 13.93 18.55 14.02 18.97 14.02ZM18.53 8.65C18.72 8.52 18.9 8.37 19.1 8.27C20.03 7.81 20.21 7.9 20.44 8.88C20.68 9.93 21 10.95 21.41 11.94C21.34 11.97 21.32 11.99 21.31 11.99C19.68 12.09 19.68 12.09 18.95 10.64C18.76 10.25 18.6 9.84 18.36 9.48C18.11 9.11 18.22 8.87 18.53 8.65ZM22.38 6.04C24.14 6.2 25.88 6.44 27.5 7.22C27.92 7.42 28.01 7.65 27.94 8.09C27.77 9.25 27.41 10.34 26.87 11.38C26.62 11.86 26.33 12.13 25.77 12.02C25.55 11.98 25.31 12.01 25.09 12.01C23.55 12.01 23.55 12.01 23.02 10.57C22.53 9.24 22.21 7.87 22.08 6.46C22.05 6.21 22 6 22.38 6.04ZM15.23 8.42C12.92 9 10.84 10.04 9.04001 11.61C8.91001 11.72 8.80001 11.85 8.66001 11.93C8.27001 12.16 8.01001 12.01 8.01001 11.56C8.01001 10.5 8.01001 9.44 8.01001 8.38C8.00001 8.16 8.00001 8 8.32001 8C10.99 8.01 13.67 8.01 16.34 8.01C16.35 8.07 16.35 8.12 16.36 8.18C15.98 8.26 15.6 8.33 15.23 8.42ZM8.01001 28.76C8.01001 27.93 8.25001 27.77 9.03001 28.12C10.45 28.77 11.92 29.27 13.45 29.57C14.06 29.69 14.68 29.78 15.39 29.91C14.38 31.17 13.4 32.38 12.44 33.61C9.07001 37.94 9.20001 43.87 12.76 48.03C13.36 48.74 14.06 49.35 14.92 49.99C12.97 49.99 11.17 49.99 9.37001 49.99C8.00001 49.99 8.00001 49.99 8.00001 48.61C8.01001 41.99 8.01001 35.37 8.01001 28.76ZM14.11 34.73C15.25 33.27 16.43 31.84 17.57 30.39C17.8 30.1 18.04 29.99 18.41 30C19.95 30.02 21.49 30.01 23.03 30.01C24.57 30.01 26.11 30.01 27.65 30.01C27.93 30.01 28.15 30.03 28.35 30.29C29.62 31.91 30.98 33.47 32.17 35.14C34.32 38.17 34.66 41.46 32.99 44.8C31.31 48.15 28.48 49.89 24.73 49.99C22.99 50.04 21.23 50.19 19.5 49.81C12.56 48.28 9.72001 40.32 14.11 34.73ZM35.31 44.48C36.65 40.6 36.06 36.98 33.61 33.69C32.67 32.42 31.65 31.21 30.65 29.98C30.45 29.74 30.43 29.63 30.71 29.42C31.77 28.62 32.21 27.56 31.87 26.25C31.8 25.97 31.87 25.87 32.13 25.75C33.98 24.87 34.53 23 33.42 21.29C33.26 21.05 33.29 20.93 33.43 20.71C34.18 19.59 34.19 18.45 33.44 17.33C33.27 17.08 33.27 16.95 33.44 16.7C34.12 15.7 34.19 14.64 33.6 13.58C33.02 12.53 32.08 12.02 30.88 12.02C30.21 12.02 29.55 12.02 28.89 12.02C28.77 11.82 28.93 11.69 28.99 11.56C29.39 10.68 29.75 9.78 29.8 8.83C29.85 8.06 30.18 8.01 30.8 8.02C33.01 8.05 35.21 8.04 37.42 8.02C37.82 8.02 37.99 8.07 37.99 8.54C37.99 22.18 38 35.83 38 49.49C38 49.82 37.99 50.01 37.56 50C35.46 49.97 33.36 49.99 31.08 49.99C33.11 48.5 34.54 46.72 35.31 44.48ZM2.58001 14C4.01001 14.03 4.01001 14.01 4.01001 15.46C4.01001 16.96 4.01001 18.46 4.01001 19.96C4.01001 21.81 4.00001 23.67 4.02001 25.52C4.03001 25.94 3.89001 26.02 3.50001 26.02C2.01001 26 2.01001 26.02 2.01001 24.56C2.01001 21.23 2.02001 17.9 2.00001 14.57C1.99001 14.08 2.13001 13.99 2.58001 14ZM39.44 59.99C28.1 59.99 16.76 59.98 5.41001 60.01C4.87001 60.01 4.70001 59.83 4.62001 59.36C4.55001 58.92 4.41001 58.48 4.30001 58.02C16.77 58.02 29.19 58.02 41.67 58.02C41.37 59.99 41.37 59.99 39.44 59.99ZM43.99 54.72C43.99 55.65 43.64 55.99 42.7 55.99C36.12 55.99 29.54 55.99 22.96 55.99C16.44 55.99 9.92001 55.99 3.40001 55.99C2.30001 55.99 2.00001 55.69 2.00001 54.58C2.00001 45.92 2.00001 37.25 1.99001 28.59C1.99001 28.09 2.12001 27.97 2.60001 27.99C3.54001 28.03 4.48001 28.03 5.41001 27.99C5.91001 27.97 6.01001 28.13 6.01001 28.6C5.99001 36.14 6.01001 43.68 5.98001 51.21C5.98001 51.87 6.16001 52 6.79001 52C18.97 51.98 31.16 51.99 43.34 51.97C43.91 51.97 44.04 52.12 44 52.65C43.96 53.34 44 54.03 43.99 54.72ZM56 49.43C56 49.89 55.9 50 55.43 50C50.47 49.98 45.52 49.98 40.56 50C40.09 50 39.98 49.89 39.99 49.42C40 42.62 40 35.81 40 29C40 22.21 40.01 15.42 39.99 8.64C39.99 8.12 40.11 8 40.63 8C45.57 8.02 50.5 8.02 55.44 8C55.9 8 56 8.11 56 8.57C55.99 22.19 55.99 35.81 56 49.43ZM59.36 50.01C57.99 49.97 57.99 50 57.99 48.62C57.99 35.31 57.99 22.01 57.98 8.7C57.98 8.13 58.11 7.98 58.68 8C59.99 8.05 59.99 8.01 59.99 9.33C59.99 15.91 59.99 22.49 59.99 29.07C59.99 35.84 59.98 42.6 60 49.37C60 49.88 59.89 50.02 59.36 50.01Z" fill="#3247D5"/>
<path d="M21.48 43.52C21.94 43.76 22.02 44.03 22.01 44.48C21.99 46.06 22 46.06 23.62 46C23.91 45.99 24.02 45.94 24.01 45.62C23.99 45.1 23.82 44.41 24.08 44.11C24.38 43.76 25.09 43.99 25.62 44C26 44.01 26.01 43.84 26.01 43.56C25.99 42.71 26.01 41.85 26 41C25.97 39.37 24.79 38.12 23.16 38C22.95 37.98 22.75 37.98 22.56 37.88C22.17 37.67 21.99 37.34 22.01 36.91C22.03 36.61 21.85 36.22 22.1 36.02C22.7 35.56 23.91 36.19 24 36.95C24.04 37.29 23.83 37.76 24.11 37.94C24.36 38.1 24.79 37.99 25.15 37.99C25.36 37.99 25.57 37.99 25.77 37.99C25.92 37.99 25.97 37.94 26.01 37.78C26.25 36.67 25.75 35.18 24.74 34.6C24.09 34.22 23.86 33.81 24.01 33.25C24 32 24 32 22.89 32C22.72 32 22.56 32.02 22.39 32C22.1 31.97 21.99 32.06 22 32.37C22.02 32.89 22.19 33.58 21.93 33.88C21.63 34.23 20.92 34 20.39 33.99C20.01 33.98 20 34.15 20 34.43C20.01 35.28 19.99 36.14 20.01 36.99C20.04 38.62 21.22 39.87 22.85 39.99C23.06 40.01 23.26 40.01 23.45 40.11C23.84 40.32 24.02 40.65 24 41.08C23.98 41.38 24.16 41.77 23.91 41.97C23.31 42.43 22.1 41.8 22.01 41.04C21.97 40.7 22.18 40.23 21.9 40.05C21.65 39.88 21.21 40 20.86 40C20.65 40 20.44 40 20.24 40C20.09 40 20.04 40.05 20 40.21C19.73 41.42 20.35 42.93 21.48 43.52Z" fill="#3247D5"/>
</svg>
