<svg width="42" height="62" viewBox="0 0 42 62" fill="none" xmlns="http://www.w3.org/2000/svg">
<path d="M41.99 8.33C41.99 7.35 41.66 7.01 40.69 7.01C37.73 7.01 34.78 7.01 31.82 7.01C31.01 7.01 31.01 7.01 31 6.21C30.99 5.39 30.63 5.02 29.83 5.02C29.05 5 28.28 4.99 27.51 5.02C27.08 5.04 26.87 4.94 26.76 4.47C26.43 3.06 25.62 1.94 24.43 1.11C20.99 -1.29 16.31 0.420002 15.22 4.49C15.11 4.92 14.95 5.05 14.52 5.02C13.84 4.98 13.15 5.01 12.46 5.01C11.26 5.01 10.98 5.27 11 6.47C11.01 6.9 10.9 7.02 10.46 7.02C7.46001 7 4.44001 7.01 1.42001 7.01C0.31001 7.01 0.0100098 7.3 0.0100098 8.41C0.0100098 25.8 0.0100098 43.18 0.0100098 60.57C0.0100098 61.71 0.30001 61.99 1.46001 61.99C14.5 61.99 27.53 61.99 40.57 61.99C41.71 61.99 42 61.7 42 60.55C42 51.89 42 43.23 42 34.56C41.99 25.82 41.99 17.07 41.99 8.33ZM20.75 2.02C22.66 1.92 24.32 3.11 24.82 5C22.26 5 19.74 5 17.22 5C17.44 3.46 19.05 2.11 20.75 2.02ZM12.99 7.5C12.98 7.07 13.13 7 13.52 7C18.52 7.01 23.51 7.01 28.51 7C28.94 7 29.01 7.14 29.01 7.52C28.99 9.19 28.98 10.85 29.01 12.52C29.02 12.95 28.87 13.02 28.49 13.02C26.01 13 23.53 13.01 21.06 13.01C18.56 13.01 16.06 13 13.56 13.02C13.15 13.02 12.99 12.97 13 12.5C13.02 10.83 13.02 9.16 12.99 7.5ZM12.13 15.01C18.04 15.01 23.96 15.01 29.87 15C30.65 15 31.03 14.6 30.98 13.76C30.94 13.14 31.1 12.96 31.74 12.99C32.97 13.05 34.2 13.03 35.42 13C35.88 12.99 36 13.1 36 13.57C35.98 18.63 35.99 23.69 35.99 28.75C35.99 37.62 35.98 46.49 36 55.36C36 55.88 35.89 56 35.36 56C25.78 55.98 16.2 55.98 6.62001 56C6.10001 56 5.98001 55.88 5.98001 55.36C6.00001 48.4 5.99001 41.45 5.99001 34.49C5.99001 27.53 6.00001 20.58 5.98001 13.62C5.98001 13.1 6.10001 12.96 6.62001 12.98C7.93001 13.02 9.24001 13.01 10.56 12.99C10.92 12.98 11.03 13.09 11 13.44C10.98 13.81 10.93 14.19 11.15 14.53C11.39 14.88 11.72 15.01 12.13 15.01ZM40 59.49C40 59.9 39.9 60 39.49 60C27.16 59.99 14.84 59.99 2.51001 60C2.03001 60 2.00001 59.82 2.00001 59.43C2.01001 51.1 2.01001 42.77 2.01001 34.45C2.01001 26.18 2.01001 17.92 2.00001 9.65C2.00001 9.16 2.08001 8.99 2.62001 8.99C5.24001 9.02 7.87001 9.01 10.49 9C10.87 9 11.02 9.06 11.02 9.49C11.01 11 11.03 11 9.52001 11C8.10001 11 6.69001 11 5.27001 11C4.36001 11 4.01001 11.34 4.01001 12.23C4.01001 27.07 4.01001 41.92 4.01001 56.76C4.01001 57.61 4.37001 57.97 5.23001 57.97C15.75 57.97 26.26 57.97 36.78 57.97C37.66 57.97 38 57.61 38 56.7C38 41.88 38 27.05 38 12.23C38 11.34 37.65 11 36.74 10.99C34.99 10.99 33.24 10.97 31.49 11C31.07 11.01 30.98 10.87 30.99 10.48C31 8.99 30.98 8.99 32.45 8.99C34.78 8.99 37.11 9 39.45 8.98C39.85 8.98 40.02 9.03 40.02 9.5C39.99 26.17 39.99 42.83 40 59.49Z" fill="#3247D5"/>
<path d="M8.26 18.01C7.35 18.01 7 18.35 7 19.24C7 22.07 7 24.9 7 27.73C7 28.66 7.34 29 8.28 29C11.09 29 13.9 29 16.71 29C17.65 29 17.99 28.66 18 27.73C18 26.07 18.12 24.39 17.97 22.74C17.82 21.06 18.32 19.84 19.62 18.76C20.84 17.75 20.76 17.67 19.59 16.56C19.34 16.32 19.21 16.36 19 16.59C18.59 17.03 18.15 17.45 17.72 17.87C17.62 17.97 17.55 18.11 17.37 18.09C15.75 17.89 14.13 18.08 12.82 18C11.09 18.01 9.68 18 8.26 18.01ZM15.59 20C14.4 21.19 13.3 22.28 12.21 23.38C12.06 23.53 11.94 23.56 11.81 23.39C11.78 23.36 11.75 23.33 11.72 23.3C11.39 22.99 11.05 22.42 10.73 22.43C10.29 22.43 10.02 23.06 9.64 23.37C9.35 23.6 9.31 23.77 9.62 24.05C10.16 24.54 10.65 25.08 11.17 25.59C11.76 26.17 12.25 26.17 12.85 25.59C13.76 24.7 14.65 23.8 15.54 22.89C15.66 22.76 15.75 22.6 15.85 22.45C15.9 22.49 15.95 22.53 16.01 22.56C16.01 23.95 16 25.33 16.02 26.72C16.02 27.01 15.88 27.01 15.67 27.01C13.57 27.01 11.46 27 9.36 27.01C9.09 27.01 9.01 26.93 9.01 26.66C9.02 24.56 9.02 22.45 9.01 20.35C9.01 20.14 9.01 20 9.29 20C11.34 20.01 13.39 20 15.59 20Z" fill="#3247D5"/>
<path d="M20.1901 29.16C19.2701 28.32 19.3101 28.3 18.4101 29.18C17.9601 29.61 17.6301 30.07 16.8001 30.04C13.9301 29.94 11.0601 30 8.19007 30C7.38007 30 7.02007 30.37 7.02007 31.19C7.01007 32.63 7.02007 34.06 7.02007 35.5C7.02007 36.94 7.02007 38.37 7.02007 39.81C7.02007 40.63 7.39007 41 8.20007 41C11.0701 41.01 13.9401 41.01 16.8101 41C17.6501 41 18.0101 40.63 18.0101 39.77C18.0201 38.36 18.0101 36.94 18.0101 35.53C18.0101 34.49 17.7501 33.34 18.1201 32.45C18.4801 31.58 19.4501 30.94 20.2001 30.26C20.6701 29.83 20.6501 29.58 20.1901 29.16ZM15.7001 39C13.5801 39 11.4501 38.99 9.33007 39C9.03007 39 9.00007 38.87 9.00007 38.63C9.01007 36.55 9.01007 34.47 8.99007 32.38C8.99007 32.01 9.15007 31.99 9.43007 31.99C11.4301 32 13.4301 31.99 15.6101 31.99C14.4101 33.18 13.3201 34.25 12.2401 35.34C12.0301 35.55 11.9201 35.49 11.7401 35.31C11.4001 34.98 11.0601 34.33 10.7101 34.4C10.2801 34.48 9.96007 35.07 9.57007 35.4C9.30007 35.63 9.36007 35.78 9.59007 35.99C10.1201 36.49 10.6201 37.02 11.1401 37.53C11.7601 38.14 12.2501 38.15 12.8601 37.54C13.8801 36.53 14.8801 35.51 16.0001 34.38C16.0001 35.92 16.0001 37.32 16.0001 38.72C16.0101 38.98 15.8901 39 15.7001 39Z" fill="#3247D5"/>
<path d="M16.85 42C13.96 41.99 11.0701 41.99 8.17005 42C7.36005 42 7.00005 42.37 7.00005 43.19C6.99005 44.63 7.00005 46.06 7.00005 47.5C7.00005 48.96 6.99005 50.41 7.00005 51.87C7.01005 52.61 7.38005 52.99 8.11005 52.99C11.0201 53 13.9401 53 16.85 52.99C17.6201 52.99 17.99 52.61 17.99 51.83C18 48.94 18 46.05 17.99 43.16C18 42.38 17.6201 42 16.85 42ZM15.56 51C13.52 50.98 11.4801 50.98 9.44005 51C9.09005 51 8.99005 50.91 8.99005 50.55C9.01005 48.51 9.01005 46.47 8.99005 44.43C8.99005 44.08 9.08005 43.98 9.44005 43.98C10.4801 44 11.52 43.99 12.56 43.99C13.56 43.99 14.56 44.01 15.56 43.98C15.91 43.97 16.01 44.07 16.01 44.43C15.99 46.47 15.99 48.51 16.01 50.55C16.01 50.91 15.92 51 15.56 51Z" fill="#3247D5"/>
<path d="M33.52 45.98C31.35 46 29.19 45.99 27.02 45.99C25.17 45.99 23.31 45.99 21.46 45.99C19.98 45.99 20 45.99 19.98 47.46C19.98 47.9 20.1 48 20.53 48C24.51 47.98 28.48 47.99 32.46 47.99C32.95 47.99 33.6 48.2 33.9 47.9C34.2 47.6 33.94 46.95 34 46.46C34.05 46.07 33.91 45.98 33.52 45.98Z" fill="#3247D5"/>
<path d="M24.44 21.01C25.94 20.99 27.44 21 28.94 21C30.13 21 31.31 21 32.5 21C34.02 21 34 21 34.01 19.5C34.01 19.09 33.91 18.99 33.5 18.99C30.83 19.01 28.16 19 25.5 19C23.96 19 23.97 19 23.99 20.56C23.99 20.92 24.08 21.02 24.44 21.01Z" fill="#3247D5"/>
<path d="M28.94 33C30.13 33 31.31 33 32.5 33C34.01 33 33.99 33 34 31.49C34 31.06 33.87 30.99 33.48 30.99C30.82 31.01 28.15 31 25.49 31C23.98 31 24 31 23.99 32.51C23.99 32.94 24.12 33.01 24.51 33.01C25.99 32.99 27.47 33 28.94 33Z" fill="#3247D5"/>
<path d="M24.47 45C25.97 44.98 27.47 44.99 28.97 44.99C30.16 44.99 31.34 44.99 32.53 44.99C34 44.99 33.98 44.99 34.01 43.52C34.02 43.07 33.89 42.98 33.46 42.98C30.82 43 28.17 42.99 25.53 42.99C23.98 42.99 23.99 42.99 23.99 44.53C23.99 44.93 24.1 45.01 24.47 45Z" fill="#3247D5"/>
<path d="M26.55 22C24.88 22.02 23.22 22.01 21.55 22.01C19.95 22.01 19.97 22.01 19.99 23.58C19.99 23.95 20.12 24.02 20.45 24.01C21.45 23.99 22.45 24 23.45 24C24.12 24 24.78 24 25.45 24C27.05 24 27.03 24 27.01 22.43C27 22.06 26.88 21.99 26.55 22Z" fill="#3247D5"/>
<path d="M33.56 24.99C32.56 25.01 31.56 25 30.56 25C29.87 25 29.19 25 28.5 25C26.98 25 27 25 26.99 26.5C26.99 26.91 27.09 27.02 27.5 27.01C29.17 26.99 30.83 27 32.5 27C34.04 27 34.03 27 34.01 25.44C34 25.09 33.91 24.99 33.56 24.99Z" fill="#3247D5"/>
<path d="M27.01 34.44C27.01 34.09 26.91 33.99 26.56 33.99C25.56 34.01 24.56 34 23.56 34C22.87 34 22.19 34 21.5 34C19.98 34 20 34 19.99 35.5C19.99 35.91 20.1 36.02 20.5 36.01C22.17 35.99 23.83 36 25.5 36C27.04 36 27.03 36 27.01 34.44Z" fill="#3247D5"/>
<path d="M33.59 22C32.57 22.02 31.55 22 30.53 22C28.89 22 28.9 22 28.99 23.65C29 23.92 29.06 24.01 29.34 24C30.05 23.98 30.76 23.99 31.46 23.99C31.79 23.99 32.13 23.99 32.46 23.99C34.05 23.99 34.03 23.99 34 22.4C34 22.09 33.92 21.99 33.59 22Z" fill="#3247D5"/>
<path d="M19.99 26.63C20 26.93 20.07 27.02 20.37 27.01C21.08 26.99 21.79 27 22.5 27C22.83 27 23.17 27 23.5 27C25.04 27 25.03 27 25.01 25.44C25.01 25.09 24.92 24.98 24.56 24.99C23.56 25.01 22.56 25 21.56 25C19.92 25 19.93 25 19.99 26.63Z" fill="#3247D5"/>
<path d="M34 34.43C34 34.08 33.9 33.98 33.55 33.99C32.55 34.01 31.55 34 30.55 34C28.91 34 28.92 34 28.98 35.63C28.99 35.93 29.07 36.02 29.37 36.01C30.06 35.99 30.74 36 31.43 36C31.78 36 32.14 36 32.49 36C34.04 36 34.02 36 34 34.43Z" fill="#3247D5"/>
<path d="M20 20.02C20 21 20 21 20.95 21C22 21 22 21 22 19.99C22 19 22 19 21.05 19C20 19 20 19 20 20.02Z" fill="#3247D5"/>
<path d="M22 32.04C22 31 22 31 20.98 31C20 31 20 31 20 31.95C20 33 20 33 21.02 33C22 33 22 33 22 32.04Z" fill="#3247D5"/>
<path d="M20 44.06C20 45 20 45 20.94 45C22 45 22 45 22 43.94C22 43 22 43 21.06 43C20 42.99 20 42.99 20 44.06Z" fill="#3247D5"/>
</svg>
