<svg width="64" height="64" viewBox="0 0 64 64" fill="none" xmlns="http://www.w3.org/2000/svg">
<path d="M63.37 9.16C61.91 8.16 60.46 7.14 59 6.14C56.36 4.33 53.74 2.48 51.08 0.68C50.53 0.31 49.94 0.03 49.25 0.07C49.25 0.08 49.26 0.1 49.26 0.11C49.03 0.15 48.8 0.18 48.61 0C48.53 0 48.44 0 48.36 0C48.17 0.18 47.94 0.15 47.71 0.11C47.72 0.1 47.72 0.08 47.72 0.06C47.71 0.06 47.69 0.06 47.68 0.06C46.96 0.02 46.35 0.32 45.78 0.72C41.96 3.4 38.13 6.05 34.3 8.7C33.92 8.96 33.54 9.09 33.08 9.09C30.6 9.08 28.13 9.09 25.65 9.08C24.96 9.08 24.92 9.03 24.92 8.33C24.91 6.65 24.92 4.96 24.92 3.28C24.91 1.47 23.99 0.35 22.25 0.02C15.67 0.02 9.09001 0.02 2.51001 0.02C1.11001 0.22 0.31001 1.04 0.0100098 2.39C0.0100098 6.26 0.0100098 10.14 0.0100098 14.01C0.11001 14.63 0.25001 15.22 0.74001 15.68C1.40001 16.31 2.16001 16.69 3.08001 16.69C4.51001 16.7 5.95001 16.7 7.38001 16.69C7.88001 16.68 8.09001 16.86 8.08001 17.38C8.06001 19.54 8.07001 21.7 8.08001 23.87C8.08001 24.36 7.94001 24.61 7.41001 24.59C6.83001 24.57 6.25001 24.58 5.66001 24.59C2.59001 24.59 0.70001 26.07 0.0100098 29.02C0.0100098 39.27 0.0100098 49.51 0.0100098 59.76C0.18001 59.83 0.13001 60.01 0.17001 60.14C0.74001 62.05 1.98001 63.29 3.89001 63.85C4.02001 63.89 4.19001 63.83 4.26001 64.01C9.63001 64.01 15.01 64.01 20.38 64.01C20.98 63.89 21.61 63.87 22.16 63.53C23.9 62.46 24.92 60.96 24.93 58.88C24.95 55.47 24.93 52.06 24.93 48.64C24.93 47.69 24.94 47.69 25.85 47.69C28.72 47.69 31.59 47.69 34.46 47.69C35.2 47.69 35.21 47.69 35.1 48.4C34.17 54.09 36.94 59.53 41.54 62.25C43.23 63.25 45.02 63.91 46.99 64C47.95 64 48.91 64 49.86 64C50.57 63.87 51.3 63.91 52.01 63.71C58.68 61.87 63.19 55.4 61.84 47.98C61.33 45.18 59.99 42.77 57.93 40.8C55.83 38.8 53.33 37.54 50.42 37.14C49.71 37.04 49.67 36.97 49.67 36.26C49.66 34.2 49.67 32.14 49.67 30.08C49.67 29.07 49.68 29.06 50.67 29.06C54.79 29.06 58.91 29.06 63.03 29.06C63.36 29.06 63.7 29.13 63.99 28.89C63.99 27.68 63.99 26.47 63.99 25.27C63.67 24.27 63.14 23.43 62.12 23.01C61.89 22.91 61.93 22.72 61.93 22.54C61.93 20.01 61.94 17.47 61.92 14.94C61.92 14.58 62.02 14.46 62.38 14.49C62.92 14.53 63.46 14.52 63.99 14.54C63.99 12.96 63.99 11.37 63.99 9.79C63.86 9.48 63.61 9.32 63.37 9.16ZM3.48001 14.46C2.39001 14.46 2.07001 14.14 2.07001 13.04C2.07001 9.85 2.07001 6.67 2.07001 3.48C2.07001 2.38 2.38001 2.08 3.48001 2.08C6.46001 2.08 9.43001 2.08 12.41 2.08C15.37 2.08 18.32 2.08 21.28 2.08C22.41 2.08 22.71 2.39 22.71 3.54C22.71 6.7 22.71 9.87 22.71 13.03C22.71 14.12 22.37 14.46 21.3 14.46C19.2 14.46 17.09 14.47 14.99 14.45C14.55 14.45 14.42 14.55 14.44 15C14.48 15.94 14.45 16.87 14.45 17.81C14.45 18.08 14.49 18.37 14.17 18.51C13.85 18.65 13.67 18.42 13.48 18.23C12.35 17.1 11.21 15.97 10.09 14.82C9.84001 14.56 9.58001 14.46 9.22001 14.46C7.31001 14.47 5.40001 14.46 3.48001 14.46ZM2.08001 30.01C2.13001 28.11 3.40001 26.86 5.29001 26.86C10.04 26.85 14.78 26.85 19.53 26.86C21.37 26.86 22.67 28.14 22.72 29.98C22.74 30.81 22.7 31.65 22.73 32.48C22.75 32.91 22.62 33.04 22.18 33.04C18.91 33.02 15.64 33.03 12.38 33.03C9.13001 33.03 5.88001 33.02 2.64001 33.04C2.16001 33.04 2.05001 32.91 2.07001 32.45C2.10001 31.63 2.06001 30.82 2.08001 30.01ZM22.72 58.7C22.69 60.61 21.4 61.91 19.48 61.91C14.75 61.92 10.03 61.92 5.30001 61.91C3.37001 61.9 2.12001 60.64 2.08001 58.69C2.06001 57.88 2.11001 57.06 2.07001 56.25C2.05001 55.8 2.20001 55.71 2.62001 55.71C5.89001 55.73 9.16001 55.72 12.43 55.72C15.68 55.72 18.93 55.73 22.18 55.71C22.6 55.71 22.76 55.8 22.74 56.25C22.69 57.08 22.73 57.89 22.72 58.7ZM22.73 53.07C22.73 53.52 22.65 53.67 22.16 53.67C15.64 53.65 9.13001 53.65 2.61001 53.67C2.17001 53.67 2.06001 53.55 2.06001 53.11C2.07001 47.28 2.08001 41.45 2.06001 35.62C2.06001 35.15 2.21001 35.09 2.63001 35.09C5.90001 35.11 9.17001 35.1 12.44 35.1C15.67 35.1 18.89 35.11 22.12 35.09C22.6 35.09 22.74 35.2 22.74 35.7C22.71 41.49 22.72 47.28 22.73 53.07ZM35.56 45.41C32.19 45.39 28.82 45.39 25.44 45.41C24.91 45.41 24.75 45.31 24.75 44.74C24.78 39.99 24.67 35.24 24.8 30.5C24.89 27.19 22.5 24.6 18.99 24.74C16.29 24.85 13.58 24.75 10.87 24.77C10.44 24.77 10.31 24.67 10.32 24.23C10.35 22.36 10.33 20.48 10.33 18.61C10.33 18.46 10.27 18.28 10.45 18.08C11.01 18.65 11.55 19.21 12.1 19.76C12.99 20.64 14.01 20.89 14.99 20.44C16.05 19.96 16.52 19.1 16.5 17.94C16.49 16.51 16.5 16.51 17.95 16.51C19.14 16.51 20.32 16.52 21.51 16.51C23.43 16.5 24.71 15.22 24.75 13.31C24.76 12.67 24.47 11.8 24.87 11.47C25.26 11.15 26.1 11.37 26.74 11.37C28.66 11.37 30.57 11.38 32.49 11.36C32.89 11.36 33.03 11.45 33.01 11.87C32.97 12.53 33.04 13.2 32.99 13.87C32.95 14.39 33.16 14.54 33.62 14.47C33.68 14.46 33.74 14.47 33.81 14.47C35.09 14.47 35.09 14.47 35.09 15.78C35.09 17.99 35.08 20.19 35.1 22.4C35.1 22.75 35.01 22.94 34.68 23.12C33.59 23.69 33.05 24.63 33.02 25.85C33 26.68 33.05 27.52 33 28.35C32.97 28.85 33.15 28.92 33.6 28.92C38.01 28.9 42.43 28.92 46.84 28.9C47.35 28.9 47.5 29.01 47.49 29.54C47.46 31.93 47.47 34.33 47.48 36.72C47.48 37.09 47.42 37.24 46.99 37.29C42.12 37.95 38.57 40.49 36.38 44.89C36.19 45.27 35.99 45.41 35.56 45.41ZM39.76 43.36C41.13 41.75 42.68 40.66 44.65 39.92C44.07 41 43.63 41.99 43.35 43.04C43.28 43.31 43.12 43.37 42.85 43.37C41.88 43.35 40.9 43.36 39.76 43.36ZM42.71 45.79C42.5 46.89 42.38 48.01 42.37 49.13C42.37 49.47 42.23 49.54 41.92 49.54C41.19 49.52 40.47 49.53 39.74 49.53C39.03 49.53 38.33 49.51 37.62 49.54C37.26 49.55 37.2 49.42 37.24 49.11C37.41 47.93 37.74 46.81 38.24 45.73C38.35 45.5 38.48 45.39 38.76 45.4C39.96 45.42 41.17 45.42 42.37 45.4C42.7 45.39 42.77 45.5 42.71 45.79ZM38.77 55.74C38.5 55.74 38.36 55.66 38.25 55.42C37.75 54.34 37.42 53.21 37.25 52.03C37.21 51.73 37.25 51.58 37.62 51.6C38.35 51.63 39.08 51.61 39.8 51.61C40.49 51.61 41.17 51.63 41.86 51.6C42.21 51.59 42.38 51.64 42.38 52.06C42.39 53.16 42.51 54.26 42.72 55.34C42.77 55.63 42.73 55.74 42.4 55.74C41.19 55.73 39.98 55.73 38.77 55.74ZM39.78 57.79C40.94 57.79 41.97 57.79 43 57.79C43.18 57.79 43.27 57.87 43.31 58.02C43.61 59.07 44.05 60.06 44.62 61.21C42.63 60.44 41.11 59.38 39.78 57.79ZM51.46 58.28C51.05 59.32 50.63 60.36 49.85 61.2C48.96 62.15 48.06 62.16 47.18 61.22C46.36 60.34 45.92 59.24 45.51 58.13C45.39 57.8 45.61 57.8 45.83 57.8C46.74 57.8 47.66 57.8 48.57 57.8C49.42 57.8 50.27 57.82 51.12 57.79C51.58 57.77 51.6 57.92 51.46 58.28ZM51.74 55.74C49.57 55.72 47.41 55.73 45.24 55.74C45 55.74 44.88 55.71 44.82 55.43C44.59 54.26 44.5 53.08 44.4 51.9C44.37 51.54 44.61 51.62 44.8 51.62C46.05 51.62 47.3 51.62 48.55 51.62C49.76 51.62 50.97 51.63 52.17 51.61C52.53 51.6 52.63 51.71 52.6 52.06C52.51 53.16 52.4 54.26 52.22 55.34C52.17 55.63 52.06 55.75 51.74 55.74ZM52.33 61.21C52.95 60.21 53.32 59.26 53.61 58.27C53.71 57.93 53.85 57.77 54.25 57.78C55.2 57.81 56.15 57.79 57.25 57.79C55.87 59.4 54.33 60.52 52.33 61.21ZM59.76 51.99C59.61 53.22 59.25 54.38 58.73 55.49C58.65 55.66 58.55 55.74 58.35 55.74C57 55.73 55.65 55.74 54.26 55.74C54.47 54.46 54.63 53.27 54.64 52.06C54.64 51.71 54.76 51.6 55.11 51.61C56.54 51.63 57.98 51.63 59.41 51.61C59.72 51.6 59.8 51.68 59.76 51.99ZM58.29 45.4C58.51 45.4 58.64 45.47 58.73 45.66C59.25 46.78 59.62 47.94 59.76 49.17C59.8 49.51 59.66 49.55 59.38 49.54C58.67 49.53 57.96 49.54 57.26 49.54C56.57 49.54 55.89 49.52 55.2 49.55C54.82 49.56 54.63 49.49 54.63 49.05C54.63 47.94 54.49 46.85 54.3 45.76C54.25 45.46 54.34 45.4 54.6 45.4C55.84 45.4 57.07 45.4 58.29 45.4ZM57.21 43.36C56.1 43.36 55.09 43.34 54.08 43.37C53.71 43.38 53.7 43.12 53.63 42.9C53.32 41.91 52.95 40.95 52.41 40.06C53.46 40.06 56.01 41.79 57.21 43.36ZM52.23 45.83C52.39 46.9 52.51 47.97 52.6 49.05C52.63 49.43 52.55 49.55 52.14 49.54C50.93 49.51 49.73 49.53 48.52 49.53C47.29 49.53 46.06 49.52 44.84 49.54C44.49 49.54 44.38 49.46 44.41 49.09C44.5 48.03 44.6 46.98 44.77 45.93C44.83 45.55 44.96 45.39 45.4 45.39C47.48 45.42 49.56 45.41 51.64 45.39C51.98 45.39 52.17 45.45 52.23 45.83ZM49.82 39.92C50.71 40.88 51.19 42.07 51.59 43.33C49.52 43.33 47.5 43.33 45.42 43.33C45.82 42.06 46.3 40.87 47.2 39.91C48.07 38.99 48.96 38.99 49.82 39.92ZM61.93 26.58C61.86 27 61.56 26.84 61.36 26.84C58.41 26.85 55.45 26.85 52.5 26.85C51.17 26.85 49.84 26.85 48.51 26.85C44.24 26.85 39.98 26.84 35.72 26.86C35.22 26.86 35.1 26.72 35.11 26.24C35.14 25.06 35.42 24.76 36.58 24.76C44.53 24.76 52.47 24.76 60.42 24.76C61.66 24.77 62.14 25.35 61.93 26.58ZM39.24 22.22C39.25 22.57 39.2 22.73 38.78 22.74C37.15 22.76 37.15 22.78 37.15 21.15C37.15 19.11 37.16 17.07 37.14 15.04C37.14 14.63 37.21 14.46 37.67 14.46C39.23 14.47 39.23 14.45 39.23 15.99C39.23 16.86 39.23 17.74 39.23 18.61C39.23 19.8 39.22 21.01 39.24 22.22ZM41.28 18.61C41.28 17.4 41.29 16.19 41.27 14.99C41.26 14.6 41.34 14.44 41.78 14.45C42.84 14.48 43.9 14.48 44.97 14.45C45.33 14.44 45.42 14.55 45.42 14.9C45.41 17.36 45.41 19.81 45.42 22.27C45.42 22.64 45.3 22.72 44.95 22.72C43.89 22.7 42.83 22.7 41.76 22.72C41.37 22.73 41.26 22.61 41.27 22.23C41.29 21.03 41.28 19.82 41.28 18.61ZM49.54 22.19C49.55 22.57 49.49 22.74 49.04 22.74C47.48 22.74 47.48 22.76 47.48 21.2C47.48 19.14 47.49 17.08 47.47 15.02C47.47 14.61 47.52 14.45 48 14.45C49.53 14.47 49.53 14.45 49.53 16.01C49.53 16.86 49.53 17.72 49.53 18.57C49.53 19.77 49.52 20.98 49.54 22.19ZM55.74 22.19C55.75 22.57 55.69 22.75 55.24 22.73C54.18 22.69 53.12 22.71 52.06 22.73C51.72 22.74 51.59 22.65 51.6 22.29C51.62 19.81 51.62 17.34 51.6 14.86C51.6 14.51 51.72 14.45 52.03 14.46C53.11 14.48 54.19 14.49 55.27 14.46C55.68 14.45 55.74 14.6 55.74 14.96C55.72 16.19 55.73 17.41 55.73 18.64C55.74 19.82 55.72 21.01 55.74 22.19ZM57.78 14.95C57.77 14.57 57.87 14.46 58.26 14.45C59.86 14.43 59.86 14.42 59.86 15.99C59.86 18.05 59.85 20.1 59.87 22.16C59.87 22.57 59.81 22.73 59.34 22.73C57.79 22.72 57.79 22.74 57.79 21.18C57.79 20.31 57.79 19.43 57.79 18.56C57.79 17.36 57.81 16.16 57.78 14.95ZM61.91 12.25C61.79 12.51 61.54 12.38 61.36 12.38C57.07 12.39 52.79 12.39 48.5 12.39C44.23 12.39 39.97 12.38 35.7 12.4C35.21 12.4 35.11 12.28 35.08 11.79C35.04 11.11 35.28 10.72 35.84 10.33C39.55 7.8 43.23 5.23 46.92 2.68C48.09 1.87 48.93 1.87 50.12 2.7C53.88 5.3 57.64 7.9 61.4 10.5C61.84 10.81 62.13 11.78 61.91 12.25Z" fill="#3247D5"/>
<path d="M62.72 14.68C62.25 14.68 62.04 14.84 62.05 15.33C62.06 17.6 62.05 19.87 62.05 22.13C62.05 22.49 62.14 22.78 62.47 22.97C63.36 23.47 63.91 24.2 63.98 25.25C63.98 21.67 63.98 18.09 63.98 14.5C63.6 14.8 63.14 14.68 62.72 14.68Z" fill="#3247D5"/>
<path d="M0.01 59.74C0.01 61.05 0.02 62.36 0 63.68C0 63.94 0.05 64 0.32 64C1.63 63.98 2.94 63.99 4.26 63.99C2.14 63.78 0.22 61.85 0.01 59.74Z" fill="#3247D5"/>
<path d="M49.23 0.07C49.24 0.07 49.25 0.07 49.26 0.07C49.25 0.05 49.25 0.03 49.24 0C49.03 0 48.82 0 48.62 0C48.81 0.14 49.03 0.04 49.23 0.07Z" fill="#3247D5"/>
<path d="M48.37 0.0100021C48.16 0.0100021 47.95 0.0100021 47.75 0.0100021C47.75 0.0300021 47.74 0.0500021 47.74 0.0700021C47.94 0.0600021 48.17 0.130002 48.37 0.0100021Z" fill="#3247D5"/>
<path d="M11.47 41.28C12.09 41.26 12.72 41.27 13.34 41.28C13.73 41.29 14.15 41.39 14.27 41.78C14.44 42.33 14.79 42.38 15.25 42.33C15.52 42.3 15.79 42.3 16.06 42.33C16.5 42.38 16.54 42.17 16.48 41.82C16.28 40.55 15.22 39.44 13.91 39.28C13.45 39.22 13.37 39.06 13.4 38.66C13.43 38.29 13.39 37.91 13.41 37.54C13.42 37.25 13.33 37.15 13.03 37.14C11.38 37.06 11.38 37.05 11.36 38.68C11.36 38.7 11.36 38.72 11.36 38.74C11.42 39.1 11.29 39.22 10.9 39.27C9.44001 39.46 8.33001 40.69 8.25001 42.15C8.17001 43.61 9.13001 44.93 10.56 45.31C11.09 45.45 11.64 45.38 12.28 45.41C12.59 45.41 13.01 45.38 13.43 45.42C14.05 45.47 14.46 45.92 14.44 46.48C14.42 47.04 14 47.46 13.37 47.49C12.7 47.51 12.04 47.5 11.37 47.49C11 47.48 10.6 47.36 10.5 47C10.33 46.44 9.97001 46.42 9.52001 46.46C9.23001 46.48 8.94001 46.48 8.65001 46.46C8.30001 46.43 8.23001 46.57 8.27001 46.89C8.46001 48.2 9.54001 49.33 10.85 49.49C11.31 49.54 11.36 49.73 11.36 50.12C11.36 50.61 11.13 51.28 11.46 51.54C11.77 51.79 12.42 51.58 12.91 51.63C13.36 51.68 13.43 51.48 13.4 51.1C13.37 50.75 13.42 50.39 13.39 50.04C13.36 49.68 13.47 49.55 13.85 49.5C15.49 49.28 16.59 47.86 16.48 46.19C16.38 44.64 15.04 43.4 13.44 43.38C12.77 43.37 12.11 43.39 11.44 43.37C10.76 43.35 10.34 42.96 10.32 42.36C10.33 41.72 10.75 41.3 11.47 41.28Z" fill="#3247D5"/>
<path d="M9.72 13.43C12.22 10.93 14.72 8.44 17.21 5.93C17.56 5.58 18.19 5.26 18.16 4.85C18.13 4.46 17.52 4.14 17.2 3.76C16.92 3.43 16.75 3.45 16.44 3.76C14.19 6.04 11.92 8.29 9.66 10.56C9.45 10.77 9.3 11 8.99 10.64C8.69 10.28 8.28 9.69 7.97 9.72C7.58 9.76 7.25 10.33 6.89 10.67C6.84 10.71 6.81 10.76 6.76 10.8C6.52 10.98 6.55 11.12 6.76 11.32C7.52 12.06 8.26 12.81 9.01 13.56C9.1 13.65 9.2 13.72 9.31 13.82C9.45 13.68 9.59 13.56 9.72 13.43Z" fill="#3247D5"/>
<path d="M48.5 4.14C46.81 4.14 45.4 5.55 45.4 7.24C45.4 8.93 46.81 10.34 48.51 10.33C50.2 10.33 51.61 8.92 51.6 7.23C51.61 5.53 50.2 4.14 48.5 4.14ZM48.51 8.26C47.94 8.26 47.49 7.81 47.49 7.24C47.49 6.67 47.93 6.22 48.51 6.22C49.09 6.22 49.53 6.66 49.53 7.23C49.52 7.81 49.08 8.26 48.51 8.26Z" fill="#3247D5"/>
<path d="M9.28001 30.97C9.83001 30.98 10.32 30.51 10.33 29.95C10.34 29.4 9.87001 28.91 9.32001 28.9C8.77001 28.89 8.28001 29.37 8.27001 29.92C8.25001 30.47 8.73001 30.96 9.28001 30.97Z" fill="#3247D5"/>
<path d="M5.19002 30.97C5.74002 30.95 6.20002 30.46 6.19002 29.9C6.17002 29.34 5.69002 28.88 5.14002 28.89C4.59002 28.9 4.12002 29.4 4.14002 29.95C4.15002 30.51 4.65002 30.99 5.19002 30.97Z" fill="#3247D5"/>
<path d="M15.4 57.8C13.4 57.78 11.41 57.78 9.41005 57.8C8.70005 57.81 8.25005 58.25 8.27005 58.85C8.28005 59.45 8.74005 59.86 9.45005 59.86C10.43 59.87 11.4 59.86 12.38 59.86C13.38 59.86 14.38 59.87 15.37 59.86C16.08 59.85 16.52 59.43 16.51 58.81C16.5 58.22 16.08 57.81 15.4 57.8Z" fill="#3247D5"/>
</svg>
