<svg width="60" height="47" viewBox="0 0 60 47" fill="none" xmlns="http://www.w3.org/2000/svg">
<path d="M30 15.3223C33.6328 15.3223 36.9238 16.7969 39.3017 19.1748C41.6845 21.5576 43.1543 24.8438 43.1543 28.4814C43.1543 32.1143 41.6797 35.4053 39.3017 37.7881C36.9189 40.1709 33.6328 41.6406 30 41.6406C26.3672 41.6406 23.0761 40.166 20.6933 37.7881C18.3105 35.4053 16.8408 32.1191 16.8408 28.4814C16.8408 24.8486 18.3154 21.5576 20.6933 19.1748C23.0761 16.7969 26.3672 15.3223 30 15.3223ZM1.21091 10.127H3.40818V5.3125C3.40818 4.64356 3.95017 4.10156 4.61911 4.10156H6.77243V1.21094C6.77243 0.541992 7.31443 0 7.98337 0H27.6416C28.3105 0 28.8525 0.541992 28.8525 1.21094V4.10156H55.3662C56.0351 4.10156 56.5771 4.64356 56.5771 5.3125V10.127H58.789C59.458 10.127 60 10.6689 60 11.3379C60 11.4258 59.9902 11.5137 59.9707 11.5918L55.7324 42.749C55.5957 43.7647 55.1513 44.707 54.4678 45.3906C53.7939 46.0645 52.9004 46.4844 51.8506 46.4844H7.17282C6.11814 46.4844 5.20505 46.0596 4.52146 45.3809C3.83298 44.6924 3.39353 43.7451 3.28122 42.7148L-2.66568e-05 11.4648C-0.068386 10.8008 0.415012 10.2051 1.07907 10.1367C1.1279 10.1318 1.16697 10.1318 1.21091 10.127ZM4.61911 12.5537H2.55368L5.69333 42.4707C5.74216 42.9492 5.93747 43.374 6.23044 43.6719C6.47458 43.916 6.80173 44.0674 7.17282 44.0674H51.8506C52.2168 44.0674 52.5244 43.9209 52.7636 43.6816C53.0664 43.3789 53.2666 42.9346 53.3349 42.4365L57.3974 12.5586L4.61911 12.5537ZM5.83005 6.52832V10.1221L54.1553 9.60938V6.52832H27.6416C26.9726 6.52832 26.4306 5.98633 26.4306 5.31738V2.42676H9.19431V5.31738C9.19431 5.98633 8.65232 6.52832 7.98337 6.52832H5.83005ZM28.0468 35.1465V28.252H26.7724C26.7724 26.5186 29.9609 27.6416 32.3095 27.0508V35.1416C36.7383 35.1465 23.4961 35.1465 28.0468 35.1465ZM30.6201 21.8164C31.1474 21.8164 31.5576 21.9678 31.8603 22.2705C32.1582 22.5684 32.3095 22.9834 32.3095 23.5107C32.3095 24.0479 32.0556 24.5264 31.5381 24.9463C31.0205 25.3662 30.415 25.5762 29.7314 25.5762C29.2138 25.5762 28.8086 25.4297 28.4912 25.1416C28.1787 24.8486 28.0224 24.4727 28.0224 23.999C28.0224 23.4082 28.2763 22.8955 28.789 22.4609C29.292 22.0313 29.9023 21.8164 30.6201 21.8164ZM37.6709 20.8057C35.708 18.8428 32.9931 17.627 30 17.627C27.0019 17.627 24.292 18.8428 22.3291 20.8057C20.3662 22.7686 19.1504 25.4834 19.1504 28.4814C19.1504 31.4795 20.3662 34.1895 22.3291 36.1523C24.292 38.1152 27.0068 39.3311 30 39.3311C32.998 39.3311 35.708 38.1152 37.6709 36.1523C39.6338 34.1895 40.8496 31.4746 40.8496 28.4814C40.8496 25.4834 39.6386 22.7686 37.6709 20.8057Z" fill="white"/>
</svg>
