<svg width="63" height="60" viewBox="0 0 63 60" fill="none" xmlns="http://www.w3.org/2000/svg">
<path d="M27.498 15.75C27.498 17.5402 26.7868 19.2571 25.521 20.523C24.2551 21.7888 22.5382 22.5 20.748 22.5C18.9578 22.5 17.2409 21.7888 15.975 20.523C14.7091 19.2571 13.998 17.5402 13.998 15.75C13.998 13.9598 14.7091 12.2429 15.975 10.977C17.2409 9.71116 18.9578 9 20.748 9C22.5382 9 24.2551 9.71116 25.521 10.977C26.7868 12.2429 27.498 13.9598 27.498 15.75ZM13.248 24C12.4523 24 11.6893 24.3161 11.1267 24.8787C10.5641 25.4413 10.248 26.2043 10.248 27V40.5C10.248 43.2848 11.3542 45.9555 13.3234 47.9246C15.2925 49.8937 17.9632 51 20.748 51C23.5328 51 26.2035 49.8937 28.1726 47.9246C30.1417 45.9555 31.248 43.2848 31.248 40.5V27C31.248 26.2043 30.9319 25.4413 30.3693 24.8787C29.8067 24.3161 29.0436 24 28.248 24H13.248ZM30.498 15.75C30.498 17.7 29.928 19.515 28.938 21.039C30.177 21.183 31.299 21.699 32.19 22.479C33.2734 22.5685 34.3625 22.3951 35.3645 21.9733C36.3665 21.5516 37.2519 20.8941 37.9452 20.0567C38.6385 19.2193 39.1193 18.2269 39.3467 17.1637C39.5741 16.1006 39.5413 14.9983 39.2512 13.9506C38.9611 12.9029 38.4222 11.9407 37.6803 11.146C36.9385 10.3513 36.0157 9.7475 34.9904 9.38601C33.9651 9.02453 32.8677 8.91603 31.7915 9.06977C30.7152 9.2235 29.6921 9.63491 28.809 10.269C29.874 11.829 30.498 13.719 30.498 15.75ZM29.748 50.565C31.1657 49.2998 32.2996 47.7488 33.0752 46.0141C33.8508 44.2794 34.2504 42.4002 34.248 40.5V27C34.2494 25.9466 33.972 24.9116 33.444 24H40.248C41.0436 24 41.8067 24.3161 42.3693 24.8787C42.9319 25.4413 43.248 26.2043 43.248 27V40.5C43.2484 42.1356 42.8667 43.7486 42.1334 45.2106C41.4 46.6726 40.3353 47.943 39.024 48.9206C37.7128 49.8982 36.1912 50.556 34.5808 50.8415C32.9703 51.127 31.3154 51.0323 29.748 50.565ZM42.498 15.75C42.498 17.7 41.928 19.515 40.938 21.039C42.177 21.183 43.299 21.699 44.19 22.479C45.2734 22.5685 46.3625 22.3951 47.3645 21.9733C48.3665 21.5516 49.2519 20.8941 49.9452 20.0567C50.6385 19.2193 51.1193 18.2269 51.3467 17.1637C51.5741 16.1006 51.5413 14.9983 51.2512 13.9506C50.9611 12.9029 50.4222 11.9407 49.6803 11.146C48.9385 10.3513 48.0157 9.7475 46.9904 9.38601C45.9651 9.02453 44.8677 8.91603 43.7915 9.06977C42.7152 9.2235 41.6921 9.63491 40.809 10.269C41.874 11.829 42.498 13.719 42.498 15.75ZM41.748 50.565C43.1657 49.2998 44.2996 47.7488 45.0752 46.0141C45.8508 44.2794 46.2505 42.4002 46.248 40.5V27C46.2494 25.9466 45.972 24.9116 45.444 24H52.248C53.0436 24 53.8067 24.3161 54.3693 24.8787C54.9319 25.4413 55.248 26.2043 55.248 27V40.5C55.2484 42.1356 54.8667 43.7486 54.1334 45.2106C53.4 46.6726 52.3353 47.943 51.024 48.9206C49.7128 49.8982 48.1912 50.556 46.5808 50.8415C44.9703 51.127 43.3154 51.0323 41.748 50.565Z" fill="white"/>
</svg>
