<svg width="64" height="64" viewBox="0 0 64 64" fill="none" xmlns="http://www.w3.org/2000/svg">
<path d="M63.9 50.8C63.46 48.52 62.1 47.08 59.92 46.36C59.07 46.08 58.24 45.75 57.39 45.48C56.88 45.31 57.13 44.9 57.08 44.59C57.03 44.28 57.26 44.29 57.48 44.26C60.56 43.95 62.6 41.78 62.67 38.68C62.72 36.58 62.72 34.47 62.67 32.37C62.57 28.52 60.31 25.47 56.79 24.33C56.46 24.22 56.09 24.16 55.79 23.99C54 22.96 52.09 22.66 50.07 23.02C45.9 23.76 42.35 27.4 42.47 31.83C42.53 34.04 42.48 36.24 42.48 38.45C42.49 41.63 44.34 43.78 47.5 44.26C47.64 44.28 47.78 44.25 47.84 44.45C47.99 44.93 47.79 45.37 47.33 45.57C46.02 46.13 44.58 46.42 43.47 47.39C43.21 47.62 43.1 47.38 42.96 47.26C42.35 46.74 41.67 46.36 40.91 46.1C39.83 45.74 38.75 45.36 37.67 44.99C36.51 44.6 36.51 44.6 36.51 43.41C36.51 42.97 36.54 42.53 36.5 42.1C36.47 41.76 36.61 41.58 36.88 41.4C38.85 40.06 40.13 38.22 40.77 35.93C41.35 33.86 41.15 31.75 41.12 29.66C41.07 26.49 39 23.78 36.02 22.72C35.63 22.58 35.22 22.53 34.85 22.32C33.17 21.35 31.36 21.12 29.49 21.51C25.77 22.29 22.67 25.55 22.84 29.57C22.89 30.8 22.86 32.03 22.87 33.26C22.9 36.37 24.08 38.95 26.49 40.95C26.7 41.13 26.8 41.3 26.79 41.58C26.77 42.45 26.77 43.33 26.79 44.2C26.8 44.53 26.68 44.67 26.38 44.77C25.52 45.07 24.67 45.42 23.81 45.72C22.72 46.1 21.66 46.51 20.84 47.35C20.62 47.58 20.49 47.43 20.32 47.3C19.77 46.87 19.15 46.59 18.5 46.36C17.64 46.06 16.78 45.74 15.91 45.46C15.39 45.29 15.66 44.88 15.61 44.57C15.56 44.26 15.8 44.27 16.01 44.25C19.08 43.96 21.15 41.72 21.2 38.6C21.23 36.56 21.23 34.52 21.2 32.48C21.14 28.6 18.86 25.47 15.3 24.32C14.97 24.21 14.61 24.17 14.3 23.99C12.01 22.67 9.61001 22.55 7.14001 23.39C3.63001 24.59 1.07001 27.83 1.01001 31.2C0.97001 33.78 0.97001 36.36 1.01001 38.95C1.05001 41.61 3.19001 43.93 5.84001 44.25C6.06001 44.28 6.41001 44.14 6.36001 44.57C6.32001 44.92 6.56001 45.34 5.97001 45.53C5.14001 45.79 4.34001 46.14 3.53001 46.47C1.82001 47.17 0.73001 48.42 0.20001 50.18C0.14001 50.37 0.21001 50.61 0.0100098 50.75C0.0100098 54.08 0.0100098 57.41 0.0100098 60.75C0.27001 61.37 0.81001 61.32 1.33001 61.32C6.70001 61.32 12.08 61.32 17.45 61.32C17.68 61.32 17.91 61.32 18.14 61.33C18.5 61.33 18.67 61.5 18.68 61.86C18.68 62.26 18.68 62.65 18.69 63.05C18.69 63.48 18.84 63.82 19.26 64C27.76 64 36.25 64 44.75 64C45.17 63.82 45.32 63.48 45.32 63.05C45.32 62.68 45.33 62.3 45.32 61.93C45.31 61.51 45.51 61.32 45.92 61.33C46.13 61.34 46.34 61.33 46.54 61.33C50.7 61.33 54.87 61.33 59.03 61.33C60.32 61.33 61.61 61.33 62.9 61.33C63.36 61.33 63.78 61.25 63.97 60.76C63.97 57.47 63.97 54.18 63.97 50.89C63.96 50.84 63.9 50.82 63.9 50.8ZM57.9 42.84C57.65 42.89 57.21 43.08 57.12 42.78C57.02 42.43 56.94 41.97 57.28 41.61C58.41 40.41 59.06 38.98 59.31 37.36C59.36 37.01 59.37 36.66 59.42 36.17C60.06 36.76 60.62 37.27 61.17 37.78C61.26 37.87 61.31 37.98 61.31 38.11C61.49 40.7 59.95 42.41 57.9 42.84ZM47.34 25.43C49.86 23.77 52.58 23.78 55.25 25.25C55.43 25.35 55.62 25.44 55.82 25.49C59.14 26.35 61.2 28.93 61.3 32.4C61.33 33.56 61.31 34.73 61.31 35.95C61.01 35.86 60.88 35.66 60.72 35.51C58.37 33.29 56.13 30.98 54.02 28.53C53.4 27.82 53.08 27.82 52.5 28.56C50.37 31.25 47.58 32.77 44.23 33.33C44.06 33.36 43.85 33.46 43.85 33.13C43.82 30.02 44.62 27.21 47.34 25.43ZM47.82 42.73C47.83 43.01 47.52 42.88 47.37 42.86C45.62 42.67 43.99 41 43.89 39.22C43.81 37.85 43.86 36.47 43.85 35.1C43.85 34.88 43.89 34.77 44.14 34.73C44.83 34.62 45.51 34.46 46.25 34.32C46.07 35.47 46.02 36.58 46.23 37.7C46.45 38.86 46.88 39.94 47.59 40.88C48.05 41.46 47.8 42.11 47.82 42.73ZM47.73 34.16C47.81 33.84 47.99 33.68 48.28 33.55C50.09 32.74 51.67 31.62 52.97 30.12C53.28 29.76 53.4 29.89 53.65 30.16C54.78 31.41 55.9 32.67 57.11 33.85C57.79 34.52 58.16 35.22 58.03 35.99C58.04 37.58 57.65 38.87 56.84 40.03C54.74 43.02 50.72 43.02 48.65 40C47.4 38.21 47.18 36.24 47.73 34.16ZM49.21 42.55C51.32 43.84 53.45 44.01 55.71 42.87C55.71 43.82 55.71 44.68 55.71 45.53C55.71 45.76 55.67 45.97 55.53 46.17C54.61 47.55 53.71 48.95 52.8 50.33C52.57 50.33 52.53 50.13 52.44 50.01C51.46 48.69 50.5 47.36 49.51 46.05C49.29 45.75 49.19 45.45 49.2 45.08C49.23 44.26 49.21 43.45 49.21 42.55ZM28.28 23.35C30.32 22.44 32.35 22.46 34.32 23.59C34.55 23.72 34.81 23.81 35.07 23.87C37.72 24.55 39.63 26.86 39.76 29.58C39.8 30.49 39.77 31.41 39.77 32.39C38.44 31.7 37.35 30.79 36.42 29.69C35.75 28.89 35.22 28 34.78 27.05C34.42 26.27 33.93 26.2 33.38 26.84C33.14 27.12 32.9 27.42 32.66 27.7C31.78 28.75 30.65 29.29 29.3 29.1C27.31 28.83 25.66 29.38 24.25 30.93C23.77 26.47 26.04 24.35 28.28 23.35ZM24.51 35.46C23.76 32.6 26.01 30.09 28.97 30.46C30.71 30.68 32.21 30.15 33.44 28.89C33.58 28.74 33.72 28.59 33.92 28.38C35.23 30.77 37.04 32.57 39.44 33.76C39.68 33.88 39.78 34 39.74 34.28C39.18 38.71 35.57 41.81 31.46 41.52C28.24 41.3 25.4 38.85 24.51 35.46ZM34.41 46.35C33.54 47.7 32.86 49.18 32.05 50.72C30.75 48.77 29.5 46.89 28.25 45.01C28.16 44.88 28.15 44.74 28.15 44.6C28.15 43.87 28.16 43.15 28.15 42.42C28.14 42.12 28.23 42.06 28.51 42.18C30.58 43.06 32.69 43.14 34.83 42.44C35.1 42.35 35.15 42.41 35.15 42.67C35.18 43.95 35.17 45.18 34.41 46.35ZM16.43 42.84C16.17 42.89 15.73 43.08 15.65 42.79C15.55 42.44 15.46 41.98 15.8 41.62C16.92 40.44 17.57 39.03 17.82 37.43C17.88 37.06 17.89 36.69 17.94 36.17C18.59 36.78 19.17 37.3 19.73 37.84C19.79 37.9 19.83 38.02 19.84 38.12C20.02 40.68 18.49 42.41 16.43 42.84ZM7.74001 42.54C9.86001 43.85 11.99 43.99 14.22 42.89C14.23 43.02 14.23 43.06 14.24 43.1C14.5 45 14.04 46.68 12.78 48.16C12.28 48.74 11.92 49.43 11.51 50.08C11.36 50.32 11.27 50.44 11.05 50.13C10.01 48.68 8.95001 47.25 7.89001 45.81C7.80001 45.69 7.75001 45.56 7.75001 45.41C7.74001 44.47 7.74001 43.54 7.74001 42.54ZM7.40001 40.3C5.94001 38.45 5.68001 36.35 6.27001 34.11C6.34001 33.85 6.48001 33.7 6.74001 33.59C8.59001 32.77 10.21 31.62 11.53 30.09C11.79 29.79 11.9 29.86 12.13 30.11C13.29 31.39 14.43 32.69 15.67 33.89C16.36 34.55 16.64 35.25 16.55 35.95C16.55 37.7 16.11 39.11 15.13 40.32C13.02 42.92 9.48001 42.93 7.40001 40.3ZM5.09001 26.06C7.51001 23.91 11.78 23.7 13.87 25.29C14 25.39 14.17 25.43 14.33 25.47C17.65 26.35 19.69 28.84 19.83 32.24C19.88 33.46 19.84 34.68 19.84 35.92C19.55 35.87 19.43 35.66 19.27 35.51C16.93 33.31 14.71 31.01 12.61 28.58C11.93 27.79 11.63 27.79 11 28.58C8.88001 31.24 6.10001 32.76 2.77001 33.31C2.56001 33.35 2.38001 33.42 2.37001 33.07C2.31001 30.37 2.99001 27.94 5.09001 26.06ZM5.86001 42.87C4.07001 42.61 2.48001 40.94 2.40001 39.12C2.34001 37.79 2.39001 36.46 2.37001 35.12C2.37001 34.87 2.42001 34.76 2.70001 34.72C3.37001 34.62 4.04001 34.46 4.79001 34.31C4.48001 36.08 4.56001 37.74 5.26001 39.33C5.43001 39.71 5.58001 40.12 5.84001 40.42C6.35001 41.01 6.41001 41.66 6.39001 42.39C6.38001 42.82 6.27001 42.93 5.86001 42.87ZM19.51 49.18C19.02 49.99 18.88 50.93 18.88 51.88C18.88 54.32 18.86 56.75 18.89 59.19C18.9 59.68 18.75 59.76 18.3 59.75C15.57 59.73 12.85 59.74 10.12 59.74C7.39001 59.74 4.67001 59.73 1.94001 59.75C1.47001 59.75 1.36001 59.63 1.37001 59.17C1.40001 56.69 1.38001 54.22 1.38001 51.74C1.38001 49.84 2.38001 48.38 4.13001 47.68C4.88001 47.38 5.65001 47.12 6.39001 46.8C6.70001 46.67 6.87001 46.73 7.06001 47C8.17001 48.53 9.29001 50.06 10.42 51.58C10.58 51.8 10.62 52.02 10.62 52.27C10.61 53.31 10.62 54.35 10.61 55.39C10.6 55.85 10.77 56.19 11.25 56.22C11.77 56.24 11.98 55.89 11.98 55.41C11.99 54.35 11.99 53.29 11.98 52.22C11.98 51.94 12.05 51.7 12.21 51.47C13.18 50.02 14.14 48.56 15.08 47.09C15.28 46.78 15.43 46.72 15.77 46.86C16.9 47.32 18.11 47.58 19.19 48.19C19.61 48.41 19.84 48.63 19.51 49.18ZM43.25 62.63C41.94 62.6 40.63 62.6 39.32 62.63C38.92 62.64 38.84 62.52 38.85 62.14C38.87 60.25 38.86 58.35 38.86 56.46C38.86 56.12 38.84 55.79 38.49 55.6C37.99 55.32 37.5 55.67 37.5 56.34C37.49 58.19 37.47 60.05 37.51 61.9C37.52 62.51 37.37 62.65 36.77 62.64C33.56 62.61 30.36 62.61 27.15 62.63C26.68 62.63 26.52 62.54 26.53 62.03C26.57 60.22 26.54 58.41 26.54 56.6C26.54 55.83 26.32 55.49 25.84 55.5C25.37 55.52 25.17 55.85 25.17 56.64C25.17 58.45 25.16 60.26 25.18 62.07C25.19 62.48 25.11 62.64 24.65 62.63C23.36 62.6 22.07 62.59 20.78 62.63C20.31 62.64 20.25 62.47 20.26 62.07C20.28 60.32 20.27 58.57 20.27 56.82C20.27 55.18 20.26 53.53 20.27 51.89C20.28 49.8 21.43 48.11 23.37 47.36C24.51 46.92 25.67 46.52 26.81 46.07C27.13 45.94 27.29 46.01 27.47 46.28C28.69 48.14 29.93 49.99 31.17 51.84C31.32 52.07 31.35 52.29 31.35 52.55C31.34 53.34 31.34 54.13 31.34 54.92C31.34 55.39 31.48 55.77 32.03 55.76C32.58 55.76 32.76 55.36 32.69 54.91C32.42 53.07 33.1 51.51 34.01 49.99C34.69 48.85 35.3 47.66 35.89 46.47C36.12 46.01 36.34 45.96 36.8 46.13C38.03 46.58 39.28 46.97 40.51 47.41C42.55 48.13 43.77 49.86 43.78 52.02C43.79 55.39 43.77 58.77 43.79 62.14C43.76 62.53 43.65 62.63 43.25 62.63ZM62.1 59.75C59.35 59.74 56.61 59.74 53.86 59.74C51.13 59.74 48.41 59.73 45.68 59.75C45.21 59.75 45.1 59.63 45.11 59.17C45.14 56.8 45.12 54.42 45.12 52.05C45.12 50.97 44.91 49.94 44.36 49C44.14 48.63 44.24 48.45 44.54 48.25C45.62 47.52 46.9 47.23 48.07 46.73C48.32 46.63 48.4 46.82 48.51 46.97C49.64 48.51 50.77 50.06 51.91 51.59C52.08 51.81 52.1 52.04 52.1 52.29C52.09 53.31 52.1 54.33 52.09 55.35C52.08 55.83 52.23 56.2 52.76 56.21C53.29 56.22 53.46 55.84 53.46 55.37C53.46 54.33 53.47 53.29 53.46 52.25C53.46 51.97 53.5 51.73 53.66 51.49C54.64 50.02 55.61 48.55 56.57 47.06C56.74 46.79 56.88 46.7 57.21 46.83C58.08 47.17 58.98 47.44 59.85 47.77C61.56 48.41 62.61 49.92 62.62 51.75C62.63 54.25 62.61 56.75 62.63 59.24C62.63 59.69 62.48 59.75 62.1 59.75Z" fill="white"/>
<path d="M16.88 16.08C16.88 18.21 16.67 17.91 18.66 18.32C19.83 18.56 20.67 18.95 20.96 20.21C21.03 20.52 21.06 20.73 20.89 20.99C20.46 21.67 20.05 22.37 19.62 23.06C19.41 23.4 19.37 23.73 19.65 24.03C20.13 24.52 20.61 25.01 21.11 25.48C21.41 25.76 21.76 25.79 22.06 25.5C22.38 25.19 22.35 24.82 22.05 24.5C21.8 24.22 21.54 23.95 21.25 23.71C21.01 23.51 21.02 23.34 21.18 23.09C21.6 22.45 21.98 21.78 22.39 21.13C22.6 20.8 22.62 20.49 22.42 20.14C22.07 19.5 21.79 18.83 21.59 18.13C21.49 17.76 21.24 17.55 20.85 17.47C20.18 17.33 19.52 17.12 18.85 17C18.4 16.91 18.19 16.76 18.23 16.24C18.29 15.43 18.27 14.62 18.24 13.81C18.22 13.39 18.32 13.18 18.78 13.11C19.47 13 20.15 12.78 20.84 12.62C21.24 12.53 21.51 12.32 21.62 11.91C21.81 11.23 22.09 10.58 22.43 9.96C22.64 9.59 22.62 9.27 22.39 8.92C21.97 8.27 21.6 7.6 21.18 6.96C21.02 6.72 21.05 6.58 21.25 6.39C21.94 5.73 22.63 5.06 23.29 4.36C23.51 4.13 23.67 4.14 23.92 4.3C24.57 4.71 25.24 5.09 25.89 5.5C26.22 5.71 26.54 5.72 26.89 5.54C27.53 5.2 28.2 4.91 28.9 4.72C29.28 4.62 29.48 4.37 29.57 3.98C29.73 3.25 29.95 2.53 30.1 1.8C30.17 1.47 30.29 1.36 30.63 1.37C31.57 1.39 32.5 1.4 33.44 1.37C33.8 1.36 33.89 1.52 33.95 1.81C34.12 2.54 34.33 3.26 34.48 3.99C34.56 4.39 34.77 4.62 35.15 4.73C35.85 4.92 36.52 5.21 37.16 5.56C37.51 5.75 37.82 5.74 38.15 5.53C38.8 5.12 39.47 4.75 40.12 4.33C40.37 4.17 40.52 4.15 40.74 4.39C41.4 5.08 42.08 5.76 42.78 6.42C42.99 6.62 43.01 6.75 42.85 6.99C42.44 7.62 42.08 8.27 41.67 8.9C41.41 9.29 41.38 9.64 41.62 10.06C41.95 10.64 42.21 11.25 42.38 11.9C42.5 12.35 42.77 12.59 43.24 12.68C43.95 12.82 44.65 13.03 45.36 13.18C45.68 13.25 45.78 13.39 45.78 13.73C45.75 14.65 45.75 15.56 45.78 16.48C45.79 16.83 45.66 16.95 45.35 17.02C44.62 17.18 43.9 17.38 43.17 17.53C42.75 17.62 42.51 17.84 42.4 18.24C42.34 18.46 42.3 18.7 42.17 18.88C41.15 20.28 41.53 21.53 42.55 22.72C43.02 23.26 43.03 23.7 42.41 24.12C42.17 24.28 41.98 24.52 41.79 24.73C41.51 25.04 41.51 25.38 41.78 25.68C42.07 26 42.41 25.98 42.72 25.71C42.99 25.48 43.23 25.22 43.48 24.97C44.84 23.62 44.93 23.85 43.78 22.17C43.1 21.18 42.81 20.29 43.5 19.21C43.65 18.97 43.75 18.79 44.05 18.73C44.82 18.57 45.58 18.34 46.35 18.18C46.91 18.06 47.16 17.78 47.15 17.19C47.12 16.13 47.15 15.07 47.14 14C47.13 12.05 47.4 12.22 45.36 11.82C44.17 11.59 43.35 11.17 43.07 9.92C43.01 9.64 42.94 9.45 43.11 9.19C43.55 8.51 43.95 7.81 44.38 7.12C44.66 6.68 44.61 6.32 44.23 5.95C43.22 4.96 42.21 3.96 41.22 2.95C40.83 2.56 40.45 2.54 40 2.82C39.31 3.25 38.61 3.66 37.92 4.08C37.73 4.19 37.58 4.21 37.35 4.16C36.13 3.85 35.4 3.15 35.34 1.83C35.33 1.5 35.18 1.19 35.11 0.860001C35.04 0.520001 34.89 0.240001 34.62 0.0300007C32.87 0.0300007 31.12 0.0300007 29.37 0.0300007C28.84 0.500001 28.8 1.2 28.7 1.83C28.54 3 28.06 3.8 26.82 4.06C26.52 4.12 26.31 4.18 26.03 4C25.37 3.57 24.68 3.19 24.01 2.77C23.55 2.48 23.17 2.53 22.79 2.92C22.07 3.67 21.32 4.39 20.58 5.13C19.13 6.58 19.07 6.28 20.27 8.02C20.97 9.04 21.15 9.93 20.49 10.98C20.35 11.21 20.25 11.36 19.96 11.42C19.19 11.58 18.43 11.83 17.66 11.98C17.04 12.1 16.84 12.42 16.86 13.02C16.9 14.04 16.87 15.06 16.88 16.08Z" fill="white"/>
<path d="M31.99 9.32C28.84 9.33 26.27 11.89 26.25 15.02C26.23 18.2 28.79 20.78 31.97 20.79C35.15 20.8 37.74 18.24 37.74 15.07C37.75 11.9 35.16 9.31 31.99 9.32ZM32 19.42C29.59 19.42 27.63 17.48 27.62 15.07C27.61 12.64 29.61 10.65 32.03 10.67C34.44 10.7 36.38 12.66 36.38 15.06C36.37 17.48 34.42 19.42 32 19.42Z" fill="white"/>
<path d="M32.04 56.96C31.54 56.94 31.15 57.29 31.12 57.78C31.09 58.28 31.5 58.72 31.99 58.72C32.46 58.72 32.86 58.33 32.88 57.85C32.89 57.37 32.53 56.98 32.04 56.96Z" fill="white"/>
</svg>
