<svg width="56" height="56" viewBox="0 0 56 56" fill="none" xmlns="http://www.w3.org/2000/svg">
<path d="M32.71 38.53C37.07 35.08 36.67 29.6 33.9 26.61C30.99 23.47 26.24 23.11 22.91 25.84C21.23 27.22 20.24 29.03 20.04 31.19C19.76 34.22 20.95 36.65 23.32 38.53C19.29 40.93 16.7 44.6 16.06 48.76C15.63 51.56 16.8 53.71 19.39 54.86C20.06 55.16 20.75 55.36 21.47 55.5C24.54 56.09 27.64 56.05 30.74 55.93C32.49 55.86 34.23 55.7 35.9 55.13C37.81 54.48 39.29 53.38 39.81 51.31C40.08 50.22 40.06 49.12 39.8 48.03C38.81 43.86 36.39 40.75 32.71 38.53ZM22.8 32.79C24.2 33.68 25.54 33.39 26.78 32.54C27.62 31.97 28.31 31.97 29.15 32.54C30.42 33.4 31.78 33.68 33.18 32.74C33.3 34.95 30.77 37.22 28.13 37.33C25.51 37.44 22.85 35.19 22.8 32.79ZM35.43 52.46C34.29 52.94 33.07 53.13 31.84 53.2C28.74 53.38 25.65 53.45 22.56 53C21.96 52.91 21.38 52.76 20.81 52.56C19.14 51.95 18.49 50.87 18.72 49.07C19.18 45.35 22.62 41.25 26.2 40.27C25.69 42.05 25.2 43.74 24.71 45.43C24.51 46.13 24.33 46.83 24.1 47.52C23.91 48.08 24.03 48.55 24.42 48.95C25.29 49.84 26.17 50.73 27.07 51.59C27.64 52.13 28.35 52.14 28.92 51.6C29.84 50.72 30.73 49.82 31.61 48.91C31.98 48.53 32.06 48.07 31.9 47.53C31.23 45.28 30.59 43.03 29.94 40.77C29.9 40.63 29.87 40.49 29.82 40.27C30.93 40.55 31.86 41.05 32.7 41.72C35.14 43.66 36.85 46.07 37.29 49.23C37.51 50.78 36.87 51.86 35.43 52.46Z" fill="#3247D5"/>
<path d="M27.98 21.35C33.85 21.37 38.65 16.57 38.66 10.69C38.66 4.79 33.9 0.0199966 28 0.0199966C22.13 0.0199966 17.38 4.76 17.36 10.64C17.33 16.52 22.09 21.32 27.98 21.35ZM28.35 12C27.77 11.99 27.19 12.05 26.61 11.91C25.15 11.56 24.11 10.37 24.01 8.92C23.91 7.43 24.77 6.05 26.18 5.56C26.57 5.42 26.71 5.26 26.67 4.86C26.64 4.55 26.65 4.23 26.67 3.92C26.73 3.22 27.25 2.71 27.92 2.67C28.58 2.63 29.14 3.08 29.3 3.78C29.32 3.86 29.33 3.94 29.34 4.03C29.4 4.46 29.14 5.04 29.46 5.27C29.75 5.48 30.3 5.33 30.73 5.36C31.45 5.41 31.98 5.96 31.99 6.66C32 7.35 31.47 7.92 30.76 8C30.72 8 30.68 8.01 30.64 8.01C30.1 8.01 29.56 8.01 29.02 8.01C28.48 8.01 27.94 8.01 27.4 8.01C26.98 8.01 26.71 8.23 26.69 8.64C26.66 9.09 26.95 9.33 27.39 9.35C27.87 9.37 28.35 9.35 28.83 9.37C30.42 9.44 31.69 10.56 31.98 12.15C32.25 13.63 31.38 15.21 29.92 15.75C29.46 15.92 29.32 16.13 29.36 16.59C29.39 16.92 29.37 17.26 29.31 17.58C29.18 18.26 28.65 18.67 27.99 18.66C27.35 18.65 26.86 18.23 26.72 17.58C26.69 17.42 26.68 17.25 26.68 17.08C26.66 16.02 26.66 16.02 25.57 16.01C24.63 16 24.02 15.47 24.03 14.67C24.04 13.89 24.62 13.37 25.53 13.36C26.47 13.35 27.4 13.35 28.34 13.36C28.84 13.37 29.29 13.29 29.35 12.69C29.38 12.25 29 12.02 28.35 12Z" fill="#3247D5"/>
<path d="M55.89 33.13C55.71 31.85 55.49 30.58 55.19 29.33C54.76 27.52 53.21 26.3 51.34 26.28C50.94 26.28 50.62 26.16 50.31 25.92C49.73 25.48 49.15 25.04 48.55 24.64C47.32 23.82 46.06 23.79 44.81 24.61C44.21 25.01 43.62 25.45 43.04 25.89C42.7 26.15 42.34 26.27 41.9 26.28C40.17 26.3 38.65 27.43 38.19 29.09C37.72 30.79 37.41 32.54 37.33 34.31C37.28 35.89 37.72 37.32 38.67 38.57C40.54 41.02 43.1 42.32 46.12 42.61C48.52 42.84 50.67 41.94 52.58 40.57C55.14 38.75 56.35 36.31 55.89 33.13ZM49.34 34.65C48.91 34.68 48.35 34.46 48.08 34.74C47.81 35.02 48.02 35.57 47.99 36C47.94 36.76 47.39 37.31 46.68 37.32C45.97 37.33 45.41 36.77 45.34 36.03C45.3 35.58 45.54 34.99 45.22 34.73C44.95 34.51 44.39 34.67 43.95 34.64C43.2 34.59 42.65 34.01 42.66 33.31C42.67 32.6 43.23 32.05 43.99 32C44.42 31.97 44.97 32.18 45.25 31.91C45.53 31.64 45.31 31.08 45.34 30.65C45.4 29.87 45.9 29.35 46.65 29.35C47.38 29.34 47.93 29.87 48 30.62C48.04 31.07 47.8 31.66 48.11 31.92C48.37 32.14 48.94 31.97 49.38 32C50.14 32.05 50.66 32.61 50.65 33.34C50.63 34.09 50.12 34.59 49.34 34.65Z" fill="#3247D5"/>
<path d="M17.35 38.31C17.35 36.81 17.36 35.31 17.34 33.81C17.34 33.5 17.4 33.35 17.74 33.24C18.76 32.9 19.02 31.7 18.2 31C15.55 28.75 12.88 26.54 10.2 24.32C9.62 23.84 9.05 23.88 8.44 24.36C8.1 24.63 7.77 24.92 7.43 25.2C5.18 27.08 2.92 28.95 0.669998 30.83C-0.360002 31.69 -0.180003 32.81 1.06 33.27C1.36 33.38 1.36 33.55 1.36 33.78C1.35 34.61 1.36 35.45 1.36 36.28C1.36 37.05 1.35 37.82 1.36 38.59C1.39 40.17 2.43 41.27 4 41.32C5.21 41.36 6.41 41.32 7.62 41.34C7.99 41.35 8.02 41.18 8.01 40.89C8 40.16 7.99 39.43 8.01 38.7C8.03 37.89 8.57 37.34 9.32 37.33C10.09 37.32 10.62 37.85 10.65 38.67C10.67 39.34 10.69 40 10.65 40.67C10.62 41.17 10.74 41.36 11.29 41.34C12.29 41.29 13.29 41.33 14.29 41.33C16.27 41.34 17.34 40.27 17.35 38.31ZM9.29 30.65C8.57 30.63 8 30.03 8.01 29.31C8.02 28.57 8.66 27.98 9.39 28.01C10.14 28.04 10.69 28.66 10.65 29.42C10.62 30.14 10.03 30.67 9.29 30.65Z" fill="#3247D5"/>
<path d="M8.39006 22.26C8.91006 22.77 9.64006 22.84 10.1401 22.37C11.1401 21.43 12.1201 20.46 13.0501 19.46C13.5201 18.96 13.4001 18.18 12.9101 17.71C12.4301 17.25 11.6901 17.23 11.1401 17.65C11.0001 17.76 10.9301 17.96 10.6701 17.96C10.6701 15.94 10.6401 13.93 10.6801 11.92C10.7001 11.17 11.2701 10.71 12.0601 10.66C12.4701 10.64 12.8901 10.67 13.3101 10.65C14.1301 10.62 14.6501 10.08 14.6501 9.31C14.6401 8.56 14.0901 8.02 13.2801 8C12.8201 7.99 12.3601 7.98 11.9101 8C10.2801 8.1 9.09006 8.89 8.37006 10.36C8.04006 11.07 8.00006 11.81 8.00006 12.57C8.01006 14.37 8.00006 16.17 8.00006 18.09C7.81006 17.92 7.71006 17.82 7.61006 17.74C6.99006 17.22 6.21006 17.23 5.70006 17.76C5.21006 18.27 5.20006 19.06 5.73006 19.62C6.61006 20.51 7.50006 21.4 8.39006 22.26Z" fill="#3247D5"/>
<path d="M42.58 10.65C42.99 10.68 43.41 10.65 43.83 10.67C44.77 10.7 45.32 11.22 45.33 12.15C45.35 14.08 45.34 16.01 45.34 18.08C45.17 17.94 45.09 17.88 45.01 17.81C44.33 17.21 43.55 17.2 43.02 17.78C42.49 18.35 42.54 19.09 43.16 19.72C43.98 20.55 44.8 21.38 45.63 22.19C46.19 22.74 46.89 22.86 47.42 22.4C48.47 21.49 49.45 20.49 50.38 19.45C50.81 18.96 50.72 18.2 50.27 17.74C49.81 17.27 49.06 17.22 48.51 17.63C48.36 17.75 48.21 17.88 47.99 18.06C47.99 15.97 48.01 13.98 47.99 11.98C47.97 10.21 46.79 8.66 45.11 8.17C44.23 7.91 43.33 7.97 42.44 8.04C41.76 8.09 41.32 8.72 41.35 9.41C41.38 10.1 41.87 10.6 42.58 10.65Z" fill="#3247D5"/>
</svg>
