<svg width="64" height="64" viewBox="0 0 64 64" fill="none" xmlns="http://www.w3.org/2000/svg">
<path d="M63 12.08C63 11.72 62.89 11.47 62.63 11.22C59.34 7.95 56.05 4.66 52.78 1.37C52.53 1.11 52.28 1 51.92 1C44.46 1.01 37.01 1.02 29.55 1C29.06 1 28.99 1.15 28.99 1.59C29.01 7.04 29 12.5 29 17.95C29 18.16 29.07 18.39 28.94 18.6C19.49 16.36 10.76 20.74 6.35997 27.65C3.69997 31.82 2.61997 36.37 3.14997 41.27C3.67997 46.19 5.78997 50.38 9.32997 53.98C8.31997 53.98 7.42997 53.98 6.54997 53.98C4.99997 53.98 5.00997 53.98 5.00997 55.52C4.99997 55.92 5.10997 56 5.47997 56C7.39997 55.98 9.30997 55.99 11.23 55.99C11.43 55.99 11.65 55.93 11.84 56.06C12.81 56.76 13.85 57.35 14.89 57.98C14.69 57.98 14.49 57.98 14.29 57.98C10.29 57.98 6.28997 57.98 2.29997 57.98C1.00997 57.98 1.04997 57.98 0.999974 59.26C0.979974 59.86 1.11997 60 1.72997 60C18.87 59.98 36 59.98 53.14 59.98C53.26 59.98 53.39 60 53.51 59.98C53.88 59.92 54.02 60.04 54 60.44C53.96 61.27 53.99 62.1 53.99 63.06C56.49 61.06 58.89 59.13 61.3 57.22C61.72 56.89 61.33 56.78 61.16 56.64C58.89 54.81 56.61 53 54.34 51.18C54.25 51.11 54.18 50.98 53.99 51.03C53.99 51.81 53.96 52.59 54 53.38C54.02 53.86 53.9 54 53.4 53.99C48.69 53.97 43.99 53.98 39.28 53.97C39.11 53.97 38.91 54.06 38.76 53.89C41.11 51.31 42.15 49.82 43.16 47.5C43.33 47.11 43.53 46.96 43.97 46.96C50.13 47 56.27 46.99 62.41 47C62.85 47 63 46.93 63 46.44C62.98 34.99 62.99 23.54 63 12.08ZM52.99 4.48C55.18 6.68 57.31 8.81 59.44 10.95C59.34 11.1 59.16 11 59.01 11C57.16 11.01 55.31 11.01 53.46 11C53.23 11 52.97 11.1 52.97 10.67C53 8.64 52.99 6.61 52.99 4.48ZM51.49 13.02C53.16 13 54.82 13.02 56.49 13C56.9 12.99 57.01 13.1 57 13.51C56.97 14.51 56.97 15.51 57 16.51C57.01 16.92 56.89 17.02 56.49 17.02C52.99 17 49.49 17.01 46 17.01C42.52 17.01 39.05 17 35.57 17.02C35.1 17.02 34.99 16.91 34.99 16.44C35.01 13.48 35.01 10.53 34.99 7.57C34.98 7.11 35.1 7 35.56 7C40.52 7.02 45.47 7.02 50.43 7C50.89 7 51.02 7.1 51.01 7.57C50.98 9.21 51.01 10.86 50.99 12.5C50.98 12.91 51.09 13.02 51.49 13.02ZM35.89 53.77C35.71 53.93 35.52 54 35.28 54C34.26 53.99 33.24 54 32.22 54C34.16 52.79 35.87 51.36 37.28 49.59C45.38 39.43 39.55 24.35 26.72 22.24C17.1 20.66 8.09997 27.57 7.11997 37.29C6.19997 46.41 12.7 54.66 21.74 55.85C22.63 55.97 23.52 56 24.42 56C34.64 55.99 44.87 56 55.09 56C55.97 56 55.97 56 56.06 55.13C56.78 55.7 57.46 56.27 58.17 56.8C58.4 56.98 58.33 57.07 58.15 57.21C57.47 57.75 56.79 58.29 56.12 58.83C56.08 58.79 56.02 58.76 56.03 58.74C56.14 58.12 55.89 57.98 55.27 57.98C44.9 58 34.53 58.06 24.16 57.98C16.8 57.92 11.11 54.66 7.48997 48.26C1.14997 37.06 7.54997 23.09 20.14 20.43C30.44 18.25 40.4 24.7 42.56 35.04C44.1 42.51 41.73 48.8 35.89 53.77ZM23.99 53.99C15.72 53.99 8.98997 47.24 9.00997 38.97C9.01997 30.71 15.77 23.98 24.04 24C32.31 24.02 39.02 30.78 38.99 39.05C38.97 47.29 32.24 54 23.99 53.99ZM60.3 45.01C55.15 44.99 50.01 45 44.87 45C44.64 45 44.41 45 44.14 45C44.67 43.09 44.98 41.19 44.99 39.25C45.06 30.47 39.76 22.64 31.57 19.46C31.14 19.29 30.98 19.12 30.98 18.63C31 13.61 31 8.59 30.98 3.57C30.98 3.11 31.08 2.99 31.55 2.99C37.84 3.01 44.13 3.01 50.42 2.99C50.88 2.99 51.01 3.09 51 3.56C50.98 5.01 51 5.01 49.56 5.01C44.25 5.01 38.94 5.02 33.63 5C33.11 5 32.99 5.12 32.99 5.64C33.01 9.91 33.01 14.18 32.99 18.45C32.99 18.92 33.1 19.03 33.57 19.02C41.86 19 50.15 19 58.43 19.02C58.9 19.02 59.01 18.91 59.01 18.44C58.98 16.8 59.01 15.15 58.99 13.51C58.98 13.1 59.1 13 59.5 13C61 13.01 61 12.99 61 14.51C61 24.44 60.99 34.38 61.01 44.31C61 44.88 60.86 45.01 60.3 45.01Z" fill="#3247D5"/>
<path d="M2.01995 55.99C3.00995 55.99 3.00995 55.99 3.00995 54.98C3.00995 53.99 3.00995 53.99 2.05995 53.99C1.00995 53.99 1.00995 53.99 1.00995 55C1.00995 55.99 1.00995 55.99 2.01995 55.99Z" fill="#3247D5"/>
<path d="M47.5 23.01C49.31 22.99 51.12 23 52.93 23C54.47 23 56.01 23 57.55 23C58.99 23 58.97 23 59 21.56C59.01 21.09 58.89 20.98 58.42 20.99C55.12 21.01 51.81 21 48.5 21C46.98 21 47 21 46.99 22.5C46.98 22.91 47.09 23.02 47.5 23.01Z" fill="#3247D5"/>
<path d="M48.5 25C46.98 25 46.99 25 46.98 26.49C46.98 26.89 47.07 27.01 47.49 27C49.34 26.99 51.2 27 53.05 27C54.55 27 56.05 27 57.55 27C59 27 58.98 27 59 25.57C59.01 25.11 58.9 24.99 58.43 24.99C55.12 25.01 51.81 25 48.5 25Z" fill="#3247D5"/>
<path d="M58.43 28.99C55.12 29.01 51.8 29 48.49 29C46.97 29 46.99 29 46.98 30.5C46.98 30.91 47.09 31.01 47.49 31.01C49.32 30.99 51.15 31 52.99 31C54.51 31 56.03 31 57.55 31C58.99 31 58.97 31 59 29.56C59.01 29.09 58.89 28.99 58.43 28.99Z" fill="#3247D5"/>
<path d="M58.43 32.99C55.12 33.01 51.81 33 48.5 33C46.98 33 46.99 33 46.98 34.49C46.98 34.89 47.07 35.01 47.49 35C49.34 34.99 51.2 35 53.05 35C54.55 35 56.05 35 57.55 35C59 35 58.98 35 59 33.57C59.01 33.11 58.91 32.98 58.43 32.99Z" fill="#3247D5"/>
<path d="M58.44 40.99C55.13 41 51.82 41 48.51 41C46.96 41 46.98 41 46.98 42.54C46.98 42.95 47.12 43.01 47.48 43C49.31 42.98 51.14 42.99 52.98 42.99C54.5 42.99 56.02 42.99 57.54 42.99C59.01 42.99 58.99 42.99 59.01 41.51C59.01 41.05 58.86 40.98 58.44 40.99Z" fill="#3247D5"/>
<path d="M47.49 39.01C49.49 38.99 51.49 39 53.49 39C55.03 39 55.02 39 55 37.44C55 37.09 54.91 36.99 54.55 36.99C53.37 37.01 52.18 37 51 37C50.17 37 49.33 37 48.5 37C46.98 37 47 37 46.99 38.5C46.98 38.9 47.08 39.01 47.49 39.01Z" fill="#3247D5"/>
<path d="M56.99 37.94C56.99 39 56.99 39 58.05 39C58.99 39 58.99 39 58.99 38.06C58.99 37 58.99 37 57.93 37C56.99 37 56.99 37 56.99 37.94Z" fill="#3247D5"/>
<path d="M37 35.58C37 35.3 36.91 35.18 36.63 35.12C35.96 34.97 35.29 34.78 34.59 34.6C34.97 33.96 35.3 33.38 35.66 32.82C35.83 32.56 35.8 32.4 35.58 32.19C33.98 30.61 32.39 29.02 30.81 27.42C30.57 27.17 30.4 27.18 30.13 27.36C29.58 27.72 29 28.04 28.38 28.41C28.2 27.73 28.02 27.09 27.88 26.44C27.81 26.12 27.71 25.99 27.36 25.99C25.11 26.01 22.86 26.01 20.61 25.99C20.26 25.99 20.15 26.11 20.09 26.44C19.96 27.09 19.77 27.72 19.59 28.4C18.98 28.04 18.4 27.71 17.85 27.35C17.58 27.17 17.41 27.17 17.17 27.42C15.59 29.02 14 30.61 12.4 32.19C12.18 32.4 12.15 32.55 12.32 32.82C12.69 33.39 13.02 33.98 13.4 34.61C12.68 34.79 12.02 34.97 11.36 35.12C11.1 35.18 11 35.29 11 35.58C11.01 37.85 11.01 40.12 11 42.39C11 42.7 11.09 42.82 11.4 42.89C12.06 43.03 12.72 43.22 13.42 43.39C13.05 44.01 12.73 44.6 12.36 45.15C12.17 45.43 12.2 45.59 12.44 45.83C13.79 47.16 15.13 48.5 16.46 49.85C16.66 50.05 16.82 50.12 17.11 50.03C17.78 49.82 18.48 49.69 19.15 49.46C19.52 49.33 19.61 49.44 19.68 49.78C19.8 50.39 20 50.98 20.13 51.59C20.18 51.87 20.27 52 20.6 52C22.87 51.99 25.14 51.99 27.41 52C27.73 52 27.83 51.88 27.89 51.59C28.01 51 28.2 50.43 28.32 49.84C28.4 49.46 28.5 49.31 28.93 49.47C29.57 49.7 30.25 49.83 30.91 50.03C31.15 50.1 31.32 50.11 31.52 49.91C32.88 48.53 34.25 47.16 35.63 45.8C35.83 45.6 35.86 45.46 35.7 45.22C35.33 44.65 34.99 44.05 34.61 43.41C35.3 43.23 35.96 43.04 36.62 42.9C36.93 42.84 37.02 42.71 37.02 42.4C36.99 40.12 36.99 37.85 37 35.58ZM35.01 40.75C35.03 41.16 34.85 41.29 34.51 41.36C34.1 41.44 33.71 41.59 33.3 41.64C32.71 41.71 32.42 42.03 32.23 42.58C32.11 42.93 32.09 43.19 32.3 43.5C32.6 43.95 32.84 44.43 33.15 44.88C33.32 45.14 33.29 45.29 33.07 45.5C32.34 46.21 31.62 46.93 30.9 47.66C30.74 47.83 30.6 47.87 30.36 47.8C29.67 47.58 28.96 47.43 28.26 47.22C28.02 47.15 27.83 47.18 27.6 47.24C26.96 47.39 26.7 47.78 26.6 48.4C26.52 48.93 26.5 49.64 26.16 49.91C25.82 50.18 25.13 50 24.59 50.01C23.82 50.02 23.05 49.98 22.28 50.02C21.85 50.04 21.7 49.88 21.63 49.5C21.56 49.11 21.45 48.73 21.36 48.35C21.12 47.38 20.52 47.02 19.56 47.27C18.94 47.44 18.31 47.59 17.7 47.79C17.42 47.88 17.25 47.84 17.05 47.63C16.36 46.91 15.66 46.2 14.93 45.51C14.67 45.27 14.7 45.09 14.87 44.83C15.11 44.47 15.3 44.07 15.55 43.72C15.87 43.28 15.91 42.88 15.67 42.35C15.48 41.92 15.22 41.76 14.82 41.67C14.22 41.53 13.39 41.54 13.09 41.15C12.78 40.75 13 39.96 12.99 39.33C13 38.61 13.03 37.9 13 37.2C12.98 36.85 13.12 36.74 13.43 36.67C13.88 36.58 14.31 36.42 14.76 36.36C15.31 36.29 15.56 35.98 15.75 35.49C15.92 35.08 15.89 34.77 15.64 34.4C15.29 33.89 14.72 33.3 14.78 32.81C14.84 32.32 15.56 31.9 15.99 31.45C16.49 30.95 17 30.46 17.49 29.94C17.71 29.7 17.88 29.65 18.16 29.85C18.55 30.12 18.99 30.32 19.38 30.6C19.78 30.89 20.13 30.9 20.58 30.7C21.03 30.51 21.27 30.26 21.36 29.78C21.46 29.19 21.47 28.37 21.84 28.1C22.25 27.8 23.04 28 23.66 27.99C24.37 27.98 25.08 28.02 25.78 27.98C26.16 27.96 26.28 28.11 26.35 28.44C26.43 28.85 26.59 29.24 26.63 29.65C26.69 30.28 27.04 30.57 27.61 30.76C27.97 30.88 28.22 30.86 28.53 30.67C29.09 30.33 29.67 29.67 30.23 29.77C30.76 29.86 31.17 30.59 31.63 31.04C32.12 31.52 32.6 32.01 33.09 32.5C33.19 32.6 33.32 32.67 33.32 32.85C33 33.38 32.71 33.93 32.36 34.44C32.11 34.79 32.14 35.09 32.27 35.47C32.46 36 32.77 36.26 33.32 36.35C33.88 36.45 34.64 36.43 34.93 36.84C35.2 37.22 35.01 37.92 35.02 38.48C35 39.25 34.97 40 35.01 40.75Z" fill="#3247D5"/>
<path d="M24.08 32C20.23 31.96 17.05 35.07 17.01 38.9C16.97 42.77 20.1 45.96 23.96 45.99C27.8 46.01 30.97 42.89 31 39.05C31.03 35.21 27.92 32.04 24.08 32ZM24 43.99C21.25 43.99 19 41.74 19.01 38.99C19.01 36.24 21.26 34 24.01 34C26.76 34 29.01 36.25 29.01 39C29 41.75 26.75 43.99 24 43.99Z" fill="#3247D5"/>
<path d="M24.02 36C22.36 35.99 21 37.35 21.01 39.01C21.02 40.64 22.36 41.98 23.99 41.99C25.65 42 27.01 40.63 27 38.97C26.99 37.35 25.65 36.01 24.02 36ZM23.98 39.99C23.44 39.97 23 39.52 23.01 38.98C23.02 38.42 23.51 37.96 24.06 38C24.6 38.03 25.02 38.5 25 39.04C24.98 39.58 24.51 40.01 23.98 39.99Z" fill="#3247D5"/>
</svg>
