<svg width="64" height="64" viewBox="0 0 64 64" fill="none" xmlns="http://www.w3.org/2000/svg">
<path d="M37.1401 34.84C37.5101 34.97 37.8701 35.13 38.2701 35.14C41.0001 36.05 43.7301 36.13 46.4501 35.13C47.1501 34.75 47.9601 34.6 48.6201 34.13C48.6401 34.18 48.6501 34.24 48.6701 34.29C48.7001 34.27 48.7201 34.26 48.7501 34.25C49.6301 33.84 50.4001 33.3 51.1101 32.65C53.2201 30.72 54.5701 28.36 55.1701 25.56C55.2501 25.17 55.4501 24.97 55.8301 24.84C58.9801 23.78 60.3301 20.39 58.7601 17.45C58.5801 17.11 58.5201 16.76 58.4801 16.38C58.3801 15.39 58.4101 14.38 58.2301 13.4C57.1201 7.45 53.7501 3.32 48.2001 0.95C46.8101 0.36 45.3501 0.1 43.8501 0.0100002C43.6401 0.0100002 43.4301 0.0100002 43.2301 0.0100002C42.9801 0.21 42.7301 0.19 42.4801 0.0100002C41.9001 0.0100002 41.3101 0.0100002 40.7301 0.0100002C39.8301 0.16 38.9201 0.14 38.0401 0.42C32.2101 2.27 28.4001 6.08 26.7601 12C26.5901 12.6 26.6001 12.6 26.1101 12.22C23.7101 10.32 21.3501 8.38 18.9601 6.47C18.0401 5.74 17.6801 5.74 16.7601 6.47C15.8801 7.17 15.0101 7.88 14.1301 8.58C13.2701 9.27 12.4101 9.96 11.5501 10.65C11.4401 10.74 11.3201 10.89 11.1801 10.84C10.9801 10.77 11.0601 10.55 11.0601 10.4C11.0501 10 11.0701 9.61 11.0501 9.21C10.9901 8.44 10.5801 8 9.8201 7.98C8.2201 7.95 6.6201 7.95 5.0101 7.98C4.4101 7.99 4.0101 8.32 3.8201 8.9C3.7201 9.2 3.7201 9.51 3.7201 9.83C3.7201 11.97 3.7101 14.12 3.7301 16.26C3.7301 16.75 3.5801 17.09 3.2001 17.38C2.3201 18.05 1.4701 18.75 0.610098 19.44C0.340098 19.66 0.130098 19.9 0.100098 20.25C0.110098 20.25 0.130098 20.25 0.140098 20.25C0.140098 20.46 0.140098 20.68 0.140098 20.89C0.130098 20.89 0.110098 20.89 0.100098 20.89C0.100098 20.91 0.100098 20.93 0.100098 20.95C0.150098 21.25 0.320098 21.48 0.510098 21.7C1.4201 22.76 2.3901 23.76 3.3001 24.81C3.5601 25.1 3.8801 25.35 4.2601 25.34C4.9301 25.33 4.9601 25.71 4.9601 26.22C4.9501 29.18 4.9501 32.13 4.9501 35.09C4.9501 35.49 4.9301 35.88 4.9601 36.28C5.0101 36.98 5.4101 37.37 6.1101 37.43C6.3801 37.45 6.6501 37.44 6.9201 37.44C14.2001 37.44 21.4801 37.44 28.7601 37.44C30.5701 37.44 30.7901 37.22 30.7901 35.38C30.7901 33.31 30.7901 31.24 30.7901 29.07C32.0301 31.36 33.7001 33.09 35.9101 34.27C35.9501 34.28 35.9901 34.3 36.0301 34.31C36.0501 34.25 36.0501 34.2 36.0701 34.14C36.5201 34.23 36.7101 34.7 37.1401 34.84ZM57.2901 19.92C57.3001 21.12 56.5901 22.17 55.3001 22.73C55.3001 21.77 55.3001 20.86 55.3001 19.95C55.3001 19.04 55.3001 18.13 55.3001 17.16C56.5601 17.67 57.2801 18.7 57.2901 19.92ZM6.3701 10.15C7.0601 10.16 7.7401 10.17 8.4301 10.15C8.7701 10.14 8.8901 10.27 8.8401 10.58C8.8301 10.64 8.8301 10.71 8.8401 10.77C9.1701 12.43 8.5601 13.64 7.0801 14.46C6.7101 14.66 6.4101 14.98 5.9901 15.32C5.9901 13.64 6.0001 12.06 5.9801 10.49C5.9801 10.18 6.1201 10.15 6.3701 10.15ZM4.9601 22.5C4.6201 22.77 4.4501 22.78 4.1801 22.44C3.7801 21.94 3.3501 21.45 2.8701 21.01C2.5001 20.67 2.7401 20.53 3.0001 20.33C6.0401 17.9 9.0701 15.47 12.1001 13.04C13.8801 11.61 15.6701 10.18 17.4401 8.74C17.7301 8.5 17.9001 8.46 18.2201 8.72C20.8401 10.84 23.4701 12.94 26.1001 15.04C26.3301 15.22 26.3901 15.41 26.4301 15.71C26.5701 16.71 26.1101 17.52 25.6501 18.4C23.4001 16.6 21.1601 14.81 18.9301 13.01C17.9801 12.25 17.7401 12.24 16.7801 13.02C12.8401 16.17 8.8901 19.33 4.9601 22.5ZM19.8901 35.26C18.5401 35.24 17.1901 35.24 15.8401 35.26C15.4701 35.27 15.3501 35.19 15.3501 34.79C15.3801 33.46 15.3601 32.13 15.3601 30.8C15.3601 29.49 15.3701 28.18 15.3501 26.87C15.3501 26.52 15.3801 26.36 15.8101 26.37C17.1801 26.4 18.5501 26.39 19.9201 26.38C20.2301 26.38 20.3501 26.44 20.3501 26.79C20.3401 29.47 20.3301 32.16 20.3501 34.84C20.3601 35.2 20.2201 35.26 19.8901 35.26ZM28.0701 35.26C26.3601 35.23 24.6601 35.23 22.9501 35.26C22.4901 35.27 22.3601 35.16 22.3701 34.68C22.3901 31.7 22.3801 28.73 22.3801 25.75C22.3801 24.66 22.0501 24.32 20.9801 24.32C18.9001 24.32 16.8201 24.32 14.7401 24.32C13.6701 24.32 13.3101 24.67 13.3101 25.74C13.3101 28.72 13.3001 31.69 13.3201 34.67C13.3201 35.11 13.2501 35.27 12.7601 35.26C11.0501 35.22 9.3501 35.23 7.6401 35.26C7.1901 35.27 7.1001 35.13 7.1101 34.71C7.1301 32.9 7.1201 31.09 7.1201 29.28C7.1201 27.47 7.1301 25.66 7.1101 23.85C7.1101 23.51 7.2001 23.29 7.4801 23.07C10.8001 20.43 14.1101 17.77 17.4101 15.1C17.7401 14.83 17.9301 14.81 18.2801 15.09C20.5401 16.93 22.8201 18.74 25.1001 20.55C25.3801 20.78 25.5701 21.02 25.6801 21.39C26.0701 22.73 26.9001 23.75 28.1501 24.37C28.5301 24.56 28.6301 24.77 28.6301 25.17C28.6101 28.36 28.6101 31.54 28.6301 34.73C28.6201 35.15 28.5101 35.27 28.0701 35.26ZM29.3601 22.66C28.2301 22.32 27.4701 21.3 27.3901 20.05C27.3101 18.84 28.0101 17.79 29.3601 17.16C29.3601 19.03 29.3601 20.84 29.3601 22.66ZM28.4401 15.34C28.8001 10.72 30.7001 6.99 34.5201 4.44C39.2201 1.31 44.2101 1.08 49.1401 3.8C53.5801 6.25 55.8401 10.2 56.2701 15.36C54.8901 14.81 53.5901 15 52.3101 14.98C51.9801 14.98 51.7801 14.88 51.6101 14.6C51.1901 13.93 50.7501 13.28 50.3001 12.62C49.8001 11.89 49.3101 11.78 48.5601 12.24C46.5201 13.52 44.4801 14.8 42.3401 16.15C42.3401 15.22 42.3401 14.37 42.3401 13.51C42.3401 12.04 41.8701 11.7 40.5101 12.21C38.2401 13.06 35.9601 13.9 33.6901 14.76C33.3301 14.9 32.9801 14.95 32.6001 14.96C31.2401 15.02 29.8601 14.8 28.4401 15.34ZM31.6801 25.49C31.4601 24.62 31.3901 23.72 31.3901 22.83C31.3801 21.04 31.3801 19.25 31.3901 17.46C31.3901 17.23 31.2901 16.89 31.7101 16.94C33.8801 17.22 35.6801 16.07 37.6101 15.43C38.5101 15.13 39.3901 14.77 40.3601 14.41C40.3601 15.58 40.3701 16.64 40.3601 17.7C40.3501 18.17 40.4701 18.58 40.9101 18.81C41.3401 19.03 41.7501 18.92 42.1401 18.67C44.3001 17.31 46.4801 15.97 48.6301 14.59C48.9801 14.37 49.1401 14.4 49.3401 14.74C49.6401 15.26 50.0101 15.74 50.3201 16.26C50.6101 16.74 51.0001 16.97 51.5501 16.94C51.6501 16.93 51.7601 16.94 51.8601 16.94C53.3201 16.94 53.3401 16.94 53.3201 18.44C53.3001 20.31 53.4001 22.19 53.2401 24.06C52.8301 28.95 48.8001 33.14 43.9101 33.77C38.1701 34.5 33.0501 31.03 31.6801 25.49Z" fill="white"/>
<path d="M63.95 63.36C63.95 57.74 63.95 52.11 63.95 46.49C63.8 46.06 63.85 45.6 63.68 45.17C62.81 43.05 61.32 41.58 59.16 40.83C56.1 39.78 53.01 38.79 49.96 37.72C48.63 37.25 48.79 37.52 48.75 35.98C48.74 35.42 48.85 34.85 48.67 34.3C47.97 34.71 47.18 34.93 46.46 35.3C46.47 36.16 46.53 37.02 46.46 37.87C46.37 38.94 45.74 39.75 44.9 40.39C42.84 41.95 39.86 41.31 38.62 39.05C38.36 38.57 38.19 38.07 38.22 37.51C38.26 36.79 38.26 36.06 38.27 35.34C38.26 35.34 38.26 35.34 38.25 35.33C37.55 35.21 36.89 34.98 36.36 34.48C36.27 34.39 36.16 34.34 36.04 34.3C35.83 35.04 35.96 35.79 35.96 36.54C35.96 37.12 35.77 37.38 35.22 37.57C31.94 38.66 28.65 39.71 25.4 40.87C23.83 41.43 22.66 42.48 21.72 43.83C21.56 44.06 21.51 44.38 21.27 44.55C21.21 44.54 21.17 44.53 21.14 44.5C21.08 44.44 21.04 44.36 21 44.29C18.79 40.79 15.64 39 11.47 39.07C8.39001 39.12 5.73001 40.23 3.52001 42.33C1.52001 44.23 0.24001 46.54 0.0100098 49.36C0.0100098 50.44 0.0100098 51.53 0.0100098 52.61C0.14001 53.26 0.12001 53.92 0.34001 54.56C1.10001 56.82 2.36001 58.72 4.22001 60.25C8.80001 64.02 15.93 63.81 19.98 59.43C20.14 59.26 20.28 59.05 20.57 58.95C20.59 60.27 20.57 61.54 20.58 62.8C20.58 63.37 20.76 63.82 21.37 63.98C35.31 63.98 49.26 63.98 63.2 63.98C63.5 63.84 63.74 63.62 63.95 63.36ZM20.01 55.78C18.21 58.99 15.44 60.67 11.78 60.72C6.92001 60.79 2.70001 56.95 2.16001 52.07C1.60001 47.13 4.86001 42.55 9.68001 41.5C10.41 41.34 11.15 41.23 11.91 41.25C15.63 41.26 18.8 43.66 20.13 47.49C20.19 47.67 20.25 47.84 20.3 48.02C20.48 48.62 20.87 48.88 21.5 48.88C27.1 48.87 32.7 48.94 38.29 48.82C40 48.78 41.34 49.09 42.34 50.55C42.76 51.16 43.39 51.6 43.82 52.21C43.3 52.72 42.78 53.23 42.26 53.73C41.84 54.14 41.41 54.53 41 54.94C40.66 55.29 40.38 55.36 40.03 54.93C39.73 54.56 39.38 54.23 39.04 53.89C38.39 53.23 37.87 53.2 37.23 53.88C36.83 54.31 36.57 54.38 36.2 53.87C35.93 53.5 35.58 53.2 35.26 52.87C34.61 52.2 34.14 52.2 33.45 52.85C33.04 53.24 32.63 53.62 32.23 54.02C32.04 54.22 31.9 54.27 31.69 54.02C31.43 53.7 31.13 53.4 30.83 53.11C30.34 52.64 29.84 52.62 29.33 53.06C29.01 53.33 28.7 53.61 28.43 53.92C28.2 54.18 28.05 54.13 27.85 53.89C27.64 53.63 27.4 53.4 27.17 53.16C26.56 52.53 26.03 52.5 25.4 53.09C24.84 53.62 24.28 54.15 23.74 54.7C23.52 54.92 23.29 55.03 22.97 54.99C22.49 54.94 22.01 54.96 21.54 54.91C20.8 54.8 20.37 55.13 20.01 55.78ZM61.46 61.94C59.73 61.92 58.01 61.92 56.28 61.94C55.84 61.95 55.73 61.81 55.73 61.38C55.75 58.92 55.74 56.47 55.74 54.01C55.74 53.26 55.38 52.84 54.75 52.83C54.13 52.82 53.71 53.25 53.71 53.96C53.7 56.35 53.69 58.75 53.72 61.14C53.73 61.74 53.63 61.93 52.96 61.93C43.12 61.9 33.27 61.91 23.43 61.92C22.89 61.92 22.72 61.81 22.74 61.24C22.79 59.97 22.76 58.7 22.75 57.43C22.75 57.17 22.73 56.9 23.12 56.98C24.1 57.18 24.7 56.6 25.32 55.98C26.2 55.09 26.22 55.1 27.09 55.99C27.9 56.82 28.29 56.83 29.13 56.04C30.03 55.19 30.03 55.19 30.9 56.09C31.68 56.9 32.09 56.91 32.93 56.12C33.29 55.78 33.68 55.45 34.02 55.09C34.24 54.86 34.39 54.84 34.61 55.1C34.96 55.51 35.35 55.89 35.72 56.28C36.38 56.97 36.93 57.01 37.57 56.32C37.96 55.91 38.17 55.91 38.56 56.33C39.68 57.56 41.13 57.58 42.33 56.43C43.5 55.31 44.68 54.18 45.84 53.05C46.47 52.44 46.49 51.97 45.89 51.34C44.62 49.99 43.33 48.66 42.07 47.3C41.69 46.89 41.24 46.81 40.72 46.81C34.98 46.83 29.23 46.83 23.49 46.84C23.3 46.84 23.12 46.84 22.84 46.84C23.34 44.96 24.36 43.61 26.14 42.98C29.47 41.82 32.83 40.73 36.16 39.59C36.48 39.48 36.58 39.57 36.72 39.83C37.91 42.1 39.81 43.31 42.35 43.31C44.88 43.31 46.79 42.09 47.98 39.83C48.12 39.57 48.22 39.48 48.54 39.59C51.88 40.73 55.23 41.82 58.56 42.98C60.58 43.68 61.92 45.56 61.93 47.7C61.96 52.28 61.94 56.86 61.95 61.44C61.95 61.86 61.83 61.95 61.46 61.94Z" fill="white"/>
<path d="M63.95 63.36C63.88 63.78 63.57 63.92 63.2 63.98C63.62 63.98 64.17 64.14 63.95 63.36Z" fill="white"/>
<path d="M43.22 0.0100002C42.97 0.0100002 42.72 0.0100002 42.47 0.0100002C42.72 0.11 42.97 0.11 43.22 0.0100002Z" fill="white"/>
<path d="M0.0900098 20.25C0.0600098 20.25 0.0400098 20.26 0.0100098 20.25C0.0100098 20.46 0.0100098 20.67 0.0100098 20.87C0.0400098 20.87 0.0600098 20.87 0.0800098 20.88C0.0700098 20.69 0.0700098 20.5 0.0700098 20.31C0.0800098 20.29 0.0900098 20.27 0.0900098 20.25Z" fill="white"/>
<path d="M38.26 35.14C38.26 35.21 38.26 35.27 38.26 35.34C38.28 35.35 38.3 35.35 38.32 35.36C38.3 35.29 38.29 35.21 38.26 35.14Z" fill="white"/>
<path d="M46.3999 35.33C46.4199 35.32 46.4399 35.31 46.4499 35.3C46.4499 35.24 46.4499 35.19 46.4499 35.13C46.4199 35.2 46.4199 35.26 46.3999 35.33Z" fill="white"/>
<path d="M47.2899 27.29C47.3199 27.16 47.4099 26.93 47.2199 26.93C46.5699 26.93 45.8499 26.67 45.2799 27.05C43.5299 28.21 41.6799 28.21 39.9099 27.33C39.1599 26.96 38.4899 26.94 37.7399 26.9C37.3699 26.88 37.3299 27.02 37.4099 27.34C37.6299 28.19 38.2099 28.73 38.9399 29.13C39.9899 29.7 41.1199 29.9 42.2999 29.89C43.5499 29.9 44.7399 29.7 45.8399 29.08C46.5499 28.68 47.0999 28.13 47.2899 27.29Z" fill="white"/>
<path d="M46.3 20.93C47.08 20.93 47.08 20.93 47.54 20.33C47.95 19.8 48.87 19.78 49.11 20.39C49.34 20.98 49.72 20.95 50.17 20.93C50.42 20.92 50.67 20.91 50.92 20.93C51.26 20.96 51.35 20.82 51.3 20.49C51.14 19.17 50.04 18.04 48.75 17.87C47.33 17.69 46.02 18.47 45.53 19.77C45.14 20.82 45.22 20.93 46.3 20.93Z" fill="white"/>
<path d="M38.2099 20.93C38.4499 20.93 38.5599 20.93 38.6599 20.93C39.4699 20.93 39.4699 20.93 39.2499 20.13C38.8999 18.89 37.8599 18.04 36.5899 17.96C35.3199 17.88 34.1199 18.63 33.6299 19.81C33.2099 20.81 33.2799 20.92 34.3399 20.92C34.4599 20.92 34.5899 20.91 34.7099 20.92C35.0699 20.95 35.3299 20.91 35.5099 20.48C35.7999 19.81 36.8399 19.71 37.1299 20.34C37.4099 21 37.8399 20.96 38.2099 20.93Z" fill="white"/>
<path d="M7.76995 46.52C5.36995 46.54 3.42995 48.49 3.40995 50.9C3.39995 53.26 5.39995 55.26 7.77995 55.26C10.2099 55.26 12.1399 53.35 12.1499 50.93C12.1599 48.49 10.1799 46.5 7.76995 46.52ZM7.69995 53.24C6.51995 53.24 5.46995 52.16 5.45995 50.93C5.43995 49.62 6.43995 48.59 7.75995 48.56C9.04995 48.53 10.1299 49.57 10.1399 50.85C10.1399 52.17 9.04995 53.24 7.69995 53.24Z" fill="white"/>
</svg>
