<svg width="64" height="64" viewBox="0 0 64 64" fill="none" xmlns="http://www.w3.org/2000/svg">
<path d="M62.85 26.3C62.17 22.12 58.65 18.69 54.44 18.13C54.06 18.08 53.93 17.95 53.87 17.56C53.26 13.5 51.05 10.62 47.34 8.9C45.5 8.05 43.53 7.92 41.54 8.01C41.11 8.03 40.98 7.93 40.99 7.48C41.01 5.78 41 4.08 41 2.37C41 1.34 40.68 1.02 39.67 1.02C31.24 1.02 22.8 1.02 14.37 1.01C13.83 1.01 13.43 1.18 13.05 1.56C9.25 5.36 5.45 9.17 1.64 12.95C1.19 13.4 1 13.85 1 14.49C1.02 26.5 1.01 38.52 1.01 50.53C1.01 50.65 1.01 50.78 1.01 50.9C1 51.26 1.11 51.58 1.42 51.76C1.74 51.94 1.65 52.11 1.55 52.36C1.21 53.17 1.01 54.02 1.01 54.91C1.01 57.2 1.01 59.49 1.01 61.78C1.01 62.63 1.37 62.98 2.23 62.98C12.08 62.98 21.93 62.98 31.78 62.98C32.63 62.98 32.99 62.62 32.99 61.76C32.99 59.51 33.01 57.26 32.99 55.01C32.96 51.57 30.64 48.77 27.27 48.11C25.67 47.8 24.05 47.52 22.37 47.21C23.03 46.65 23.61 46.12 24.09 45.49C24.57 44.86 25 44.2 25.27 43.45C25.4 43.07 25.61 42.98 26 42.97C27.79 42.95 29.28 41.85 29.81 40.19C30.34 38.55 29.78 36.86 28.33 35.77C28.08 35.58 28 35.41 28 35.11C28.01 33.94 28.03 32.78 27.99 31.61C27.86 28.1 24.9 25.1 21.39 25.01C18.48 24.94 15.56 24.94 12.64 25.01C9.41 25.08 6.61 27.64 6.11 30.84C5.89 32.25 6.05 33.67 6 35.08C6 35.36 6 35.55 5.76 35.74C4.21 36.93 3.66 38.56 4.22 40.24C4.78 41.92 6.21 42.94 8.12 42.99C8.44 43 8.59 43.09 8.71 43.39C9.26 44.77 10.12 45.92 11.25 46.89C11.36 46.99 11.56 47.02 11.56 47.25C10.39 47.46 9.23 47.7 8.06 47.88C6.22 48.17 4.47 48.63 3.14 50.05C2.93 49.89 3.03 49.69 3.03 49.52C3.01 38.2 3.01 26.87 3 15.54C3 15.1 3.11 15 3.54 15C6.91 15.02 10.29 15.01 13.66 15.01C14.68 15.01 15 14.69 15 13.67C15 10.57 15 7.46 15 4.36C15 3.02 15 3.02 16.34 3.02C23.69 3.02 31.04 3.02 38.39 3.01C38.79 3.01 39.02 3.01 39 3.55C38.95 4.88 38.97 6.21 38.99 7.55C39 7.94 38.89 8.03 38.51 8.03C36.51 8.01 34.5 7.91 32.51 8.05C30.64 8.18 29.06 7.83 27.76 6.39C27.23 5.8 26.8 5.88 26.17 6.39C22.96 9.01 19.75 11.63 16.55 14.26C16.16 14.58 15.46 14.84 15.48 15.28C15.49 15.7 16.07 16.09 16.38 16.51C16.56 16.75 16.68 16.77 16.91 16.56C17.56 16 18.24 15.47 18.98 14.87C18.98 15.19 18.98 15.39 18.98 15.6C18.98 18.02 18.98 20.43 18.98 22.85C18.98 23.61 19.34 24.02 20.05 24.02C24.67 24.03 29.3 24.03 33.92 24.02C34.6 24.02 34.97 23.61 34.97 22.9C34.98 21.23 34.97 19.57 34.97 17.9C34.97 16.93 34.97 15.96 34.97 14.88C35.42 15.24 35.77 15.54 36.15 15.82C36.56 16.12 36.93 16.77 37.36 16.67C37.77 16.57 38.03 15.93 38.38 15.55C38.6 15.32 38.54 15.2 38.31 15.02C37.64 14.5 36.98 13.94 36.33 13.4C35 12.31 33.68 11.23 32.23 10.04C34.38 10.04 36.37 10.06 38.36 10.02C38.9 10.01 38.99 10.17 38.99 10.67C38.99 19.02 39 27.39 39 35.76C39 40.3 38.99 44.84 39.01 49.38C39.01 49.92 38.86 50.04 38.36 50.01C37.76 49.96 37.15 50 36.55 50C34.95 50 34.97 50 34.99 51.58C34.99 51.95 35.12 52.02 35.45 52.01C36.8 51.99 38.16 52 39.51 52C40.73 52 41 51.73 41 50.49C41 37.27 41 24.04 41 10.82C41 10.67 41.02 10.53 41 10.38C40.96 10.06 41.1 10 41.39 10.01C42.08 10.03 42.76 10 43.45 10.03C47.53 10.17 51.22 13.43 51.87 17.44C51.94 17.85 51.95 18.08 51.38 18.16C46.77 18.82 43.07 23 43.02 27.65C42.98 31.86 44.88 34.97 48.6 36.95C48.9 37.11 49.03 37.25 49.01 37.6C48.98 38.35 49.01 39.1 49 39.85C48.99 40.2 49.1 40.5 49.34 40.75C49.73 41.15 50.41 41.54 50.43 41.96C50.46 42.45 49.72 42.8 49.34 43.23C48.87 43.76 48.87 44.24 49.36 44.77C49.52 44.94 49.68 45.09 49.84 45.26C50.57 45.99 50.6 46.03 49.83 46.71C49.18 47.28 48.89 47.92 48.98 48.79C49.04 49.47 49 50.16 48.99 50.85C48.98 51.31 49.17 51.64 49.55 51.89C50.47 52.49 51.39 53.1 52.3 53.73C52.77 54.05 53.21 54.06 53.68 53.73C54.52 53.15 55.36 52.57 56.22 52.04C56.78 51.7 57 51.26 57 50.6C56.98 46.33 57 42.06 56.98 37.79C56.98 37.32 57.1 37.07 57.54 36.85C61.42 34.92 63.56 30.64 62.85 26.3ZM26.36 37.02C27.27 37.17 28.01 38.06 28 39.01C27.99 39.96 27.24 40.84 26.33 40.98C26 41.03 25.96 40.91 25.97 40.61C26 40.07 25.98 39.53 25.98 39C25.99 39 25.99 39 26 39C26 38.44 26.02 37.88 25.99 37.32C25.98 37.03 26.1 36.98 26.36 37.02ZM7.66 40.98C6.75 40.83 6.01 39.95 6.01 39C6.01 38.04 6.76 37.16 7.67 37.02C7.96 36.98 8.03 37.07 8.02 37.34C8 37.9 8.01 38.46 8.01 39.02C8.02 39.02 8.02 39.02 8.03 39.02C8.03 39.56 8 40.1 8.04 40.63C8.06 40.95 7.96 41.03 7.66 40.98ZM8.26 35C8.08 35 8 34.94 8 34.75C8.05 33.51 7.88 32.25 8.11 31.01C8.54 28.76 10.52 27.04 12.81 27.01C15.6 26.97 18.39 26.97 21.17 27.01C23.76 27.05 25.9 29.21 25.98 31.8C26.01 32.71 25.97 33.63 26 34.55C26.01 34.9 25.92 35.01 25.56 35C24.09 34.99 22.61 35 21.14 35C19.73 35 18.31 34.99 16.9 35.01C16.56 35.01 16.32 34.92 16.09 34.67C15.68 34.23 15.25 33.81 14.81 33.39C14.26 32.87 13.78 32.87 13.23 33.38C13.2 33.41 13.16 33.43 13.14 33.47C11.97 35.44 10.04 34.99 8.26 35ZM10.11 41.15C9.99 40.42 10.03 39.7 10.01 39.07C10.01 38.43 10.02 37.89 10 37.35C9.99 37.08 10.07 36.96 10.35 37C10.39 37.01 10.43 37 10.47 37C11.81 37.2 12.92 36.84 13.72 35.7C13.93 35.4 14.12 35.47 14.3 35.72C15.1 36.89 16.23 37.08 17.56 37.02C19.53 36.93 21.51 37.01 23.49 36.99C23.9 36.99 24.02 37.09 24 37.5C23.93 38.95 24.12 40.41 23.74 41.84C22.9 44.98 19.91 47.14 16.57 46.98C13.39 46.83 10.61 44.31 10.11 41.15ZM19.72 49.01C19.53 50.02 18.42 50.9 17.23 50.99C15.83 51.1 14.53 50.1 14.25 49.01C16.1 49.01 17.91 49.01 19.72 49.01ZM3.02 54.83C3.06 52.59 4.7 50.6 6.89 50.14C8.48 49.81 10.08 49.55 11.67 49.25C12 49.19 12.16 49.21 12.29 49.6C13.02 51.67 14.86 52.99 16.97 52.99C19.11 53 20.96 51.69 21.71 49.59C21.83 49.26 21.95 49.18 22.28 49.24C23.91 49.55 25.56 49.8 27.18 50.15C29.35 50.63 30.94 52.61 30.98 54.83C31.01 56.75 30.98 58.66 31 60.58C31 60.9 30.92 61 30.59 61C29.55 60.98 28.51 60.97 27.47 61C27.08 61.01 26.98 60.91 26.99 60.52C27.01 58.83 26.99 57.15 27.01 55.46C27.02 55.07 26.91 54.98 26.53 54.98C25 54.98 25 54.97 25 56.47C25 57.82 24.98 59.18 25.01 60.53C25.02 60.93 24.9 61.01 24.53 61C22.01 60.98 19.49 60.99 16.97 60.99C14.49 60.99 12.01 60.98 9.54 61C9.09 61 9 60.88 9 60.45C9.03 58.78 9 57.12 9.02 55.45C9.03 55.05 8.91 54.98 8.53 54.98C7.01 54.98 7.01 54.97 7.01 56.47C7.01 57.8 6.99 59.14 7.02 60.47C7.03 60.92 6.89 61.02 6.47 61C5.47 60.97 4.47 60.98 3.47 61C3.14 61 3 60.96 3 60.57C3.02 58.66 2.99 56.74 3.02 54.83ZM12.56 13.02C9.9 13 7.24 13.01 4.56 13.01C7.39 10.19 10.18 7.39 13 4.57C13 5.24 13 5.91 13 6.59C13 8.57 12.99 10.54 13.01 12.52C13.02 12.86 12.99 13.03 12.56 13.02ZM28.91 21.88C28.54 22.29 27.66 21.99 27 22C26.36 22.02 25.49 22.23 25.13 21.91C24.72 21.54 25.02 20.66 25.01 20C24.99 19.36 24.78 18.49 25.1 18.13C25.47 17.72 26.35 18.02 27.01 18.01C27.65 17.99 28.51 17.78 28.88 18.1C29.3 18.47 28.94 19.35 28.98 20.01C28.97 20.65 29.22 21.52 28.91 21.88ZM32.69 12.96C32.9 13.13 33 13.3 33 13.58C32.99 16.24 32.99 18.91 33 21.57C33 21.92 32.91 22.02 32.56 22.02C31 22.04 31 22.05 31 20.51C31 19.41 31.01 18.3 31 17.2C30.99 16.38 30.63 16.01 29.82 16.01C27.95 16 26.07 16 24.2 16.01C23.36 16.01 23 16.38 23 17.24C23 18.66 22.99 20.07 23.01 21.49C23.01 21.86 22.97 22.03 22.52 22.02C21 22.01 21 22.03 21 20.53C21 19.53 21 18.53 21 17.53C21 16.24 21.01 14.95 20.99 13.66C20.99 13.34 21.08 13.13 21.33 12.93C23.08 11.52 24.82 10.1 26.54 8.66C26.87 8.38 27.07 8.35 27.42 8.64C29.17 10.1 30.93 11.53 32.69 12.96ZM53.76 26.01C54.03 26.02 53.99 25.84 53.99 25.68C53.99 25.25 53.99 24.83 53.99 24.36C54.82 24.86 55.15 25.67 54.92 26.51C54.68 27.37 53.93 27.98 53.06 28.01C52.16 28.04 51.36 27.47 51.08 26.59C50.81 25.74 51.1 24.94 51.95 24.35C51.97 24.47 51.98 24.53 51.98 24.59C52.03 25.06 51.76 25.76 52.09 25.94C52.55 26.17 53.2 25.99 53.76 26.01ZM56.04 35.38C55.07 35.78 54.99 35.9 54.99 36.96C54.99 41.29 54.98 45.62 55 49.95C55 50.33 54.9 50.56 54.57 50.75C54.03 51.06 53.52 51.67 53 51.67C52.48 51.67 51.98 51.03 51.42 50.76C50.76 50.43 51.07 49.87 51.01 49.41C50.78 48.64 51.18 48.14 51.71 47.69C52.04 47.4 52.34 47.08 52.64 46.76C53.12 46.24 53.12 45.75 52.63 45.22C52.33 44.9 52.03 44.58 51.7 44.29C51.46 44.08 51.43 43.93 51.69 43.7C52 43.43 52.29 43.12 52.58 42.82C53.15 42.22 53.14 41.75 52.57 41.14C52.54 41.11 52.51 41.08 52.48 41.05C51.21 40.18 50.74 38.98 50.99 37.47C51.03 37.25 50.98 37.01 51 36.78C51.06 36.08 50.74 35.68 50.09 35.41C47.48 34.35 45.84 32.42 45.19 29.68C44.18 25.39 47.12 20.94 51.46 20.13C51.9 20.05 52.08 20.14 52 20.6C51.99 20.66 51.99 20.73 52 20.79C52.1 21.62 51.95 22.16 51.03 22.58C49.38 23.33 48.66 25.33 49.16 27.1C49.65 28.84 51.32 30.04 53.15 29.99C54.98 29.94 56.53 28.61 56.92 26.76C57.29 25.02 56.4 23.12 54.73 22.44C54.04 22.16 53.98 21.8 53.99 21.2C54.02 19.98 54 19.98 55.18 20.32C58.43 21.25 60.78 24.13 60.98 27.44C61.19 30.9 59.22 34.06 56.04 35.38Z" fill="white"/>
</svg>
