<svg width="64" height="64" viewBox="0 0 64 64" fill="none" xmlns="http://www.w3.org/2000/svg">
<path d="M63.99 43.37C63.69 43.12 63.32 43.19 62.97 43.19C57.56 43.19 52.14 43.16 46.73 43.21C45.57 43.22 44.58 43.12 43.96 42.02C43.94 41.98 43.9 41.96 43.87 41.93C42.78 40.83 41.53 39.93 40.14 39.25C39.25 38.81 39.21 38.92 39.7 38.01C39.85 37.73 40.01 37.46 40.07 37.15C40.19 36.55 40.57 36.34 41.14 36.21C43.87 35.59 45.27 32.82 44.16 30.24C43.95 29.76 43.96 29.35 44.12 28.87C45.16 25.81 44.33 22.79 41.79 20.81C40.93 20.14 40.2 19.49 39.8 18.45C39.61 17.96 39.42 17.5 39.43 16.97C39.44 14.28 39.44 11.6 39.43 8.91C39.43 7.56 39.44 6.2 39.42 4.85C39.41 4.12 39.27 3.99 38.53 3.96C38.3 3.95 38.07 3.96 37.84 3.96C32.26 3.96 26.68 3.96 21.1 3.96C17.1 3.96 13.11 3.96 9.11 3.96C8.18 3.96 8.07 4.08 8.06 5C8.06 5.23 8.06 5.46 8.06 5.69C8.06 11.1 8.06 16.52 8.07 21.93C8.07 22.5 7.95 22.96 7.57 23.42C6.83 24.3 6.83 27.28 7.52 28.2C7.54 28.23 7.57 28.27 7.6 28.3C8 28.67 8.08 29.14 8.07 29.66C8.06 31.78 8.07 33.91 8.06 36.03C8.06 36.89 8.05 36.89 7.22 36.97C5.22 37.17 4.03 38.38 3.95 40.39C3.93 40.9 3.75 41.06 3.25 41.1C1.34 41.24 0.42 42.01 0 43.77C0 48.31 0 52.85 0 57.39C0.37 58.44 0.95 59.3 2.06 59.69C2.23 59.75 2.24 59.85 2.21 60.02C1.89 62.15 2.44 63.11 4.46 63.96C4.48 63.97 4.48 63.99 4.49 64.01C4.91 64.01 5.32 64.01 5.74 64.01C6.93 63.6 7.85 62.92 8.16 61.62C8.27 61.17 8.28 60.72 8.16 60.27C8.1 60.05 8.05 59.89 8.4 59.89C10 59.9 11.6 59.9 13.2 59.89C13.42 59.89 13.53 59.95 13.6 60.18C14.2 62.24 15.57 63.48 17.66 63.94C17.69 63.95 17.72 63.99 17.75 64.02C32.99 64.02 48.24 64.02 63.48 64.03C63.91 64.03 63.99 63.95 63.99 63.52C63.98 56.78 63.99 50.08 63.99 43.37ZM51.14 45.4C52.49 45.4 53.85 45.42 55.2 45.39C55.65 45.38 55.75 45.53 55.74 45.95C55.73 47.49 55.74 47.49 54.19 47.49C53.67 47.49 53.15 47.49 52.63 47.49C51.73 47.49 50.84 47.48 49.94 47.5C49.61 47.51 49.52 47.4 49.51 47.08C49.47 45.4 49.46 45.4 51.14 45.4ZM45.33 49.85C46.07 52.88 43.8 55.83 40.74 55.72C38.9 55.66 37.5 54.77 36.76 53.08C35.53 50.27 34.38 47.43 33.21 44.59C32.82 43.65 33.01 42.78 33.69 42.05C34.41 41.27 35.35 41.13 36.33 41.36C37.1 41.54 37.39 42.46 36.93 43.11C36.86 43.21 36.77 43.3 36.68 43.39C35.82 44.29 35.82 44.29 36.52 45.28C38.07 47.44 39.62 49.6 41.15 51.77C41.36 52.06 41.51 52.24 41.86 51.93C42.23 51.6 42.87 51.41 43 51.02C43.14 50.6 42.53 50.23 42.29 49.8C42.25 49.73 42.23 49.66 42.17 49.52C43.14 49.52 44.04 49.53 44.95 49.52C45.2 49.53 45.28 49.63 45.33 49.85ZM25.35 44.25C25.48 44.45 25.45 44.57 25.33 44.74C24.73 45.56 24.14 46.39 23.55 47.22C23.44 47.38 23.33 47.49 23.1 47.49C21.84 47.48 20.57 47.49 19.24 47.49C20.34 44.62 22.22 42.54 25.04 41.14C24.61 42.34 24.72 43.33 25.35 44.25ZM21.84 49.54C21.75 49.7 21.71 49.78 21.67 49.84C21.43 50.25 20.8 50.7 20.96 51C21.21 51.46 21.84 51.72 22.31 52.06C22.64 52.29 22.7 51.94 22.8 51.79C24.32 49.68 25.83 47.56 27.34 45.45C27.61 45.08 28.05 44.71 28.07 44.32C28.1 43.91 27.52 43.65 27.21 43.32C26.84 42.93 26.73 42.49 26.93 42C27.12 41.52 27.52 41.33 28.01 41.28C30.41 41.07 31.45 43.18 30.68 44.89C29.49 47.52 28.46 50.21 27.33 52.87C26.52 54.79 24.67 55.91 22.72 55.72C20.74 55.53 19.15 54.14 18.69 52.18C18.51 51.42 18.6 50.65 18.65 49.88C18.67 49.63 18.79 49.53 19.05 49.53C19.96 49.54 20.85 49.54 21.84 49.54ZM29.17 39.13C27.4 38.85 25.97 37.36 25.86 35.57C25.71 33.02 25.79 30.46 25.83 27.9C25.83 27.59 25.92 27.28 26.05 27C26.49 26.03 26.77 25.92 27.74 26.32C30.69 27.54 33.77 27.97 36.94 27.89C38.19 27.86 38.19 27.88 38.19 29.14C38.19 30.03 38.19 30.93 38.19 31.82C38.19 32.84 38.2 33.86 38.19 34.88C38.16 37.51 36.42 39.24 33.78 39.23C32.24 39.21 30.7 39.37 29.17 39.13ZM44.76 47.48C43.44 47.48 42.24 47.47 41.03 47.49C40.75 47.49 40.57 47.41 40.41 47.18C39.86 46.38 39.28 45.59 38.72 44.79C38.62 44.65 38.49 44.55 38.6 44.31C39.32 42.8 39.31 42.8 39.03 41.18C41.78 42.54 43.65 44.61 44.76 47.48ZM40.64 34.02C40.33 34.06 40.24 33.99 40.25 33.68C40.27 33.12 40.26 32.56 40.26 32C40.26 31.44 40.27 30.88 40.25 30.32C40.24 30.02 40.31 29.93 40.63 29.97C41.55 30.1 42.32 31.01 42.32 31.99C42.32 32.98 41.55 33.89 40.64 34.02ZM38.15 20.21C38.31 21.15 37.84 21.98 36.96 22.38C36.59 22.54 36.01 22.48 35.9 22.88C35.81 23.2 36.15 23.61 36.21 23.99C36.32 24.68 36.64 24.7 37.22 24.49C38.3 24.1 39.2 23.52 39.74 22.48C39.9 22.17 40.03 22.24 40.25 22.39C41.92 23.53 42.75 25.95 42.11 27.87C42.01 28.16 41.89 28.28 41.6 28.11C41.51 28.06 41.41 28.03 41.31 28.01C40.97 27.94 40.45 27.98 40.33 27.78C40.16 27.48 40.26 27.02 40.26 26.63C40.26 25.8 40.26 25.82 39.44 25.8C37.11 25.76 34.78 25.93 32.46 25.53C30.65 25.21 28.92 24.65 27.27 23.83C26.93 23.66 26.68 23.68 26.36 23.85C24.93 24.62 24.06 25.8 23.81 27.41C23.76 27.75 23.69 27.9 23.3 27.91C22.83 27.92 22.38 28.12 21.89 28.31C21.48 26.83 21.66 25.5 22.62 24.3C22.74 24.15 22.86 24 23 23.89C23.53 23.47 23.74 22.96 23.79 22.25C23.93 20.26 25.66 18.66 27.66 18.62C30.53 18.57 33.4 18.59 36.28 18.61C37.23 18.61 37.99 19.3 38.15 20.21ZM23.75 32.01C23.75 32.57 23.73 33.13 23.76 33.69C23.77 34.02 23.65 34.06 23.36 34.02C22.46 33.89 21.72 33.02 21.69 32.05C21.66 31.07 22.4 30.15 23.33 29.99C23.64 29.94 23.79 29.97 23.77 30.34C23.73 30.89 23.75 31.45 23.75 32.01ZM14.46 10.87C14.46 10.5 14.5 10.33 14.95 10.33C20.82 10.35 26.68 10.35 32.55 10.33C32.93 10.33 33.04 10.42 33.04 10.81C33.02 12.56 33.02 14.3 33.04 16.05C33.05 16.45 32.92 16.52 32.55 16.52C29.6 16.5 26.64 16.51 23.69 16.51C20.8 16.51 17.91 16.5 15.02 16.52C14.6 16.52 14.46 16.43 14.47 15.98C14.49 14.28 14.48 12.58 14.46 10.87ZM10.82 6.2C19.44 6.21 28.06 6.21 36.68 6.2C37.08 6.2 37.16 6.32 37.15 6.69C37.14 9.86 37.14 13.02 37.15 16.19C37.15 16.53 37.1 16.71 36.71 16.57C36.58 16.52 36.42 16.53 36.28 16.53C35.11 16.48 35.11 16.48 35.11 15.32C35.11 13.15 35.1 10.99 35.12 8.82C35.12 8.4 35.04 8.26 34.58 8.26C27.35 8.28 20.13 8.27 12.9 8.26C12.51 8.26 12.37 8.34 12.38 8.76C12.4 11.86 12.4 14.97 12.38 18.07C12.38 18.52 12.52 18.61 12.94 18.61C16.1 18.59 19.27 18.6 22.44 18.6C22.66 18.6 22.89 18.6 23.24 18.6C22.36 19.7 21.85 20.79 21.74 22.05C21.72 22.26 21.59 22.38 21.46 22.52C19.61 24.48 19.21 26.76 20.04 29.28C20.17 29.68 20.17 30 19.99 30.39C18.84 32.95 20.57 35.85 23.4 36.11C23.76 36.14 23.88 36.25 23.95 36.59C24.1 37.33 24.42 38.01 24.86 38.62C25.01 38.83 25.06 38.93 24.75 39.06C22.24 40.09 20.23 41.75 18.72 44.01C18.7 44.04 18.65 44.04 18.61 44.05C18.07 42.06 17.1 41.3 15 41.31C14.53 41.31 14.45 41.15 14.48 40.74C14.54 39.65 14.26 38.68 13.4 37.94C12.68 37.31 11.82 37.12 10.9 37.18C10.48 37.21 10.33 37.1 10.34 36.65C10.37 34.26 10.36 31.86 10.34 29.47C10.34 29.04 10.44 28.91 10.89 28.91C12.85 28.93 14.8 28.92 16.76 28.92C17.57 28.92 17.57 28.92 17.56 28.08C17.53 25.39 15.91 23.35 13.39 22.84C12.55 22.67 11.69 22.75 10.84 22.76C10.45 22.77 10.35 22.64 10.35 22.26C10.36 17.08 10.36 11.89 10.35 6.71C10.33 6.29 10.44 6.2 10.82 6.2ZM10.87 24.77C11.62 24.78 12.37 24.68 13.11 24.86C14.03 25.09 14.7 25.63 15.15 26.46C15.3 26.74 15.28 26.86 14.92 26.85C14.05 26.83 13.17 26.84 12.3 26.84C11.45 26.84 10.59 26.82 9.74 26.85C9.38 26.86 9.29 26.73 9.29 26.39C9.24 24.77 9.23 24.76 10.87 24.77ZM7.73 39.23C8.91 39.23 10.1 39.22 11.28 39.23C12.17 39.24 12.81 40.4 12.38 41.17C12.29 41.34 12.12 41.27 11.99 41.27C11.1 41.28 10.21 41.27 9.31 41.27C8.46 41.27 7.61 41.25 6.76 41.28C6.35 41.29 6.18 41.22 6.19 40.75C6.22 39.5 6.46 39.23 7.73 39.23ZM5.17 61.91C4.6 61.91 4.14 61.45 4.14 60.89C4.14 60.33 4.61 59.87 5.17 59.86C5.73 59.86 6.2 60.32 6.2 60.88C6.2 61.46 5.74 61.91 5.17 61.91ZM13.65 57.38C13.55 57.7 13.42 57.8 13.09 57.8C9.82 57.79 6.55 57.8 3.28 57.79C2.44 57.79 2.08 57.41 2.08 56.55C2.07 52.57 2.07 48.6 2.08 44.62C2.08 43.69 2.43 43.36 3.38 43.36C5.36 43.36 7.34 43.36 9.31 43.36C11.29 43.36 13.27 43.36 15.24 43.36C16.17 43.36 16.51 43.7 16.51 44.65C16.51 47.65 16.51 50.65 16.52 53.64C16.52 53.97 16.44 54.15 16.13 54.31C14.88 54.99 14.05 56.02 13.65 57.38ZM26.81 61.8C26.79 62.01 26.49 61.92 26.31 61.92C25 61.93 23.69 61.92 22.38 61.92C22.38 61.91 22.38 61.91 22.38 61.9C21.03 61.9 19.68 61.95 18.33 61.89C16.8 61.82 15.59 60.55 15.5 59.08C15.41 57.49 16.39 56.19 17.91 55.83C18.21 55.76 18.41 55.81 18.63 56.02C20.03 57.31 21.68 57.91 23.59 57.77C23.81 57.75 23.99 57.81 24.18 57.92C24.95 58.37 25.73 58.81 26.5 59.25C26.61 59.31 26.79 59.37 26.8 59.45C26.9 60.22 26.88 61.01 26.81 61.8ZM26.57 56.81C27.95 55.94 28.83 54.75 29.41 53.29C30.22 51.25 31.09 49.24 31.95 47.2C32.19 47.29 32.19 47.5 32.25 47.66C33.03 49.51 33.83 51.36 34.57 53.23C35.16 54.71 36.03 55.93 37.43 56.79C37.11 57.16 36.67 57.29 36.3 57.52C36.06 57.67 35.92 57.42 35.77 57.32C34.81 56.7 33.9 56.02 32.72 55.82C31.13 55.55 29.71 55.89 28.43 56.87C27.53 57.57 27.54 57.58 26.57 56.81ZM38.27 61.92C36.79 61.91 35.32 61.92 33.84 61.92C32.36 61.92 30.88 61.9 29.41 61.93C28.99 61.94 28.86 61.81 28.89 61.4C28.92 60.99 28.95 60.56 28.89 60.15C28.76 59.34 29.17 58.85 29.77 58.45C30.92 57.67 32.12 57.6 33.36 58.23C33.42 58.26 33.47 58.29 33.52 58.33C34.96 59.53 36.66 60.15 38.48 60.48C38.94 60.56 39.28 60.8 39.21 61.31C39.13 61.83 38.73 61.92 38.27 61.92ZM48.49 59.18C48.35 60.59 47.18 61.8 45.74 61.88C44.35 61.96 42.95 61.91 41.56 61.92C41.4 61.92 41.21 61.97 41.24 61.68C41.42 59.96 40.58 58.95 38.95 58.43C39.57 58.04 40.1 57.72 40.87 57.76C42.54 57.84 44.01 57.23 45.24 56.11C45.59 55.79 45.89 55.75 46.3 55.87C47.72 56.29 48.63 57.67 48.49 59.18ZM61.92 60.44C61.92 61.92 61.92 61.92 60.44 61.92C57.07 61.92 53.7 61.92 50.33 61.92C50.1 61.92 49.88 61.92 49.58 61.92C50.02 61.14 50.41 60.41 50.52 59.57C50.82 57.18 49.62 55.04 47.39 54.1C47.01 53.94 46.9 53.82 47.08 53.4C47.5 52.41 47.52 51.34 47.49 50.27C47.27 48.6 46.9 46.98 46.15 45.48C46.21 45.43 46.22 45.41 46.23 45.4C47.49 45.31 47.49 45.31 47.49 46.58C47.49 47.43 47.5 48.29 47.48 49.14C47.47 49.43 47.55 49.53 47.86 49.53C51.04 49.52 54.22 49.52 57.4 49.53C57.45 49.53 57.48 49.52 57.52 49.51C57.66 49.47 57.75 49.38 57.79 49.23C57.79 49.18 57.8 49.13 57.8 49.07C57.79 48.55 57.8 48.02 57.8 47.5C57.8 47.26 57.8 47.02 57.8 46.77C57.8 46.54 57.8 46.31 57.8 46.07C57.8 45.87 57.72 45.66 57.87 45.47C58.01 45.28 58.22 45.38 58.39 45.38C59.37 45.37 60.35 45.4 61.32 45.36C61.83 45.34 61.94 45.5 61.94 45.99C61.92 50.82 61.92 55.63 61.92 60.44Z" fill="white"/>
<path d="M46.07 22.74C51.81 22.72 57.56 22.73 63.3 22.73C63.53 22.73 63.76 22.75 63.98 22.76C63.98 15.89 63.98 9.02 63.98 2.14C62.2 2.02 60.4101 2.09 58.6301 2.1C57.9901 2.1 57.5201 2.06 57.2001 1.37C56.8601 0.63 56.0701 0.33 55.3601 0.0100002C54.9401 0.0100002 54.5301 0.0100002 54.1101 0.0100002C53.2101 0.33 52.4 0.77 51.98 1.69C51.83 2.01 51.6501 2.09 51.3101 2.09C49.5601 2.07 47.8101 2.11 46.07 2.07C45.51 2.06 45.38 2.21 45.39 2.76C45.41 9.19 45.41 15.62 45.39 22.05C45.39 22.59 45.51 22.74 46.07 22.74ZM54.7201 2.09C55.2901 2.1 55.7401 2.57 55.7301 3.13C55.72 3.68 55.2301 4.15 54.6801 4.13C54.1201 4.12 53.66 3.64 53.67 3.08C53.68 2.52 54.1501 2.08 54.7201 2.09ZM48.03 4.12C49.13 4.17 50.2401 4.14 51.3401 4.13C51.6401 4.13 51.81 4.18 51.96 4.48C52.53 5.6 53.4701 6.2 54.7201 6.19C55.9501 6.19 56.8701 5.59 57.4301 4.5C57.5801 4.21 57.7401 4.12 58.0401 4.13C59.1901 4.15 60.33 4.15 61.48 4.13C61.83 4.12 61.93 4.22 61.93 4.58C61.92 9.79 61.92 14.99 61.93 20.2C61.93 20.55 61.8501 20.66 61.4901 20.66C56.9701 20.65 52.45 20.65 47.94 20.66C47.52 20.66 47.48 20.5 47.48 20.16C47.49 17.56 47.4901 14.95 47.4901 12.35C47.4901 9.81 47.5 7.27 47.48 4.73C47.47 4.29 47.52 4.1 48.03 4.12Z" fill="white"/>
<path d="M13.57 60.57C13.42 60.18 13.19 60.02 12.78 60.03C11.49 60.04 10.2 60.04 8.92002 60.03C8.50002 60.03 8.39002 60.18 8.42002 60.59C8.50002 61.85 8.02002 62.85 6.99002 63.59C6.62002 63.86 6.18002 63.87 5.77002 63.99C9.77002 63.99 13.77 63.99 17.77 63.99C15.65 63.72 14.3 62.52 13.57 60.57Z" fill="white"/>
<path d="M57.53 1.52C57.76 1.91 58.09 1.96 58.48 1.96C60.04 1.96 61.6 1.96 63.16 1.96C63.45 1.96 63.75 1.93 63.99 2.14C63.99 1.56 63.97 0.97 64 0.39C64.01 0.07 63.93 0 63.61 0C60.86 0.01 58.11 0.01 55.36 0.01C56.35 0.13 57.04 0.69 57.53 1.52Z" fill="white"/>
<path d="M1.98 60.7C2.06 60.12 1.9 59.76 1.35 59.47C0.53 59.05 0.11 58.29 0.01 57.37C0.01 59.45 0.02 61.54 0 63.62C0 63.93 0.07 64 0.39 64C1.76 63.98 3.14 63.99 4.51 63.99C2.81 63.7 1.78 62.15 1.98 60.7Z" fill="white"/>
<path d="M48.21 49.61C51.21 49.63 54.2 49.61 57.2 49.64C57.76 49.65 57.91 49.47 57.89 48.93C57.85 47.79 57.87 46.64 57.87 45.5C57.82 45.93 57.8 46.36 57.8 46.79C57.8 47.03 57.8 47.27 57.8 47.52C57.81 47.99 57.82 48.45 57.83 48.92C57.83 49.06 57.82 49.16 57.8 49.25C57.78 49.4 57.72 49.5 57.53 49.53C57.44 49.56 57.32 49.58 57.17 49.58C54.15 49.56 51.14 49.57 48.12 49.57C47.4 49.57 47.4 49.57 47.49 50.29C47.41 49.71 47.69 49.61 48.21 49.61Z" fill="white"/>
<path d="M13.9501 45.39C12.4101 45.41 10.8701 45.4 9.34005 45.4C7.76005 45.4 6.18005 45.41 4.60005 45.39C4.27005 45.39 4.12005 45.44 4.13005 45.82C4.16005 46.92 4.15005 48.02 4.13005 49.12C4.12005 49.46 4.25005 49.52 4.56005 49.53C6.19005 49.57 6.20005 49.58 6.20005 47.97C6.20005 47.54 6.34005 47.47 6.73005 47.47C8.81005 47.49 10.8901 47.48 12.9601 47.48C14.5001 47.48 14.4901 47.48 14.4801 45.91C14.4801 45.51 14.3701 45.39 13.9501 45.39Z" fill="white"/>
<path d="M34.02 37.33C34.08 37.42 34.1 37.63 34.25 37.56C34.81 37.3 35.37 37.01 35.92 36.73C35.95 36.72 35.95 36.66 35.97 36.62C35.91 36.5 35.84 36.37 35.77 36.24C34.13 33.39 29.98 33.34 28.26 36.15C28.02 36.54 27.97 36.77 28.47 36.96C28.82 37.09 29.14 37.28 29.47 37.46C29.7 37.58 29.82 37.6 30 37.33C31.06 35.7 32.92 35.72 34.02 37.33Z" fill="white"/>
<path d="M28.92 30.97C29.48 30.96 29.94 30.49 29.93 29.92C29.92 29.35 29.45 28.89 28.9 28.9C28.35 28.91 27.88 29.39 27.88 29.95C27.88 30.5 28.37 30.98 28.92 30.97Z" fill="white"/>
<path d="M35.07 30.97C35.61 30.98 36.11 30.51 36.12 29.96C36.13 29.41 35.67 28.92 35.12 28.9C34.56 28.88 34.09 29.35 34.08 29.91C34.06 30.48 34.51 30.96 35.07 30.97Z" fill="white"/>
<path d="M49.9401 10.13C49.9501 10.15 49.9701 10.16 49.9801 10.17C50.3601 10.43 50.3301 10.69 50.1201 11.09C49.0701 13.07 49.4701 15.48 51.0501 17.07C52.6301 18.65 55.0501 19.05 57.0301 18C57.4701 17.77 57.7001 17.83 58.0001 18.18C58.3401 18.57 58.7401 19.17 59.1201 19.18C59.5701 19.19 59.8901 18.5 60.2901 18.15C60.3101 18.14 60.3201 18.12 60.3301 18.11C60.5401 17.95 60.5401 17.8 60.3401 17.61C59.9701 17.27 59.6401 16.9 59.2701 16.56C59.0501 16.36 59.0301 16.2 59.1801 15.93C59.6301 15.16 59.8401 14.32 59.8501 13.43C59.8601 12.97 59.7801 12.52 59.6601 12.08C58.7701 8.88 55.2301 7.34 52.3001 8.89C51.9501 9.07 51.7301 9.09 51.4701 8.77C51.2001 8.43 50.8401 8.16 50.5601 7.83C50.3401 7.57 50.1801 7.59 49.9701 7.84C49.6301 8.23 48.9601 8.54 48.9401 9C48.9301 9.43 49.6001 9.74 49.9401 10.13ZM56.8901 11.24C57.8201 12.17 58.0601 13.6 57.4901 14.61C56.1701 13.29 54.8301 11.96 53.5101 10.64C54.5101 10.07 55.9601 10.31 56.8901 11.24ZM51.9301 12.11C53.2301 13.41 54.4701 14.66 55.7201 15.91C55.8101 16 55.8901 16.09 55.9801 16.18C54.8801 16.76 53.5601 16.57 52.6201 15.71C51.6201 14.79 51.3501 13.47 51.9301 12.11Z" fill="white"/>
</svg>
