<svg width="64" height="64" viewBox="0 0 64 64" fill="none" xmlns="http://www.w3.org/2000/svg">
<path d="M37.14 34.84C37.51 34.97 37.87 35.13 38.27 35.14C41 36.05 43.73 36.13 46.45 35.13C47.15 34.75 47.96 34.6 48.62 34.13C48.64 34.18 48.65 34.24 48.67 34.29C48.7 34.27 48.72 34.26 48.75 34.25C49.63 33.84 50.4 33.3 51.11 32.65C53.22 30.72 54.57 28.36 55.17 25.56C55.25 25.17 55.45 24.97 55.83 24.84C58.98 23.78 60.33 20.39 58.76 17.45C58.58 17.11 58.52 16.76 58.48 16.38C58.38 15.39 58.41 14.38 58.23 13.4C57.12 7.45 53.75 3.32 48.2 0.95C46.81 0.36 45.35 0.1 43.85 0.0100002C43.64 0.0100002 43.43 0.0100002 43.23 0.0100002C42.98 0.21 42.73 0.19 42.48 0.0100002C41.9 0.0100002 41.31 0.0100002 40.73 0.0100002C39.83 0.16 38.92 0.14 38.04 0.42C32.21 2.27 28.4 6.08 26.76 12C26.59 12.6 26.6 12.6 26.11 12.22C23.71 10.32 21.35 8.38 18.96 6.47C18.04 5.74 17.68 5.74 16.76 6.47C15.88 7.17 15.01 7.88 14.13 8.58C13.27 9.27 12.41 9.96 11.55 10.65C11.44 10.74 11.32 10.89 11.18 10.84C10.98 10.77 11.06 10.55 11.06 10.4C11.05 10 11.07 9.61 11.05 9.21C10.99 8.44 10.58 8 9.82004 7.98C8.22004 7.95 6.62004 7.95 5.01004 7.98C4.41004 7.99 4.01004 8.32 3.82004 8.9C3.72004 9.2 3.72004 9.51 3.72004 9.83C3.72004 11.97 3.71004 14.12 3.73004 16.26C3.73004 16.75 3.58004 17.09 3.20004 17.38C2.32004 18.05 1.47004 18.75 0.610037 19.44C0.340037 19.66 0.130037 19.9 0.100037 20.25C0.110037 20.25 0.130037 20.25 0.140037 20.25C0.140037 20.46 0.140037 20.68 0.140037 20.89C0.130037 20.89 0.110037 20.89 0.100037 20.89C0.100037 20.91 0.100037 20.93 0.100037 20.95C0.150037 21.25 0.320037 21.48 0.510037 21.7C1.42004 22.76 2.39004 23.76 3.30004 24.81C3.56004 25.1 3.88004 25.35 4.26004 25.34C4.93004 25.33 4.96004 25.71 4.96004 26.22C4.95004 29.18 4.95004 32.13 4.95004 35.09C4.95004 35.49 4.93004 35.88 4.96004 36.28C5.01004 36.98 5.41004 37.37 6.11004 37.43C6.38004 37.45 6.65004 37.44 6.92004 37.44C14.2 37.44 21.48 37.44 28.76 37.44C30.57 37.44 30.79 37.22 30.79 35.38C30.79 33.31 30.79 31.24 30.79 29.07C32.03 31.36 33.7 33.09 35.91 34.27C35.95 34.28 35.99 34.3 36.03 34.31C36.05 34.25 36.05 34.2 36.07 34.14C36.52 34.23 36.71 34.7 37.14 34.84ZM57.29 19.92C57.3 21.12 56.59 22.17 55.3 22.73C55.3 21.77 55.3 20.86 55.3 19.95C55.3 19.04 55.3 18.13 55.3 17.16C56.56 17.67 57.28 18.7 57.29 19.92ZM6.37004 10.15C7.06004 10.16 7.74004 10.17 8.43004 10.15C8.77004 10.14 8.89004 10.27 8.84004 10.58C8.83004 10.64 8.83004 10.71 8.84004 10.77C9.17004 12.43 8.56004 13.64 7.08004 14.46C6.71004 14.66 6.41004 14.98 5.99004 15.32C5.99004 13.64 6.00004 12.06 5.98004 10.49C5.98004 10.18 6.12004 10.15 6.37004 10.15ZM4.96004 22.5C4.62004 22.77 4.45004 22.78 4.18004 22.44C3.78004 21.94 3.35004 21.45 2.87004 21.01C2.50004 20.67 2.74004 20.53 3.00004 20.33C6.04004 17.9 9.07004 15.47 12.1 13.04C13.88 11.61 15.67 10.18 17.44 8.74C17.73 8.5 17.9 8.46 18.22 8.72C20.84 10.84 23.47 12.94 26.1 15.04C26.33 15.22 26.39 15.41 26.43 15.71C26.57 16.71 26.11 17.52 25.65 18.4C23.4 16.6 21.16 14.81 18.93 13.01C17.98 12.25 17.74 12.24 16.78 13.02C12.84 16.17 8.89004 19.33 4.96004 22.5ZM19.89 35.26C18.54 35.24 17.19 35.24 15.84 35.26C15.47 35.27 15.35 35.19 15.35 34.79C15.38 33.46 15.36 32.13 15.36 30.8C15.36 29.49 15.37 28.18 15.35 26.87C15.35 26.52 15.38 26.36 15.81 26.37C17.18 26.4 18.55 26.39 19.92 26.38C20.23 26.38 20.35 26.44 20.35 26.79C20.34 29.47 20.33 32.16 20.35 34.84C20.36 35.2 20.22 35.26 19.89 35.26ZM28.07 35.26C26.36 35.23 24.66 35.23 22.95 35.26C22.49 35.27 22.36 35.16 22.37 34.68C22.39 31.7 22.38 28.73 22.38 25.75C22.38 24.66 22.05 24.32 20.98 24.32C18.9 24.32 16.82 24.32 14.74 24.32C13.67 24.32 13.31 24.67 13.31 25.74C13.31 28.72 13.3 31.69 13.32 34.67C13.32 35.11 13.25 35.27 12.76 35.26C11.05 35.22 9.35004 35.23 7.64004 35.26C7.19004 35.27 7.10004 35.13 7.11004 34.71C7.13004 32.9 7.12004 31.09 7.12004 29.28C7.12004 27.47 7.13004 25.66 7.11004 23.85C7.11004 23.51 7.20004 23.29 7.48004 23.07C10.8 20.43 14.11 17.77 17.41 15.1C17.74 14.83 17.93 14.81 18.28 15.09C20.54 16.93 22.82 18.74 25.1 20.55C25.38 20.78 25.57 21.02 25.68 21.39C26.07 22.73 26.9 23.75 28.15 24.37C28.53 24.56 28.63 24.77 28.63 25.17C28.61 28.36 28.61 31.54 28.63 34.73C28.62 35.15 28.51 35.27 28.07 35.26ZM29.36 22.66C28.23 22.32 27.47 21.3 27.39 20.05C27.31 18.84 28.01 17.79 29.36 17.16C29.36 19.03 29.36 20.84 29.36 22.66ZM28.44 15.34C28.8 10.72 30.7 6.99 34.52 4.44C39.22 1.31 44.21 1.08 49.14 3.8C53.58 6.25 55.84 10.2 56.27 15.36C54.89 14.81 53.59 15 52.31 14.98C51.98 14.98 51.78 14.88 51.61 14.6C51.19 13.93 50.75 13.28 50.3 12.62C49.8 11.89 49.31 11.78 48.56 12.24C46.52 13.52 44.48 14.8 42.34 16.15C42.34 15.22 42.34 14.37 42.34 13.51C42.34 12.04 41.87 11.7 40.51 12.21C38.24 13.06 35.96 13.9 33.69 14.76C33.33 14.9 32.98 14.95 32.6 14.96C31.24 15.02 29.86 14.8 28.44 15.34ZM31.68 25.49C31.46 24.62 31.39 23.72 31.39 22.83C31.38 21.04 31.38 19.25 31.39 17.46C31.39 17.23 31.29 16.89 31.71 16.94C33.88 17.22 35.68 16.07 37.61 15.43C38.51 15.13 39.39 14.77 40.36 14.41C40.36 15.58 40.37 16.64 40.36 17.7C40.35 18.17 40.47 18.58 40.91 18.81C41.34 19.03 41.75 18.92 42.14 18.67C44.3 17.31 46.48 15.97 48.63 14.59C48.98 14.37 49.14 14.4 49.34 14.74C49.64 15.26 50.01 15.74 50.32 16.26C50.61 16.74 51 16.97 51.55 16.94C51.65 16.93 51.76 16.94 51.86 16.94C53.32 16.94 53.34 16.94 53.32 18.44C53.3 20.31 53.4 22.19 53.24 24.06C52.83 28.95 48.8 33.14 43.91 33.77C38.17 34.5 33.05 31.03 31.68 25.49Z" fill="#3247D5"/>
<path d="M63.95 63.36C63.95 57.74 63.95 52.11 63.95 46.49C63.8 46.06 63.85 45.6 63.68 45.17C62.81 43.05 61.32 41.58 59.16 40.83C56.1 39.78 53.01 38.79 49.96 37.72C48.63 37.25 48.79 37.52 48.75 35.98C48.74 35.42 48.85 34.85 48.67 34.3C47.97 34.71 47.18 34.93 46.46 35.3C46.47 36.16 46.53 37.02 46.46 37.87C46.37 38.94 45.74 39.75 44.9 40.39C42.84 41.95 39.86 41.31 38.62 39.05C38.36 38.57 38.19 38.07 38.22 37.51C38.26 36.79 38.26 36.06 38.27 35.34C38.26 35.34 38.26 35.34 38.25 35.33C37.55 35.21 36.89 34.98 36.36 34.48C36.27 34.39 36.16 34.34 36.04 34.3C35.83 35.04 35.96 35.79 35.96 36.54C35.96 37.12 35.77 37.38 35.22 37.57C31.94 38.66 28.65 39.71 25.4 40.87C23.83 41.43 22.66 42.48 21.72 43.83C21.56 44.06 21.51 44.38 21.27 44.55C21.21 44.54 21.17 44.53 21.14 44.5C21.08 44.44 21.04 44.36 21 44.29C18.79 40.79 15.64 39 11.47 39.07C8.39001 39.12 5.73001 40.23 3.52001 42.33C1.52001 44.23 0.24001 46.54 0.0100098 49.36C0.0100098 50.44 0.0100098 51.53 0.0100098 52.61C0.14001 53.26 0.12001 53.92 0.34001 54.56C1.10001 56.82 2.36001 58.72 4.22001 60.25C8.80001 64.02 15.93 63.81 19.98 59.43C20.14 59.26 20.28 59.05 20.57 58.95C20.59 60.27 20.57 61.54 20.58 62.8C20.58 63.37 20.76 63.82 21.37 63.98C35.31 63.98 49.26 63.98 63.2 63.98C63.5 63.84 63.74 63.62 63.95 63.36ZM20.01 55.78C18.21 58.99 15.44 60.67 11.78 60.72C6.92001 60.79 2.70001 56.95 2.16001 52.07C1.60001 47.13 4.86001 42.55 9.68001 41.5C10.41 41.34 11.15 41.23 11.91 41.25C15.63 41.26 18.8 43.66 20.13 47.49C20.19 47.67 20.25 47.84 20.3 48.02C20.48 48.62 20.87 48.88 21.5 48.88C27.1 48.87 32.7 48.94 38.29 48.82C40 48.78 41.34 49.09 42.34 50.55C42.76 51.16 43.39 51.6 43.82 52.21C43.3 52.72 42.78 53.23 42.26 53.73C41.84 54.14 41.41 54.53 41 54.94C40.66 55.29 40.38 55.36 40.03 54.93C39.73 54.56 39.38 54.23 39.04 53.89C38.39 53.23 37.87 53.2 37.23 53.88C36.83 54.31 36.57 54.38 36.2 53.87C35.93 53.5 35.58 53.2 35.26 52.87C34.61 52.2 34.14 52.2 33.45 52.85C33.04 53.24 32.63 53.62 32.23 54.02C32.04 54.22 31.9 54.27 31.69 54.02C31.43 53.7 31.13 53.4 30.83 53.11C30.34 52.64 29.84 52.62 29.33 53.06C29.01 53.33 28.7 53.61 28.43 53.92C28.2 54.18 28.05 54.13 27.85 53.89C27.64 53.63 27.4 53.4 27.17 53.16C26.56 52.53 26.03 52.5 25.4 53.09C24.84 53.62 24.28 54.15 23.74 54.7C23.52 54.92 23.29 55.03 22.97 54.99C22.49 54.94 22.01 54.96 21.54 54.91C20.8 54.8 20.37 55.13 20.01 55.78ZM61.46 61.94C59.73 61.92 58.01 61.92 56.28 61.94C55.84 61.95 55.73 61.81 55.73 61.38C55.75 58.92 55.74 56.47 55.74 54.01C55.74 53.26 55.38 52.84 54.75 52.83C54.13 52.82 53.71 53.25 53.71 53.96C53.7 56.35 53.69 58.75 53.72 61.14C53.73 61.74 53.63 61.93 52.96 61.93C43.12 61.9 33.27 61.91 23.43 61.92C22.89 61.92 22.72 61.81 22.74 61.24C22.79 59.97 22.76 58.7 22.75 57.43C22.75 57.17 22.73 56.9 23.12 56.98C24.1 57.18 24.7 56.6 25.32 55.98C26.2 55.09 26.22 55.1 27.09 55.99C27.9 56.82 28.29 56.83 29.13 56.04C30.03 55.19 30.03 55.19 30.9 56.09C31.68 56.9 32.09 56.91 32.93 56.12C33.29 55.78 33.68 55.45 34.02 55.09C34.24 54.86 34.39 54.84 34.61 55.1C34.96 55.51 35.35 55.89 35.72 56.28C36.38 56.97 36.93 57.01 37.57 56.32C37.96 55.91 38.17 55.91 38.56 56.33C39.68 57.56 41.13 57.58 42.33 56.43C43.5 55.31 44.68 54.18 45.84 53.05C46.47 52.44 46.49 51.97 45.89 51.34C44.62 49.99 43.33 48.66 42.07 47.3C41.69 46.89 41.24 46.81 40.72 46.81C34.98 46.83 29.23 46.83 23.49 46.84C23.3 46.84 23.12 46.84 22.84 46.84C23.34 44.96 24.36 43.61 26.14 42.98C29.47 41.82 32.83 40.73 36.16 39.59C36.48 39.48 36.58 39.57 36.72 39.83C37.91 42.1 39.81 43.31 42.35 43.31C44.88 43.31 46.79 42.09 47.98 39.83C48.12 39.57 48.22 39.48 48.54 39.59C51.88 40.73 55.23 41.82 58.56 42.98C60.58 43.68 61.92 45.56 61.93 47.7C61.96 52.28 61.94 56.86 61.95 61.44C61.95 61.86 61.83 61.95 61.46 61.94Z" fill="#3247D5"/>
<path d="M63.95 63.36C63.88 63.78 63.57 63.92 63.2 63.98C63.62 63.98 64.17 64.14 63.95 63.36Z" fill="#3247D5"/>
<path d="M43.22 0.0100002C42.97 0.0100002 42.72 0.0100002 42.47 0.0100002C42.72 0.11 42.97 0.11 43.22 0.0100002Z" fill="#3247D5"/>
<path d="M0.0900098 20.25C0.0600098 20.25 0.0400098 20.26 0.0100098 20.25C0.0100098 20.46 0.0100098 20.67 0.0100098 20.87C0.0400098 20.87 0.0600098 20.87 0.0800098 20.88C0.0700098 20.69 0.0700098 20.5 0.0700098 20.31C0.0800098 20.29 0.0900098 20.27 0.0900098 20.25Z" fill="#3247D5"/>
<path d="M38.26 35.14C38.26 35.21 38.26 35.27 38.26 35.34C38.28 35.35 38.3 35.35 38.32 35.36C38.3 35.29 38.29 35.21 38.26 35.14Z" fill="#3247D5"/>
<path d="M46.4 35.33C46.42 35.32 46.44 35.31 46.45 35.3C46.45 35.24 46.45 35.19 46.45 35.13C46.42 35.2 46.42 35.26 46.4 35.33Z" fill="#3247D5"/>
<path d="M47.29 27.29C47.32 27.16 47.41 26.93 47.22 26.93C46.57 26.93 45.85 26.67 45.28 27.05C43.53 28.21 41.68 28.21 39.91 27.33C39.16 26.96 38.49 26.94 37.74 26.9C37.37 26.88 37.33 27.02 37.41 27.34C37.63 28.19 38.21 28.73 38.94 29.13C39.99 29.7 41.12 29.9 42.3 29.89C43.55 29.9 44.74 29.7 45.84 29.08C46.55 28.68 47.1 28.13 47.29 27.29Z" fill="#3247D5"/>
<path d="M46.3 20.93C47.08 20.93 47.08 20.93 47.54 20.33C47.95 19.8 48.87 19.78 49.11 20.39C49.34 20.98 49.72 20.95 50.17 20.93C50.42 20.92 50.67 20.91 50.92 20.93C51.26 20.96 51.35 20.82 51.3 20.49C51.14 19.17 50.04 18.04 48.75 17.87C47.33 17.69 46.02 18.47 45.53 19.77C45.14 20.82 45.22 20.93 46.3 20.93Z" fill="#3247D5"/>
<path d="M38.21 20.93C38.45 20.93 38.56 20.93 38.66 20.93C39.47 20.93 39.47 20.93 39.25 20.13C38.9 18.89 37.86 18.04 36.59 17.96C35.32 17.88 34.12 18.63 33.63 19.81C33.21 20.81 33.28 20.92 34.34 20.92C34.46 20.92 34.59 20.91 34.71 20.92C35.07 20.95 35.33 20.91 35.51 20.48C35.8 19.81 36.84 19.71 37.13 20.34C37.41 21 37.84 20.96 38.21 20.93Z" fill="#3247D5"/>
<path d="M7.76995 46.52C5.36995 46.54 3.42995 48.49 3.40995 50.9C3.39995 53.26 5.39995 55.26 7.77995 55.26C10.2099 55.26 12.1399 53.35 12.1499 50.93C12.1599 48.49 10.1799 46.5 7.76995 46.52ZM7.69995 53.24C6.51995 53.24 5.46995 52.16 5.45995 50.93C5.43995 49.62 6.43995 48.59 7.75995 48.56C9.04995 48.53 10.1299 49.57 10.1399 50.85C10.1399 52.17 9.04995 53.24 7.69995 53.24Z" fill="#3247D5"/>
</svg>
