<svg width="62" height="62" viewBox="0 0 62 62" fill="none" xmlns="http://www.w3.org/2000/svg">
<path d="M60.31 40.15C60.09 39.73 59.98 39.33 59.98 38.85C59.99 27.02 59.99 15.19 59.99 3.37C59.99 1.2 58.8 0.00999975 56.63 0.00999975C49.78 0.00999975 42.93 0.00999975 36.08 0.00999975C29.23 0.00999975 22.38 0.0199998 15.53 -0.0100002C14.81 -0.0100002 14.36 0.22 13.89 0.73C9.42 5.55 4.92 10.36 0.42 15.16C0.12 15.48 0 15.78 0 16.21C0.01 25.66 0.00999999 35.12 0.00999999 44.57C0.00999999 46.82 1.18 47.99 3.43 47.99C12.59 47.99 21.76 47.99 30.92 47.99C32 47.99 32 47.99 32.15 49.04C33.38 57.49 41.14 63.15 49.58 61.74C59.46 60.1 64.97 49.03 60.31 40.15ZM15.66 2.34C15.74 2.06 15.88 2 16.15 2.01C17.23 2.03 18.32 2.02 19.4 2.02C31.77 2.02 44.14 2.02 56.51 2.02C57.71 2.02 57.99 2.29 57.99 3.47C57.99 14.34 57.99 25.21 57.99 36.08C57.99 36.28 57.99 36.49 57.99 36.75C57.33 36.18 56.74 35.65 56.13 35.13C55.89 34.92 56 34.66 56 34.43C55.99 27.16 55.99 19.89 56.01 12.63C56.01 12.11 55.89 11.99 55.37 11.99C41.5 12.01 27.63 12 13.76 12C13.53 12 13.3 12 13 12C13.9 8.74 14.78 5.54 15.66 2.34ZM53.99 33.72C52.74 33.12 51.52 32.63 50.21 32.36C48.96 32.09 47.71 31.95 46.44 32.02C46.09 32.04 45.98 31.97 45.98 31.6C46 29.21 46 26.82 45.98 24.43C45.98 24.06 46.09 23.99 46.43 23.99C48.8 24 51.17 24 53.54 24C53.75 24 53.99 23.92 53.99 24.31C53.99 27.42 53.99 30.54 53.99 33.72ZM54 21.54C54 21.86 53.98 22.02 53.58 22.01C51.19 21.99 48.79 21.99 46.4 22.01C46.06 22.01 45.99 21.91 45.99 21.59C46 19.2 46 16.8 45.99 14.41C45.99 14.07 46.09 14 46.41 14C48.8 14.01 51.2 14.01 53.59 14C53.93 14 54 14.1 54 14.42C53.98 15.63 53.99 16.83 53.99 18.04C53.99 19.21 53.98 20.37 54 21.54ZM35.99 34.3C35.99 34.04 36.09 33.99 36.32 34C37.33 34.01 38.34 34 39.35 34C38.14 34.83 37.06 35.72 36 36.82C36 35.9 36.01 35.1 35.99 34.3ZM36.44 32.01C36.09 32.02 35.99 31.92 35.99 31.56C36.01 29.19 36.01 26.81 35.99 24.44C35.99 24.09 36.08 23.99 36.44 23.99C38.81 24.01 41.19 24.01 43.56 23.99C43.91 23.99 44.01 24.08 44.01 24.44C43.99 26.81 43.99 29.19 44.01 31.56C44.01 31.91 43.92 32.01 43.56 32.01C42.35 31.99 41.14 32 39.93 32C38.77 32 37.6 31.99 36.44 32.01ZM43.56 22.01C41.19 21.99 38.81 21.99 36.44 22.01C36.09 22.01 35.99 21.92 35.99 21.56C36.01 20.35 36 19.15 36 17.94C36 16.77 36.01 15.61 35.99 14.44C35.98 14.09 36.08 14 36.44 14C38.81 14.02 41.19 14.02 43.56 14C43.91 14 44.01 14.09 44.01 14.45C43.99 16.82 43.99 19.2 44.01 21.57C44.01 21.92 43.91 22.01 43.56 22.01ZM25.99 24.44C25.98 24.09 26.08 23.99 26.44 23.99C28.81 24.01 31.19 24.01 33.56 23.99C33.91 23.99 34.01 24.08 34.01 24.44C33.99 26.81 33.99 29.19 34.01 31.56C34.01 31.91 33.92 32.01 33.56 32.01C31.19 31.99 28.81 31.99 26.44 32.01C26.09 32.01 25.99 31.92 25.99 31.56C26.01 30.35 26 29.15 26 27.94C26 26.77 26.02 25.61 25.99 24.44ZM34.01 21.59C34.01 21.91 33.94 22.01 33.6 22.01C31.21 21.99 28.81 22 26.42 22.01C26.1 22.01 26 21.94 26 21.6C26.02 19.21 26.01 16.81 26 14.42C26 14.1 26.07 14 26.41 14C28.8 14.02 31.2 14.02 33.59 14C33.99 14 34.01 14.16 34.01 14.47C33.99 15.66 34 16.84 34 18.03C34 19.22 33.99 20.4 34.01 21.59ZM24.01 31.56C24.02 31.91 23.92 32.01 23.56 32.01C21.19 31.99 18.81 31.99 16.44 32.01C16.09 32.01 15.99 31.92 15.99 31.56C16.01 29.19 16.01 26.81 15.99 24.44C15.99 24.09 16.08 23.99 16.44 23.99C18.81 24.01 21.19 24.01 23.56 23.99C23.91 23.99 24.01 24.08 24.01 24.44C23.99 25.65 24 26.86 24 28.06C24 29.23 23.99 30.39 24.01 31.56ZM24.01 34.44C23.99 36.81 23.99 39.19 24.01 41.56C24.01 41.91 23.92 42.01 23.56 42.01C22.35 41.99 21.14 42 19.94 42C18.77 42 17.61 41.99 16.44 42.01C16.09 42.01 16 41.91 16 41.56C16.02 39.19 16.02 36.81 16 34.44C16 34.09 16.09 33.99 16.45 33.99C18.82 34.01 21.2 34.01 23.57 33.99C23.92 33.99 24.01 34.08 24.01 34.44ZM24.01 21.56C24.01 21.9 23.94 22.02 23.57 22.02C21.2 22 18.82 22 16.45 22.02C16.02 22.02 15.99 21.86 16 21.52C16.02 20.33 16.01 19.15 16.01 17.96C16.01 16.79 16.02 15.63 16 14.46C15.99 14.11 16.07 14 16.43 14C18.8 14.02 21.18 14.02 23.55 14C23.89 14 24.01 14.07 24.01 14.44C23.99 16.81 24 19.18 24.01 21.56ZM14.01 15.02C14.01 17.16 14 19.31 14.02 21.45C14.02 21.86 13.96 22.02 13.5 22.01C11.16 21.99 8.83 22 6.5 22.01C6.15 22.01 6 21.97 6 21.55C6.03 19.47 6.01 17.39 6.01 15.25C7.19 15.64 7.96 16.68 8 17.9C8.02 18.46 8.02 19.02 8 19.59C7.99 19.89 8.04 20.08 8.4 20.01C8.44 20 8.48 20.01 8.52 20.01C9.26 19.98 10.2 20.31 10.69 19.88C11.15 19.49 11.17 18.56 11.36 17.86C11.67 16.74 11.99 15.62 12.28 14.5C12.38 14.11 12.55 13.99 12.96 14C14.01 14.03 14.01 14 14.01 15.02ZM14.01 41.56C14.02 41.91 13.92 42.01 13.56 42.01C11.19 41.99 8.81 41.99 6.44 42.01C6.1 42 6 41.91 6 41.56C6.02 39.19 6.02 36.81 6 34.44C6 34.09 6.09 33.99 6.45 33.99C8.82 34.01 11.2 34.01 13.57 33.99C13.92 33.99 14.02 34.08 14.02 34.44C14 35.65 14.01 36.85 14.01 38.06C14.01 39.22 13.99 40.39 14.01 41.56ZM6 31.56C6.02 29.19 6.02 26.81 6 24.44C6 24.09 6.09 23.99 6.45 23.99C7.65 24.02 8.86 24 10.07 24C11.24 24 12.4 24.01 13.57 23.99C13.92 23.98 14.02 24.08 14.02 24.44C14 26.81 14 29.19 14.02 31.56C14.02 31.91 13.93 32.01 13.57 32.01C11.2 31.99 8.82 31.99 6.45 32.01C6.09 32.01 6 31.91 6 31.56ZM12.78 4.86C12.81 4.88 12.85 4.9 12.88 4.92C11.84 8.68 10.79 12.43 9.73 16.27C9.29 15.32 8.76 14.56 7.97 13.98C7.17 13.4 6.28 13.11 5.2 12.99C7.76 10.24 10.27 7.55 12.78 4.86ZM32.18 44.7C32.04 45.09 32.27 45.65 31.98 45.89C31.65 46.16 31.1 45.98 30.65 45.98C21.59 45.99 12.54 45.98 3.48 45.98C2.28 45.98 2 45.71 2 44.53C2 35.75 2 26.96 2 18.18C2 16.87 2.56 15.91 3.73 15.31C3.8 15.28 3.88 15.27 4.01 15.23C4.01 15.5 4.01 15.72 4.01 15.94C4.01 25.08 4.02 34.22 4 43.36C4 43.88 4.12 44 4.64 44C13.61 43.98 22.59 43.99 31.56 43.97C32.14 43.98 32.41 44.06 32.18 44.7ZM31.23 42.02C29.68 41.91 28.11 41.98 26.55 42C26.15 42.01 25.98 41.95 25.98 41.48C26.01 39.15 26 36.82 25.98 34.49C25.98 34.08 26.09 33.97 26.49 33.98C27.67 34.02 28.83 34 30 34C31.19 34 32.37 34.01 33.56 33.99C33.9 33.98 34.02 34.07 34.01 34.43C33.99 36.03 33.99 37.63 34.01 39.23C34.01 39.77 33.57 40.12 33.47 40.6C33.2 41.85 32.42 42.11 31.23 42.02ZM46.97 59.99C39.8 59.97 33.98 54.12 34 46.94C34.02 39.8 39.87 33.99 47.02 34C54.19 34.01 60.01 39.87 59.99 47.05C59.97 54.18 54.12 60 46.97 59.99Z" fill="#3247D5"/>
<path d="M50.05 48.64C49.8 48.4 49.74 48.2 49.85 47.84C50.23 46.6 49.94 45.42 48.87 44.74C48.01 44.2 47.93 43.58 47.99 42.76C48.01 42.55 47.99 42.34 47.99 42.14C47.99 41.94 47.99 41.72 47.99 41.52C47.99 39.94 47.99 39.95 46.39 39.99C46.04 40 45.98 40.11 45.99 40.42C46.01 41.5 45.99 42.58 46 43.67C46 44 45.95 44.21 45.6 44.39C44.18 45.13 43.63 46.73 44.24 48.16C44.84 49.59 46.37 50.31 47.89 49.84C48.2 49.74 48.37 49.77 48.59 50C49.12 50.56 49.67 51.1 50.22 51.63C50.58 51.97 50.89 52.62 51.3 52.57C51.69 52.53 52.01 51.93 52.39 51.6C52.65 51.37 52.66 51.22 52.4 50.97C51.6 50.2 50.84 49.41 50.05 48.64ZM47.02 47.99C46.48 48 46.02 47.57 46 47.03C45.98 46.47 46.44 45.99 47 46C47.54 46 47.98 46.45 47.99 46.99C47.99 47.52 47.55 47.98 47.02 47.99Z" fill="#3247D5"/>
<path d="M47.03 37.99C47.57 37.97 48 37.51 47.99 36.97C47.98 36.43 47.53 35.99 46.99 36C46.43 36 45.97 36.49 46 37.05C46.03 37.59 46.49 38.01 47.03 37.99Z" fill="#3247D5"/>
<path d="M40.05 39C39.51 38.97 39.04 39.39 39.01 39.93C38.97 40.47 39.39 40.94 39.93 40.99C40.49 41.04 40.99 40.59 41.01 40.03C41.01 39.49 40.58 39.03 40.05 39Z" fill="#3247D5"/>
<path d="M54.02 39C53.48 38.98 53.02 39.42 53 39.95C52.98 40.51 53.44 40.99 54 40.99C54.54 40.99 54.99 40.54 54.99 40C55 39.47 54.56 39.01 54.02 39Z" fill="#3247D5"/>
<path d="M37.03 46C36.49 45.98 36.03 46.41 36 46.95C35.98 47.49 36.4 47.96 36.94 47.99C37.5 48.03 37.99 47.57 38 47.01C38 46.47 37.57 46.01 37.03 46Z" fill="#3247D5"/>
<path d="M56.98 47.99C57.52 47.99 57.97 47.55 57.98 47.02C57.99 46.48 57.56 46.02 57.02 46C56.46 45.98 55.98 46.44 55.99 47C56 47.54 56.44 47.98 56.98 47.99Z" fill="#3247D5"/>
<path d="M39.94 52.99C39.4 53.02 38.98 53.49 39 54.02C39.02 54.56 39.48 54.99 40.02 54.98C40.56 54.97 41 54.51 40.99 53.98C40.99 53.42 40.5 52.96 39.94 52.99Z" fill="#3247D5"/>
<path d="M53.94 52.99C53.4 53.02 52.9701 53.48 52.9901 54.02C53.0101 54.56 53.47 54.99 54.01 54.98C54.55 54.97 54.9901 54.52 54.9901 53.98C54.9901 53.42 54.5 52.96 53.94 52.99Z" fill="#3247D5"/>
<path d="M47.01 55.99C46.44 55.98 45.98 56.45 46 57.02C46.02 57.56 46.47 57.99 47.01 57.99C47.55 57.98 47.99 57.53 47.99 56.99C47.99 56.45 47.55 56 47.01 55.99Z" fill="#3247D5"/>
<path d="M16.63 10.02C23.06 10 29.5 10.01 35.93 10.01C42.43 10.01 48.92 10 55.42 10.02C55.88 10.02 56.01 9.92 56 9.45C55.97 7.81 55.97 6.16 56 4.52C56.01 4.11 55.9 4 55.49 4C42.5 4.01 29.5 4.01 16.51 4C16.1 4 15.99 4.1 16 4.51C16.03 6.13 16.03 7.76 16 9.38C15.98 9.9 16.11 10.02 16.63 10.02ZM19.38 6.01C30.69 6.01 42 6.02 53.3 6C53.87 6 54.02 6.13 54 6.7C53.95 8.01 53.99 8.01 52.67 8.01C47.09 8.01 41.51 8.01 35.93 8.01C30.16 8.01 24.39 8 18.63 8.02C18.11 8.02 17.98 7.9 17.99 7.38C18.03 6.01 18 6.01 19.38 6.01Z" fill="#3247D5"/>
<path d="M52.68 25.67C52.41 25.34 52.22 25.32 51.91 25.65C51.07 26.54 50.18 27.38 49.32 28.26C49.09 28.5 48.94 28.57 48.68 28.29C48.37 27.96 48.06 27.37 47.7 27.42C47.32 27.47 47 28.01 46.66 28.34C46.61 28.38 46.58 28.43 46.53 28.47C46.31 28.63 46.33 28.77 46.53 28.96C47.27 29.68 48.01 30.42 48.73 31.16C48.94 31.38 49.06 31.36 49.27 31.15C50.64 29.76 52.03 28.38 53.41 27C53.5 26.91 53.57 26.82 53.67 26.71C53.59 26.62 53.53 26.54 53.46 26.47C53.2 26.2 52.91 25.96 52.68 25.67Z" fill="#3247D5"/>
<path d="M22.61 15.6C22.35 15.35 22.22 15.35 21.98 15.6C21.19 16.42 20.34 17.19 19.57 18.04C19.14 18.52 18.83 18.57 18.45 18.04C18.26 17.77 18.03 17.53 17.8 17.26C17.63 17.41 17.55 17.47 17.48 17.54C17.21 17.8 16.97 18.1 16.68 18.32C16.28 18.63 16.37 18.83 16.7 19.13C17.36 19.73 17.99 20.37 18.6 21.02C18.9 21.34 19.07 21.4 19.41 21.04C20.47 19.93 21.57 18.86 22.66 17.77C23.74 16.68 23.74 16.69 22.61 15.6Z" fill="#3247D5"/>
<path d="M32.61 35.6C32.38 35.33 32.22 35.34 31.98 35.6C31.1 36.51 30.19 37.39 29.3 38.3C29.08 38.53 28.95 38.55 28.71 38.31C28.38 37.98 28.09 37.36 27.68 37.43C27.3 37.49 26.99 38.04 26.64 38.37C26.61 38.4 26.58 38.43 26.55 38.46C26.28 38.65 26.36 38.8 26.56 39C27.29 39.71 28.01 40.43 28.72 41.16C28.91 41.36 29.03 41.42 29.26 41.18C30.64 39.77 32.05 38.39 33.44 36.99C33.52 36.91 33.59 36.8 33.67 36.7C33.58 36.6 33.51 36.53 33.44 36.45C33.17 36.16 32.87 35.89 32.61 35.6Z" fill="#3247D5"/>
</svg>
