<svg width="63" height="62" viewBox="0 0 63 62" fill="none" xmlns="http://www.w3.org/2000/svg">
<path d="M61.12 12.64C61.76 12.52 62.03 12.05 62 11.4C61.97 10.71 61.97 10.03 62 9.34C62.03 8.68 61.74 8.28 61.12 8.08C60.83 7.98 60.37 7.89 60.3 7.7C60.05 6.93 59.29 6.23 59.94 5.29C60.3 4.77 60.18 4.23 59.69 3.78C59.19 3.31 58.7 2.83 58.23 2.32C57.78 1.84 57.29 1.76 56.71 2.04C56.43 2.17 56.05 2.45 55.87 2.35C55.15 1.99 54.11 2.03 53.91 0.900003C53.79 0.240003 53.29 -0.0299965 52.61 3.46242e-06C52.03 0.0300035 51.44 0.0100035 50.86 0.0100035C49.77 0.0100035 49.6 0.100003 49.26 1.1C49.1 1.56 48.86 1.83 48.39 1.95C48.17 2 47.96 2.1 47.76 2.22C47.48 2.39 47.24 2.37 46.95 2.24C45.67 1.67 45.66 1.67 44.69 2.66C44.42 2.94 44.23 2.99 43.85 2.82C39.77 0.930004 35.47 0.0200035 30.7 0.0100035C30 -0.0199965 29.03 0.0800034 28.05 0.150003C27.59 0.180003 27.14 0.240003 26.69 0.310003C20.61 1.19 15.19 3.57 10.61 7.68C3.02001 14.49 -0.469994 23.04 0.100006 33.25C0.150006 34.11 0.360006 34.96 0.140006 35.85C-0.249994 37.45 0.210006 38.89 1.23001 40.16C1.40001 40.38 1.53001 40.6 1.62001 40.86C3.53001 46.52 6.80001 51.24 11.43 55.02C11.69 55.23 11.74 55.4 11.67 55.75C10.99 59 13.47 62.04 16.74 62C17.79 61.99 18.23 61.23 17.71 60.31C17.22 59.44 16.71 58.58 16.22 57.72C16.14 57.58 15.95 57.44 16.07 57.28C16.28 57 16.27 56.52 16.75 56.49C17.21 56.46 17.63 56.45 17.86 57.01C18.08 57.54 18.46 58.01 18.71 58.53C19.16 59.47 19.79 60 20.87 60.34C23.73 61.22 26.62 61.87 29.61 61.97C38.13 62.27 45.63 59.62 51.93 53.86C61.81 44.82 64.73 30.74 59.35 18.5C59.08 17.88 59.05 17.51 59.6 17.04C60.29 16.47 60.28 16.19 59.91 15.34C59.8 15.1 59.57 14.76 59.66 14.6C60.03 13.87 60 12.84 61.12 12.64ZM4.20001 41.99C5.03001 41.77 5.32001 42.28 5.65001 42.85C7.12001 45.45 8.63001 48.03 10.12 50.62C10.22 50.79 10.39 50.94 10.36 51.17C8.98001 50.56 5.10001 44.76 4.20001 41.99ZM19.59 55.98C19.1 55.37 18.97 54.36 17.87 54.47C17.05 54.56 16.15 54.21 15.42 54.66C14.76 55.06 14.61 55.94 14.15 56.55C13.56 57.33 14.05 57.95 14.38 58.61C14.52 58.73 14.6 58.88 14.66 59.12C14.42 59.08 14.32 58.93 14.23 58.76C13.38 57.65 13.27 56.32 14.04 55.17C14.44 54.56 14.42 54.07 14.06 53.45C11.61 49.25 9.18001 45.04 6.77001 40.82C6.43001 40.22 6.02001 39.95 5.32001 40C4.43001 40.07 3.65001 39.77 3.01001 39.12C2.56001 38.78 2.33001 38.3 2.21001 37.75C2.66001 38.06 2.80001 38.61 3.15001 38.99C4.18001 39.36 5.23001 39.2 6.27001 39.12C6.57001 39.09 6.75001 38.82 6.90001 38.56C7.27001 37.91 7.64001 37.27 8.01001 36.63C8.01001 36.42 8.01001 36.21 8.01001 36C7.91001 35.81 7.82001 35.62 7.72001 35.43C7.55001 35.26 7.43001 35.05 7.36001 34.77C7.71001 34.78 7.79001 35.02 7.86001 35.26C7.97001 35.45 8.12001 35.62 8.14001 35.85C8.24001 35.92 8.26001 36.02 8.24001 36.13C8.50001 37.01 8.32001 37.83 7.82001 38.56C7.43001 39.12 7.47001 39.6 7.80001 40.17C10.26 44.4 12.71 48.65 15.15 52.9C15.48 53.48 15.89 53.7 16.56 53.67C17.83 53.6 18.8 54.18 19.47 55.26C19.6 55.45 19.75 55.68 19.59 55.98ZM25.66 56.93C24.03 54.09 22.39 51.25 20.74 48.41C20.62 48.2 20.63 48.1 20.84 47.97C21.69 47.49 22.54 47.01 23.37 46.5C23.73 46.28 23.78 46.55 23.9 46.76C25.18 48.97 26.45 51.18 27.73 53.39C28.05 53.95 28.37 54.5 28.69 55.06C28.75 55.17 28.81 55.28 28.88 55.41C28.8 55.47 28.73 55.54 28.65 55.59C27.81 56.08 26.96 56.56 26.12 57.06C25.89 57.22 25.78 57.15 25.66 56.93ZM25.2 16.25C25.81 16.24 26.17 15.94 26.26 15.33C26.35 14.74 26.43 14.15 26.52 13.5C28.13 14.62 28.89 16.08 28.89 17.97C28.89 18.23 28.78 18.27 28.56 18.27C25.4 18.26 22.24 18.26 19.08 18.27C18.85 18.27 18.75 18.22 18.75 17.96C18.75 16.08 19.51 14.61 21.12 13.49C21.21 14.14 21.29 14.71 21.37 15.28C21.46 15.92 21.81 16.24 22.45 16.25C23.37 16.27 24.28 16.26 25.2 16.25ZM23.56 11.79C24.48 11.65 24.73 11.88 24.6 12.79C24.56 13.1 24.5 13.4 24.48 13.71C24.46 14.13 24.31 14.38 23.84 14.24C23.34 14.39 23.2 14.12 23.17 13.68C23.14 13.29 23.1 12.89 23.02 12.51C22.9 12.03 23.1 11.86 23.56 11.79ZM20.01 20.26C21.28 20.28 22.55 20.27 23.82 20.27C25.09 20.27 26.36 20.28 27.63 20.26C27.97 20.26 28.05 20.32 27.95 20.68C27.45 22.42 25.7 23.73 23.83 23.73C21.96 23.73 20.23 22.44 19.71 20.68C19.6 20.34 19.65 20.25 20.01 20.26ZM29.55 33.09C28.21 33.09 26.87 33.09 25.38 33.09C25.97 32.42 26.44 31.85 26.95 31.32C27.37 30.88 27.47 30.42 27.27 29.84C26.84 28.59 26.46 27.33 26.04 26C27.42 26.32 28.59 26.9 29.65 27.72C29.83 27.86 29.83 28.03 29.83 28.22C29.83 29.7 29.83 31.17 29.83 32.65C29.81 32.84 29.89 33.09 29.55 33.09ZM25.12 30.35C24.69 30.83 24.27 31.31 23.85 31.79C22.35 30.33 22.35 30.33 22.96 28.41C23.22 27.6 23.48 26.8 23.73 25.99C23.75 25.93 23.77 25.88 23.83 25.72C24.31 27.21 24.76 28.61 25.21 30.02C25.26 30.17 25.2 30.26 25.12 30.35ZM21.61 25.98C21.39 26.68 21.19 27.32 21 27.95C20.79 28.62 20.59 29.3 20.36 29.97C20.18 30.46 20.29 30.86 20.63 31.23C21.16 31.81 21.67 32.41 22.28 33.1C20.56 33.1 19 33.09 17.43 33.11C17.08 33.11 16.93 33 16.94 32.66C16.94 31.74 16.79 30.88 15.99 30.27C15.73 30.07 15.97 29.89 16.08 29.74C17.43 27.84 19.25 26.61 21.61 25.98ZM21.19 44.81C21.27 44.95 21.35 45.1 21.43 45.25C21.32 45.48 21.08 45.53 20.89 45.63C20.65 45.75 20.63 45.49 20.57 45.38C19.75 43.98 18.94 42.58 18.13 41.18C17.14 39.47 16.12 37.78 15.19 36.05C14.65 35.05 13.99 34.21 13 33.67C12.67 33.49 12.49 33.22 12.39 32.86C12.19 32.12 11.99 31.37 11.72 30.66C11.55 30.21 11.87 30.15 12.1 30.04C12.35 29.92 12.58 29.52 12.94 29.94C13.49 30.59 14.09 31.2 14.68 31.82C15.05 32.21 14.94 32.73 14.97 33.18C15.01 33.89 15.23 34.5 15.59 35.1C17.47 38.33 19.33 41.57 21.19 44.81ZM51.08 51.88C46.57 56.17 41.25 58.78 35.1 59.7C32.08 60.15 29.06 60.09 25.87 59.53C27.5 58.59 28.97 57.74 30.44 56.88C31.36 56.35 31.48 55.91 30.96 55.01C29.12 51.83 27.28 48.64 25.45 45.46C25.02 44.71 24.43 44.27 23.53 44.34C23.35 44.36 23.22 44.34 23.12 44.16C21.4 41.18 19.68 38.19 17.97 35.22C18.1 35.02 18.26 35.09 18.39 35.09C22.01 35.09 25.64 35.1 29.26 35.07C29.76 35.07 29.83 35.24 29.82 35.68C29.8 37.91 29.81 40.14 29.81 42.36C29.81 43.96 30.58 44.73 32.19 44.73C37.21 44.73 42.23 44.73 47.25 44.73C48.84 44.73 49.61 43.94 49.61 42.34C49.61 36.3 49.61 30.26 49.61 24.22C49.61 22.62 48.84 21.86 47.23 21.86C46.52 21.86 45.81 21.85 45.11 21.87C44.79 21.88 44.63 21.83 44.62 21.45C44.61 20.88 44.22 20.61 43.7 20.53C43.54 20.51 43.37 20.51 43.2 20.52C42.56 20.55 42.04 20.48 41.51 19.92C40.49 18.84 38.71 18.97 37.72 20.09C37.42 20.42 37.14 20.57 36.71 20.52C36.42 20.49 36.13 20.5 35.84 20.52C35.24 20.55 34.83 20.85 34.79 21.46C34.76 21.85 34.61 21.88 34.3 21.87C33.49 21.85 32.68 21.85 31.86 21.87C30.71 21.89 29.9 22.66 29.83 23.81C29.8 24.3 29.83 24.8 29.83 25.36C29.11 25.02 28.47 24.72 27.81 24.41C27.78 24.23 27.95 24.18 28.05 24.1C29.06 23.17 29.73 22.04 29.99 20.69C30.06 20.34 30.19 20.23 30.52 20.27C30.66 20.29 30.81 20.28 30.96 20.27C31.45 20.23 31.79 19.97 31.88 19.49C31.98 18.99 31.8 18.55 31.3 18.39C30.95 18.28 30.9 18.1 30.89 17.77C30.8 14.93 29.5 12.83 26.98 11.5C26.73 11.37 26.57 11.19 26.41 10.96C25.4 9.4 22.23 9.41 21.24 10.99C21.09 11.24 20.9 11.38 20.66 11.51C18.17 12.84 16.88 14.93 16.77 17.74C16.76 18.03 16.79 18.27 16.4 18.38C15.89 18.53 15.69 18.96 15.78 19.46C15.87 19.97 16.22 20.31 16.74 20.26C17.4 20.2 17.65 20.42 17.78 21.08C18.06 22.4 18.83 23.46 19.95 24.39C17.69 25.27 15.86 26.63 14.44 28.61C14.17 28.33 13.93 28.07 13.69 27.82C13.3 27.41 12.85 27.31 12.34 27.6C11.55 28.06 10.75 28.51 9.97001 28.97C9.52001 29.24 9.36001 29.65 9.51001 30.14C9.92001 31.51 10.35 32.88 10.76 34.25C10.86 34.57 11.08 34.78 11.36 34.94C12.49 35.57 13.2 36.53 13.82 37.65C15.43 40.56 17.12 43.42 18.8 46.29C18.99 46.61 19.04 46.82 18.82 47.17C18.36 47.87 18.54 48.59 18.94 49.28C20.7 52.31 22.46 55.36 24.21 58.4C24.35 58.65 24.49 58.9 24.69 59.25C23.62 59.11 22.7 58.79 21.78 58.47C21.51 58.38 21.74 58.14 21.77 57.99C22.21 55.79 21.36 53.68 19.56 52.5C18.85 52.04 18.07 51.76 17.23 51.69C16.88 51.66 16.69 51.53 16.51 51.23C14.33 47.43 12.13 43.63 9.93001 39.84C9.75001 39.54 9.75001 39.31 9.89001 38.98C11.38 35.58 9.13001 31.91 5.42001 31.68C4.93001 31.65 4.44001 31.67 4.14001 32.14C3.84001 32.61 4.01001 33.04 4.27001 33.48C4.76001 34.3 5.20001 35.15 5.71001 35.96C6.06001 36.52 5.62001 36.82 5.38001 37.14C5.18001 37.4 4.39001 37.19 4.19001 36.89C3.51001 35.83 3.05001 34.63 2.19001 33.68C2.11001 33.59 2.13001 33.4 2.12001 33.26C1.54001 24.26 4.45001 16.57 10.85 10.24C15.29 5.85 20.67 3.25 26.84 2.34C32.32 1.54 37.62 2.26 42.7 4.5C43.27 4.75 43.74 5.98 43.49 6.54C43.44 6.65 43.37 6.76 43.34 6.88C43.19 7.57 42.79 7.98 42.08 8.15C41.48 8.29 41.27 8.74 41.28 9.33C41.29 10.04 41.29 10.75 41.28 11.45C41.27 12.07 41.53 12.54 42.14 12.65C43.25 12.85 43.27 13.85 43.62 14.59C43.76 14.88 43.44 15.21 43.3 15.5C43.03 16.07 43.12 16.53 43.58 16.96C44.1 17.44 44.59 17.95 45.08 18.46C45.51 18.92 46.02 19.06 46.53 18.71C47.46 18.06 48.18 18.76 48.95 19.03C49.24 19.13 49.25 19.56 49.35 19.84C49.56 20.49 49.99 20.77 50.66 20.75C51.33 20.73 51.99 20.74 52.66 20.75C53.3 20.76 53.79 20.53 53.92 19.87C54.13 18.77 55.12 18.75 55.86 18.4C56.19 18.24 57.41 19.02 57.58 19.38C62.45 30.34 59.81 43.58 51.08 51.88ZM43.57 25.19C44.24 25.19 44.57 24.89 44.63 24.22C44.66 23.89 44.8 23.87 45.06 23.87C45.73 23.88 46.39 23.91 47.06 23.86C47.53 23.83 47.64 23.96 47.64 24.43C47.62 28.24 47.63 32.05 47.63 35.86C47.63 37.98 47.62 40.11 47.64 42.23C47.64 42.63 47.55 42.75 47.13 42.75C42.2 42.73 37.26 42.73 32.33 42.75C31.91 42.75 31.82 42.62 31.82 42.23C31.84 39.25 31.83 36.28 31.83 33.3C31.83 30.34 31.84 27.39 31.82 24.43C31.82 23.94 31.96 23.83 32.41 23.86C33.05 23.9 33.7 23.88 34.35 23.87C34.62 23.87 34.78 23.88 34.81 24.24C34.87 24.9 35.23 25.19 35.9 25.19C38.45 25.2 41.01 25.21 43.57 25.19ZM36.75 22.83C36.76 22.51 36.93 22.51 37.15 22.52C37.36 22.52 37.57 22.51 37.77 22.52C38.38 22.56 38.81 22.34 39 21.72C39.09 21.42 39.32 21.24 39.65 21.22C39.95 21.2 40.25 21.29 40.32 21.56C40.58 22.52 41.29 22.57 42.08 22.52C42.25 22.51 42.48 22.42 42.59 22.61C42.65 22.72 42.64 22.9 42.61 23.03C42.57 23.23 42.39 23.18 42.26 23.18C41.41 23.18 40.56 23.18 39.71 23.18C38.86 23.18 38.01 23.17 37.16 23.18C36.9 23.21 36.75 23.16 36.75 22.83ZM59.55 11.13C58.84 11.28 58.48 11.74 58.33 12.45C58.24 12.89 58.04 13.32 57.8 13.7C57.43 14.28 57.39 14.83 57.76 15.39C58.02 15.79 57.82 16 57.56 16.28C57.28 16.57 57.04 16.71 56.66 16.47C56.09 16.11 55.54 16.17 54.97 16.52C54.59 16.76 54.15 16.96 53.71 17.05C53 17.2 52.54 17.58 52.39 18.28C52.3 18.72 52.02 18.74 51.66 18.73C51.32 18.72 50.99 18.76 50.9 18.3C50.75 17.56 50.27 17.2 49.54 17.03C49.1 16.93 48.67 16.73 48.29 16.5C47.73 16.17 47.2 16.1 46.65 16.46C46.23 16.74 46 16.52 45.7 16.25C45.37 15.96 45.32 15.7 45.54 15.34C45.88 14.79 45.82 14.26 45.49 13.7C45.25 13.29 45.03 12.85 44.93 12.39C44.78 11.7 44.42 11.27 43.74 11.11C43.34 11.02 43.23 10.78 43.26 10.39C43.29 10.04 43.22 9.69 43.72 9.59C44.43 9.45 44.8 8.98 44.94 8.27C45.06 7.7 45.35 7.18 45.64 6.68C45.74 6.51 45.77 6.33 45.78 6.21C45.79 5.79 45.64 5.49 45.47 5.21C45.23 4.81 45.52 4.65 45.73 4.44C45.94 4.22 46.11 3.94 46.5 4.19C47.14 4.6 47.77 4.55 48.42 4.12C48.78 3.88 49.21 3.72 49.62 3.63C50.28 3.48 50.72 3.14 50.86 2.48C50.96 2.03 51.22 1.96 51.62 1.98C51.99 2 52.3 1.97 52.4 2.45C52.54 3.13 52.99 3.49 53.68 3.64C54.14 3.74 54.59 3.95 54.99 4.2C55.55 4.54 56.08 4.6 56.62 4.25C57.04 4 57.28 4.2 57.58 4.47C57.91 4.77 57.95 5.03 57.73 5.38C57.38 5.94 57.45 6.46 57.79 7.01C58.04 7.41 58.24 7.87 58.34 8.32C58.49 9.02 58.86 9.44 59.54 9.59C59.97 9.69 60.02 9.94 60 10.31C59.99 10.69 60.03 11.03 59.55 11.13Z" fill="#3247D5"/>
<path d="M3.01 39.11C3.06 39.07 3.1 39.03 3.15 38.99C3.03 38.93 3 39 3.01 39.11Z" fill="#3247D5"/>
<path d="M7.87001 35.25C7.82001 35.31 7.78001 35.36 7.73001 35.42C7.82001 35.4 7.83001 35.32 7.87001 35.25Z" fill="#3247D5"/>
<path d="M8.01001 36.62C8.20001 36.51 8.06001 36.24 8.24001 36.12C7.92001 36.18 8.17001 36.5 8.01001 36.62Z" fill="#3247D5"/>
<path d="M8.15002 35.84C8.10002 35.89 8.06002 35.94 8.02002 36C8.14002 36.01 8.21002 35.98 8.15002 35.84Z" fill="#3247D5"/>
<path d="M14.39 58.6C14.34 58.65 14.29 58.7 14.24 58.74C14.37 58.77 14.43 58.74 14.39 58.6Z" fill="#3247D5"/>
<path d="M44.37 39.62C42.83 39.61 41.29 39.62 39.75 39.62C38.19 39.62 36.63 39.62 35.07 39.62C34.33 39.62 33.89 40 33.88 40.6C33.88 41.2 34.33 41.61 35.05 41.61C38.15 41.62 41.25 41.62 44.35 41.61C45.09 41.61 45.52 41.23 45.52 40.61C45.53 40 45.11 39.62 44.37 39.62Z" fill="#3247D5"/>
<path d="M39.67 31.63C41.21 31.63 42.75 31.63 44.29 31.63C45.09 31.63 45.52 31.28 45.53 30.64C45.53 30 45.09 29.63 44.31 29.63C41.25 29.63 38.2 29.63 35.14 29.63C34.36 29.63 33.89 30.01 33.89 30.63C33.89 31.25 34.34 31.63 35.13 31.63C36.64 31.64 38.15 31.63 39.67 31.63Z" fill="#3247D5"/>
<path d="M35.1 34.97C38.18 34.98 41.25 34.98 44.33 34.97C45.11 34.97 45.55 34.57 45.53 33.93C45.51 33.32 45.09 32.98 44.33 32.97C42.79 32.96 41.25 32.97 39.71 32.97C38.17 32.97 36.63 32.97 35.09 32.97C34.34 32.97 33.9 33.33 33.88 33.93C33.86 34.54 34.35 34.97 35.1 34.97Z" fill="#3247D5"/>
<path d="M34.76 26.35C34.2 26.4 33.9 26.78 33.9 27.32C33.9 27.83 34.18 28.18 34.7 28.28C34.9 28.32 35.11 28.32 35.32 28.32C36.78 28.32 38.23 28.32 39.69 28.32C41.25 28.32 42.81 28.33 44.37 28.32C45.21 28.31 45.69 27.78 45.51 27.07C45.35 26.45 44.87 26.32 44.31 26.32C41.69 26.32 39.07 26.32 36.45 26.32C35.88 26.32 35.31 26.31 34.76 26.35Z" fill="#3247D5"/>
<path d="M44.35 36.28C41.27 36.28 38.2 36.28 35.12 36.28C34.36 36.28 33.88 36.69 33.88 37.29C33.89 37.9 34.34 38.27 35.13 38.27C36.67 38.28 38.21 38.27 39.75 38.27C41.25 38.27 42.74 38.27 44.24 38.27C44.51 38.27 44.78 38.3 45.03 38.14C45.46 37.88 45.61 37.49 45.49 37.02C45.35 36.45 44.9 36.28 44.35 36.28Z" fill="#3247D5"/>
<path d="M51.64 4.96001C48.66 4.96001 46.24 7.36001 46.23 10.34C46.22 13.33 48.62 15.75 51.6 15.76C54.62 15.78 57.05 13.35 57.05 10.35C57.04 7.37001 54.63 4.96001 51.64 4.96001ZM51.59 13.77C49.7 13.75 48.22 12.23 48.23 10.32C48.25 8.44001 49.8 6.93001 51.68 6.96001C53.57 6.99001 55.07 8.53001 55.04 10.41C55.01 12.31 53.49 13.78 51.59 13.77Z" fill="#3247D5"/>
</svg>
