<svg width="49" height="60" viewBox="0 0 49 60" fill="none" xmlns="http://www.w3.org/2000/svg">
<g clip-path="url(#clip0_3_616)">
<path d="M32.0898 6.21094C31.9385 6.21094 31.8066 6.19141 31.6748 6.14746C31.001 6.14746 30.4346 5.60059 30.4346 4.90723V2.46582H18.4082V4.90723C18.4082 5.53711 17.9053 6.08398 17.2949 6.12793C17.1631 6.17188 17.0117 6.19141 16.8604 6.19141H12.3291V11.2451H36.0547V6.18652H32.0459L32.0898 6.21094ZM33.7891 59.6729C33.5693 59.8682 33.2666 60 32.959 60C32.8955 60 32.8272 60 32.7637 59.9805H2.74414C2.00195 59.9805 1.30859 59.6777 0.805664 59.1748C0.302734 58.6719 0 57.998 0 57.2314V9.69238C0 8.93066 0.302734 8.25684 0.805664 7.75391C1.30859 7.25098 1.98242 6.94824 2.74414 6.94824H9.8877V5.5957C9.8877 5.09277 10.083 4.63867 10.4346 4.28711C10.7617 3.95996 11.2207 3.74023 11.7432 3.74023H15.9717V2.0459C15.9717 1.47949 16.2109 0.976562 16.582 0.610352C16.9482 0.239258 17.4512 0 18.0176 0H30.8936C31.46 0 31.9629 0.239258 32.3291 0.610352C32.7002 0.981445 32.9395 1.47949 32.9395 2.0459V3.74512H36.7529C37.2559 3.74512 37.71 3.96484 38.0615 4.29199C38.3887 4.61914 38.6084 5.09766 38.6084 5.60059V6.95312H45.752C46.5137 6.95312 47.1875 7.25586 47.6904 7.75879C48.1934 8.26172 48.4961 8.93555 48.4961 9.69727V43.9893C48.5938 44.4824 48.4912 44.8633 48.125 45.2295L33.9404 59.585C33.8965 59.6289 33.877 59.6484 33.833 59.6729H33.7891ZM31.7188 57.5146C31.7188 41.0986 29.6484 43.0469 45.9863 43.0469V9.69238C45.9863 9.62891 45.9668 9.54102 45.8984 9.49707C45.8545 9.45312 45.791 9.40918 45.7031 9.40918H38.5596V11.8945C38.5596 12.3975 38.3643 12.8516 38.0127 13.2031C37.6856 13.5303 37.2266 13.75 36.7041 13.75H11.7188C11.2158 13.75 10.7373 13.5303 10.4102 13.2031C10.3662 13.1592 10.3467 13.1152 10.3027 13.0713C10.0391 12.7441 9.86817 12.3291 9.86817 11.8945V9.40918H2.72461C2.66113 9.40918 2.57324 9.42871 2.5293 9.49707C2.48535 9.54102 2.44141 9.62891 2.44141 9.69238V57.2314C2.44141 57.3193 2.46094 57.3828 2.5293 57.4268C2.57324 57.4707 2.63672 57.5146 2.72461 57.5146H31.6992H31.7188Z" fill="#3247D5"/>
<path d="M1.5 57.5V8.5H46L47.5 11V43.5L31.5 59H5L1.5 57.5Z" fill="#3247D5"/>
<path d="M11.0084 37.1065C12.3561 37.1065 13.4498 38.2002 13.4498 39.5479C13.4498 40.8955 12.3561 41.9893 11.0084 41.9893C9.66078 41.9893 8.56703 40.8955 8.56703 39.5479C8.56703 38.2002 9.66078 37.1065 11.0084 37.1065ZM8.18617 31.086C7.84926 30.583 7.98109 29.8994 8.48891 29.5625C8.99184 29.2256 9.67543 29.3575 10.0123 29.8653L10.6129 30.7539L12.9909 27.8633C13.3766 27.3946 14.07 27.3262 14.5387 27.7119C15.0075 28.0977 15.0758 28.791 14.6901 29.2598L11.3991 33.2637C11.3258 33.3565 11.2379 33.4395 11.1354 33.5127C10.6325 33.8496 9.94887 33.7178 9.61195 33.21L8.18617 31.086ZM8.18617 22.6289C7.84926 22.126 7.98109 21.4424 8.48891 21.1055C8.99184 20.7686 9.67543 20.9004 10.0123 21.4082L10.6129 22.2969L12.9909 19.4014C13.3766 18.9327 14.07 18.8643 14.5387 19.25C15.0075 19.6358 15.0758 20.3291 14.6901 20.7979L11.3991 24.8018C11.3258 24.8946 11.2379 24.9776 11.1354 25.0508C10.6325 25.3877 9.94887 25.2559 9.61195 24.7481L8.18617 22.6289ZM19.983 40.4121C19.3092 40.4121 18.7428 39.8653 18.7428 39.1719C18.7428 38.4981 19.2897 37.9317 19.983 37.9317H31.7653C32.4391 37.9317 33.0055 38.4785 33.0055 39.1719C33.0055 39.8457 32.4586 40.4121 31.7653 40.4121H19.983ZM19.983 22.6973C19.3092 22.6973 18.7428 22.1504 18.7428 21.4571C18.7428 20.7832 19.2897 20.2168 19.983 20.2168H38.1276C38.8014 20.2168 39.3678 20.7637 39.3678 21.4571C39.3678 22.1309 38.8209 22.6973 38.1276 22.6973H19.983ZM19.983 31.5547C19.3092 31.5547 18.7428 31.0078 18.7428 30.3145C18.7428 29.6407 19.2897 29.0743 19.983 29.0743H38.1276C38.8014 29.0743 39.3678 29.6211 39.3678 30.3145C39.3678 30.9883 38.8209 31.5547 38.1276 31.5547H19.983Z" fill="white"/>
</g>
<defs>
<clipPath id="clip0_3_616">
<rect width="48.5303" height="60" fill="white"/>
</clipPath>
</defs>
</svg>
