<svg width="64" height="64" viewBox="0 0 64 64" fill="none" xmlns="http://www.w3.org/2000/svg">
<path d="M59.15 37.95C56.7 35.48 54.24 33.03 51.78 30.57C51.33 30.12 50.72 29.89 50.18 30.16C49.49 30.51 49.17 30.16 48.8 29.74C48.65 29.57 48.5 29.39 48.31 29.26C47.99 29.03 48.06 28.84 48.25 28.55C50.15 25.66 50.88 22.5 50.25 19.09C49.34 14.19 46.52 10.77 41.85 9.09999C37.18 7.42999 32.84 8.29999 28.99 11.46C28.66 11.73 28.36 11.86 27.93 11.86C21.18 11.85 14.44 11.85 7.69003 11.85C7.28003 11.85 6.86003 11.83 6.45003 11.94C5.11003 12.32 4.34003 13.39 4.34003 14.96C4.34003 21.23 4.34003 27.5 4.34003 33.76C4.34003 39.99 4.34003 46.21 4.34003 52.44C4.34003 53.14 4.41003 53.81 4.82003 54.4C5.49003 55.36 6.44003 55.69 7.57003 55.69C18.69 55.68 29.81 55.69 40.93 55.69C43.24 55.69 44.34 54.6 44.34 52.3C44.34 45.84 44.34 39.39 44.34 32.93C44.34 32.71 44.23 32.42 44.44 32.29C44.67 32.15 44.92 31.68 45.2 31.99C45.65 32.48 46.38 32.76 46.47 33.54C46.48 33.59 46.4 33.64 46.38 33.7C46.09 34.4 46.18 35.06 46.72 35.6C49.17 38.07 51.62 40.53 54.1 42.98C54.82 43.7 55.77 43.7 56.51 43C57.42 42.14 58.3 41.26 59.16 40.35C59.86 39.62 59.86 38.67 59.15 37.95ZM6.02003 14.81C6.03003 14 6.49003 13.52 7.30003 13.52C13.81 13.51 20.32 13.52 26.83 13.52C26.86 13.52 26.9 13.55 26.98 13.58C26.18 14.75 25.51 15.98 25.09 17.33C24.77 18.38 24.76 18.38 23.66 18.38C18.02 18.38 12.39 18.37 6.75003 18.4C6.09003 18.4 5.97003 18.21 6.00003 17.62C6.05003 16.68 6.00003 15.74 6.02003 14.81ZM42.64 33.86C42.64 40.04 42.64 46.22 42.64 52.41C42.64 53.65 42.29 54 41.05 54C29.91 54 18.78 54 7.64003 54C6.36003 54 6.01003 53.65 6.01003 52.37C6.01003 41.82 6.01003 31.26 6.00003 20.71C6.00003 20.18 6.10003 20.02 6.67003 20.02C12.42 20.04 18.16 20.04 23.91 20.02C24.39 20.02 24.53 20.12 24.51 20.63C24.27 27.29 28.53 32.74 35.04 34.05C37.41 34.53 39.76 34.3 42.04 33.46C42.23 33.39 42.42 33.32 42.65 33.23C42.64 33.49 42.64 33.68 42.64 33.86ZM37.43 32.63C31.2 32.62 26.14 27.55 26.14 21.31C26.14 15.04 31.22 9.97999 37.5 9.99999C43.76 10.02 48.78 15.05 48.78 21.32C48.77 27.6 43.72 32.64 37.43 32.63ZM47.47 31.86C47.2 31.58 46.91 31.3 46.64 31.02C46.55 30.93 46.36 30.85 46.5 30.67C46.61 30.52 46.75 30.39 46.9 30.23C47 30.32 47.07 30.38 47.14 30.45C47.43 30.74 47.72 31.05 48.03 31.33C48.26 31.54 48.3 31.67 48.06 31.92C47.78 32.21 47.65 32.05 47.47 31.86ZM57.76 39.4C57.04 40.12 56.31 40.83 55.61 41.57C55.38 41.81 55.25 41.79 55.03 41.56C52.76 39.27 50.48 37 48.2 34.72C47.99 34.51 47.92 34.38 48.17 34.14C48.91 33.44 49.62 32.71 50.33 31.98C50.5 31.81 50.6 31.73 50.81 31.95C53.13 34.28 55.45 36.6 57.77 38.92C57.84 38.99 57.9 39.08 57.98 39.16C57.9 39.26 57.83 39.33 57.76 39.4Z" fill="#3247D5"/>
<path d="M37.59 37.97C33.47 37.97 29.34 37.96 25.22 37.98C24.73 37.98 24.6 37.86 24.6 37.37C24.62 34.33 24.61 31.29 24.61 28.25C24.61 27.19 24.38 26.95 23.34 26.95C18.86 26.95 14.39 26.95 9.91003 26.95C8.89003 26.95 8.66003 27.19 8.66003 28.2C8.66003 35.51 8.66003 42.82 8.66003 50.12C8.66003 51.12 8.91003 51.36 9.93003 51.36C14.53 51.36 19.13 51.36 23.73 51.36C28.35 51.36 32.97 51.36 37.6 51.36C38.6 51.36 38.85 51.11 38.85 50.11C38.85 46.49 38.85 42.86 38.85 39.24C38.86 38.19 38.64 37.97 37.59 37.97ZM15.3 29.97C15.29 28.62 15.29 28.62 16.66 28.62C17.99 28.62 17.96 28.62 17.99 29.93C18 30.44 17.87 30.63 17.34 30.58C16.8 30.53 16.26 30.55 15.72 30.58C15.39 30.59 15.26 30.47 15.3 30.15C15.31 30.1 15.3 30.03 15.3 29.97ZM22.44 49.69C20.51 49.68 18.57 49.69 16.64 49.69C14.75 49.69 12.85 49.68 10.96 49.7C10.52 49.71 10.35 49.63 10.36 49.13C10.39 46.13 10.38 43.14 10.37 40.14C10.37 39.76 10.43 39.59 10.87 39.61C11.66 39.65 12.45 39.64 13.24 39.61C13.57 39.6 13.67 39.7 13.65 40.03C13.63 40.59 13.63 41.15 13.65 41.71C13.68 42.62 14.28 43.22 15.19 43.24C16.17 43.26 17.15 43.26 18.12 43.24C19.04 43.22 19.62 42.62 19.64 41.7C19.65 41.16 19.66 40.62 19.64 40.08C19.63 39.75 19.69 39.59 20.07 39.61C20.88 39.64 21.69 39.63 22.5 39.61C22.82 39.6 22.93 39.68 22.93 40.02C22.92 43.1 22.92 46.18 22.93 49.26C22.93 49.66 22.75 49.69 22.44 49.69ZM15.32 40.19C15.25 39.96 15.17 39.57 15.69 39.62C16.02 39.65 16.35 39.63 16.69 39.63C17.99 39.63 17.97 39.63 18 40.96C18.01 41.47 17.89 41.66 17.36 41.61C16.8 41.56 16.22 41.7 15.69 41.57C14.87 41.38 15.47 40.65 15.32 40.19ZM22.93 37.39C22.93 37.85 22.82 37.99 22.35 37.98C20.44 37.95 18.52 37.97 16.61 37.97C14.72 37.97 12.82 37.96 10.93 37.98C10.52 37.98 10.35 37.91 10.36 37.45C10.38 34.66 10.38 31.88 10.36 29.09C10.36 28.76 10.41 28.61 10.79 28.63C11.6 28.66 12.41 28.65 13.22 28.63C13.54 28.62 13.66 28.7 13.64 29.04C13.61 29.6 13.62 30.16 13.64 30.72C13.67 31.63 14.27 32.24 15.18 32.25C16.16 32.27 17.14 32.27 18.11 32.25C19.02 32.23 19.61 31.63 19.64 30.71C19.64 30.56 19.63 30.42 19.64 30.27C19.67 29.74 19.4 29.01 19.75 28.72C20.08 28.45 20.78 28.62 21.31 28.63C21.83 28.64 22.5 28.41 22.81 28.72C23.13 29.03 22.9 29.7 22.9 30.21C22.92 32.6 22.9 35 22.93 37.39ZM30.17 39.61C30.73 39.66 31.29 39.64 31.85 39.62C32.16 39.61 32.27 39.72 32.23 40.01C32.22 40.07 32.23 40.13 32.23 40.2C32.24 41.6 32.24 41.6 30.87 41.6C29.55 41.6 29.58 41.6 29.54 40.27C29.53 39.77 29.63 39.56 30.17 39.61ZM36.63 49.69C34.7 49.68 32.76 49.69 30.83 49.69C28.94 49.69 27.04 49.68 25.15 49.7C24.7 49.71 24.6 49.57 24.61 49.14C24.63 46.14 24.63 43.15 24.61 40.15C24.61 39.7 24.74 39.59 25.17 39.61C25.94 39.65 26.71 39.63 27.48 39.61C27.8 39.6 27.92 39.68 27.9 40.02C27.87 40.58 27.88 41.14 27.9 41.7C27.93 42.61 28.53 43.22 29.44 43.24C30.42 43.26 31.4 43.26 32.37 43.24C33.29 43.22 33.88 42.63 33.9 41.71C33.91 41.15 33.92 40.59 33.9 40.03C33.88 39.69 34.01 39.61 34.32 39.62C35.13 39.64 35.94 39.64 36.75 39.62C37.05 39.61 37.19 39.67 37.19 40.02C37.18 43.1 37.17 46.18 37.19 49.26C37.18 49.72 36.94 49.69 36.63 49.69Z" fill="#3247D5"/>
<path d="M37.46 11.96C32.28 11.96 28.14 16.11 28.12 21.32C28.1 26.43 32.27 30.63 37.37 30.64C42.61 30.66 46.8 26.51 46.82 21.31C46.84 16.17 42.63 11.97 37.46 11.96ZM37.46 28.99C33.23 28.99 29.75 25.51 29.78 21.28C29.8 17.03 33.25 13.63 37.52 13.63C41.72 13.63 45.14 17.09 45.13 21.33C45.12 25.55 41.69 28.98 37.46 28.99Z" fill="#3247D5"/>
</svg>
