<svg width="56" height="48" viewBox="0 0 56 48" fill="none" xmlns="http://www.w3.org/2000/svg">
<path d="M55.15 29.95C52.7 27.48 50.24 25.03 47.78 22.57C47.33 22.12 46.72 21.89 46.18 22.16C45.49 22.51 45.17 22.16 44.8 21.74C44.65 21.57 44.5 21.39 44.31 21.26C43.99 21.03 44.06 20.84 44.25 20.55C46.15 17.66 46.88 14.5 46.25 11.09C45.34 6.18999 42.52 2.76999 37.85 1.09999C33.18 -0.570006 28.84 0.299993 24.99 3.45999C24.66 3.72999 24.36 3.85999 23.93 3.85999C17.18 3.84999 10.44 3.84999 3.68997 3.84999C3.27997 3.84999 2.85997 3.82999 2.44997 3.93999C1.10997 4.31999 0.339966 5.38999 0.339966 6.95999C0.339966 13.23 0.339966 19.5 0.339966 25.76C0.339966 31.99 0.339966 38.21 0.339966 44.44C0.339966 45.14 0.409966 45.81 0.819966 46.4C1.48997 47.36 2.43997 47.69 3.56997 47.69C14.69 47.68 25.81 47.69 36.93 47.69C39.24 47.69 40.34 46.6 40.34 44.3C40.34 37.84 40.34 31.39 40.34 24.93C40.34 24.71 40.23 24.42 40.44 24.29C40.67 24.15 40.92 23.68 41.2 23.99C41.65 24.48 42.38 24.76 42.47 25.54C42.48 25.59 42.4 25.64 42.38 25.7C42.09 26.4 42.18 27.06 42.72 27.6C45.17 30.07 47.62 32.53 50.1 34.98C50.82 35.7 51.77 35.7 52.51 35C53.42 34.14 54.3 33.26 55.16 32.35C55.86 31.62 55.86 30.67 55.15 29.95ZM2.01997 6.80999C2.02997 5.99999 2.48997 5.51999 3.29997 5.51999C9.80997 5.50999 16.32 5.51999 22.83 5.51999C22.86 5.51999 22.9 5.54999 22.98 5.57999C22.18 6.74999 21.51 7.97999 21.09 9.32999C20.77 10.38 20.76 10.38 19.66 10.38C14.02 10.38 8.38997 10.37 2.74997 10.4C2.08997 10.4 1.96997 10.21 1.99997 9.61999C2.04997 8.67999 1.99997 7.73999 2.01997 6.80999ZM38.64 25.86C38.64 32.04 38.64 38.22 38.64 44.41C38.64 45.65 38.29 46 37.05 46C25.91 46 14.78 46 3.63997 46C2.35997 46 2.00997 45.65 2.00997 44.37C2.00997 33.82 2.00997 23.26 1.99997 12.71C1.99997 12.18 2.09997 12.02 2.66997 12.02C8.41997 12.04 14.16 12.04 19.91 12.02C20.39 12.02 20.53 12.12 20.51 12.63C20.27 19.29 24.53 24.74 31.04 26.05C33.41 26.53 35.76 26.3 38.04 25.46C38.23 25.39 38.42 25.32 38.65 25.23C38.64 25.49 38.64 25.68 38.64 25.86ZM33.43 24.63C27.2 24.62 22.14 19.55 22.14 13.31C22.14 7.03999 27.22 1.97999 33.5 1.99999C39.76 2.01999 44.78 7.04999 44.78 13.32C44.77 19.6 39.72 24.64 33.43 24.63ZM43.47 23.86C43.2 23.58 42.91 23.3 42.64 23.02C42.55 22.93 42.36 22.85 42.5 22.67C42.61 22.52 42.75 22.39 42.9 22.23C43 22.32 43.07 22.38 43.14 22.45C43.43 22.74 43.72 23.05 44.03 23.33C44.26 23.54 44.3 23.67 44.06 23.92C43.78 24.21 43.65 24.05 43.47 23.86ZM53.76 31.4C53.04 32.12 52.31 32.83 51.61 33.57C51.38 33.81 51.25 33.79 51.03 33.56C48.76 31.27 46.48 29 44.2 26.72C43.99 26.51 43.92 26.38 44.17 26.14C44.91 25.44 45.62 24.71 46.33 23.98C46.5 23.81 46.6 23.73 46.81 23.95C49.13 26.28 51.45 28.6 53.77 30.92C53.84 30.99 53.9 31.08 53.98 31.16C53.9 31.26 53.83 31.33 53.76 31.4Z" fill="white"/>
<path d="M33.5899 29.97C29.4699 29.97 25.3399 29.96 21.2199 29.98C20.7299 29.98 20.5999 29.86 20.5999 29.37C20.6199 26.33 20.6099 23.29 20.6099 20.25C20.6099 19.19 20.3799 18.95 19.3399 18.95C14.8599 18.95 10.3899 18.95 5.90991 18.95C4.88991 18.95 4.65991 19.19 4.65991 20.2C4.65991 27.51 4.65991 34.82 4.65991 42.12C4.65991 43.12 4.90991 43.36 5.92991 43.36C10.5299 43.36 15.1299 43.36 19.7299 43.36C24.3499 43.36 28.9699 43.36 33.5999 43.36C34.5999 43.36 34.8499 43.11 34.8499 42.11C34.8499 38.49 34.8499 34.86 34.8499 31.24C34.8599 30.19 34.6399 29.97 33.5899 29.97ZM11.2999 21.97C11.2899 20.62 11.2899 20.62 12.6599 20.62C13.9899 20.62 13.9599 20.62 13.9899 21.93C13.9999 22.44 13.8699 22.63 13.3399 22.58C12.7999 22.53 12.2599 22.55 11.7199 22.58C11.3899 22.59 11.2599 22.47 11.2999 22.15C11.3099 22.1 11.2999 22.03 11.2999 21.97ZM18.4399 41.69C16.5099 41.68 14.5699 41.69 12.6399 41.69C10.7499 41.69 8.84991 41.68 6.95991 41.7C6.51991 41.71 6.34991 41.63 6.35991 41.13C6.38991 38.13 6.37991 35.14 6.36991 32.14C6.36991 31.76 6.42991 31.59 6.86991 31.61C7.65991 31.65 8.44991 31.64 9.23991 31.61C9.56991 31.6 9.66991 31.7 9.64991 32.03C9.62991 32.59 9.62991 33.15 9.64991 33.71C9.67991 34.62 10.2799 35.22 11.1899 35.24C12.1699 35.26 13.1499 35.26 14.1199 35.24C15.0399 35.22 15.6199 34.62 15.6399 33.7C15.6499 33.16 15.6599 32.62 15.6399 32.08C15.6299 31.75 15.6899 31.59 16.0699 31.61C16.8799 31.64 17.6899 31.63 18.4999 31.61C18.8199 31.6 18.9299 31.68 18.9299 32.02C18.9199 35.1 18.9199 38.18 18.9299 41.26C18.9299 41.66 18.7499 41.69 18.4399 41.69ZM11.3199 32.19C11.2499 31.96 11.1699 31.57 11.6899 31.62C12.0199 31.65 12.3499 31.63 12.6899 31.63C13.9899 31.63 13.9699 31.63 13.9999 32.96C14.0099 33.47 13.8899 33.66 13.3599 33.61C12.7999 33.56 12.2199 33.7 11.6899 33.57C10.8699 33.38 11.4699 32.65 11.3199 32.19ZM18.9299 29.39C18.9299 29.85 18.8199 29.99 18.3499 29.98C16.4399 29.95 14.5199 29.97 12.6099 29.97C10.7199 29.97 8.81991 29.96 6.92991 29.98C6.51991 29.98 6.34991 29.91 6.35991 29.45C6.37991 26.66 6.37991 23.88 6.35991 21.09C6.35991 20.76 6.40991 20.61 6.78991 20.63C7.59991 20.66 8.40991 20.65 9.21991 20.63C9.53991 20.62 9.65991 20.7 9.63991 21.04C9.60991 21.6 9.61991 22.16 9.63991 22.72C9.66991 23.63 10.2699 24.24 11.1799 24.25C12.1599 24.27 13.1399 24.27 14.1099 24.25C15.0199 24.23 15.6099 23.63 15.6399 22.71C15.6399 22.56 15.6299 22.42 15.6399 22.27C15.6699 21.74 15.3999 21.01 15.7499 20.72C16.0799 20.45 16.7799 20.62 17.3099 20.63C17.8299 20.64 18.4999 20.41 18.8099 20.72C19.1299 21.03 18.8999 21.7 18.8999 22.21C18.9199 24.6 18.8999 27 18.9299 29.39ZM26.1699 31.61C26.7299 31.66 27.2899 31.64 27.8499 31.62C28.1599 31.61 28.2699 31.72 28.2299 32.01C28.2199 32.07 28.2299 32.13 28.2299 32.2C28.2399 33.6 28.2399 33.6 26.8699 33.6C25.5499 33.6 25.5799 33.6 25.5399 32.27C25.5299 31.77 25.6299 31.56 26.1699 31.61ZM32.6299 41.69C30.6999 41.68 28.7599 41.69 26.8299 41.69C24.9399 41.69 23.0399 41.68 21.1499 41.7C20.6999 41.71 20.5999 41.57 20.6099 41.14C20.6299 38.14 20.6299 35.15 20.6099 32.15C20.6099 31.7 20.7399 31.59 21.1699 31.61C21.9399 31.65 22.7099 31.63 23.4799 31.61C23.7999 31.6 23.9199 31.68 23.8999 32.02C23.8699 32.58 23.8799 33.14 23.8999 33.7C23.9299 34.61 24.5299 35.22 25.4399 35.24C26.4199 35.26 27.3999 35.26 28.3699 35.24C29.2899 35.22 29.8799 34.63 29.8999 33.71C29.9099 33.15 29.9199 32.59 29.8999 32.03C29.8799 31.69 30.0099 31.61 30.3199 31.62C31.1299 31.64 31.9399 31.64 32.7499 31.62C33.0499 31.61 33.1899 31.67 33.1899 32.02C33.1799 35.1 33.1699 38.18 33.1899 41.26C33.1799 41.72 32.9399 41.69 32.6299 41.69Z" fill="white"/>
<path d="M33.4599 3.95999C28.2799 3.95999 24.1399 8.10999 24.1199 13.32C24.0999 18.43 28.2699 22.63 33.3699 22.64C38.6099 22.66 42.7999 18.51 42.8199 13.31C42.8399 8.16999 38.6299 3.96999 33.4599 3.95999ZM33.4599 20.99C29.2299 20.99 25.7499 17.51 25.7799 13.28C25.7999 9.02999 29.2499 5.62999 33.5199 5.62999C37.7199 5.62999 41.1399 9.08999 41.1299 13.33C41.1199 17.55 37.6899 20.98 33.4599 20.99Z" fill="white"/>
</svg>
