<svg width="54" height="60" viewBox="0 0 54 60" fill="none" xmlns="http://www.w3.org/2000/svg">
<path d="M14.58 16.71C14.97 16.85 15.08 17.05 15.12 17.42C15.9 23.62 20.76 27.9 27.78 27.91C30.62 27.85 33.73 26.6 36.14 23.82C37.72 21.99 38.56 19.83 38.89 17.45C38.93 17.17 38.92 16.91 39.29 16.76C41.06 16.06 42 14.71 41.98 12.97C41.96 11.21 40.98 9.86 39.23 9.21C38.97 9.12 38.88 9.04 38.92 8.74C39.2 6.6 38.68 4.65 37.45 2.9C35.42 0.0299978 31.96 -1 28.96 1.39C28.69 1.6 28.52 1.49 28.3 1.37C25.52 -0.170002 22.62 -0.370002 19.65 0.719998C16.43 1.91 14.06 4.86 14.75 8.83C14.82 9.21 14.6 9.27 14.35 9.39C12.79 10.12 12.05 11.39 12.05 13.07C12.03 14.73 13.03 16.15 14.58 16.71ZM20.37 2.52C23.01 1.56 25.53 2.03 27.9 3.43C29 4.08 29.12 4.08 29.99 3.14C30.92 2.15 32.05 1.82 33.34 2.23C35.22 2.83 36.3 4.18 36.74 6.1C35.38 5.12 33.91 4.53 32.22 4.51C31.55 4.5 31.1 4.74 30.74 5.33C28.05 9.73 22.33 11.71 17.49 9.96C17.15 9.84 17 9.62 16.9 9.32C15.93 6.54 17.4 3.59 20.37 2.52ZM14.33 11.88C14.75 11.24 15.06 11.15 15.77 11.45C21.62 13.92 28.71 12.1 32.15 6.81C32.33 6.53 32.54 6.5 32.83 6.54C34.93 6.86 36.33 8.15 36.86 10.24C37.02 10.87 37.49 10.98 38.06 11C38.99 11.03 39.73 11.65 39.95 12.54C40.15 13.35 39.77 14.23 39.03 14.69C38.74 14.87 38.42 14.95 38.09 14.99C37.28 15.09 37.04 15.36 36.99 16.2C36.82 18.77 36.04 21.09 34.21 22.97C32.25 24.98 29.81 25.88 27.53 25.92C21.78 25.94 17.73 22.34 17.11 17.11C17.1 17.03 17.08 16.94 17.08 16.86C17.12 15.69 16.77 15 15.41 14.84C14.15 14.69 13.62 12.96 14.33 11.88Z" fill="#3247D5"/>
<path d="M49.68 35.98C46.79 35.98 43.89 35.98 41 35.98C38.07 35.98 35.13 35.97 32.2 35.98C29.69 35.99 28.01 37.67 28 40.17C27.99 42.71 27.99 45.25 28 47.79C28.01 50.27 29.72 51.97 32.21 51.98C38.06 51.99 43.91 51.98 49.76 51.98C52.29 51.98 53.98 50.28 53.99 47.75C53.99 45.27 53.99 42.8 53.99 40.32C53.99 37.64 52.35 35.99 49.68 35.98ZM49.73 49.98C43.9 49.98 38.08 49.98 32.25 49.98C30.8 49.98 30 49.18 29.99 47.75C29.99 45.23 29.99 42.71 29.99 40.2C29.99 38.79 30.78 37.99 32.18 37.99C35.11 37.98 38.05 37.99 40.98 37.99C43.89 37.99 46.81 37.99 49.72 37.99C51.21 37.99 51.98 38.77 51.98 40.27C51.98 42.75 51.98 45.22 51.98 47.7C51.99 49.17 51.2 49.98 49.73 49.98Z" fill="#3247D5"/>
<path d="M21.71 43.98C18.82 43.97 15.92 43.98 13.03 43.98C10.07 43.98 7.12 43.97 4.16 43.98C1.7 43.99 0.0199986 45.69 0.00999864 48.15C-1.35601e-06 50.67 0.00999864 53.19 0.00999864 55.71C0.00999864 58.28 1.71 59.97 4.27 59.98C10.1 59.98 15.93 59.98 21.76 59.98C24.29 59.98 26 58.28 26 55.76C26.01 53.26 26 50.76 26 48.27C26 45.64 24.34 43.99 21.71 43.98ZM24 55.82C24 57.13 23.17 57.97 21.86 57.97C18.91 57.98 15.95 57.97 13 57.97C10.11 57.97 7.22 57.97 4.32 57.97C2.79 57.97 2.01 57.19 2.01 55.67C2.01 53.17 2.01 50.68 2.01 48.18C2.01 46.78 2.81 45.98 4.21 45.98C10.08 45.98 15.94 45.98 21.81 45.98C23.18 45.98 23.99 46.78 23.99 48.14C24.01 50.7 24.01 53.26 24 55.82Z" fill="#3247D5"/>
<path d="M26 37.99C24.17 37.98 22.34 37.97 20.5 38C20.08 38.01 19.98 37.89 19.99 37.48C20.01 35.84 20.01 34.19 19.99 32.55C19.99 32.26 20.05 32.11 20.35 32.01C21.26 31.7 22.18 31.45 23.11 31.26C23.47 31.19 23.69 31.26 23.94 31.57C25.33 33.27 28.15 33.52 29.66 31.93C30.37 31.19 30.98 31.22 31.76 31.44C32.32 31.6 32.87 31.79 33.43 31.93C33.86 32.04 34.05 32.24 34 32.71C33.95 33.16 33.97 33.63 34 34.08C34.04 34.63 34.48 35.01 35.01 34.98C35.55 34.94 35.91 34.66 35.98 34.1C36.01 33.79 35.99 33.48 35.99 33.06C36.96 33.58 37.76 34.14 38.53 34.73C39.06 35.13 39.6 35.07 39.97 34.62C40.34 34.17 40.28 33.58 39.78 33.19C36.93 30.92 33.7 29.56 30.08 29.14C29.46 29.07 29.04 29.26 28.79 29.85C28.47 30.6 27.84 30.95 27.07 30.99C26.31 31.03 25.64 30.72 25.32 30.02C24.93 29.17 24.33 29.03 23.49 29.17C17.98 30.07 13.59 32.77 10.37 37.34C9.45001 38.64 8.74001 40.04 8.20001 41.53C7.96001 42.19 8.17001 42.7 8.74001 42.92C9.30001 43.14 9.78001 42.89 10.06 42.24C10.08 42.18 10.11 42.13 10.13 42.07C11.11 39.49 12.63 37.29 14.67 35.45C15.67 34.55 16.74 33.76 18 33.11C18 34.63 17.99 36.07 18.01 37.5C18.02 37.89 17.93 38 17.51 38.05C15.54 38.25 13.94 40.06 14 41.95C14.02 42.56 14.38 42.96 14.95 42.99C15.47 43.02 15.9 42.66 15.99 42.12C16.26 40.48 16.81 40.01 18.49 40.01C20.93 40.01 23.36 40.01 25.8 40.01C26.29 40.01 26.72 39.94 26.96 39.46C27.32 38.72 26.85 37.99 26 37.99Z" fill="#3247D5"/>
<path d="M40.53 53.12C39.64 53.39 38.74 53.66 37.83 53.87C34.61 54.62 31.34 54.87 28.05 54.98C27.39 55 27.01 55.39 27.01 55.98C27.02 56.56 27.42 56.95 28.07 56.97C28.55 56.99 29.03 56.97 29.5 56.97C31.98 56.83 34.44 56.58 36.87 56.12C38.34 55.84 39.8 55.51 41.21 55.02C42 54.75 42.29 54.19 42.05 53.6C41.84 53.03 41.31 52.88 40.53 53.12Z" fill="#3247D5"/>
<path d="M41.2 38.99C38.4 38.92 36.07 41.05 36 43.76C35.92 46.66 38.01 48.86 40.91 48.92C43.72 48.99 45.91 46.89 45.99 44.05C46.06 41.39 43.87 39.06 41.2 38.99ZM41.02 46.98C39.34 47 38.02 45.67 38.02 43.97C38.02 42.28 39.28 41 40.97 40.99C42.68 40.98 43.97 42.26 43.97 43.98C43.96 45.66 42.69 46.95 41.02 46.98Z" fill="#3247D5"/>
<path d="M50.06 38.99C49.71 38.97 49.36 38.99 49 38.99C48.65 38.99 48.29 38.97 47.94 38.99C47.38 39.02 47 39.41 47 39.95C47 40.49 47.28 40.91 47.82 40.95C48.6 41.01 49.4 41.02 50.18 40.94C50.72 40.89 51 40.45 50.96 39.91C50.93 39.37 50.63 39.02 50.06 38.99Z" fill="#3247D5"/>
<path d="M34.03 46.99C33.35 46.97 32.66 46.97 31.98 46.99C31.41 47.01 31.04 47.38 31.01 47.92C30.98 48.47 31.36 48.91 31.94 48.97C32.29 49 32.64 48.98 33 48.98C33.33 48.98 33.66 48.98 33.99 48.98C34.03 48.98 34.07 48.98 34.11 48.97C34.65 48.88 35.01 48.45 34.98 47.93C34.96 47.39 34.6 47.01 34.03 46.99Z" fill="#3247D5"/>
<path d="M13 47C10.16 47 7.99998 49.17 8.00998 52.03C8.00998 54.71 10.3 56.97 13.01 56.97C15.72 56.97 18 54.71 18 52.03C18 49.17 15.85 47 13 47ZM13.01 54.97C11.33 54.98 10.01 53.64 10.03 51.94C10.05 50.22 11.34 48.96 13.06 48.98C14.73 49 16 50.3 15.98 51.99C15.96 53.67 14.68 54.97 13.01 54.97Z" fill="#3247D5"/>
<path d="M22.06 46.99C21.73 46.97 21.4 46.99 21.07 46.99C20.7 46.99 20.32 46.98 19.95 46.99C19.38 47.01 19.09 47.36 19.02 47.89C18.95 48.41 19.31 48.91 19.85 48.95C20.61 49 21.38 49 22.15 48.95C22.69 48.91 23.05 48.42 22.99 47.9C22.92 47.37 22.63 47.02 22.06 46.99Z" fill="#3247D5"/>
<path d="M6.05 54.99C5.7 54.97 5.35 54.99 4.99 54.99C4.63 54.99 4.28 54.97 3.93 54.99C3.36 55.02 3.06 55.37 3.02 55.91C2.98 56.45 3.26 56.89 3.8 56.94C4.59 57 5.39 57 6.17 56.94C6.71 56.9 6.99 56.49 7 55.94C7 55.4 6.62 55.02 6.05 54.99Z" fill="#3247D5"/>
</svg>
