<svg width="64" height="64" viewBox="0 0 64 64" fill="none" xmlns="http://www.w3.org/2000/svg">
<path d="M63.52 0C56.14 0.01 48.76 0.01 41.37 0.01C41.16 0.25 41.19 0.55 41.19 0.84C41.19 2.34 41.19 3.83 41.19 5.33C41.19 5.48 41.19 5.62 41.19 5.77C41.18 6.1 41.04 6.17 40.76 6.01C40.65 5.95 40.54 5.88 40.44 5.82C38.09 4.45 35.55 3.72 32.85 3.59C29.51 3.42 26.37 4.2 23.47 5.88C22.88 6.22 22.82 6.19 22.82 5.52C22.81 3.96 22.82 2.4 22.82 0.84C22.82 0.55 22.86 0.25 22.64 0.01C15.25 0.01 7.85 0.01 0.46 0C0.08 0 0 0.07 0 0.45C0.01 6.55 0.01 12.65 0.01 18.76C0.31 19.01 0.68 18.94 1.03 18.94C5.42 18.94 9.82 18.94 14.21 18.94C14.98 18.94 14.98 18.95 14.95 19.69C14.86 22.05 15.16 24.34 16.01 26.55C17.72 31 20.77 34.21 25.09 36.21C26.4 36.81 27.78 37.21 29.21 37.44C29.74 37.53 29.97 37.76 29.94 38.31C29.91 39.02 29.92 39.73 29.93 40.43C29.94 40.89 29.74 41.06 29.29 41.06C28.6 41.05 27.92 41.05 27.23 41.06C26.3 41.07 26.18 41.18 26.18 42.1C26.18 49.12 26.18 56.13 26.18 63.15C26.18 63.44 26.15 63.74 26.36 63.98C30.11 63.98 33.86 63.98 37.61 63.98C37.85 63.7 37.79 63.35 37.79 63.02C37.79 56.11 37.79 49.19 37.79 42.28C37.79 42.13 37.79 41.99 37.78 41.84C37.74 41.21 37.61 41.07 36.98 41.05C36.21 41.02 35.44 41.04 34.67 41.04C34.23 41.04 34.02 40.87 34.03 40.41C34.04 39.76 34.03 39.12 34.03 38.47C34.03 37.56 34.05 37.58 34.94 37.39C41.87 35.91 46.4 31.78 48.43 24.98C48.96 23.21 49.11 21.38 49 19.54C48.97 19.07 49.11 18.88 49.57 18.91C49.76 18.92 49.94 18.91 50.13 18.91C54.4 18.91 58.67 18.91 62.94 18.91C63.29 18.91 63.65 18.98 63.96 18.73C63.96 12.64 63.96 6.54 63.97 0.45C64 0.08 63.9 0 63.52 0ZM16.24 14.66C16.12 14.99 15.92 15.01 15.63 15.01C13.72 15 11.8 15 9.88 15C8.01 15 6.13 14.99 4.26 15.01C3.85 15.02 3.75 14.9 3.75 14.5C3.77 11.08 3.77 7.67 3.75 4.25C3.75 3.84 3.86 3.74 4.26 3.74C5.86 3.76 7.47 3.76 9.07 3.74C9.43 3.74 9.52 3.84 9.51 4.19C9.49 5.16 9.53 6.12 9.5 7.07C9.49 7.44 9.61 7.52 9.95 7.52C10.91 7.5 11.87 7.49 12.82 7.52C13.18 7.53 13.27 7.41 13.26 7.07C13.24 6.13 13.27 5.2 13.25 4.26C13.24 3.92 13.28 3.75 13.7 3.76C15.28 3.79 16.87 3.78 18.45 3.76C18.82 3.76 18.89 3.88 18.89 4.22C18.87 6.05 18.88 7.89 18.89 9.72C18.89 9.94 18.85 10.11 18.71 10.29C17.66 11.61 16.81 13.06 16.24 14.66ZM33.5 60.24C32.54 60.22 31.58 60.21 30.63 60.24C30.22 60.25 30.12 60.13 30.12 59.73C30.14 57.34 30.13 54.94 30.13 52.55C30.13 50.2 30.14 47.84 30.12 45.49C30.12 45.08 30.22 44.97 30.63 44.98C31.59 45.01 32.55 45 33.5 44.98C33.8 44.97 33.88 45.07 33.88 45.36C33.87 50.19 33.87 55.02 33.88 59.85C33.88 60.16 33.8 60.25 33.5 60.24ZM37.11 32.72C35.49 33.38 33.69 33.75 31.54 33.74C30.15 33.72 28.44 33.37 26.79 32.66C26.48 32.53 26.36 32.38 26.36 32.03C26.35 28.84 28.81 26.28 31.92 26.25C35.09 26.22 37.58 28.74 37.63 31.95C37.64 32.4 37.48 32.57 37.11 32.72ZM30.13 16.91C30.11 15.9 30.95 15.03 31.96 15.01C33 14.99 33.88 15.85 33.88 16.88C33.88 17.89 33.03 18.74 32.02 18.75C31 18.76 30.14 17.92 30.13 16.91ZM41.21 29.88C40 25.82 37.46 23.23 33.16 22.61C32.92 22.65 32.68 22.67 32.41 22.52C32.57 22.34 32.74 22.36 32.91 22.4C35.29 22.12 37.26 20.07 37.6 17.5C37.92 15.11 36.48 12.63 34.16 11.7C32 10.84 29.97 11.17 28.24 12.74C26.49 14.33 25.95 16.35 26.67 18.59C27.35 20.71 28.86 22.01 31.1 22.4C31.26 22.35 31.42 22.35 31.59 22.5C31.36 22.71 31.1 22.64 30.85 22.61C27.38 22.85 24 25.71 23 29.26C22.94 29.46 22.89 29.66 22.84 29.86C20.31 27.86 18.1 22.97 19.14 17.96C20.31 12.3 25.15 8.04 31.03 7.54C36.73 7.06 42.18 10.55 44.27 15.99C46.3 21.29 44.45 26.96 41.21 29.88ZM59.8 15.01C57.88 15 55.97 15 54.05 15C52.15 15 50.26 14.99 48.36 15.01C48.02 15.01 47.85 14.93 47.73 14.59C47.17 13.06 46.37 11.65 45.36 10.37C45.19 10.15 45.1 9.93 45.1 9.64C45.11 7.85 45.12 6.06 45.1 4.27C45.1 3.87 45.19 3.75 45.6 3.75C47.16 3.78 48.72 3.77 50.29 3.75C50.64 3.75 50.75 3.83 50.74 4.19C50.71 5.17 50.74 6.15 50.72 7.13C50.71 7.43 50.8 7.52 51.1 7.52C52.1 7.5 53.1 7.5 54.1 7.52C54.4 7.53 54.49 7.44 54.48 7.14C54.46 6.16 54.49 5.18 54.46 4.2C54.45 3.85 54.55 3.75 54.91 3.75C56.53 3.77 58.16 3.77 59.78 3.75C60.14 3.75 60.23 3.85 60.22 4.2C60.21 7.66 60.21 11.11 60.22 14.57C60.25 14.93 60.15 15.02 59.8 15.01Z" fill="#3247D5"/>
<path d="M30.85 22.6C30.92 22.52 31.17 22.64 31.1 22.39C31.01 22.47 30.93 22.54 30.85 22.6Z" fill="#3247D5"/>
<path d="M33.15 22.6C33.07 22.53 32.99 22.46 32.9 22.39C32.83 22.65 33.08 22.52 33.15 22.6Z" fill="#3247D5"/>
</svg>
