<svg width="54" height="60" viewBox="0 0 54 60" fill="none" xmlns="http://www.w3.org/2000/svg">
<path d="M14.5801 16.71C14.9701 16.85 15.0801 17.05 15.1201 17.42C15.9001 23.62 20.7601 27.9 27.7801 27.91C30.6201 27.85 33.7301 26.6 36.1401 23.82C37.7201 21.99 38.5601 19.83 38.8901 17.45C38.9301 17.17 38.9201 16.91 39.2901 16.76C41.0601 16.06 42.0001 14.71 41.9801 12.97C41.9601 11.21 40.9801 9.86 39.2301 9.21C38.9701 9.12 38.8801 9.04 38.9201 8.74C39.2001 6.6 38.6801 4.65 37.4501 2.9C35.4201 0.0299978 31.9601 -1 28.9601 1.39C28.6901 1.6 28.5201 1.49 28.3001 1.37C25.5201 -0.170002 22.6201 -0.370002 19.6501 0.719998C16.4301 1.91 14.0601 4.86 14.7501 8.83C14.8201 9.21 14.6001 9.27 14.3501 9.39C12.7901 10.12 12.0501 11.39 12.0501 13.07C12.0301 14.73 13.0301 16.15 14.5801 16.71ZM20.3701 2.52C23.0101 1.56 25.5301 2.03 27.9001 3.43C29.0001 4.08 29.1201 4.08 29.9901 3.14C30.9201 2.15 32.0501 1.82 33.3401 2.23C35.2201 2.83 36.3001 4.18 36.7401 6.1C35.3801 5.12 33.9101 4.53 32.2201 4.51C31.5501 4.5 31.1001 4.74 30.7401 5.33C28.0501 9.73 22.3301 11.71 17.4901 9.96C17.1501 9.84 17.0001 9.62 16.9001 9.32C15.9301 6.54 17.4001 3.59 20.3701 2.52ZM14.3301 11.88C14.7501 11.24 15.0601 11.15 15.7701 11.45C21.6201 13.92 28.7101 12.1 32.1501 6.81C32.3301 6.53 32.5401 6.5 32.8301 6.54C34.9301 6.86 36.3301 8.15 36.8601 10.24C37.0201 10.87 37.4901 10.98 38.0601 11C38.9901 11.03 39.7301 11.65 39.9501 12.54C40.1501 13.35 39.7701 14.23 39.0301 14.69C38.7401 14.87 38.4201 14.95 38.0901 14.99C37.2801 15.09 37.0401 15.36 36.9901 16.2C36.8201 18.77 36.0401 21.09 34.2101 22.97C32.2501 24.98 29.8101 25.88 27.5301 25.92C21.7801 25.94 17.7301 22.34 17.1101 17.11C17.1001 17.03 17.0801 16.94 17.0801 16.86C17.1201 15.69 16.7701 15 15.4101 14.84C14.1501 14.69 13.6201 12.96 14.3301 11.88Z" fill="white"/>
<path d="M49.6801 35.98C46.7901 35.98 43.8901 35.98 41.0001 35.98C38.0701 35.98 35.1301 35.97 32.2001 35.98C29.6901 35.99 28.0101 37.67 28.0001 40.17C27.9901 42.71 27.9901 45.25 28.0001 47.79C28.0101 50.27 29.7201 51.97 32.2101 51.98C38.0601 51.99 43.9101 51.98 49.7601 51.98C52.2901 51.98 53.9801 50.28 53.9901 47.75C53.9901 45.27 53.9901 42.8 53.9901 40.32C53.9901 37.64 52.3501 35.99 49.6801 35.98ZM49.7301 49.98C43.9001 49.98 38.0801 49.98 32.2501 49.98C30.8001 49.98 30.0001 49.18 29.9901 47.75C29.9901 45.23 29.9901 42.71 29.9901 40.2C29.9901 38.79 30.7801 37.99 32.1801 37.99C35.1101 37.98 38.0501 37.99 40.9801 37.99C43.8901 37.99 46.8101 37.99 49.7201 37.99C51.2101 37.99 51.9801 38.77 51.9801 40.27C51.9801 42.75 51.9801 45.22 51.9801 47.7C51.9901 49.17 51.2001 49.98 49.7301 49.98Z" fill="white"/>
<path d="M21.7101 43.98C18.8201 43.97 15.9201 43.98 13.0301 43.98C10.0701 43.98 7.12006 43.97 4.16006 43.98C1.70006 43.99 0.0200597 45.69 0.0100597 48.15C5.96792e-05 50.67 0.0100597 53.19 0.0100597 55.71C0.0100597 58.28 1.71006 59.97 4.27006 59.98C10.1001 59.98 15.9301 59.98 21.7601 59.98C24.2901 59.98 26.0001 58.28 26.0001 55.76C26.0101 53.26 26.0001 50.76 26.0001 48.27C26.0001 45.64 24.3401 43.99 21.7101 43.98ZM24.0001 55.82C24.0001 57.13 23.1701 57.97 21.8601 57.97C18.9101 57.98 15.9501 57.97 13.0001 57.97C10.1101 57.97 7.22006 57.97 4.32006 57.97C2.79006 57.97 2.01006 57.19 2.01006 55.67C2.01006 53.17 2.01006 50.68 2.01006 48.18C2.01006 46.78 2.81006 45.98 4.21006 45.98C10.0801 45.98 15.9401 45.98 21.8101 45.98C23.1801 45.98 23.9901 46.78 23.9901 48.14C24.0101 50.7 24.0101 53.26 24.0001 55.82Z" fill="white"/>
<path d="M26.0001 37.99C24.1701 37.98 22.3401 37.97 20.5001 38C20.0801 38.01 19.9801 37.89 19.9901 37.48C20.0101 35.84 20.0101 34.19 19.9901 32.55C19.9901 32.26 20.0501 32.11 20.3501 32.01C21.2601 31.7 22.1801 31.45 23.1101 31.26C23.4701 31.19 23.6901 31.26 23.9401 31.57C25.3301 33.27 28.1501 33.52 29.6601 31.93C30.3701 31.19 30.9801 31.22 31.7601 31.44C32.3201 31.6 32.8701 31.79 33.4301 31.93C33.8601 32.04 34.0501 32.24 34.0001 32.71C33.9501 33.16 33.9701 33.63 34.0001 34.08C34.0401 34.63 34.4801 35.01 35.0101 34.98C35.5501 34.94 35.9101 34.66 35.9801 34.1C36.0101 33.79 35.9901 33.48 35.9901 33.06C36.9601 33.58 37.7601 34.14 38.5301 34.73C39.0601 35.13 39.6001 35.07 39.9701 34.62C40.3401 34.17 40.2801 33.58 39.7801 33.19C36.9301 30.92 33.7001 29.56 30.0801 29.14C29.4601 29.07 29.0401 29.26 28.7901 29.85C28.4701 30.6 27.8401 30.95 27.0701 30.99C26.3101 31.03 25.6401 30.72 25.3201 30.02C24.9301 29.17 24.3301 29.03 23.4901 29.17C17.9801 30.07 13.5901 32.77 10.3701 37.34C9.45007 38.64 8.74007 40.04 8.20007 41.53C7.96007 42.19 8.17007 42.7 8.74007 42.92C9.30007 43.14 9.78007 42.89 10.0601 42.24C10.0801 42.18 10.1101 42.13 10.1301 42.07C11.1101 39.49 12.6301 37.29 14.6701 35.45C15.6701 34.55 16.7401 33.76 18.0001 33.11C18.0001 34.63 17.9901 36.07 18.0101 37.5C18.0201 37.89 17.9301 38 17.5101 38.05C15.5401 38.25 13.9401 40.06 14.0001 41.95C14.0201 42.56 14.3801 42.96 14.9501 42.99C15.4701 43.02 15.9001 42.66 15.9901 42.12C16.2601 40.48 16.8101 40.01 18.4901 40.01C20.9301 40.01 23.3601 40.01 25.8001 40.01C26.2901 40.01 26.7201 39.94 26.9601 39.46C27.3201 38.72 26.8501 37.99 26.0001 37.99Z" fill="white"/>
<path d="M40.53 53.12C39.64 53.39 38.74 53.66 37.83 53.87C34.61 54.62 31.34 54.87 28.05 54.98C27.39 55 27.01 55.39 27.01 55.98C27.02 56.56 27.42 56.95 28.07 56.97C28.55 56.99 29.03 56.97 29.5 56.97C31.98 56.83 34.44 56.58 36.87 56.12C38.34 55.84 39.8 55.51 41.21 55.02C42 54.75 42.29 54.19 42.05 53.6C41.84 53.03 41.31 52.88 40.53 53.12Z" fill="white"/>
<path d="M41.2 38.99C38.4 38.92 36.07 41.05 36 43.76C35.92 46.66 38.01 48.86 40.91 48.92C43.72 48.99 45.91 46.89 45.99 44.05C46.06 41.39 43.87 39.06 41.2 38.99ZM41.02 46.98C39.34 47 38.02 45.67 38.02 43.97C38.02 42.28 39.28 41 40.97 40.99C42.68 40.98 43.97 42.26 43.97 43.98C43.96 45.66 42.69 46.95 41.02 46.98Z" fill="white"/>
<path d="M50.06 38.99C49.71 38.97 49.36 38.99 49 38.99C48.65 38.99 48.29 38.97 47.94 38.99C47.38 39.02 47 39.41 47 39.95C47 40.49 47.28 40.91 47.82 40.95C48.6 41.01 49.4 41.02 50.18 40.94C50.72 40.89 51 40.45 50.96 39.91C50.93 39.37 50.63 39.02 50.06 38.99Z" fill="white"/>
<path d="M34.0301 46.99C33.3501 46.97 32.6601 46.97 31.9801 46.99C31.4101 47.01 31.0401 47.38 31.0101 47.92C30.9801 48.47 31.3601 48.91 31.9401 48.97C32.2901 49 32.6401 48.98 33.0001 48.98C33.3301 48.98 33.6601 48.98 33.9901 48.98C34.0301 48.98 34.0701 48.98 34.1101 48.97C34.6501 48.88 35.0101 48.45 34.9801 47.93C34.9601 47.39 34.6001 47.01 34.0301 46.99Z" fill="white"/>
<path d="M13 47C10.16 47 8.00004 49.17 8.01004 52.03C8.01004 54.71 10.3 56.97 13.01 56.97C15.72 56.97 18 54.71 18 52.03C18 49.17 15.85 47 13 47ZM13.01 54.97C11.33 54.98 10.01 53.64 10.03 51.94C10.05 50.22 11.34 48.96 13.06 48.98C14.73 49 16 50.3 15.98 51.99C15.96 53.67 14.68 54.97 13.01 54.97Z" fill="white"/>
<path d="M22.06 46.99C21.73 46.97 21.4 46.99 21.07 46.99C20.7 46.99 20.32 46.98 19.95 46.99C19.38 47.01 19.09 47.36 19.02 47.89C18.95 48.41 19.31 48.91 19.85 48.95C20.61 49 21.38 49 22.15 48.95C22.69 48.91 23.05 48.42 22.99 47.9C22.92 47.37 22.63 47.02 22.06 46.99Z" fill="white"/>
<path d="M6.05 54.99C5.7 54.97 5.35 54.99 4.99 54.99C4.63 54.99 4.28 54.97 3.93 54.99C3.36 55.02 3.06 55.37 3.02 55.91C2.98 56.45 3.26 56.89 3.8 56.94C4.59 57 5.39 57 6.17 56.94C6.71 56.9 6.99 56.49 7 55.94C7 55.4 6.62 55.02 6.05 54.99Z" fill="white"/>
</svg>
