<svg width="64" height="62" viewBox="0 0 64 62" fill="none" xmlns="http://www.w3.org/2000/svg">
<path d="M63.87 13.5C63.03 6.32 56.97 0.770003 49.74 0.540003C43.66 0.350003 37.97 4.04 35.64 9.72C35.46 10.17 35.24 10.28 34.79 10.28C26.61 10.26 18.43 10.27 10.25 10.27C8.94001 10.27 8.65001 10.56 8.64001 11.89C8.56001 23.63 8.48001 35.37 8.42001 47.11C8.42001 47.65 8.25001 47.74 7.75001 47.74C5.63001 47.71 3.50001 47.74 1.38001 47.72C0.79001 47.71 0.33001 47.87 0.0100098 48.38C0.0100098 50.42 0.0100098 52.46 0.0100098 54.5C0.10001 54.53 0.11001 54.61 0.13001 54.69C1.05001 58.91 4.22001 61.46 8.54001 61.46C18.74 61.46 28.94 61.46 39.14 61.46C40.03 61.46 40.93 61.49 41.81 61.31C45.77 60.51 48.46 57.24 48.46 53.18C48.47 45.66 48.47 38.15 48.45 30.63C48.45 30.06 48.61 29.97 49.13 29.98C56.06 30.05 62.11 25.22 63.62 18.47C63.73 17.98 63.69 17.45 63.97 17C63.97 15.92 63.97 14.83 63.97 13.75C63.86 13.71 63.88 13.6 63.87 13.5ZM34.35 59.37C25.63 59.37 16.91 59.38 8.19001 59.37C5.18001 59.37 2.67001 57.26 2.18001 54.32C1.95001 52.92 2.12001 51.49 2.09001 50.08C2.09001 49.88 2.16001 49.77 2.38001 49.78C2.50001 49.79 2.63001 49.78 2.75001 49.78C12.32 49.78 21.9 49.79 31.47 49.77C32.03 49.77 32.15 49.92 32.14 50.46C32.13 51.91 32 53.38 32.27 54.82C32.61 56.58 33.44 58.08 34.77 59.3C34.64 59.43 34.49 59.37 34.35 59.37ZM46.38 53.25C46.37 56.49 43.97 59.1 40.87 59.35C37.65 59.61 34.84 57.44 34.31 54.22C34.1 52.93 34.26 51.6 34.23 50.29C34.22 49.81 34.24 49.33 34.23 48.85C34.21 48.05 33.88 47.72 33.07 47.72C31.07 47.71 29.07 47.72 27.07 47.72C21.76 47.72 16.45 47.71 11.14 47.74C10.57 47.74 10.47 47.58 10.47 47.05C10.56 35.68 10.64 24.32 10.7 12.95C10.7 12.46 10.83 12.34 11.31 12.34C18.93 12.36 26.55 12.36 34.17 12.34C34.7 12.34 34.82 12.44 34.74 12.97C34.3 15.68 34.62 18.31 35.67 20.85C35.7 20.92 35.71 21 35.75 21.14C34.86 21.14 34.01 21.14 33.17 21.14C30.88 21.14 28.59 21.14 26.3 21.14C25.44 21.14 24.97 21.53 24.98 22.21C24.99 22.86 25.45 23.23 26.28 23.24C29.65 23.24 33.02 23.25 36.4 23.23C36.77 23.23 37 23.32 37.21 23.64C39.34 26.73 42.26 28.71 45.89 29.6C46.27 29.69 46.38 29.82 46.38 30.21C46.38 37.89 46.4 45.57 46.38 53.25ZM49.3 27.92C42.34 27.95 36.65 22.3 36.63 15.34C36.61 8.37 42.24 2.67 49.18 2.64C56.22 2.61 61.91 8.26 61.91 15.28C61.9 22.26 56.28 27.89 49.3 27.92Z" fill="white"/>
<path d="M39.61 39.29C35.16 39.29 30.71 39.29 26.26 39.29C25.44 39.29 24.99 39.68 25 40.34C25.01 41 25.46 41.36 26.29 41.36C28.49 41.36 30.7 41.36 32.9 41.36C35.13 41.36 37.35 41.36 39.58 41.36C40.4 41.36 40.87 40.99 40.88 40.34C40.88 39.7 40.41 39.29 39.61 39.29Z" fill="white"/>
<path d="M26.2 32.29C27.61 32.28 29.03 32.29 30.44 32.29C33.37 32.29 36.3 32.29 39.24 32.29C39.43 32.29 39.61 32.3 39.8 32.28C40.46 32.24 40.89 31.82 40.87 31.23C40.86 30.64 40.43 30.24 39.75 30.23C37.48 30.22 35.22 30.23 32.95 30.23C30.68 30.23 28.42 30.23 26.15 30.23C25.34 30.23 24.83 30.79 25.01 31.49C25.17 32.09 25.62 32.3 26.2 32.29Z" fill="white"/>
<path d="M19.39 25.47C21.21 25.45 22.68 24.01 22.67 22.24C22.66 20.47 21.18 19.03 19.37 19.03C17.57 19.03 16.06 20.47 16.04 22.23C16.02 23.99 17.57 25.49 19.39 25.47ZM19.34 21.12C20.02 21.11 20.59 21.6 20.61 22.22C20.63 22.84 20.07 23.36 19.39 23.38C18.7 23.39 18.14 22.9 18.13 22.28C18.11 21.65 18.65 21.14 19.34 21.12Z" fill="white"/>
<path d="M19.38 28.05C17.58 28.04 16.07 29.48 16.04 31.23C16.02 32.99 17.55 34.49 19.38 34.48C21.19 34.47 22.67 33.03 22.67 31.26C22.67 29.5 21.21 28.06 19.38 28.05ZM19.34 32.39C18.65 32.38 18.11 31.87 18.13 31.24C18.15 30.61 18.71 30.12 19.39 30.13C20.06 30.14 20.63 30.68 20.61 31.29C20.6 31.91 20.03 32.4 19.34 32.39Z" fill="white"/>
<path d="M19.35 37.07C17.53 37.08 16.04 38.52 16.04 40.27C16.04 42.04 17.57 43.51 19.41 43.49C21.23 43.47 22.69 42.01 22.67 40.25C22.66 38.47 21.18 37.06 19.35 37.07ZM19.38 41.4C18.69 41.4 18.14 40.92 18.13 40.29C18.13 39.66 18.68 39.15 19.36 39.14C20.03 39.13 20.61 39.66 20.62 40.27C20.62 40.88 20.06 41.39 19.38 41.4Z" fill="white"/>
<path d="M49.22 14.25C47.9 14.18 46.91 13.21 46.89 11.95C46.87 10.74 47.86 9.69 49.05 9.63C50.39 9.57 51.36 10.43 51.51 11.82C51.59 12.58 52.02 13.02 52.64 12.96C53.28 12.91 53.68 12.36 53.59 11.6C53.41 9.98001 52.64 8.69 51.13 8.03C50.39 7.71 50.01 7.4 50.1 6.54C50.16 6.01 49.66 5.64 49.12 5.63C48.58 5.63 48.17 5.98 48.1 6.52C48.08 6.71 48.07 6.9 48.09 7.08C48.15 7.5 48 7.71001 47.57 7.89001C46.01 8.51 45.09 9.70001 44.88 11.35C44.66 13.13 45.33 14.57 46.82 15.59C47.59 16.12 48.45 16.25 49.36 16.33C50.66 16.44 51.52 17.39 51.51 18.78C51.5 18.86 51.48 19.09 51.41 19.3C51.09 20.35 50.1 21.01 49.03 20.92C47.82 20.81 47.04 19.98 46.89 18.64C46.81 17.95 46.43 17.58 45.81 17.6C45.21 17.62 44.82 18.05 44.84 18.74C44.88 20.32 45.58 21.59 46.95 22.33C47.75 22.76 48.26 23.13 48.13 24.14C48.07 24.66 48.52 24.98 49.08 25.01C49.62 25.04 50.06 24.68 50.12 24.15C50.15 23.88 50.15 23.61 50.14 23.34C50.13 23.06 50.19 22.92 50.5 22.81C52.64 22.04 53.88 20.11 53.58 18.1C53.23 15.83 51.58 14.37 49.22 14.25Z" fill="white"/>
</svg>
