<svg width="52" height="58" viewBox="0 0 52 58" fill="none" xmlns="http://www.w3.org/2000/svg">
<path d="M42.15 39.43C37.13 39.44 33.01 43.55 33.02 48.56C33.03 53.58 37.14 57.68 42.16 57.68C47.19 57.67 51.27 53.59 51.26 48.55C51.27 43.5 47.18 39.42 42.15 39.43ZM46.74 49.13C45.18 49.09 43.62 49.11 42.05 49.12C41.7 49.12 41.59 49.03 41.6 48.67C41.63 47.82 41.61 46.96 41.61 46.11C41.61 45.24 41.64 44.36 41.6 43.49C41.58 42.97 41.91 43.12 42.17 43.11C42.43 43.11 42.75 42.98 42.74 43.49C42.71 44.84 42.74 46.2 42.72 47.55C42.71 47.91 42.83 48 43.17 47.99C44.36 47.97 45.54 48 46.73 47.97C47.17 47.96 47.24 48.13 47.23 48.51C47.22 48.87 47.27 49.14 46.74 49.13Z" fill="white"/>
<path d="M31.01 49.23C21.6 49.22 12.18 49.22 2.76997 49.24C2.17997 49.24 1.97997 49.15 1.97997 48.48C1.99997 33.09 1.99997 17.7 1.98997 2.31C1.98997 1.76 2.10997 1.6 2.68997 1.6C15.39 1.62 28.1 1.62 40.8 1.6C41.41 1.6 41.59 1.71 41.59 2.37C41.57 14.05 41.58 25.74 41.56 37.42C41.56 37.93 41.67 38.1 42.21 38.09C42.71 38.08 42.88 37.98 42.87 37.45C42.85 25.29 42.85 13.13 42.87 0.970003C42.87 0.440003 42.71 0.330003 42.21 0.330003C28.6 0.330003 15 0.330003 1.40997 0.300003C0.799971 0.300003 0.719971 0.500003 0.719971 1.04C0.739971 9.16 0.729971 17.28 0.729971 25.4C0.729971 33.54 0.739971 41.68 0.719971 49.83C0.719971 50.38 0.849971 50.51 1.38997 50.51C8.44997 50.49 15.51 50.5 22.57 50.5C25.42 50.5 28.28 50.5 31.13 50.5C31.3 50.5 31.59 50.6 31.63 50.4C31.7 50.06 31.72 49.68 31.63 49.35C31.56 49.09 31.22 49.23 31.01 49.23Z" fill="white"/>
<path d="M16.0301 17.12C15.7201 17.93 15.4201 18.73 15.0801 19.63C16.0801 19.22 16.9801 18.89 17.8601 18.48C18.2701 18.29 18.4301 18.4 18.6101 18.77C19.0201 19.63 19.4801 20.46 19.9501 21.38C20.5601 19.71 21.1501 18.12 21.7701 16.41C22.4301 18.13 23.0301 19.69 23.6701 21.37C24.1201 20.44 24.5401 19.65 24.8701 18.82C25.0801 18.29 25.3301 18.29 25.7701 18.51C26.6001 18.91 27.4601 19.27 28.3101 19.64C28.4401 19.37 28.2701 19.19 28.2001 19.02C27.5301 17.32 26.8501 15.63 26.1501 13.94C25.9601 13.48 25.9701 13.15 26.2501 12.7C27.4801 10.73 27.4701 8.69 26.1801 6.78C24.9001 4.89 23.0501 4.1 20.7701 4.51C17.0801 5.17 15.2401 9.46 17.2601 12.68C17.4901 13.05 17.5101 13.33 17.3601 13.71C16.9001 14.83 16.4701 15.98 16.0301 17.12ZM21.7901 5.68C24.0201 5.69 25.8601 7.54 25.8601 9.8C25.8601 12.07 24.0501 13.91 21.8001 13.92C19.5301 13.93 17.7401 12.14 17.7201 9.85C17.6901 7.54 19.5201 5.67 21.7901 5.68Z" fill="white"/>
<path d="M33.92 29.38C29.86 29.41 25.8 29.39 21.74 29.39C17.7 29.39 13.66 29.4 9.62997 29.38C9.09997 29.38 8.96997 29.52 8.98997 30.03C8.99997 30.51 9.04997 30.7 9.61997 30.7C17.72 30.68 25.81 30.68 33.91 30.7C34.43 30.7 34.57 30.56 34.57 30.05C34.55 29.57 34.47 29.38 33.92 29.38Z" fill="white"/>
<path d="M8.99999 24.98C8.98999 25.41 9.02999 25.63 9.57999 25.63C13.64 25.6 17.7 25.61 21.76 25.61C25.82 25.61 29.88 25.6 33.94 25.62C34.42 25.62 34.6 25.52 34.57 25.01C34.54 24.58 34.59 24.3 33.98 24.31C25.84 24.33 17.7 24.33 9.56999 24.31C8.94999 24.3 9.00999 24.59 8.99999 24.98Z" fill="white"/>
<path d="M34.5499 35.13C34.5599 34.7 34.5099 34.49 33.9699 34.49C25.8299 34.51 17.6899 34.51 9.55993 34.49C8.96993 34.49 9.00993 34.75 9.00993 35.15C8.99993 35.58 9.02993 35.8 9.58993 35.79C13.6499 35.76 17.7099 35.77 21.7699 35.77C25.8499 35.77 29.9299 35.76 34.0099 35.79C34.5699 35.79 34.5399 35.53 34.5499 35.13Z" fill="white"/>
<path d="M14.29 40.89C16.79 40.85 19.29 40.87 21.78 40.87C24.27 40.87 26.78 40.85 29.27 40.89C29.87 40.9 29.75 40.57 29.76 40.23C29.77 39.88 29.84 39.58 29.26 39.59C24.26 39.62 19.27 39.62 14.27 39.59C13.68 39.59 13.78 39.9 13.77 40.25C13.76 40.61 13.72 40.9 14.29 40.89Z" fill="white"/>
</svg>
