<svg width="18" height="19" viewBox="0 0 18 19" fill="none" xmlns="http://www.w3.org/2000/svg">
<path d="M13.1585 0.525845C13.2843 0.567626 13.3884 0.65768 13.4479 0.7762C13.5073 0.89472 13.5172 1.032 13.4755 1.15785L12.9755 2.65785C12.9336 2.78382 12.8433 2.888 12.7246 2.94745C12.6059 3.00689 12.4685 3.01675 12.3425 2.97485C12.2165 2.93294 12.1123 2.84271 12.0529 2.724C11.9934 2.60529 11.9836 2.46782 12.0255 2.34185L12.5255 0.841845C12.5463 0.779512 12.5791 0.721886 12.6222 0.672263C12.6653 0.62264 12.7177 0.581993 12.7765 0.552645C12.8353 0.523297 12.8993 0.505825 12.9648 0.501226C13.0304 0.496628 13.0962 0.504993 13.1585 0.525845ZM16.8555 2.35385C16.9019 2.30736 16.9387 2.25218 16.9638 2.19147C16.9889 2.13075 17.0018 2.06569 17.0018 1.99999C17.0017 1.9343 16.9887 1.86925 16.9635 1.80857C16.9384 1.74789 16.9015 1.69277 16.855 1.64635C16.8085 1.59992 16.7533 1.56311 16.6926 1.53801C16.6319 1.51292 16.5668 1.50002 16.5011 1.50007C16.4354 1.50012 16.3704 1.5131 16.3097 1.53829C16.249 1.56347 16.1939 1.60036 16.1475 1.64685L14.1475 3.64685C14.0564 3.74115 14.006 3.86745 14.0071 3.99855C14.0083 4.12965 14.0609 4.25505 14.1536 4.34776C14.2463 4.44046 14.3717 4.49304 14.5028 4.49418C14.6339 4.49532 14.7602 4.44493 14.8545 4.35385L16.8555 2.35385ZM6.60747 2.64585C6.74697 2.35208 6.956 2.09676 7.21645 1.90201C7.4769 1.70727 7.78091 1.57897 8.10213 1.52824C8.42336 1.47751 8.75211 1.50587 9.0599 1.61088C9.36769 1.71589 9.64523 1.89436 9.86847 2.13085L16.4555 9.11085C16.6753 9.34373 16.836 9.626 16.924 9.9339C17.012 10.2418 17.0248 10.5664 16.9613 10.8803C16.8978 11.1941 16.7599 11.4882 16.5591 11.7377C16.3583 11.9871 16.1005 12.1847 15.8075 12.3139L11.8705 14.0499C12.0164 14.5704 12.04 15.1176 11.9392 15.6487C11.8385 16.1798 11.6163 16.6804 11.29 17.1113C10.9636 17.5422 10.542 17.8918 10.0581 18.1327C9.57413 18.3736 9.04103 18.4993 8.50047 18.4999C7.90468 18.5002 7.31869 18.3483 6.79805 18.0587C6.27741 17.7691 5.83937 17.3512 5.52547 16.8449L4.32547 17.3739C4.0497 17.4953 3.74375 17.5309 3.44749 17.4759C3.15122 17.421 2.87836 17.2781 2.66447 17.0659L1.44247 15.8559C1.2215 15.637 1.07404 15.3549 1.02047 15.0485C0.966898 14.7422 1.00988 14.4267 1.14347 14.1459L6.60747 2.64585ZM6.45347 16.4349C6.78536 16.9087 7.2713 17.2527 7.82846 17.4084C8.38561 17.564 8.9795 17.5216 9.5089 17.2884C10.0383 17.0552 10.4704 16.6456 10.7317 16.1295C10.9929 15.6133 11.067 15.0226 10.9415 14.4579L6.45347 16.4349ZM16.0005 5.49985C15.8679 5.49985 15.7407 5.55253 15.6469 5.64629C15.5532 5.74006 15.5005 5.86724 15.5005 5.99985C15.5005 6.13246 15.5532 6.25963 15.6469 6.3534C15.7407 6.44717 15.8679 6.49985 16.0005 6.49985H17.5005C17.6331 6.49985 17.7603 6.44717 17.854 6.3534C17.9478 6.25963 18.0005 6.13246 18.0005 5.99985C18.0005 5.86724 17.9478 5.74006 17.854 5.64629C17.7603 5.55253 17.6331 5.49985 17.5005 5.49985H16.0005Z" fill="white"/>
</svg>
