<svg width="20" height="20" viewBox="0 0 20 20" fill="none" xmlns="http://www.w3.org/2000/svg">
<path d="M8.83333 13.375L14.7083 7.49998L13.5417 6.33331L8.83333 11.0416L6.45833 8.66665L5.29167 9.83331L8.83333 13.375ZM4.16667 17.5C3.70833 17.5 3.31583 17.3369 2.98917 17.0108C2.66306 16.6841 2.5 16.2916 2.5 15.8333V4.16665C2.5 3.70831 2.66306 3.31581 2.98917 2.98915C3.31583 2.66304 3.70833 2.49998 4.16667 2.49998H7.66667C7.84722 1.99998 8.14944 1.5972 8.57333 1.29165C8.99667 0.986091 9.47222 0.833313 10 0.833313C10.5278 0.833313 11.0036 0.986091 11.4275 1.29165C11.8508 1.5972 12.1528 1.99998 12.3333 2.49998H15.8333C16.2917 2.49998 16.6842 2.66304 17.0108 2.98915C17.3369 3.31581 17.5 3.70831 17.5 4.16665V15.8333C17.5 16.2916 17.3369 16.6841 17.0108 17.0108C16.6842 17.3369 16.2917 17.5 15.8333 17.5H4.16667ZM10 3.54165C10.1806 3.54165 10.33 3.48248 10.4483 3.36415C10.5661 3.24637 10.625 3.0972 10.625 2.91665C10.625 2.73609 10.5661 2.58665 10.4483 2.46831C10.33 2.35054 10.1806 2.29165 10 2.29165C9.81944 2.29165 9.67028 2.35054 9.5525 2.46831C9.43417 2.58665 9.375 2.73609 9.375 2.91665C9.375 3.0972 9.43417 3.24637 9.5525 3.36415C9.67028 3.48248 9.81944 3.54165 10 3.54165Z" fill="white"/>
</svg>
