<svg width="20" height="20" viewBox="0 0 20 20" fill="none" xmlns="http://www.w3.org/2000/svg">
<path d="M3.33333 10.8333H8.33333C8.55435 10.8333 8.76631 10.7455 8.92259 10.5893C9.07887 10.433 9.16667 10.221 9.16667 10V3.33333C9.16667 3.11232 9.07887 2.90036 8.92259 2.74408C8.76631 2.5878 8.55435 2.5 8.33333 2.5H3.33333C3.11232 2.5 2.90036 2.5878 2.74408 2.74408C2.5878 2.90036 2.5 3.11232 2.5 3.33333V10C2.5 10.221 2.5878 10.433 2.74408 10.5893C2.90036 10.7455 3.11232 10.8333 3.33333 10.8333ZM2.5 16.6667C2.5 16.8877 2.5878 17.0996 2.74408 17.2559C2.90036 17.4122 3.11232 17.5 3.33333 17.5H8.33333C8.55435 17.5 8.76631 17.4122 8.92259 17.2559C9.07887 17.0996 9.16667 16.8877 9.16667 16.6667V13.3333C9.16667 13.1123 9.07887 12.9004 8.92259 12.7441C8.76631 12.5878 8.55435 12.5 8.33333 12.5H3.33333C3.11232 12.5 2.90036 12.5878 2.74408 12.7441C2.5878 12.9004 2.5 13.1123 2.5 13.3333V16.6667ZM10.8333 16.6667C10.8333 16.8877 10.9211 17.0996 11.0774 17.2559C11.2337 17.4122 11.4457 17.5 11.6667 17.5H16.6667C16.8877 17.5 17.0996 17.4122 17.2559 17.2559C17.4122 17.0996 17.5 16.8877 17.5 16.6667V10.8333C17.5 10.6123 17.4122 10.4004 17.2559 10.2441C17.0996 10.0878 16.8877 10 16.6667 10H11.6667C11.4457 10 11.2337 10.0878 11.0774 10.2441C10.9211 10.4004 10.8333 10.6123 10.8333 10.8333V16.6667ZM11.6667 8.33333H16.6667C16.8877 8.33333 17.0996 8.24554 17.2559 8.08926C17.4122 7.93298 17.5 7.72101 17.5 7.5V3.33333C17.5 3.11232 17.4122 2.90036 17.2559 2.74408C17.0996 2.5878 16.8877 2.5 16.6667 2.5H11.6667C11.4457 2.5 11.2337 2.5878 11.0774 2.74408C10.9211 2.90036 10.8333 3.11232 10.8333 3.33333V7.5C10.8333 7.72101 10.9211 7.93298 11.0774 8.08926C11.2337 8.24554 11.4457 8.33333 11.6667 8.33333Z" fill="#F3F8FF"/>
</svg>
