<svg width="17" height="17" viewBox="0 0 17 17" fill="none" xmlns="http://www.w3.org/2000/svg">
<path d="M10.6283 6.33333C11.4333 6.33333 12.0867 6.98667 12.0867 7.79167V10.5H12.0833V11.3333H4.58333V8.83333H4.585V7.79167C4.585 6.98667 5.2375 6.33333 6.04333 6.33333H10.6283ZM16.6667 7.79167C16.6667 7.40489 16.513 7.03396 16.2395 6.76047C15.966 6.48698 15.5951 6.33333 15.2083 6.33333H12.3958C12.7233 6.72917 12.92 7.2375 12.92 7.79167V8.83333H12.9167V11.3333H16.0417C16.2074 11.3333 16.3664 11.2675 16.4836 11.1503C16.6008 11.0331 16.6667 10.8741 16.6667 10.7083V7.79167ZM3.75 10.5H3.75167V7.79167L3.75917 7.60833C3.79514 7.14007 3.97568 6.69454 4.27583 6.33333H1.45833L1.33833 6.33833C0.973583 6.36845 0.633491 6.53461 0.385567 6.80384C0.137642 7.07307 1.36705e-05 7.42567 0 7.79167V10.7083C0 11.0533 0.28 11.3333 0.625 11.3333H3.75V10.5ZM8.33333 0.5C8.99637 0.5 9.63226 0.763392 10.1011 1.23223C10.5699 1.70107 10.8333 2.33696 10.8333 3C10.8333 3.66304 10.5699 4.29893 10.1011 4.76777C9.63226 5.23661 8.99637 5.5 8.33333 5.5C7.67029 5.5 7.03441 5.23661 6.56557 4.76777C6.09672 4.29893 5.83333 3.66304 5.83333 3C5.83333 2.33696 6.09672 1.70107 6.56557 1.23223C7.03441 0.763392 7.67029 0.5 8.33333 0.5ZM13.75 1.33333C14.3025 1.33333 14.8324 1.55283 15.2231 1.94353C15.6138 2.33423 15.8333 2.86413 15.8333 3.41667C15.8333 3.9692 15.6138 4.4991 15.2231 4.88981C14.8324 5.28051 14.3025 5.5 13.75 5.5C13.1975 5.5 12.6676 5.28051 12.2769 4.88981C11.8862 4.4991 11.6667 3.9692 11.6667 3.41667C11.6667 2.86413 11.8862 2.33423 12.2769 1.94353C12.6676 1.55283 13.1975 1.33333 13.75 1.33333ZM2.91667 1.33333C3.4692 1.33333 3.9991 1.55283 4.38981 1.94353C4.78051 2.33423 5 2.86413 5 3.41667C5 3.9692 4.78051 4.4991 4.38981 4.88981C3.9991 5.28051 3.4692 5.5 2.91667 5.5C2.36413 5.5 1.83423 5.28051 1.44353 4.88981C1.05283 4.4991 0.833333 3.9692 0.833333 3.41667C0.833333 2.86413 1.05283 2.33423 1.44353 1.94353C1.83423 1.55283 2.36413 1.33333 2.91667 1.33333ZM0 12.7917C0 12.6259 0.0658479 12.4669 0.183058 12.3497C0.300268 12.2325 0.45924 12.1667 0.625 12.1667H16.0417C16.2074 12.1667 16.3664 12.2325 16.4836 12.3497C16.6008 12.4669 16.6667 12.6259 16.6667 12.7917V13.2083C16.6667 14.0371 16.3374 14.832 15.7514 15.418C15.1653 16.0041 14.3705 16.3333 13.5417 16.3333H3.125C2.2962 16.3333 1.50134 16.0041 0.915291 15.418C0.32924 14.832 0 14.0371 0 13.2083V12.7917Z" fill="white"/>
</svg>
