<svg width="20" height="20" viewBox="0 0 20 20" fill="none" xmlns="http://www.w3.org/2000/svg">
<path d="M10.0003 1.66663C5.40533 1.66663 1.66699 5.40496 1.66699 9.99996C1.66699 14.595 5.40533 18.3333 10.0003 18.3333C14.5953 18.3333 18.3337 14.595 18.3337 9.99996C18.3337 5.40496 14.5953 1.66663 10.0003 1.66663ZM10.8337 15H9.16699V13.3333H10.8337V15ZM11.647 10.9291C11.4837 11.0608 11.3262 11.1866 11.2012 11.3116C10.8612 11.6508 10.8345 11.9591 10.8337 11.9725V12.0833H9.16699V11.9441C9.16699 11.8458 9.19116 10.9633 10.022 10.1325C10.1845 9.96996 10.3862 9.80496 10.5978 9.63329C11.2095 9.13746 11.6112 8.77579 11.6112 8.27746C11.6015 7.85648 11.4274 7.456 11.1262 7.16172C10.825 6.86745 10.4206 6.70274 9.9995 6.70285C9.57841 6.70296 9.17408 6.86788 8.87303 7.16231C8.57198 7.45674 8.39812 7.8573 8.38866 8.27829H6.72199C6.72199 6.47079 8.19283 4.99996 10.0003 4.99996C11.8078 4.99996 13.2787 6.47079 13.2787 8.27829C13.2787 9.60913 12.2962 10.4033 11.647 10.9291V10.9291Z" fill="white"/>
</svg>
