<svg width="16" height="17" viewBox="0 0 16 17" fill="none" xmlns="http://www.w3.org/2000/svg">
<path d="M14.25 2H12.375V1.375C12.375 1.20924 12.3092 1.05027 12.1919 0.933058C12.0747 0.815848 11.9158 0.75 11.75 0.75C11.5842 0.75 11.4253 0.815848 11.3081 0.933058C11.1908 1.05027 11.125 1.20924 11.125 1.375V2H4.875V1.375C4.875 1.20924 4.80915 1.05027 4.69194 0.933058C4.57473 0.815848 4.41576 0.75 4.25 0.75C4.08424 0.75 3.92527 0.815848 3.80806 0.933058C3.69085 1.05027 3.625 1.20924 3.625 1.375V2H1.75C1.41848 2 1.10054 2.1317 0.866116 2.36612C0.631696 2.60054 0.5 2.91848 0.5 3.25V15.75C0.5 16.0815 0.631696 16.3995 0.866116 16.6339C1.10054 16.8683 1.41848 17 1.75 17H14.25C14.5815 17 14.8995 16.8683 15.1339 16.6339C15.3683 16.3995 15.5 16.0815 15.5 15.75V3.25C15.5 2.91848 15.3683 2.60054 15.1339 2.36612C14.8995 2.1317 14.5815 2 14.25 2ZM10.3172 12.8078C10.3753 12.8659 10.4213 12.9348 10.4527 13.0107C10.4842 13.0866 10.5003 13.1679 10.5003 13.25C10.5003 13.3321 10.4842 13.4134 10.4527 13.4893C10.4213 13.5652 10.3753 13.6341 10.3172 13.6922C10.2591 13.7503 10.1902 13.7963 10.1143 13.8277C10.0384 13.8592 9.95712 13.8753 9.875 13.8753C9.79288 13.8753 9.71156 13.8592 9.63569 13.8277C9.55982 13.7963 9.49088 13.7503 9.43281 13.6922L8 12.2586L6.56719 13.6922C6.50912 13.7503 6.44018 13.7963 6.36431 13.8277C6.28844 13.8592 6.20712 13.8753 6.125 13.8753C6.04288 13.8753 5.96156 13.8592 5.88569 13.8277C5.80982 13.7963 5.74088 13.7503 5.68281 13.6922C5.62474 13.6341 5.57868 13.5652 5.54725 13.4893C5.51583 13.4134 5.49965 13.3321 5.49965 13.25C5.49965 13.1679 5.51583 13.0866 5.54725 13.0107C5.57868 12.9348 5.62474 12.8659 5.68281 12.8078L7.11641 11.375L5.68281 9.94219C5.56554 9.82491 5.49965 9.66585 5.49965 9.5C5.49965 9.33415 5.56554 9.17509 5.68281 9.05781C5.80009 8.94054 5.95915 8.87465 6.125 8.87465C6.29085 8.87465 6.44991 8.94054 6.56719 9.05781L8 10.4914L9.43281 9.05781C9.49088 8.99974 9.55982 8.95368 9.63569 8.92225C9.71156 8.89083 9.79288 8.87465 9.875 8.87465C9.95712 8.87465 10.0384 8.89083 10.1143 8.92225C10.1902 8.95368 10.2591 8.99974 10.3172 9.05781C10.3753 9.11588 10.4213 9.18482 10.4527 9.26069C10.4842 9.33656 10.5003 9.41788 10.5003 9.5C10.5003 9.58212 10.4842 9.66344 10.4527 9.73931C10.4213 9.81518 10.3753 9.88412 10.3172 9.94219L8.88359 11.375L10.3172 12.8078ZM14.25 5.75H1.75V3.25H3.625V3.875C3.625 4.04076 3.69085 4.19973 3.80806 4.31694C3.92527 4.43415 4.08424 4.5 4.25 4.5C4.41576 4.5 4.57473 4.43415 4.69194 4.31694C4.80915 4.19973 4.875 4.04076 4.875 3.875V3.25H11.125V3.875C11.125 4.04076 11.1908 4.19973 11.3081 4.31694C11.4253 4.43415 11.5842 4.5 11.75 4.5C11.9158 4.5 12.0747 4.43415 12.1919 4.31694C12.3092 4.19973 12.375 4.04076 12.375 3.875V3.25H14.25V5.75Z" fill="white"/>
</svg>
