<svg width="20" height="20" viewBox="0 0 20 20" fill="none" xmlns="http://www.w3.org/2000/svg">
<g clip-path="url(#clip0_36_1172)">
<path fill-rule="evenodd" clip-rule="evenodd" d="M6.66732 2.08337H12.084L15.834 5.83337V15.4167C15.834 15.6377 15.7462 15.8497 15.5899 16.006C15.4336 16.1622 15.2217 16.25 15.0007 16.25H6.66732C6.4463 16.25 6.23434 16.1622 6.07806 16.006C5.92178 15.8497 5.83398 15.6377 5.83398 15.4167V2.91671C5.83398 2.69569 5.92178 2.48373 6.07806 2.32745C6.23434 2.17117 6.4463 2.08337 6.66732 2.08337ZM14.584 5.83337L12.084 3.33337V5.41671C12.084 5.52721 12.1279 5.6332 12.206 5.71134C12.2842 5.78948 12.3901 5.83337 12.5007 5.83337H14.584ZM13.6286 8.87212C13.7067 8.95026 13.7506 9.05622 13.7506 9.16671C13.7506 9.27719 13.7067 9.38315 13.6286 9.46129L10.0007 13.0892L8.0394 11.128C7.9635 11.0494 7.9215 10.9441 7.92245 10.8349C7.9234 10.7256 7.96722 10.6211 8.04448 10.5439C8.12173 10.4666 8.22624 10.4228 8.33548 10.4218C8.44473 10.4209 8.54998 10.4629 8.62857 10.5388L10.0007 11.9109L13.0394 8.87212C13.1175 8.79401 13.2235 8.75013 13.334 8.75013C13.4445 8.75013 13.5504 8.79401 13.6286 8.87212V8.87212Z" fill="white"/>
<path d="M5.00033 4.58337H4.16699V15.8334C4.16699 16.3859 4.38649 16.9158 4.77719 17.3065C5.16789 17.6972 5.69779 17.9167 6.25033 17.9167H14.167V17.0834H6.25033C5.9188 17.0834 5.60086 16.9517 5.36644 16.7173C5.13202 16.4828 5.00033 16.1649 5.00033 15.8334V4.58337Z" fill="white"/>
</g>
<defs>
<clipPath id="clip0_36_1172">
<rect width="20" height="20" fill="white"/>
</clipPath>
</defs>
</svg>
