<svg width="20" height="20" viewBox="0 0 20 20" fill="none" xmlns="http://www.w3.org/2000/svg">
<path d="M9.99967 1.66663V6.66663C9.99967 7.10865 10.1753 7.53258 10.4878 7.84514C10.8004 8.1577 11.2243 8.33329 11.6663 8.33329H16.6663V16.6666C16.6663 17.1087 16.4907 17.5326 16.1782 17.8451C15.8656 18.1577 15.4417 18.3333 14.9997 18.3333H9.32467C10.1872 17.4354 10.7141 16.2679 10.8167 15.0271C10.9193 13.7863 10.5913 12.5481 9.88797 11.5208C9.18463 10.4935 8.14888 9.73978 6.95501 9.3866C5.76114 9.03342 4.48205 9.10229 3.33301 9.58163V3.33329C3.33301 2.89127 3.5086 2.46734 3.82116 2.15478C4.13372 1.84222 4.55765 1.66663 4.99967 1.66663H9.99967Z" fill="white"/>
<path d="M11.2497 2.08325V6.66659C11.2497 6.77709 11.2936 6.88307 11.3717 6.96121C11.4499 7.03935 11.5558 7.08325 11.6663 7.08325H16.2497L11.2497 2.08325ZM9.99967 14.5833C9.99967 15.1851 9.88112 15.7811 9.65079 16.3372C9.42046 16.8933 9.08285 17.3986 8.65725 17.8242C8.23165 18.2498 7.72638 18.5874 7.17031 18.8177C6.61423 19.048 6.01823 19.1666 5.41634 19.1666C4.81445 19.1666 4.21845 19.048 3.66238 18.8177C3.1063 18.5874 2.60104 18.2498 2.17544 17.8242C1.74983 17.3986 1.41223 16.8933 1.18189 16.3372C0.951559 15.7811 0.833008 15.1851 0.833008 14.5833C0.833008 13.3677 1.31589 12.2019 2.17544 11.3423C3.03498 10.4828 4.20077 9.99992 5.41634 9.99992C6.63192 9.99992 7.79771 10.4828 8.65725 11.3423C9.51679 12.2019 9.99967 13.3677 9.99967 14.5833V14.5833ZM2.91634 14.1666C2.80583 14.1666 2.69985 14.2105 2.62171 14.2886C2.54357 14.3668 2.49967 14.4727 2.49967 14.5833C2.49967 14.6938 2.54357 14.7997 2.62171 14.8779C2.69985 14.956 2.80583 14.9999 2.91634 14.9999H6.91051L5.53801 16.3716C5.45977 16.4498 5.41581 16.5559 5.41581 16.6666C5.41581 16.7772 5.45977 16.8833 5.53801 16.9616C5.61625 17.0398 5.72236 17.0838 5.83301 17.0838C5.94365 17.0838 6.04977 17.0398 6.12801 16.9616L8.21134 14.8783C8.25014 14.8395 8.28093 14.7936 8.30194 14.7429C8.32294 14.6923 8.33375 14.6381 8.33375 14.5833C8.33375 14.5284 8.32294 14.4742 8.30194 14.4236C8.28093 14.3729 8.25014 14.327 8.21134 14.2883L6.12801 12.2049C6.04977 12.1267 5.94365 12.0827 5.83301 12.0827C5.72236 12.0827 5.61625 12.1267 5.53801 12.2049C5.45977 12.2832 5.41581 12.3893 5.41581 12.4999C5.41581 12.6106 5.45977 12.7167 5.53801 12.7949L6.91051 14.1666H2.91634Z" fill="white"/>
</svg>
