<svg width="20" height="20" viewBox="0 0 20 20" fill="none" xmlns="http://www.w3.org/2000/svg">
<path d="M7.5 2.49998V0.833313H12.5V2.49998H7.5ZM9.16667 11.6666H10.8333V6.66665H9.16667V11.6666ZM10 18.3333C8.97222 18.3333 8.00333 18.1355 7.09333 17.74C6.18389 17.3439 5.38889 16.8055 4.70833 16.125C4.02778 15.4444 3.48944 14.6494 3.09333 13.74C2.69778 12.83 2.5 11.8611 2.5 10.8333C2.5 9.80553 2.69778 8.83665 3.09333 7.92665C3.48944 7.0172 4.02778 6.2222 4.70833 5.54165C5.38889 4.86109 6.18389 4.32303 7.09333 3.92748C8.00333 3.53137 8.97222 3.33331 10 3.33331C10.8611 3.33331 11.6875 3.4722 12.4792 3.74998C13.2708 4.02776 14.0139 4.43053 14.7083 4.95831L15.875 3.79165L17.0417 4.95831L15.875 6.12498C16.4028 6.81942 16.8056 7.56248 17.0833 8.35415C17.3611 9.14581 17.5 9.9722 17.5 10.8333C17.5 11.8611 17.3022 12.83 16.9067 13.74C16.5106 14.6494 15.9722 15.4444 15.2917 16.125C14.6111 16.8055 13.8161 17.3439 12.9067 17.74C11.9967 18.1355 11.0278 18.3333 10 18.3333Z" fill="white"/>
</svg>
