<svg width="20" height="20" viewBox="0 0 20 20" fill="none" xmlns="http://www.w3.org/2000/svg">
<path d="M12.1087 1.20837L11.2087 2.10837L12.542 3.44171C12.7253 3.65004 12.817 3.89171 12.817 4.16671C12.817 4.44171 12.7253 4.70004 12.542 4.88337L9.58366 7.89171L10.417 8.79171L13.442 5.78337C13.8837 5.29171 14.1003 4.75004 14.1003 4.16671C14.1003 3.58337 13.8837 3.03337 13.442 2.54171L12.1087 1.20837ZM8.79199 2.89171L7.89199 3.79171L8.40033 4.25837C8.58366 4.44171 8.67533 4.69171 8.67533 5.00004C8.67533 5.30837 8.58366 5.55837 8.40033 5.74171L7.89199 6.20837L8.79199 7.10837L9.25866 6.60004C9.70033 6.10837 9.92533 5.57504 9.92533 5.00004C9.92533 4.40004 9.70033 3.85837 9.25866 3.35837L8.79199 2.89171ZM17.5003 4.21671C16.9253 4.21671 16.392 4.44171 15.9003 4.88337L11.2087 9.58337L12.1087 10.4167L16.7587 5.78337C16.967 5.57504 17.217 5.46671 17.5003 5.46671C17.7837 5.46671 18.0337 5.57504 18.242 5.78337L18.7503 6.29171L19.6087 5.39171L19.142 4.88337C18.6503 4.44171 18.1003 4.21671 17.5003 4.21671ZM5.83366 6.66671L1.66699 18.3334L13.3337 14.1667L5.83366 6.66671ZM15.8337 9.21671C15.2503 9.21671 14.717 9.44171 14.217 9.88337L12.892 11.2084L13.792 12.1084L15.117 10.7834C15.3253 10.575 15.5587 10.4667 15.8337 10.4667C16.1087 10.4667 16.3587 10.575 16.567 10.7834L17.917 12.1084L18.792 11.25L17.4587 9.88337C16.967 9.44171 16.417 9.21671 15.8337 9.21671Z" fill="white"/>
</svg>
