<svg width="11" height="7" viewBox="0 0 11 7" fill="none" xmlns="http://www.w3.org/2000/svg">
<path d="M5.2458 4.20749L1.7058 0.667493C1.51844 0.481242 1.26498 0.3767 1.0008 0.3767C0.736612 0.3767 0.48316 0.481242 0.295798 0.667493C0.20207 0.760456 0.127675 0.871057 0.0769064 0.992916C0.0261378 1.11478 -2.35072e-07 1.24548 -2.29301e-07 1.37749C-2.23531e-07 1.5095 0.0261378 1.64021 0.0769065 1.76207C0.127675 1.88393 0.20207 1.99453 0.295798 2.08749L4.5358 6.32749C4.62876 6.42122 4.73936 6.49561 4.86122 6.54638C4.98308 6.59715 5.11379 6.62329 5.2458 6.62329C5.37781 6.62329 5.50852 6.59715 5.63037 6.54638C5.75223 6.49561 5.86283 6.42122 5.9558 6.32749L10.2458 2.08749C10.3385 1.99405 10.4118 1.88324 10.4616 1.7614C10.5113 1.63956 10.5366 1.5091 10.5358 1.37749C10.5366 1.24589 10.5113 1.11542 10.4616 0.993586C10.4118 0.871748 10.3385 0.760932 10.2458 0.667492C10.0584 0.481241 9.80498 0.3767 9.5408 0.3767C9.27661 0.3767 9.02316 0.481241 8.8358 0.667492L5.2458 4.20749Z" fill="#1125a9"/>
</svg>
