<svg width="36" height="36" viewBox="0 0 36 36" fill="none" xmlns="http://www.w3.org/2000/svg">
<circle cx="18" cy="18" r="18" fill="#3247d5"/>
<path d="M14.25 9.875C14.25 9.70924 14.3158 9.55027 14.4331 9.43306C14.5503 9.31585 14.7092 9.25 14.875 9.25H19.875C20.0408 9.25 20.1997 9.31585 20.3169 9.43306C20.4342 9.55027 20.5 9.70924 20.5 9.875C20.5 10.0408 20.4342 10.1997 20.3169 10.3169C20.1997 10.4342 20.0408 10.5 19.875 10.5H14.875C14.7092 10.5 14.5503 10.4342 14.4331 10.3169C14.3158 10.1997 14.25 10.0408 14.25 9.875ZM17.375 26.75C19.3641 26.75 21.2718 25.9598 22.6783 24.5533C24.0848 23.1468 24.875 21.2391 24.875 19.25C24.875 17.2609 24.0848 15.3532 22.6783 13.9467C21.2718 12.5402 19.3641 11.75 17.375 11.75C15.3859 11.75 13.4782 12.5402 12.0717 13.9467C10.6652 15.3532 9.875 17.2609 9.875 19.25C9.875 21.2391 10.6652 23.1468 12.0717 24.5533C13.4782 25.9598 15.3859 26.75 17.375 26.75ZM17.375 14.25C17.5408 14.25 17.6997 14.3158 17.8169 14.4331C17.9342 14.5503 18 14.7092 18 14.875V19.875C18 20.0408 17.9342 20.1997 17.8169 20.3169C17.6997 20.4342 17.5408 20.5 17.375 20.5C17.2092 20.5 17.0503 20.4342 16.9331 20.3169C16.8158 20.1997 16.75 20.0408 16.75 19.875V14.875C16.75 14.7092 16.8158 14.5503 16.9331 14.4331C17.0503 14.3158 17.2092 14.25 17.375 14.25ZM23.5662 11.3025C23.5086 11.2428 23.4396 11.1952 23.3634 11.1624C23.2871 11.1297 23.2051 11.1124 23.1221 11.1117C23.0391 11.111 22.9568 11.1268 22.88 11.1582C22.8032 11.1897 22.7334 11.2361 22.6748 11.2948C22.6161 11.3534 22.5697 11.4232 22.5382 11.5C22.5068 11.5768 22.491 11.6591 22.4917 11.7421C22.4924 11.8251 22.5097 11.9071 22.5424 11.9834C22.5752 12.0596 22.6228 12.1286 22.6825 12.1862L24.4363 13.94C24.4939 13.9997 24.5629 14.0473 24.6391 14.0801C24.7154 14.1128 24.7974 14.1301 24.8804 14.1308C24.9634 14.1315 25.0457 14.1157 25.1225 14.0843C25.1993 14.0528 25.2691 14.0064 25.3277 13.9477C25.3864 13.8891 25.4328 13.8193 25.4643 13.7425C25.4957 13.6657 25.5115 13.5834 25.5108 13.5004C25.5101 13.4174 25.4928 13.3354 25.4601 13.2591C25.4273 13.1829 25.3797 13.1139 25.32 13.0563L23.5662 11.3025Z" fill="white"/>
</svg>
