<svg width="36" height="36" viewBox="0 0 36 36" fill="none" xmlns="http://www.w3.org/2000/svg">
<circle cx="18" cy="18" r="18" fill="#3247d5"/>
<path d="M17.9997 9.66669V14.6667C17.9997 15.1087 18.1753 15.5326 18.4878 15.8452C18.8004 16.1578 19.2243 16.3334 19.6663 16.3334H24.6663V24.6667C24.6663 25.1087 24.4907 25.5326 24.1782 25.8452C23.8656 26.1578 23.4417 26.3334 22.9997 26.3334H17.3247C18.1872 25.4355 18.7141 24.2679 18.8167 23.0272C18.9193 21.7864 18.5913 20.5481 17.888 19.5208C17.1846 18.4935 16.1489 17.7398 14.955 17.3867C13.7611 17.0335 12.482 17.1024 11.333 17.5817V11.3334C11.333 10.8913 11.5086 10.4674 11.8212 10.1548C12.1337 9.84228 12.5576 9.66669 12.9997 9.66669H17.9997Z" fill="white"/>
<path d="M19.2497 10.0834V14.6667C19.2497 14.7772 19.2936 14.8832 19.3717 14.9613C19.4499 15.0395 19.5558 15.0834 19.6663 15.0834H24.2497L19.2497 10.0834ZM17.9997 22.5834C17.9997 23.1853 17.8811 23.7813 17.6508 24.3373C17.4205 24.8934 17.0828 25.3987 16.6572 25.8243C16.2316 26.2499 15.7264 26.5875 15.1703 26.8178C14.6142 27.0482 14.0182 27.1667 13.4163 27.1667C12.8144 27.1667 12.2185 27.0482 11.6624 26.8178C11.1063 26.5875 10.601 26.2499 10.1754 25.8243C9.74983 25.3987 9.41223 24.8934 9.18189 24.3373C8.95156 23.7813 8.83301 23.1853 8.83301 22.5834C8.83301 21.3678 9.31589 20.202 10.1754 19.3425C11.035 18.4829 12.2008 18 13.4163 18C14.6319 18 15.7977 18.4829 16.6572 19.3425C17.5168 20.202 17.9997 21.3678 17.9997 22.5834ZM10.9163 22.1667C10.8058 22.1667 10.6999 22.2106 10.6217 22.2887C10.5436 22.3669 10.4997 22.4729 10.4997 22.5834C10.4997 22.6939 10.5436 22.7999 10.6217 22.878C10.6999 22.9561 10.8058 23 10.9163 23H14.9105L13.538 24.3717C13.4598 24.4499 13.4158 24.5561 13.4158 24.6667C13.4158 24.7774 13.4598 24.8835 13.538 24.9617C13.6162 25.0399 13.7224 25.0839 13.833 25.0839C13.9437 25.0839 14.0498 25.0399 14.128 24.9617L16.2113 22.8784C16.2501 22.8397 16.2809 22.7937 16.3019 22.7431C16.3229 22.6924 16.3338 22.6382 16.3338 22.5834C16.3338 22.5286 16.3229 22.4743 16.3019 22.4237C16.2809 22.3731 16.2501 22.3271 16.2113 22.2884L14.128 20.205C14.0498 20.1268 13.9437 20.0828 13.833 20.0828C13.7224 20.0828 13.6162 20.1268 13.538 20.205C13.4598 20.2833 13.4158 20.3894 13.4158 20.5C13.4158 20.6107 13.4598 20.7168 13.538 20.795L14.9105 22.1667H10.9163Z" fill="white"/>
</svg>
