<svg width="55" height="60" viewBox="0 0 55 60" fill="none" xmlns="http://www.w3.org/2000/svg">
<path d="M9.42973 0.152317C7.61332 0.832005 6.75785 2.07419 6.6641 4.12497L6.61723 5.27341H4.00394C1.54301 5.27341 1.37894 5.28513 1.08598 5.5195C0.382851 6.07029 0.429726 4.35934 0.429726 29.0039C0.429726 53.8125 0.382851 52.0781 1.10941 52.582C1.40238 52.7695 1.81254 52.7929 5.79691 52.8281C8.51566 52.8515 10.1563 52.9101 10.1563 52.9804C10.1563 53.039 9.86332 54.1172 9.50004 55.3711C8.64457 58.3945 8.63285 59.4023 9.46488 59.8242C9.86332 60.0351 10.6836 60.0468 11.2227 59.8593C11.4454 59.789 14.4219 58.1953 17.8321 56.3203L24.043 52.9101L38.8086 52.8515C52.8008 52.7929 53.586 52.7812 53.8907 52.582C54.6172 52.0781 54.5704 53.8125 54.5704 29.0039C54.5704 4.35934 54.6172 6.07029 53.9141 5.5195C53.6211 5.28513 53.4571 5.27341 51.4063 5.27341H49.2032L49.1563 4.12497C49.1211 3.19919 49.0625 2.87107 48.8047 2.32029C48.4297 1.51169 47.6797 0.738255 46.8946 0.351536C46.3789 0.0937233 46.1563 0.058567 45.0782 0.058567C43.8946 0.058567 43.8125 0.0702858 43.1094 0.457005C41.7149 1.21872 41.0821 2.32029 41 4.12497L40.9532 5.27341H39.3946H37.8477L37.7657 4.207C37.6602 2.74216 37.3438 1.98044 36.5352 1.16013C35.6094 0.246067 34.8477 -0.035183 33.418 0.0234108C32.1758 0.0820045 31.4844 0.374973 30.6993 1.19529C29.9375 1.98044 29.586 2.87107 29.5157 4.18357L29.4571 5.27341H27.8985H26.3282V4.40622C26.3282 3.10544 25.9883 2.15622 25.25 1.34763C24.3829 0.398411 23.7149 0.0820045 22.4024 0.0234108C20.9727 -0.035183 20.211 0.246067 19.2852 1.16013C18.4063 2.03904 18.125 2.78904 18.125 4.21872V5.27341H16.4961H14.8672L14.8204 4.06638C14.7852 2.97654 14.7383 2.80075 14.375 2.13279C13.9414 1.31247 13.3321 0.726536 12.5118 0.328098C11.8438 -2.67029e-05 10.1211 -0.0937767 9.42973 0.152317ZM23.0704 1.99216C23.1172 1.99216 23.3516 2.16794 23.586 2.36716C24.1954 2.90622 24.4532 3.52732 24.4532 4.47654V5.27341H22.2266H20V4.3945C20 3.21091 20.3282 2.54294 21.1133 2.13279C21.6289 1.87497 22.1094 1.79294 22.5782 1.89841C22.8008 1.94529 23.0235 1.99216 23.0704 1.99216ZM34.9883 2.332C35.5743 2.78904 35.8321 3.36325 35.9024 4.3945L35.9727 5.27341H33.6641H31.3672V4.59372C31.3672 3.6445 31.5547 3.082 32.0586 2.55466C32.8321 1.71091 34.1094 1.61716 34.9883 2.332ZM11.9375 2.21482C12.6641 2.68357 12.9688 3.3281 12.9688 4.42966V5.27341H10.7422H8.51566V4.42966C8.51566 3.3281 8.82035 2.68357 9.54691 2.21482C9.98051 1.94529 10.2149 1.87497 10.7422 1.87497C11.2696 1.87497 11.5039 1.94529 11.9375 2.21482ZM46.2735 2.21482C47 2.68357 47.3047 3.3281 47.3047 4.42966V5.27341H45.0782H42.8516V4.42966C42.8516 3.3281 43.1563 2.68357 43.8829 2.21482C44.3164 1.94529 44.5508 1.87497 45.0782 1.87497C45.6055 1.87497 45.8399 1.94529 46.2735 2.21482ZM6.6641 8.28513C6.69926 9.24607 6.75785 9.53904 7.0391 10.0781C7.6016 11.1914 8.42191 11.8945 9.57035 12.2343C10.4961 12.5156 11.0469 12.4804 11.3868 12.1289C11.9844 11.5429 11.5625 10.5468 10.7188 10.5468C10.2383 10.5468 9.4766 10.1953 9.13676 9.832C8.7266 9.37497 8.51566 8.74216 8.51566 7.91013V7.14841H13.3086H18.1016L18.1485 8.34372C18.1836 9.35154 18.2422 9.6445 18.5 10.1367C19.1446 11.3789 20.375 12.2343 21.711 12.375C22.543 12.4687 22.836 12.3515 23.0469 11.8359C23.1641 11.5547 23.1641 11.414 23.0469 11.1328C22.8711 10.6992 22.6954 10.6054 21.9336 10.5C21.2422 10.4062 20.7032 10.0664 20.3047 9.44529C20.0469 9.04685 20 8.84763 20 8.06247V7.14841H24.7344H29.4571L29.5157 8.26169C29.5625 9.19919 29.6329 9.49216 29.9493 10.125C30.5704 11.4023 31.8243 12.2578 33.2188 12.3867C33.7813 12.4336 33.9336 12.4101 34.2149 12.1875C34.461 11.9883 34.5313 11.8359 34.5313 11.4961C34.5313 10.9218 34.2383 10.6523 33.4532 10.5351C32.1641 10.3242 31.461 9.46872 31.3907 7.99216L31.3438 7.14841H36.1485H40.9532L41 8.28513C41.0586 9.65622 41.293 10.2656 42.0782 11.1093C42.7579 11.8359 43.6836 12.2929 44.6563 12.3867C45.3594 12.4453 45.4297 12.4336 45.711 12.1523C46.3086 11.5547 45.9102 10.5468 45.0782 10.5468C44.8789 10.5468 44.5274 10.4648 44.2813 10.3711C43.3204 9.96091 42.8633 9.18747 42.8516 7.93357V7.14841H47.7735H52.6954V10.957V14.7656H27.5H2.30473V10.957V7.14841H4.46098H6.61723L6.6641 8.28513ZM52.6954 17.7539V18.8672H40.8594H29.0118L28.7305 19.1601C28.3438 19.5351 28.3438 20.0742 28.7305 20.4492L29.0118 20.7422H40.8594H52.6954V35.8593V50.9765H40.1914C32.9844 50.9765 27.7461 50.9297 27.8516 50.8711C27.9454 50.8125 29.6094 49.8984 31.5547 48.8437L35.0821 46.9218L35.75 47.4492C36.5 48.0351 37.0391 48.1406 37.461 47.7539C37.8125 47.4375 37.7774 46.7109 37.3907 46.3476C37.2266 46.1953 32.3868 42.3047 26.6329 37.6875C17.4805 30.3515 16.1211 29.2968 15.7813 29.2968C15.2422 29.2968 14.8438 29.6836 14.8438 30.1992C14.8438 30.6211 14.9961 30.8203 15.8399 31.4765L16.2969 31.8515L13.543 41.3789L10.7891 50.9179L6.54691 50.9531L2.30473 50.9765V35.8593V20.7422H13.9532C25.5547 20.7422 25.5899 20.7422 25.9063 20.4961C26.3047 20.1797 26.3282 19.5351 25.9532 19.1367L25.7071 18.8672H14H2.30473V17.7539V16.6406H27.5H52.6954V17.7539ZM25.9649 39.5976L33.4766 45.6211L31.1446 46.8984C29.8555 47.5898 28.7657 48.164 28.7071 48.164C28.6602 48.164 27.5821 46.875 26.3282 45.2929C23.9375 42.3047 23.7032 42.082 23.0821 42.3164C22.5079 42.5273 22.3086 43.0781 22.6016 43.6289C22.6719 43.7695 23.668 45.0468 24.8282 46.4883C25.9766 47.9179 26.9141 49.125 26.9141 49.1484C26.9141 49.1836 26.4805 49.4414 25.9532 49.7226L25.0039 50.25L21.0313 45.3164C18.8516 42.5976 16.8594 40.1015 16.6016 39.7851L16.1446 39.1992L16.5196 37.8867L16.8946 36.5742L18.5821 38.6836C19.6836 40.0664 20.3516 40.8047 20.5391 40.8515C21.1368 41.0039 21.7579 40.4883 21.7579 39.8437C21.7579 39.7148 20.8086 38.4258 19.6485 36.9843L17.5508 34.3476L17.7266 33.75L17.9024 33.1523L18.1836 33.3633C18.336 33.4804 21.8399 36.2812 25.9649 39.5976ZM19.4141 46.3476C21.3711 48.7968 23.0352 50.8828 23.1289 50.9883C23.2813 51.164 23.1289 51.2695 21.6172 52.0898C20.6914 52.5937 19.9063 53.0273 19.8594 53.0508C19.8125 53.0742 18.5118 51.5156 16.9649 49.5937L14.1641 46.0898L14.8204 43.7812C15.4414 41.6133 15.4883 41.4961 15.6758 41.6836C15.7813 41.8008 17.4688 43.8984 19.4141 46.3476ZM15.7344 51.1172C16.9297 52.6172 17.9375 53.8945 17.961 53.9531C18.0196 54.1172 16.1329 55.125 16.0157 54.9961C15.9571 54.9492 15.2071 54.0117 14.3399 52.9218L12.7579 50.9531L12.9805 50.1679C13.1094 49.7461 13.2618 49.1718 13.3321 48.8906C13.4024 48.6211 13.4844 48.3984 13.5079 48.3984C13.5313 48.3984 14.5274 49.6172 15.7344 51.1172ZM13.3204 54.7148C13.9063 55.4414 14.375 56.0508 14.3516 56.0742C14.211 56.1914 10.8008 57.9843 10.7774 57.9609C10.7539 57.9492 11.0469 56.8711 11.4102 55.5703C11.7852 54.2812 12.125 53.25 12.1719 53.2968C12.2071 53.3437 12.7227 53.9765 13.3204 54.7148Z" fill="#BDBDBD"/>
</svg>
