<svg width="53" height="53" viewBox="0 0 53 53" fill="none" xmlns="http://www.w3.org/2000/svg">
<path d="M20.349 19.25C21.8106 17.481 24.0233 16.35 26.4999 16.35C28.9765 16.35 31.1892 17.481 32.6508 19.25C33.6131 20.4167 34.2238 21.833 34.4117 23.3336C34.5996 24.8343 34.3569 26.3574 33.7119 27.7253C33.067 29.0933 32.0464 30.2496 30.7692 31.0595C29.492 31.8694 28.0108 32.2994 26.4985 32.2994C24.9861 32.2994 23.5049 31.8694 22.2277 31.0595C20.9505 30.2496 19.9299 29.0933 19.285 27.7253C18.64 26.3574 18.3974 24.8343 18.5852 23.3336C18.7731 21.833 19.3838 20.4167 20.3461 19.25H20.349ZM37.3749 24.325C37.3749 22.4922 36.9225 20.7638 36.1221 19.25H48.2499C49.4036 19.25 50.51 19.7083 51.3258 20.5241C52.1416 21.3399 52.5999 22.4463 52.5999 23.6V25.05C52.5999 29.6523 49.1025 34.3648 42.9864 36.0236C42.3579 34.8946 41.439 33.9541 40.325 33.2994C39.2109 32.6447 37.9421 32.2997 36.6499 32.3H33.8949C34.9941 31.283 35.8708 30.0493 36.4697 28.6768C37.0686 27.3043 37.3768 25.8226 37.3749 24.325ZM36.6499 35.2C37.2216 35.1985 37.7879 35.31 38.3164 35.528C38.8448 35.7461 39.325 36.0665 39.7292 36.4707C40.1335 36.8749 40.4538 37.3551 40.6719 37.8835C40.89 38.412 41.0014 38.9783 40.9999 39.55V41C40.9999 46.7159 35.6059 52.6 26.4999 52.6C17.3939 52.6 11.9999 46.7159 11.9999 41V39.55C11.9984 38.9783 12.1098 38.412 12.3279 37.8835C12.546 37.3551 12.8663 36.8749 13.2706 36.4707C13.6748 36.0665 14.155 35.7461 14.6834 35.528C15.2119 35.31 15.7782 35.1985 16.3499 35.2H36.6499ZM0.399902 25.05C0.399902 29.6523 3.8973 34.3648 10.0134 36.0236C10.6419 34.8946 11.5608 33.9541 12.6748 33.2994C13.7889 32.6447 15.0577 32.2997 16.3499 32.3H19.1049C18.0057 31.283 17.129 30.0493 16.5301 28.6768C15.9312 27.3043 15.623 25.8226 15.6249 24.325C15.6249 22.4922 16.0773 20.7638 16.8806 19.25H4.7499C3.59621 19.25 2.48977 19.7083 1.67399 20.5241C0.858205 21.3399 0.399902 22.4463 0.399902 23.6V25.05ZM22.8749 8.37502C22.8749 6.25992 22.0347 4.23145 20.5391 2.73585C19.0435 1.24025 17.015 0.400024 14.8999 0.400024C12.7848 0.400024 10.7563 1.24025 9.26073 2.73585C7.76512 4.23145 6.9249 6.25992 6.9249 8.37502C6.9249 10.4901 7.76512 12.5186 9.26073 14.0142C10.7563 15.5098 12.7848 16.35 14.8999 16.35C17.015 16.35 19.0435 15.5098 20.5391 14.0142C22.0347 12.5186 22.8749 10.4901 22.8749 8.37502ZM46.0749 8.37502C46.0749 6.25992 45.2347 4.23145 43.7391 2.73585C42.2435 1.24025 40.215 0.400024 38.0999 0.400024C35.9848 0.400024 33.9563 1.24025 32.4607 2.73585C30.9651 4.23145 30.1249 6.25992 30.1249 8.37502C30.1249 10.4901 30.9651 12.5186 32.4607 14.0142C33.9563 15.5098 35.9848 16.35 38.0999 16.35C40.215 16.35 42.2435 15.5098 43.7391 14.0142C45.2347 12.5186 46.0749 10.4901 46.0749 8.37502Z" fill="white"/>
</svg>
