<?xml version="1.0" encoding="utf-8"?>
<!-- Generator: Adobe Illustrator 25.4.1, SVG Export Plug-In . SVG Version: 6.00 Build 0)  -->
<svg version="1.1" id="Layer_1" xmlns="http://www.w3.org/2000/svg" xmlns:xlink="http://www.w3.org/1999/xlink" x="0px" y="0px"
	 viewBox="0 0 64 64" style="enable-background:new 0 0 64 64;" xml:space="preserve">
<style type="text/css">
	.st0{fill:#FFFFFF;}
	.st1{fill:#5F5F5F;}
	.st2{fill:#575757;}
</style>
<g>
	<path d="M32.98,2.04c0.62,0.23,1.28,0.18,1.91,0.36c5.86,1.61,9.6,5.34,10.87,11.28c1.53,7.19-2.85,14.51-9.91,16.59
		c-8.79,2.59-16.84-3.02-18.39-10.95c-1.64-8.41,3.84-14.95,10.18-16.75c0.79-0.22,1.6-0.36,2.41-0.54c0.16,0,0.31,0,0.47,0
		c0.08,0.07,0.16,0.07,0.23,0c0.55,0,1.09,0,1.64,0c0.08,0.07,0.16,0.07,0.23,0C32.75,2.04,32.87,2.04,32.98,2.04z"/>
	<path class="st1" d="M30.76,2.04c-0.08,0.13-0.16,0.15-0.23,0C30.61,2.04,30.68,2.04,30.76,2.04z"/>
	<path class="st2" d="M32.63,2.04c-0.08,0.15-0.16,0.13-0.23,0C32.48,2.04,32.56,2.04,32.63,2.04z"/>
	<path d="M31.98,61.96c-4.74,0-9.48,0-14.21,0c-2.45,0-4.76-0.48-6.78-1.95c-2.26-1.63-3.6-3.86-3.83-6.61
		c-0.43-4.95,0.15-9.81,2-14.45c1.1-2.76,2.76-5.14,5.47-6.61c1.72-0.93,3.56-1.33,5.5-1.36c0.66-0.01,1.25,0.28,1.8,0.63
		c0.87,0.55,1.73,1.12,2.61,1.66c4.99,3.06,9.99,3.05,14.97-0.02c0.7-0.43,1.4-0.85,2.06-1.34c1.19-0.89,2.51-1.03,3.93-0.82
		c3.88,0.57,6.63,2.67,8.49,6.07c1.67,3.04,2.37,6.35,2.76,9.76c0.2,1.73,0.26,3.46,0.23,5.2c-0.11,5.33-3.67,9.19-8.97,9.75
		c-0.66,0.07-1.32,0.1-1.98,0.1C41.34,61.96,36.66,61.96,31.98,61.96z"/>
</g>
</svg>
